<svg width="34" height="34" viewBox="0 0 34 34" fill="none" xmlns="http://www.w3.org/2000/svg">
<path d="M1.00934 17C1.00934 23.9593 5.47184 29.8562 11.6343 32.0343V1.96558C5.47184 4.1437 1.00934 10.0406 1.00934 17Z" fill="#428BC1"/>
<path d="M32.8843 17C32.8843 10.0406 28.475 4.1437 22.2593 1.96558V32.0343C28.475 29.8562 32.8843 23.9593 32.8843 17" fill="#ED4C5C"/>
<path d="M11.6343 32.0344C13.2812 32.6187 15.0875 32.9375 16.9468 32.9375C18.8062 32.9375 20.6125 32.6187 22.2593 32.0344V1.96563C20.6125 1.38125 18.8593 1.0625 16.9468 1.0625C15.0343 1.0625 13.2812 1.38125 11.6343 1.96563V32.0344" fill="white"/>
</svg>
