<svg width="255" height="260" viewBox="0 0 255 260" fill="none" xmlns="http://www.w3.org/2000/svg">
<mask id="mask0" mask-type="alpha" maskUnits="userSpaceOnUse" x="0" y="-1" width="255" height="261">
<rect y="-0.00012207" width="255" height="260" fill="white"/>
</mask>
<g mask="url(#mask0)">
</g>
<g clip-path="url(#clip0)">
<path d="M19.5222 56.3681C15.9131 67.6183 19.4658 79.773 22.3136 91.2776C27.6145 112.647 27.8119 134.384 26.7686 156.319C26.0919 171.018 26.1765 185.887 29.3909 200.246C32.0695 212.175 37.0039 223.792 44.8142 233.233C52.399 242.392 64.7771 246.915 76.535 246.971C82.3998 246.999 98.4434 245.925 104.224 244.908C124.158 241.374 144.206 238.435 164.338 236.088C180.156 234.251 213.456 232.046 226.172 221.503C234.941 214.21 238.099 205.249 236.633 193.801C235.646 186 232.827 178.537 230.43 171.046C224.227 151.627 220.618 131.36 219.744 111.008C218.841 90.26 221.83 70.7559 224.932 50.2907C225.862 44.1003 225.665 37.4576 222.845 31.889C218.644 23.5503 209.198 20.6388 199.922 19.706C186.303 18.321 158.868 19.2255 145.221 20.13C125.484 21.4303 95.511 22.7589 75.8583 24.9071C61.1398 26.5183 47.7184 29.4864 34.9737 37.6555C28.0375 42.1216 22.1163 48.3686 19.5222 56.3681Z" fill="#9965B0"/>
<path d="M196.397 207.285L56.5723 211.016L56.8261 36.1013L195.241 36.3275L196.397 207.285Z" fill="#EFD8BC"/>
<path d="M180.805 44.2421H71.2344V208.19H180.805V44.2421Z" fill="#CEE7EF"/>
<path d="M180.41 150.695C179.903 150.695 179.395 150.723 178.916 150.723C177.534 150.723 176.125 150.723 174.743 150.695C172.036 150.695 169.329 150.667 166.622 150.667C161.209 150.638 155.795 150.638 150.41 150.61C149.451 150.61 148.718 151.402 148.69 152.334C148.379 161.606 148.52 170.877 149.028 180.149C148.972 185.859 148.859 191.569 149.141 197.25C149.141 197.533 149.225 197.787 149.338 198.014C149.225 198.833 149.705 199.71 150.804 199.794C156.697 200.218 162.675 199.964 168.596 199.992C172.544 199.992 176.491 200.049 180.41 200.021V150.695Z" fill="#B4DBE5"/>
<path d="M165.889 149.197C165.748 145.381 165.579 133.848 165.438 130.032C165.438 125.537 165.438 121.015 165.297 116.52C165.269 116.096 165.128 115.785 164.902 115.559C164.705 115.079 164.254 114.711 163.577 114.655C160.729 114.429 157.825 114.626 154.977 114.626H150.127C147.787 114.513 145.475 114.429 143.135 114.372C139.892 114.287 136.65 114.287 133.407 114.316C132.166 114.316 130.7 114.146 129.572 114.824C129.46 114.853 129.375 114.853 129.262 114.881C128.501 115.05 128.191 115.842 128.332 116.52C128.163 117.227 128.191 118.018 128.219 118.753C128.275 119.658 128.332 120.534 128.388 121.439C128.163 137.664 128.247 153.861 128.247 170.086C128.247 175.061 128.191 180.064 128.304 185.039C128.36 186.961 131.208 186.961 131.264 185.039C131.433 178.623 131.377 172.206 131.349 165.789C131.49 170.849 131.631 175.909 131.743 180.94C131.772 181.845 132.448 182.41 133.294 182.495C136.706 182.834 140.118 183.202 143.53 183.541C144.911 183.682 146.8 184.219 148.154 183.767C148.633 183.597 149.028 183.287 149.282 182.919C149.93 182.891 150.522 182.439 150.438 181.591C149.479 170.369 149.056 166.807 149.253 155.557C151.396 155.472 153.567 155.415 155.71 155.331C158.558 155.331 161.434 155.359 164.282 155.133C164.902 155.076 165.297 154.737 165.466 154.313C166.538 153.098 165.974 150.638 165.889 149.197Z" fill="#B4DBE5"/>
<path d="M119.337 152.956C119.337 146.681 119.394 140.378 119.168 134.102C119.14 133.311 118.604 132.887 118.012 132.774C117.899 132.689 117.758 132.632 117.617 132.576C115.982 132.095 114.065 132.35 112.401 132.35C110.568 132.35 108.707 132.35 106.875 132.35C105.098 132.35 103.322 132.378 101.574 132.378C100.136 132.378 98.6413 132.35 97.2033 132.491C97.1751 130.965 97.1469 129.438 97.1469 127.912C97.1469 123.926 97.1469 119.941 97.1469 115.955C97.1469 111.969 97.1469 107.984 97.1187 103.998C97.0905 100.013 97.2033 95.9987 96.9495 92.0413C96.8931 91.1933 96.2728 90.7411 95.6243 90.7411C95.4269 90.628 95.1731 90.5432 94.863 90.5149C90.4926 90.3171 86.0658 90.4866 81.6671 90.4866C77.9452 90.4866 74.1388 90.3171 70.3887 90.5715V155.585C74.8719 155.472 79.3269 155.359 83.8101 155.218C83.5845 157.451 83.3871 159.712 83.1897 161.945C83.1051 162.765 83.951 163.556 84.7405 163.5L116.264 161.775C116.264 165.111 116.264 168.418 116.292 171.754C116.32 173.732 119.337 173.732 119.365 171.754C119.422 165.507 119.365 159.231 119.337 152.956Z" fill="#B4DBE5"/>
<path d="M160.419 119.036H154.611V123.05H160.419V119.036Z" fill="#CEE7EF"/>
<path d="M147.957 127.544H142.148V131.558H147.957V127.544Z" fill="#CEE7EF"/>
<path d="M156.866 132.011H151.058V136.024H156.866V132.011Z" fill="#CEE7EF"/>
<path d="M145.052 149.197H139.244V153.211H145.052V149.197Z" fill="#CEE7EF"/>
<path d="M160.419 158.214H153.962V162.68H160.419V158.214Z" fill="#CEE7EF"/>
<path d="M92.4381 95.6312H86.6297V99.6451H92.4381V95.6312Z" fill="#CEE7EF"/>
<path d="M112.288 137.862H106.48V141.876H112.288V137.862Z" fill="#CEE7EF"/>
<path d="M84.8816 105.468H79.0732V109.482H84.8816V105.468Z" fill="#CEE7EF"/>
<path d="M177.506 154.257H171.049V158.723H177.506V154.257Z" fill="#CEE7EF"/>
<path d="M173.559 174.637H167.102V179.103H173.559V174.637Z" fill="#CEE7EF"/>
<path d="M184.527 41.9243C183.822 40.7653 68.4431 40.9915 67.5126 41.9243C66.5821 42.8571 67.9919 208.896 67.9919 208.896L184.893 206.861C184.865 206.861 185.232 43.0832 184.527 41.9243ZM122.777 197.137C122.185 197.731 74.8436 197.363 74.8436 197.363L74.3925 149.564C74.3925 149.564 72.5033 48.3126 73.6876 47.408C74.618 46.7013 122.777 46.9275 123.228 47.1819C124.159 47.6341 123.708 196.176 122.777 197.137ZM177.421 197.137C176.717 198.07 134.62 197.363 134.62 197.363L134.168 149.564C134.168 149.564 133.943 137.296 133.689 121.269C136.058 119.149 138.341 116.888 140.541 114.598C141.951 113.157 139.836 111.065 138.341 112.393C136.762 113.835 135.155 115.305 133.633 116.803C133.182 87.1229 132.73 47.9734 133.492 47.408C134.422 46.7013 177.45 46.9275 177.929 47.1819C178.831 47.6341 178.408 195.809 177.421 197.137Z" fill="white"/>
<path d="M127.683 137.07C127.683 116.944 127.683 96.8466 127.683 76.7207V42.6874C127.683 42.3765 127.232 42.3765 127.232 42.6874C127.232 62.8134 127.232 82.9111 127.232 103.037C127.232 123.163 127.232 143.261 127.232 163.387C127.232 174.722 127.176 186.085 127.26 197.42C127.26 197.674 127.655 197.674 127.655 197.42C127.796 177.294 127.683 157.168 127.683 137.07Z" fill="#E5E5E5"/>
<path d="M133.266 121.439C132.759 121.806 132.279 122.202 131.8 122.57C131.49 122.796 131.151 123.135 130.729 123.135C130.362 123.135 129.967 122.937 129.685 122.683C128.642 121.722 129.065 120.11 130.306 119.573C130.503 119.488 130.362 119.149 130.165 119.234C128.727 119.771 128.163 121.552 129.15 122.767C129.601 123.333 130.418 123.785 131.123 123.531C131.574 123.389 131.941 123.022 132.308 122.739C132.702 122.428 133.125 122.117 133.52 121.778C133.717 121.637 133.464 121.298 133.266 121.439Z" fill="#E5E5E5"/>
<path d="M165.833 196.289C165.523 196.091 157.571 196.261 150.466 196.289C150.55 197.844 150.55 198.946 150.691 200.501C156.979 200.501 163.069 200.501 163.492 200.501C164.423 200.501 166.284 206.578 166.509 207.257C166.735 207.963 168.37 207.483 169.075 207.483C169.808 207.483 166.538 196.741 165.833 196.289Z" fill="#464C7B"/>
<path d="M139.328 197.448C139.328 197.448 140.259 192.558 141.415 192.558C142.571 192.558 153.06 192.332 153.511 192.784C153.962 193.265 154.921 197.674 154.667 197.674C154.441 197.674 153.511 197.674 153.511 197.674C153.511 197.674 152.806 194.395 152.355 194.169C151.904 193.943 142.12 193.463 141.894 193.943C141.669 194.424 140.964 197.674 140.964 197.674L139.328 197.448Z" fill="#464C7B"/>
<path d="M156.528 189.279C156.528 189.279 162.59 183.908 161.885 183.456C161.18 182.976 159.799 182.976 159.319 183.456C158.84 183.908 155.372 189.279 155.372 189.279H156.528Z" fill="#6C4E4E"/>
<path d="M157.684 197.448C162.308 194.65 162.985 186.509 162.731 186.283C162.477 186.028 141.302 186.537 141.302 186.537C141.809 193.66 144.939 196.402 147.054 197.448H157.684Z" fill="#EFB44B"/>
<path d="M148.407 194C147.223 192.247 146.406 190.466 146.067 188.346C145.926 187.47 144.573 187.837 144.714 188.714C145.08 190.947 145.926 193.038 147.308 194.848C147.815 195.469 148.859 194.65 148.407 194Z" fill="white"/>
<path d="M166.143 195.922C168.541 195.922 170.485 194.125 170.485 191.908C170.485 189.691 168.541 187.894 166.143 187.894C163.745 187.894 161.801 189.691 161.801 191.908C161.801 194.125 163.745 195.922 166.143 195.922Z" fill="#FF8E55"/>
<path d="M164.79 189.138C164.705 188.968 164.451 188.912 164.282 188.996C164.169 189.053 164.085 189.138 163.972 189.194C163.803 189.307 163.746 189.505 163.831 189.703C163.915 189.873 164.169 189.929 164.338 189.844C164.451 189.788 164.536 189.703 164.649 189.647C164.818 189.533 164.874 189.307 164.79 189.138Z" fill="#BE5A33"/>
<path d="M178.007 193.035C178.891 190.918 177.651 188.381 175.237 187.368C172.824 186.356 170.151 187.251 169.267 189.368C168.383 191.485 169.623 194.022 172.037 195.035C174.45 196.047 177.123 195.152 178.007 193.035Z" fill="#FF8E55"/>
<path d="M175.73 188.657C175.589 188.798 175.56 189.053 175.701 189.222C175.786 189.307 175.871 189.42 175.955 189.505C176.096 189.675 176.322 189.703 176.491 189.562C176.632 189.42 176.66 189.166 176.519 188.996C176.434 188.912 176.35 188.798 176.265 188.714C176.124 188.544 175.871 188.516 175.73 188.657Z" fill="#D65945"/>
<path d="M161.124 194.763H179.621C179.621 194.763 178.718 196.233 178.521 196.233C178.324 196.233 162.759 196.544 162.308 196.289C161.857 196.063 161.124 194.763 161.124 194.763Z" fill="white"/>
<path d="M157.458 207.935C157.458 207.935 159.094 196.968 159.545 196.515C160.024 196.035 191.407 195.809 192.112 196.289C192.816 196.77 196.059 207.483 195.382 207.483C194.677 207.483 193.042 207.963 192.816 207.257C192.591 206.55 190.956 200.953 190.025 200.953C189.095 200.953 163.492 200.02 162.562 200.953C161.631 201.886 160.56 207.737 160.052 207.85C159.573 207.935 157.458 207.935 157.458 207.935Z" fill="#5F7AB3"/>
<path d="M169.555 197.448C169.555 197.448 170.485 192.558 171.641 192.558C172.797 192.558 183.286 192.332 183.737 192.784C184.217 193.265 185.147 197.674 184.893 197.674C184.668 197.674 183.737 197.674 183.737 197.674C183.737 197.674 183.032 194.395 182.581 194.169C182.102 193.943 172.346 193.463 172.12 193.943C171.895 194.424 171.19 197.674 171.19 197.674L169.555 197.448Z" fill="#5F7AB3"/>
<path d="M171.162 196.035C162.703 196.091 133.52 196.261 133.266 196.515C132.787 196.996 131.18 207.935 131.18 207.935C131.18 207.935 133.266 207.935 133.774 207.822C134.281 207.709 135.353 201.858 136.283 200.925C136.791 200.416 166.679 200.331 173.728 200.444C173.615 198.946 171.275 197.561 171.162 196.035Z" fill="#5F7AB3"/>
<path d="M203.052 206.804V217.546H50.9894V207.285L76.7608 207.2H78.7063L176.406 206.889L184.865 206.861L203.052 206.804Z" fill="#6C4E4E"/>
<path d="M234.378 38.9281C233.758 34.7728 232.602 30.6176 230.628 26.8864C229.838 25.4165 227.244 26.4624 227.893 28.0453C230.712 34.9142 231.756 42.0374 231.53 49.4433C231.304 57.1601 229.782 64.7639 228.485 72.3677C227.724 76.8621 227.047 81.3848 226.68 85.9357C226.511 88.1406 229.923 88.1406 230.12 85.9357C231.502 70.2194 236.69 54.814 234.378 38.9281Z" fill="#9965B0"/>
<path d="M227.639 93.2002C226.708 93.2002 226.144 93.9352 226.06 94.7832C225.975 95.6877 225.891 96.5923 225.834 97.4685C225.778 98.2317 226.455 98.8819 227.159 98.9667C227.836 99.0515 228.738 98.6275 228.851 97.8643C228.992 96.8184 229.133 95.8008 229.218 94.7549C229.302 93.9352 228.428 93.2002 227.639 93.2002Z" fill="#9965B0"/>
<path d="M35.1714 230.096C29.363 222.408 25.4156 213.391 24.1749 203.78C24.0621 202.875 23.4982 202.112 22.5113 202.112C21.6937 202.112 20.735 202.904 20.8478 203.78C22.0884 214.126 26.0359 223.962 32.4928 232.188C33.6771 233.714 36.3557 231.679 35.1714 230.096Z" fill="#9965B0"/>
<path d="M108.735 136.703C108.735 136.703 109.948 133.763 108.002 131.558C106.057 129.353 100.897 127.629 100.897 127.629C100.897 127.629 102.842 122.965 99.6844 118.556C96.4982 114.146 90.859 117.821 90.859 117.821L93.0583 131.078L102.617 138.201L108.735 136.703Z" fill="#621406"/>
<path d="M76.4225 113.92C76.4507 113.863 76.5071 113.835 76.5353 113.807C77.6914 111.574 78.7628 110.104 79.1294 109.595C79.9189 108.521 80.7365 98.3448 84.2047 97.0163C87.6728 95.6877 88.2085 98.8819 89.0262 99.7016C89.8157 100.493 93.3121 96.7619 98.3874 101.313C103.463 105.864 98.8385 110.471 98.8385 110.471L91.1691 119.008L92.4944 130.541L74.3078 137.24C74.3078 137.24 71.6292 131.869 72.9826 124.124C73.2364 122.683 73.5747 121.326 73.9695 120.054C71.9111 124.322 70.7269 128.929 71.2062 133.848C71.2626 134.498 70.3039 134.47 70.2194 133.848C69.2607 126.612 72.4187 119.686 76.4225 113.92Z" fill="#621406"/>
<path d="M79.9472 103.97L78.8757 108.804C78.8757 108.804 76.7328 111.489 75.9433 113.637C75.9433 113.637 70.3322 114.966 72.7289 107.475C74.8436 100.832 78.34 101.313 79.9472 103.97Z" fill="#621406"/>
<path d="M79.6369 150.412C80.0034 150.582 80.3982 150.751 80.7647 150.893C85.3607 152.843 89.7593 154.228 90.6052 153.889C92.5507 153.154 97.4569 133.509 96.9775 131.558C96.4982 129.608 95.9907 127.375 95.9907 127.375L84.4866 119.262C84.543 119.432 86.6859 126.159 85.6991 128.336C84.7122 130.541 82.7666 131.53 81.0467 131.53C79.3267 131.53 73.9412 132.011 71.9957 135.94C70.0502 139.869 69.7964 141.339 69.0633 143.317C68.4148 145.098 74.0258 147.925 79.6369 150.412Z" fill="#E7926B"/>
<path d="M80.4828 114.429C81.1595 113.92 82.0618 114.202 82.7385 114.542C83.105 114.711 83.4434 114.937 83.7536 115.192C83.9791 115.361 84.2329 116.04 84.5994 115.757C84.7686 115.616 84.825 115.361 84.825 115.135C84.8814 114.598 84.9096 114.089 84.8532 113.552C84.825 113.185 84.7686 112.817 84.7968 112.45C84.8532 111.885 85.1916 111.376 85.2761 110.839C85.3325 110.443 85.3043 110.019 85.4171 109.623C85.6145 108.917 86.3194 108.493 86.9679 108.21C87.6446 107.927 88.3777 107.786 88.9698 107.362C90.1259 106.542 90.4924 105.157 92.015 104.761C93.6504 104.337 95.5678 105.411 96.5546 106.684C100.107 111.348 104.196 118.075 101.602 123.333C99.487 126.527 95.4268 125.905 95.4832 125.905L95.9343 127.403C95.9343 127.403 94.6091 128.675 91.141 128.138C86.6014 127.064 85.8119 123.587 85.8119 123.587C85.4735 122.4 85.0224 121.156 84.543 119.828C84.543 119.828 81.3851 121.439 80.0317 118.188C79.7215 117.284 79.214 115.39 80.4828 114.429Z" fill="#E7926B"/>
<path d="M98.1899 115.192C98.1053 114.966 97.8233 114.824 97.5696 114.909C97.344 114.994 97.0902 115.107 96.8647 115.192C96.6391 115.277 96.4981 115.559 96.5827 115.814C96.6673 116.04 96.9493 116.181 97.203 116.096C97.4286 116.012 97.6824 115.898 97.9079 115.814C98.1335 115.729 98.2745 115.446 98.1899 115.192Z" fill="#D25C48"/>
<path d="M89.0825 110.81C89.59 110.358 89.4772 110.5 89.9284 110.019C90.4077 109.538 90.8307 109.001 91.2818 108.521C91.7047 108.069 91.028 107.39 90.6333 107.842C90.1821 108.323 89.7592 108.888 89.2799 109.341C88.8005 109.821 88.9133 109.68 88.434 110.132C87.9828 110.528 88.6314 111.234 89.0825 110.81Z" fill="#621406"/>
<path d="M98.6976 109.143C98.8104 109.228 98.895 109.369 98.8668 109.539C98.8386 109.765 98.6412 109.934 98.4156 109.906C98.1337 109.878 97.8517 109.821 97.5979 109.736C97.2878 109.595 96.9494 109.425 96.6393 109.256C96.4983 109.199 96.3855 109.115 96.2727 109.03C96.1599 108.945 96.0754 108.804 96.0472 108.662C95.9908 108.04 96.7803 108.521 97.034 108.634C97.4852 108.832 97.9645 109.001 98.472 109.058C98.5848 109.058 98.6412 109.086 98.6976 109.143Z" fill="#621406"/>
<path d="M90.2669 113.863C89.9286 114.061 89.421 113.835 89.4492 113.439C89.4774 112.987 90.0695 112.506 90.4643 112.337C91.0282 112.082 91.7049 112.054 92.0151 112.196C92.5508 112.45 92.6354 113.072 92.297 113.072C90.8872 113.157 90.5207 113.722 90.2669 113.863Z" fill="#1A1A1A"/>
<path d="M100.023 112.337C100.248 111.8 99.4588 111.376 99.0922 111.263C98.6693 111.121 98.2463 111.093 97.8516 111.263C97.7388 111.291 97.6542 111.376 97.5978 111.461C97.5132 111.687 97.5414 111.913 97.7106 112.111C98.0208 112.507 98.3873 112.167 98.7821 112.167C99.487 112.167 99.9099 112.62 100.023 112.337Z" fill="#1A1A1A"/>
<path d="M89.2236 123.954C90.8025 126.131 92.8327 127.205 95.9624 127.346L95.5113 125.848H95.4831C93.171 125.679 90.7743 124.689 89.2236 123.954Z" fill="#1A1A1A"/>
<path d="M79.383 149.649C79.7496 149.819 80.1443 149.988 80.5109 150.13C81.1876 148.49 81.8643 146.766 82.7666 145.296C83.1895 144.589 82.2027 144.222 81.7797 144.929C80.9056 146.398 80.0033 148.038 79.383 149.649Z" fill="#DE835C"/>
<path d="M98.2464 119.206C96.9212 119.545 95.6242 119.545 94.2708 119.517C93.6504 119.517 94.3272 120.054 94.8629 120.167C96.3291 120.478 97.2596 120.647 98.6694 120.252C99.3743 120.054 98.9513 119.008 98.2464 119.206Z" fill="#D25C48"/>
<path d="M96.2445 128.364C96.2445 128.364 96.9776 132.774 95.9908 135.742C95.0039 138.682 89.1391 149.988 87.1653 150.214C85.2198 150.469 76.1406 146.285 73.2082 144.561C70.2758 142.837 69.7683 141.847 69.0352 142.102C68.3021 142.356 68.0483 146.031 67.0896 147.246C66.1028 148.462 60.7173 153.635 60.4635 155.359C60.2098 157.083 61.4504 161.238 59.7304 162.963C58.0105 164.687 55.3318 166.411 55.8112 167.881C56.2905 169.351 57.221 170.538 56.8826 172.404C56.5443 174.269 58.5462 173.676 60.4635 174.75C61.5632 175.372 62.7756 175.796 63.9317 176.248C69.1198 178.283 72.5879 184.672 78.058 185.859C81.1877 186.537 86.2349 182.41 89.421 182.58C90.8308 182.665 92.2689 182.834 93.5377 182.128C94.299 181.732 95.0885 181.477 95.8216 180.997C96.6111 180.488 97.316 179.866 97.9927 179.216C98.9232 178.312 99.8818 177.153 99.6563 175.881C99.5435 175.174 99.0641 174.58 98.8386 173.902C98.331 172.46 98.9232 170.369 100.051 169.379C100.559 168.927 100.84 168.418 101.122 167.825C101.856 166.411 102.448 164.941 103.068 163.472C104.816 159.175 106.423 154.85 108.002 150.497C108.876 148.094 109.722 145.692 110.568 143.289L96.2445 128.364Z" fill="#6C4E4E"/>
<path d="M96.1317 127.262C96.1317 127.262 96.4701 129.523 96.4983 132.039C96.5265 133.537 96.0189 134.922 96.3855 136.59C97.3724 140.999 102.025 142.724 102.758 142.724C103.491 142.724 105.211 132.915 105.211 132.915L96.1317 127.262Z" fill="#621406"/>
<path d="M68.9504 149.904C70.3885 150.752 71.7701 151.741 73.0953 152.787C73.772 153.324 74.3923 153.917 75.1254 154.37C75.8867 154.85 76.7326 154.992 77.5785 155.302C78.4808 155.613 79.2421 156.094 79.8624 156.744C79.4112 155.076 78.5372 153.522 77.0992 152.476C75.9149 151.6 74.4487 151.091 73.4055 150.045C72.4468 149.197 71.6855 148.151 71.2343 146.907C71.1498 146.653 71.5445 146.483 71.6573 146.738C72.1366 147.868 72.7851 148.886 73.7156 149.706C74.7589 150.638 75.9995 151.091 77.2401 151.713C79.4676 152.843 80.2289 155.811 80.8775 158.016C80.8775 158.044 80.8775 158.073 80.8775 158.101C81.3004 158.864 81.5542 159.712 81.6387 160.617C81.6951 161.182 80.8211 161.154 80.7647 160.617C80.5955 159.147 79.806 157.79 78.5936 156.914C77.5785 156.207 76.3943 156.094 75.2664 155.613C74.0822 155.076 73.1235 154.059 72.1084 153.296C70.9242 152.391 69.5426 150.808 68.3019 149.988C67.8226 149.649 68.4147 149.593 68.9504 149.904Z" fill="#4A3333"/>
<path d="M61.845 155.274C62.8319 155.868 63.7624 156.546 64.8902 156.801C65.9899 157.055 67.4561 156.998 68.5558 157.338C68.8095 157.422 68.3866 157.592 68.1328 157.535C66.9486 157.253 65.7361 157.535 64.5801 157.225C63.5086 156.942 62.5218 156.32 61.6195 155.67C61.3939 155.5 61.5913 155.105 61.845 155.274Z" fill="#4A3333"/>
<path d="M112.175 160.786C112.175 160.786 113.642 163.5 112.429 169.379C111.217 175.259 105.577 175.513 102.391 175.259C99.2051 175.004 94.5527 172.319 94.8065 169.379C95.0602 166.44 97.5133 161.041 97.7389 158.327C97.9926 155.613 107.523 152.447 109.75 154.398C111.922 156.348 112.175 160.786 112.175 160.786Z" fill="#6C4E4E"/>
<path d="M96.3573 165.62C96.8367 164.009 96.6111 162.284 97.316 160.73C97.5416 160.221 98.2465 160.673 98.0491 161.154C97.5134 162.397 97.7389 163.782 97.4852 165.054C97.2032 166.383 96.5547 167.598 96.3855 168.955C95.9908 172.263 99.3179 173.704 101.856 174.524C102.42 174.693 102.166 175.287 101.602 175.174C98.9514 174.637 95.8498 173.139 95.3986 170.171C95.2013 168.56 95.9062 167.09 96.3573 165.62Z" fill="#4A3333"/>
<path d="M116.828 133.283L115.108 133.537L113.895 134.272L110.709 136.222C110.709 136.222 104.083 154.624 103.35 156.603C102.617 158.553 101.404 161.267 101.404 161.747C101.404 162.228 101.884 164.461 101.884 166.892C101.884 169.323 101.151 174.015 103.604 174.496C106.057 174.976 109.469 172.771 111.442 167.627C113.388 162.482 114.516 146.144 114.995 142.95C115.474 139.756 117.927 133.876 117.927 133.876L116.828 133.283Z" fill="#DE835C"/>
<path d="M116.518 134.696C116.518 134.696 115.813 133.791 114.854 133.791C113.867 133.791 111.414 135.007 111.414 134.526C111.414 134.046 111.668 131.813 111.414 131.813C111.16 131.813 99.1769 131.558 99.1769 132.067C99.0641 134.894 101.01 149.621 101.517 150.356C101.997 151.091 108.623 150.836 108.876 150.101C109.13 149.366 110.089 144.448 110.343 143.967C110.596 143.487 113.783 141.028 113.783 140.773C113.783 140.519 113.303 140.038 113.303 140.038C113.303 140.038 110.484 142.215 110.484 141.876C110.484 141.621 111.217 137.692 111.217 137.212C111.217 136.731 114.29 134.131 115.982 135.12C117.674 136.109 116.518 134.696 116.518 134.696Z" fill="white"/>
<path d="M108.369 133.707C108.369 132.859 109.694 132.887 109.694 133.735C109.694 135.487 109.638 137.24 109.412 138.992C109.299 139.812 108.002 139.84 108.087 138.964C108.2 137.212 108.341 135.487 108.369 133.707Z" fill="white"/>
<path d="M108.453 140.575C108.764 140.604 109.102 140.858 109.074 141.225C109.074 141.339 109.046 141.423 109.046 141.536C109.017 141.847 108.764 142.158 108.425 142.13C108.059 142.102 107.833 141.847 107.833 141.508C107.833 141.395 107.833 141.31 107.805 141.197C107.777 140.858 108.115 140.547 108.453 140.575Z" fill="white"/>
<path d="M111.668 139.388C111.809 139.19 112.034 139.049 112.232 138.936C112.288 138.908 112.373 138.879 112.401 138.795C112.429 138.738 112.429 138.625 112.429 138.568C112.373 138.088 112.598 137.607 112.993 137.353C112.655 136.929 112.232 136.335 112.401 135.798C112.514 135.403 112.965 135.12 113.331 135.007C114.29 134.696 114.995 134.894 115.785 134.865C115.672 134.639 115.418 133.876 115.418 133.593C115.418 133.311 115.559 133.056 115.813 132.972C115.925 132.943 116.066 132.943 116.207 132.972C117.42 133.169 118.661 133.339 119.873 133.537C120.014 133.565 120.183 133.593 120.324 133.678C120.521 133.82 120.578 134.102 120.606 134.357C120.775 135.346 120.916 136.335 121.085 137.325C121.142 137.607 121.226 137.89 121.226 138.173C121.226 138.399 121.198 138.625 121.057 138.795C120.916 138.964 120.662 139.049 120.493 139.219C120.296 139.388 120.211 139.614 120.155 139.869C120.07 140.378 120.24 140.971 119.704 141.282C119.478 141.395 119.196 141.395 118.971 141.508C118.491 141.763 118.548 142.526 118.097 142.865C117.702 143.176 117.053 142.978 116.63 143.289C116.489 143.402 116.405 143.543 116.292 143.685C115.897 144.194 115.164 144.476 114.572 144.222C114.318 144.109 114.121 143.939 113.924 143.741C113.219 143.063 112.57 142.3 112.034 141.48C111.809 141.169 111.611 140.83 111.527 140.434C111.414 140.123 111.442 139.699 111.668 139.388Z" fill="#E7926B"/>
<path d="M115.869 134.752C116.038 135.403 116.518 135.77 116.969 136.222C117.533 136.759 118.04 137.325 118.52 137.947C118.661 138.116 118.999 138.06 118.971 137.805C118.886 137.127 118.661 136.505 118.463 135.855C118.463 135.798 118.435 135.77 118.407 135.742C118.379 135.714 118.35 135.714 118.294 135.685C117.561 135.516 116.912 135.29 116.264 134.979C116.123 134.894 115.982 134.809 115.869 134.752Z" fill="#DE835C"/>
<path d="M114.403 135.035C113.895 135.063 113.36 134.809 113.078 134.385C112.88 134.074 112.796 133.707 112.796 133.339C112.796 133.141 112.824 132.943 112.937 132.774C113.078 132.576 113.331 132.463 113.557 132.378C113.924 132.265 114.318 132.237 114.685 132.35C116.151 132.745 115.869 134.922 114.403 135.035Z" fill="#E7926B"/>
<path d="M79.0167 160.532C79.0167 160.532 78.2272 157.705 74.5617 157.055C70.8962 156.405 69.2326 157.253 67.3716 157.14C65.5107 157.027 62.4091 158.977 61.6478 160.56C60.8583 162.143 56.798 169.125 57.6439 171.019C58.4616 172.913 64.8904 174.185 72.3342 173.648C79.778 173.082 79.0167 160.532 79.0167 160.532Z" fill="#6C4E4E"/>
<path d="M95.3422 153.946C95.3422 153.946 98.3874 148.547 98.4438 147.84C98.472 147.133 101.968 142.215 102.673 142.243C103.378 142.271 103.547 143.459 102.786 144.561C102.025 145.692 101.715 147.303 101.715 147.303C101.715 147.303 107.156 144.787 107.833 145.296C108.51 145.805 107.861 146.625 106.818 147.105C105.859 147.529 104.675 148.151 103.942 148.801C103.604 149.112 103.209 149.423 102.871 149.762C102.73 149.903 101.912 150.723 102.532 150.723C102.786 150.723 103.068 150.582 103.322 150.497C103.604 150.412 103.914 150.327 104.196 150.243C104.703 150.101 105.211 149.932 105.747 149.847C106.649 149.706 109.694 149.366 109.44 150.271C109.215 150.978 108.482 151.147 107.072 151.543C105.662 151.939 104.478 152.334 104.703 152.589C104.929 152.843 108.876 152.334 108.848 153.267C108.82 153.719 108.341 154.172 106.17 154.596C104.788 154.878 103.66 154.963 103.406 155.302C102.899 155.981 100.446 159.09 99.2333 159.74C98.049 160.362 97.5979 160.108 97.1186 160.56C96.6392 161.012 77.8042 171.641 71.9675 172.715C70.7269 172.941 69.5145 173.195 68.2456 173.082C67.8791 173.054 67.4843 172.997 67.146 172.8C65.6516 171.895 67.005 170.086 67.6535 169.153C68.4712 167.966 69.4581 166.892 70.4449 165.874C71.0089 165.281 71.601 164.715 72.1931 164.15C77.0711 159.542 78.9038 159.627 79.3831 159.429C79.7779 159.175 90.6052 155.783 95.3422 153.946Z" fill="#E7926B"/>
<path d="M100.051 148.094C100.446 147.614 100.953 147.218 101.489 146.935C101.94 146.681 102.391 147.077 101.94 147.331C101.489 147.586 101.066 148.264 100.7 148.631C100.361 148.971 99.769 148.462 100.051 148.094Z" fill="#DE835C"/>
<path d="M59.5896 163.5C59.9561 161.691 61.5069 160.334 62.8039 159.062C63.9882 157.903 65.3698 156.97 67.0898 157.027C67.7665 157.055 68.3868 157.196 69.0635 157.112C69.5992 157.055 70.135 156.829 70.6707 156.716C71.432 156.546 72.1933 156.461 72.9546 156.518C74.7309 156.603 76.4791 157.196 77.8889 158.327C78.2555 158.61 77.8889 159.203 77.4942 158.949C76.0844 158.073 74.59 157.507 72.9264 157.451C71.3474 157.394 69.8812 158.129 68.3304 158.073C67.3153 158.044 66.4412 157.846 65.4544 158.27C64.6931 158.61 64.0446 159.175 63.4524 159.769C62.2682 160.928 60.4355 162.821 59.8997 164.404C59.646 164.941 59.364 164.602 59.5896 163.5Z" fill="#4A3333"/>
<path d="M72.0521 174.496C73.9694 174.439 75.5202 173.422 76.5635 171.81C76.7045 171.584 77.0992 171.81 76.9864 172.036C76.056 173.817 74.1668 175.626 72.1931 175.711C71.8265 175.739 71.7137 174.524 72.0521 174.496Z" fill="#4A3333"/>
<path d="M95.1731 179.979C95.1731 179.979 83.2743 180.771 76.7327 184.813C70.1912 188.855 81.1032 194.593 81.1032 194.593L95.1731 179.979Z" fill="#353A3D"/>
<path d="M78.9602 184.643L100.248 201.123L102.081 202.536L106.592 201.519C106.592 201.519 108.2 200.755 110.737 199.455C119.732 194.819 140.259 183.371 139.272 176.078C138.003 166.75 127.458 165.507 121.17 168.786C114.882 172.065 97.2877 179.103 92.2688 180.629C87.2499 182.099 78.9602 184.643 78.9602 184.643Z" fill="#353A3D"/>
<path d="M104.28 190.551C105.014 189.505 106 188.629 106.846 187.696C107.777 186.65 108.679 185.576 109.581 184.502C110.991 182.806 112.373 181.082 113.811 179.414C114.318 177.577 115.474 175.767 116.546 174.241C117.73 172.573 119.14 171.132 120.832 170.029C121.311 169.718 121.79 170.453 121.311 170.793C119.619 171.923 118.238 173.393 117.11 175.061C116.743 175.598 116.433 176.163 116.123 176.757C119.253 173.365 122.693 170.227 126.866 168.164C127.373 167.909 127.852 168.644 127.345 168.927C122.749 171.386 118.971 175.004 115.559 178.933C113.783 180.997 112.063 183.117 110.343 185.209C108.707 187.187 106.987 189.618 104.901 191.145C104.534 191.342 104.027 190.918 104.28 190.551Z" fill="#1A1A1A"/>
<path d="M90.2106 181.534C92.1562 180.799 94.1017 180.036 96.019 179.216C96.5547 178.99 96.8649 179.838 96.3292 180.092C94.44 180.969 92.4945 181.788 90.549 182.467C89.9568 182.636 89.6467 181.732 90.2106 181.534Z" fill="#1A1A1A"/>
<path d="M96.5546 197.222L100.248 201.095L102.081 202.508L106.592 201.49C106.592 201.49 108.2 200.727 110.737 199.427C111.047 198.635 111.555 196.487 109.384 194.678C106.621 192.417 103.096 191.908 103.096 191.908L96.5546 197.222Z" fill="#F29E7E"/>
<path d="M49.9182 176.05C49.9746 177.322 50.172 178.764 50.5385 180.347C52.5405 188.912 65.6235 207.059 73.4057 208.303C78.622 209.151 80.3419 208.642 82.8232 208.416C84.0356 208.303 85.4172 208.303 87.4756 208.529L95.2295 197.505L94.2709 193.915C94.2709 193.915 84.7123 186.622 78.4246 180.319C72.1368 174.015 63.8471 164.433 57.5594 166.213C56.4879 166.524 55.5293 166.864 54.6834 167.288C51.8356 168.701 50.172 170.934 49.9182 174.439C49.9182 174.976 49.9182 175.485 49.9182 176.05Z" fill="#353A3D"/>
<path d="M49.9182 176.05C49.9746 177.322 50.172 178.764 50.5385 180.347C52.5405 188.912 65.6235 207.059 73.4057 208.303C78.622 209.151 80.3419 208.642 82.8232 208.416C85.7274 207.257 89.4775 205.787 87.3064 201.632C87.0526 201.123 86.9116 201.264 86.4323 200.982C78.8193 196.402 74.4489 194.452 68.3867 191.399C65.5671 189.986 61.3377 187.866 58.8282 185.944C56.3751 184.078 50.6513 180.375 49.9182 176.05Z" fill="#272A2B"/>
<path d="M98.9514 217.546H50.4539V206.804L60.1816 206.861L68.6404 206.889L84.0074 206.946L99.0077 207.002H102.786C102.899 210.536 98.6412 214.013 98.9514 217.546Z" fill="#6C4E4E"/>
<path d="M99.0359 207.002C98.5848 207.794 95.0603 214.126 92.4662 217.546H84.4585C84.2611 214.945 84.0919 209.264 84.0356 206.946L99.0359 207.002Z" fill="#332323"/>
<path d="M80.06 181.704C81.8082 183.315 86.1786 187.3 88.0114 188.827C89.8441 190.353 91.7615 191.738 93.5942 193.236C93.7916 193.406 93.5378 193.717 93.3123 193.576C91.3667 192.275 89.534 190.721 87.7576 189.223C85.8967 187.668 81.498 183.682 79.7217 182.043C79.4679 181.845 79.8063 181.477 80.06 181.704Z" fill="#1A1A1A"/>
<path d="M94.0735 208.727C93.9325 208.755 93.7915 208.811 93.6788 208.896C93.566 209.009 93.5096 209.179 93.425 209.292C93.1712 209.744 92.6073 209.886 92.0998 209.97C91.5922 210.027 91.0283 210.083 90.6336 210.423C90.1824 210.818 90.0414 211.553 89.5057 211.751C89.2801 211.836 88.9982 211.808 88.7726 211.893C88.3215 212.062 88.0395 212.571 87.5884 212.769C87.1936 212.938 86.7425 212.797 86.3195 212.882C86.0094 212.938 85.7274 213.136 85.4173 213.193C85.1917 213.249 84.9379 213.221 84.7124 213.193C84.3176 213.136 83.9229 213.108 83.5563 213.051C83.3307 213.023 83.077 212.995 82.8796 212.882C82.2311 212.571 82.0055 211.751 82.1183 211.045C82.2311 210.338 82.5976 209.688 82.8232 209.009C83.3025 207.596 83.1334 206.07 83.1616 204.6C83.1898 203.921 83.2462 203.271 83.4717 202.649C83.6973 202.027 84.1202 201.434 84.6842 201.123C84.8533 201.038 85.0507 200.953 85.2481 200.953C85.4455 200.953 85.8966 200.812 86.0658 200.897C88.9418 201.858 91.5358 202.989 94.4119 203.921C95.004 204.119 95.5961 204.317 96.1882 204.571C96.8931 204.882 97.5698 205.306 98.2465 205.73C98.4439 205.843 99.1206 206.183 99.1206 206.409C99.1488 206.691 98.5567 206.918 98.3593 207.002C97.0341 207.737 95.5679 208.303 94.0735 208.727Z" fill="#EA9378"/>
<path d="M88.5189 206.889C88.97 208.359 90.3234 210.734 92.1844 209.575C94.0171 208.444 92.6355 205.306 90.7182 205.193C90.1824 205.165 90.1824 204.374 90.7182 204.374C93.3122 204.374 95.004 208.048 93.2276 209.97C92.4099 210.875 91.1129 210.988 90.0414 210.507C88.688 209.914 87.9549 208.529 87.6166 207.144C87.4756 206.55 88.3497 206.324 88.5189 206.889Z" fill="#DC815C"/>
<path d="M83.5563 211.949C84.092 210.818 84.9661 210.225 86.2067 210.479C86.3477 210.507 86.4323 210.592 86.6015 210.564C86.8552 210.479 86.7143 210.507 86.827 210.281C86.9398 210.083 86.968 209.857 87.109 209.688C87.4192 209.32 87.8703 209.235 88.2932 209.405C88.7726 209.603 88.6034 210.394 88.0677 210.225C87.6447 210.083 87.5883 210.96 87.4474 211.158C87.3064 211.384 87.1372 211.497 86.8834 211.553C86.4887 211.638 86.2067 211.384 85.8402 211.327C85.0225 211.186 84.6559 211.808 84.3176 212.401C84.0074 212.91 83.3307 212.458 83.5563 211.949Z" fill="#DC815C"/>
<path d="M94.2991 193.943C96.4138 195.328 98.5567 196.628 100.784 197.844C102.222 198.635 103.829 199.653 105.408 200.105C107.749 200.812 110.907 200.134 113.247 199.625C113.444 199.568 113.67 199.54 113.867 199.483C115.39 199.144 116.912 198.72 118.407 198.324C119.789 197.957 121.847 197.137 123.172 198.183C123.567 198.494 123.764 198.946 123.849 199.427C123.962 200.02 123.764 200.331 123.651 200.897C123.595 201.151 123.708 201.406 123.821 201.66C124.018 202.169 124.074 202.791 123.764 203.271C123.369 203.836 122.552 204.034 122.524 204.798C122.495 205.052 122.608 205.278 122.495 205.532C122.354 205.872 121.96 206.154 121.649 206.352C121.142 206.663 120.606 206.833 120.099 207.172C119.394 207.624 118.858 208.331 118.125 208.642C117.561 208.896 116.941 208.896 116.32 208.925C113.726 208.981 111.132 209.066 108.538 209.122C107.241 209.151 105.916 209.179 104.619 209.038C102.871 208.84 101.151 208.274 99.6 207.426C98.1902 206.663 97.1187 205.476 95.6525 204.882C92.8329 203.723 90.0415 202.508 87.2783 201.264C87.2501 201.264 95.286 199.257 94.2991 193.943Z" fill="#F29E7E"/>
<path d="M99.3463 196.204C102.053 197.618 104.788 199.003 107.523 200.36C108.031 200.614 107.58 201.349 107.072 201.123C104.281 199.907 101.546 198.494 98.8669 197.024C98.3312 196.741 98.8105 195.922 99.3463 196.204Z" fill="#DC815C"/>
<path d="M98.6131 207.002L166.369 207.2H168.314L194.085 207.285V217.546H99.9947C99.6845 214.013 98.7259 210.536 98.6131 207.002Z" fill="#6C4E4E"/>
</g>
<defs>
<clipPath id="clip0">
<rect width="219" height="228" fill="white" transform="translate(18 18.9999)"/>
</clipPath>
</defs>
</svg>
