<svg width="255" height="260" viewBox="0 0 255 260" fill="none" xmlns="http://www.w3.org/2000/svg">
<g clip-path="url(#clip0)">
<path d="M19.5221 53.3682C15.913 64.6183 19.4657 76.7731 22.3135 88.2776C27.6144 109.647 27.8118 131.385 26.7685 153.32C26.0918 168.018 26.1764 182.887 29.3908 197.246C32.0694 209.175 37.0037 220.792 44.8141 230.234C52.3989 239.392 64.777 243.915 76.5348 243.971C82.3997 243.999 98.4433 242.925 104.224 241.908C124.158 238.374 144.206 235.435 164.338 233.088C180.156 231.251 213.456 229.046 226.172 218.503C234.941 211.21 238.099 202.249 236.633 190.801C235.646 183 232.826 175.537 230.43 168.047C224.227 148.627 220.618 128.36 219.743 108.008C218.841 87.26 221.83 67.7559 224.932 47.2908C225.862 41.1004 225.665 34.4577 222.845 28.8891C218.644 20.5504 209.198 17.6389 199.921 16.7061C186.303 15.321 158.868 16.2256 145.221 17.1301C125.483 18.4304 95.5109 19.7589 75.8581 21.9072C61.1397 23.5184 47.7183 26.4864 34.9736 34.6555C28.0373 39.1217 22.1161 45.3686 19.5221 53.3682Z" fill="#7DA2E8"/>
<path d="M234.378 35.9281C233.757 31.7728 232.601 27.6176 230.627 23.8864C229.838 22.4165 227.244 23.4624 227.892 25.0453C230.712 31.9142 231.755 39.0374 231.53 46.4433C231.304 54.1601 229.782 61.7639 228.484 69.3677C227.723 73.8621 227.046 78.3848 226.68 82.9357C226.511 85.1406 229.922 85.1406 230.12 82.9357C231.501 67.2194 236.69 51.814 234.378 35.9281Z" fill="#7DA2E8"/>
<path d="M227.639 90.2003C226.708 90.2003 226.145 90.9353 226.06 91.7833C225.975 92.6878 225.891 93.5923 225.834 94.4686C225.778 95.2318 226.455 95.8819 227.16 95.9667C227.836 96.0515 228.739 95.6275 228.851 94.8643C228.992 93.8185 229.133 92.8009 229.218 91.755C229.302 90.9353 228.428 90.2003 227.639 90.2003Z" fill="#7DA2E8"/>
<path d="M35.1711 227.096C29.3627 219.408 25.4153 210.391 24.1746 200.78C24.0618 199.875 23.4979 199.112 22.511 199.112C21.6934 199.112 20.7347 199.904 20.8475 200.78C22.0881 211.126 26.0356 220.962 32.4925 229.188C33.6767 230.714 36.3554 228.679 35.1711 227.096Z" fill="#7DA2E8"/>
<mask id="mask0" mask-type="alpha" maskUnits="userSpaceOnUse" x="0" y="-1" width="255" height="261">
<rect y="-0.00012207" width="255" height="260" fill="white"/>
</mask>
<g mask="url(#mask0)">
</g>
<g clip-path="url(#clip1)">
<path d="M216.515 94.4865C216.711 94.6406 216.907 94.7667 217.173 94.7807C217.439 94.7947 217.607 94.5565 217.523 94.3043C217.509 94.2483 217.481 94.2063 217.467 94.1502C217.593 94.2063 217.719 94.2483 217.846 94.3043C218.196 94.4444 218.504 93.9261 218.168 93.7159C217.789 93.4777 217.411 93.2676 217.005 93.0855C216.823 93.0014 216.627 92.9314 216.43 92.8613C216.304 92.8193 216.164 92.7773 216.038 92.7352C215.982 92.7212 215.94 92.6932 215.912 92.6932C215.814 92.5951 215.674 92.5531 215.548 92.6231C215.534 92.6231 215.52 92.6372 215.52 92.6372C215.464 92.6652 215.408 92.7212 215.366 92.7773C213.768 91.3062 211.751 90.2415 209.551 90.2134C208.515 90.1994 207.492 90.4096 206.553 90.8579C205.362 91.4183 204.34 92.1748 202.952 91.8666C201.72 91.6004 200.389 90.8999 199.576 89.9332C198.665 88.8405 198.231 87.3554 197.713 86.0525C197.054 84.4273 196.438 81.7795 194.546 81.149C194.56 81.121 194.56 81.079 194.56 81.0369C194.574 80.7988 194.434 80.6307 194.266 80.5466C194.252 80.5326 194.224 80.5046 194.21 80.4906C193.79 80.2384 193.201 80.3645 193.019 80.8548C192.823 81.3592 193.173 81.9196 193.72 81.9476C193.944 81.9616 194.168 81.8775 194.322 81.7374C195.485 82.1858 195.961 83.4747 196.396 84.5815C196.9 85.8283 197.376 87.0752 197.895 88.3081C198.805 90.4236 200.361 91.8946 202.63 92.469C204.844 93.0434 206.315 91.3062 208.389 90.97C210.77 90.5637 212.998 91.5864 214.763 93.1135C214.805 93.7439 215.015 94.3604 215.352 94.8928C215.576 95.243 216.024 95.9575 216.515 95.9715C217.131 95.9855 216.893 95.243 216.515 94.4865Z" fill="#1A1A1A"/>
<path d="M177.23 76.8061C177.65 75.9515 200.08 75.5312 201.145 76.8061C202.21 78.081 209.692 97.3026 209.257 98.3813C208.837 99.4461 185.958 100.02 185.103 99.6002C184.249 99.1659 176.795 77.6607 177.23 76.8061Z" fill="#313738"/>
<path d="M198.414 93.758C198.091 90.5918 197.643 87.0753 195.135 84.8197C192.88 82.7742 189.293 82.7182 186.799 84.3714C186.463 84.5955 186.771 85.1419 187.121 84.9178C189.587 83.3907 192.978 83.5168 195.009 85.6883C197.041 87.8598 197.377 90.928 197.699 93.744C197.769 94.1923 198.456 94.2063 198.414 93.758Z" fill="#1A1A1A"/>
<path d="M209.706 98.0731C208.501 94.1643 207.17 90.2976 205.713 86.4729C204.984 84.5675 204.228 82.6622 203.443 80.7708C203.107 79.9863 202.784 79.2017 202.434 78.4172C202.154 77.7727 201.93 77.0442 201.341 76.6099C200.08 75.6993 198.063 75.9514 196.606 75.9794C194.476 76.0075 192.347 76.0495 190.217 76.1055C185.972 76.2036 181.699 76.2596 177.454 76.5539C176.977 76.5819 176.963 77.3104 177.454 77.3104C181.279 77.2824 185.117 77.0722 188.942 76.9882C190.932 76.9321 192.907 76.9041 194.897 76.8621C195.877 76.8481 196.844 76.82 197.825 76.82C198.693 76.82 199.744 76.764 200.543 77.1563C201.397 77.5766 201.678 78.7674 202.028 79.608C202.448 80.5747 202.854 81.5554 203.247 82.5221C203.947 84.2313 204.606 85.9405 205.25 87.6637C206.567 91.1802 207.772 94.7247 208.879 98.3113C209.047 98.8156 209.86 98.5915 209.706 98.0731Z" fill="#232828"/>
<path d="M150.498 192.066C150.498 192.066 149.587 201.957 152.151 202.685C154.715 203.414 158.372 198.65 164.97 197.74C171.569 196.829 178.701 193.341 178.701 193.341L174.666 175.394L159.646 179.611L150.498 192.066Z" fill="#1A1A1A"/>
<path d="M214.806 258.585C214.876 259.874 204.942 260 192.613 260C180.284 260 170.225 260.182 170.141 258.585C170.085 257.352 180.186 257.17 192.515 257.17C204.858 257.17 214.708 256.792 214.806 258.585Z" fill="#766782"/>
<path d="M179.626 101.043C179.626 101.043 175.058 104.672 175.563 105.75C175.563 105.75 171.345 107.628 171.738 111.004C172.06 113.792 185.09 115.852 185.09 115.852L187.121 100.174L179.626 101.043Z" fill="#4E0C09"/>
<path d="M184.347 112.517C184.599 112.98 184.865 113.442 185.103 113.918C185.538 114.815 185.958 115.74 186.406 116.622C187.135 118.051 188.003 119.438 189.194 120.419C190.105 121.175 191.17 121.68 192.249 122.086C194.294 122.843 196.536 123.277 198.553 122.52C199.66 122.1 200.711 121.217 200.949 119.929C201.215 118.471 200.361 117 200.403 115.515C200.431 114.493 200.879 113.568 201.215 112.629C202.252 109.813 201.832 102.85 199.702 100.847C198.876 100.062 200.108 96.8261 199.604 94.0242C199.1 91.2222 197.531 90.9 195.765 90.6758C195.387 90.6338 193.972 85.0158 190.567 84.2592C188.438 83.7829 187.835 85.5622 187.835 85.5622C187.471 86.0385 184.375 83.8249 181.741 86.8231C180.06 88.7424 181.054 94.2483 181.054 94.2483C181.475 95.8875 181.531 96.1677 181.951 97.8068C182.441 99.6982 182.834 101.59 183.492 103.397C184.095 105.078 183.254 109.477 183.772 111.186C183.912 111.649 184.123 112.083 184.347 112.517Z" fill="#4E0C09"/>
<path d="M160.725 180.606C160.599 181.334 158.231 193.327 160.403 196.227C163.794 200.752 171.906 199.617 171.906 199.617V182.833L160.725 180.606Z" fill="#933B16"/>
<path d="M221.348 196.619C220.143 197.221 212.928 192.99 208.781 191.884C208.15 191.716 207.379 191.421 206.931 191.435C206.105 191.449 202.98 191.449 201.607 191.645C197.138 192.276 193.201 194.181 188.48 195.806C186.196 196.591 184.262 197.221 182.637 197.74C177.607 199.323 175.52 199.743 175.52 199.743L179.765 185.425C179.765 185.425 180.283 185.173 184.879 185.159C186.91 185.159 189.74 185.201 193.663 185.341C199.029 185.537 201.257 184.935 201.775 184.753C202.434 184.528 203.401 183.52 204.437 182.945C205.768 182.217 206.959 181.362 207.772 181.446C209.215 181.6 214.259 184.935 217.453 188.829C220.647 192.724 222.735 195.919 221.348 196.619Z" fill="#B7522A"/>
<path d="M218.588 188.956C221.979 192.752 222.931 195.891 221.53 196.591C220.311 197.193 212.83 192.962 208.683 191.856C208.333 191.407 207.814 190.497 208.445 189.656C209.341 188.451 210.644 187.555 209.986 186.014C209.383 184.584 205.923 183.001 204.536 182.833C206.833 181.558 207.128 181.334 207.94 181.418C209.397 181.572 215.226 185.201 218.588 188.956Z" fill="#AEBFD1"/>
<path d="M192.669 257.912C191.969 259.047 171.724 259.426 171.345 258.291C170.967 257.156 172.284 256.217 173.615 255.839C174.399 255.615 178.743 253.191 181.223 250.795C182.231 249.815 182.932 248.848 182.96 248.021C182.974 247.783 182.988 247.559 182.974 247.307C182.497 237.22 164.144 204.717 164.088 198.973C163.99 189.264 169.65 164.172 169.65 164.172L176.823 196.815C176.823 196.815 186.266 206.3 187.597 224.597C188.718 240.05 189.279 245.486 190.792 250.011C190.834 250.123 190.876 250.235 190.904 250.347C191.296 251.482 191.66 252.449 191.983 253.275C192.851 255.559 193.342 256.834 192.669 257.912Z" fill="#B7522A"/>
<path d="M175.59 138.786C175.59 138.786 168.235 151.045 165.209 159.913C162.196 168.781 159.646 186.938 159.646 186.938C159.646 186.938 171.163 195.12 177.958 197.011C177.958 197.011 194.63 171.611 197.082 161.426C199.534 151.241 196.143 141.238 196.143 141.238L183.758 137.343L175.59 138.786Z" fill="#FA8E80"/>
<path d="M176.445 192.64C176.375 192.64 176.305 192.626 176.249 192.584C176.067 192.472 176.011 192.248 176.123 192.066C176.277 191.814 191.772 166.568 193.44 160.655C195.093 154.757 194.196 144.488 194.182 144.376C194.168 144.166 194.322 143.984 194.518 143.97C194.728 143.956 194.911 144.11 194.925 144.306C194.967 144.726 195.849 154.827 194.154 160.852C192.459 166.876 177.398 191.407 176.753 192.458C176.683 192.584 176.571 192.64 176.445 192.64Z" fill="#E66F64"/>
<path d="M192.669 257.912C191.968 259.047 171.723 259.426 171.345 258.291C170.967 257.156 172.284 256.217 173.615 255.839C174.399 255.615 178.743 253.191 181.222 250.795C181.643 250.627 182.175 250.529 182.483 250.936C183.044 251.692 184.375 253.948 186.252 254.326C187.681 254.606 190.623 253.709 191.968 253.247C192.851 255.559 193.341 256.834 192.669 257.912Z" fill="#AEBFD1"/>
<path d="M140.256 51.5041C139.598 51.5041 138.925 51.7282 138.491 52.2046C138.071 52.6529 137.902 53.2833 137.804 53.8858C137.706 54.4882 137.664 55.1186 137.454 55.693C137.244 56.2675 136.824 56.8138 136.221 56.9679C136.333 57.052 138.015 58.6071 138.141 58.3409C138.519 57.5283 138.729 56.6317 138.771 55.7351C138.799 54.9085 138.687 54.0259 139.121 53.3114C139.416 52.835 139.934 52.5128 140.494 52.4147C140.789 52.3587 141.097 52.3727 141.391 52.4287C141.601 52.4708 141.951 52.6949 142.134 52.6809C142.47 52.6529 142.288 52.2186 142.078 52.0084C141.629 51.5881 140.845 51.5041 140.256 51.5041Z" fill="#C1272D"/>
<path d="M141.503 53.3394C141.657 52.0085 141.755 49.3046 142.119 48.8422C142.218 48.7022 142.372 48.5901 142.554 48.5901C142.666 48.5901 142.778 48.6601 142.862 48.7302C143.24 48.9964 143.464 49.5568 143.534 51.9665C143.268 52.2747 142.722 53.6757 142.54 53.6897C142.4 53.6897 141.685 53.4375 141.503 53.3394Z" fill="#A54B22"/>
<path d="M141.419 53.8997C141.503 53.7596 142.162 38.699 142.82 38.0405C143.479 37.382 149.587 38.699 150.904 41.7531C152.221 44.8073 144.137 56.6037 144.137 56.6037L141.419 53.8997Z" fill="#F1E6DC"/>
<path d="M144.487 39.1613C143.941 43.6165 143.437 48.0716 142.694 52.4987C142.652 52.7509 143.03 52.849 143.072 52.5968C143.843 48.1557 144.543 43.6585 144.894 39.1473C144.908 38.8951 144.515 38.9091 144.487 39.1613Z" fill="#DDCABA"/>
<path d="M144.781 55.8752C144.781 55.8752 145.706 54.6843 145.79 54.1099C145.874 53.5355 144.025 50.8176 141.573 51.406L141.223 53.8857L144.781 55.8752Z" fill="#ED1C24"/>
<path d="M147.78 69.5768C146.519 65.2757 145.986 62.3757 146.042 61.6192C146.182 59.7138 146.393 56.8278 146.112 56.4075C145.734 55.819 144.753 54.9364 144.333 53.4374C143.913 51.9243 144.235 51.3919 143.52 51.574C142.806 51.7562 142.554 53.1431 142.554 53.1431C142.554 53.1431 141.237 52.1765 140.578 52.891C139.92 53.5915 140.76 53.9137 140.172 54.292C139.583 54.6702 139.261 54.7263 139.247 55.4408C139.219 56.2814 139.626 56.0292 139.163 56.6036C138.701 57.178 138.715 57.5843 138.995 58.4949C139.219 59.2094 139.513 59.5737 139.99 60.3583C140.564 61.3109 144.263 83.0824 144.249 84.2032C144.277 84.2032 148.018 70.3894 147.78 69.5768Z" fill="#A54B22"/>
<path d="M143.632 57.0381C143.548 57.3743 143.296 57.6825 143.142 57.9767C143.016 58.2289 142.918 58.4811 142.862 58.7613C142.694 59.6019 142.792 60.4845 142.988 61.3251C142.988 61.3251 142.848 64.4353 142.344 66.0745C142.259 66.3406 142.175 66.5368 142.063 66.6349C141.335 67.3634 136.207 65.1638 136.025 63.3425C135.983 62.9362 136.095 62.5019 136.291 62.0816C136.697 61.241 137.356 60.5265 138.028 59.8961C138.365 59.5879 138.715 59.2796 139.079 58.9994C139.233 58.8734 139.387 58.7613 139.555 58.6352C139.696 58.5371 139.864 58.355 140.032 58.327C140.13 58.313 140.242 58.327 140.34 58.327C140.564 58.355 140.788 58.341 141.013 58.313C141.209 58.2849 141.447 58.2149 141.503 58.0188C141.573 57.8226 141.419 57.5704 141.559 57.4023C141.629 57.3183 141.755 57.3042 141.853 57.2482C142.007 57.1641 142.091 56.996 142.105 56.8279C142.119 56.6598 142.077 56.4917 142.021 56.3376C141.979 56.2255 141.923 56.0994 141.951 55.9733C142.007 55.7772 142.231 55.7071 142.4 55.595C142.666 55.4129 142.638 54.9506 142.848 54.8245C142.974 54.9786 143.002 55.2728 143.072 55.469C143.24 55.8892 143.59 56.2815 143.661 56.7298C143.675 56.8279 143.661 56.926 143.632 57.0381Z" fill="#F1E6DC"/>
<path d="M142.092 64.9256C141.854 65.7662 140.579 66.2425 139.5 65.9623C138.743 65.7662 135.563 64.0289 136.305 62.8381C137.034 61.6753 139.696 63.1883 140.256 63.8048C140.579 64.169 140.775 64.6594 140.242 64.9256C139.556 65.2758 138.575 64.6314 138.085 64.183C137.945 64.0569 138.071 63.8468 138.225 63.8328C138.365 63.8188 138.379 63.8188 138.519 63.8608C138.645 63.9028 138.687 64.0289 138.645 64.127C138.995 64.3932 139.528 64.7154 139.808 64.6033C140.579 64.2531 139.164 63.4825 138.981 63.3985C138.603 63.2023 138.211 63.0482 137.791 62.9642C137.636 62.9362 137.468 62.9081 137.314 62.9081C136.936 62.8941 136.866 62.8661 136.796 63.2444C136.67 63.9309 138.071 64.8135 138.575 65.1217C139.192 65.486 139.892 65.7662 140.621 65.6401C141.517 65.472 142.036 64.7434 141.391 63.9449C140.747 63.2724 139.864 62.768 139.037 62.4178C138.967 62.3898 138.911 62.3617 138.841 62.3337C139.668 61.1429 140.41 59.896 141.083 58.6071C141.181 58.4109 140.887 58.2428 140.789 58.439C140.102 59.7419 139.346 61.0028 138.519 62.2216C137.833 61.9695 137.062 61.7733 136.39 62.0535C136.362 62.0675 136.319 62.0815 136.291 62.0956C136.081 62.5299 135.983 62.9502 136.025 63.3564C136.207 65.1917 141.335 67.3913 142.064 66.6488C142.162 66.5507 142.26 66.3546 142.344 66.0884C142.344 65.6541 142.246 65.2758 142.092 64.9256Z" fill="#DDCABA"/>
<path d="M141.181 50.9576C140.859 50.5513 140.662 50.047 140.312 49.6687C139.668 48.9822 138.533 48.8281 137.734 49.3185C136.754 49.9069 136.431 51.1818 135.619 51.9943C134.89 52.7229 133.755 53.0031 132.775 52.7088C132.312 52.5687 131.878 52.3026 131.388 52.2885C131.472 52.7369 131.388 53.1852 131.359 53.6475C131.345 54.0958 131.402 54.5862 131.71 54.9224C132.004 55.2306 132.48 55.3287 132.915 55.3007C133.489 55.2727 134.049 55.0765 134.512 54.7543C135.058 54.376 135.465 53.8156 135.843 53.2692C136.221 52.7229 136.599 52.1484 137.104 51.7141C137.608 51.2798 138.281 50.9716 138.953 51.0697C139.738 51.1818 140.34 51.8262 141.069 52.1485C141.489 52.3446 141.965 52.4287 142.428 52.4006C142.708 51.9663 142.456 51.9103 142.105 51.7282C141.741 51.532 141.433 51.2798 141.181 50.9576Z" fill="#ED1C24"/>
<path d="M220.746 139.276C220.732 139.304 220.732 139.346 220.69 139.374C220.017 139.865 214.918 142.737 213.026 143.143C211.345 143.507 209.201 144.208 207.59 143.311C207.114 143.045 206.679 142.667 206.147 142.597C205.559 142.527 204.942 142.863 204.396 142.639C203.821 142.4 203.639 141.714 203.317 141.182C203.037 140.719 202.602 140.355 202.112 140.145C200.921 139.654 198.932 137.469 198.147 136.586C198.049 136.474 197.951 136.362 197.867 136.292C196.984 135.437 197.152 136.488 197.292 137.413C197.503 138.73 197.391 140.117 197.363 141.49C197.349 141.938 197.349 142.386 197.363 142.821C197.545 147.388 199.24 151.395 200.151 155.822C200.711 158.526 200.767 161.342 200.319 164.074C199.94 166.357 199.184 168.641 199.45 170.953C199.744 173.488 201.229 175.772 201.552 178.308C201.79 180.143 201.398 182.021 201.762 183.828C202 184.991 202.546 186.055 203.079 187.106C204.158 189.222 205.236 191.337 206.315 193.453C206.609 194.027 206.89 194.545 206.567 195.092C205.769 196.437 203.387 197.501 202.07 198.202C200.375 199.113 198.581 199.869 196.802 200.584C193.272 201.985 189.643 203.218 186.35 205.137C185.342 205.725 184.347 206.384 183.212 206.692C174.792 208.934 174.96 194.686 173.405 190.02C172.858 188.367 172.074 186.798 171.513 185.145C170.519 182.147 170.266 178.784 170.729 175.674C168.333 180.283 166.259 183.828 163.107 186.476C161.37 187.933 159.408 189.11 157.545 190.398C155.682 191.687 153.874 193.144 152.585 195.008C151.296 196.885 150.582 199.239 151.072 201.452C149.783 199.351 149.601 196.647 149.797 194.237C150.021 191.547 150.778 188.913 151.801 186.434C153.874 181.446 156.929 176.893 158.75 171.807C160.333 167.38 160.936 162.547 163.317 158.428C165.041 155.458 166.442 152.319 167.703 149.139C168.809 146.337 170.393 143.157 170.743 140.159C171.065 137.413 171.752 135.045 170.743 132.341C169.79 129.806 168.978 127.746 168.739 125.014C168.529 122.632 167.562 120.727 165.559 119.34C163.794 118.121 161.692 117.225 160.445 115.473C159.843 114.619 159.478 113.61 158.82 112.811C157.573 111.284 155.457 110.71 154.169 109.239C152.767 107.642 152.585 105.288 151.394 103.537C150.218 101.786 148.172 100.791 146.995 99.0397C146.113 97.7228 145.804 96.1256 145.244 94.6406C144.571 92.8473 143.521 91.2221 142.358 89.7091C141.363 88.3921 140.06 87.2293 139.5 85.6462C139.191 84.7636 139.205 83.5307 139.444 82.6201C141.881 73.0373 145.594 68.512 147.219 67.4893C148.116 70.1372 152.669 81.093 156.901 90.3395C159.45 95.9155 170.771 105.806 173.993 107.432C173.993 107.432 174.035 107.446 174.133 107.488C174.217 107.516 174.343 107.558 174.512 107.586C175.086 107.712 176.137 107.838 177.776 107.628C178.617 107.516 180.046 107.376 180.592 107.193C180.592 107.193 185.58 107.404 186.434 108.132C188.886 110.206 189.082 110.023 189.082 110.023C189.082 110.023 193.608 114.745 194.799 115.585C194.883 115.655 194.981 115.726 195.079 115.796C195.177 115.866 195.275 115.964 195.387 116.048C196.326 116.874 197.349 117.827 198.091 118.836C198.82 119.83 199.478 120.685 200.613 121.301C201.229 121.638 203.765 123.557 204.116 124.16C204.382 124.636 204.382 125.266 204.788 125.659C204.914 125.785 205.082 125.869 205.236 125.967C205.615 126.219 205.909 126.583 206.091 127.004C206.175 127.214 206.189 127.858 206.413 127.942C206.609 128.012 207.128 127.564 207.268 127.48C208.165 126.905 209.047 126.303 209.93 125.701C211.975 124.314 214.007 122.899 216.066 121.54C216.361 121.344 216.893 120.839 217.271 120.811C217.439 120.797 217.832 122.787 218.168 125.056C218.518 127.718 220.998 138.646 220.746 139.276Z" fill="#313738"/>
<path d="M202.995 130.408C202.883 130.408 202.757 130.352 202.687 130.254C202.561 130.086 202.603 129.848 202.771 129.721L208.515 125.532C208.683 125.406 208.921 125.448 209.047 125.617C209.173 125.785 209.131 126.023 208.963 126.149L203.219 130.338C203.163 130.38 203.079 130.408 202.995 130.408Z" fill="white"/>
<path d="M195.373 116.048C191.983 118.163 190.399 125.827 190.385 125.911C190.371 125.995 190.287 126.065 190.203 126.065C190.189 126.065 190.175 126.065 190.161 126.065C190.063 126.051 189.993 125.939 190.007 125.841C190.007 125.827 190.441 123.739 191.31 121.456C192.389 118.64 193.65 116.734 195.065 115.81C195.177 115.866 195.275 115.95 195.373 116.048Z" fill="#232828"/>
<path d="M220.438 139.192C219.751 138.226 218.07 136.572 216.249 129.063L219.177 124.664C219.709 127.704 221.643 138.254 220.872 139.206C220.76 139.346 220.536 139.346 220.438 139.192Z" fill="#1A1A1A"/>
<path d="M224.529 116.412C224.543 115.796 225.902 113.05 225.846 112.433C225.832 112.251 225.762 112.069 225.607 111.971C225.495 111.915 225.369 111.915 225.257 111.915C224.767 111.943 224.234 112.167 222.861 114.269C222.918 114.689 222.974 114.689 223.086 115.095C223.128 115.277 223.142 115.978 223.296 116.09C223.422 116.188 223.576 116.454 223.73 116.468C223.94 116.51 224.305 116.412 224.529 116.412Z" fill="#A54B22"/>
<path d="M216.529 121.246C216.529 121.246 217.425 120.615 217.425 120.601C217.594 120.405 218.742 117.421 219.219 116.86C219.737 116.258 221.04 115.964 221.699 114.773C222.497 113.358 222.483 113.288 223.128 113.708C223.772 114.128 223.632 115.361 223.632 115.375C223.646 115.291 224.389 115.207 224.459 115.207C224.781 115.193 225.187 115.333 225.369 115.628C225.566 115.95 225.439 116.356 225.495 116.72C225.537 117.015 225.692 117.281 225.818 117.561C225.944 117.841 226.042 118.149 225.958 118.43C225.902 118.612 225.79 118.766 225.748 118.948C225.664 119.256 225.79 119.564 225.846 119.873C225.986 120.615 225.678 121.105 225.327 121.708C225.131 122.044 224.949 122.296 224.669 122.562C223.968 123.207 223.156 123.739 222.343 124.244C221.895 124.524 221.432 124.79 220.97 125.056L216.221 129.063C216.235 129.063 214.595 123.025 216.529 121.246Z" fill="#A54B22"/>
<path d="M224.851 121.232C223.927 121.077 224.025 120.811 223.955 119.971C223.941 119.859 223.997 119.817 223.955 119.69C223.815 119.298 223.422 119.55 223.604 118.948C223.703 118.626 224.039 118.514 223.871 118.121C223.688 117.673 223.24 117.729 223.338 117.071C223.352 117.015 223.338 116.973 223.31 116.931C223.52 116.566 223.632 116.16 223.632 115.726C223.632 115.375 223.1 115.305 223.086 115.656C223.058 116.636 222.4 117.225 221.657 117.743C221.349 117.967 220.942 118.177 220.886 118.612C220.844 119.046 221.209 119.452 221.307 119.859C221.489 120.657 221.251 121.4 220.76 122.03C220.522 122.338 220.984 122.675 221.237 122.394C222.105 121.428 222.077 120.293 221.699 119.144C221.601 118.836 221.517 119.004 221.685 118.626C221.811 118.346 221.909 118.304 222.133 118.149C222.357 117.995 222.568 117.813 222.764 117.631C222.764 117.687 222.778 117.729 222.792 117.785C222.862 117.995 223.17 118.135 223.212 118.289C223.296 118.57 222.862 118.976 222.862 119.312C222.862 119.508 222.946 119.704 223.086 119.845C223.142 119.901 223.282 119.929 223.324 119.985C223.324 119.985 223.324 119.999 223.338 119.999C223.324 120.027 223.31 120.083 223.282 120.139C223.198 120.391 223.254 120.699 223.338 120.951C223.562 121.568 224.221 121.96 224.851 121.792C225.132 121.666 225.146 121.274 224.851 121.232Z" fill="#802E11"/>
<path d="M177.412 140.201C176.978 137.259 174.988 134.681 175.016 131.641C175.016 131.445 174.708 131.445 174.708 131.641C174.652 134.233 176.095 136.474 176.782 138.898C177.16 140.257 177.286 141.686 177.132 143.087C176.978 144.558 176.417 145.945 176.207 147.416C175.787 150.26 176.277 153.16 175.759 156.004C175.24 158.862 174.26 161.636 173.447 164.424C172.508 167.619 171.738 171.737 170.799 174.946C170.729 175.17 171.079 175.268 171.149 175.044C172.004 172.13 172.691 168.305 173.545 165.391C174.372 162.589 175.311 159.801 175.941 156.957C176.249 155.57 176.417 154.169 176.431 152.74C176.445 151.269 176.361 149.798 176.487 148.341C176.6 146.898 177.076 145.553 177.356 144.138C177.58 142.835 177.608 141.504 177.412 140.201Z" fill="#232828"/>
<path d="M197.278 137.413C197.488 138.73 197.376 140.117 197.348 141.49C196.003 139.276 192.206 131.907 192.431 132.187C193.285 133.252 194.966 133.896 196.101 134.569C196.732 134.947 197.895 136.152 197.852 136.278C196.97 135.424 197.138 136.474 197.278 137.413Z" fill="#232828"/>
<path d="M192.977 99.1518C191.857 101.127 189.951 99.8523 189.951 99.8523C188.228 102.752 187.654 106.633 187.948 107.936C188.326 109.631 190.161 111.06 190.161 111.06C190.161 111.06 189.615 111.481 188.76 112.111C187.808 112.825 186.477 113.792 185.118 114.731C182.091 116.804 177.566 120.209 177.566 120.209C176.95 114.675 177.398 111.424 177.93 109.603C178.379 108.076 178.883 107.572 178.883 107.572L180.718 107.081L181.489 105.148L182.021 103.803L182.414 102.892V102.878C182.442 102.892 179.99 103.005 178.869 100.777C177.622 97.2184 180.592 93.1835 183.254 90.4936C183.548 90.1994 185.734 88.9806 185.902 89.4849C186.168 90.2415 187.948 90.97 188.242 91.2642C188.578 91.5864 189.335 93.3657 189.643 93.772C189.867 94.0662 190.133 94.3464 190.259 94.6966C190.666 95.7193 190.273 96.574 190.315 96.8822C190.358 97.0923 190.217 97.4846 190.358 97.3165C190.512 97.1343 190.694 96.9382 190.862 96.7841C191.408 96.2938 192.375 96.5039 192.753 96.8682C193.524 97.5827 193.272 98.6334 192.977 99.1518Z" fill="#A54B22"/>
<g opacity="0.7">
<path opacity="0.7" d="M181.587 95.8174C181.671 95.6773 181.853 95.6073 182.007 95.6913C182.148 95.7754 182.288 95.8454 182.442 95.9295C182.582 96.0136 182.652 96.1957 182.568 96.3498C182.484 96.4899 182.302 96.5599 182.148 96.4759C182.007 96.3918 181.867 96.3218 181.713 96.2377C181.559 96.1536 181.503 95.9575 181.587 95.8174Z" fill="#3A1714"/>
</g>
<path d="M186.967 92.2449C187.318 92.4971 187.234 92.4271 187.57 92.6933C187.906 92.9735 188.214 93.2817 188.537 93.5759C188.831 93.8421 188.453 94.3184 188.158 94.0522C187.836 93.758 187.528 93.4498 187.192 93.1696C186.855 92.9034 186.939 92.9735 186.589 92.7213C186.267 92.4831 186.645 92.0068 186.967 92.2449Z" fill="#621406"/>
<path d="M183.31 92.1749C183.408 92.1469 183.478 92.0768 183.506 91.9788C183.548 91.8387 183.464 91.6846 183.31 91.6565C183.128 91.6145 182.946 91.5725 182.764 91.5725C182.539 91.5725 182.301 91.6145 182.077 91.6425C181.979 91.6565 181.881 91.6565 181.797 91.6986C181.713 91.7266 181.629 91.7966 181.587 91.8807C181.405 92.2449 182.007 92.1329 182.189 92.1189C182.511 92.1048 182.834 92.1189 183.156 92.1889C183.212 92.1889 183.254 92.1889 183.31 92.1749Z" fill="#621406"/>
<path d="M186.631 102.192C185.608 103.271 183.38 104.826 181.503 105.162L182.035 103.803L182.428 102.878V102.906V102.934H182.442C183.955 102.948 185.58 102.542 186.631 102.192Z" fill="#1A1A1A"/>
<path d="M180.537 97.4146C180.999 97.4006 183.675 97.8909 184.053 98.073C183.423 99.6001 180.607 100.609 180.537 97.4146Z" fill="white"/>
<path d="M186.364 94.4724C186.476 94.4024 186.603 94.3743 186.715 94.4164C186.729 94.4164 186.743 94.4164 186.757 94.4304H186.771H186.785C187.191 94.5705 187.163 95.1589 186.897 95.4391C186.855 95.5091 186.799 95.5652 186.715 95.5932C186.631 95.6212 186.546 95.6212 186.476 95.5932C186.462 95.5932 186.462 95.5932 186.448 95.5932C186.252 95.5792 186.14 95.4391 186.098 95.257C185.972 94.9908 186.098 94.6265 186.364 94.4724Z" fill="#1A1A1A"/>
<path d="M180.774 93.3657C180.998 93.1835 181.335 93.2256 181.503 93.4637C181.517 93.4918 181.531 93.5058 181.545 93.5338C181.587 93.6038 181.601 93.7019 181.573 93.786C181.573 93.8 181.573 93.8 181.559 93.814C181.559 93.814 181.559 93.814 181.559 93.828C181.503 93.9821 181.433 94.1222 181.307 94.2343C181.068 94.4444 180.718 94.3183 180.592 94.0522C180.494 93.814 180.578 93.5338 180.774 93.3657Z" fill="#1A1A1A"/>
<path d="M188.76 112.125C187.808 112.839 186.477 113.806 185.118 114.745C182.091 116.818 177.566 120.223 177.566 120.223C176.95 114.689 177.398 111.438 177.93 109.617C178.253 110.766 178.449 113.386 180.901 113.526C183.296 113.638 187.205 112.531 188.76 112.125Z" fill="#FA8E80"/>
<path d="M170.21 131.094C169.103 128.306 168.725 125.715 169.173 122.731C169.593 120.013 169.678 117.281 169.341 114.535C169.285 114.114 168.725 114.241 168.753 114.563C168.753 116.048 168.879 117.519 168.837 119.004C168.795 120.587 168.501 122.128 168.305 123.697C167.996 126.275 168.347 129.077 169.579 131.389C169.762 131.739 170.35 131.473 170.21 131.094Z" fill="white"/>
<path d="M194.813 115.515C194.813 115.88 174.484 130.716 174.119 130.534C173.755 130.352 172.466 123.753 172.284 117.715C172.102 111.677 173.307 106.983 173.307 106.983C173.349 106.983 173.671 107.011 174.133 107.053C174.428 107.081 174.778 107.109 175.156 107.151C175.633 107.194 176.137 107.25 176.627 107.306C176.978 107.348 177.314 107.376 177.622 107.404C178.407 107.488 178.967 107.544 178.967 107.544C178.056 110.654 178.056 117.799 178.238 118.163C178.421 118.528 189.685 111.116 190.231 111.116C190.371 111.116 190.764 111.397 191.254 111.817C191.52 112.041 191.801 112.293 192.095 112.573C192.403 112.854 192.711 113.162 193.019 113.47C193.286 113.736 193.552 114.002 193.79 114.255C194.392 114.899 194.813 115.403 194.813 115.515Z" fill="#1A1A1A"/>
<path d="M193.79 114.269C193.481 114.507 193.187 114.745 192.879 114.969C191.072 116.384 189.222 117.729 187.331 119.046C183.422 121.792 179.415 124.44 175.31 126.906C175.156 126.99 175.016 127.004 174.89 126.948C174.665 126.962 174.469 126.835 174.427 126.555C173.447 120.195 173.11 113.456 174.119 107.053C174.413 107.081 174.763 107.109 175.142 107.151C174.876 110.108 174.623 113.036 174.651 116.006C174.679 119.242 174.932 122.464 175.394 125.673C179.079 123.193 182.861 120.867 186.504 118.317C188.452 116.958 190.371 115.557 192.234 114.1C192.501 113.89 192.753 113.68 193.019 113.484C193.299 113.75 193.565 114.016 193.79 114.269Z" fill="#EFB44B"/>
<path d="M192.109 112.587C190.498 113.792 188.873 114.955 187.248 116.118C185.776 117.169 184.305 118.205 182.792 119.158C181.741 119.83 180.677 120.461 179.57 121.035C179.023 121.329 178.463 121.596 177.903 121.848C177.566 122.002 176.726 122.562 176.403 122.156C176.249 121.974 176.249 121.722 176.221 121.484C175.969 118.864 175.815 116.258 175.927 113.638C176.025 111.523 176.249 109.407 176.628 107.306C176.978 107.348 177.314 107.376 177.622 107.404C176.936 111.915 176.768 116.482 177.258 121.021C182.274 118.499 186.785 115.193 191.268 111.817C191.521 112.055 191.815 112.307 192.109 112.587Z" fill="#EFB44B"/>
<path d="M148.382 104.336C147.331 103.369 146.21 102.626 145.384 101.435C144.571 100.273 144.053 98.9698 143.801 97.5688C143.689 96.9804 142.806 97.2325 142.904 97.821C143.352 100.567 145.202 104.027 148.018 104.966C148.368 105.092 148.648 104.588 148.382 104.336Z" fill="#7399C6"/>
<path d="M211.667 145.777C210.14 146.688 208.333 146.772 206.763 145.903C206.231 145.609 205.741 146.421 206.287 146.73C208.122 147.794 210.392 147.794 212.185 146.646C212.718 146.295 212.227 145.441 211.667 145.777Z" fill="#7399C6"/>
<path d="M37.0276 201.76C37.0276 201.942 36.4812 206.342 39.2272 206.706C41.9732 207.07 50.9539 202.307 56.8102 202.867C62.6666 203.428 86.2881 204.142 86.2881 204.142C90.3231 203.96 93.4334 204.142 94.1619 200.85C95.0025 197.067 86.4702 181.81 86.4702 181.81L79.3249 169.173L37.0276 201.76Z" fill="#1A1A1A"/>
<path d="M30.8911 257.884C30.6809 258.795 59.6124 259.173 64.7542 259.257C95.3949 259.776 107.864 260.266 107.864 259.103C107.864 257.492 83.7943 257.814 53.2237 256.974C34.2116 256.469 31.1853 256.623 30.8911 257.884Z" fill="#867897"/>
<path d="M52.8879 114.142C52.8879 114.142 47.9142 110.78 48.4466 105.05C48.979 99.3198 54.5271 100.104 54.4851 95.9574C54.4431 91.8105 53.028 90.2834 54.7793 86.6968C56.5306 83.1103 65.5673 86.3886 65.5673 86.3886L69.5743 98.269C69.5743 98.269 75.1084 102.08 74.5339 104.854C73.9735 107.628 52.8879 114.142 52.8879 114.142Z" fill="#C02328"/>
<path d="M48.0121 109.995C48.0681 109.995 48.1242 109.981 48.1802 109.939C48.3203 109.841 48.3483 109.659 48.2503 109.533C48.2363 109.519 46.9193 107.6 47.2695 104.405C47.5638 101.646 50.1277 100.146 52.1872 98.9416C52.5094 98.7455 52.8177 98.5774 53.0979 98.3952C55.2835 97.0363 54.8772 92.483 54.8632 92.2869C54.8492 92.1188 54.7091 92.0067 54.5409 92.0207C54.3728 92.0347 54.2607 92.1748 54.2747 92.3429C54.2747 92.385 54.667 96.728 52.7896 97.8909C52.5094 98.059 52.2152 98.2411 51.893 98.4232C49.8334 99.6281 47.0174 101.281 46.6951 104.335C46.3308 107.768 47.7319 109.785 47.7879 109.883C47.83 109.953 47.914 109.995 48.0121 109.995Z" fill="#C02328"/>
<path d="M80.8242 252.911C80.1938 254.788 79.2411 256.511 79.5633 257.954C79.8295 259.187 84.0887 259.075 89.0343 259.201C93.994 259.313 105.511 258.921 105.735 257.912C105.959 256.904 104.992 255.713 101.854 254.368C99.6822 253.429 95.6332 251.944 93.1674 249.702C92.0746 248.708 91.276 247.881 91.0518 247.335C90.3093 245.542 89.6648 231.896 89.6648 231.896L78.3444 230.999C78.3444 230.999 81.3987 246.508 81.5248 249.31C81.5668 250.431 81.2445 251.65 80.8242 252.911Z" fill="#A54B22"/>
<path d="M105.721 257.898C105.496 258.907 93.9799 259.299 89.0203 259.187C84.0746 259.075 79.8154 259.173 79.5492 257.94C79.241 256.511 79.9836 254.634 80.628 252.757C81.0624 251.482 81.4266 250.221 81.3846 249.086C81.3426 248.245 81.2865 247.167 80.8942 244.799C87.311 242.417 89.8889 241.212 90.2392 241.226C90.4914 243.832 90.8136 246.396 91.1078 247.097C91.332 247.643 92.1446 248.526 93.2374 249.534C95.6892 251.776 99.6682 253.401 101.84 254.326C104.978 255.713 105.945 256.89 105.721 257.898Z" fill="#E7ECEE"/>
<path d="M79.5492 257.954C79.8154 259.187 84.0746 259.089 89.0202 259.201C93.9659 259.313 105.496 258.921 105.721 257.912C105.777 257.66 105.875 257.408 105.931 257.17C106.099 256.469 105.959 255.769 103.605 254.76C101.433 253.821 95.6892 251.804 93.2374 249.562C92.3547 249.142 91.6262 249.688 91.0237 250.529C90.001 251.944 89.5806 253.359 87.4931 253.695C86.6385 253.835 82.2812 253.121 80.628 252.757C80.2918 253.737 79.9275 254.732 79.7033 255.643C79.4932 256.497 79.4091 257.268 79.5492 257.954Z" fill="#FA8E80"/>
<path d="M41.1328 241.016C40.9367 241.549 40.9367 242.585 40.8526 243.412C40.5444 246.69 41.0908 251.734 41.2869 255.503C39.2834 255.489 37.2799 255.517 35.2624 255.559C34.688 254.69 34.1136 253.723 33.5112 252.715C30.3728 247.391 28.6636 240.05 29.1259 238.256C29.3781 237.248 30.8912 236.141 32.3203 234.81C33.4411 233.773 34.4218 232.891 34.9542 232.176C35.3885 231.616 36.1871 229.864 36.9577 228.337C38.3868 225.507 45.448 215.574 45.448 215.574L49.553 225.731C49.553 225.731 45.7842 232.12 43.2764 236.981C42.4498 238.593 41.5111 240.036 41.1328 241.016Z" fill="#F4A07F"/>
<path d="M40.9925 243.09C40.6843 246.326 40.334 251.216 41.3427 255.264C39.2552 255.264 37.1677 255.264 35.0941 255.278C34.5897 254.48 34.0714 253.639 33.539 252.729C30.3726 247.391 28.6634 240.05 29.1257 238.256C29.3779 237.248 30.8069 235.847 32.25 234.53C33.3708 233.493 34.5057 232.498 35.0521 231.784C35.4864 231.223 36.2149 229.864 36.9715 228.351C38.0223 232.989 41.8051 235.987 43.2902 237.009C42.4636 238.607 41.7771 240.036 41.4128 241.03C41.1886 241.549 41.0625 242.249 40.9925 243.09Z" fill="#E7ECEE"/>
<path d="M29.5042 242.726C29.9665 245.121 30.625 247.475 31.4516 249.745C31.8859 250.935 32.3623 252.098 32.9227 253.219C33.0348 253.457 33.1609 253.695 33.287 253.919C33.7773 254.802 34.3378 255.601 34.9822 256.413C36.0751 257.772 37.392 257.842 39.0453 257.828C40.1941 257.814 41.357 257.786 42.5198 257.73C43.3324 257.688 44.5934 257.912 44.7335 256.778C44.7475 256.651 44.7615 256.525 44.7615 256.413C44.7615 255.699 44.5093 254.984 44.0329 254.48C43.5006 253.905 42.758 253.583 42.0995 253.149C41.427 252.701 41.1048 251.944 41.0908 251.118C41.0768 250.165 40.9787 249.212 40.9367 248.259C40.8666 246.536 40.8106 244.799 40.9647 243.076C40.5864 242.473 39.7598 241.507 38.4988 241.955C36.7055 242.585 35.0943 243.804 33.5672 242.445C32.1662 241.184 31.8159 236.253 32.2222 234.516C31.3395 235.328 30.4569 236.169 29.8544 236.939C29.4762 237.416 29.21 237.864 29.0979 238.242C28.7756 239.643 29.252 241.395 29.5042 242.726Z" fill="#FA8E80"/>
<path d="M90.5474 241.507C90.5474 241.507 76.0326 247.475 75.6683 246.48C75.3741 245.696 70.9608 200.668 68.9433 187.106C68.439 183.688 65.6369 170.504 65.4828 169.482C64.3479 162.491 60.2709 150.876 58.6037 142.751C60.4811 141.994 62.7788 141.21 66.0572 140.439C68.7192 139.809 71.143 138.926 72.9783 138.548C78.3023 137.441 79.9975 137.119 80.614 137.077C80.6981 137.735 80.7821 138.534 80.8942 139.458C81.0483 140.719 80.7401 141.027 80.9362 142.695C82.001 151.787 83.8784 166.54 85.1814 176.893C85.8959 182.539 86.4423 186.882 86.6104 188.297C86.7926 189.922 87.2269 195.274 87.7313 201.999C88.9082 217.914 90.5474 241.507 90.5474 241.507Z" fill="#AEBFD1"/>
<path d="M38.1768 225.816C38.6812 228.393 39.1155 229.57 40.3625 231.854C41.1751 233.353 42.1698 234.768 43.3467 236.001C44.5235 237.248 45.9106 238.579 47.802 238.579C47.9841 238.579 48.1522 238.565 48.3344 238.537C49.161 238.396 49.4412 237.962 49.8335 237.304C50.0576 236.925 50.2678 236.547 50.492 236.169C51.0244 235.216 51.5287 234.235 52.0331 233.269C53.3361 230.719 55.3536 228.211 56.5725 225.619C57.9875 222.635 68.4253 208.625 71.7877 189.138C73.5951 179.078 77.462 141.686 77.462 141.686L72.8385 138.52C70.9471 138.898 57.343 144.11 56.8387 144.684C55.6338 145.665 55.0173 152.179 55.2275 155.864C55.7739 165.573 54.8912 174.595 52.4534 190.581C50.2538 205.025 38.1768 225.816 38.1768 225.816Z" fill="#AEBFD1"/>
<path d="M67.7385 204.45C67.6824 204.45 67.6404 204.436 67.5844 204.422C67.3882 204.338 67.2901 204.114 67.3602 203.904C68.8033 200.345 70.0081 195.106 70.5265 192.864C70.6106 192.5 70.6666 192.22 70.7087 192.065C73.3146 181.558 73.7629 169.538 74.1692 158.932C74.2533 156.859 74.3233 154.911 74.4074 153.02C74.4214 152.796 74.6035 152.628 74.8137 152.642C75.0379 152.656 75.206 152.838 75.192 153.048C75.1079 154.939 75.0379 156.887 74.9538 158.96C74.5475 169.608 74.0992 181.67 71.4792 192.262C71.4372 192.416 71.3812 192.696 71.2971 193.046C70.7787 195.302 69.5598 200.584 68.1027 204.198C68.0327 204.366 67.8926 204.45 67.7385 204.45Z" fill="white"/>
<path d="M40.8527 226.628C45.266 219.945 49.1749 213.08 52.4673 205.823C52.6495 205.431 53.2799 205.585 53.0978 206.005C49.9595 213.305 46.0646 220.45 41.4132 226.978C41.161 227.329 40.6006 227.006 40.8527 226.628Z" fill="#829DAF"/>
<path d="M56.6421 157.433C58.9818 155.402 60.9853 153.328 62.4564 150.582C62.7786 149.994 63.6333 150.498 63.311 151.101C61.868 153.818 59.7944 156.508 57.2025 158.246C56.7402 158.554 56.1937 157.825 56.6421 157.433Z" fill="#829DAF"/>
<path d="M53.6719 202.013C57.7629 188.199 61.2935 174.035 60.0746 159.885C60.0326 159.436 60.7331 159.226 60.7752 159.689C62.1762 173.895 58.5055 188.325 54.3163 202.195C54.1902 202.615 53.5458 202.433 53.6719 202.013Z" fill="#829DAF"/>
<path d="M67.5846 88.9805C67.5846 88.9805 69.7562 86.2065 68.5233 84.1611C67.2764 82.1016 64.9367 81.8214 62.9332 81.4432C61.364 81.1349 58.0295 81.0649 55.3115 85.6041C52.6075 90.1293 54.3448 94.5004 60.5654 98.8715C62.667 100.343 67.5846 88.9805 67.5846 88.9805Z" fill="#C02328"/>
<path d="M54.3166 111.466C55.4094 111.606 72.2079 121.133 72.2079 121.133C75.1921 115.585 74.9959 104.167 74.9259 103.873C72.7543 104.461 70.3865 104.475 69.5879 104.069C69.1956 103.873 68.313 102.248 68.1449 100.805C68.1449 100.777 68.1448 100.763 68.1308 100.735C68.0188 99.8101 67.7806 98.4651 67.5984 97.5685C67.4864 97.0081 67.4023 96.6298 67.4023 96.6298L60.201 95.5651C60.201 95.5651 62.1904 102.724 60.7754 105.008C60.1309 106.073 56.6003 109.603 54.3166 111.466Z" fill="#F4A07F"/>
<path d="M62.1907 97.2884C62.1907 97.2884 62.2187 98.3392 64.0121 99.7262C65.343 100.427 66.0015 100.721 68.1451 100.749C68.033 99.8242 67.7949 98.4793 67.6127 97.5827L62.1907 97.2884Z" fill="#3A1714"/>
<path d="M68.9155 87.5094C69.3358 88.4901 73.707 94.2902 69.9943 98.0308C67.8367 100.202 62.1765 99.5019 60.4252 96.2096C60.4252 96.2096 59.6406 96.5738 58.884 96.2096C57.9033 95.7472 56.8105 94.7385 57.6651 93.2675C58.786 91.3481 60.3411 93.0013 60.3411 93.0013C60.3411 93.0013 60.0329 91.6423 60.3411 90.2273C62.1064 89.2326 66.2115 86.879 66.5477 84.8055C66.5477 84.8055 68.3551 86.2205 68.9155 87.5094Z" fill="#F4A07F"/>
<g opacity="0.7">
<g opacity="0.7">
<path opacity="0.7" d="M68.6774 93.0013C68.6073 92.8612 68.4252 92.8052 68.3131 92.8612C68.187 92.9173 68.0749 92.9873 67.9488 93.0434C67.8227 93.1134 67.7807 93.2675 67.8648 93.4076C67.9348 93.5477 68.1169 93.6038 68.229 93.5477C68.3551 93.4917 68.4672 93.4216 68.5933 93.3656C68.7054 93.3096 68.7474 93.1414 68.6774 93.0013Z" fill="#D45C48"/>
</g>
</g>
<path d="M64.5584 88.2519C64.2361 88.42 63.8999 88.5321 63.5916 88.7282C63.2834 88.9243 63.0032 89.1485 62.709 89.3587C62.4428 89.5408 62.751 90.0311 63.0172 89.835C63.3114 89.6248 63.5916 89.4007 63.8999 89.2046C64.2081 89.0224 64.5443 88.8963 64.8666 88.7282C65.1748 88.5741 64.8526 88.0837 64.5584 88.2519Z" fill="#C02328"/>
<path d="M69.2516 87.3274C68.9434 87.1453 68.6631 87.1313 68.3409 87.1313C68.0047 87.1313 68.0187 87.6776 68.3689 87.6776C68.5791 87.6776 68.8033 87.6636 69.0134 87.7757C69.3076 87.9578 69.5598 87.5095 69.2516 87.3274Z" fill="#C02328"/>
<path d="M69.952 93.8419C69.952 93.8419 66.8978 94.5004 66.1832 94.6405C65.4687 94.7806 68.579 96.6579 69.1394 96.1956C70.0921 95.411 69.952 93.8419 69.952 93.8419Z" fill="white"/>
<path d="M71.1855 105.246C71.1855 105.246 71.2555 112.363 58.7443 107.025L68.0051 124.622L76.4814 121.652L71.1855 105.246Z" fill="white"/>
<path d="M104.194 60.6103C103.745 61.1287 103.227 61.6611 102.863 62.2495C101.938 63.7766 101.279 65.6539 100.635 67.3351C99.9625 69.0723 99.3741 70.8516 98.8277 72.6309C97.1604 78.1368 95.5352 83.8808 92.8733 88.9945C89.3847 95.7192 86.1062 84.4552 86.1062 84.4552C86.1062 84.4552 94.2323 66.4665 95.3811 62.7118C96.3618 59.5036 97.1885 55.917 96.544 52.5826C96.4879 52.3024 96.4179 52.0082 96.4459 51.714C96.4739 51.4198 96.6 51.1256 96.8522 50.9855C97.2445 50.7614 97.7489 50.9995 98.0991 51.2937C98.7296 51.8401 99.1499 52.6247 99.3741 53.4232C99.5282 53.9696 100.019 53.087 100.173 52.9049C100.565 52.4285 100.971 51.9382 101.378 51.4619C102.19 50.5092 103.017 49.5705 103.857 48.6459C104.026 48.4637 104.194 48.2816 104.418 48.1695C104.642 48.0574 104.922 48.0434 105.118 48.1975C105.202 48.2536 105.258 48.3376 105.343 48.3797C105.707 48.5338 106.267 47.8333 106.603 47.7212C106.884 47.6371 107.248 47.7072 107.402 47.9734C107.696 48.4918 107.29 49.1922 107.024 49.6266C106.407 50.6072 105.721 51.5459 105.132 52.5406C104.908 52.9189 104.684 53.3392 104.726 53.7735C105.09 53.8015 105.399 53.4933 105.637 53.2131C106.183 52.5686 106.716 51.9242 107.262 51.2797C107.514 50.9855 107.766 50.6913 108.117 50.5232C108.551 50.327 109.069 50.4531 109.027 51.0275C108.999 51.4759 108.677 52.0223 108.425 52.3725C107.794 53.2411 107.192 54.1097 106.491 54.9363C106.225 55.2585 105.861 55.6929 105.861 56.1272C106.393 55.7909 106.926 55.4407 107.458 55.1044C107.64 54.9924 107.822 54.8663 108.032 54.7682C108.243 54.6701 108.481 54.6141 108.677 54.7262C108.845 54.8382 108.901 55.0624 108.873 55.2585C108.817 55.6228 108.621 56.0151 108.383 56.2953C107.052 57.7943 105.539 59.1253 104.194 60.6103Z" fill="#F4A07F"/>
<path d="M98.0291 91.4321C97.9871 92.2027 95.9976 94.4863 95.5633 95.1167C94.6246 96.4617 93.6019 97.7646 92.3269 98.8153C91.5143 99.4738 90.6036 100.034 89.8891 100.805C88.7823 102.01 88.2219 103.649 87.073 104.826C86.4425 105.47 85.644 105.974 85.1256 106.717C84.6212 107.459 84.4671 108.37 84.1308 109.197C83.3743 111.144 81.7771 112.601 80.4041 114.17C80.0258 114.605 79.6615 115.053 79.4654 115.599C79.2552 116.146 79.5915 116.146 79.8717 116.594C80.4461 117.533 81.8752 119.536 82.0713 120.629C82.7998 124.664 80.9645 127.928 80.7964 130.702C80.6563 133.07 80.6983 137.413 81.5249 139.668C82.4776 142.26 81.3428 143.871 81.5249 146.631C81.8892 152.305 82.3795 152.599 82.7998 158.161C83.052 161.384 84.341 166.315 85.1956 169.425C87.1291 176.458 90.0432 184.066 92.509 191.113C94.0502 195.54 96.1658 200.079 93.0555 202.839C95.3251 200.583 93.4197 196.983 92.509 194.783C91.6544 192.738 88.9224 189.67 87.017 187.092C85.1676 184.57 81.4969 177.257 79.6895 173.544C79.1291 180.647 71.1572 204.786 69.6021 207.476C69.2658 208.051 68.9016 208.653 68.2991 208.905C67.7107 209.144 67.0382 208.989 66.4217 208.835C59.1363 206.888 46.555 200.583 39.0454 201.214C37.07 201.382 37.2101 203.596 37.8826 205.683C36.4815 203.61 36.4955 200.836 37.2521 198.44C38.0087 196.058 39.4377 193.943 40.7687 191.827C42.8563 188.507 44.8037 185.004 45.5182 181.152C45.8545 179.344 45.9105 177.495 46.2187 175.674C46.8632 171.751 48.6285 168.094 49.5952 164.228C51.0663 158.344 50.674 152.165 51.3185 146.127C51.949 140.173 53.6022 134.317 53.5462 128.292C53.5322 127.115 53.4761 125.967 53.4061 124.804C53.364 123.851 53.322 122.898 53.308 121.946C53.308 120.11 53.294 118.275 53.294 116.44C53.294 114.857 53.28 113.26 53.28 111.676C54.3308 110.724 55.1153 109.953 55.7318 109.323C57.5531 107.473 57.9034 106.871 58.8841 106.675C60.1871 106.423 70.7229 116.216 70.7229 116.216C71.9418 109.001 69.6721 104.167 69.6721 104.167C69.7001 103.761 71.7176 103.621 73.0206 103.256C73.0206 103.214 73.0346 103.186 73.0346 103.144C73.1047 102.486 73.3148 101.87 73.7632 101.337C74.0013 101.057 74.2815 100.819 74.6038 100.651C74.87 100.497 75.5145 100.426 75.7246 100.202C75.9067 100.006 75.8927 99.5719 75.9348 99.3197C76.0188 98.8293 76.1589 98.4091 76.3691 97.9607C76.6213 97.4424 77.2938 97.2042 77.8402 97.3023C77.8402 97.0221 77.8402 96.7699 77.8262 96.6998C77.7701 95.8873 77.9242 95.0467 78.6948 94.5984C79.0871 94.3742 79.6895 94.3182 80.278 94.3882C80.32 94.3182 80.362 94.2481 80.4041 94.1921C80.3901 94.164 80.3761 94.136 80.3761 94.094C79.6895 92.2307 79.9557 90.4654 81.595 89.2185C82.2534 88.7142 83.066 88.392 83.6825 87.8456C84.0328 87.5374 84.313 87.1731 84.5511 86.7668C86.6387 82.7039 92.509 69.6187 92.509 69.6187C93.5878 70.6834 98.5755 80.6305 98.0291 91.4321Z" fill="#313738"/>
<path d="M82.4215 120.559C82.2394 120.573 82.0573 120.447 82.0152 120.251C81.8051 119.368 80.4461 117.505 79.4514 116.146C79.2132 115.809 78.975 115.501 78.7789 115.221C77.686 113.68 76.299 110.458 76.229 110.318C76.1449 110.121 76.229 109.883 76.4391 109.799C76.6353 109.715 76.8734 109.799 76.9575 110.009C76.9715 110.037 78.3726 113.288 79.4233 114.759C79.6195 115.039 79.8436 115.347 80.0818 115.669C81.2307 117.238 82.5336 119.018 82.7858 120.054C82.8419 120.265 82.7018 120.475 82.4916 120.531C82.4636 120.559 82.4356 120.559 82.4215 120.559Z" fill="white"/>
<path d="M74.1274 102.696C76.0889 105.442 77.5599 108.468 78.5126 111.705C78.5827 111.943 78.1904 112.013 78.1204 111.775C77.1957 108.608 75.7526 105.638 73.8332 102.948C73.6791 102.738 73.9733 102.486 74.1274 102.696Z" fill="#232828"/>
<path d="M79.297 154.477C79.2129 151.479 78.9467 148.466 78.2182 145.552C77.8539 144.081 77.3075 142.652 76.9993 141.181C76.677 139.598 76.7331 137.973 76.7331 136.376C76.7331 133.028 76.1026 129.763 74.7296 126.695C74.6456 126.513 74.3794 126.667 74.4494 126.849C75.6683 129.665 76.3268 132.691 76.3688 135.745C76.3968 137.315 76.2988 138.884 76.5089 140.453C76.7051 141.924 77.2235 143.325 77.6298 144.74C79.283 150.624 78.9607 156.802 78.9187 162.841C78.8907 166.203 78.9467 169.593 79.4791 172.928C79.5211 173.152 79.8574 173.054 79.8154 172.83C78.9467 166.735 79.4651 160.599 79.297 154.477Z" fill="#232828"/>
<path d="M96.0253 141.322C96.1654 142.05 96.1794 142.835 96.5717 143.465C96.9079 144.025 97.4963 144.404 97.8886 144.922C98.379 145.595 98.5191 146.449 98.5471 147.262C98.5611 147.514 98.6031 147.612 98.393 147.71C98.2109 147.794 97.8326 147.738 97.6224 147.724C97.1321 147.71 96.6417 147.668 96.1654 147.584C96.4876 146.659 96.4175 145.609 95.9692 144.74C95.8011 144.404 95.5629 144.082 95.4789 143.717C95.3948 143.339 95.4648 142.933 95.4508 142.54C95.4368 142.162 95.3388 141.784 95.1706 141.448C95.0866 141.28 94.9885 141.111 94.8764 140.971C94.7783 140.859 94.5682 140.719 94.5121 140.593C94.33 140.187 94.9745 139.514 95.3668 139.865C95.7451 140.229 95.9272 140.817 96.0253 141.322Z" fill="#ED1C24"/>
<path d="M93.5317 145.889C93.6578 146.701 93.882 147.514 93.7699 148.327C93.6998 148.859 93.4897 149.363 93.3356 149.882C93.2095 150.33 93.1254 150.806 93.1114 151.283C93.1114 151.353 93.1114 151.437 93.1254 151.507C93.1815 151.661 93.3496 151.717 93.5037 151.773C94.0921 151.955 94.7086 152.039 95.3251 152.039C95.4372 150.736 94.8767 149.419 95.199 148.159C95.2971 147.78 95.4652 147.416 95.4512 147.038C95.4232 146.379 94.8767 145.875 94.6386 145.258C94.4424 144.726 94.5405 144.208 94.4985 143.661C94.0081 143.591 93.6998 143.661 93.5597 144.166C93.4056 144.712 93.4477 145.314 93.5317 145.889Z" fill="#C1272D"/>
<path d="M91.5984 145.735L88.1238 145.189C88.1238 145.189 85.5599 149.77 85.3778 150.68C85.1957 151.591 89.7771 153.608 91.2341 153.426C92.7052 153.244 91.052 148.299 91.5984 145.735Z" fill="#F1E6DC"/>
<path d="M90.7715 144.348C90.099 147.038 89.7908 149.812 89.7067 152.586C89.7067 152.782 90.015 152.782 90.015 152.586C90.1271 149.84 90.5194 147.136 91.0658 144.432C91.1078 144.236 90.8276 144.152 90.7715 144.348Z" fill="#DDCABA"/>
<path d="M77.0136 137.819C77.0136 137.819 86.8349 140.467 87.5354 140.229C88.2359 140.005 91.3042 138.099 92.1028 138.323C92.9014 138.548 94.4145 140.033 94.4145 140.033C94.4145 140.033 96.1938 140.537 96.2919 140.985C96.3759 141.434 95.3812 142.008 95.4653 142.456C95.5493 142.905 95.7875 143.605 95.087 143.843C94.3865 144.068 94.0502 143.773 93.6439 144.488C93.2796 145.118 92.7613 145.679 92.1028 146.001C91.7945 146.155 91.7665 146.491 91.5003 146.884C91.1361 147.416 79.7736 146.155 74.0294 144.544C68.2851 142.905 77.0136 137.819 77.0136 137.819Z" fill="#F4A07F"/>
<path d="M95.4651 139.935C95.409 140.005 95.353 140.089 95.2969 140.159C95.2689 140.201 95.2269 140.257 95.1989 140.299C95.1989 140.299 95.1849 140.299 95.1708 140.299C94.8766 140.243 91.9344 139.696 91.4161 139.696C91.276 139.696 91.4301 138.926 91.7523 137.763C92.691 134.331 95.0448 127.522 95.4511 127.242C95.9975 126.877 101.616 128.363 102.414 130.716C102.764 131.795 101.055 132.117 95.4651 139.935Z" fill="#F1E6DC"/>
<path d="M50.5618 118.093C50.5898 118.345 50.6178 118.584 50.6599 118.822C50.884 120.251 51.3043 121.652 51.6546 123.053C51.9488 124.201 52.201 125.35 52.5373 126.485C52.8875 127.648 53.2798 128.839 53.2518 130.072C53.2378 130.408 53.2098 130.758 53.2798 131.094C53.3499 131.417 53.532 131.711 53.7281 131.977C54.3026 132.79 55.0311 133.518 55.3393 134.443C55.5215 134.961 55.5495 135.535 55.6896 136.068C55.9278 137.007 56.4742 137.791 56.8945 138.632C57.3848 139.612 57.8892 140.607 58.4216 141.574C58.954 142.54 59.5985 143.843 60.6773 144.306C61.4198 144.628 62.0923 145.048 62.6948 145.595C63.2972 146.141 63.8016 146.87 64.5301 147.248C64.9785 147.486 65.4969 147.528 65.9872 147.696C66.7998 147.976 67.5284 148.537 68.2709 148.971C69.9802 149.966 71.7175 150.918 73.4828 151.801C74.6036 152.361 75.7525 152.992 76.9574 153.356C77.0694 153.384 77.4057 153.538 77.5038 153.426C82.0852 148.481 82.4494 139.15 82.4494 139.15C82.4494 139.15 68.1168 134.709 67.3182 134.317C67.052 134.191 66.4075 132.691 65.665 130.73C65.2867 129.721 64.8804 128.601 64.4741 127.466C63.3112 124.159 62.2324 120.769 62.1344 120.181C62.0223 119.564 61.7421 118.962 61.4899 118.401C61.0416 117.407 60.5372 116.426 59.9628 115.487C59.3183 114.423 58.6038 113.386 57.7912 112.447C57.3848 111.971 56.9505 111.509 56.4742 111.074C56.1519 110.766 55.4794 110.009 54.9751 110.178C54.7789 110.248 54.6248 110.402 54.4707 110.556C54.2185 110.808 53.9383 111.046 53.6861 111.298C52.8875 112.097 52.243 113.036 51.5986 113.96C51.3604 114.296 51.1362 114.633 50.9541 115.011C50.5478 115.922 50.4777 117.056 50.5618 118.093Z" fill="#313738"/>
<path d="M80.7682 139.514C80.7262 139.514 80.6982 139.514 80.6561 139.5C80.3619 139.416 68.1309 135.648 65.7351 134.261C65.5529 134.149 65.4829 133.91 65.595 133.714C65.7071 133.532 65.9452 133.462 66.1414 133.574C68.4531 134.919 80.8243 138.716 80.8943 138.744C81.1045 138.814 81.2166 139.024 81.1605 139.234C81.0905 139.402 80.9364 139.514 80.7682 139.514Z" fill="#1A1A1A"/>
<path d="M51.2483 115.431C54.6248 115.333 57.9032 116.314 60.6773 118.275C60.8874 118.415 60.6913 118.766 60.4811 118.612C57.7631 116.692 54.5548 115.726 51.2483 115.824C50.9961 115.824 50.9961 115.431 51.2483 115.431Z" fill="#232828"/>
<path d="M67.3182 134.905C67.1641 134.905 67.024 134.821 66.954 134.681C66.1414 132.916 63.6335 126.934 61.7561 120.489C61.7001 120.279 61.8122 120.055 62.0223 119.999C62.2325 119.943 62.4566 120.055 62.5127 120.265C64.7263 127.844 67.6405 134.275 67.6685 134.345C67.7526 134.541 67.6685 134.779 67.4724 134.863C67.4303 134.891 67.3743 134.905 67.3182 134.905Z" fill="#1A1A1A"/>
<path d="M66.0854 147.794C65.1047 147.584 64.236 147.332 63.5215 146.589C63.0171 146.057 62.6108 145.455 62.0224 145.006C61.3219 144.488 60.4532 144.25 59.8368 143.619C59.1362 142.905 58.7159 141.868 58.2536 140.999C57.3149 139.234 56.2361 137.497 55.6757 135.564C55.4655 134.821 55.2694 134.051 54.8911 133.378C54.4428 132.565 53.5741 131.977 53.42 131.024C53.364 130.688 52.7895 130.772 52.8316 131.108C52.9156 131.879 53.3219 132.397 53.7703 132.986C54.4848 133.91 54.737 134.947 55.0592 136.054C55.6757 138.085 56.8666 139.963 57.8613 141.826C58.3096 142.667 58.7159 143.591 59.4164 144.25C60.0469 144.852 60.8875 145.09 61.574 145.595C62.2886 146.127 62.7369 146.94 63.4374 147.514C64.152 148.088 65.0206 148.313 65.9033 148.509C66.3376 148.593 66.5337 147.892 66.0854 147.794Z" fill="white"/>
<path d="M80.9081 147.276C80.3617 148.341 79.9273 149.448 79.3249 150.498C78.7365 151.535 78.064 152.53 77.3214 153.468C75.6402 152.74 71.0588 150.456 69.4476 149.56C69.2655 149.462 69.1113 149.728 69.2935 149.826C70.9327 150.778 75.7382 153.636 77.4755 154.379C77.5456 154.407 77.6437 154.421 77.6997 154.351C78.4703 153.37 79.0727 152.278 79.6892 151.199C80.2916 150.148 80.838 148.537 81.2023 147.374C81.2583 147.234 80.9921 147.122 80.9081 147.276Z" fill="#1A1A1A"/>
<path d="M100.397 131.823C97.7769 134.149 95.1149 137.035 93.2515 140.061C93.3636 140.075 93.4897 140.103 93.6018 140.117C95.5913 137.161 98.5895 134.359 101.125 131.991C101.279 131.851 100.551 131.669 100.397 131.823Z" fill="#DDCABA"/>
<path d="M95.4931 139.949L95.2969 140.159L95.1708 140.299C94.8766 140.243 91.9344 139.697 91.4161 139.697C91.276 139.697 91.4301 138.926 91.7523 137.763C92.4108 137.847 95.1708 139.725 95.465 139.935C95.4931 139.935 95.4931 139.949 95.4931 139.949Z" fill="#ED1C24"/>
<path d="M101.013 130.058C100.159 128.937 98.7858 128.222 97.4127 127.956C97.3147 127.942 97.1746 127.998 97.1886 128.138C97.3147 129.357 98.9259 130.03 99.8786 130.492C100.089 130.59 100.271 130.282 100.061 130.184C99.6124 129.974 99.178 129.75 98.7577 129.483C98.3654 129.231 97.791 128.853 97.6089 128.377C98.4495 128.573 99.2341 128.937 99.9066 129.483C100.271 129.778 100.649 130.128 100.887 130.534C101.013 130.744 101.097 131.024 100.929 131.277C100.831 131.431 100.495 131.543 100.327 131.515C100.187 131.487 100.047 131.389 99.9206 131.319C99.066 130.856 98.4775 130.45 97.777 129.806C97.4268 129.483 97.1045 129.161 96.7823 128.811C96.6282 128.643 96.46 128.461 96.3059 128.292C96.2359 128.222 96.1518 128.138 96.0958 128.054C95.9837 127.998 95.9557 127.914 96.0257 127.802C96.0257 127.648 96.0958 127.606 96.2499 127.69C96.418 127.718 96.4881 127.466 96.3199 127.424C95.9837 127.34 95.4653 127.396 95.5774 127.872C95.6334 128.11 95.8996 128.335 96.0537 128.517C96.334 128.825 96.6142 129.133 96.8944 129.427C97.8471 130.394 98.9819 131.459 100.271 131.977C100.733 132.159 101.238 132.117 101.406 131.571C101.588 131.052 101.322 130.478 101.013 130.058Z" fill="#DDCABA"/>
<path d="M93.6157 139.879C92.6489 139.766 91.3319 139.458 90.3652 139.486C89.9309 139.5 89.9309 140.159 90.3652 140.159C91.3319 140.145 92.2987 140.187 93.2514 140.271C93.6997 140.299 94.036 139.921 93.6157 139.879Z" fill="#DC815C"/>
<path d="M103.255 59.2795C102.961 58.2988 102.54 57.3461 101.966 56.4915C101.602 55.9311 101.013 55.1325 100.271 55.1606C99.6401 55.1746 99.7942 55.749 100.397 55.819C100.831 55.8751 101.307 56.9538 101.489 57.2901C101.84 57.9345 102.022 58.8732 102.246 59.5597C102.456 60.1901 103.451 59.938 103.255 59.2795Z" fill="#DC815C"/>
<path d="M74.2952 125.504C73.7488 125.868 71.3671 123.669 67.6963 120.194C64.3058 116.972 56.8383 110.303 55.7455 109.323C55.8996 109.169 56.0397 109.029 56.1658 108.888C56.3339 108.706 56.488 108.552 56.6421 108.398C56.9784 108.034 57.2586 107.754 57.4968 107.515C57.6789 107.333 57.847 107.193 58.0151 107.067C58.2953 106.857 58.5615 106.745 58.8978 106.675C60.2008 106.423 70.7366 116.216 70.7366 116.216C71.9555 109.001 69.6858 104.167 69.6858 104.167C69.6998 103.999 70.0361 103.887 70.5124 103.775C70.7086 103.733 70.9327 103.691 71.1849 103.635C71.3811 103.607 71.5772 103.565 71.7734 103.523C72.0396 103.481 72.3057 103.425 72.5579 103.369C72.7261 103.327 72.8942 103.298 73.0483 103.256C73.0483 103.214 73.0623 103.186 73.0623 103.144C73.3986 103.649 74.6035 105.75 75.5982 111.032C76.733 117.238 74.8416 125.126 74.2952 125.504Z" fill="#1A1A1A"/>
<path d="M73.8608 123.263C73.8048 123.445 73.6506 123.515 73.5105 123.487C73.3985 123.655 73.1463 123.739 72.9501 123.571C67.416 118.611 61.952 113.582 56.1797 108.902C56.3478 108.72 56.502 108.566 56.6561 108.412C59.4581 110.457 62.0501 112.811 64.628 115.123C67.5141 117.715 70.4002 120.306 73.2864 122.898C74.099 119.326 74.3932 115.711 74.0009 112.055C73.6787 109.085 72.8941 106.269 71.7733 103.551C72.0394 103.509 72.3056 103.453 72.5578 103.396C75.1778 109.547 75.6681 116.888 73.8608 123.263Z" fill="#EFB44B"/>
<path d="M72.5299 120.152C72.4598 120.447 72.1376 120.447 71.9835 120.265C71.9415 120.251 71.8994 120.223 71.8574 120.18C67.304 115.669 62.4564 111.55 57.4968 107.502C57.6789 107.319 57.847 107.179 58.0152 107.053C62.9748 110.766 67.6123 114.969 72.0115 119.312C72.5299 116.272 72.656 113.204 72.1936 110.135C71.9555 108.58 71.7733 107.291 71.283 105.792C71.0588 105.134 70.7926 104.447 70.5124 103.761C70.7085 103.719 70.9327 103.677 71.1849 103.621C71.4371 104.251 71.6472 104.882 71.8434 105.498C72.3478 107.053 72.726 108.664 72.9502 110.289C73.3985 113.568 73.3285 116.958 72.5299 120.152Z" fill="#EFB44B"/>
<path d="M63.4375 91.3904C63.6196 90.6479 64.7405 90.2136 65.3149 90.76C65.5951 91.0262 65.1748 91.4465 64.8946 91.1803C64.6284 90.9281 64.068 91.2503 63.9979 91.5445C63.9279 91.9088 63.3534 91.7547 63.4375 91.3904Z" fill="#1A1A1A"/>
<path d="M68.355 90.2696C68.6352 89.5551 69.798 89.2749 70.3164 89.9053C70.5546 90.1995 70.0922 90.5638 69.8541 90.2696C69.6299 89.9894 69.0274 90.2275 68.9154 90.5077C68.7613 90.858 68.2149 90.6338 68.355 90.2696Z" fill="#1A1A1A"/>
<path d="M79.5492 257.954C79.8154 259.187 84.0746 259.089 89.0202 259.201C93.9659 259.313 105.496 258.921 105.721 257.912C105.777 257.66 105.875 257.408 105.931 257.17C103.885 257.576 101.672 257.576 99.6401 257.688C96.6699 257.842 93.7417 257.618 90.7995 257.184C87.8434 256.749 84.8732 256.469 81.917 256.063C81.1744 255.965 80.4319 255.825 79.7033 255.671C79.4932 256.497 79.4091 257.268 79.5492 257.954Z" fill="#E7ECEE"/>
<path d="M29.5042 242.726C29.9665 245.121 30.625 247.475 31.4516 249.745C31.8859 250.935 32.3623 252.098 32.9227 253.219C33.0348 253.457 33.1609 253.695 33.287 253.919C33.7773 254.802 34.3378 255.601 34.9822 256.413C36.0751 257.772 37.392 257.842 39.0453 257.828C40.1941 257.814 41.357 257.786 42.5198 257.73C43.3324 257.688 44.5934 257.912 44.7335 256.778C44.7475 256.651 44.7615 256.525 44.7615 256.413C44.075 256.413 43.3885 256.469 42.772 256.483C40.6144 256.525 37.9384 256.511 36.019 255.433C34.1136 254.368 33.1329 252.196 32.4324 250.361C31.5777 248.105 31.1434 245.738 30.9052 243.37C30.8071 242.473 30.4989 239.531 29.8544 236.939C29.4762 237.416 29.21 237.864 29.0979 238.242C28.7756 239.643 29.252 241.395 29.5042 242.726Z" fill="#E7ECEE"/>
<path d="M122.533 6.71428C122.253 6.44809 121.944 6.53215 121.636 6.71428C121.58 6.7423 121.524 6.78433 121.468 6.81235C121.44 6.75631 121.398 6.70027 121.342 6.67225C121.118 6.54616 120.922 6.63022 120.753 6.79834C120.739 6.81235 120.725 6.82636 120.697 6.85438C120.697 6.68626 120.683 6.51814 120.683 6.35002C120.669 6.0418 120.221 5.85967 120.067 6.1819C119.829 6.68626 119.703 7.20463 119.703 7.76502C119.675 7.79304 119.633 7.82106 119.619 7.86309C118.526 9.61434 117.475 11.1694 115.303 11.5617C113.608 11.8699 112.445 12.4303 111.871 14.1536C111.394 15.5545 111.465 17.2077 112.151 18.5247C112.978 20.1218 114.617 20.8223 116.214 21.3967C116.62 21.5368 116.774 20.9203 116.382 20.7662C114.715 20.1078 113.104 19.3512 112.515 17.5159C112.053 16.0589 112.221 13.7893 113.58 12.8226C114.253 12.3463 115.149 12.3463 115.92 12.1782C116.578 12.024 117.181 11.7719 117.727 11.3656C118.666 10.6651 119.352 9.68438 119.955 8.67567C119.983 8.67567 120.025 8.67567 120.067 8.67567C120.725 8.56359 121.384 8.4375 122.028 8.25537C122.435 8.14329 122.267 7.56889 121.874 7.62493C122.084 7.52686 122.281 7.41478 122.477 7.27468C122.631 7.14859 122.701 6.8824 122.533 6.71428Z" fill="#1A1A1A"/>
<path d="M129.874 30.5591C128.221 32.0301 126.218 31.4697 124.564 33.8514C122.911 36.2331 122.365 37.6901 121.272 37.6901C120.838 37.6901 120.277 37.3679 119.759 36.9756C118.988 36.4012 118.344 35.6727 118.344 35.6727C118.344 35.6727 110.106 45.1994 109.377 45.0173C108.649 44.8352 109.013 28.7238 109.377 27.617C109.741 26.5242 127.142 8.75962 127.871 9.48814C128.599 10.2167 127.324 21.3966 127.324 21.3966C127.324 21.3966 129.356 21.9009 130.491 22.7555C130.533 22.7836 130.589 22.8256 130.631 22.8676C131.71 23.7783 131.528 29.088 129.874 30.5591Z" fill="#313738"/>
<path d="M126.61 21.0043C122.883 18.9309 118.68 22.0411 116.606 25.0532C115.486 26.6644 114.743 28.5557 114.477 30.4891C114.379 31.2456 114.183 32.1983 114.687 32.8567C115.402 33.8094 116.592 34.566 117.489 35.3365C117.797 35.6027 118.246 35.1684 117.937 34.8882C117.195 34.2157 116.438 33.5432 115.696 32.8567C114.897 32.1282 115.093 31.1756 115.261 30.2089C115.542 28.5837 116.186 27.0146 117.083 25.6416C118.904 22.8677 122.827 19.7154 126.26 21.6208C126.652 21.859 127.016 21.2285 126.61 21.0043Z" fill="#1A1A1A"/>
<path d="M130.603 22.8677C130.561 22.8257 130.519 22.7977 130.463 22.7556C129.23 22.4754 128.109 23.274 127.282 24.1286C126.204 25.2494 125.349 26.5803 124.747 28.0094C124.088 29.5645 123.682 31.3297 122.547 32.6326C121.65 33.6694 120.053 34.2438 119.675 35.6868C119.563 36.1351 119.591 36.5834 119.745 36.9897C120.249 37.382 120.81 37.7042 121.258 37.7042C122.351 37.7042 122.911 36.2332 124.55 33.8655C126.204 31.4838 128.207 32.0302 129.86 30.5732C131.528 29.0881 131.71 23.7783 130.603 22.8677Z" fill="#1A1A1A"/>
</g>
</g>
<defs>
<clipPath id="clip0">
<rect y="-0.00012207" width="255" height="260" rx="25" fill="white"/>
</clipPath>
<clipPath id="clip1">
<rect width="197" height="254" fill="white" transform="translate(29 5.99988)"/>
</clipPath>
</defs>
</svg>
