<svg width="470" height="489" viewBox="0 0 470 489" fill="none" xmlns="http://www.w3.org/2000/svg">
<g clip-path="url(#clip0)">
<path d="M3.26772 80.1459C-4.47787 104.275 3.14669 130.343 9.25845 155.018C20.6348 200.85 21.0584 247.47 18.8194 294.515C17.3671 326.04 17.5487 357.929 24.4471 388.726C30.1957 414.31 40.7854 439.227 57.5474 459.476C73.8252 479.118 100.39 488.818 125.624 488.939C138.21 489 172.642 486.696 185.047 484.514C227.829 476.935 270.854 470.63 314.06 465.599C348.007 461.658 419.472 456.929 446.763 434.316C465.583 418.675 472.36 399.457 469.213 374.904C467.095 358.171 461.044 342.166 455.901 326.101C442.588 284.452 434.842 240.984 432.966 197.334C431.03 152.835 437.444 111.004 444.101 67.1115C446.098 53.8347 445.674 39.5878 439.623 27.6447C430.606 9.76042 410.335 3.51606 390.426 1.51544C361.199 -1.45518 302.32 0.484816 273.032 2.42481C230.673 5.21355 166.349 8.06292 124.172 12.6704C92.5841 16.126 63.7801 22.4916 36.4285 40.0122C21.5425 49.5909 8.83486 62.989 3.26772 80.1459Z" fill="#F7F1F6"/>
<path d="M382.862 403.822L82.781 411.825L83.3256 36.678L380.381 37.163L382.862 403.822Z" fill="#B34F93"/>
<path d="M349.399 54.1379H114.247V405.762H349.399V54.1379Z" fill="#CEE7EF"/>
<path d="M348.552 282.451C347.462 282.451 346.373 282.512 345.344 282.512C342.379 282.512 339.354 282.512 336.389 282.451C330.579 282.451 324.77 282.39 318.961 282.39C307.343 282.33 295.724 282.33 284.166 282.269C282.109 282.269 280.536 283.967 280.475 285.967C279.81 305.852 280.112 325.737 281.201 345.622C281.08 357.868 280.838 370.114 281.443 382.3C281.443 382.906 281.625 383.452 281.867 383.937C281.625 385.695 282.654 387.574 285.014 387.756C297.661 388.666 310.489 388.12 323.197 388.181C331.669 388.181 340.14 388.302 348.552 388.241V282.451Z" fill="#B4DBE5"/>
<path d="M317.388 279.238C317.085 271.054 316.722 246.319 316.42 238.134C316.42 228.495 316.42 218.795 316.117 209.156C316.057 208.246 315.754 207.579 315.27 207.094C314.846 206.064 313.878 205.276 312.426 205.154C306.314 204.669 300.081 205.094 293.969 205.094H283.561C278.539 204.851 273.577 204.669 268.554 204.548C261.595 204.366 254.636 204.366 247.677 204.427C245.015 204.427 241.868 204.063 239.448 205.518C239.206 205.579 239.024 205.579 238.782 205.639C237.148 206.003 236.483 207.701 236.785 209.156C236.422 210.671 236.483 212.369 236.543 213.945C236.664 215.885 236.785 217.764 236.906 219.704C236.422 254.503 236.604 289.241 236.604 324.04C236.604 334.71 236.483 345.44 236.725 356.11C236.846 360.233 242.957 360.233 243.079 356.11C243.442 342.348 243.321 328.587 243.26 314.825C243.563 325.677 243.865 336.528 244.107 347.32C244.168 349.26 245.62 350.472 247.435 350.654C254.757 351.382 262.079 352.17 269.401 352.897C272.367 353.2 276.421 354.352 279.325 353.382C280.354 353.018 281.201 352.352 281.746 351.563C283.138 351.503 284.409 350.533 284.227 348.714C282.17 324.646 281.262 317.007 281.685 292.879C286.284 292.697 290.944 292.575 295.543 292.394C301.655 292.394 307.827 292.454 313.939 291.969C315.27 291.848 316.117 291.12 316.48 290.211C318.78 287.604 317.569 282.33 317.388 279.238Z" fill="#B4DBE5"/>
<path d="M217.482 287.301C217.482 273.842 217.603 260.323 217.119 246.864C217.058 245.167 215.908 244.257 214.638 244.015C214.396 243.833 214.093 243.712 213.791 243.591C210.281 242.56 206.166 243.106 202.596 243.106C198.662 243.106 194.669 243.106 190.735 243.106C186.923 243.106 183.111 243.166 179.359 243.166C176.273 243.166 173.066 243.106 169.98 243.409C169.919 240.135 169.859 236.861 169.859 233.587C169.859 225.039 169.859 216.491 169.859 207.943C169.859 199.395 169.858 190.847 169.798 182.299C169.737 173.751 169.98 165.142 169.435 156.655C169.314 154.836 167.983 153.866 166.591 153.866C166.167 153.623 165.623 153.441 164.957 153.381C155.578 152.956 146.077 153.32 136.637 153.32C128.65 153.32 120.48 152.956 112.432 153.502V292.939C122.054 292.697 131.615 292.454 141.236 292.151C140.752 296.94 140.328 301.79 139.905 306.58C139.723 308.338 141.539 310.035 143.233 309.914L210.886 306.216C210.886 313.37 210.886 320.463 210.946 327.617C211.007 331.86 217.482 331.86 217.542 327.617C217.663 314.218 217.542 300.76 217.482 287.301Z" fill="#B4DBE5"/>
<path d="M305.648 214.551H293.183V223.16H305.648V214.551Z" fill="#CEE7EF"/>
<path d="M278.902 232.799H266.436V241.408H278.902V232.799Z" fill="#CEE7EF"/>
<path d="M298.024 242.378H285.558V250.987H298.024V242.378Z" fill="#CEE7EF"/>
<path d="M272.669 279.238H260.204V287.846H272.669V279.238Z" fill="#CEE7EF"/>
<path d="M305.648 298.577H291.791V308.156H305.648V298.577Z" fill="#CEE7EF"/>
<path d="M159.753 164.354H147.287V172.962H159.753V164.354Z" fill="#CEE7EF"/>
<path d="M202.354 254.927H189.888V263.536H202.354V254.927Z" fill="#CEE7EF"/>
<path d="M143.536 185.451H131.07V194.06H143.536V185.451Z" fill="#CEE7EF"/>
<path d="M342.319 290.09H328.462V299.669H342.319V290.09Z" fill="#CEE7EF"/>
<path d="M333.847 333.8H319.99V343.379H333.847V333.8Z" fill="#CEE7EF"/>
<path d="M357.386 49.1667C355.874 46.6811 108.257 47.1661 106.26 49.1667C104.263 51.1673 107.289 407.278 107.289 407.278L358.173 402.913C358.113 402.913 358.899 51.6523 357.386 49.1667ZM224.864 382.058C223.593 383.331 121.993 382.543 121.993 382.543L121.025 280.026C121.025 280.026 116.971 62.8679 119.512 60.9279C121.509 59.4123 224.864 59.8973 225.832 60.4429C227.829 61.4129 226.861 379.997 224.864 382.058ZM342.137 382.058C340.625 384.058 250.279 382.543 250.279 382.543L249.311 280.026C249.311 280.026 248.827 253.715 248.283 219.341C253.366 214.794 258.267 209.944 262.987 205.033C266.013 201.941 261.474 197.455 258.267 200.304C254.878 203.396 251.429 206.549 248.162 209.762C247.193 146.106 246.225 62.1404 247.859 60.9279C249.856 59.4123 342.198 59.8973 343.227 60.4429C345.163 61.4129 344.255 379.208 342.137 382.058Z" fill="white"/>
<path d="M235.393 253.23C235.393 210.065 235.393 166.961 235.393 123.796V50.8036C235.393 50.1367 234.425 50.1367 234.425 50.8036C234.425 93.9685 234.425 137.073 234.425 180.238C234.425 223.403 234.425 266.507 234.425 309.672C234.425 333.982 234.304 358.354 234.486 382.664C234.486 383.21 235.333 383.21 235.333 382.664C235.635 339.499 235.393 296.334 235.393 253.23Z" fill="#E5E5E5"/>
<path d="M247.375 219.704C246.286 220.492 245.257 221.341 244.228 222.129C243.563 222.614 242.836 223.342 241.929 223.342C241.142 223.342 240.295 222.917 239.69 222.372C237.451 220.31 238.358 216.855 241.021 215.703C241.445 215.521 241.142 214.794 240.718 214.975C237.632 216.127 236.422 219.947 238.54 222.554C239.508 223.766 241.263 224.736 242.776 224.19C243.744 223.887 244.531 223.099 245.317 222.493C246.165 221.826 247.072 221.159 247.919 220.432C248.343 220.129 247.798 219.401 247.375 219.704Z" fill="#E5E5E5"/>
<path d="M317.267 380.239C316.601 379.814 299.537 380.178 284.287 380.239C284.469 383.573 284.469 385.938 284.772 389.272C298.266 389.272 311.337 389.272 312.244 389.272C314.241 389.272 318.235 402.306 318.719 403.761C319.203 405.277 322.713 404.246 324.226 404.246C325.799 404.246 318.78 381.209 317.267 380.239Z" fill="#464C7B"/>
<path d="M260.385 382.724C260.385 382.724 262.382 372.236 264.863 372.236C267.344 372.236 289.855 371.751 290.823 372.721C291.791 373.752 293.848 383.209 293.304 383.209C292.82 383.209 290.823 383.209 290.823 383.209C290.823 383.209 289.31 376.177 288.342 375.692C287.374 375.207 266.376 374.176 265.892 375.207C265.408 376.238 263.895 383.209 263.895 383.209L260.385 382.724Z" fill="#464C7B"/>
<path d="M297.298 365.204C297.298 365.204 310.308 353.685 308.795 352.715C307.282 351.684 304.317 351.684 303.288 352.715C302.26 353.685 294.817 365.204 294.817 365.204H297.298Z" fill="#6C4E4E"/>
<path d="M299.779 382.724C309.703 376.723 311.155 359.263 310.61 358.778C310.066 358.232 264.621 359.323 264.621 359.323C265.71 374.601 272.427 380.481 276.965 382.724H299.779Z" fill="#EFB44B"/>
<path d="M279.87 375.328C277.328 371.569 275.574 367.75 274.847 363.203C274.545 361.324 271.64 362.112 271.943 363.991C272.73 368.781 274.545 373.267 277.51 377.147C278.599 378.481 280.838 376.723 279.87 375.328Z" fill="white"/>
<path d="M317.932 379.451C323.079 379.451 327.251 375.596 327.251 370.842C327.251 366.087 323.079 362.233 317.932 362.233C312.786 362.233 308.613 366.087 308.613 370.842C308.613 375.596 312.786 379.451 317.932 379.451Z" fill="#FF8E55"/>
<path d="M315.028 364.901C314.846 364.537 314.302 364.416 313.939 364.598C313.696 364.719 313.515 364.901 313.273 365.022C312.91 365.264 312.789 365.689 312.97 366.113C313.152 366.477 313.696 366.598 314.06 366.416C314.302 366.295 314.483 366.113 314.725 365.992C315.088 365.749 315.209 365.264 315.028 364.901Z" fill="#BE5A33"/>
<path d="M343.394 373.259C345.29 368.719 342.629 363.278 337.45 361.106C332.27 358.934 326.534 360.854 324.637 365.395C322.74 369.935 325.402 375.376 330.581 377.548C335.76 379.72 341.497 377.8 343.394 373.259Z" fill="#FF8E55"/>
<path d="M338.506 363.87C338.204 364.173 338.143 364.719 338.446 365.082C338.627 365.264 338.809 365.507 338.991 365.689C339.293 366.053 339.777 366.113 340.14 365.81C340.443 365.507 340.503 364.961 340.201 364.597C340.019 364.416 339.838 364.173 339.656 363.991C339.354 363.627 338.809 363.567 338.506 363.87Z" fill="#D65945"/>
<path d="M307.161 376.965H346.857C346.857 376.965 344.921 380.118 344.497 380.118C344.074 380.118 310.671 380.784 309.703 380.239C308.734 379.754 307.161 376.965 307.161 376.965Z" fill="white"/>
<path d="M299.294 405.216C299.294 405.216 302.804 381.694 303.772 380.724C304.801 379.693 372.151 379.208 373.664 380.239C375.177 381.269 382.136 404.246 380.684 404.246C379.171 404.246 375.661 405.277 375.177 403.761C374.693 402.246 371.183 390.242 369.186 390.242C367.189 390.242 312.244 388.241 310.247 390.242C308.25 392.243 305.951 404.792 304.862 405.034C303.833 405.216 299.294 405.216 299.294 405.216Z" fill="#5F7AB3"/>
<path d="M325.254 382.724C325.254 382.724 327.251 372.236 329.732 372.236C332.213 372.236 354.724 371.751 355.692 372.721C356.721 373.752 358.718 383.209 358.173 383.209C357.689 383.209 355.692 383.209 355.692 383.209C355.692 383.209 354.179 376.177 353.211 375.692C352.182 375.207 331.245 374.176 330.761 375.207C330.277 376.238 328.764 383.209 328.764 383.209L325.254 382.724Z" fill="#5F7AB3"/>
<path d="M328.704 379.693C310.55 379.814 247.919 380.178 247.375 380.724C246.346 381.754 242.897 405.216 242.897 405.216C242.897 405.216 247.375 405.216 248.464 404.974C249.553 404.731 251.853 392.182 253.85 390.181C254.939 389.09 319.082 388.908 334.21 389.151C333.968 385.938 328.946 382.967 328.704 379.693Z" fill="#5F7AB3"/>
<path d="M397.143 402.791V425.829H70.7995V403.822L126.108 403.64H130.283L339.959 402.973L358.113 402.912L397.143 402.791Z" fill="#6C4E4E"/>
<path d="M464.372 42.7403C463.041 33.8284 460.56 24.9166 456.324 16.9141C454.63 13.7616 449.063 16.0047 450.455 19.3997C456.506 34.1316 458.745 49.409 458.261 65.2927C457.777 81.8433 454.509 98.1514 451.725 114.459C450.092 124.099 448.639 133.799 447.853 143.559C447.489 148.288 454.811 148.288 455.235 143.559C458.2 109.852 469.335 76.8114 464.372 42.7403Z" fill="#F7F1F6"/>
<path d="M449.91 159.14C447.913 159.14 446.703 160.716 446.521 162.535C446.34 164.475 446.158 166.415 446.037 168.295C445.916 169.931 447.368 171.326 448.881 171.508C450.334 171.689 452.27 170.78 452.512 169.143C452.815 166.9 453.117 164.718 453.299 162.475C453.48 160.716 451.604 159.14 449.91 159.14Z" fill="#F7F1F6"/>
<path d="M36.852 452.746C24.3865 436.256 15.9147 416.917 13.2522 396.304C13.0101 394.364 11.7999 392.728 9.68195 392.728C7.92709 392.728 5.86967 394.425 6.11172 396.304C8.77426 418.493 17.246 439.591 31.1033 457.232C33.6449 460.506 39.3936 456.141 36.852 452.746Z" fill="#F7F1F6"/>
<path d="M194.729 252.441C194.729 252.441 197.331 246.136 193.156 241.408C188.98 236.679 177.907 232.981 177.907 232.981C177.907 232.981 182.082 222.978 175.305 213.52C168.467 204.063 156.364 211.944 156.364 211.944L161.084 240.377L181.598 255.655L194.729 252.441Z" fill="#621406"/>
<path d="M125.382 203.578C125.442 203.457 125.563 203.396 125.624 203.335C128.105 198.546 130.404 195.394 131.191 194.302C132.885 191.999 134.64 170.174 142.083 167.324C149.526 164.475 150.676 171.326 152.431 173.084C154.125 174.781 161.629 166.779 172.521 176.539C183.413 186.3 173.489 196.182 173.489 196.182L157.03 214.49L159.874 239.225L120.843 253.594C120.843 253.594 115.095 242.075 117.999 225.464C118.544 222.372 119.27 219.462 120.117 216.734C115.7 225.888 113.158 235.77 114.187 246.319C114.308 247.713 112.251 247.652 112.069 246.319C110.012 230.799 116.789 215.945 125.382 203.578Z" fill="#621406"/>
<path d="M132.946 182.238L130.646 192.605C130.646 192.605 126.047 198.364 124.353 202.972C124.353 202.972 112.311 205.821 117.455 189.755C121.993 175.509 129.497 176.539 132.946 182.238Z" fill="#621406"/>
<path d="M132.28 281.845C133.067 282.208 133.914 282.572 134.701 282.875C144.564 287.058 154.004 290.029 155.819 289.302C159.995 287.725 170.524 245.591 169.495 241.408C168.467 237.225 167.377 232.435 167.377 232.435L142.688 215.036C142.809 215.4 147.408 229.829 145.29 234.497C143.172 239.225 138.997 241.347 135.306 241.347C131.615 241.347 120.057 242.378 115.881 250.805C111.706 259.232 111.161 262.384 109.588 266.628C108.196 270.447 120.238 276.51 132.28 281.845Z" fill="#E7926B"/>
<path d="M134.096 204.669C135.548 203.578 137.484 204.184 138.937 204.912C139.723 205.276 140.449 205.761 141.115 206.306C141.599 206.67 142.144 208.125 142.93 207.519C143.293 207.216 143.414 206.67 143.414 206.185C143.535 205.033 143.596 203.942 143.475 202.79C143.414 202.002 143.293 201.214 143.354 200.426C143.475 199.213 144.201 198.122 144.383 196.97C144.504 196.121 144.443 195.212 144.685 194.363C145.109 192.848 146.622 191.938 148.013 191.332C149.466 190.726 151.039 190.423 152.31 189.513C154.791 187.755 155.577 184.784 158.845 183.936C162.355 183.026 166.47 185.33 168.588 188.058C176.212 198.061 184.986 212.49 179.419 223.766C174.881 230.617 166.167 229.283 166.288 229.283L167.256 232.496C167.256 232.496 164.412 235.224 156.969 234.072C147.227 231.769 145.532 224.312 145.532 224.312C144.806 221.766 143.838 219.098 142.809 216.249C142.809 216.249 136.032 219.704 133.127 212.732C132.462 210.792 131.372 206.731 134.096 204.669Z" fill="#E7926B"/>
<path d="M172.097 206.306C171.916 205.821 171.311 205.518 170.766 205.7C170.282 205.882 169.737 206.124 169.253 206.306C168.769 206.488 168.467 207.094 168.648 207.64C168.83 208.125 169.435 208.428 169.979 208.246C170.464 208.064 171.008 207.822 171.492 207.64C171.976 207.458 172.279 206.852 172.097 206.306Z" fill="#D25C48"/>
<path d="M152.552 196.909C153.641 195.939 153.399 196.243 154.367 195.212C155.396 194.181 156.304 193.029 157.272 191.999C158.179 191.029 156.727 189.574 155.88 190.544C154.912 191.574 154.004 192.787 152.975 193.757C151.947 194.788 152.189 194.484 151.16 195.454C150.192 196.303 151.584 197.819 152.552 196.909Z" fill="#621406"/>
<path d="M173.187 193.332C173.429 193.514 173.61 193.817 173.55 194.181C173.489 194.666 173.066 195.03 172.581 194.969C171.976 194.909 171.371 194.787 170.827 194.606C170.161 194.302 169.435 193.939 168.769 193.575C168.467 193.454 168.225 193.272 167.982 193.09C167.74 192.908 167.559 192.605 167.498 192.302C167.377 190.968 169.072 191.999 169.616 192.241C170.585 192.666 171.613 193.029 172.702 193.151C172.945 193.151 173.066 193.211 173.187 193.332Z" fill="#621406"/>
<path d="M155.093 203.457C154.367 203.881 153.278 203.396 153.338 202.547C153.399 201.577 154.67 200.547 155.517 200.183C156.727 199.637 158.179 199.577 158.845 199.88C159.995 200.426 160.176 201.759 159.45 201.759C156.425 201.941 155.638 203.154 155.093 203.457Z" fill="#1A1A1A"/>
<path d="M176.031 200.183C176.515 199.031 174.82 198.122 174.034 197.879C173.126 197.576 172.218 197.516 171.371 197.879C171.129 197.94 170.948 198.122 170.826 198.304C170.645 198.789 170.705 199.274 171.069 199.698C171.734 200.547 172.521 199.819 173.368 199.819C174.881 199.819 175.788 200.789 176.031 200.183Z" fill="#1A1A1A"/>
<path d="M152.854 225.1C156.243 229.768 160.6 232.072 167.317 232.375L166.349 229.162H166.288C161.326 228.798 156.183 226.676 152.854 225.1Z" fill="#1A1A1A"/>
<path d="M131.736 280.208C132.522 280.572 133.369 280.935 134.156 281.238C135.608 277.722 137.061 274.024 138.997 270.872C139.905 269.356 137.787 268.568 136.879 270.083C135.003 273.236 133.067 276.752 131.736 280.208Z" fill="#DE835C"/>
<path d="M172.218 214.915C169.374 215.642 166.591 215.642 163.686 215.582C162.355 215.582 163.807 216.734 164.957 216.976C168.104 217.643 170.1 218.007 173.126 217.158C174.639 216.734 173.731 214.491 172.218 214.915Z" fill="#D25C48"/>
<path d="M167.922 234.557C167.922 234.557 169.495 244.015 167.377 250.38C165.259 256.685 152.673 280.935 148.437 281.42C144.262 281.966 124.777 272.993 118.483 269.295C112.19 265.597 111.101 263.475 109.528 264.021C107.954 264.566 107.41 272.448 105.352 275.055C103.234 277.661 91.6763 288.756 91.1317 292.454C90.5871 296.152 93.2497 305.064 89.5584 308.762C85.8671 312.46 80.1185 316.158 81.1472 319.311C82.1759 322.463 84.1728 325.009 83.4466 329.011C82.7205 333.012 87.0169 331.739 91.1317 334.042C93.4917 335.376 96.0937 336.286 98.5748 337.256C109.709 341.621 117.152 355.322 128.891 357.868C135.608 359.323 146.44 350.472 153.278 350.836C156.304 351.017 159.39 351.381 162.113 349.866C163.747 349.017 165.441 348.471 167.014 347.441C168.709 346.349 170.221 345.016 171.674 343.621C173.671 341.681 175.728 339.196 175.244 336.467C175.002 334.952 173.973 333.679 173.489 332.224C172.4 329.132 173.671 324.646 176.091 322.524C177.18 321.554 177.786 320.463 178.391 319.189C179.964 316.158 181.235 313.006 182.566 309.853C186.318 300.638 189.767 291.363 193.156 282.026C195.032 276.873 196.847 271.72 198.662 266.567L167.922 234.557Z" fill="#6C4E4E"/>
<path d="M167.68 232.193C167.68 232.193 168.406 237.043 168.467 242.438C168.527 245.652 167.438 248.622 168.225 252.199C170.343 261.657 180.327 265.355 181.9 265.355C183.474 265.355 187.165 244.318 187.165 244.318L167.68 232.193Z" fill="#621406"/>
<path d="M109.346 280.753C112.432 282.572 115.397 284.694 118.241 286.937C119.694 288.089 121.025 289.362 122.598 290.332C124.232 291.363 126.047 291.666 127.863 292.333C129.799 293 131.433 294.03 132.764 295.425C131.796 291.848 129.92 288.513 126.834 286.27C124.292 284.391 121.146 283.3 118.907 281.057C116.849 279.238 115.216 276.995 114.247 274.327C114.066 273.782 114.913 273.418 115.155 273.964C116.184 276.389 117.576 278.571 119.573 280.329C121.811 282.33 124.474 283.3 127.137 284.633C131.917 287.058 133.551 293.424 134.943 298.153C134.943 298.213 134.943 298.274 134.943 298.335C135.85 299.972 136.395 301.79 136.577 303.73C136.698 304.943 134.822 304.882 134.701 303.73C134.338 300.578 132.643 297.668 130.041 295.788C127.863 294.273 125.321 294.03 122.901 293C120.359 291.848 118.302 289.665 116.123 288.028C113.582 286.088 110.617 282.693 107.954 280.935C106.925 280.208 108.196 280.087 109.346 280.753Z" fill="#4A3333"/>
<path d="M94.0968 292.272C96.2148 293.545 98.2117 295 100.632 295.546C102.992 296.091 106.139 295.97 108.499 296.698C109.043 296.88 108.136 297.243 107.591 297.122C105.05 296.516 102.448 297.122 99.9665 296.455C97.6671 295.849 95.5491 294.515 93.6127 293.121C93.1286 292.757 93.5522 291.908 94.0968 292.272Z" fill="#4A3333"/>
<path d="M202.111 304.094C202.111 304.094 205.258 309.914 202.656 322.524C200.054 335.134 187.952 335.679 181.114 335.134C174.276 334.588 164.291 328.829 164.836 322.524C165.38 316.219 170.645 304.639 171.129 298.819C171.674 292.999 192.127 286.209 196.907 290.393C201.567 294.576 202.111 304.094 202.111 304.094Z" fill="#6C4E4E"/>
<path d="M168.164 314.461C169.193 311.005 168.709 307.307 170.221 303.973C170.705 302.881 172.218 303.851 171.795 304.882C170.645 307.55 171.129 310.52 170.584 313.248C169.979 316.098 168.588 318.704 168.224 321.614C167.377 328.708 174.518 331.799 179.964 333.558C181.174 333.921 180.63 335.194 179.419 334.952C173.731 333.8 167.075 330.587 166.107 324.221C165.683 320.766 167.196 317.613 168.164 314.461Z" fill="#4A3333"/>
<path d="M212.096 245.106L208.405 245.652L205.803 247.228L198.965 251.411C198.965 251.411 184.744 290.878 183.171 295.121C181.598 299.305 178.996 305.125 178.996 306.155C178.996 307.186 180.024 311.975 180.024 317.189C180.024 322.403 178.451 332.466 183.716 333.497C188.98 334.528 196.302 329.799 200.538 318.765C204.714 307.731 207.134 272.69 208.163 265.84C209.191 258.989 214.456 246.379 214.456 246.379L212.096 245.106Z" fill="#DE835C"/>
<path d="M211.43 248.137C211.43 248.137 209.918 246.197 207.86 246.197C205.742 246.197 200.478 248.804 200.478 247.774C200.478 246.743 201.022 241.954 200.478 241.954C199.933 241.954 174.215 241.408 174.215 242.499C173.973 248.562 178.149 280.147 179.238 281.723C180.267 283.3 194.487 282.754 195.032 281.178C195.576 279.602 197.634 269.053 198.178 268.022C198.723 266.992 205.561 261.717 205.561 261.172C205.561 260.626 204.532 259.595 204.532 259.595C204.532 259.595 198.481 264.263 198.481 263.536C198.481 262.99 200.054 254.564 200.054 253.533C200.054 252.502 206.65 246.925 210.281 249.047C213.911 251.169 211.43 248.137 211.43 248.137Z" fill="white"/>
<path d="M193.942 246.016C193.942 244.197 196.786 244.257 196.786 246.076C196.786 249.835 196.665 253.594 196.181 257.352C195.939 259.111 193.156 259.171 193.337 257.292C193.579 253.533 193.882 249.835 193.942 246.016Z" fill="white"/>
<path d="M194.124 260.747C194.789 260.808 195.516 261.353 195.455 262.142C195.455 262.384 195.395 262.566 195.395 262.808C195.334 263.475 194.79 264.142 194.063 264.082C193.277 264.021 192.793 263.475 192.793 262.748C192.793 262.505 192.793 262.323 192.732 262.081C192.672 261.353 193.398 260.687 194.124 260.747Z" fill="white"/>
<path d="M201.022 258.201C201.325 257.776 201.809 257.473 202.233 257.231C202.354 257.17 202.535 257.11 202.596 256.928C202.656 256.806 202.656 256.564 202.656 256.443C202.535 255.412 203.019 254.381 203.866 253.836C203.14 252.926 202.233 251.653 202.596 250.502C202.838 249.653 203.806 249.046 204.593 248.804C206.65 248.137 208.163 248.561 209.857 248.501C209.615 248.016 209.071 246.379 209.071 245.773C209.071 245.167 209.373 244.621 209.918 244.439C210.16 244.378 210.462 244.378 210.765 244.439C213.367 244.863 216.029 245.227 218.631 245.652C218.934 245.712 219.297 245.773 219.6 245.955C220.023 246.258 220.144 246.864 220.205 247.41C220.568 249.532 220.87 251.653 221.233 253.775C221.355 254.381 221.536 254.988 221.536 255.594C221.536 256.079 221.476 256.564 221.173 256.928C220.87 257.291 220.326 257.473 219.963 257.837C219.539 258.201 219.358 258.686 219.237 259.231C219.055 260.323 219.418 261.596 218.268 262.263C217.784 262.505 217.179 262.505 216.695 262.748C215.666 263.293 215.787 264.93 214.819 265.658C213.972 266.325 212.58 265.9 211.673 266.567C211.37 266.81 211.188 267.113 210.946 267.416C210.099 268.507 208.526 269.113 207.255 268.568C206.711 268.325 206.287 267.961 205.863 267.537C204.351 266.082 202.959 264.445 201.809 262.687C201.325 262.02 200.901 261.293 200.72 260.444C200.478 259.777 200.538 258.868 201.022 258.201Z" fill="#E7926B"/>
<path d="M210.039 248.258C210.402 249.653 211.431 250.441 212.399 251.411C213.609 252.563 214.698 253.775 215.727 255.109C216.029 255.473 216.756 255.351 216.695 254.806C216.514 253.351 216.029 252.017 215.606 250.623C215.606 250.501 215.545 250.441 215.485 250.38C215.424 250.32 215.364 250.32 215.243 250.259C213.669 249.895 212.278 249.41 210.886 248.743C210.583 248.561 210.281 248.38 210.039 248.258Z" fill="#DE835C"/>
<path d="M206.892 248.865C205.803 248.925 204.653 248.38 204.048 247.47C203.624 246.803 203.443 246.015 203.443 245.227C203.443 244.803 203.503 244.378 203.745 244.015C204.048 243.59 204.593 243.348 205.077 243.166C205.863 242.923 206.711 242.863 207.497 243.105C210.644 243.954 210.039 248.622 206.892 248.865Z" fill="#E7926B"/>
<path d="M165.623 345.258C165.623 345.258 140.086 346.956 126.047 355.625C112.009 364.295 135.427 376.601 135.427 376.601L165.623 345.258Z" fill="#353A3D"/>
<path d="M130.828 355.261L176.515 390.606L180.448 393.637L190.13 391.454C190.13 391.454 193.579 389.818 199.025 387.029C218.329 377.086 262.382 352.533 260.264 336.892C257.541 316.886 234.909 314.218 221.415 321.251C207.921 328.283 170.161 343.379 159.39 346.653C148.619 349.805 130.828 355.261 130.828 355.261Z" fill="#353A3D"/>
<path d="M185.168 367.932C186.741 365.689 188.859 363.809 190.675 361.809C192.672 359.566 194.608 357.262 196.544 354.958C199.57 351.321 202.535 347.623 205.621 344.046C206.711 340.105 209.192 336.225 211.491 332.951C214.033 329.375 217.058 326.283 220.689 323.918C221.718 323.251 222.746 324.828 221.718 325.555C218.087 327.98 215.122 331.133 212.701 334.71C211.915 335.861 211.249 337.074 210.583 338.347C217.3 331.072 224.683 324.343 233.639 319.917C234.728 319.372 235.757 320.948 234.667 321.554C224.804 326.828 216.695 334.588 209.373 343.015C205.561 347.441 201.87 351.988 198.178 356.474C194.669 360.718 190.977 365.931 186.499 369.205C185.713 369.629 184.624 368.72 185.168 367.932Z" fill="#1A1A1A"/>
<path d="M154.972 348.593C159.148 347.016 163.323 345.38 167.438 343.621C168.588 343.136 169.253 344.955 168.104 345.501C164.049 347.38 159.874 349.138 155.699 350.593C154.428 350.957 153.762 349.017 154.972 348.593Z" fill="#1A1A1A"/>
<path d="M168.588 382.239L176.515 390.545L180.448 393.576L190.13 391.394C190.13 391.394 193.579 389.757 199.025 386.968C199.691 385.271 200.78 380.663 196.121 376.783C190.191 371.933 182.627 370.842 182.627 370.842L168.588 382.239Z" fill="#F29E7E"/>
<g clip-path="url(#clip1)">
<path d="M138.692 210.324C137.716 213.952 137.661 217.688 138.366 221.369C139.125 225.16 140.373 228.895 141.782 232.469C144.656 239.562 148.777 245.897 153.549 251.798C158.266 257.646 163.417 263.168 167.701 269.395C171.659 275.188 174.967 281.74 175.672 288.778C176.377 295.817 174.587 303.289 169.436 308.378C168.731 309.028 169.816 310.111 170.466 309.407C175.075 304.913 177.19 298.578 177.299 292.244C177.407 285.259 174.967 278.545 171.497 272.589C167.701 266.092 162.767 260.461 157.941 254.722C152.952 248.82 148.235 242.702 144.873 235.663C142.975 231.711 141.457 227.542 140.373 223.264C139.288 219.041 138.963 214.872 140.156 210.649C140.373 209.783 138.909 209.404 138.692 210.324Z" fill="white"/>
</g>
<g clip-path="url(#clip2)">
<path d="M175.943 220.395C178.003 227.65 178.437 235.284 177.136 242.702C176.485 246.438 175.346 250.011 174.045 253.531C172.798 256.942 171.442 260.407 170.846 263.981C170.141 267.879 170.304 271.94 171.93 275.621C172.31 276.488 173.611 275.73 173.232 274.863C170.141 268.041 173.069 260.461 175.509 253.91C176.81 250.39 177.949 246.871 178.6 243.189C179.251 239.562 179.522 235.88 179.359 232.198C179.196 228.083 178.546 223.968 177.407 219.962C177.136 219.041 175.672 219.42 175.943 220.395Z" fill="white"/>
</g>
<path d="M138.994 208.364L137.957 208.51C136.876 208.662 136.124 209.662 136.276 210.743C136.429 211.823 137.429 212.576 138.51 212.424L139.547 212.278C140.628 212.126 141.38 211.126 141.227 210.046C141.075 208.965 140.075 208.212 138.994 208.364Z" fill="white"/>
<path d="M130.949 303.549C130.949 303.549 129.254 297.486 121.388 296.092C113.521 294.697 109.951 296.516 105.957 296.274C101.963 296.031 95.307 300.214 93.6731 303.609C91.9788 307.004 83.265 321.978 85.0804 326.04C86.8352 330.102 100.632 332.83 116.607 331.678C132.583 330.466 130.949 303.549 130.949 303.549Z" fill="#6C4E4E"/>
<path d="M165.986 289.423C165.986 289.423 172.521 277.844 172.642 276.328C172.702 274.812 180.206 264.264 181.719 264.324C183.232 264.385 183.595 266.931 181.961 269.295C180.327 271.72 179.661 275.176 179.661 275.176C179.661 275.176 191.34 269.78 192.793 270.872C194.245 271.963 192.853 273.721 190.614 274.752C188.557 275.661 186.015 276.995 184.442 278.389C183.716 279.056 182.869 279.723 182.142 280.45C181.84 280.754 180.085 282.512 181.416 282.512C181.961 282.512 182.566 282.209 183.111 282.027C183.716 281.845 184.381 281.663 184.986 281.481C186.076 281.178 187.165 280.814 188.315 280.632C190.251 280.329 196.786 279.602 196.242 281.542C195.758 283.057 194.184 283.421 191.159 284.27C188.133 285.119 185.592 285.967 186.076 286.513C186.56 287.059 195.032 285.967 194.971 287.968C194.91 288.938 193.882 289.908 189.222 290.817C186.257 291.424 183.837 291.605 183.292 292.333C182.203 293.788 176.938 300.457 174.336 301.851C171.795 303.185 170.827 302.639 169.798 303.609C168.769 304.579 128.347 327.374 115.821 329.678C113.158 330.163 110.556 330.708 107.833 330.466C107.046 330.405 106.199 330.284 105.473 329.86C102.266 327.92 105.171 324.04 106.562 322.039C108.317 319.493 110.435 317.189 112.553 315.007C113.763 313.733 115.034 312.521 116.305 311.308C126.773 301.427 130.707 301.608 131.735 301.184C132.583 300.639 155.819 293.364 165.986 289.423Z" fill="#E7926B"/>
<path d="M176.091 276.873C176.938 275.843 178.027 274.994 179.177 274.388C180.145 273.842 181.114 274.691 180.145 275.237C179.177 275.782 178.27 277.237 177.483 278.025C176.757 278.753 175.486 277.662 176.091 276.873Z" fill="#DE835C"/>
<path d="M89.2557 309.914C90.0424 306.034 93.3706 303.124 96.1541 300.396C98.6957 297.91 101.661 295.91 105.352 296.031C106.804 296.092 108.136 296.395 109.588 296.213C110.738 296.092 111.887 295.607 113.037 295.364C114.671 295 116.305 294.819 117.939 294.94C121.751 295.122 125.503 296.395 128.528 298.82C129.315 299.426 128.528 300.699 127.681 300.153C124.655 298.274 121.448 297.062 117.878 296.94C114.489 296.819 111.343 298.395 108.015 298.274C105.836 298.213 103.96 297.789 101.842 298.699C100.208 299.426 98.8167 300.638 97.5459 301.912C95.0044 304.397 91.0711 308.459 89.9214 311.854C89.3768 313.006 88.7716 312.278 89.2557 309.914Z" fill="#4A3333"/>
<path d="M116.002 333.497C120.117 333.376 123.445 331.194 125.684 327.738C125.987 327.253 126.834 327.738 126.592 328.223C124.595 332.042 120.541 335.922 116.305 336.104C115.518 336.165 115.276 333.558 116.002 333.497Z" fill="#4A3333"/>
<path d="M68.4999 336.832C68.621 339.56 69.0446 342.652 69.8312 346.047C74.1276 364.416 102.205 403.337 118.907 406.004C130.102 407.823 133.793 406.732 139.118 406.247C141.72 406.004 144.685 406.004 149.102 406.489L165.743 382.846L163.686 375.146C163.686 375.146 143.172 359.505 129.678 345.986C116.184 332.467 98.3931 311.915 84.8988 315.734C82.5993 316.401 80.5419 317.128 78.7265 318.038C72.6148 321.069 69.0446 325.858 68.4999 333.376C68.4999 334.528 68.4999 335.619 68.4999 336.832Z" fill="#353A3D"/>
<path d="M68.4999 336.832C68.621 339.56 69.0446 342.652 69.8312 346.047C74.1276 364.416 102.205 403.337 118.907 406.005C130.102 407.823 133.793 406.732 139.118 406.247C145.351 403.761 153.399 400.609 148.739 391.697C148.195 390.606 147.892 390.909 146.864 390.303C130.525 380.481 121.146 376.298 108.136 369.751C102.084 366.72 93.0075 362.173 87.6219 358.05C82.3573 354.049 70.0733 346.107 68.4999 336.832Z" fill="#272A2B"/>
<path d="M173.731 425.829H69.6497V402.791L90.5265 402.913L108.68 402.973L141.659 403.095L173.852 403.216H181.961C182.203 410.794 173.065 418.251 173.731 425.829Z" fill="#6C4E4E"/>
<path d="M173.913 403.216C172.944 404.913 165.38 418.493 159.813 425.829H142.628C142.204 420.251 141.841 408.066 141.72 403.094L173.913 403.216Z" fill="#332323"/>
<path d="M133.188 348.956C136.939 352.412 146.319 360.96 150.252 364.234C154.186 367.508 158.3 370.478 162.234 373.691C162.657 374.055 162.113 374.722 161.629 374.419C157.453 371.63 153.52 368.296 149.708 365.083C145.714 361.748 136.274 353.2 132.462 349.684C131.917 349.26 132.643 348.471 133.188 348.956Z" fill="#1A1A1A"/>
<path d="M163.262 406.914C162.96 406.974 162.657 407.096 162.415 407.278C162.173 407.52 162.052 407.884 161.871 408.126C161.326 409.096 160.116 409.399 159.026 409.581C157.937 409.703 156.727 409.824 155.88 410.551C154.912 411.4 154.609 412.976 153.459 413.401C152.975 413.583 152.37 413.522 151.886 413.704C150.918 414.068 150.313 415.159 149.344 415.583C148.497 415.947 147.529 415.644 146.621 415.826C145.956 415.947 145.351 416.371 144.685 416.493C144.201 416.614 143.656 416.553 143.172 416.493C142.325 416.371 141.478 416.311 140.691 416.189C140.207 416.129 139.663 416.068 139.239 415.826C137.847 415.159 137.363 413.401 137.605 411.885C137.847 410.369 138.634 408.975 139.118 407.52C140.147 404.489 139.784 401.215 139.844 398.063C139.905 396.608 140.026 395.213 140.51 393.879C140.994 392.546 141.901 391.273 143.112 390.606C143.475 390.424 143.898 390.242 144.322 390.242C144.746 390.242 145.714 389.939 146.077 390.121C152.249 392.182 157.816 394.607 163.989 396.608C165.259 397.032 166.53 397.456 167.801 398.002C169.314 398.669 170.766 399.578 172.218 400.488C172.642 400.73 174.094 401.458 174.094 401.943C174.155 402.549 172.884 403.034 172.46 403.216C169.616 404.792 166.47 406.004 163.262 406.914Z" fill="#EA9378"/>
<path d="M151.341 402.973C152.31 406.126 155.214 411.218 159.208 408.733C163.141 406.308 160.176 399.578 156.061 399.336C154.912 399.275 154.912 397.578 156.061 397.578C161.628 397.578 165.259 405.459 161.447 409.581C159.692 411.521 156.909 411.764 154.609 410.733C151.704 409.46 150.131 406.489 149.405 403.519C149.102 402.246 150.978 401.761 151.341 402.973Z" fill="#DC815C"/>
<path d="M140.691 413.825C141.841 411.4 143.717 410.127 146.379 410.673C146.682 410.733 146.863 410.915 147.227 410.855C147.771 410.673 147.469 410.733 147.711 410.248C147.953 409.824 148.013 409.339 148.316 408.975C148.981 408.187 149.95 408.005 150.857 408.369C151.886 408.793 151.523 410.491 150.373 410.127C149.465 409.824 149.344 411.703 149.042 412.128C148.739 412.613 148.376 412.855 147.832 412.976C146.984 413.158 146.379 412.613 145.593 412.491C143.838 412.188 143.051 413.522 142.325 414.795C141.659 415.886 140.207 414.916 140.691 413.825Z" fill="#DC815C"/>
<path d="M163.747 375.207C168.285 378.178 172.884 380.966 177.664 383.573C180.751 385.271 184.2 387.453 187.588 388.423C192.611 389.939 199.388 388.484 204.411 387.393C204.834 387.271 205.319 387.211 205.742 387.089C209.01 386.362 212.277 385.453 215.485 384.604C218.45 383.816 222.867 382.058 225.711 384.301C226.558 384.968 226.982 385.938 227.164 386.968C227.406 388.241 226.982 388.908 226.74 390.121C226.619 390.666 226.861 391.212 227.103 391.758C227.527 392.849 227.648 394.183 226.982 395.213C226.135 396.426 224.38 396.85 224.319 398.487C224.259 399.033 224.501 399.518 224.259 400.063C223.956 400.791 223.109 401.397 222.444 401.821C221.354 402.488 220.205 402.852 219.115 403.579C217.603 404.549 216.453 406.065 214.88 406.732C213.669 407.278 212.338 407.278 211.007 407.338C205.44 407.459 199.872 407.641 194.305 407.763C191.522 407.823 188.678 407.884 185.894 407.581C182.142 407.156 178.451 405.944 175.123 404.125C172.097 402.488 169.798 399.942 166.651 398.669C160.6 396.183 154.609 393.576 148.679 390.909C148.618 390.909 165.864 386.605 163.747 375.207Z" fill="#F29E7E"/>
<path d="M174.578 380.057C180.387 383.088 186.257 386.059 192.127 388.969C193.216 389.514 192.248 391.091 191.159 390.606C185.168 387.999 179.298 384.968 173.55 381.815C172.4 381.209 173.429 379.451 174.578 380.057Z" fill="#DC815C"/>
<path d="M173.005 403.216L318.416 403.64H322.592L377.9 403.822V425.829H175.97C175.304 418.251 173.247 410.794 173.005 403.216Z" fill="#6C4E4E"/>
</g>
<defs>
<clipPath id="clip0">
<rect width="470" height="489" fill="white"/>
</clipPath>
<clipPath id="clip1">
<rect width="39" height="87" fill="white" transform="translate(138 210)"/>
</clipPath>
<clipPath id="clip2">
<rect width="8.79545" height="50.8182" fill="white" transform="translate(170.204 225.591)"/>
</clipPath>
</defs>
</svg>
