<svg width="407" height="289" viewBox="0 0 407 289" fill="none" xmlns="http://www.w3.org/2000/svg">
<g clip-path="url(#clip0)">
<g opacity="0.21">
<path opacity="0.21" d="M140.994 356.415L132.144 363.789L131.866 364.027L131.747 364.107L131.707 364.146L131.588 364.226L131.549 364.265C131.549 364.265 131.549 364.265 131.549 364.226V364.146V363.988V363.869V363.512C131.549 363.274 131.549 363.036 131.509 362.759L131.39 361.292L131.191 359.785C131.112 359.309 130.993 358.794 130.913 358.318C130.477 356.336 129.683 354.432 128.691 352.688C127.659 350.943 126.468 349.397 125.238 347.89L123.412 345.67L122.579 344.56L121.825 343.41C120.872 341.824 120.158 340.119 119.642 338.335C118.57 334.767 118.332 331 118.57 327.233C118.689 325.37 118.928 323.467 119.285 321.643C119.642 319.819 120.237 317.995 120.872 316.211C122.142 312.643 123.65 309.114 125.278 305.664C126.945 302.215 128.77 298.845 130.834 295.673C131.866 294.087 132.977 292.541 134.168 291.074C135.359 289.607 136.668 288.219 138.097 287.069C139.526 285.919 141.193 284.928 142.939 284.77C143.812 284.69 144.685 284.809 145.479 285.166C146.273 285.523 146.987 286.078 147.622 286.712C148.257 287.347 148.813 288.14 149.289 288.933C149.766 289.726 150.202 290.558 150.559 291.431C151.314 293.135 151.909 294.959 152.345 296.783C152.782 298.607 153.1 300.51 153.219 302.374C153.298 303.325 153.258 304.237 153.298 305.228C153.338 305.704 153.377 306.22 153.417 306.695C153.457 306.933 153.457 307.131 153.417 307.25C153.377 307.369 153.338 307.528 153.219 307.687C152.98 308.004 152.703 308.361 152.385 308.717C152.068 309.035 151.829 309.272 151.433 309.51C150.718 309.907 149.766 310.105 148.813 310.541C148.575 310.66 148.337 310.779 148.099 310.938L147.702 311.255C147.543 311.374 147.464 311.493 147.345 311.651C146.908 312.206 146.71 312.801 146.551 313.436C146.551 313.515 146.471 313.594 146.511 313.673L146.71 313.753L147.146 313.911C147.305 313.951 147.424 314.03 147.583 314.07L148.099 314.189L148.615 314.308L149.051 314.387C149.289 314.427 149.528 314.466 149.805 314.506C150.282 314.546 150.798 314.585 151.155 314.665C151.353 314.704 151.433 314.744 151.552 314.863C151.671 314.942 151.79 315.101 151.909 315.259C152.345 315.973 152.742 316.925 153.06 317.757C153.695 319.462 154.012 321.365 154.211 323.229C154.409 325.092 154.608 327.035 154.528 328.899C154.489 330.762 154.211 332.665 153.893 334.529C153.258 338.295 152.306 341.983 151.591 345.749C151.353 347.058 152.028 347.137 152.306 345.908C153.179 342.221 154.33 338.573 155.124 334.806C155.521 332.903 155.838 331 155.957 328.978C155.957 328.462 155.997 327.987 155.997 327.471V326.718L155.957 326.004C155.917 325.053 155.838 324.061 155.759 323.07C155.56 321.127 155.322 319.145 154.608 317.163C154.211 316.171 153.933 315.339 153.338 314.308C153.179 314.03 152.98 313.753 152.663 313.475C152.504 313.356 152.306 313.198 152.107 313.118C151.909 313.039 151.71 312.92 151.512 312.92C150.798 312.762 150.361 312.762 149.924 312.682C149.726 312.643 149.488 312.643 149.289 312.563L149.091 312.524C149.091 312.524 149.051 312.524 149.051 312.484C149.051 312.484 149.051 312.444 149.091 312.444C149.17 312.405 149.369 312.286 149.528 312.206C150.202 311.889 151.234 311.691 152.306 311.136L152.703 310.898L153.099 310.621C153.219 310.541 153.338 310.383 153.457 310.303C153.576 310.184 153.695 310.065 153.774 309.986C154.092 309.629 154.449 309.233 154.806 308.717C155.005 308.44 155.203 308.043 155.282 307.568C155.362 307.092 155.322 306.775 155.282 306.497C155.243 305.982 155.163 305.585 155.163 305.109C155.163 304.871 155.124 304.673 155.124 304.435V303.722C155.124 303.206 155.084 302.73 155.044 302.215C154.886 300.193 154.568 298.25 154.092 296.307C153.615 294.365 152.98 292.461 152.187 290.638C151.79 289.726 151.314 288.814 150.758 287.941C150.202 287.069 149.607 286.197 148.853 285.444C148.099 284.69 147.186 283.977 146.114 283.501C145.043 283.025 143.812 282.866 142.701 282.985C141.55 283.104 140.478 283.501 139.526 283.977C138.573 284.452 137.7 285.047 136.906 285.721C135.319 286.99 133.97 288.497 132.739 290.003C131.509 291.549 130.358 293.135 129.326 294.761C127.222 298.012 125.357 301.422 123.65 304.911C121.944 308.4 120.436 311.969 119.126 315.616C118.491 317.44 117.856 319.304 117.419 321.286C117.022 323.229 116.784 325.172 116.626 327.114C116.348 331.04 116.586 335.044 117.697 338.89C118.253 340.793 119.047 342.657 120.039 344.401L120.833 345.67L121.745 346.899L123.571 349.159C124.762 350.626 125.913 352.133 126.826 353.719C127.738 355.305 128.453 356.97 128.81 358.794C128.889 359.23 129.008 359.706 129.088 360.142L129.286 361.53L129.405 362.917C129.445 363.155 129.405 363.393 129.445 363.631V364.543L129.405 366.961L129.366 368.151V368.428V368.587C129.366 368.587 129.366 368.666 129.366 368.627L129.405 368.587L129.882 368.19L133.335 365.336C136.271 362.878 139.208 360.38 142.106 357.921C144.924 355.662 143.693 354.155 140.994 356.415Z" fill="#811D65"/>
</g>
<g opacity="0.21">
<path opacity="0.21" d="M139.605 322.515C140.161 316.845 140.478 311.176 141.113 305.466C141.352 302.572 141.272 299.717 141.352 296.902C141.391 295.514 141.51 294.087 141.709 292.739C141.907 291.391 142.225 290.043 142.86 288.814C142.939 288.616 142.423 288.179 142.264 288.378C141.153 289.488 140.518 290.955 140.121 292.422C139.724 293.889 139.566 295.395 139.526 296.823C139.407 299.717 139.685 302.612 139.486 305.268C139.447 305.585 139.407 305.942 139.367 306.299L139.248 307.369L138.97 309.471L138.454 313.713C138.137 316.528 137.859 319.383 137.7 322.198C137.621 322.912 139.566 323.189 139.605 322.515Z" fill="#811D65"/>
</g>
<g opacity="0.21">
<path opacity="0.21" d="M157.783 320.969C160.521 320.295 163.022 319.145 165.443 317.916C166.673 317.321 167.784 316.607 168.975 315.933C170.086 315.22 171.237 314.506 172.348 313.713C174.571 312.206 176.714 310.581 178.778 308.916C180.842 307.25 182.866 305.466 184.771 303.563C186.676 301.7 188.502 299.677 190.05 297.457C191.598 295.237 192.828 292.818 193.78 290.281C194.733 287.743 195.408 285.166 195.963 282.549C196.082 281.915 196.241 281.241 196.36 280.567C196.44 279.893 196.479 279.219 196.519 278.545L196.678 274.58C196.757 273.113 196.836 271.606 197.114 270.179C197.233 269.465 197.432 268.751 197.71 268.117C197.789 267.958 197.829 267.8 197.908 267.641C197.987 267.403 198.186 267.165 198.345 266.967C198.424 266.848 198.543 266.729 198.702 266.61L199.099 266.214C199.416 265.936 199.734 265.659 200.051 265.421L199.932 265.342C199.892 265.302 199.932 265.302 199.932 265.262V265.183C199.853 265.183 199.734 265.183 199.654 265.183L198.464 265.143C198.067 265.143 197.67 265.104 197.273 265.104C197.075 265.104 196.876 265.104 196.678 265.104H196.122C194.971 265.143 193.82 265.223 192.669 265.381C190.367 265.698 188.105 266.214 185.922 266.888C181.517 268.276 177.349 270.258 173.38 272.558C165.482 277.236 158.378 283.104 152.147 289.686C151.512 290.36 151.988 290.796 152.663 290.201C159.41 284.254 166.554 278.664 174.333 274.183C178.222 271.963 182.271 269.981 186.478 268.633C188.581 267.958 190.724 267.443 192.907 267.126C193.979 266.967 195.09 266.888 196.162 266.848C196.36 266.848 196.281 266.848 196.32 266.848H196.36C196.4 266.848 196.44 266.848 196.4 266.848L196.36 266.888L196.32 266.928C196.201 267.126 196.122 267.324 196.043 267.522C195.725 268.315 195.527 269.108 195.408 269.901C195.13 271.487 195.011 272.994 194.931 274.54L194.773 278.505C194.733 279.139 194.693 279.774 194.614 280.408C194.574 280.725 194.534 280.963 194.455 281.32L194.257 282.272C193.701 284.809 193.026 287.347 192.074 289.726C191.161 292.144 189.97 294.404 188.502 296.506C187.033 298.607 185.247 300.47 183.382 302.294C181.517 304.118 179.532 305.823 177.468 307.449C175.444 309.074 173.341 310.66 171.158 312.127C170.086 312.881 168.975 313.555 167.864 314.268C166.752 314.942 165.641 315.616 164.45 316.211C162.148 317.4 159.767 318.511 157.306 319.145C155.163 319.462 155.124 321.445 157.783 320.969Z" fill="#811D65"/>
</g>
<g opacity="0.21">
<path opacity="0.21" d="M154.052 314.585C158.219 307.409 163.14 300.589 169.094 294.682C172.07 291.748 175.285 289.052 178.619 286.514C181.953 283.937 185.326 281.518 188.7 278.981C188.978 278.743 188.621 278.188 188.303 278.346C180.603 281.875 173.936 287.505 167.943 293.453C161.91 299.4 156.473 306.101 152.385 313.515C151.909 314.427 153.575 315.418 154.052 314.585Z" fill="#811D65"/>
</g>
<g opacity="0.21">
<path opacity="0.21" d="M137.303 286.316C137.184 283.778 136.668 281.28 135.914 278.901C135.16 276.522 134.128 274.223 132.977 272.082C130.596 267.76 127.54 263.795 123.928 260.465C120.317 257.134 116.149 254.28 111.426 252.773L110.513 252.535L110.077 252.416C109.918 252.376 109.68 252.337 109.442 252.297L108.172 252.02C108.132 252.02 108.092 251.98 108.092 252.02L108.053 252.099L108.013 252.257L107.934 252.495L107.735 253.13L107.418 254.161C107.338 254.438 107.259 254.755 107.18 255.033L106.703 256.777C106.108 259.117 105.632 261.496 105.195 263.914C104.401 268.712 103.925 273.549 103.806 278.386C103.727 280.805 103.727 283.223 103.806 285.681C103.885 288.1 104.005 290.519 104.163 292.937C104.322 295.356 104.6 297.854 105.394 300.193C105.791 301.382 106.267 302.532 106.822 303.642C107.418 304.752 108.092 305.783 108.767 306.775C110.077 308.797 111.466 310.819 113.054 312.682C113.847 313.594 114.72 314.466 115.713 315.259C116.705 316.013 117.816 316.647 119.047 316.845C119.483 316.885 119.682 316.726 119.682 316.528C119.682 316.33 119.483 316.171 119.166 316.092C118.134 315.854 117.221 315.18 116.348 314.427C115.514 313.673 114.76 312.761 114.046 311.85C112.617 309.986 111.387 307.964 110.156 305.902C109.521 304.832 108.886 303.88 108.41 302.849C107.894 301.818 107.497 300.748 107.14 299.677C106.465 297.497 106.227 295.197 106.068 292.818C105.91 290.439 105.791 287.981 105.671 285.602C105.552 283.223 105.552 280.805 105.592 278.426C105.671 273.628 106.068 268.87 106.862 264.192C107.259 261.852 107.775 259.513 108.37 257.214L108.847 255.509C108.926 255.231 109.005 254.954 109.085 254.636L109.243 254.042C109.243 254.002 109.243 253.962 109.283 253.923L109.442 253.962H109.482H109.521H109.561L109.958 254.081L110.791 254.319C112.974 255.033 115.078 256.103 117.022 257.372C118.967 258.641 120.833 260.108 122.539 261.734C125.952 264.985 128.85 268.791 131.112 272.914C133.334 277.078 135.001 281.598 135.279 286.276C135.319 287.347 135.795 287.902 136.311 287.902C136.827 288.021 137.343 287.466 137.303 286.316Z" fill="#811D65"/>
</g>
<g opacity="0.21">
<path opacity="0.21" d="M126.548 304.396C126.508 301.462 125.992 298.567 125.317 295.752C124.643 292.937 123.73 290.241 122.857 287.505C121.984 284.77 121.071 282.073 119.959 279.417C119.404 278.109 118.809 276.8 118.134 275.531C117.777 274.897 117.419 274.263 116.983 273.708C116.784 273.43 116.546 273.113 116.308 272.835C116.03 272.558 115.792 272.28 115.395 272.122C115.038 272.042 115.117 272.756 115.078 272.796C115.157 272.915 115.356 273.192 115.475 273.47C115.633 273.747 115.752 274.064 115.872 274.382C116.149 275.016 116.387 275.65 116.665 276.285L118.213 280.17C119.245 282.787 120.396 285.364 121.23 288.021C122.936 293.373 124.246 298.805 124.563 304.356C124.603 304.99 126.548 305.07 126.548 304.396Z" fill="#811D65"/>
</g>
<g opacity="0.21">
<path opacity="0.21" d="M119.285 362.005C119.007 360.102 119.047 358.08 119.166 356.058C119.285 354.036 119.523 351.974 119.682 349.873C119.841 347.811 119.92 345.591 119.682 343.45C119.444 341.309 118.928 339.207 118.253 337.185C116.904 333.141 114.999 329.414 113.213 325.687C111.387 321.881 109.204 318.273 106.664 314.903C104.124 311.572 101.266 308.479 98.2102 305.585C95.1542 302.73 91.9394 300.074 88.6453 297.497C85.3511 294.959 82.0569 292.382 78.485 290.241C76.699 289.171 74.8336 288.14 72.8095 287.466C71.8172 287.109 70.7457 286.831 69.6344 286.792C68.5231 286.712 67.2927 286.99 66.3799 287.743C65.4671 288.457 64.8717 289.448 64.4351 290.439C63.9986 291.431 63.7604 292.501 63.562 293.532C63.2048 295.633 63.2048 297.735 63.3239 299.836C63.4429 301.937 63.6811 303.999 64.0779 306.061C64.3161 307.092 64.5542 308.123 64.832 309.114L65.3083 310.621C65.4671 311.136 65.6258 311.612 65.8243 312.127C67.3721 316.052 69.5947 319.66 72.2538 322.951C74.913 326.202 77.9293 329.136 81.2235 331.753C84.5176 334.37 88.0102 336.67 91.6219 338.771C95.2733 340.793 98.8056 342.855 102.219 345.234C105.592 347.573 108.847 350.111 111.704 353.084C113.133 354.551 114.443 356.137 115.554 357.842C116.665 359.547 117.539 361.411 118.094 363.393C118.412 364.741 119.047 364.662 118.809 363.234C118.372 361.133 117.539 359.151 116.467 357.327C115.395 355.503 114.086 353.798 112.697 352.212C109.879 349.08 106.624 346.344 103.211 343.886C101.504 342.657 99.7581 341.507 97.9721 340.397C97.099 339.842 96.1861 339.287 95.2733 338.771L92.5744 337.225C89.0422 335.163 85.6289 332.863 82.4141 330.326C79.239 327.788 76.2624 324.934 73.7223 321.801C71.1822 318.669 68.9993 315.22 67.5309 311.493C67.3324 311.057 67.1737 310.541 67.0149 310.065L66.5386 308.638C66.2608 307.686 66.0624 306.695 65.8243 305.744C65.4274 303.761 65.1892 301.739 65.0702 299.757C64.9511 297.735 64.9511 295.713 65.2686 293.809C65.4274 292.858 65.6655 291.906 66.0227 291.074C66.3799 290.241 66.8562 289.527 67.4515 289.052C68.5231 288.14 70.5075 288.378 72.2935 289.012C74.1192 289.646 75.9052 290.598 77.6515 291.668C81.1044 293.77 84.3589 296.347 87.6134 298.884C90.8678 301.422 94.0429 304.078 96.9799 306.894C99.9565 309.748 102.695 312.762 105.156 316.013C107.577 319.304 109.68 322.793 111.466 326.48C113.213 330.247 115.118 333.934 116.348 337.78C116.983 339.683 117.42 341.665 117.658 343.648C117.896 345.63 117.816 347.652 117.658 349.675C117.499 351.736 117.261 353.798 117.142 355.86C117.023 357.961 116.983 360.062 117.301 362.204C117.38 362.679 117.499 363.115 117.618 363.472C117.697 363.631 117.777 363.789 117.816 363.948C117.896 364.067 117.975 364.186 118.055 364.305C118.372 364.701 118.69 364.86 118.928 364.741C119.166 364.662 119.325 364.345 119.364 363.908C119.364 363.789 119.364 363.671 119.364 363.552C119.364 363.393 119.364 363.274 119.364 363.076C119.404 362.838 119.364 362.441 119.285 362.005Z" fill="#811D65"/>
</g>
<g opacity="0.21">
<path opacity="0.21" d="M105.315 287.981C104.521 285.84 103.687 283.699 102.695 281.598C101.703 279.496 100.512 277.434 99.004 275.611C98.2499 274.699 97.3768 273.866 96.3449 273.152C95.8289 272.796 95.313 272.518 94.7176 272.28C94.5589 272.24 94.4398 272.161 94.2811 272.122L93.7254 271.963C93.3285 271.844 92.892 271.804 92.4951 271.725L91.8998 271.646H91.741H91.6616C91.6219 271.646 91.6616 271.685 91.6219 271.685L91.5822 272.003C91.5426 272.399 91.5029 272.835 91.5029 273.232V273.826V274.064V274.263V275.135C91.5029 276.285 91.5822 277.434 91.6219 278.584C91.8998 283.144 92.2966 287.703 93.1698 292.223C93.6064 294.483 94.2017 296.704 94.9955 298.884C95.3924 299.955 95.8686 301.025 96.4243 302.017C96.9799 303.008 97.6546 303.999 98.4881 304.792C98.7659 305.07 99.2422 304.594 99.0437 304.316C97.8927 302.532 97.1784 300.431 96.5433 298.329C95.948 296.228 95.432 294.047 94.9955 291.867C94.162 287.466 93.527 282.985 93.2889 278.545C93.2095 277.434 93.2095 276.324 93.2095 275.214V273.945C93.2095 273.826 93.1698 273.747 93.2889 273.787C93.3285 273.787 93.3682 273.787 93.4079 273.826L93.6064 273.866L93.9239 274.025C94.3605 274.223 94.797 274.461 95.1939 274.738C96.0274 275.333 96.7418 276.047 97.4165 276.879C98.7659 278.545 99.8375 280.487 100.79 282.51C101.743 284.532 102.576 286.633 103.409 288.734C103.806 289.567 105.672 288.933 105.315 287.981Z" fill="#811D65"/>
</g>
<g opacity="0.21">
<path opacity="0.21" d="M143.773 255.231C144.011 259.712 144.805 264.113 144.924 268.514C144.963 270.734 144.844 272.915 144.606 275.095C144.368 277.276 144.09 279.417 143.773 281.637C143.773 281.836 144.368 282.034 144.487 281.836C145.638 279.813 146.234 277.554 146.472 275.294C146.71 273.034 146.67 270.734 146.63 268.514C146.511 264.033 146.234 259.593 145.757 255.231C145.678 254.716 143.733 254.716 143.773 255.231Z" fill="#811D65"/>
</g>
<g opacity="0.21">
<path opacity="0.21" d="M146.115 255.469C145.4 254.081 144.884 252.495 144.567 250.83C144.249 249.165 144.09 247.46 144.209 245.755C144.329 244.05 144.725 242.385 145.202 240.759C145.678 239.134 146.273 237.548 146.829 235.922C146.869 235.764 146.313 235.446 146.194 235.526C144.805 236.794 143.892 238.46 143.376 240.204C142.82 241.949 142.622 243.773 142.503 245.596C142.384 247.381 142.384 249.205 142.622 251.028C142.86 252.813 143.336 254.636 144.289 256.222C144.527 256.619 146.273 255.786 146.115 255.469Z" fill="#811D65"/>
</g>
<g opacity="0.21">
<path opacity="0.21" d="M146.908 262.844C148.456 258.641 149.408 254.2 149.924 249.799C150.162 247.579 150.361 245.319 150.083 243.059C149.805 240.839 149.011 238.539 147.503 236.834C147.384 236.676 146.829 237.032 146.868 237.231C147.503 239.292 147.94 241.235 148.178 243.297C148.416 245.319 148.456 247.46 148.218 249.561C147.702 253.804 146.352 257.927 145.043 262.051C144.963 262.566 146.749 263.359 146.908 262.844Z" fill="#811D65"/>
</g>
<g opacity="0.21">
<path opacity="0.21" d="M145.717 265.857C144.447 264.747 143.257 263.478 142.106 262.17C140.955 260.822 139.883 259.434 138.931 258.007C137.938 256.54 137.065 255.033 136.351 253.447C135.636 251.861 135.081 250.196 134.843 248.491C134.803 248.055 134.763 247.658 134.803 247.222C134.803 247.024 134.843 246.786 134.843 246.588C134.843 246.469 134.843 246.389 134.882 246.27L134.922 245.993C134.962 245.715 135.041 245.478 135.16 245.24C135.16 245.041 135.359 245.24 135.438 245.24L135.795 245.438C135.954 245.517 136.39 245.795 136.748 246.033C137.065 246.31 137.462 246.548 137.78 246.826C138.097 247.103 138.415 247.381 138.692 247.698C139.01 248.015 139.248 248.332 139.526 248.649C140.597 249.997 141.431 251.544 142.344 253.09C143.217 254.636 144.169 256.222 145.32 257.61C145.519 257.848 146.035 257.451 145.916 257.214C145.162 255.628 144.527 254.002 143.773 252.376C143.018 250.751 142.185 249.046 140.994 247.539C140.677 247.143 140.399 246.786 140.042 246.429C139.724 246.072 139.327 245.755 138.97 245.438C138.613 245.121 138.176 244.843 137.78 244.566L137.145 244.209L136.708 243.971C136.51 243.852 136.311 243.773 136.113 243.693L134.962 243.178L134.406 242.94L134.247 242.861C134.208 242.861 134.208 242.821 134.168 242.821L134.128 242.9L134.009 243.178C133.85 243.574 133.692 243.971 133.573 244.367C133.453 244.764 133.295 245.121 133.215 245.557L133.136 246.033C133.096 246.152 133.096 246.27 133.096 246.429C133.096 246.667 133.057 246.945 133.057 247.182C133.057 247.698 133.096 248.174 133.136 248.649C133.374 250.592 133.93 252.416 134.684 254.121C135.398 255.826 136.311 257.451 137.264 258.998C139.248 262.09 141.55 264.945 144.368 267.324C145.043 267.839 146.273 266.333 145.717 265.857Z" fill="#811D65"/>
</g>
<g opacity="0.21">
<path opacity="0.21" d="M146.035 278.426C147.503 276.522 148.376 274.5 149.17 272.399C149.964 270.337 150.559 268.236 151.075 266.095C151.393 264.628 151.71 263.2 151.829 261.654C151.869 260.901 151.909 260.148 151.829 259.355L151.71 258.601L151.512 257.848C151.353 257.372 151.155 256.936 150.956 256.46C150.52 256.738 150.162 257.015 149.766 257.293C149.408 257.57 149.051 257.927 148.734 258.324C148.218 258.958 147.94 259.592 147.702 260.266C147.662 260.465 148.257 260.742 148.376 260.584C148.615 260.346 148.813 260.108 149.051 259.87C149.17 259.751 149.289 259.672 149.408 259.553L149.607 259.394L149.686 259.315C149.726 259.275 149.726 259.315 149.726 259.275C149.924 259.236 150.004 259.275 150.004 259.355C150.004 259.434 150.004 259.474 149.964 259.513V259.553V259.632L150.004 260.068C150.004 260.227 150.004 260.385 150.004 260.544C150.004 260.861 150.004 261.218 150.004 261.535C149.964 262.883 149.766 264.271 149.448 265.659C148.972 267.681 148.257 269.663 147.424 271.606C146.59 273.509 145.678 275.452 144.527 277.117C144.289 277.474 145.678 278.862 146.035 278.426Z" fill="#811D65"/>
</g>
<g opacity="0.21">
<path opacity="0.21" d="M147.106 22.6515C148.694 23.1273 150.242 23.9203 151.552 24.9512C152.861 25.982 153.973 27.2904 154.449 28.6781C154.925 30.0658 154.528 31.4932 153.457 32.643C152.941 33.2377 152.306 33.7532 151.552 34.1893C150.837 34.6651 150.083 35.0219 149.289 35.3788C146.075 36.6872 142.423 37.044 138.812 37.2423C136.986 37.3216 135.16 37.3612 133.295 37.4405C131.469 37.4802 129.604 37.5198 127.778 37.5594C120.436 37.6387 113.054 37.4802 105.711 37.163L100.194 36.8854L97.4559 36.7268C96.5431 36.6872 95.6699 36.5682 94.7571 36.4493C91.1454 35.9339 87.5337 35.1805 84.0014 34.229C82.2551 33.7532 80.5088 33.1981 78.8022 32.5241C77.1353 31.85 75.4287 31.0967 73.9999 30.1055C73.2855 29.5901 72.6108 28.9953 72.2139 28.3213C71.7773 27.6473 71.7376 26.8939 72.0551 26.1803C72.3727 25.4666 73.0077 24.8322 73.6824 24.2771C74.3571 23.722 75.1509 23.2463 75.9446 22.8498C79.1197 21.1449 82.6917 20.2329 86.2637 19.5589C89.8754 18.9245 93.5267 18.647 97.1781 18.4488C104.521 18.1316 111.903 18.4488 119.245 18.647C122.936 18.7659 126.587 18.9245 130.239 19.2814C133.89 19.6382 137.542 20.0744 141.074 21.0259C142.304 21.3431 142.503 20.7484 141.272 20.3122C137.74 19.1228 134.089 18.4884 130.398 17.973C126.706 17.4972 123.015 17.2196 119.324 16.9818C111.942 16.6249 104.56 16.2284 97.0987 16.5456C93.368 16.7042 89.6372 17.0214 85.9065 17.6954C82.2155 18.4091 78.4847 19.4003 75.0318 21.2638C74.1983 21.7396 73.3252 22.255 72.5314 22.8894C72.1345 23.2066 71.7376 23.5634 71.3804 23.9996C71.0232 24.3961 70.666 24.8718 70.4279 25.4666C70.1898 26.0217 70.031 26.7353 70.0707 27.4094C70.1104 28.0834 70.3485 28.7178 70.666 29.2332C70.9836 29.7486 71.3408 30.1848 71.7376 30.5416C72.1345 30.8985 72.5314 31.2553 72.968 31.5328C74.6349 32.6827 76.3812 33.436 78.1672 34.1497C79.9532 34.8237 81.7392 35.3788 83.5252 35.8942C87.1369 36.8854 90.7882 37.6387 94.4793 38.1938C95.3921 38.3128 96.3446 38.4317 97.2972 38.511L100.075 38.7093L105.592 39.0265C112.974 39.4229 120.356 39.6212 127.778 39.5815C129.643 39.5815 131.469 39.5419 133.335 39.5022C135.2 39.4626 137.026 39.4229 138.891 39.3436C142.622 39.185 146.432 38.8282 150.043 37.4009C150.956 37.0044 151.829 36.6079 152.663 36.0528C153.496 35.5374 154.29 34.903 154.965 34.1497C155.64 33.3963 156.235 32.4448 156.513 31.4139C156.791 30.3434 156.711 29.2332 156.394 28.242C155.719 26.2199 154.33 24.7133 152.822 23.5238C151.274 22.3343 149.567 21.4224 147.702 20.907C146.829 20.6691 146.154 20.7087 145.678 20.8277C145.201 20.9863 145.003 21.2242 145.003 21.4621C144.963 21.8585 145.678 22.255 147.106 22.6515Z" fill="#811D65"/>
</g>
<g opacity="0.21">
<path opacity="0.21" d="M81.501 29.59C80.9057 28.4799 81.0645 27.449 81.9773 26.4181C82.4139 25.9423 83.0092 25.5062 83.6442 25.1097C84.2792 24.7529 84.954 24.396 85.708 24.1581C88.6053 23.1273 91.8995 22.8894 95.1539 22.7308C101.742 22.4136 108.331 22.3343 114.919 22.5325C118.213 22.6515 121.507 22.8101 124.801 23.048C125.635 23.1273 126.468 23.1669 127.262 23.2462C128.056 23.3255 128.889 23.4445 129.683 23.6031C131.31 23.8806 132.898 24.1978 134.525 24.5546C136.113 24.9115 137.7 25.308 139.288 25.7837C140.836 26.2595 142.383 26.8146 143.812 27.4886C144.527 27.8455 145.201 28.242 145.797 28.7178C146.352 29.1935 146.868 29.7883 146.868 30.4226C146.868 31.057 146.432 31.7311 145.876 32.2861C145.32 32.8412 144.646 33.317 143.971 33.7135C143.495 33.991 143.812 34.5858 144.328 34.3479C145.082 33.991 145.876 33.5945 146.59 33.0395C146.948 32.7619 147.305 32.4447 147.583 32.0086C147.9 31.6121 148.138 31.057 148.178 30.4623C148.218 29.8676 148.059 29.2332 147.781 28.797C147.503 28.3213 147.186 27.9248 146.829 27.6076C146.114 26.9336 145.36 26.4578 144.606 26.0216C143.058 25.189 141.471 24.5546 139.843 24.0392C138.216 23.5238 136.589 23.0876 134.962 22.6911C133.334 22.3343 131.668 22.0171 130.001 21.7396C129.167 21.6206 128.334 21.5017 127.461 21.4224C126.587 21.3431 125.754 21.3034 124.92 21.2638C121.626 21.1052 118.292 20.9466 114.998 20.8277C108.37 20.5898 101.742 20.5501 95.1143 20.788C93.4473 20.8277 91.7804 20.9069 90.0738 21.1052C88.4069 21.3034 86.7003 21.6206 85.0333 22.2154C83.4061 22.8101 81.7789 23.6427 80.5088 24.9908C79.8738 25.6648 79.3579 26.5767 79.1991 27.5679C79.0403 28.5592 79.2785 29.59 79.715 30.383C80.1516 31.1363 80.8263 31.1363 81.1835 30.8588C81.6201 30.6209 81.7789 30.1055 81.501 29.59Z" fill="#811D65"/>
</g>
<g opacity="0.21">
<path opacity="0.21" d="M147.106 98.579C148.694 99.0548 150.242 99.8478 151.552 100.879C152.861 101.91 153.973 103.218 154.449 104.606C154.925 105.993 154.528 107.421 153.457 108.57C152.941 109.165 152.306 109.681 151.552 110.117C150.837 110.593 150.083 110.949 149.289 111.306C146.075 112.615 142.423 112.972 138.812 113.17C136.986 113.249 135.16 113.289 133.295 113.368C131.469 113.408 129.604 113.447 127.778 113.487C120.436 113.566 113.054 113.408 105.711 113.09L100.194 112.813L97.4559 112.654C96.5431 112.615 95.6699 112.496 94.7571 112.377C91.1454 111.861 87.5337 111.108 84.0014 110.156C82.2551 109.681 80.5088 109.126 78.8022 108.452C77.1353 107.778 75.4287 107.024 73.9999 106.033C73.2855 105.518 72.6108 104.923 72.2139 104.249C71.7773 103.575 71.7376 102.821 72.0551 102.108C72.3727 101.394 73.0077 100.76 73.6824 100.205C74.3571 99.6495 75.1509 99.1737 75.9446 98.7773C79.1197 97.0724 82.6917 96.1604 86.2637 95.4864C89.8754 94.852 93.5267 94.5745 97.1781 94.3763C104.521 94.0591 111.903 94.3763 119.245 94.5745C122.936 94.6934 126.587 94.852 130.239 95.2089C133.89 95.5657 137.542 96.0019 141.074 96.9534C142.304 97.2706 142.503 96.6759 141.272 96.2397C137.74 95.0503 134.089 94.4159 130.398 93.9005C126.706 93.4247 123.015 93.1471 119.324 92.9092C111.942 92.5524 104.56 92.1559 97.0987 92.4731C93.368 92.6317 89.6372 92.9489 85.9065 93.6229C82.2155 94.3366 78.4847 95.3278 75.0318 97.1913C74.1983 97.6671 73.3252 98.1825 72.5314 98.8169C72.1345 99.1341 71.7376 99.4909 71.3804 99.9271C71.0232 100.324 70.666 100.799 70.4279 101.394C70.1898 101.949 70.031 102.663 70.0707 103.337C70.1104 104.011 70.3485 104.645 70.666 105.161C70.9836 105.676 71.3408 106.112 71.7376 106.469C72.1345 106.826 72.5314 107.183 72.968 107.46C74.6349 108.61 76.3812 109.363 78.1672 110.077C79.9532 110.751 81.7392 111.306 83.5252 111.822C87.1369 112.813 90.7882 113.566 94.4793 114.121C95.3921 114.24 96.3446 114.359 97.2972 114.439L100.075 114.637L105.592 114.954C112.974 115.35 120.356 115.549 127.778 115.509C129.643 115.509 131.469 115.469 133.335 115.43C135.2 115.39 137.026 115.35 138.891 115.271C142.622 115.113 146.432 114.756 150.043 113.328C150.956 112.932 151.829 112.535 152.663 111.98C153.496 111.465 154.29 110.83 154.965 110.077C155.64 109.324 156.235 108.372 156.513 107.341C156.791 106.271 156.711 105.161 156.394 104.169C155.719 102.147 154.33 100.641 152.822 99.4513C151.274 98.2618 149.567 97.3499 147.702 96.8345C146.829 96.5966 146.154 96.6362 145.678 96.7552C145.201 96.9138 145.003 97.1517 145.003 97.3895C144.963 97.7464 145.678 98.1825 147.106 98.579Z" fill="#811D65"/>
</g>
<g opacity="0.21">
<path opacity="0.21" d="M81.501 105.518C80.9057 104.407 81.0645 103.376 81.9773 102.346C82.4139 101.87 83.0092 101.434 83.6442 101.037C84.2792 100.68 84.954 100.324 85.708 100.086C88.6053 99.0548 91.8995 98.8169 95.1539 98.6583C101.742 98.3411 108.331 98.2618 114.919 98.46C118.213 98.579 121.507 98.7376 124.801 98.9755C125.635 99.0548 126.468 99.0944 127.262 99.1737C128.056 99.253 128.889 99.372 129.683 99.5306C131.31 99.8081 132.898 100.125 134.525 100.482C136.113 100.839 137.7 101.235 139.288 101.711C140.836 102.187 142.383 102.742 143.812 103.416C144.527 103.773 145.201 104.169 145.797 104.645C146.352 105.121 146.868 105.716 146.868 106.35C146.868 106.985 146.432 107.659 145.876 108.214C145.32 108.769 144.646 109.245 143.971 109.641C143.495 109.919 143.812 110.513 144.328 110.275C145.082 109.919 145.876 109.522 146.59 108.967C146.948 108.689 147.305 108.372 147.583 107.936C147.9 107.54 148.138 106.985 148.178 106.39C148.218 105.795 148.059 105.161 147.781 104.725C147.503 104.249 147.186 103.852 146.829 103.535C146.114 102.861 145.36 102.385 144.606 101.949C143.058 101.116 141.471 100.482 139.843 99.9667C138.216 99.4512 136.589 99.0151 134.962 98.6186C133.334 98.2618 131.668 97.9446 130.001 97.6671C129.167 97.5481 128.334 97.4292 127.461 97.3499C126.587 97.2706 125.754 97.2309 124.92 97.1913C121.626 97.0327 118.292 96.8741 114.998 96.7551C108.37 96.5172 101.742 96.4776 95.1143 96.7155C93.4473 96.7551 91.7804 96.8344 90.0738 97.0327C88.4069 97.2309 86.7003 97.5481 85.0333 98.1428C83.4061 98.7376 81.7789 99.5702 80.5088 100.918C79.8738 101.592 79.3579 102.504 79.1991 103.495C79.0403 104.487 79.2785 105.518 79.715 106.31C80.1516 107.064 80.8263 107.064 81.1835 106.786C81.6201 106.548 81.7789 105.993 81.501 105.518Z" fill="#811D65"/>
</g>
<g opacity="0.21">
<path opacity="0.21" d="M97.1382 56.8683C98.7257 57.3441 100.274 58.1371 101.583 59.1679C102.893 60.1988 104.004 61.5072 104.481 62.8949C104.957 64.2826 104.56 65.71 103.488 66.8598C102.972 67.4545 102.337 67.97 101.583 68.4061C100.869 68.8819 100.115 69.2387 99.3211 69.5956C96.1063 70.904 92.4549 71.2608 88.8432 71.4591C87.0176 71.5384 85.1919 71.578 83.3265 71.6573C81.5008 71.6969 79.6355 71.7366 77.8098 71.7762C70.4674 71.8555 63.0853 71.6969 55.7429 71.3798L50.2261 71.1022L47.4876 70.9436C46.5748 70.904 45.7016 70.785 44.7888 70.6661C41.1771 70.1506 37.5654 69.3973 34.0331 68.4458C32.2868 67.97 30.5405 67.4149 28.8339 66.7409C27.167 66.0668 25.4604 65.3135 24.0316 64.3223C23.3172 63.8068 22.6425 63.2121 22.2456 62.5381C21.809 61.8641 21.7693 61.1107 22.0868 60.3971C22.4043 59.6834 23.0394 59.049 23.7141 58.4939C24.3888 57.9388 25.1825 57.4631 25.9763 57.0666C29.1514 55.3617 32.7234 54.4497 36.2954 53.7757C39.9071 53.1413 43.5584 52.8638 47.2098 52.6656C54.5522 52.3484 61.9343 52.6656 69.2767 52.8638C72.9678 52.9827 76.6191 53.1413 80.2705 53.4982C83.9218 53.855 87.5732 54.2912 91.1055 55.2427C92.3358 55.5599 92.5343 54.9652 91.3039 54.529C87.7716 53.3396 84.1203 52.7052 80.4292 52.1898C76.7382 51.714 73.0471 51.4364 69.3561 51.1986C61.974 50.8417 54.5919 50.4452 47.1304 50.7624C43.3997 50.921 39.6689 51.2382 35.9382 51.9122C32.2471 52.6259 28.5164 53.6171 25.0635 55.4806C24.23 55.9564 23.3569 56.4718 22.5631 57.1062C22.1662 57.4234 21.7693 57.7802 21.4121 58.2164C21.0549 58.6129 20.6977 59.0886 20.4596 59.6834C20.2215 60.2385 20.0627 60.9521 20.1024 61.6262C20.1421 62.3002 20.3802 62.9346 20.6977 63.45C21.0152 63.9654 21.3724 64.4016 21.7693 64.7584C22.1662 65.1153 22.5631 65.4721 22.9997 65.7496C24.6666 66.8995 26.4129 67.6528 28.1989 68.3665C29.9849 69.0405 31.7709 69.5956 33.5569 70.111C37.1685 71.1022 40.8199 71.8555 44.5109 72.4106C45.4238 72.5296 46.3763 72.6485 47.3288 72.7278L50.1071 72.9261L55.6238 73.2432C63.0059 73.6397 70.388 73.838 77.8098 73.7983C79.6751 73.7983 81.5008 73.7587 83.3662 73.719C85.2316 73.6794 87.0573 73.6397 88.9226 73.5604C92.6534 73.4018 96.4635 73.045 100.075 71.6177C100.988 71.2212 101.861 70.8247 102.695 70.2696C103.528 69.7542 104.322 69.1198 104.997 68.3665C105.671 67.6131 106.267 66.6616 106.544 65.6307C106.822 64.5602 106.743 63.45 106.425 62.4588C105.751 60.4367 104.362 58.9301 102.853 57.7406C101.305 56.5511 99.5989 55.6392 97.7335 55.1238C96.8604 54.8859 96.1856 54.9255 95.7094 55.0445C95.2331 55.2031 95.0347 55.441 95.0347 55.6789C95.0347 56.0357 95.7094 56.4718 97.1382 56.8683Z" fill="#811D65"/>
</g>
<g opacity="0.21">
<path opacity="0.21" d="M31.5332 63.8071C30.9378 62.6969 31.0966 61.666 32.0094 60.6352C32.446 60.1594 33.0413 59.7232 33.6764 59.3268C34.3114 58.9699 34.9861 58.6131 35.7402 58.3752C38.6374 57.3443 41.9316 57.1064 45.1861 56.9478C51.7744 56.6306 58.3627 56.5513 64.951 56.7496C68.2452 56.8685 71.5394 57.0271 74.8335 57.265C75.667 57.3443 76.5005 57.384 77.2942 57.4633C78.088 57.5426 78.9215 57.6615 79.7152 57.8201C81.3425 58.0976 82.93 58.4148 84.5573 58.7717C86.1448 59.1285 87.7324 59.525 89.3199 60.0008C90.8678 60.4766 92.4156 61.0317 93.8444 61.7057C94.5588 62.0625 95.2335 62.459 95.8288 62.9348C96.3845 63.4106 96.9004 64.0053 96.9004 64.6397C96.9004 65.2741 96.4639 65.9481 95.9082 66.5032C95.3526 67.0583 94.6779 67.534 94.0032 67.9305C93.5269 68.2081 93.8444 68.8028 94.3604 68.5649C95.1145 68.2081 95.9082 67.8116 96.6226 67.2565C96.9798 66.979 97.337 66.6618 97.6148 66.2256C97.9324 65.8291 98.1705 65.2741 98.2102 64.6793C98.2499 64.0846 98.0911 63.4502 97.8133 63.0141C97.5355 62.5383 97.218 62.1418 96.8608 61.8246C96.1464 61.1506 95.3923 60.6748 94.6382 60.2387C93.0903 59.4061 91.5028 58.7717 89.8755 58.2562C88.2483 57.7408 86.6211 57.3047 84.9938 56.9082C83.3666 56.5513 81.6997 56.2342 80.0327 55.9566C79.1993 55.8377 78.3658 55.7187 77.4927 55.6394C76.6195 55.5601 75.7861 55.5205 74.9526 55.4808C71.6584 55.3222 68.3246 55.1636 65.0304 55.0447C58.4024 54.8068 51.7744 54.7671 45.1464 55.005C43.4795 55.0447 41.8125 55.124 40.1059 55.3222C38.439 55.5205 36.7324 55.8377 35.0655 56.4324C33.4382 57.0271 31.811 57.8598 30.5409 59.2078C29.9059 59.8818 29.39 60.7938 29.2312 61.785C29.0725 62.7762 29.3106 63.8071 29.7472 64.6C30.1837 65.3534 30.8585 65.3534 31.2157 65.0758C31.6522 64.8379 31.811 64.2829 31.5332 63.8071Z" fill="#811D65"/>
</g>
<g opacity="0.21">
<path opacity="0.21" d="M104.322 77.7633C109.998 77.4858 115.753 77.7633 121.507 78.0409C127.262 78.3581 133.017 78.7942 138.851 78.7942C144.646 78.8338 150.44 78.5166 156.195 78.1598L160.521 77.9219C161.95 77.8426 163.419 77.803 164.887 77.6444C166.356 77.4858 167.784 77.2082 169.213 76.8911C170.642 76.5342 172.071 76.0981 173.42 75.4637C174.77 74.8293 176.079 74.076 177.111 72.8865C177.627 72.2918 178.024 71.5385 178.143 70.7058C178.262 69.8732 178.064 69.001 177.707 68.3269C176.992 66.8996 175.841 65.8687 174.69 64.9568C173.5 64.0449 172.269 63.2519 170.96 62.6175C170.324 62.2607 169.689 61.9038 169.015 61.5866L166.991 60.7144C166.673 60.5558 166.316 60.3972 165.998 60.2782L164.967 59.9214L162.903 59.2077L160.799 58.613L159.728 58.3354L158.656 58.0975L156.513 57.6218C155.798 57.5028 155.084 57.3839 154.37 57.2649C148.615 56.353 142.781 56.1548 136.986 56.1944C131.191 56.2341 125.437 56.5512 119.682 56.7098C118.689 56.7495 118.689 57.3839 119.682 57.4632C125.437 57.7407 131.191 57.7011 136.946 57.8597C142.701 57.9786 148.416 58.2165 154.052 59.1284L156.156 59.4853L158.219 59.9214L159.251 60.1593L160.283 60.4368L162.347 60.9919L164.332 61.6659L165.324 62.0228C165.641 62.1417 165.959 62.3003 166.276 62.4193L168.221 63.2519C168.856 63.5691 169.451 63.8863 170.086 64.2035C171.356 64.8378 172.507 65.5515 173.619 66.3841C174.69 67.1771 175.643 68.1287 176.159 69.1199C176.675 70.1111 176.556 70.9834 175.802 71.8557C175.087 72.7279 173.936 73.4416 172.706 73.9967C170.245 75.1069 167.467 75.7016 164.689 76.0188C163.974 76.0981 163.3 76.1377 162.585 76.1774L160.402 76.2963L156.076 76.5342C150.321 76.8118 144.567 77.0893 138.812 77.01C127.381 76.8118 115.792 75.2655 104.163 75.8998C101.584 75.9791 101.742 77.9219 104.322 77.7633Z" fill="#811D65"/>
</g>
<g opacity="0.21">
<path opacity="0.21" d="M118.927 74.3535C125.992 73.9966 133.215 74.8293 140.518 74.8689C144.169 74.8689 147.781 74.631 151.393 74.3931L154.092 74.2345C155.004 74.1552 155.878 74.1552 156.83 74.0363C158.656 73.7984 160.482 73.4019 162.228 72.6486C163.101 72.2521 163.934 71.7763 164.609 70.9833C164.927 70.5868 165.204 70.0714 165.284 69.5163C165.363 68.9612 165.244 68.3665 165.006 67.8907C164.53 66.9392 163.815 66.3048 163.061 65.71C162.307 65.155 161.513 64.6395 160.72 64.2034C160.323 64.0052 159.926 63.7673 159.489 63.569L158.219 63.0139C157.783 62.8157 157.386 62.6571 156.949 62.4985L155.64 62.0227C153.854 61.5073 152.068 61.0711 150.282 60.7936C146.67 60.1989 143.019 60.1196 139.367 60.1592C135.755 60.1989 132.144 60.4368 128.532 60.635C127.897 60.6747 127.937 61.309 128.532 61.3883C135.755 61.9434 142.979 61.5866 149.964 62.6967C151.71 62.9346 153.417 63.3708 155.084 63.8466L156.314 64.2827C156.711 64.4016 157.148 64.5602 157.545 64.7585L158.735 65.2739C159.132 65.4722 159.489 65.6704 159.886 65.8686C160.68 66.2651 161.394 66.7013 162.029 67.1771C162.664 67.6528 163.22 68.2079 163.498 68.7234C163.617 68.9612 163.657 69.1595 163.657 69.3577C163.657 69.556 163.538 69.7542 163.339 69.9921C162.982 70.4679 162.307 70.904 161.553 71.2212C160.085 71.8953 158.378 72.2521 156.671 72.4503C156.235 72.49 155.838 72.5296 155.401 72.5296L154.052 72.6089L151.353 72.7675C147.741 72.9658 144.169 73.1244 140.597 73.0847C133.454 73.0054 126.19 72.0539 118.927 72.5296C117.181 72.49 117.34 74.4328 118.927 74.3535Z" fill="#811D65"/>
</g>
<g opacity="0.21">
<path opacity="0.21" d="M88.6053 17.0611C88.4069 12.7393 88.1291 8.41763 88.2878 4.09591C88.4466 -0.2258 89.2403 -4.54751 88.7641 -8.90887C88.7244 -9.10712 88.0894 -9.14677 88.01 -8.94852C86.7003 -4.70611 86.7796 -0.344745 86.5812 4.01662C86.3828 8.33833 86.1843 12.7393 86.6209 17.1007C86.7003 17.5368 88.645 17.5368 88.6053 17.0611Z" fill="#811D65"/>
</g>
<g opacity="0.21">
<path opacity="0.21" d="M139.208 18.6074C139.01 14.2857 138.732 9.96402 138.891 5.64231C139.05 1.32059 139.843 -3.00112 139.367 -7.36249C139.327 -7.56073 138.692 -7.60038 138.613 -7.40213C137.303 -3.15972 137.383 1.20164 137.184 5.56301C136.986 9.88472 136.787 14.2857 137.224 18.6471C137.264 19.0832 139.208 19.0832 139.208 18.6074Z" fill="#811D65"/>
</g>
<g opacity="0.21">
<path opacity="0.21" d="M49.9486 51.5554C49.9883 46.8769 49.6311 42.238 49.6311 37.5991C49.6311 32.9602 50.147 28.3213 49.4723 23.6824C49.4326 23.4841 48.7976 23.4841 48.7182 23.6824C47.607 28.2816 47.9245 32.9602 47.9245 37.5594C47.9245 42.1983 47.7657 46.7976 47.9642 51.4365C48.0038 51.9519 49.9486 52.0709 49.9486 51.5554Z" fill="#811D65"/>
</g>
<g opacity="0.21">
<path opacity="0.21" d="M155.481 57.9786C155.481 53.9344 155.163 49.8506 155.163 45.8064C155.163 41.7623 155.679 37.7181 155.005 33.7136C154.965 33.555 154.33 33.5153 154.251 33.7136C153.139 37.7181 153.457 41.8019 153.457 45.8064C153.457 49.811 153.298 53.8551 153.496 57.8597C153.536 58.2958 155.481 58.4147 155.481 57.9786Z" fill="#811D65"/>
</g>
<g opacity="0.21">
<path opacity="0.21" d="M84.4775 94.2969C84.4775 90.6889 84.1997 87.0808 84.16 83.5124C84.16 79.944 84.676 76.336 84.0013 72.7676C83.9616 72.609 83.3266 72.609 83.2472 72.7676C82.1359 76.2964 82.4534 79.944 82.4534 83.5124C82.4534 87.0808 82.255 90.6492 82.4931 94.2176C82.5328 94.6141 84.4775 94.6934 84.4775 94.2969Z" fill="#811D65"/>
</g>
<g opacity="0.21">
<path opacity="0.21" d="M148.297 97.5481C148.258 94.2969 148.02 91.0061 147.98 87.7549C147.98 84.5037 148.496 81.2525 147.781 78.0013C147.742 77.8427 147.107 77.8427 147.027 78.0013C145.916 81.2128 146.273 84.5037 146.234 87.7152C146.234 90.9268 145.995 94.178 146.273 97.4291C146.353 97.8256 148.297 97.9049 148.297 97.5481Z" fill="#811D65"/>
</g>
<g opacity="0.21">
<path opacity="0.21" d="M230.334 263.518C229.143 247.064 228.826 230.57 228.746 214.076C228.707 197.542 228.667 181.048 228.627 164.515C228.588 148.021 228.667 131.448 228.707 114.914C228.786 106.628 228.865 98.3807 228.826 90.1338C228.826 86.0103 228.786 81.8869 228.707 77.7634C228.627 73.6399 228.548 69.5165 228.31 65.393C228.23 63.9656 227.556 64.0449 227.556 65.4326C227.595 69.5165 227.476 73.6399 227.397 77.7237C227.318 81.8472 227.238 85.9707 227.159 90.0941C227 98.3411 226.881 106.628 226.802 114.914C226.722 131.487 226.881 148.061 226.881 164.554C226.881 172.801 226.921 181.048 226.881 189.335C226.841 197.582 226.802 205.868 226.762 214.115C226.762 230.649 227 247.222 228.31 263.676C228.627 267.403 230.572 267.284 230.334 263.518Z" fill="#811D65"/>
</g>
<g opacity="0.21">
<path opacity="0.21" d="M371.308 263.042C347.971 262.249 324.912 264.866 301.733 264.985C290.144 265.183 278.555 265.381 266.926 265.54C261.132 265.659 255.337 265.738 249.543 265.857C246.645 265.897 243.748 265.936 240.851 265.976C237.954 266.016 235.056 266.055 232.199 265.936C231.207 265.897 231.127 266.531 232.119 266.65C235.017 267.007 237.914 267.126 240.811 267.284C243.708 267.403 246.606 267.443 249.503 267.483C255.298 267.562 261.132 267.522 266.926 267.403C272.721 267.324 278.555 267.165 284.35 267.007C290.144 266.848 295.939 266.69 301.694 266.65C324.912 266.531 348.09 264.39 371.189 264.985C373.848 265.064 374.007 263.121 371.308 263.042Z" fill="#811D65"/>
</g>
<g opacity="0.21">
<path opacity="0.21" d="M381.191 61.9038C355.988 62.1417 330.826 62.5382 305.584 62.6571C293.002 62.6968 280.381 62.7761 267.76 62.8157C261.45 62.895 255.139 62.9743 248.829 63.1329C242.518 63.3312 236.247 63.5294 229.977 64.0448C228.905 64.1241 228.945 64.7982 230.016 64.7982C236.247 64.7585 242.558 64.8378 248.829 64.7982C255.139 64.7982 261.45 64.7585 267.76 64.7189C280.381 64.5999 293.042 64.481 305.584 64.362C330.746 64.2431 356.028 64.3224 381.151 63.8862C384.088 63.8466 384.088 61.9038 381.191 61.9038Z" fill="#811D65"/>
</g>
<g opacity="0.21">
<path opacity="0.21" d="M354.202 91.8782C354.48 94.0193 354.599 96.2 354.242 98.341C353.925 100.482 353.29 102.544 352.297 104.487C350.353 108.372 347.217 111.663 343.764 114.518C340.311 117.412 336.541 119.989 332.85 122.685C329.159 125.381 325.507 128.196 322.451 131.725C320.943 133.47 319.594 135.373 318.562 137.474C317.53 139.536 316.736 141.756 316.3 144.056C316.181 144.651 316.141 145.206 316.101 145.801C316.062 146.395 316.062 146.99 316.101 147.585C316.22 148.774 316.379 149.964 316.776 151.074C317.133 152.224 317.728 153.254 318.363 154.246C318.721 154.721 319.038 155.237 319.475 155.633C319.673 155.871 319.872 156.07 320.07 156.307L320.705 156.902C322.451 158.528 324.476 159.717 326.579 160.708C328.683 161.7 330.905 162.413 333.128 163.008C337.613 164.158 342.216 164.594 346.781 164.515C347.574 164.515 347.535 163.841 346.781 163.761C342.296 163.405 337.851 162.651 333.564 161.422C331.421 160.788 329.357 160.034 327.373 159.083C325.428 158.131 323.523 156.981 321.975 155.514C320.427 154.087 319.157 152.382 318.522 150.439C317.848 148.497 317.728 146.395 318.046 144.294C318.403 142.192 319.118 140.131 320.07 138.148C321.023 136.206 322.253 134.421 323.682 132.756C326.579 129.426 330.151 126.69 333.842 124.073C337.533 121.417 341.343 118.879 344.915 115.945C348.487 113.051 351.861 109.601 354.044 105.359C355.115 103.257 355.83 100.958 356.187 98.6185C356.544 96.2792 356.425 93.9003 356.068 91.6007C355.79 89.4993 353.885 89.9354 354.202 91.8782Z" fill="#811D65"/>
</g>
<g opacity="0.21">
<path opacity="0.21" d="M323.721 189.811C320.268 189.335 316.736 188.582 313.243 187.868C309.751 187.154 306.218 186.401 302.686 185.687C295.621 184.3 288.517 183.07 281.294 182.555C277.682 182.317 274.031 182.238 270.419 182.595C268.593 182.753 266.768 183.07 265.021 183.546C263.235 184.022 261.489 184.656 259.902 185.648C258.314 186.639 256.846 187.947 255.853 189.573C255.337 190.366 254.98 191.238 254.623 192.11C254.345 193.022 254.147 193.934 254.028 194.846C253.789 196.71 253.909 198.533 254.147 200.357C254.226 200.793 254.266 201.269 254.385 201.705L254.702 203.053C254.98 203.926 255.218 204.838 255.575 205.67C256.25 207.375 257.163 209.001 258.235 210.468C259.306 211.935 260.537 213.322 261.807 214.591C264.426 217.129 267.442 219.23 270.538 221.054C276.769 224.741 283.516 227.437 290.184 230.094C291.851 230.768 293.518 231.442 295.145 232.116C296.772 232.79 298.439 233.543 300.066 234.297C303.361 235.764 306.695 237.151 310.068 238.38C313.442 239.61 316.895 240.72 320.466 241.394C322.252 241.711 324.038 241.949 325.864 241.909C326.777 241.87 327.69 241.79 328.603 241.552C329.476 241.314 330.389 240.958 331.103 240.363C331.579 239.927 331.659 239.57 331.54 239.491C331.381 239.372 331.063 239.451 330.666 239.768C329.357 240.68 327.61 240.878 325.904 240.839C324.197 240.759 322.451 240.482 320.744 240.085C317.331 239.292 313.997 238.103 310.663 236.795C307.369 235.486 304.075 234.059 300.821 232.552C299.193 231.799 297.566 231.045 295.899 230.332C294.232 229.618 292.565 228.944 290.898 228.27C284.231 225.574 277.563 222.957 271.451 219.428C268.395 217.644 265.498 215.622 262.997 213.243C261.767 212.054 260.616 210.745 259.584 209.358C258.592 207.97 257.758 206.463 257.123 204.917C256.766 204.124 256.568 203.331 256.33 202.498L256.052 201.269C255.972 200.873 255.893 200.437 255.853 200C255.615 198.296 255.536 196.591 255.734 194.965C255.814 194.132 256.012 193.339 256.25 192.546C256.528 191.793 256.846 191.04 257.282 190.366C258.116 188.978 259.346 187.908 260.775 187.035C262.203 186.163 263.791 185.568 265.458 185.132C267.125 184.696 268.832 184.419 270.578 184.26C274.07 183.943 277.603 184.062 281.175 184.3C288.279 184.855 295.304 186.123 302.329 187.511C305.821 188.225 309.354 188.938 312.846 189.692C316.379 190.405 319.871 191.159 323.483 191.595C325.15 191.793 326.023 191.317 326.023 190.842C326.023 190.524 325.269 190.009 323.721 189.811Z" fill="#811D65"/>
</g>
<g opacity="0.21">
<path opacity="0.21" d="M357.02 219.072C354.639 218.318 352.138 217.406 349.678 216.574C347.217 215.741 344.717 214.948 342.177 214.234C339.637 213.56 337.096 212.926 334.437 212.609C333.128 212.45 331.778 212.331 330.429 212.371C329.079 212.411 327.73 212.609 326.42 213.204C325.785 213.481 325.19 213.878 324.634 214.353C324.396 214.591 324.158 214.909 323.96 215.186C323.801 215.503 323.602 215.82 323.444 216.138C322.848 217.406 322.769 218.992 323.245 220.301C323.682 221.649 324.436 222.799 325.309 223.829C326.182 224.86 327.174 225.772 328.206 226.605C330.27 228.27 332.572 229.618 334.953 230.768C337.335 231.839 339.835 232.79 342.454 233.068C342.931 233.107 342.97 232.433 342.574 232.354C340.192 231.68 337.89 230.53 335.668 229.341C333.445 228.112 331.302 226.763 329.397 225.217C328.444 224.424 327.532 223.592 326.738 222.68C325.944 221.768 325.309 220.816 324.991 219.785C324.872 219.547 324.872 219.27 324.793 219.032C324.793 218.794 324.714 218.517 324.753 218.279C324.753 218.041 324.793 217.803 324.833 217.565C324.872 217.327 324.991 217.089 325.071 216.851C325.428 215.9 326.182 215.226 327.135 214.79C328.127 214.353 329.278 214.195 330.508 214.155C331.699 214.116 332.969 214.234 334.199 214.433C336.7 214.79 339.16 215.424 341.621 216.177C344.082 216.891 346.542 217.724 348.963 218.596C351.424 219.428 353.845 220.34 356.385 221.054C357.616 221.252 358.092 219.389 357.02 219.072Z" fill="#811D65"/>
</g>
<g opacity="0.21">
<path opacity="0.21" d="M363.886 118.165C362.735 119.87 361.188 121.417 359.6 122.884C357.973 124.39 356.306 125.818 354.599 127.324C352.932 128.791 351.226 130.298 349.638 131.923C348.09 133.549 346.542 135.333 345.55 137.435C345.034 138.465 344.756 139.695 344.637 140.805C344.518 141.955 344.558 143.144 344.796 144.294C345.272 146.633 346.701 148.734 348.567 150.122C350.432 151.55 352.694 152.422 354.956 152.739C357.258 153.056 359.6 152.898 361.743 152.184C362.1 152.065 361.942 151.431 361.584 151.47C359.441 151.708 357.298 151.589 355.274 151.113C353.25 150.638 351.305 149.845 349.718 148.616C348.13 147.426 346.979 145.761 346.542 143.858C346.304 142.906 346.265 141.915 346.344 140.924C346.423 139.893 346.661 139.021 347.098 138.109C347.971 136.285 349.4 134.659 350.908 133.113C352.456 131.567 354.123 130.139 355.83 128.712C357.536 127.285 359.282 125.857 360.949 124.311C362.616 122.765 364.244 121.179 365.553 119.196C366.069 118.364 364.363 117.412 363.886 118.165Z" fill="#811D65"/>
</g>
<g opacity="0.21">
<path opacity="0.21" d="M352.059 83.1557C350.432 82.2437 348.685 81.7283 346.979 81.4111C345.232 81.0939 343.526 80.975 341.819 80.9353C338.406 80.856 335.072 81.0146 331.738 80.9353C330.071 80.8957 328.404 80.7767 326.777 80.5388C325.15 80.301 323.562 79.9045 322.054 79.3097C320.586 78.715 319.236 77.8031 318.244 76.6136C317.212 75.4241 316.537 73.9571 316.101 72.3315C316.022 72.054 315.347 72.1333 315.387 72.4505C315.387 74.195 315.863 76.0585 316.934 77.6048C318.006 79.1908 319.633 80.301 321.34 81.0146C323.046 81.7283 324.793 82.0852 326.539 82.2834C328.285 82.4816 329.992 82.5609 331.659 82.6006C335.032 82.6799 338.366 82.6402 341.66 82.8385C343.288 82.9178 344.915 83.0764 346.502 83.3936C348.09 83.6711 349.598 84.1072 351.027 84.8606C351.622 85.1381 352.813 83.5918 352.059 83.1557Z" fill="#811D65"/>
</g>
<g opacity="0.21">
<path opacity="0.21" d="M325.23 117.254C322.253 115.271 318.959 113.963 315.665 112.892C312.41 111.822 309.116 110.91 305.981 109.76C302.845 108.61 299.829 107.183 297.368 105.081C296.138 104.011 295.066 102.782 294.153 101.434L293.955 101.117C293.836 100.958 293.756 100.799 293.677 100.641L293.201 99.6099L292.725 98.579L292.605 98.3411L292.486 98.0239L292.248 97.3895L291.335 94.971L290.542 92.7903L290.621 95.6053L290.661 98.6583C290.661 98.9358 290.661 99.0944 290.621 99.3323L290.581 99.9667L290.502 101.196C290.502 101.592 290.383 102.028 290.343 102.187L290.224 102.901C289.827 104.764 289.192 106.548 288.359 108.253C286.692 111.703 284.43 114.835 281.969 117.888C278.635 122.051 274.944 125.976 271.809 130.377C270.221 132.558 268.832 134.897 267.721 137.435C267.165 138.704 266.808 140.012 266.411 141.32C266.173 142.668 265.816 144.016 265.736 145.365C265.458 148.1 265.577 150.836 265.974 153.493C266.332 156.189 266.887 158.805 267.443 161.422C267.998 164.039 268.514 166.656 268.792 169.273C268.832 169.947 268.951 170.581 268.951 171.255L268.991 173.238L268.832 175.22C268.832 175.537 268.753 175.854 268.673 176.211L268.514 177.202C268.356 178.114 268.991 178.273 269.229 177.361L269.507 176.37C269.586 176.053 269.705 175.696 269.745 175.379L270.023 173.357L270.102 171.295C270.142 170.621 270.062 169.947 270.062 169.233C269.904 166.497 269.507 163.841 269.03 161.184C268.554 158.528 268.078 155.951 267.76 153.334C267.443 150.717 267.324 148.14 267.562 145.602C267.641 144.334 267.919 143.065 268.157 141.836C268.554 140.607 268.832 139.378 269.348 138.228C270.34 135.888 271.65 133.628 273.158 131.487C276.174 127.205 279.786 123.241 283.16 119.038C285.62 115.985 288.002 112.773 289.788 109.126C290.661 107.302 291.375 105.399 291.851 103.376C291.931 102.901 292.09 102.187 292.05 102.306L292.089 102.108C292.089 101.989 292.089 101.83 292.089 101.672C292.129 101.791 292.169 101.87 292.209 101.989C292.248 102.028 292.248 102.108 292.288 102.147L292.328 102.227L292.486 102.465C293.439 103.971 294.63 105.359 296.019 106.548C298.718 108.927 301.972 110.474 305.226 111.663C308.481 112.853 311.775 113.764 314.95 114.835C318.125 115.905 321.261 117.135 324.039 118.919C325.031 119.553 325.785 119.553 326.103 119.196C326.5 118.76 326.301 117.967 325.23 117.254Z" fill="#811D65"/>
</g>
<g opacity="0.21">
<path opacity="0.21" d="M274.706 230.411C269.903 229.896 265.101 229.182 260.259 228.666C255.417 228.151 250.496 227.834 245.614 227.992L244.384 228.032L243.749 228.072C243.55 228.111 243.193 227.992 243.352 228.27L243.907 230.609L244.463 232.393C244.701 232.988 244.9 233.543 245.138 234.138C246.09 236.438 247.4 238.579 248.908 240.521C251.924 244.447 255.655 247.619 259.267 250.791C259.584 251.068 260.061 250.592 259.783 250.275C256.766 246.429 253.234 243.099 250.377 239.372C248.948 237.508 247.717 235.526 246.765 233.424C246.527 232.909 246.328 232.354 246.13 231.799L245.614 230.133L245.495 229.697C245.495 229.658 245.495 229.658 245.495 229.658H245.535H245.574H245.693C250.456 229.499 255.219 229.896 260.021 230.53C264.823 231.164 269.626 231.918 274.468 232.354C275.539 232.473 275.777 230.53 274.706 230.411Z" fill="#811D65"/>
</g>
<g opacity="0.21">
<path opacity="0.21" d="M302.726 248.57C300.781 248.808 298.995 249.284 297.209 249.799C295.423 250.315 293.677 250.87 291.931 251.385C288.438 252.456 284.906 253.487 281.334 253.764C280.143 253.844 278.953 253.844 277.802 253.685C277.524 253.645 277.206 253.606 276.928 253.526C276.77 253.487 276.651 253.487 276.492 253.407L276.214 253.328C276.055 253.288 275.896 253.209 275.738 253.169C275.658 253.13 275.579 253.09 275.5 253.051L275.381 253.011C275.341 253.011 275.301 252.971 275.341 252.932L276.095 252.218L277.365 250.949C278.238 250.077 279.111 249.244 280.024 248.491C280.937 247.738 281.929 247.064 282.961 246.548C283.993 246.033 285.144 245.676 286.335 245.478C286.652 245.438 286.612 244.764 286.295 244.724C285.025 244.605 283.675 244.764 282.405 245.2C281.135 245.636 279.984 246.31 278.913 247.064C277.841 247.817 276.928 248.689 276.016 249.561L274.666 250.909L272.047 253.487L273.634 254.2C274.15 254.399 274.666 254.636 275.222 254.835C275.341 254.874 275.5 254.914 275.658 254.954L276.055 255.073C276.214 255.112 276.373 255.152 276.532 255.192C276.849 255.271 277.206 255.311 277.524 255.35C278.833 255.509 280.143 255.509 281.413 255.39C289.033 254.755 295.9 251.782 302.924 250.473C303.718 250.394 303.639 248.451 302.726 248.57Z" fill="#811D65"/>
</g>
<g opacity="0.21">
<path opacity="0.21" d="M323.443 167.369C314.831 164.435 306.218 161.105 297.368 158.567L295.701 158.092L295.304 157.973L294.788 157.854L293.677 157.576L293.121 157.457L292.843 157.378C292.804 157.378 292.804 157.338 292.764 157.378V157.457V157.616C292.724 158.012 292.684 158.409 292.684 158.805C292.645 159.717 292.645 160.193 292.645 160.788C292.684 163.127 292.962 165.427 293.518 167.726C294.074 169.986 294.907 172.246 296.256 174.229C296.931 175.22 297.765 176.092 298.757 176.766C299.749 177.48 300.9 177.876 302.091 177.995C302.488 178.035 302.567 177.361 302.21 177.282C300.146 176.687 298.677 175.141 297.646 173.317C296.574 171.493 295.899 169.431 295.383 167.29C294.867 165.149 294.55 162.968 294.47 160.748C294.431 160.233 294.431 159.44 294.431 159.638V159.598H294.47H294.55L294.748 159.638H294.788C294.828 159.638 294.788 159.638 294.907 159.678L295.304 159.797C295.86 159.955 296.376 160.074 296.931 160.233C305.623 162.731 314.037 166.537 322.808 169.273C323.761 169.55 324.435 167.726 323.443 167.369Z" fill="#811D65"/>
</g>
</g>
<defs>
<clipPath id="clip0">
<rect width="407" height="316" fill="white" transform="translate(0 -27)"/>
</clipPath>
</defs>
</svg>
