<svg width="196" height="560" viewBox="0 0 196 560" fill="none" xmlns="http://www.w3.org/2000/svg">
<g clip-path="url(#clip0)">
<g opacity="0.21">
<path opacity="0.21" d="M207.592 451.929C186.477 446.814 165.363 441.699 144.288 436.585C123.214 431.43 102.099 426.236 81.0641 420.765C75.8252 419.417 70.5862 418.029 65.3076 416.602C60.0687 415.174 54.8695 413.668 49.6306 412.121C39.1925 409.068 28.7543 406.015 18.3162 402.963C-2.56008 396.857 -23.476 390.83 -44.3523 385.16C-46.1383 384.684 -46.297 385.319 -44.5507 385.874C-23.992 392.416 -3.15538 398.68 17.7606 404.786C28.1987 407.8 38.6765 410.853 49.1147 413.866C54.3139 415.373 59.5925 416.919 64.8314 418.307C70.0703 419.694 75.3489 421.082 80.5878 422.43C101.583 427.862 122.698 433.215 143.772 438.488C164.887 443.721 185.961 448.915 207.076 453.911C211.957 454.982 212.434 453.118 207.592 451.929Z" fill="#811D65"/>
</g>
<g opacity="0.21">
<path opacity="0.21" d="M207.592 460.215C186.477 455.101 165.363 449.986 144.288 444.871C123.214 439.717 102.099 434.523 81.0641 429.051C75.8252 427.703 70.5862 426.316 65.3076 424.888C60.0687 423.461 54.8695 421.954 49.6306 420.408C39.1925 417.355 28.7543 414.302 18.3162 411.249C-2.56008 405.143 -23.476 399.116 -44.3523 393.447C-46.1383 392.971 -46.297 393.605 -44.5507 394.16C-23.992 400.702 -3.15538 406.967 17.7606 413.073C28.1987 416.086 38.6765 419.139 49.1147 422.152C54.3139 423.659 59.5925 425.205 64.8314 426.593C70.0703 427.981 75.3489 429.369 80.5878 430.717C101.583 436.148 122.698 441.501 143.772 446.774C164.887 452.008 185.961 457.202 207.076 462.198C211.957 463.268 212.434 461.405 207.592 460.215Z" fill="#811D65"/>
</g>
<g opacity="0.21">
<path opacity="0.21" d="M17.324 401.694C22.8408 401.773 28.159 400.068 32.8026 397.451C35.1442 396.143 37.2874 394.517 39.2322 392.733C41.1769 390.909 42.9629 388.927 44.4711 386.746L45.5427 385.081C45.8602 384.526 46.1777 383.931 46.4952 383.336C46.8127 382.742 47.0508 382.147 47.3684 381.512C47.6462 380.918 47.8446 380.283 48.0827 379.649C48.9559 377.111 49.3528 374.455 49.3925 371.759C49.4322 369.102 49.1543 366.446 48.5987 363.869C48.0827 361.292 47.3286 358.754 46.4952 356.296C46.3364 355.86 45.7014 356.058 45.7808 356.494C46.5746 361.648 47.6065 366.723 47.4874 371.759C47.4477 374.257 47.0905 376.755 46.3365 379.134C46.138 379.728 45.9395 380.323 45.7014 380.878C45.4236 381.433 45.2251 382.028 44.9076 382.583C44.5901 383.138 44.3123 383.693 44.0345 384.248L43.0026 385.834C41.5738 387.896 39.8672 389.799 38.0018 391.464C36.1365 393.13 34.0329 394.636 31.8104 395.826C27.3653 398.244 22.3645 399.751 17.2844 399.791C16.2524 399.751 16.054 401.694 17.324 401.694Z" fill="#811D65"/>
</g>
<g opacity="0.21">
<path opacity="0.21" d="M19.1895 341.546C24.3887 341.348 29.588 342.815 34.0728 345.551C36.335 346.899 38.3988 348.525 40.3039 350.388C41.2564 351.3 42.1693 352.291 43.0027 353.282C43.2012 353.52 43.4393 353.798 43.6377 354.036L44.0743 354.591L44.63 355.344C45.3444 356.335 46.0588 357.604 46.7732 358.714C46.8129 358.635 46.8525 358.476 46.8525 358.318L46.9319 357.882L47.0906 357.009C47.2097 356.415 47.2891 355.86 47.4478 355.265L47.8051 353.56L47.8447 353.441V353.401L47.8844 353.282L47.9638 353.044L48.0829 352.608C48.4401 351.419 48.9164 350.269 49.5117 349.199C50.107 348.128 50.7817 347.097 51.5358 346.106C52.3296 345.154 53.2027 344.282 54.1552 343.489C56.0603 341.903 58.2829 340.714 60.6245 339.802C62.9662 338.89 65.4269 338.295 67.9669 337.938C70.507 337.542 73.0074 337.383 75.5475 337.581C78.0478 337.74 80.5482 338.295 82.8899 339.247C85.2315 340.159 87.4144 341.467 89.3988 343.053C91.3436 344.639 93.0899 346.542 94.5583 348.604C95.6696 350.19 96.7015 351.815 97.5747 353.56C98.4081 355.304 99.1226 357.128 99.6385 358.992C100.67 362.719 100.908 366.684 100.353 370.49C99.7972 374.336 98.3684 377.984 96.2253 381.235C95.1537 382.86 93.9233 384.367 92.5342 385.715C91.1451 387.063 89.6369 388.292 88.0097 389.323C86.3825 390.394 84.6758 391.306 82.8899 392.059C81.1039 392.812 79.2782 393.486 77.3731 393.883C73.6027 394.715 69.6338 394.795 65.8237 394.16C62.0136 393.526 58.2829 392.178 55.1475 389.918C53.5599 388.808 52.1311 387.46 50.9405 385.993C49.7101 384.486 48.7179 382.821 47.9638 381.036C47.4479 379.807 46.8128 380.006 47.2891 381.314C47.9638 383.178 48.9164 385.001 50.107 386.627C51.2977 388.253 52.7661 389.72 54.3934 390.949C57.6478 393.447 61.5373 395.033 65.5459 395.746C69.5544 396.5 73.7218 396.46 77.77 395.627C78.7622 395.429 79.7941 395.151 80.7467 394.834C81.6992 394.477 82.6914 394.16 83.6042 393.764C85.4696 392.971 87.335 392.019 89.0416 390.869C90.7482 389.72 92.3755 388.451 93.8439 387.023C95.3124 385.556 96.6221 383.971 97.7731 382.226C100.035 378.777 101.544 374.812 102.099 370.728C102.655 366.644 102.377 362.441 101.266 358.516C100.71 356.534 99.956 354.63 99.0828 352.807C98.17 350.983 97.0984 349.238 95.9077 347.613C94.3599 345.472 92.5342 343.45 90.4307 341.745C88.3669 340.04 86.0253 338.652 83.4852 337.621C80.9848 336.63 78.3256 335.996 75.6268 335.797C72.9677 335.599 70.2689 335.758 67.6494 336.115C65.0299 336.511 62.4105 337.106 59.9101 338.018C57.4097 338.969 54.9887 340.238 52.8852 341.983C51.8136 342.855 50.8611 343.806 49.9879 344.837C49.1148 345.908 48.3607 347.018 47.7257 348.207C47.0907 349.397 46.5747 350.666 46.1382 351.934L45.8603 352.846L45.8206 353.044C45.8206 353.124 45.7809 353.203 45.7809 353.243V353.362V353.401C45.7809 353.401 45.7809 353.441 45.7809 353.401C45.7016 353.282 45.6222 353.163 45.5031 353.044L45.2253 352.688C45.0268 352.41 44.7887 352.133 44.5506 351.855C43.6378 350.785 42.7249 349.754 41.693 348.802C39.7086 346.859 37.486 345.115 35.1047 343.687C30.342 340.793 24.7062 339.207 19.1101 339.445C18.1973 339.445 17.5226 339.683 17.086 339.881C16.6494 340.119 16.451 340.357 16.4907 340.634C16.5304 340.872 16.7685 341.11 17.2051 341.229C17.6814 341.507 18.3561 341.546 19.1895 341.546Z" fill="#811D65"/>
</g>
<g opacity="0.21">
<path opacity="0.21" d="M56.219 390.394C54.9092 390.671 53.4011 390.87 51.9326 391.028C50.4641 391.187 48.9559 391.345 47.4874 391.425C46.0189 391.544 44.5504 391.425 43.0423 391.385C42.2882 391.385 41.5738 391.385 40.8197 391.464C40.4625 391.504 40.0656 391.544 39.7084 391.583C39.5099 391.623 39.3512 391.663 39.1527 391.663L38.8749 391.702H38.8353C38.8353 391.702 38.8353 391.663 38.8353 391.821V391.94C38.8749 391.781 38.9146 392.059 38.8353 392.059C38.8353 392.059 38.8353 392.257 38.8353 392.218H38.9146L39.0337 392.178C39.1528 392.138 39.1528 391.504 39.0337 391.425L38.8749 391.385L38.7956 391.345H38.7558C39.3512 390.909 37.5652 391.742 38.6368 392.535C38.7559 392.574 38.7162 392.535 38.7162 392.535H38.7558C38.7955 392.535 38.7956 392.535 38.7956 392.535H38.8353L39.1131 392.614C39.3115 392.654 39.4703 392.733 39.6687 392.773C40.0259 392.852 40.4228 392.931 40.78 393.011C41.5341 393.13 42.2485 393.169 43.0026 393.209C44.5108 393.248 45.9792 393.13 47.4874 393.05C48.9162 392.971 50.4244 392.971 51.9326 392.892C53.4408 392.812 54.949 392.693 56.4571 392.257C56.8143 392.218 56.4968 390.314 56.219 390.394Z" fill="#811D65"/>
</g>
<g opacity="0.21">
<path opacity="0.21" d="M97.218 384.169C101.306 383.931 105.434 383.772 109.521 383.614L121.865 383.178C130.12 382.9 138.335 382.662 146.591 382.504C154.806 382.345 163.101 382.345 171.357 382.266C179.612 382.147 187.867 382.028 196.083 381.393C196.797 381.354 196.757 380.68 196.043 380.64C191.955 380.521 187.827 380.402 183.739 380.363C179.612 380.323 175.484 380.323 171.357 380.363C163.101 380.442 154.806 380.68 146.591 380.799C138.335 380.957 130.12 381.116 121.865 381.235C117.737 381.314 113.609 381.433 109.482 381.592C105.354 381.75 101.227 381.909 97.0989 382.186C95.2335 382.345 95.3923 384.288 97.218 384.169Z" fill="#811D65"/>
</g>
<g opacity="0.21">
<path opacity="0.21" d="M201.52 430.796C198.662 430.241 195.805 429.646 192.947 428.932C190.089 428.219 187.192 427.545 184.295 426.99L166.951 423.699C155.401 421.478 143.892 419.139 132.382 416.562C129.524 415.888 126.667 415.254 123.769 414.58C120.912 413.945 118.015 413.311 115.117 412.716C109.363 411.487 103.568 410.297 97.8527 408.989C86.3827 406.333 74.9523 403.319 63.3632 401.495C62.371 401.337 62.252 401.971 63.2442 402.209C74.5952 404.905 85.9064 408.156 97.4559 410.813C103.211 412.121 109.045 413.271 114.8 414.461C117.697 415.055 120.555 415.65 123.412 416.284C126.27 416.919 129.167 417.593 132.025 418.227C143.495 420.804 155.044 423.263 166.594 425.602C172.349 426.791 178.183 427.862 183.938 429.012C186.795 429.606 189.653 430.241 192.51 430.955C195.368 431.629 198.265 432.263 201.162 432.778C203.782 433.175 204.179 431.272 201.52 430.796Z" fill="#811D65"/>
</g>
<g opacity="0.21">
<path opacity="0.21" d="M121.309 399.434C128.373 400.425 135.398 402.288 142.542 403.755C149.646 405.222 156.83 406.412 163.855 408.117C177.865 411.764 192.074 415.055 206.242 417.831C206.838 417.95 206.996 417.315 206.441 417.117C199.575 414.857 192.51 413.113 185.446 411.447C181.913 410.654 178.381 409.822 174.849 409.029C173.063 408.632 171.316 408.196 169.57 407.8C167.824 407.363 166.038 406.927 164.291 406.491C157.227 404.786 150.043 403.478 143.018 401.932C135.993 400.385 128.929 398.442 121.666 397.531C119.959 397.293 119.681 399.196 121.309 399.434Z" fill="#811D65"/>
</g>
<g opacity="0.21">
<path opacity="0.21" d="M121.428 397.411C111.546 397.332 101.822 398.522 92.098 399.354C82.3742 400.187 72.6108 400.544 62.8871 401.297C62.4505 401.337 62.4902 402.011 62.8871 402.05C72.6505 403.121 82.533 401.892 92.2171 401.059C101.941 400.227 111.665 399.553 121.349 399.394C122.5 399.354 122.579 397.411 121.428 397.411Z" fill="#811D65"/>
</g>
<g opacity="0.21">
<path opacity="0.21" d="M26.1747 433.135C25.7382 434.602 25.0237 435.95 24.0712 437.1C23.1187 438.25 21.8884 439.201 20.539 439.955C17.8004 441.461 14.5856 442.215 11.3312 442.69C8.07668 443.166 4.74282 443.325 1.40897 443.483C-0.257954 443.563 -1.92486 443.642 -3.63147 443.761C-4.46494 443.84 -5.29841 443.88 -6.17156 443.999C-7.00502 444.078 -7.8385 444.237 -8.67197 444.316C-15.2603 445.188 -21.9676 444.95 -28.675 445.109C-32.0089 445.188 -35.3824 445.347 -38.7163 445.823C-42.0501 446.259 -45.384 447.012 -48.4797 448.281C-49.0353 448.479 -48.7972 449.113 -48.2416 448.994C-45.0665 448.162 -41.812 447.726 -38.5575 447.488C-35.2634 447.21 -31.9692 447.091 -28.6354 447.052C-21.9677 446.893 -15.2206 446.933 -8.47353 446.06C-7.60037 445.942 -6.80657 445.823 -6.01279 445.743C-5.21902 445.664 -4.38558 445.585 -3.55212 445.545C-1.92488 445.426 -0.257954 445.386 1.40897 445.307C4.74282 445.188 8.11637 445.069 11.4899 444.633C14.8635 444.197 18.3164 443.483 21.4121 441.778C22.9599 440.946 24.3887 439.836 25.5397 438.448C26.6907 437.06 27.4845 435.435 28.0004 433.769C28.4767 432.183 26.5319 431.827 26.1747 433.135Z" fill="#811D65"/>
</g>
<g opacity="0.21">
<path opacity="0.21" d="M25.4605 433.532C25.0239 433.888 24.627 434.245 24.1111 434.523C23.6348 434.84 23.1188 435.038 22.6029 435.276C21.5313 435.673 20.4597 435.99 19.269 436.109C16.9274 436.426 14.5064 436.267 12.0854 435.911C9.66435 435.554 7.24334 434.999 4.78263 434.444L-2.55978 432.739C-12.3232 430.399 -22.0866 428.06 -31.85 425.681C-36.7318 424.531 -41.6532 423.421 -46.5349 422.311C-51.4166 421.201 -56.2983 420.011 -61.1404 418.663C-65.9824 417.315 -70.745 415.848 -75.468 414.183C-80.1513 412.478 -84.7949 410.575 -89.2797 408.394C-90.0735 408.037 -90.3513 408.593 -89.6369 409.029C-85.3505 411.645 -80.7863 413.826 -76.103 415.729C-71.38 417.593 -66.5777 419.139 -61.696 420.487C-56.8143 421.835 -51.8929 422.985 -46.9715 424.056C-42.0501 425.126 -37.1684 426.157 -32.2867 427.346C-22.5629 429.646 -12.8391 432.223 -3.07571 434.602L4.26671 436.386C6.72741 436.941 9.18808 437.536 11.7282 437.933C14.2682 438.289 16.848 438.488 19.4675 438.131C20.7772 437.972 22.0472 437.615 23.2776 437.14C23.8729 436.862 24.5079 436.585 25.0636 436.228C25.6589 435.911 26.1352 435.474 26.6511 435.038C27.1274 434.642 27.3258 434.206 27.3655 433.849C27.4449 433.492 27.3258 433.254 27.1671 433.095C26.8496 432.739 26.1749 432.818 25.4605 433.532Z" fill="#811D65"/>
</g>
<g opacity="0.21">
<path opacity="0.21" d="M209.14 476.511C197.193 473.299 185.287 470.127 173.38 466.916C167.427 465.33 161.474 463.704 155.481 462.118C149.488 460.493 143.495 458.867 137.502 457.241C136.311 457.36 135.12 457.519 133.93 457.638C121.11 459.026 108.172 459.938 95.2728 461.286C82.4137 462.435 69.4752 463.427 56.6557 464.854C55.5445 464.973 55.6238 465.647 56.7351 465.568C69.5942 465.052 82.4931 464.299 95.4316 463.149C108.33 461.801 121.229 460.651 134.088 459.303C135.16 459.184 136.271 459.065 137.343 458.946C149.17 462.198 160.997 465.488 172.825 468.779C184.731 472.07 196.678 475.282 208.584 478.414C211.442 479.128 211.997 477.264 209.14 476.511Z" fill="#811D65"/>
</g>
<g opacity="0.21">
<path opacity="0.21" d="M207.791 511.759C201.401 510.133 195.011 508.507 188.661 506.842C185.485 506.01 182.31 505.137 179.135 504.265C175.96 503.393 172.825 502.441 169.65 501.529C156.989 497.802 144.328 494.115 131.866 489.833C128.77 488.762 125.635 487.652 122.579 486.502C119.483 485.352 116.427 484.123 113.331 482.934C107.18 480.555 100.988 478.216 94.7174 476.114C91.582 475.083 88.4069 474.092 85.2318 473.18C82.0567 472.308 78.8816 471.436 75.7065 470.564L70.9439 469.295L68.5625 468.66C67.7688 468.462 66.975 468.264 66.2209 467.986C64.673 467.471 63.1251 466.916 61.5773 466.4C60.0294 465.885 58.4816 465.29 56.8146 464.973C56.5368 464.933 56.2987 464.933 56.1399 465.013C55.9812 465.092 55.9415 465.171 55.9812 465.251C56.0605 465.409 56.1796 465.568 56.6559 465.647C58.1244 466.044 59.6722 466.718 61.1804 467.312C62.6886 467.947 64.1968 468.581 65.7843 469.136C66.1812 469.295 66.5781 469.414 66.975 469.533L68.1656 469.89L70.5072 470.603L75.2302 472.031C78.4053 472.982 81.5407 473.894 84.7158 474.846C87.8512 475.758 90.9866 476.749 94.122 477.819C100.353 479.921 106.545 482.181 112.736 484.52C115.832 485.67 118.888 486.859 122.023 488.009C125.119 489.159 128.254 490.269 131.35 491.339C143.852 495.622 156.473 499.467 169.134 503.313C172.269 504.265 175.444 505.217 178.659 506.128C181.834 507.04 185.009 507.873 188.224 508.745C194.614 510.45 201.004 512.076 207.394 513.622C210.251 514.375 210.728 512.472 207.791 511.759Z" fill="#811D65"/>
</g>
<g opacity="0.21">
<path opacity="0.21" d="M-169.014 469.215C-141.153 466.44 -113.291 463.665 -85.4296 460.889L-78.6429 467.55L-75.1106 471.039L-74.9915 471.158C-74.9518 471.198 -74.8725 471.277 -74.8328 471.317L-74.555 471.515L-74.039 471.912L-73.0071 472.665L-70.8242 473.973C-67.8873 475.559 -64.8312 476.868 -61.7355 478.136C-58.6398 479.366 -55.5441 480.476 -52.4087 481.586C-46.1775 483.767 -39.867 485.709 -33.5962 487.85C-30.5005 488.881 -27.4444 490.15 -24.309 491.26C-21.2133 492.37 -18.0779 493.48 -14.9425 494.551C-8.51294 496.771 -2.04369 498.952 4.3065 501.41C7.4816 502.639 10.617 503.908 13.7127 505.335L18.396 507.397C19.9438 508.071 21.5314 508.745 23.119 509.419C35.7003 514.732 48.5594 519.45 61.4582 523.931C74.3571 528.411 87.3353 532.653 100.234 537.054C106.664 539.275 113.014 541.812 119.443 544.033C125.873 546.253 132.422 548.315 139.169 549.385C141.51 549.742 141.51 549.068 139.288 548.672C132.699 547.403 126.27 545.222 119.92 542.843C113.569 540.464 107.299 537.847 100.829 535.548C87.9703 530.988 74.9921 526.666 62.0932 522.186C49.1944 517.706 36.375 513.027 23.7936 507.794C22.2458 507.12 20.6582 506.485 19.1104 505.811L14.4271 503.749C11.2917 502.362 8.11662 501.053 4.90184 499.824C-1.48805 497.366 -7.95729 495.185 -14.3869 492.965C-17.4826 491.895 -20.618 490.824 -23.7137 489.674C-25.2616 489.119 -26.8095 488.524 -28.3176 487.93C-29.8655 487.335 -31.453 486.74 -33.0009 486.225C-39.2717 484.084 -45.5425 482.101 -51.7736 479.921C-54.8694 478.81 -57.965 477.7 -61.0211 476.471C-64.0374 475.242 -67.0538 473.934 -69.8717 472.387L-71.9355 471.158C-72.253 470.92 -72.5705 470.682 -72.888 470.484L-73.3643 470.127L-73.6024 469.969C-73.6421 469.929 -73.6024 469.969 -73.6421 469.929L-73.7612 469.81L-77.2934 466.321L-84.6756 458.986C-98.8444 460.374 -113.053 461.761 -127.222 463.149C-141.232 464.577 -155.202 465.964 -169.173 467.352C-175.404 467.867 -175.245 469.81 -169.014 469.215Z" fill="#811D65"/>
</g>
<g opacity="0.21">
<path opacity="0.21" d="M-0.575684 565.562C-1.80603 564.016 -2.95697 562.35 -4.46513 560.804C-4.82234 560.408 -5.21924 560.051 -5.61612 559.694C-6.01302 559.337 -6.37021 559.02 -6.80678 558.703C-7.20367 558.385 -7.60059 558.029 -8.07684 557.711C-8.31499 557.553 -8.59279 557.355 -8.94998 557.196C-9.14842 557.117 -9.34686 557.037 -9.58499 557.037C-9.70406 557.037 -9.82314 556.998 -9.9422 556.998H-10.2597C-10.4582 556.998 -10.5772 557.037 -10.736 557.077L-11.0932 557.156C-11.3313 557.196 -11.5297 557.236 -11.7679 557.275C-12.2044 557.315 -12.6807 557.355 -13.1173 557.355C-14.0698 557.355 -14.9827 557.275 -15.8955 557.117C-16.8083 556.958 -17.7212 556.681 -18.5943 556.403C-19.4675 556.086 -20.3406 555.689 -21.2138 555.253C-22.9601 554.381 -24.627 553.31 -26.3733 552.319C-27.2465 551.804 -28.1196 551.328 -29.0324 550.813L-31.6916 549.425L-42.3678 543.834C-56.6161 536.46 -70.9437 529.204 -85.2713 521.948C-92.4153 518.34 -99.5592 514.653 -106.743 511.045C-113.927 507.476 -121.19 503.987 -128.453 500.578C-132.104 498.873 -135.716 497.168 -139.367 495.463C-142.979 493.758 -146.551 491.934 -150.162 490.19C-151.988 489.317 -153.774 488.445 -155.6 487.612C-157.425 486.78 -159.33 486.027 -161.235 485.432C-163.14 484.797 -165.046 484.203 -166.911 483.489C-168.776 482.775 -170.562 481.903 -172.15 480.753C-173.221 479.921 -173.658 480.396 -172.586 481.348C-170.999 482.656 -169.173 483.648 -167.308 484.48C-165.442 485.313 -163.537 485.987 -161.672 486.701C-160.759 487.057 -159.807 487.414 -158.933 487.771C-158.021 488.128 -157.147 488.564 -156.274 489C-154.488 489.872 -152.702 490.784 -150.916 491.696C-147.344 493.52 -143.812 495.384 -140.161 497.168C-136.509 498.873 -132.898 500.617 -129.246 502.322C-121.983 505.732 -114.681 509.181 -107.497 512.71C-100.313 516.239 -93.1296 519.887 -85.9857 523.495C-71.6978 530.75 -57.4099 538.085 -43.241 545.579L-32.6044 551.209L-29.9453 552.636C-29.0721 553.112 -28.199 553.588 -27.3655 554.103C-25.6589 555.095 -23.9126 556.165 -22.0869 557.117C-21.1741 557.593 -20.2216 557.989 -19.2294 558.385C-18.2371 558.742 -17.2052 559.02 -16.1733 559.218C-15.1414 559.377 -14.0698 559.496 -13.0379 559.496C-12.522 559.496 -11.9663 559.456 -11.4504 559.416C-11.1726 559.377 -10.9344 559.337 -10.6566 559.297L-10.2994 559.218C-10.22 559.218 -10.0612 559.178 -10.0216 559.178C-9.66435 559.06 -8.75153 559.813 -8.03712 560.408C-7.67993 560.725 -7.28307 561.042 -6.92587 561.359C-6.56866 561.676 -6.21149 561.994 -5.89397 562.35C-4.54456 563.738 -3.39359 565.364 -2.12355 566.95C-0.97258 568.417 0.0593414 568.773 0.416534 568.417C0.773727 567.862 0.535599 566.95 -0.575684 565.562Z" fill="#811D65"/>
</g>
<g opacity="0.21">
<path opacity="0.21" d="M138.772 548.077C135.795 548.196 132.858 548.553 129.961 548.989C127.063 549.425 124.206 549.901 121.309 550.416C118.451 550.931 115.593 551.447 112.736 551.883C109.878 552.319 107.021 552.636 104.123 552.993C92.5739 554.341 81.0245 555.65 69.4751 557.355C66.6175 557.791 63.7203 558.227 60.8627 558.742C58.0051 559.258 55.1475 559.773 52.2502 560.249C46.535 561.24 40.7802 562.073 34.9856 562.905L30.6596 563.54L28.5164 563.857C27.802 563.936 27.0479 564.095 26.3335 564.253C23.4759 564.848 20.658 565.601 17.8401 566.315C15.0222 566.989 12.2043 567.663 9.38641 568.179C7.95761 568.417 6.52885 568.654 5.10006 568.773C4.38566 568.853 3.67125 568.853 2.95686 568.853C2.24246 568.853 1.52804 568.773 0.853336 568.575C0.41676 568.456 0.0992602 568.456 0.0198828 568.615C-0.0198059 568.694 -0.0197768 568.813 0.0992893 568.932C0.178667 569.051 0.377081 569.21 0.615213 569.289C1.3693 569.566 2.12341 569.685 2.8775 569.765C3.63158 569.844 4.38565 569.844 5.13973 569.844C6.60822 569.804 8.07669 569.685 9.54517 569.487C12.4424 569.091 15.3397 568.535 18.1973 567.941C21.0549 567.346 23.8728 566.632 26.6907 566.077C27.0479 565.998 27.4051 565.958 27.7226 565.879L28.7545 565.72L30.9374 565.443L35.2635 564.848C41.0183 564.016 46.8129 563.143 52.5677 562.073C55.4253 561.557 58.2829 561.002 61.1405 560.487C63.9981 559.971 66.8556 559.535 69.7132 559.099C81.1833 557.394 92.7327 556.244 104.322 554.936C115.99 553.984 127.341 550.852 138.811 550.099C141.431 549.94 141.55 547.997 138.772 548.077Z" fill="#811D65"/>
</g>
<g opacity="0.21">
<path opacity="0.21" d="M20.023 -21.0413C19.7451 13.9289 19.4277 48.8991 19.1498 83.8296C18.8323 118.8 18.5148 153.73 18.0782 188.74C17.602 223.671 17.1257 258.72 16.6494 293.73C16.4113 311.255 16.2129 328.74 16.0541 346.225C15.8954 363.71 15.7763 381.156 15.8954 398.601C15.8954 401.614 16.5701 401.535 16.6494 398.601C17.0066 381.235 17.3638 363.789 17.721 346.344C18.0385 328.859 18.3164 311.334 18.5545 293.809C18.9911 258.76 19.3879 223.671 19.8245 188.78C20.2611 153.849 20.6977 118.839 21.1343 83.8693C21.5311 48.8594 21.928 13.8892 22.0471 -21.0017C22.0074 -29.0107 20.0626 -29.0504 20.023 -21.0413Z" fill="#811D65"/>
</g>
<g opacity="0.21">
<path opacity="0.21" d="M118.65 240.958C119.205 234.534 119.444 228.151 119.682 221.768L119.999 212.173L120.237 202.578C120.515 189.811 120.833 177.044 121.11 164.237C121.428 151.47 121.825 138.664 122.182 125.897C122.539 113.09 122.777 100.323 122.936 87.5962C122.936 86.486 122.301 86.486 122.182 87.5565C121.11 100.244 120.634 113.011 120.277 125.818C119.92 138.624 119.682 151.431 119.404 164.198C119.086 176.964 118.729 189.731 118.293 202.498C118.054 208.882 117.856 215.265 117.618 221.649C117.34 228.032 117.102 234.415 116.626 240.72C116.467 243.693 118.412 243.931 118.65 240.958Z" fill="#811D65"/>
</g>
<g opacity="0.21">
<path opacity="0.21" d="M193.026 239.649C180.445 240.046 167.903 240.799 155.322 241.156C142.78 241.513 130.159 241.354 117.618 242.147C117.062 242.187 117.102 242.821 117.618 242.9C130.12 243.892 142.82 243.178 155.362 242.861C167.903 242.504 180.524 242.226 193.026 241.632C194.495 241.552 194.495 239.61 193.026 239.649Z" fill="#811D65"/>
</g>
<g opacity="0.21">
<path opacity="0.21" d="M188.978 91.3231C183.461 90.9663 177.984 90.7681 172.468 90.5698C166.991 90.3716 161.474 90.1337 155.997 89.7768C145.043 89.0235 134.088 87.6358 123.174 86.6446C122.698 86.605 122.619 87.2393 123.055 87.3583C128.373 88.746 133.89 89.5786 139.367 90.1337C144.884 90.6888 150.401 91.0456 155.878 91.4024C161.355 91.7593 166.871 92.1161 172.348 92.4333C177.826 92.7505 183.342 92.9884 188.819 93.2263C190.05 93.3452 190.248 91.4421 188.978 91.3231Z" fill="#811D65"/>
</g>
<g opacity="0.21">
<path opacity="0.21" d="M90.9468 390.235L92.455 390.037C92.9709 389.958 93.4869 389.958 94.0028 389.878L97.0985 389.601L103.369 389.204L109.64 388.887L115.911 388.61C124.285 388.292 132.66 388.015 141.074 387.896C149.448 387.777 157.862 387.777 166.236 387.698C170.443 387.658 174.65 387.618 178.818 387.46C183.025 387.301 187.192 387.182 191.359 386.746C192.074 386.667 192.034 386.032 191.32 385.993C187.152 385.913 182.985 385.874 178.818 385.795C174.611 385.755 170.443 385.755 166.236 385.755C157.822 385.795 149.408 385.993 141.034 386.112C132.66 386.231 124.246 386.389 115.871 386.627L109.561 386.825L103.25 387.103C101.147 387.222 99.0433 387.38 96.9398 387.499L93.8044 387.777C93.2884 387.817 92.7725 387.856 92.2168 387.936L90.6293 388.173C88.7639 388.57 89.1211 390.513 90.9468 390.235Z" fill="#811D65"/>
</g>
<g opacity="0.21">
<path opacity="0.21" d="M199.971 134.342C196.677 137.038 192.986 139.417 189.692 142.47C188.065 143.977 186.557 145.682 185.406 147.664C184.85 148.655 184.374 149.686 184.017 150.757C183.818 151.272 183.699 151.827 183.54 152.382C183.421 152.937 183.302 153.492 183.263 154.087C183.143 155.237 183.223 156.387 183.501 157.497C183.818 158.607 184.334 159.678 185.048 160.589C186.477 162.413 188.422 163.722 190.446 164.634C192.51 165.546 194.653 166.14 196.836 166.497C199.019 166.854 201.241 166.973 203.424 166.814C203.821 166.775 203.781 166.14 203.424 166.061C201.281 165.744 199.217 165.347 197.153 164.872C195.09 164.356 193.105 163.761 191.24 162.889C189.374 162.056 187.668 160.946 186.477 159.479C185.882 158.766 185.445 157.933 185.168 157.021C184.89 156.149 184.85 155.197 184.929 154.246C184.969 153.77 185.088 153.294 185.168 152.818C185.326 152.343 185.406 151.867 185.604 151.391C185.922 150.439 186.398 149.488 186.914 148.655C187.946 146.911 189.375 145.404 190.962 143.977C194.137 141.162 197.828 138.822 201.162 135.968C201.956 135.254 200.725 133.747 199.971 134.342Z" fill="#811D65"/>
</g>
<g opacity="0.21">
<path opacity="0.21" d="M188.382 182.674C186.16 182.396 183.858 181.921 181.596 181.445C179.294 180.969 177.032 180.493 174.73 180.057C170.126 179.185 165.482 178.392 160.759 178.075C158.418 177.916 156.036 177.876 153.615 178.114C151.234 178.352 148.813 178.868 146.67 180.176C145.598 180.85 144.646 181.722 143.971 182.793C143.296 183.863 142.899 185.092 142.78 186.322C142.621 187.551 142.701 188.78 142.86 189.969C143.018 191.159 143.336 192.348 143.812 193.458C144.725 195.718 146.193 197.661 147.9 199.326C149.607 200.992 151.591 202.379 153.615 203.569C157.703 205.987 162.069 207.732 166.395 209.476C167.467 209.913 168.578 210.349 169.61 210.785C170.681 211.221 171.753 211.736 172.825 212.173C174.968 213.124 177.111 214.036 179.333 214.829C181.556 215.622 183.779 216.336 186.12 216.772C187.271 216.97 188.462 217.129 189.652 217.089C190.843 217.049 192.113 216.811 193.105 216.058C193.74 215.424 193.145 215.107 192.669 215.463C191.835 215.979 190.764 216.098 189.692 216.058C188.621 216.019 187.509 215.781 186.398 215.503C184.215 214.948 182.072 214.155 179.929 213.322C177.786 212.45 175.682 211.499 173.579 210.547C172.507 210.071 171.475 209.556 170.364 209.08C169.292 208.604 168.181 208.168 167.109 207.732C162.783 205.987 158.457 204.282 154.528 202.023C152.583 200.873 150.718 199.604 149.091 198.097C147.503 196.591 146.154 194.806 145.36 192.824C144.963 191.833 144.685 190.802 144.526 189.731C144.368 188.661 144.328 187.59 144.447 186.559C144.646 184.498 145.757 182.753 147.543 181.722C149.329 180.652 151.512 180.176 153.734 179.978C155.957 179.78 158.259 179.819 160.561 180.017C165.125 180.374 169.729 181.167 174.293 182.04L181.159 183.427C183.461 183.863 185.723 184.339 188.105 184.617C189.216 184.736 189.811 184.26 189.811 183.784C189.851 183.308 189.414 182.793 188.382 182.674Z" fill="#811D65"/>
</g>
<g opacity="0.21">
<path opacity="0.21" d="M204.457 199.683C203.147 199.326 201.758 198.811 200.329 198.375C198.9 197.939 197.471 197.503 195.963 197.225C194.455 196.947 192.907 196.749 191.28 197.146C190.486 197.344 189.692 197.74 189.097 198.335C188.502 198.93 188.105 199.683 187.867 200.437C187.589 201.19 187.589 202.141 187.827 202.895C188.065 203.688 188.462 204.362 188.938 204.996C189.891 206.225 191.042 207.216 192.272 208.089C193.503 208.961 194.812 209.675 196.201 210.23C197.59 210.785 199.019 211.261 200.527 211.3C200.805 211.3 200.845 210.666 200.647 210.587C199.376 210.111 198.106 209.437 196.916 208.763C195.685 208.089 194.495 207.335 193.384 206.542C192.272 205.749 191.201 204.877 190.407 203.886C190.01 203.41 189.693 202.895 189.534 202.379C189.494 202.26 189.454 202.141 189.454 202.022C189.454 201.904 189.415 201.785 189.415 201.666C189.415 201.547 189.415 201.428 189.454 201.309C189.454 201.19 189.494 201.071 189.534 200.912C189.891 199.763 190.566 199.088 191.717 198.851C192.868 198.613 194.217 198.771 195.566 199.049C196.916 199.326 198.265 199.763 199.654 200.238C201.043 200.674 202.393 201.15 203.861 201.507C204.576 201.705 205.052 199.842 204.457 199.683Z" fill="#811D65"/>
</g>
<g opacity="0.21">
<path opacity="0.21" d="M206.996 113.408C205.885 112.773 204.694 112.456 203.543 112.297C202.392 112.099 201.241 112.06 200.13 112.06C197.908 112.06 195.725 112.218 193.582 112.179C191.438 112.139 189.255 111.901 187.39 111.108C186.437 110.711 185.644 110.156 184.969 109.443C184.294 108.729 183.858 107.777 183.501 106.786C183.421 106.628 182.786 106.707 182.786 106.905C182.707 108.055 182.945 109.363 183.699 110.474C184.413 111.584 185.564 112.377 186.715 112.853C187.866 113.328 189.057 113.566 190.208 113.685C191.359 113.804 192.47 113.844 193.582 113.883C195.804 113.923 197.947 113.883 200.09 114.002C202.194 114.121 204.258 114.32 206.083 115.113C206.322 115.271 207.512 113.725 206.996 113.408Z" fill="#811D65"/>
</g>
<g opacity="0.21">
<path opacity="0.21" d="M189.574 135.571C187.589 134.263 185.406 133.43 183.263 132.716C181.12 132.003 178.977 131.448 176.953 130.734C174.928 130.02 172.984 129.148 171.436 127.8C171.039 127.483 170.682 127.126 170.325 126.729C170.126 126.531 170.007 126.333 169.848 126.135C169.57 125.857 169.332 125.381 169.094 124.945L168.737 124.311C168.618 124.073 168.499 123.756 168.38 123.478C168.142 122.884 167.904 122.368 167.705 121.734L167.03 119.989L166.475 118.522L166.514 120.465L166.554 122.685V124.707V124.945L166.514 125.144L166.475 125.54L166.356 126.293C166.356 126.412 166.316 126.531 166.276 126.65L166.197 126.928L166.078 127.364C165.998 127.641 165.879 127.959 165.8 128.236C165.602 128.831 165.364 129.386 165.125 129.941C164.093 132.161 162.585 134.223 161.037 136.166C158.894 138.862 156.473 141.4 154.409 144.294C153.378 145.721 152.425 147.268 151.75 148.893C151.393 149.726 151.155 150.598 150.877 151.47C150.718 152.343 150.48 153.215 150.441 154.127C150.282 155.911 150.361 157.735 150.599 159.479C150.837 161.224 151.195 162.968 151.552 164.634C151.909 166.339 152.266 168.004 152.465 169.709C152.504 170.145 152.584 170.541 152.584 170.977L152.623 172.246L152.544 173.515C152.504 173.951 152.425 174.348 152.346 174.784C152.266 175.378 152.901 175.537 153.06 174.942C153.179 174.506 153.338 174.07 153.417 173.634L153.655 172.286L153.735 170.938C153.774 170.502 153.735 170.026 153.735 169.59C153.655 167.806 153.417 166.021 153.139 164.316C152.584 160.907 151.909 157.537 152.266 154.285C152.306 153.453 152.504 152.699 152.663 151.906C152.901 151.153 153.1 150.36 153.417 149.607C154.052 148.1 154.886 146.673 155.838 145.285C157.743 142.51 160.085 139.933 162.307 137.197C163.895 135.175 165.483 133.073 166.673 130.655C166.951 130.06 167.229 129.426 167.467 128.791C167.586 128.474 167.705 128.157 167.785 127.84L167.904 127.364L167.943 127.245V127.205C167.983 127.047 167.983 126.848 167.983 126.65C168.023 126.769 168.102 126.928 168.181 127.047L168.221 127.086L168.3 127.166C168.499 127.404 168.658 127.641 168.856 127.879C169.055 128.117 169.253 128.315 169.491 128.553C169.69 128.752 169.928 128.989 170.166 129.148C171.992 130.734 174.135 131.725 176.278 132.518C178.421 133.311 180.564 133.866 182.628 134.54C184.692 135.214 186.716 135.968 188.502 137.117C189.137 137.514 189.732 137.395 190.05 136.999C190.328 136.721 190.288 136.047 189.574 135.571Z" fill="#811D65"/>
</g>
<g opacity="0.21">
<path opacity="0.21" d="M156.513 209.08C153.417 208.802 150.282 208.366 147.107 208.089C145.519 207.93 143.932 207.811 142.344 207.772C141.55 207.732 140.757 207.732 139.963 207.732C139.566 207.732 139.169 207.732 138.772 207.732H138.177C137.939 207.732 137.621 207.732 137.383 207.772L136.55 207.811H136.153C136.034 207.851 135.796 207.772 135.915 207.97L136.272 209.595C136.431 210.19 136.55 210.468 136.669 210.904L137.105 212.054C137.74 213.56 138.574 214.988 139.566 216.256C141.55 218.834 143.971 220.895 146.432 222.878C146.631 223.036 147.107 222.6 146.948 222.362C145.122 219.745 142.86 217.486 141.074 215.107C140.161 213.917 139.367 212.688 138.772 211.34L138.336 210.309L138.177 209.794L138.137 209.675L138.097 209.595V209.556C138.097 209.516 138.058 209.516 138.058 209.476C138.058 209.437 138.098 209.476 138.137 209.437H138.177H138.256H138.812C139.209 209.437 139.566 209.437 139.963 209.437C140.717 209.437 141.511 209.476 142.265 209.516C143.813 209.635 145.36 209.794 146.908 209.992C150.004 210.388 153.139 210.864 156.315 211.023C156.989 211.062 157.227 209.159 156.513 209.08Z" fill="#811D65"/>
</g>
<g opacity="0.21">
<path opacity="0.21" d="M174.65 220.856C173.34 221.054 172.189 221.371 170.999 221.728C169.848 222.085 168.697 222.481 167.585 222.838C165.323 223.592 163.061 224.305 160.759 224.464C160.362 224.503 160.005 224.504 159.608 224.504C159.41 224.504 159.211 224.503 159.052 224.464L158.536 224.385C158.298 224.345 158.06 224.266 157.862 224.226C157.743 224.186 157.663 224.147 157.544 224.107L157.385 224.028L157.306 223.988L157.346 223.948L157.862 223.512L158.417 222.957C158.973 222.402 159.529 221.887 160.124 221.411C161.275 220.459 162.545 219.706 164.093 219.389C164.291 219.349 164.252 218.675 164.053 218.635C163.22 218.517 162.307 218.556 161.434 218.834C160.561 219.072 159.767 219.508 159.052 220.023C158.338 220.539 157.703 221.094 157.147 221.649L153.972 224.741C154.647 225.019 155.361 225.296 156.036 225.534L157.108 225.852C157.465 225.931 157.782 226.089 158.179 226.129L158.933 226.208C159.171 226.248 159.37 226.248 159.608 226.248C160.045 226.248 160.481 226.248 160.918 226.208C165.998 225.772 170.443 223.829 174.888 222.878C175.325 222.719 175.245 220.777 174.65 220.856Z" fill="#811D65"/>
</g>
<g opacity="0.21">
<path opacity="0.21" d="M188.303 168.123C182.707 166.299 177.032 164.277 171.237 162.651L170.126 162.334C169.61 162.176 169.134 162.096 168.618 161.977L168.261 161.898L168.062 161.858H168.022V161.898V161.977L167.983 162.731L167.943 163.484V163.88C167.943 163.999 167.943 164.158 167.943 164.237C167.983 165.784 168.142 167.29 168.499 168.797C168.856 170.304 169.412 171.771 170.324 173.079C170.761 173.713 171.356 174.308 172.031 174.744C172.706 175.18 173.5 175.458 174.254 175.498C174.532 175.498 174.571 174.863 174.373 174.784C173.103 174.308 172.309 173.317 171.674 172.167C171.039 171.017 170.642 169.709 170.324 168.361C170.007 167.013 169.808 165.585 169.729 164.198V164.079V164.039C169.729 163.999 169.729 163.96 169.729 163.999C169.769 163.999 169.769 163.999 169.808 163.999L170.285 164.118L170.801 164.277C176.437 165.863 181.874 168.321 187.668 169.986C188.303 170.145 188.939 168.321 188.303 168.123Z" fill="#811D65"/>
</g>
</g>
<defs>
<clipPath id="clip0">
<rect width="256" height="587" fill="white" transform="translate(0 -27)"/>
</clipPath>
</defs>
</svg>
