<svg width="270" height="345" viewBox="0 0 270 345" fill="none" xmlns="http://www.w3.org/2000/svg">
<g clip-path="url(#clip0)">
<g opacity="0.21">
<path opacity="0.21" d="M141.868 170.471C135.201 173.246 127.818 174.674 120.436 174.713C116.745 174.713 113.054 174.317 109.403 173.682C105.752 173.048 102.18 172.255 98.6076 171.303C98.29 171.224 98.0519 171.858 98.3694 171.977C101.703 173.762 105.394 174.872 109.125 175.506C112.856 176.141 116.666 176.339 120.436 176.339C124.207 176.339 127.977 176.061 131.748 175.466C135.478 174.832 139.169 173.841 142.622 172.255C143.376 171.938 142.622 170.154 141.868 170.471Z" fill="#811D65"/>
</g>
<g opacity="0.21">
<path opacity="0.21" d="M99.3618 172.136C106.029 169.361 113.412 167.933 120.794 167.894C124.485 167.894 128.176 168.29 131.827 168.924C135.479 169.559 139.05 170.352 142.622 171.303C142.94 171.383 143.178 170.748 142.861 170.629C139.527 168.845 135.836 167.735 132.105 167.101C128.374 166.466 124.564 166.268 120.794 166.268C117.023 166.268 113.253 166.546 109.482 167.14C105.752 167.775 102.061 168.766 98.6077 170.352C97.8536 170.629 98.6077 172.453 99.3618 172.136Z" fill="#811D65"/>
</g>
<g opacity="0.21">
<path opacity="0.21" d="M142.543 206.749C135.518 208.771 128.255 210.238 120.833 210.437C113.451 210.675 106.188 208.732 98.7266 208.771C98.4091 208.771 98.3694 209.445 98.6472 209.485C102.259 210.357 105.871 211.071 109.601 211.547C113.332 212.023 117.102 212.221 120.873 212.141C128.374 211.943 135.915 210.952 143.019 208.652C143.853 208.415 143.337 206.511 142.543 206.749Z" fill="#811D65"/>
</g>
<g opacity="0.21">
<path opacity="0.21" d="M144.13 208.177C143.932 202.15 143.456 196.163 143.376 190.137C143.297 184.11 143.773 178.083 143.059 172.096C143.019 171.819 142.384 171.859 142.305 172.096C141.233 178.083 141.63 184.15 141.67 190.137C141.749 196.163 141.709 202.19 142.146 208.177C142.186 208.851 144.13 208.851 144.13 208.177Z" fill="#811D65"/>
</g>
<g opacity="0.21">
<path opacity="0.21" d="M82.0178 150.052C76.7788 151.439 71.659 153.065 66.4201 153.977C61.1812 154.928 55.7835 155.285 50.4255 155.365C47.7267 155.404 45.0279 155.404 42.3687 155.365C39.7096 155.285 37.0505 154.849 34.3913 154.453C33.0419 154.254 31.7322 154.056 30.3431 153.898C29.6684 153.818 28.9936 153.779 28.3586 153.66C27.6839 153.58 27.0489 153.461 26.3742 153.342C25.0645 153.105 23.715 152.906 22.3656 152.748C21.0162 152.589 19.6271 152.47 18.2777 152.668C17.8014 152.748 17.9205 153.382 18.3571 153.382C19.5874 153.422 20.8972 153.699 22.1672 154.016C23.4769 154.334 24.7866 154.651 26.0567 154.968C26.7314 155.127 27.4061 155.285 28.0808 155.404C28.7555 155.523 29.5096 155.642 30.1446 155.721L34.1135 156.316C36.7726 156.713 39.5112 157.109 42.3291 157.149C43.0434 157.149 43.7182 157.149 44.3929 157.149L46.417 157.109C47.7664 157.109 49.1158 157.069 50.4652 157.069C55.8629 156.99 61.3399 156.752 66.7376 155.88C72.175 155.047 77.3742 153.422 82.5337 151.955C83.6847 151.638 83.2481 149.734 82.0178 150.052Z" fill="#811D65"/>
</g>
<g opacity="0.21">
<path opacity="0.21" d="M23.6755 152.708C23.1595 150.052 22.4848 147.594 21.8101 145.056C21.1751 142.518 20.5004 140.021 19.9844 137.483C18.8335 132.368 17.8413 127.254 16.095 122.377C16.0156 122.179 15.3806 122.298 15.3806 122.536C15.3806 127.848 17.2459 132.844 18.3572 137.84C19.3891 142.915 20.5004 148.03 21.7307 153.025C21.8101 153.501 23.7549 153.343 23.6755 152.708Z" fill="#811D65"/>
</g>
<g opacity="0.21">
<path opacity="0.21" d="M35.1852 120.434L35.1058 119.998L34.9867 119.562C34.9074 119.284 34.7486 119.007 34.6295 118.729C34.4708 118.452 34.2724 118.214 34.0739 117.976C33.8358 117.778 33.6373 117.54 33.3992 117.381C32.407 116.707 31.3354 116.469 30.3432 116.39C28.3587 116.271 26.5331 116.707 24.7074 117.143C22.9214 117.579 21.1354 118.095 19.4288 118.809C17.7618 119.562 16.0949 120.474 14.9043 121.941C14.7852 122.06 15.2615 122.536 15.3805 122.496C17.0078 121.822 18.5953 121.187 20.1829 120.513C21.7704 119.839 23.3976 119.165 25.0646 118.769C26.7315 118.333 28.4778 118.095 30.0257 118.253C30.8194 118.333 31.5338 118.531 32.0895 118.888C32.6451 119.245 33.0023 119.8 33.2008 120.593C33.3198 120.95 35.2646 120.989 35.1852 120.434Z" fill="#811D65"/>
</g>
<g opacity="0.21">
<path opacity="0.21" d="M35.0266 155.523C35.1456 153.818 35.1456 152.153 35.1456 150.527C35.1456 148.862 35.106 147.237 35.0663 145.571C34.9869 142.28 34.8678 138.99 34.8678 135.738C34.8281 132.448 34.9472 129.196 34.9869 125.906C35.0266 122.615 34.9869 119.364 34.8281 116.112C34.8281 115.835 34.1534 115.756 34.1137 116.033C33.3597 119.324 33.2009 122.615 33.1215 125.906C33.0818 129.196 33.1612 132.487 33.1612 135.738C33.1612 138.99 33.1612 142.28 33.1612 145.571C33.1215 148.823 33.2009 152.113 33.0818 155.325C33.0421 156.039 34.9869 156.316 35.0266 155.523Z" fill="#811D65"/>
</g>
<g opacity="0.21">
<path opacity="0.21" d="M48.8779 114.685C48.1238 114.249 47.4491 114.09 46.8141 113.932C46.1394 113.813 45.5043 113.733 44.8296 113.694C43.5199 113.615 42.2499 113.615 40.9798 113.615C39.7098 113.615 38.4398 113.575 37.1697 113.813C36.5347 113.932 35.8997 114.09 35.2647 114.447C34.9472 114.606 34.6693 114.844 34.4312 115.121C34.1931 115.399 33.9946 115.756 33.9946 116.112C33.9946 116.231 34.6296 116.39 34.6693 116.35C35.0265 116.112 35.4631 116.073 35.9394 115.954C36.4156 115.874 36.9316 115.756 37.4872 115.676C38.5985 115.518 39.7495 115.319 40.9005 115.319C42.0911 115.319 43.2421 115.438 44.4328 115.597C45.5837 115.756 46.7744 115.954 47.7269 116.35C47.9254 116.35 49.2748 114.923 48.8779 114.685Z" fill="#811D65"/>
</g>
<g opacity="0.21">
<path opacity="0.21" d="M49.4334 155.84C49.354 149.021 49.1556 142.201 49.1953 135.342C49.235 128.522 49.6715 121.624 48.5206 114.844C48.4809 114.566 47.8062 114.606 47.7665 114.883C47.1315 121.703 47.5283 128.523 47.4887 135.302C47.449 142.122 47.1711 148.942 47.449 155.801C47.5283 156.554 49.4731 156.594 49.4334 155.84Z" fill="#811D65"/>
</g>
<g opacity="0.21">
<path opacity="0.21" d="M48.362 122.297C49.8305 122.892 51.1799 122.971 52.5293 122.971C53.8787 122.971 55.1885 122.853 56.4982 122.615C57.8079 122.416 59.078 122.099 60.3083 121.663C60.6258 121.544 60.9433 121.425 61.2211 121.306C61.3799 121.227 61.618 121.148 61.7768 121.029L62.3324 120.672C62.5309 120.553 62.6499 120.434 62.8087 120.275C62.9278 120.117 63.2056 120.037 63.0468 119.8C62.8881 119.403 62.7293 119.046 62.4515 118.689C62.2927 118.531 62.134 118.372 61.9752 118.253C61.7768 118.134 61.618 117.976 61.4196 117.896C61.1021 117.738 60.7846 117.579 60.4671 117.46C59.832 117.222 59.1573 117.103 58.5223 117.024C57.2126 116.826 55.9029 116.826 54.5931 116.985C53.2834 117.103 52.0134 117.381 50.783 117.896C50.1877 118.134 49.5527 118.452 49.0367 118.848C48.5208 119.245 47.9651 119.76 47.7667 120.474C47.6873 120.712 48.3223 120.87 48.4414 120.751C48.7192 120.394 49.1955 120.156 49.7114 119.958C50.2274 119.76 50.783 119.601 51.3387 119.443C52.4499 119.165 53.6406 118.967 54.8313 118.848C56.0219 118.729 57.2126 118.689 58.3239 118.808C58.8795 118.848 59.4351 118.967 59.9511 119.126C60.1892 119.205 60.4274 119.284 60.6258 119.403C60.7052 119.443 60.7052 119.443 60.7449 119.443C60.7846 119.482 60.7846 119.482 60.8243 119.522C60.8243 119.562 60.7846 119.562 60.7846 119.601L60.7449 119.641C60.7052 119.641 60.7449 119.641 60.6258 119.72C60.3877 119.839 60.1099 119.919 59.832 119.998C58.7208 120.355 57.5301 120.593 56.3394 120.751C55.1488 120.91 53.9184 120.989 52.7278 120.989C51.5371 120.989 50.3067 120.91 49.2748 120.553C48.7986 120.355 47.6476 121.98 48.362 122.297Z" fill="#811D65"/>
</g>
<g opacity="0.21">
<path opacity="0.21" d="M66.8571 154.373C66.103 148.704 65.2298 142.955 64.6742 137.245C64.1186 131.536 64.1582 125.707 62.8088 120.077C62.7691 119.839 62.0944 119.919 62.0944 120.157C61.6579 125.906 62.4516 131.655 63.0073 137.404C63.5629 143.113 63.9598 148.902 64.9123 154.572C64.9917 155.246 66.9365 155.047 66.8571 154.373Z" fill="#811D65"/>
</g>
<g opacity="0.21">
<path opacity="0.21" d="M52.7671 155.523C52.013 149.933 51.1399 144.303 50.5842 138.673C50.0286 133.042 50.0683 127.333 48.7189 121.743C48.6792 121.505 48.0045 121.584 48.0045 121.822C47.5679 127.492 48.3617 133.161 48.9173 138.791C49.473 144.422 49.8698 150.091 50.8224 155.682C50.9017 156.356 52.8465 156.158 52.7671 155.523Z" fill="#811D65"/>
</g>
<g opacity="0.21">
<path opacity="0.21" d="M64.4357 128.245L65.3485 121.386L65.4676 120.513C65.5073 120.355 65.547 120.196 65.6264 120.077C65.7851 119.8 66.0629 119.562 66.3804 119.443C66.6186 119.324 67.2933 119.363 67.8489 119.324C68.4046 119.284 68.9999 119.284 69.5555 119.284C70.6668 119.284 71.7781 119.324 72.8894 119.482C73.445 119.562 73.961 119.681 74.4769 119.879C74.7151 119.958 74.9929 120.077 75.231 120.156C75.5088 120.236 75.747 120.355 75.9851 120.474C76.9773 120.949 77.8505 121.544 78.2077 122.456C78.5649 123.328 78.4855 124.478 78.2871 125.588C78.0886 126.699 77.8505 127.848 77.6124 128.959L76.9376 132.368C76.5011 134.628 76.1042 136.928 75.6676 139.188C74.8738 143.747 74.1594 148.307 73.4847 152.867C73.445 153.263 74.0801 153.422 74.1991 153.025C75.747 148.624 76.6995 144.065 77.533 139.505C77.9299 137.205 78.3267 134.945 78.6839 132.685C78.8824 131.536 79.0808 130.426 79.2793 129.276C79.4777 128.126 79.7159 127.055 79.9143 125.826C80.0334 125.232 80.0731 124.597 80.1127 123.923C80.1127 123.249 80.0334 122.496 79.7555 121.782C79.4777 121.029 78.9618 120.434 78.4458 119.958C78.168 119.76 77.8902 119.522 77.6124 119.324C77.3345 119.126 77.0567 118.967 76.7789 118.848C76.5011 118.689 76.2232 118.571 75.9057 118.452C75.6279 118.333 75.3501 118.214 75.0326 118.095C74.4373 117.896 73.8022 117.738 73.2069 117.619C71.9766 117.381 70.7462 117.302 69.5555 117.302C68.9602 117.302 68.3649 117.302 67.7695 117.341L66.8964 117.381C66.6583 117.381 66.1423 117.421 65.7851 117.54C64.9913 117.778 64.2769 118.333 63.8801 119.007C63.6816 119.363 63.5229 119.76 63.4435 120.156L63.3244 121.029C63.0069 123.328 62.7291 125.628 62.4513 127.928C62.3719 128.958 64.2769 129.315 64.4357 128.245Z" fill="#811D65"/>
</g>
<g opacity="0.21">
<path opacity="0.21" d="M83.0101 150.964C85.1136 142.875 86.8995 134.708 88.884 126.58C89.1221 125.549 89.3999 124.558 89.5984 123.487C89.7968 122.456 89.9556 121.346 89.7571 120.157C89.5587 118.967 88.6855 117.897 87.733 117.341C86.7805 116.747 85.7486 116.35 84.7167 116.033L83.2085 115.597C82.6925 115.438 82.2163 115.28 81.7003 115.161C80.6684 114.883 79.5571 114.645 78.4062 114.764C77.2552 114.844 76.1042 115.28 75.3104 116.112C74.5167 116.905 74.0007 117.936 73.7229 118.967C73.6038 119.324 74.2389 119.522 74.3976 119.205C74.8342 118.333 75.4692 117.579 76.1439 117.064C76.8186 116.588 77.6124 116.39 78.4855 116.39C79.3587 116.39 80.2715 116.628 81.1844 116.905C81.6606 117.064 82.1369 117.223 82.6529 117.381L84.161 117.857C85.1136 118.174 86.0264 118.491 86.7408 118.927C86.9392 119.046 87.0583 119.165 87.2171 119.284C87.3361 119.403 87.4949 119.522 87.5743 119.641C87.8124 119.879 87.8918 120.196 88.0108 120.553C88.1696 121.267 88.0902 122.218 87.9315 123.21C87.8521 123.685 87.733 124.161 87.6139 124.677L87.2567 126.183C85.2723 134.272 83.0101 142.32 81.105 150.448C80.9066 151.321 82.7719 151.876 83.0101 150.964Z" fill="#811D65"/>
</g>
<g opacity="0.21">
<path opacity="0.21" d="M33.0026 222.926C31.3356 220.587 29.9862 217.891 28.7162 215.194C27.4858 212.459 26.3745 209.644 25.2633 206.829C23.0804 201.198 21.1356 195.449 19.6275 189.581C18.159 183.713 17.2065 177.726 16.8096 171.7C16.7302 170.946 16.7302 170.193 16.7302 169.44L16.6508 167.18L16.6905 164.92L16.7302 163.81C16.7302 163.453 16.7699 163.056 16.8096 162.7L16.9683 160.44C17.0477 159.686 17.1668 158.933 17.2461 158.219C17.4049 156.713 17.7621 155.246 18.0002 153.779C18.0796 153.263 17.4446 153.105 17.2858 153.58C16.8096 155.047 16.2539 156.475 15.9761 157.981C15.8174 158.735 15.6189 159.488 15.4998 160.241L15.1823 162.541C15.1426 162.937 15.0633 163.294 15.0236 163.691L14.9442 164.841L14.8251 167.18L14.8648 169.519C14.8648 170.312 14.8648 171.065 14.9442 171.819C15.3014 178.004 16.4921 184.07 18.0002 189.978C19.5084 195.886 21.3341 201.754 23.4376 207.463C24.5092 210.318 25.5808 213.172 26.8508 215.987C28.1209 218.763 29.51 221.538 31.3753 224.076C32.2882 225.226 33.7963 223.957 33.0026 222.926Z" fill="#811D65"/>
</g>
<g opacity="0.21">
<path opacity="0.21" d="M72.8099 223.64C74.0006 220.745 75.35 217.851 76.62 214.917C77.255 213.45 77.8504 211.943 78.4457 210.437C79.0013 208.93 79.5173 207.384 80.0332 205.877C82.0177 199.811 83.8037 193.665 85.1531 187.401C85.8278 184.268 86.4231 181.136 86.82 177.964C87.2169 174.792 87.4947 171.581 87.455 168.369C87.4153 165.158 87.1375 161.907 86.3834 158.774C85.669 155.642 84.4784 152.589 82.8511 149.853C82.5733 149.378 82.0177 149.695 82.2161 150.21C83.4068 153.105 84.2799 156.078 84.7959 159.131C85.3515 162.184 85.5897 165.277 85.5897 168.409C85.6294 171.541 85.4309 174.673 85.0737 177.766C84.7165 180.898 84.2006 183.991 83.5259 187.083C82.1764 193.229 80.3111 199.295 78.2473 205.282C77.7313 206.789 77.2153 208.296 76.6597 209.723C76.1041 211.19 75.469 212.657 74.834 214.084C73.564 216.979 72.2543 219.873 71.0636 222.847C70.4683 224.234 72.2543 224.948 72.8099 223.64Z" fill="#811D65"/>
</g>
<g opacity="0.21">
<path opacity="0.21" d="M70.8654 223.005C69.7938 224.036 68.365 224.829 66.8965 225.503C65.428 226.177 63.8405 226.732 62.2132 227.168C58.9984 228.041 55.6249 228.556 52.2514 228.675C48.8778 228.794 45.5043 228.477 42.2101 227.882C40.5432 227.565 38.9159 227.168 37.3681 226.653C35.7805 226.138 34.2724 225.464 32.8833 224.512C32.6451 224.353 32.2086 224.829 32.407 225.067C33.5977 226.455 35.1455 227.446 36.7728 228.16C38.4 228.873 40.1463 229.389 41.8529 229.706C45.3058 230.34 48.8381 230.459 52.291 230.34C55.744 230.221 59.2366 229.825 62.6101 229.032C64.3167 228.635 65.9836 228.08 67.6109 227.367C69.2381 226.653 70.8257 225.781 72.1354 224.472C72.7704 223.878 71.3019 222.53 70.8654 223.005Z" fill="#811D65"/>
</g>
<g opacity="0.21">
<path opacity="0.21" d="M47.9648 228.318C47.4488 226.97 46.9725 225.463 46.536 223.996C46.0994 222.529 45.7025 221.023 45.3056 219.516L42.9243 210.476C41.3368 204.45 39.7095 198.463 38.5585 192.357C37.9632 189.304 37.5266 186.251 37.2091 183.158C36.8916 180.026 36.4947 176.933 36.0978 173.841C35.8994 172.294 35.701 170.748 35.5422 169.202C35.3834 167.656 35.2247 166.149 35.1453 164.603C35.0659 163.056 35.0263 161.51 35.0659 159.964C35.0659 159.21 35.1056 158.417 35.2247 157.664C35.3041 156.911 35.4231 156.118 35.7803 155.523C35.8994 155.325 35.8994 155.166 35.82 155.008C35.7803 154.928 35.701 154.889 35.5819 154.889C35.4628 154.889 35.3438 154.968 35.185 155.087C34.55 155.88 34.3912 156.673 34.1531 157.466C33.9547 158.259 33.8356 159.052 33.7562 159.845C33.5578 161.431 33.5181 163.017 33.4784 164.603C33.4784 166.189 33.5578 167.775 33.6768 169.36C33.7959 170.946 33.9943 172.493 34.1531 174.039C34.55 177.132 34.9866 180.224 35.3438 183.317C35.701 186.449 36.2169 189.542 36.7726 192.634C37.9235 198.78 39.4317 204.886 40.9399 210.912C41.694 213.926 42.4083 216.939 43.2021 219.992C43.599 221.499 43.9959 223.005 44.4722 224.512C44.9087 226.019 45.385 227.525 46.02 228.992C46.1788 229.349 46.4169 229.547 46.655 229.627C46.8932 229.706 47.171 229.666 47.3694 229.547C47.5679 229.428 47.7663 229.23 47.8457 229.032C48.0838 228.873 48.0838 228.596 47.9648 228.318Z" fill="#811D65"/>
</g>
<g opacity="0.21">
<path opacity="0.21" d="M60.6256 228.08C61.0224 225.028 61.34 221.975 61.6178 218.961L62.5703 209.882C63.1656 203.815 63.6419 197.749 64.1975 191.683C64.4754 188.67 64.7929 185.617 65.1104 182.603C65.3882 179.55 65.4676 176.458 65.4676 173.405C65.4676 170.352 65.3485 167.299 65.3882 164.286C65.4279 162.779 65.4279 161.233 65.2691 159.686C65.1104 158.14 64.7135 156.554 63.8007 155.285C63.4831 154.849 62.9672 155.246 63.1656 155.682C63.761 156.951 63.9594 158.378 63.9594 159.805C63.9594 161.272 63.8403 162.739 63.7213 164.246C63.6816 164.999 63.6022 165.792 63.6022 166.585L63.5625 168.885V173.444C63.5625 176.497 63.5625 179.511 63.3244 182.484C63.0466 185.537 62.7688 188.551 62.4909 191.564C61.9353 197.63 61.34 203.657 60.6256 209.723C60.2684 212.736 59.8715 215.75 59.554 218.803C59.2365 221.856 58.9586 224.869 58.6014 227.843C58.4824 229.151 60.4271 229.468 60.6256 228.08Z" fill="#811D65"/>
</g>
<g opacity="0.21">
<path opacity="0.21" d="M73.0479 217.653C67.2931 222.093 59.7919 224.314 52.2907 224.353C48.56 224.393 44.7896 223.838 41.1382 222.966C37.4869 222.093 33.9149 220.904 30.4223 219.556C30.1048 219.437 29.8269 220.032 30.1048 220.23C33.2799 222.411 36.9312 223.917 40.7413 224.829C44.5118 225.741 48.4409 226.098 52.3304 226.098C56.2199 226.058 60.1094 225.622 63.8799 224.552C67.6106 223.481 71.2223 221.737 74.2386 219.278C74.9133 218.684 73.7226 217.177 73.0479 217.653Z" fill="#811D65"/>
</g>
<g opacity="0.21">
<path opacity="0.21" d="M83.1689 186.766C81.3432 188.471 78.8825 189.661 76.3424 190.493C73.8023 191.366 71.1035 191.921 68.365 192.317C62.8879 193.11 57.3315 193.229 51.7751 193.269C46.2187 193.308 40.6226 193.308 35.1455 192.515C32.407 192.079 29.7082 191.524 26.9697 190.93C25.6203 190.652 24.2708 190.335 22.9214 190.018C21.572 189.7 20.2226 189.344 18.9526 188.907C18.516 188.749 18.2382 189.344 18.6747 189.582C19.9448 190.256 21.2545 190.771 22.6039 191.247C23.9136 191.723 25.2631 192.159 26.6125 192.515C29.3113 193.269 32.0498 193.903 34.9074 194.339C40.5829 195.172 46.2584 194.974 51.8148 194.934C57.3712 194.894 63.007 194.894 68.6428 194.22C71.4607 193.864 74.2786 193.348 76.9774 192.436C79.6763 191.524 82.3751 190.256 84.5183 188.233C85.4311 187.203 83.923 185.973 83.1689 186.766Z" fill="#811D65"/>
</g>
<g opacity="0.21">
<path opacity="0.21" d="M53.4818 224.195C52.688 218.684 52.1324 213.093 51.6561 207.542C51.1799 201.952 50.902 196.361 50.8623 190.731C50.6242 179.471 50.1876 168.211 49.4335 157.03C49.3939 156.554 48.7588 156.554 48.6795 157.03C47.6079 168.25 48.9573 179.59 49.1557 190.731C49.1954 193.507 49.1954 196.361 49.3145 199.176C49.3939 201.991 49.5526 204.807 49.7114 207.622C50.0686 213.252 50.5448 218.882 51.4974 224.433C51.7752 225.741 53.6802 225.463 53.4818 224.195Z" fill="#811D65"/>
</g>
<g opacity="0.21">
<path opacity="0.21" d="M69.8333 220.825C71.5796 209.683 74.7546 198.621 75.7469 187.203C76.2628 181.533 76.5803 175.784 76.4216 170.074C76.2628 164.365 75.6278 158.616 74.2784 153.105C74.1593 152.629 73.5243 152.748 73.564 153.224C74.0006 158.854 74.4371 164.484 74.5562 170.114C74.6753 175.744 74.5562 181.414 74.0799 187.044C73.0877 198.225 69.4761 209.168 67.9282 220.507C67.6901 221.776 69.6348 222.093 69.8333 220.825Z" fill="#811D65"/>
</g>
<g opacity="0.21">
<path opacity="0.21" d="M35.6218 220.349C33.9946 214.957 32.3277 209.604 30.7401 204.252C29.1526 198.859 27.7238 193.467 26.4934 187.956C25.2234 182.484 24.1915 176.973 23.5961 171.422C23.0405 165.872 22.8024 160.281 24.0327 154.849C24.1121 154.373 23.5168 154.175 23.3183 154.651C22.207 157.307 21.6911 160.202 21.4926 163.057C21.2942 165.911 21.4133 168.806 21.7308 171.66C22.3261 177.33 23.5961 182.881 24.8265 188.352C26.0568 193.824 27.3666 199.335 28.8747 204.767C30.3432 210.199 31.9705 215.591 33.7168 220.944C34.1137 222.133 36.0187 221.618 35.6218 220.349Z" fill="#811D65"/>
</g>
<g opacity="0.21">
<path opacity="0.21" d="M99.9176 208.653L99.7588 208.177C99.7192 208.018 99.6795 207.82 99.6398 207.622C99.5604 207.265 99.481 206.908 99.4413 206.512C99.362 205.758 99.2032 205.005 99.1238 204.212C98.9254 202.666 98.8063 201.119 98.6872 199.533C98.4491 196.401 98.33 193.269 98.33 190.097C98.33 186.965 98.5285 183.793 98.6872 180.661C98.846 177.528 98.9651 174.356 98.9651 171.224C98.9651 170.947 98.2904 170.867 98.2507 171.145C97.3775 174.237 97.0203 177.409 96.8219 180.581C96.6234 183.753 96.6631 186.925 96.6234 190.097C96.6234 193.269 96.5837 196.441 96.7425 199.613C96.8219 201.199 96.9012 202.785 97.0997 204.371C97.2981 205.956 97.4569 207.542 98.0125 209.168C98.2904 209.961 100.076 209.168 99.9176 208.653Z" fill="#811D65"/>
</g>
<g opacity="0.21">
<path opacity="0.21" d="M177.787 117.54C175.286 119.324 172.349 120.632 169.373 121.861C166.396 123.09 163.3 124.24 160.363 125.826C154.529 128.998 149.369 133.082 144.567 137.523C143.376 138.633 142.186 139.743 140.995 140.893C140.4 141.448 139.844 142.082 139.289 142.677C138.733 143.272 138.217 143.946 137.661 144.54C135.598 147.118 133.851 149.933 132.422 152.906C130.954 155.84 129.763 158.893 128.573 161.907C127.382 164.92 126.231 167.933 124.842 170.867C124.604 171.383 125.199 171.7 125.477 171.224C127.263 168.488 128.731 165.515 130.041 162.541C131.391 159.567 132.621 156.594 134.05 153.739C135.478 150.884 137.066 148.148 139.011 145.651C139.527 145.056 140.003 144.422 140.519 143.827C141.075 143.272 141.59 142.677 142.146 142.122C143.297 140.972 144.448 139.862 145.639 138.791C150.362 134.47 155.521 130.544 161.157 127.571C163.975 126.143 167.031 125.033 170.047 123.804C173.064 122.575 176.12 121.227 178.819 119.205C180.128 118.174 178.858 116.707 177.787 117.54Z" fill="#811D65"/>
</g>
<g opacity="0.21">
<path opacity="0.21" d="M137.622 152.351C145.52 152.074 153.18 150.012 160.363 146.959C167.547 143.906 174.215 139.783 180.168 134.787C186.082 129.791 191.321 123.804 194.932 116.905C196.718 113.456 198.107 109.768 198.901 105.962C199.1 105.011 199.298 104.059 199.377 103.068C199.497 102.116 199.616 101.125 199.616 100.173L199.655 98.7065C199.695 98.2307 199.616 97.7153 199.616 97.2395L199.536 95.4156V95.1777V95.0588V94.9795H199.497H198.981H197.988H197.75C197.671 94.9795 197.631 94.9795 197.552 94.9795L197.195 95.0191L196.441 95.0984C195.964 95.1381 195.488 95.2174 194.972 95.2967C194.496 95.376 194.02 95.4949 193.543 95.5742C193.067 95.6932 192.591 95.8121 192.114 95.931C190.249 96.4068 188.384 97.0412 186.558 97.7152C182.907 99.0237 179.414 100.61 175.802 101.918C168.579 104.575 161.475 107.826 154.926 111.949C151.632 114.011 148.536 116.39 145.718 119.046C142.9 121.703 140.321 124.637 138.178 127.888C137.9 128.284 137.622 128.681 137.384 129.117C137.146 129.553 136.868 129.95 136.63 130.386C136.392 130.822 136.153 131.218 135.915 131.655C135.717 132.091 135.479 132.527 135.28 132.963C134.486 134.747 133.812 136.571 133.256 138.395C132.7 140.258 132.224 142.122 132.026 144.065C131.946 145.016 131.907 146.007 132.065 146.999C132.145 147.475 132.264 147.99 132.462 148.426C132.7 148.902 132.978 149.298 133.375 149.616C133.653 149.814 133.931 149.893 134.09 149.893C134.288 149.893 134.367 149.853 134.407 149.774C134.447 149.695 134.407 149.576 134.288 149.457C134.169 149.338 134.05 149.219 133.851 149.06C133.574 148.823 133.375 148.466 133.216 148.109C133.097 147.712 132.978 147.316 132.939 146.88C132.859 146.007 132.939 145.096 133.058 144.184C133.335 142.36 133.851 140.576 134.486 138.791C135.121 137.007 135.836 135.263 136.63 133.558C136.828 133.122 137.027 132.725 137.265 132.329C137.463 131.932 137.741 131.536 137.939 131.139C138.178 130.743 138.416 130.346 138.693 129.95C138.932 129.553 139.209 129.157 139.487 128.8C141.63 125.707 144.131 122.892 146.909 120.355C149.687 117.778 152.704 115.518 155.879 113.495C162.308 109.451 169.254 106.24 176.398 103.544C180.049 102.196 183.542 100.61 187.114 99.3012C188.9 98.6272 190.686 98.0324 192.472 97.5567C192.908 97.4377 193.384 97.3188 193.821 97.2395C194.258 97.1602 194.734 97.0412 195.17 96.9619C195.607 96.8826 196.083 96.8033 196.52 96.7637L197.711 96.6844H197.79H197.83V96.724L197.869 97.3188C197.869 97.7945 197.949 98.2307 197.909 98.7065L197.869 100.094C197.869 101.006 197.75 101.958 197.631 102.87C197.552 103.782 197.353 104.693 197.155 105.605C196.401 109.253 195.051 112.782 193.305 116.073C189.813 122.734 184.693 128.483 178.898 133.32C173.064 138.157 166.515 142.122 159.53 145.096C152.545 148.03 145.083 150.052 137.542 150.369C134.169 150.409 133.971 152.391 137.622 152.351Z" fill="#811D65"/>
</g>
<g opacity="0.21">
<path opacity="0.21" d="M122.778 171.938C122.659 165.99 123.254 160.003 124.048 154.056C124.842 148.109 125.913 142.122 126.787 136.135C127.66 130.148 128.176 124.082 128.811 118.095C129.446 112.108 130.16 106.121 131.708 100.332C131.827 99.8167 131.192 99.6185 130.994 100.094C129.763 102.909 128.93 105.843 128.295 108.857C127.66 111.83 127.263 114.883 126.906 117.897C126.231 123.963 125.953 129.989 125.08 135.897C124.207 141.844 123.056 147.752 122.143 153.779C121.23 159.766 120.555 165.872 120.794 171.938C120.833 173.365 122.778 173.326 122.778 171.938Z" fill="#811D65"/>
</g>
<g opacity="0.21">
<path opacity="0.21" d="M135.994 128.443L127.144 135.818L126.866 136.056L126.747 136.135L126.707 136.175L126.588 136.254L126.549 136.294C126.549 136.294 126.549 136.294 126.549 136.254V136.175V136.016V135.897V135.54C126.549 135.302 126.549 135.064 126.509 134.787L126.39 133.32L126.191 131.813C126.112 131.337 125.993 130.822 125.914 130.346C125.477 128.364 124.683 126.461 123.691 124.716C122.659 122.972 121.468 121.425 120.238 119.919L118.412 117.698L117.579 116.588L116.825 115.438C115.872 113.852 115.158 112.148 114.642 110.363C113.57 106.795 113.332 103.028 113.57 99.2617C113.689 97.3982 113.928 95.495 114.285 93.6712C114.642 91.8474 115.237 90.0235 115.872 88.2393C117.142 84.6709 118.65 81.1422 120.278 77.6927C121.945 74.2433 123.77 70.8732 125.834 67.7013C126.866 66.1153 127.977 64.569 129.168 63.102C130.359 61.635 131.668 60.2473 133.097 59.0975C134.526 57.9477 136.193 56.9565 137.939 56.7979C138.812 56.7186 139.686 56.8375 140.479 57.1944C141.273 57.5512 141.987 58.1063 142.622 58.7406C143.258 59.375 143.813 60.168 144.289 60.961C144.766 61.754 145.202 62.5866 145.559 63.4589C146.314 65.1638 146.909 66.9876 147.345 68.8114C147.782 70.6353 148.1 72.5384 148.219 74.4019C148.298 75.3535 148.258 76.2654 148.298 77.2566C148.338 77.7324 148.377 78.2478 148.417 78.7236C148.457 78.9615 148.457 79.1597 148.417 79.2787C148.377 79.3976 148.338 79.5562 148.219 79.7148C147.98 80.032 147.703 80.3889 147.385 80.7457C147.068 81.0629 146.829 81.3008 146.433 81.5387C145.718 81.9352 144.766 82.1334 143.813 82.5696C143.575 82.6885 143.337 82.8074 143.099 82.966L142.702 83.2832C142.543 83.4022 142.464 83.5211 142.345 83.6797C141.908 84.2348 141.71 84.8295 141.551 85.4639C141.551 85.5432 141.472 85.6225 141.511 85.7018L141.71 85.7811L142.146 85.9397C142.305 85.9793 142.424 86.0586 142.583 86.0983L143.099 86.2172L143.615 86.3362L144.051 86.4155C144.289 86.4551 144.528 86.4948 144.805 86.5344C145.282 86.5741 145.798 86.6137 146.155 86.693C146.353 86.7327 146.433 86.7723 146.552 86.8913C146.671 86.9706 146.79 87.1291 146.909 87.2877C147.345 88.0014 147.742 88.953 148.06 89.7856C148.695 91.4905 149.012 93.3937 149.211 95.2572C149.409 97.1206 149.608 99.0634 149.528 100.927C149.489 102.79 149.211 104.694 148.893 106.557C148.258 110.324 147.306 114.011 146.591 117.778C146.353 119.086 147.028 119.165 147.306 117.936C148.179 114.249 149.33 110.601 150.124 106.835C150.521 104.931 150.838 103.028 150.957 101.006C150.957 100.491 150.997 100.015 150.997 99.4995V98.7462L150.957 98.0326C150.917 97.081 150.838 96.0898 150.759 95.0985C150.56 93.1558 150.322 91.1733 149.608 89.1909C149.211 88.1997 148.933 87.3671 148.338 86.3362C148.179 86.0586 147.98 85.7811 147.663 85.5035C147.504 85.3846 147.306 85.226 147.107 85.1467C146.909 85.0674 146.71 84.9485 146.512 84.9485C145.798 84.7899 145.361 84.7899 144.924 84.7106C144.726 84.6709 144.488 84.6709 144.289 84.5916L144.091 84.552C144.091 84.552 144.051 84.552 144.051 84.5123C144.051 84.5123 144.051 84.4727 144.091 84.4727C144.17 84.433 144.369 84.3141 144.528 84.2348C145.202 83.9176 146.234 83.7194 147.306 83.1643L147.703 82.9264L148.1 82.6488C148.219 82.5695 148.338 82.4109 148.457 82.3316C148.576 82.2127 148.695 82.0938 148.774 82.0145C149.092 81.6576 149.449 81.2611 149.806 80.7457C150.005 80.4682 150.203 80.0717 150.282 79.5959C150.362 79.1201 150.322 78.8029 150.282 78.5254C150.243 78.0099 150.163 77.6135 150.163 77.1377C150.163 76.8998 150.124 76.7015 150.124 76.4636V75.75C150.124 75.2345 150.084 74.7588 150.044 74.2433C149.886 72.2212 149.568 70.2784 149.092 68.3356C148.615 66.3929 147.98 64.4897 147.187 62.6659C146.79 61.754 146.314 60.842 145.758 59.9698C145.202 59.0975 144.607 58.2252 143.853 57.4719C143.099 56.7186 142.186 56.0049 141.114 55.5291C140.043 55.0533 138.812 54.8947 137.701 55.0137C136.55 55.1326 135.479 55.5291 134.526 56.0049C133.573 56.4807 132.7 57.0754 131.907 57.7494C130.319 59.0182 128.97 60.5248 127.739 62.0315C126.509 63.5778 125.358 65.1637 124.326 66.7893C122.222 70.0405 120.357 73.4503 118.65 76.9394C116.944 80.4285 115.436 83.9969 114.126 87.6446C113.491 89.4684 112.856 91.3319 112.419 93.3144C112.022 95.2571 111.784 97.1999 111.626 99.1427C111.348 103.068 111.586 107.072 112.697 110.918C113.253 112.822 114.047 114.685 115.039 116.43L115.833 117.698L116.745 118.927L118.571 121.187C119.762 122.654 120.913 124.161 121.826 125.747C122.738 127.333 123.453 128.998 123.81 130.822C123.889 131.258 124.008 131.734 124.088 132.17L124.286 133.558L124.405 134.946C124.445 135.183 124.405 135.421 124.445 135.659V136.571L124.405 138.99L124.366 140.179V140.457V140.615C124.366 140.615 124.366 140.695 124.366 140.655L124.405 140.615L124.882 140.219L128.335 137.364C131.272 134.906 134.208 132.408 137.106 129.95C139.924 127.69 138.693 126.183 135.994 128.443Z" fill="#811D65"/>
</g>
<g opacity="0.21">
<path opacity="0.21" d="M134.605 94.5435C135.161 88.8737 135.478 83.204 136.113 77.4945C136.352 74.6002 136.272 71.7455 136.352 68.9304C136.391 67.5427 136.51 66.1154 136.709 64.7673C136.907 63.4193 137.225 62.0712 137.86 60.8421C137.939 60.6438 137.423 60.2077 137.264 60.406C136.153 61.5161 135.518 62.9831 135.121 64.4501C134.724 65.9171 134.566 67.4238 134.526 68.8511C134.407 71.7455 134.685 74.6398 134.486 77.2963C134.447 77.6135 134.407 77.9703 134.367 78.3272L134.248 79.3977L133.97 81.4991L133.454 85.7415C133.137 88.5566 132.859 91.4113 132.7 94.2263C132.621 94.94 134.566 95.2175 134.605 94.5435Z" fill="#811D65"/>
</g>
<g opacity="0.21">
<path opacity="0.21" d="M152.783 92.9972C155.521 92.3231 158.022 91.1733 160.443 89.9442C161.673 89.3495 162.784 88.6358 163.975 87.9618C165.086 87.2481 166.237 86.5344 167.348 85.7414C169.571 84.2348 171.714 82.6092 173.778 80.9439C175.842 79.2787 177.866 77.4945 179.771 75.5914C181.676 73.7279 183.502 71.7058 185.05 69.4855C186.598 67.2651 187.828 64.8465 188.78 62.309C189.733 59.7715 190.408 57.1943 190.963 54.5775C191.082 53.9431 191.241 53.2691 191.36 52.5951C191.44 51.9211 191.479 51.247 191.519 50.573L191.678 46.6081C191.757 45.1411 191.836 43.6345 192.114 42.2071C192.233 41.4934 192.432 40.7798 192.71 40.1454C192.789 39.9868 192.829 39.8282 192.908 39.6696C192.987 39.4317 193.186 39.1938 193.345 38.9956C193.424 38.8766 193.543 38.7577 193.702 38.6387L194.099 38.2422C194.416 37.9647 194.734 37.6872 195.051 37.4493L194.932 37.37C194.892 37.3303 194.932 37.3303 194.932 37.2907V37.2114C194.853 37.2114 194.734 37.2114 194.654 37.2114L193.464 37.1717C193.067 37.1717 192.67 37.1321 192.273 37.1321C192.075 37.1321 191.876 37.1321 191.678 37.1321H191.122C189.971 37.1717 188.82 37.251 187.669 37.4096C185.367 37.7268 183.105 38.2422 180.922 38.9163C176.517 40.304 172.349 42.2864 168.38 44.586C160.482 49.2646 153.378 55.1326 147.147 61.7143C146.512 62.3883 146.988 62.8245 147.663 62.2297C154.41 56.2824 161.554 50.692 169.333 46.2116C173.222 43.9913 177.271 42.0089 181.478 40.6608C183.581 39.9868 185.724 39.4714 187.907 39.1542C188.979 38.9956 190.09 38.9163 191.162 38.8766C191.36 38.8766 191.281 38.8766 191.32 38.8766H191.36C191.4 38.8766 191.44 38.8766 191.4 38.8766L191.36 38.9163L191.32 38.9559C191.201 39.1542 191.122 39.3524 191.043 39.5507C190.725 40.3436 190.527 41.1366 190.408 41.9296C190.13 43.5155 190.011 45.0222 189.931 46.5685L189.773 50.5333C189.733 51.1677 189.693 51.8021 189.614 52.4365C189.574 52.7537 189.534 52.9916 189.455 53.3484L189.257 54.3C188.701 56.8375 188.026 59.375 187.074 61.754C186.161 64.1725 184.97 66.4325 183.502 68.5339C182.033 70.6353 180.247 72.4987 178.382 74.3226C176.517 76.1464 174.532 77.8513 172.468 79.4769C170.444 81.1025 168.341 82.6885 166.158 84.1555C165.086 84.9088 163.975 85.5828 162.864 86.2965C161.752 86.9705 160.641 87.6446 159.45 88.2393C157.148 89.4288 154.767 90.5389 152.306 91.1733C150.163 91.4905 150.124 93.4729 152.783 92.9972Z" fill="#811D65"/>
</g>
<g opacity="0.21">
<path opacity="0.21" d="M149.052 86.6137C153.219 79.4373 158.14 72.6177 164.094 66.71C167.07 63.776 170.285 61.0799 173.619 58.5424C176.953 55.9652 180.326 53.5466 183.7 51.0091C183.978 50.7712 183.621 50.2161 183.303 50.3747C175.603 53.9035 168.936 59.5336 162.943 65.4809C156.91 71.4282 151.473 78.1289 147.385 85.5432C146.909 86.4551 148.576 87.4463 149.052 86.6137Z" fill="#811D65"/>
</g>
<g opacity="0.21">
<path opacity="0.21" d="M185.407 99.0237C186.201 96.6448 186.796 94.2262 187.153 91.7283C187.352 90.4992 187.471 89.2304 187.51 88.0013C187.55 87.3669 187.55 86.7722 187.55 86.1378V85.1863L187.51 83.9968L187.431 82.5298V82.173C187.352 82.1333 187.193 82.2126 187.074 82.2126L186.32 82.3712C185.843 82.4902 185.328 82.5695 184.891 82.6884L183.978 82.9263C182.787 83.2435 181.597 83.6003 180.446 83.9968C178.104 84.7501 175.802 85.6224 173.54 86.5343C171.278 87.4463 169.015 88.4375 166.833 89.5476C164.65 90.6578 162.467 91.8473 160.443 93.235C158.379 94.583 156.434 96.1293 154.728 97.9135C153.021 99.6977 151.513 101.759 150.64 104.059C150.481 104.456 151.076 104.693 151.314 104.376C152.545 102.394 154.172 100.689 155.878 99.103C157.625 97.5567 159.53 96.1293 161.514 94.7813C163.499 93.4729 165.563 92.2438 167.666 91.1336C169.77 90.0234 171.952 88.9925 174.175 88.0806C176.398 87.1687 178.66 86.3757 180.962 85.6621C182.113 85.3052 183.264 84.988 184.415 84.7105L185.288 84.5122L185.447 84.4726H185.526H185.566V84.5122V84.6708V84.7898V85.2259V86.0982C185.566 86.6929 185.526 87.2876 185.486 87.8824C185.407 89.0718 185.288 90.2613 185.089 91.4111C184.732 93.7504 184.177 96.0897 183.462 98.3497C183.224 99.3805 185.05 100.094 185.407 99.0237Z" fill="#811D65"/>
</g>
<g opacity="0.21">
<path opacity="0.21" d="M149.528 117.262C153.219 113.456 156.989 109.57 161.038 106.081C162.07 105.209 163.102 104.376 164.173 103.583C165.245 102.79 166.356 102.077 167.467 101.284C168.579 100.491 169.65 99.6185 170.603 98.6273C171.555 97.636 172.389 96.4466 172.786 95.0985C172.865 94.8606 172.23 94.6227 172.111 94.7813C171.357 95.7726 170.444 96.6052 169.452 97.3981C168.46 98.1911 167.428 98.9445 166.356 99.7374C165.284 100.491 164.173 101.284 163.102 102.156C161.99 103.028 160.998 103.901 159.966 104.773C155.878 108.302 151.79 111.791 148.179 115.835C147.742 116.311 149.091 117.698 149.528 117.262Z" fill="#811D65"/>
</g>
<g opacity="0.21">
<path opacity="0.21" d="M132.303 58.3441C132.184 55.8065 131.668 53.3087 130.914 50.9297C130.16 48.5508 129.128 46.2512 127.977 44.1102C125.596 39.7885 122.54 35.8236 118.928 32.4931C115.317 29.1626 111.149 26.3079 106.426 24.8012L105.513 24.5633L105.077 24.4444C104.918 24.4047 104.68 24.3651 104.442 24.3254L103.172 24.0479C103.132 24.0479 103.092 24.0082 103.092 24.0479L103.053 24.1272L103.013 24.2858L102.934 24.5237L102.735 25.1581L102.418 26.1889C102.338 26.4665 102.259 26.7837 102.18 27.0612L101.703 28.8057C101.108 31.145 100.632 33.5239 100.195 35.9425C99.4014 40.74 98.9252 45.5772 98.8061 50.4143C98.7267 52.8329 98.7267 55.2515 98.8061 57.7097C98.8855 60.1283 99.0046 62.5468 99.1633 64.9654C99.3221 67.384 99.5999 69.8818 100.394 72.2211C100.791 73.4106 101.267 74.5604 101.822 75.6706C102.418 76.7807 103.092 77.8116 103.767 78.8028C105.077 80.8249 106.466 82.847 108.054 84.7105C108.847 85.6224 109.721 86.4947 110.713 87.2877C111.705 88.041 112.816 88.6754 114.047 88.8736C114.483 88.9133 114.682 88.7547 114.682 88.5564C114.682 88.3582 114.483 88.1996 114.166 88.1203C113.134 87.8824 112.221 87.2084 111.348 86.455C110.514 85.7017 109.76 84.7898 109.046 83.8779C107.617 82.0144 106.387 79.9923 105.156 77.9306C104.521 76.86 103.886 75.9085 103.41 74.8776C102.894 73.8467 102.497 72.7762 102.14 71.7057C101.465 69.525 101.227 67.2254 101.068 64.8465C100.91 62.4675 100.791 60.0093 100.671 57.6304C100.552 55.2515 100.552 52.8329 100.592 50.454C100.671 45.6565 101.068 40.8986 101.862 36.2201C102.259 33.8808 102.775 31.5415 103.37 29.2419L103.847 27.537C103.926 27.2594 104.005 26.9819 104.085 26.6647L104.243 26.07C104.243 26.0303 104.243 25.9907 104.283 25.951L104.442 25.9907H104.482H104.521H104.561L104.958 26.1096L105.791 26.3475C107.974 27.0612 110.078 28.1317 112.022 29.4005C113.967 30.6692 115.833 32.1362 117.539 33.7618C120.952 37.013 123.85 40.8193 126.112 44.9428C128.334 49.1059 130.001 53.6259 130.279 58.3044C130.319 59.3749 130.795 59.93 131.311 59.93C131.827 60.049 132.343 59.4939 132.303 58.3441Z" fill="#811D65"/>
</g>
<g opacity="0.21">
<path opacity="0.21" d="M121.548 76.424C121.508 73.49 120.992 70.5956 120.317 67.7806C119.643 64.9655 118.73 62.2694 117.857 59.5336C116.984 56.7979 116.071 54.1018 114.959 51.4453C114.404 50.1369 113.809 48.8285 113.134 47.5597C112.777 46.9253 112.419 46.291 111.983 45.7359C111.784 45.4584 111.546 45.1412 111.308 44.8636C111.03 44.5861 110.792 44.3085 110.395 44.1499C110.038 44.0706 110.117 44.7843 110.078 44.824C110.157 44.9429 110.356 45.2205 110.475 45.498C110.633 45.7756 110.752 46.0927 110.872 46.4099C111.149 47.0443 111.387 47.6787 111.665 48.3131L113.213 52.1986C114.245 54.8154 115.396 57.3926 116.23 60.0491C117.936 65.4016 119.246 70.8335 119.563 76.3843C119.603 77.0187 121.548 77.098 121.548 76.424Z" fill="#811D65"/>
</g>
<g opacity="0.21">
<path opacity="0.21" d="M117.896 170.471C117.976 162.224 117.539 153.977 116.229 145.849C115.594 141.765 114.721 137.721 113.53 133.796C113.213 132.804 112.895 131.813 112.578 130.862C112.221 129.91 111.903 128.919 111.506 127.967C110.713 126.025 109.879 124.201 109.085 122.298C107.458 118.531 105.91 114.764 104.045 111.077C102.219 107.39 100.116 103.782 97.3771 100.61C91.9001 94.2262 84.4386 90.3407 79.3584 83.9572C78.9219 83.4021 78.3662 83.7986 78.7631 84.3933C80.9857 87.9221 84.0814 90.8164 87.1374 93.5126C90.2331 96.2087 93.3686 98.7859 95.9086 101.799C98.4487 104.812 100.552 108.262 102.418 111.87C104.283 115.478 105.87 119.205 107.498 122.972C108.291 124.835 109.165 126.738 109.879 128.602C110.276 129.514 110.554 130.505 110.911 131.417C111.228 132.368 111.506 133.32 111.824 134.311C112.935 138.197 113.729 142.162 114.324 146.166C115.515 154.175 115.872 162.343 115.912 170.471C115.951 172.295 117.896 172.374 117.896 170.471Z" fill="#811D65"/>
</g>
<g opacity="0.21">
<path opacity="0.21" d="M114.285 134.034C114.007 132.13 114.047 130.108 114.166 128.086C114.285 126.064 114.523 124.002 114.682 121.901C114.841 119.839 114.92 117.619 114.682 115.478C114.444 113.337 113.928 111.236 113.253 109.213C111.904 105.169 109.999 101.442 108.213 97.7153C106.387 93.9091 104.204 90.301 101.664 86.9309C99.1239 83.6004 96.2663 80.5078 93.2103 77.6135C90.1542 74.7587 86.9395 72.1023 83.6453 69.5251C80.3511 66.9876 77.057 64.4104 73.485 62.2694C71.699 61.1989 69.8336 60.168 67.8095 59.494C66.8173 59.1371 65.7457 58.8596 64.6344 58.8199C63.5231 58.7406 62.2928 59.0182 61.3799 59.7715C60.4671 60.4852 59.8718 61.4764 59.4352 62.4676C58.9986 63.4588 58.7605 64.5294 58.562 65.5602C58.2048 67.6616 58.2048 69.763 58.3239 71.8644C58.443 73.9658 58.6811 76.0275 59.078 78.0892C59.3161 79.1201 59.5542 80.151 59.8321 81.1422L60.3083 82.6488C60.4671 83.1643 60.6258 83.6401 60.8243 84.1555C62.3721 88.0807 64.5947 91.6888 67.2539 94.9796C69.913 98.2308 72.9293 101.165 76.2235 103.782C79.5177 106.398 83.0103 108.698 86.6219 110.799C90.2733 112.822 93.8056 114.883 97.2188 117.262C100.592 119.601 103.847 122.139 106.704 125.113C108.133 126.58 109.443 128.166 110.554 129.87C111.666 131.575 112.539 133.439 113.094 135.421C113.412 136.769 114.047 136.69 113.809 135.263C113.372 133.161 112.539 131.179 111.467 129.355C110.395 127.531 109.086 125.826 107.697 124.24C104.879 121.108 101.624 118.372 98.2111 115.914C96.5044 114.685 94.7581 113.535 92.9721 112.425C92.099 111.87 91.1861 111.315 90.2733 110.799L87.5745 109.253C84.0422 107.191 80.6289 104.892 77.4142 102.354C74.2391 99.8167 71.2624 96.962 68.7223 93.8298C66.1823 90.6975 63.9994 87.2481 62.5309 83.5211C62.3325 83.085 62.1737 82.5695 62.0149 82.0938L61.5387 80.6664C61.2609 79.7148 61.0624 78.7236 60.8243 77.772C60.4274 75.7896 60.1893 73.7675 60.0702 71.7851C59.9511 69.763 59.9511 67.7409 60.2686 65.8378C60.4274 64.8862 60.6655 63.9346 61.0227 63.102C61.3799 62.2694 61.8562 61.5557 62.4515 61.0799C63.5231 60.168 65.5076 60.4059 67.2935 61.0403C69.1192 61.6746 70.9052 62.6262 72.6515 63.6967C76.1044 65.7981 79.3589 68.3753 82.6134 70.9128C85.8679 73.4503 89.043 76.1068 91.9799 78.9219C94.9566 81.7766 97.6951 84.7899 100.156 88.0411C102.577 91.3319 104.68 94.821 106.466 98.5083C108.213 102.275 110.118 105.962 111.348 109.808C111.983 111.711 112.42 113.694 112.658 115.676C112.896 117.659 112.816 119.681 112.658 121.703C112.499 123.765 112.261 125.826 112.142 127.888C112.023 129.989 111.983 132.091 112.301 134.232C112.38 134.708 112.499 135.144 112.618 135.501C112.697 135.659 112.777 135.818 112.816 135.976C112.896 136.095 112.975 136.214 113.055 136.333C113.372 136.73 113.69 136.888 113.928 136.769C114.166 136.69 114.325 136.373 114.364 135.937C114.364 135.818 114.364 135.699 114.364 135.58C114.364 135.421 114.364 135.302 114.364 135.104C114.404 134.866 114.364 134.47 114.285 134.034Z" fill="#811D65"/>
</g>
<g opacity="0.21">
<path opacity="0.21" d="M100.315 60.0093C99.5208 57.8683 98.6873 55.7273 97.6951 53.6259C96.7029 51.5245 95.5122 49.4628 94.004 47.6389C93.2499 46.727 92.3768 45.8944 91.3449 45.1807C90.8289 44.8239 90.313 44.5464 89.7176 44.3085C89.5589 44.2688 89.4398 44.1895 89.2811 44.1499L88.7254 43.9913C88.3285 43.8723 87.892 43.8327 87.4951 43.7534L86.8998 43.6741H86.741H86.6616C86.6219 43.6741 86.6616 43.7137 86.6219 43.7137L86.5822 44.0309C86.5426 44.4274 86.5029 44.8635 86.5029 45.26V45.8548V46.0927V46.2909V47.1632C86.5029 48.313 86.5822 49.4628 86.6219 50.6126C86.8998 55.1722 87.2966 59.7318 88.1698 64.2518C88.6064 66.5117 89.2017 68.7321 89.9955 70.9127C90.3924 71.9833 90.8686 73.0538 91.4243 74.045C91.9799 75.0362 92.6546 76.0274 93.4881 76.8204C93.7659 77.098 94.2422 76.6222 94.0437 76.3446C92.8927 74.5604 92.1784 72.459 91.5433 70.3577C90.948 68.2563 90.432 66.0756 89.9955 63.8949C89.162 59.4939 88.527 55.0136 88.2889 50.573C88.2095 49.4628 88.2095 48.3526 88.2095 47.2425V45.9737C88.2095 45.8547 88.1698 45.7755 88.2889 45.8151C88.3285 45.8151 88.3682 45.8151 88.4079 45.8548L88.6064 45.8944L88.9239 46.053C89.3605 46.2512 89.797 46.4891 90.1939 46.7667C91.0274 47.3614 91.7418 48.0751 92.4165 48.9077C93.7659 50.573 94.8375 52.5157 95.79 54.5378C96.7426 56.5599 97.576 58.6613 98.4095 60.7627C98.8064 61.5953 100.672 60.9609 100.315 60.0093Z" fill="#811D65"/>
</g>
<g opacity="0.21">
<path opacity="0.21" d="M138.773 27.2596C139.011 31.7399 139.805 36.1409 139.924 40.5419C139.963 42.7623 139.844 44.9429 139.606 47.1236C139.368 49.3043 139.09 51.4453 138.773 53.6657C138.773 53.8639 139.368 54.0621 139.487 53.8639C140.638 51.8418 141.234 49.5818 141.472 47.3219C141.71 45.0619 141.67 42.7623 141.63 40.5419C141.511 36.0616 141.234 31.621 140.757 27.2596C140.678 26.7442 138.733 26.7442 138.773 27.2596Z" fill="#811D65"/>
</g>
<g opacity="0.21">
<path opacity="0.21" d="M141.115 27.4973C140.4 26.1096 139.884 24.5237 139.567 22.8584C139.249 21.1932 139.09 19.4883 139.209 17.7834C139.329 16.0785 139.725 14.4133 140.202 12.7877C140.678 11.1621 141.273 9.57611 141.829 7.95051C141.869 7.79191 141.313 7.47472 141.194 7.55402C139.805 8.82278 138.892 10.488 138.376 12.2326C137.82 13.9771 137.622 15.8009 137.503 17.6248C137.384 19.409 137.384 21.2328 137.622 23.0567C137.86 24.8409 138.336 26.6647 139.289 28.2507C139.527 28.6472 141.273 27.8145 141.115 27.4973Z" fill="#811D65"/>
</g>
<g opacity="0.21">
<path opacity="0.21" d="M141.908 34.8721C143.456 30.6693 144.408 26.2287 144.924 21.8277C145.162 19.6073 145.361 17.3474 145.083 15.0874C144.805 12.867 144.011 10.5674 142.503 8.86252C142.384 8.70392 141.829 9.06076 141.868 9.25901C142.503 11.3207 142.94 13.2635 143.178 15.3253C143.416 17.3473 143.456 19.4884 143.218 21.5898C142.702 25.8322 141.352 29.9556 140.043 34.0791C139.963 34.5945 141.749 35.3875 141.908 34.8721Z" fill="#811D65"/>
</g>
<g opacity="0.21">
<path opacity="0.21" d="M140.717 37.8853C139.447 36.7751 138.257 35.5064 137.106 34.198C135.955 32.8499 134.883 31.4622 133.931 30.0348C132.938 28.5678 132.065 27.0612 131.351 25.4752C130.636 23.8893 130.081 22.224 129.843 20.5192C129.803 20.083 129.763 19.6865 129.803 19.2504C129.803 19.0521 129.843 18.8142 129.843 18.616C129.843 18.497 129.843 18.4178 129.882 18.2988L129.922 18.0213C129.962 17.7437 130.041 17.5058 130.16 17.268C130.16 17.0697 130.359 17.268 130.438 17.268L130.795 17.4662C130.954 17.5455 131.39 17.823 131.748 18.0609C132.065 18.3385 132.462 18.5764 132.78 18.8539C133.097 19.1314 133.415 19.409 133.692 19.7262C134.01 20.0434 134.248 20.3605 134.526 20.6777C135.597 22.0258 136.431 23.5721 137.344 25.1184C138.217 26.6647 139.169 28.2507 140.32 29.6384C140.519 29.8762 141.035 29.4798 140.916 29.2419C140.162 27.6559 139.527 26.0303 138.773 24.4047C138.018 22.7791 137.185 21.0742 135.994 19.5676C135.677 19.1711 135.399 18.8143 135.042 18.4574C134.724 18.1006 134.327 17.7834 133.97 17.4662C133.613 17.149 133.176 16.8715 132.78 16.5939L132.145 16.2371L131.708 15.9992C131.51 15.8802 131.311 15.8009 131.113 15.7216L129.962 15.2062L129.406 14.9683L129.247 14.889C129.208 14.889 129.208 14.8494 129.168 14.8494L129.128 14.9287L129.009 15.2062C128.85 15.6027 128.692 15.9992 128.573 16.3957C128.453 16.7922 128.295 17.149 128.215 17.5851L128.136 18.0609C128.096 18.1799 128.096 18.2988 128.096 18.4574C128.096 18.6953 128.057 18.9728 128.057 19.2107C128.057 19.7262 128.096 20.2019 128.136 20.6777C128.374 22.6205 128.93 24.4444 129.684 26.1492C130.398 27.8541 131.311 29.4798 132.264 31.0261C134.248 34.1187 136.55 36.9734 139.368 39.3523C140.043 39.8677 141.273 38.3611 140.717 37.8853Z" fill="#811D65"/>
</g>
<g opacity="0.21">
<path opacity="0.21" d="M141.035 50.4539C142.503 48.5508 143.376 46.5287 144.17 44.4273C144.964 42.3656 145.559 40.2642 146.075 38.1232C146.393 36.6562 146.71 35.2288 146.829 33.6825C146.869 32.9292 146.909 32.1759 146.829 31.3829L146.71 30.6296L146.512 29.8762C146.353 29.4004 146.155 28.9643 145.956 28.4885C145.52 28.7661 145.162 29.0436 144.766 29.3211C144.408 29.5987 144.051 29.9555 143.734 30.352C143.218 30.9864 142.94 31.6208 142.702 32.2948C142.662 32.493 143.257 32.7706 143.376 32.612C143.615 32.3741 143.813 32.1362 144.051 31.8983C144.17 31.7794 144.289 31.7001 144.408 31.5811L144.607 31.4225L144.686 31.3432C144.726 31.3036 144.726 31.3432 144.726 31.3036C144.924 31.2639 145.004 31.3036 145.004 31.3829C145.004 31.4622 145.004 31.5018 144.964 31.5415V31.5811V31.6604L145.004 32.0965C145.004 32.2551 145.004 32.4137 145.004 32.5723C145.004 32.8895 145.004 33.2464 145.004 33.5636C144.964 34.9116 144.766 36.2993 144.448 37.687C143.972 39.7091 143.257 41.6916 142.424 43.6343C141.59 45.5375 140.678 47.4802 139.527 49.1455C139.289 49.5023 140.678 50.8901 141.035 50.4539Z" fill="#811D65"/>
</g>
<g opacity="0.21">
<path opacity="0.21" d="M198.504 325.418C189.812 325.299 181.12 323.991 172.865 321.374C164.61 318.717 156.672 314.832 150.084 309.202C146.79 306.387 143.853 303.175 141.432 299.567C138.971 295.999 136.867 292.153 135.161 288.148C131.748 280.139 129.882 271.456 129.406 262.733C129.009 254.05 129.644 245.129 132.66 236.922C134.129 232.838 136.153 228.913 138.574 225.265C140.955 221.618 143.813 218.247 146.829 215.115C148.337 213.529 149.925 212.023 151.552 210.556C152.386 209.842 153.18 209.089 154.013 208.415C154.45 208.058 154.846 207.701 155.283 207.384L156.593 206.432C160.125 203.895 163.975 201.793 167.944 199.969C171.913 198.185 176.04 196.679 180.247 195.449C184.454 194.22 188.741 193.348 193.067 192.793C194.575 192.595 194.495 191.96 192.987 192.079C188.582 192.396 184.216 193.11 179.89 194.22C175.604 195.291 171.357 196.718 167.269 198.463C163.181 200.207 159.173 202.309 155.521 204.926L154.132 205.917C153.656 206.234 153.259 206.63 152.783 206.987C152.346 207.344 151.909 207.701 151.473 208.058L150.203 209.168C148.536 210.635 146.909 212.181 145.361 213.807C142.225 217.018 139.328 220.468 136.867 224.234C134.407 228.001 132.343 232.045 130.835 236.288C129.327 240.53 128.334 244.971 127.898 249.411C127.461 253.852 127.342 258.332 127.58 262.773C128.057 271.654 129.922 280.536 133.375 288.783C135.121 292.906 137.225 296.871 139.765 300.558C142.265 304.285 145.321 307.655 148.695 310.629C155.521 316.537 163.697 320.581 172.151 323.317C180.644 326.052 189.534 327.361 198.385 327.401C200.409 327.401 201.401 326.885 201.401 326.409C201.481 325.894 200.488 325.418 198.504 325.418Z" fill="#811D65"/>
</g>
<g opacity="0.21">
<path opacity="0.21" d="M200.885 327.123C205.092 326.766 209.18 325.696 213.109 324.268C216.999 322.841 220.73 321.017 224.341 318.995C227.953 316.973 231.366 314.713 234.7 312.255C237.994 309.796 241.209 307.18 244.146 304.285L246.329 302.065C246.527 301.867 246.686 301.708 246.884 301.51L247.4 300.915L248.393 299.726L249.385 298.536C249.544 298.338 249.702 298.14 249.861 297.941L250.298 297.307L252.084 294.77C252.401 294.373 252.639 293.897 252.917 293.461L253.711 292.113L254.505 290.765C254.782 290.329 254.981 289.853 255.219 289.377L256.568 286.602L257.719 283.747C259.148 279.901 260.259 275.897 260.855 271.813L261.093 270.306C261.172 269.791 261.212 269.275 261.252 268.76L261.569 265.707C261.649 263.645 261.807 261.623 261.728 259.561C261.728 255.478 261.331 251.394 260.855 247.31C260.537 245.288 260.299 243.266 259.902 241.244C259.545 239.222 259.148 237.2 258.553 235.217C256.211 227.287 251.845 220.071 246.448 213.886C243.749 210.793 240.733 207.939 237.478 205.401C235.851 204.132 234.144 202.983 232.398 201.873C230.652 200.762 228.866 199.811 227.04 198.859C223.389 196.996 219.618 195.37 215.729 194.101C213.784 193.507 211.8 192.912 209.775 192.515C208.783 192.277 207.751 192.159 206.759 192C205.727 191.921 204.735 191.802 203.703 191.841C202.274 191.841 202.354 192.515 203.703 192.595C204.695 192.595 205.688 192.793 206.64 192.912C207.632 193.11 208.585 193.269 209.577 193.546C211.522 193.982 213.427 194.656 215.332 195.33C219.102 196.718 222.754 198.423 226.286 200.326C228.032 201.317 229.818 202.269 231.485 203.379C233.192 204.45 234.819 205.6 236.367 206.829C239.502 209.326 242.439 212.102 245.059 215.115C250.298 221.142 254.584 228.12 256.886 235.733C257.481 237.636 257.878 239.578 258.235 241.561C258.632 243.543 258.91 245.526 259.228 247.548C259.744 251.552 260.14 255.557 260.14 259.561C260.22 261.584 260.061 263.566 259.982 265.588L259.664 268.562C259.624 269.077 259.585 269.553 259.505 270.068L259.267 271.535C258.672 275.5 257.6 279.346 256.172 283.113L255.06 285.888L253.711 288.584C253.473 289.02 253.274 289.496 253.036 289.893L252.242 291.161L251.449 292.43C251.171 292.866 250.933 293.303 250.655 293.699L248.909 296.118L248.472 296.712C248.313 296.911 248.154 297.109 247.996 297.267L247.003 298.417L246.051 299.567L245.575 300.122C245.416 300.32 245.217 300.479 245.059 300.638L242.955 302.779C240.058 305.594 236.923 308.131 233.668 310.51C230.414 312.889 227 315.109 223.508 317.052C219.975 319.035 216.364 320.779 212.593 322.167C208.823 323.554 204.933 324.585 200.925 324.942C197.154 325.339 196.956 327.281 200.885 327.123Z" fill="#811D65"/>
</g>
<g opacity="0.21">
<path opacity="0.21" d="M236.685 215.512C230.295 218.208 223.746 220.547 217.039 222.331C213.665 223.243 210.292 223.997 206.839 224.552C203.426 225.146 199.973 225.503 196.48 225.622C193.027 225.741 189.535 225.582 186.082 225.226C182.629 224.869 179.176 224.274 175.802 223.481C174.969 223.283 174.096 223.085 173.262 222.847C172.389 222.609 171.556 222.411 170.682 222.212C168.976 221.816 167.269 221.459 165.523 221.142C162.11 220.428 158.696 219.754 155.323 218.842C154.728 218.684 154.529 219.318 155.085 219.556C158.339 220.944 161.752 221.895 165.126 222.767C166.833 223.204 168.5 223.6 170.206 224.036C171.04 224.234 171.873 224.472 172.707 224.671C173.58 224.869 174.413 225.146 175.286 225.305C178.739 226.098 182.272 226.653 185.804 226.97C189.336 227.287 192.908 227.406 196.44 227.287C199.973 227.208 203.505 226.851 207.037 226.296C210.53 225.741 213.983 225.027 217.396 224.195C224.262 222.49 230.93 220.151 237.32 217.336C238.907 216.701 238.153 214.917 236.685 215.512Z" fill="#811D65"/>
</g>
<g opacity="0.21">
<path opacity="0.21" d="M250.456 228.675C246.21 230.776 241.923 232.719 237.518 234.464C233.112 236.208 228.628 237.794 224.063 238.984C214.975 241.561 205.449 242.592 195.964 242.473C195.368 242.473 194.773 242.473 194.178 242.433L192.392 242.354L188.82 242.156L185.288 241.799L183.502 241.601C182.906 241.521 182.311 241.442 181.755 241.363L178.223 240.847C177.032 240.649 175.881 240.411 174.73 240.213C172.389 239.816 170.047 239.261 167.745 238.786C158.458 236.724 149.33 233.988 140.201 231.332C139.407 231.094 139.209 231.728 139.963 232.045C148.774 235.574 157.902 238.548 167.309 240.649C169.65 241.125 171.992 241.68 174.373 242.076C175.564 242.275 176.754 242.513 177.945 242.671L181.517 243.147C182.112 243.226 182.708 243.306 183.303 243.385L185.089 243.543L188.701 243.861L192.312 244.059L194.098 244.138C194.694 244.178 195.289 244.138 195.884 244.178C205.489 244.297 215.173 243.385 224.5 240.847C229.183 239.658 233.708 238.072 238.193 236.327C242.638 234.583 247.043 232.6 251.29 230.42C253.274 229.428 252.401 227.684 250.456 228.675Z" fill="#811D65"/>
</g>
<g opacity="0.21">
<path opacity="0.21" d="M256.132 250.125C251.25 252.068 246.646 254.407 241.844 256.152C239.463 257.024 237.002 257.738 234.502 258.412C232.041 259.086 229.501 259.641 227 260.156C221.96 261.147 216.84 261.821 211.72 262.337C206.6 262.813 201.441 263.09 196.242 263.13C185.923 263.17 175.604 262.258 165.404 260.553C162.863 260.117 160.323 259.641 157.783 259.125L153.973 258.332C152.703 258.094 151.433 257.857 150.123 257.619C147.583 257.183 145.043 256.786 142.503 256.271C140.003 255.755 137.502 255.081 135.081 254.249C134.248 253.971 134.01 254.566 134.804 254.923C137.185 255.993 139.646 256.826 142.186 257.5C144.726 258.174 147.266 258.689 149.806 259.205C151.076 259.482 152.346 259.72 153.576 259.998L157.347 260.87C159.887 261.425 162.467 261.94 165.046 262.377C175.365 264.121 185.803 264.835 196.202 264.795C201.401 264.755 206.6 264.518 211.8 264.081C216.999 263.606 222.158 262.971 227.318 262.02C229.898 261.544 232.438 260.949 234.978 260.315C237.518 259.641 240.018 258.927 242.479 258.055C247.44 256.271 252.044 253.892 256.767 251.949C258.989 251.116 258.434 249.292 256.132 250.125Z" fill="#811D65"/>
</g>
<g opacity="0.21">
<path opacity="0.21" d="M251.251 270.306C241.924 273.24 232.756 276.571 223.389 278.95C214.023 281.368 204.339 282.677 194.615 282.915C189.773 283.033 184.891 282.835 180.049 282.399C175.207 281.963 170.405 281.21 165.602 280.337C155.998 278.632 146.472 276.531 136.788 275.421C135.955 275.302 135.876 275.976 136.669 276.135C146.115 278.117 155.601 280.456 165.245 282.201C170.087 283.073 174.969 283.787 179.851 284.183C184.772 284.619 189.693 284.738 194.575 284.619C204.378 284.421 214.221 283.192 223.746 280.853C233.311 278.514 242.519 275.262 251.727 272.249C253.949 271.496 253.394 269.632 251.251 270.306Z" fill="#811D65"/>
</g>
<g opacity="0.21">
<path opacity="0.21" d="M249.028 288.426C247.321 289.655 245.337 290.606 243.273 291.439C241.209 292.272 239.106 292.985 236.962 293.62C234.819 294.294 232.636 294.889 230.453 295.523C229.382 295.84 228.271 296.197 227.159 296.474L223.905 297.386C222.833 297.704 221.722 297.941 220.611 298.179L217.317 298.933L213.983 299.527C212.871 299.726 211.76 299.924 210.649 300.043L207.275 300.479C206.164 300.638 205.013 300.677 203.902 300.796C202.79 300.875 201.639 300.994 200.528 301.034L197.155 301.153C196.043 301.193 194.892 301.193 193.781 301.193C192.67 301.193 191.519 301.193 190.408 301.153L187.034 300.994L185.327 300.915L183.621 300.757L180.247 300.439C179.136 300.32 177.985 300.162 176.874 300.043C174.611 299.805 172.389 299.408 170.166 299.091C161.236 297.664 152.386 295.681 143.575 293.62C142.821 293.461 142.662 294.096 143.376 294.333C151.949 297.228 160.8 299.488 169.849 300.955C172.111 301.272 174.373 301.668 176.636 301.867C177.787 301.986 178.898 302.144 180.049 302.224L183.462 302.501L185.169 302.62L186.875 302.699L190.289 302.858L193.702 302.898C194.853 302.898 196.004 302.937 197.115 302.858L200.528 302.739C201.679 302.699 202.83 302.58 203.941 302.501C205.092 302.422 206.243 302.382 207.355 302.224L210.768 301.827C211.919 301.708 213.03 301.51 214.181 301.351L217.555 300.796L220.928 300.082C222.039 299.845 223.19 299.607 224.262 299.29L227.596 298.417C228.707 298.14 229.779 297.783 230.85 297.505C233.033 296.911 235.216 296.316 237.399 295.642C239.582 294.968 241.765 294.254 243.908 293.382C246.051 292.51 248.155 291.479 250.06 290.091C250.933 289.417 251.012 288.664 250.655 288.346C250.457 287.91 249.782 287.871 249.028 288.426Z" fill="#811D65"/>
</g>
<g opacity="0.21">
<path opacity="0.21" d="M231.366 307.973C228.39 309.083 225.373 310.114 222.317 310.946C219.261 311.779 216.166 312.493 212.99 313.048C209.855 313.603 206.68 314.039 203.505 314.356C200.33 314.673 197.115 314.911 193.94 314.99C190.725 315.07 187.55 314.99 184.335 314.753C182.748 314.634 181.16 314.475 179.573 314.277C177.985 314.079 176.398 313.801 174.81 313.563C171.635 313.048 168.499 312.493 165.404 311.7C163.856 311.343 162.308 310.907 160.84 310.391C159.331 309.876 157.863 309.321 156.474 308.528C155.998 308.29 155.64 308.845 156.077 309.162C157.387 310.153 158.855 310.907 160.363 311.581C161.871 312.255 163.419 312.81 164.967 313.286C168.103 314.237 171.317 314.871 174.492 315.427C176.12 315.664 177.668 315.942 179.334 316.14C180.962 316.338 182.589 316.457 184.216 316.537C187.471 316.695 190.725 316.735 193.94 316.695C195.567 316.656 197.194 316.616 198.822 316.497C200.449 316.378 202.036 316.259 203.664 316.14C206.878 315.863 210.093 315.506 213.308 314.99C216.523 314.475 219.698 313.801 222.833 312.968C225.969 312.096 229.025 311.065 232.041 309.876C233.39 309.281 232.716 307.457 231.366 307.973Z" fill="#811D65"/>
</g>
<g opacity="0.21">
<path opacity="0.21" d="M214.062 195.687C208.149 198.027 201.838 199.652 195.369 199.811C193.742 199.85 192.154 199.771 190.566 199.613C189.773 199.494 188.979 199.454 188.185 199.295C187.391 199.176 186.598 199.057 185.844 198.859C185.089 198.661 184.454 198.384 183.938 197.908C183.423 197.432 183.065 196.837 183.026 196.242C182.986 195.608 183.303 195.013 183.899 194.538C184.454 194.062 185.169 193.745 185.923 193.467C186.161 193.388 186.082 192.753 185.764 192.753C184.891 192.793 184.018 192.991 183.145 193.467C182.708 193.705 182.311 194.062 181.954 194.538C181.637 195.013 181.438 195.568 181.398 196.203C181.359 196.798 181.517 197.432 181.756 197.908C181.994 198.423 182.351 198.859 182.708 199.216C183.105 199.573 183.502 199.89 183.978 200.128C184.415 200.366 184.891 200.524 185.367 200.643C186.28 200.881 187.114 200.961 187.907 201.08C188.741 201.199 189.574 201.238 190.408 201.317C192.075 201.397 193.742 201.436 195.409 201.397C202.037 201.238 208.704 200.049 214.737 197.432C215.412 197.273 214.737 195.449 214.062 195.687Z" fill="#811D65"/>
</g>
<g opacity="0.21">
<path opacity="0.21" d="M230.056 203.855C224.619 206.234 218.983 208.097 213.189 209.525C207.394 210.912 201.481 211.864 195.488 212.141C189.534 212.419 183.502 211.983 177.667 210.833C171.833 209.644 166.158 207.701 160.998 204.727C160.562 204.489 160.165 205.005 160.601 205.322C162.983 207.225 165.642 208.771 168.499 209.961C171.317 211.15 174.294 212.062 177.31 212.657C183.343 213.886 189.495 214.084 195.567 213.846C201.639 213.569 207.672 212.736 213.586 211.428C219.499 210.08 225.334 208.256 230.811 205.718C232.081 205.084 231.287 203.3 230.056 203.855Z" fill="#811D65"/>
</g>
<g opacity="0.21">
<path opacity="0.21" d="M109.641 253.456C105.355 253.495 101.029 253.456 96.7423 253.376C92.456 253.297 88.1299 253.138 83.8038 253.099C75.1517 252.98 66.5392 253.059 57.8871 253.099C49.2747 253.138 40.6225 253.059 32.0101 253.019H25.5408C23.3579 253.019 21.1751 253.218 19.0319 253.376C16.8887 253.535 14.7455 253.693 12.6023 253.693C10.4591 253.693 8.31592 253.614 6.2918 253.059C5.5774 252.861 5.33927 253.495 6.05366 253.773C8.15717 254.566 10.3797 254.843 12.5626 255.002C14.7455 255.121 16.9284 255.081 19.1112 255.002C21.2544 254.923 23.3976 254.804 25.5011 254.843C27.6443 254.843 29.8272 254.883 31.9704 254.883C40.6225 254.923 49.2747 254.804 57.8871 254.764C66.4996 254.724 75.112 254.764 83.7244 255.002C88.0108 255.081 92.3369 255.319 96.663 255.398C100.989 255.478 105.315 255.517 109.601 255.438C111.626 255.398 111.626 253.456 109.641 253.456Z" fill="#811D65"/>
</g>
<g opacity="0.21">
<path opacity="0.21" d="M110.157 328.273C109.641 316.061 110.752 303.73 111.784 291.439C112.26 285.293 112.578 279.108 112.856 272.923C112.975 269.791 112.935 266.738 112.935 263.645C112.935 262.099 112.975 260.592 113.015 259.046C113.094 257.539 113.173 255.993 113.491 254.526C113.61 254.011 112.975 253.812 112.776 254.328C112.221 255.834 111.943 257.42 111.745 258.967C111.546 260.513 111.387 262.059 111.308 263.606C111.11 266.698 111.11 269.83 110.99 272.844C110.673 279.029 110.594 285.214 110.117 291.32C109.085 303.532 107.458 315.942 108.212 328.352C108.252 329.74 110.197 329.66 110.157 328.273Z" fill="#811D65"/>
</g>
<g opacity="0.21">
<path opacity="0.21" d="M105.672 326.766C87.3758 326.925 69 326.211 50.6241 326.409C46.0202 326.449 41.4163 326.607 36.8521 326.687C32.2482 326.766 27.684 326.766 23.0801 326.806C13.912 326.885 4.70426 327.004 -4.42414 327.797C-5.21792 327.876 -5.17823 328.511 -4.38445 328.55C4.74395 328.669 13.912 328.749 23.1198 328.709C27.7237 328.669 32.3276 328.63 36.9315 328.471C41.5354 328.352 46.0996 328.154 50.6638 328.114C68.9603 327.916 87.3361 329.105 105.712 328.749C107.776 328.709 107.776 326.766 105.672 326.766Z" fill="#811D65"/>
</g>
<g opacity="0.21">
<path opacity="0.21" d="M-1.76514 279.505C-0.971366 275.342 0.219295 271.099 1.72747 267.015C2.48155 264.954 3.3547 262.932 4.0691 260.87C4.78349 258.768 5.29945 256.627 5.37883 254.407C5.37883 254.209 4.74381 254.09 4.66443 254.288C3.75159 256.271 2.9975 258.253 2.28311 260.315C1.56871 262.337 0.933692 264.399 0.179606 266.46C-1.32856 270.544 -2.99549 274.668 -3.63051 279.108C-3.74958 279.505 -1.84452 279.941 -1.76514 279.505Z" fill="#811D65"/>
</g>
<g opacity="0.21">
<path opacity="0.21" d="M373.571 258.174C369.126 258.094 364.76 258.57 360.434 259.046C358.291 259.284 356.148 259.522 354.004 259.72L347.535 260.315C338.923 261.147 330.271 261.94 321.618 262.416C317.292 262.654 312.966 262.813 308.64 262.892C304.314 262.932 299.988 262.813 295.622 262.733C291.296 262.654 286.931 262.654 282.565 262.892C278.239 263.13 273.873 263.685 269.666 264.755C268.952 264.954 269.11 265.588 269.825 265.469C274.032 264.835 278.318 264.597 282.604 264.518C286.891 264.438 291.217 264.518 295.543 264.597C299.869 264.676 304.235 264.755 308.601 264.636C312.966 264.518 317.292 264.319 321.618 264.081C330.271 263.606 338.923 262.932 347.575 262.178L354.044 261.623C356.227 261.465 358.37 261.227 360.513 260.989C364.8 260.513 369.086 260.037 373.373 260.077C375.397 260.196 375.595 258.253 373.571 258.174Z" fill="#811D65"/>
</g>
<g opacity="0.21">
<path opacity="0.21" d="M343.13 369.507C342.971 370.023 342.654 370.499 342.336 370.935C342.138 371.133 341.939 371.371 341.701 371.569C341.582 371.648 341.463 371.767 341.344 371.847L340.987 372.124C339.995 372.798 338.764 373.195 337.574 373.314C336.978 373.353 336.383 373.314 335.827 373.155C335.55 373.115 335.311 372.957 335.034 372.878C334.795 372.719 334.518 372.6 334.28 372.402C333.327 371.688 332.454 370.657 331.7 369.507C330.192 367.208 329.12 364.631 327.81 362.014C326.5 359.476 325.151 356.939 323.722 354.441C318.126 344.449 311.855 334.854 305.624 325.259C304.076 322.841 302.529 320.462 300.981 318.043C299.433 315.625 297.885 313.246 296.496 310.748C293.638 305.832 291.098 300.677 288.201 295.721C286.772 293.223 285.145 290.805 283.518 288.465C281.89 286.126 280.343 283.747 278.795 281.329C275.778 276.491 273.04 271.535 270.778 266.302C270.381 265.39 269.785 265.667 270.103 266.579C271.929 272.011 274.469 277.205 277.366 282.201C278.834 284.699 280.343 287.117 281.97 289.536C282.764 290.725 283.597 291.875 284.311 293.065C285.066 294.254 285.82 295.483 286.534 296.673C289.392 301.549 291.971 306.704 294.908 311.66C295.623 312.889 296.416 314.118 297.171 315.347L299.512 318.955C301.06 321.334 302.608 323.753 304.195 326.132C310.387 335.727 316.539 345.361 322.055 355.313C323.444 357.811 324.754 360.309 326.064 362.846C327.294 365.344 328.406 368.08 330.033 370.578C330.866 371.807 331.819 373.036 333.089 373.988C333.406 374.226 333.764 374.424 334.121 374.622C334.518 374.781 334.875 374.979 335.272 375.058C336.065 375.296 336.899 375.336 337.693 375.296C339.28 375.137 340.788 374.662 342.098 373.75L342.574 373.393C342.733 373.274 342.892 373.155 343.011 372.996C343.329 372.759 343.567 372.441 343.844 372.164C344.321 371.529 344.757 370.855 344.995 370.062C345.115 369.706 345.154 369.388 345.154 369.111C345.154 368.833 345.075 368.595 344.995 368.437C344.797 368.08 344.559 367.921 344.321 367.961C344.083 367.961 343.844 368.12 343.646 368.397C343.567 368.516 343.487 368.675 343.368 368.833C343.249 369.071 343.209 369.269 343.13 369.507Z" fill="#811D65"/>
</g>
<g opacity="0.21">
<path opacity="0.21" d="M380.834 170.59C341.979 173.326 303.164 176.061 264.229 178.44C244.821 179.59 225.334 180.621 205.847 181.652C196.123 182.167 186.36 182.683 176.636 183.198C166.912 183.713 157.189 184.308 147.504 184.665C145.838 184.744 145.877 185.379 147.504 185.418C157.228 185.498 166.912 185.181 176.636 184.824C186.36 184.467 196.123 183.991 205.847 183.515C225.334 182.484 244.861 181.295 264.269 180.105C303.124 177.766 342.098 175.506 380.874 172.533C385.399 172.215 385.319 170.273 380.834 170.59Z" fill="#811D65"/>
</g>
<g opacity="0.21">
<path opacity="0.21" d="M318.721 -38.1609C315.268 -38.6367 311.736 -39.3901 308.243 -40.1037C304.751 -40.8174 301.218 -41.5707 297.686 -42.2844C290.621 -43.6721 283.517 -44.9012 276.294 -45.4167C272.682 -45.6546 269.031 -45.7339 265.419 -45.377C263.593 -45.2184 261.768 -44.9012 260.021 -44.4255C258.235 -43.9497 256.489 -43.3153 254.902 -42.3241C253.314 -41.3328 251.846 -40.0244 250.853 -38.3988C250.337 -37.6059 249.98 -36.7336 249.623 -35.8613C249.345 -34.9494 249.147 -34.0375 249.028 -33.1256C248.789 -31.2621 248.909 -29.4382 249.147 -27.6144C249.226 -27.1782 249.266 -26.7025 249.385 -26.2663L249.702 -24.9183C249.98 -24.046 250.218 -23.1341 250.575 -22.3014C251.25 -20.5965 252.163 -18.971 253.235 -17.504C254.306 -16.037 255.537 -14.6492 256.807 -13.3805C259.426 -10.843 262.442 -8.74158 265.538 -6.91774C271.769 -3.2304 278.516 -0.534294 285.184 2.12217C286.851 2.7962 288.518 3.47022 290.145 4.14425C291.772 4.81828 293.439 5.57161 295.066 6.32493C298.361 7.79193 301.695 9.17966 305.068 10.4088C308.442 11.6379 311.895 12.748 315.466 13.4221C317.252 13.7393 319.038 13.9771 320.864 13.9375C321.777 13.8978 322.69 13.8186 323.603 13.5807C324.476 13.3428 325.389 12.9859 326.103 12.3912C326.579 11.9551 326.659 11.5982 326.54 11.5189C326.381 11.4 326.063 11.4793 325.666 11.7965C324.357 12.7084 322.61 12.9066 320.904 12.867C319.197 12.7877 317.451 12.5102 315.744 12.1137C312.331 11.3207 308.997 10.1312 305.663 8.82282C302.369 7.51441 299.075 6.08705 295.821 4.5804C294.193 3.82707 292.566 3.07373 290.899 2.36005C289.232 1.64638 287.565 0.972366 285.898 0.29834C279.231 -2.39778 272.563 -5.01461 266.451 -8.54335C263.395 -10.3275 260.498 -12.3496 257.997 -14.7285C256.767 -15.918 255.616 -17.2264 254.584 -18.6141C253.592 -20.0018 252.758 -21.5085 252.123 -23.0548C251.766 -23.8478 251.568 -24.6407 251.33 -25.4733L251.052 -26.7025C250.972 -27.099 250.893 -27.5351 250.853 -27.9712C250.615 -29.6761 250.536 -31.381 250.734 -33.0066C250.814 -33.8392 251.012 -34.6322 251.25 -35.4252C251.528 -36.1785 251.846 -36.9318 252.282 -37.6059C253.116 -38.9936 254.346 -40.0641 255.775 -40.9364C257.203 -41.8086 258.791 -42.4034 260.458 -42.8395C262.125 -43.2756 263.832 -43.5532 265.578 -43.7118C269.07 -44.029 272.603 -43.91 276.175 -43.6721C283.279 -43.117 290.304 -41.8483 297.329 -40.4606C300.821 -39.7469 304.354 -39.0332 307.846 -38.2799C311.379 -37.5662 314.871 -36.8129 318.483 -36.3767C320.15 -36.1785 321.023 -36.6543 321.023 -37.1301C321.023 -37.4473 320.269 -37.9627 318.721 -38.1609Z" fill="#811D65"/>
</g>
<g opacity="0.21">
<path opacity="0.21" d="M297.726 20.5985C295.781 20.8364 293.995 21.3122 292.209 21.8276C290.423 22.3431 288.677 22.8982 286.931 23.4136C283.438 24.4841 279.906 25.515 276.334 25.7925C275.143 25.8718 273.953 25.8718 272.802 25.7132C272.524 25.6736 272.206 25.6339 271.928 25.5546C271.77 25.515 271.651 25.515 271.492 25.4357L271.214 25.3564C271.055 25.3167 270.896 25.2375 270.738 25.1978C270.658 25.1582 270.579 25.1185 270.5 25.0789L270.381 25.0392C270.341 25.0392 270.301 24.9995 270.341 24.9599L271.095 24.2462L272.365 22.9774C273.238 22.1052 274.111 21.2726 275.024 20.5192C275.937 19.7659 276.929 19.0919 277.961 18.5764C278.993 18.061 280.144 17.7041 281.335 17.5059C281.652 17.4663 281.612 16.7922 281.295 16.7526C280.025 16.6336 278.675 16.7922 277.405 17.2284C276.135 17.6645 274.984 18.3385 273.913 19.0919C272.841 19.8452 271.928 20.7175 271.016 21.5897L269.666 22.9378L267.047 25.515L268.634 26.2287C269.15 26.4269 269.666 26.6648 270.222 26.8631C270.341 26.9027 270.5 26.9424 270.658 26.982L271.055 27.1009C271.214 27.1406 271.373 27.1802 271.532 27.2199C271.849 27.2992 272.206 27.3388 272.524 27.3785C273.833 27.5371 275.143 27.5371 276.413 27.4181C284.033 26.7837 290.9 23.8101 297.924 22.5017C298.718 22.4224 298.639 20.4796 297.726 20.5985Z" fill="#811D65"/>
</g>
</g>
<defs>
<clipPath id="clip0">
<rect width="275" height="375" fill="white" transform="translate(-5)"/>
</clipPath>
</defs>
</svg>
