<svg width="255" height="260" viewBox="0 0 255 260" fill="none" xmlns="http://www.w3.org/2000/svg">
<path d="M19.5221 53.3682C15.913 64.6183 19.4657 76.7731 22.3135 88.2776C27.6144 109.647 27.8118 131.385 26.7685 153.32C26.0918 168.018 26.1764 182.887 29.3908 197.246C32.0694 209.175 37.0037 220.792 44.8141 230.234C52.3989 239.392 64.777 243.915 76.5348 243.971C82.3997 243.999 98.4433 242.925 104.224 241.908C124.158 238.374 144.206 235.435 164.338 233.088C180.156 231.251 213.456 229.046 226.172 218.503C234.941 211.21 238.099 202.249 236.633 190.801C235.646 183 232.826 175.537 230.43 168.047C224.227 148.627 220.618 128.36 219.743 108.008C218.841 87.26 221.83 67.7559 224.932 47.2908C225.862 41.1004 225.665 34.4577 222.845 28.8891C218.644 20.5504 209.198 17.6389 199.921 16.7061C186.303 15.321 158.868 16.2256 145.221 17.1301C125.483 18.4304 95.5109 19.7589 75.8581 21.9072C61.1397 23.5184 47.7183 26.4864 34.9736 34.6555C28.0373 39.1217 22.1161 45.3686 19.5221 53.3682Z" fill="#EA5455" fill-opacity="0.44"/>
<path d="M234.378 35.9281C233.757 31.7728 232.601 27.6176 230.627 23.8864C229.838 22.4165 227.244 23.4624 227.892 25.0453C230.712 31.9142 231.755 39.0374 231.53 46.4433C231.304 54.1601 229.782 61.7639 228.484 69.3677C227.723 73.8621 227.046 78.3848 226.68 82.9357C226.511 85.1406 229.922 85.1406 230.12 82.9357C231.501 67.2194 236.69 51.814 234.378 35.9281Z" fill="#EA5455" fill-opacity="0.44"/>
<path d="M227.639 90.2003C226.708 90.2003 226.145 90.9353 226.06 91.7833C225.975 92.6878 225.891 93.5923 225.834 94.4686C225.778 95.2318 226.455 95.8819 227.16 95.9667C227.836 96.0515 228.739 95.6275 228.851 94.8643C228.992 93.8185 229.133 92.8009 229.218 91.755C229.302 90.9353 228.428 90.2003 227.639 90.2003Z" fill="#EA5455" fill-opacity="0.44"/>
<path d="M35.1711 227.096C29.3627 219.408 25.4153 210.391 24.1746 200.78C24.0618 199.875 23.4979 199.112 22.511 199.112C21.6934 199.112 20.7347 199.904 20.8475 200.78C22.0881 211.126 26.0356 220.962 32.4925 229.188C33.6767 230.714 36.3554 228.679 35.1711 227.096Z" fill="#EA5455" fill-opacity="0.44"/>
<mask id="mask0" mask-type="alpha" maskUnits="userSpaceOnUse" x="0" y="-1" width="255" height="261">
<rect y="-0.00012207" width="255" height="260" fill="white"/>
</mask>
<g mask="url(#mask0)">
</g>
<g clip-path="url(#clip0)">
<path d="M150.91 62.6569C150.833 62.7332 150.452 63.013 139.436 63.2419C139.614 63.7507 142.59 70.1358 142.743 70.5174C143.227 70.5683 151.418 69.3727 151.775 69.4235C153.352 69.627 155.336 69.7288 156.43 69.1946C156.43 69.1946 151.393 62.1227 150.91 62.6569Z" fill="#953B16"/>
<path d="M152.054 65.5569C152.436 65.8876 152.792 66.2947 152.996 66.7526C153.326 67.4394 153.301 68.0754 152.996 68.7622C152.97 68.8131 152.665 69.5508 152.614 69.5254C154.064 69.8561 157.117 70.0087 158.415 69.3727C158.211 68.6604 157.982 67.9736 157.779 67.2613C157.041 64.8192 156.303 62.4026 155.591 59.9604C155.285 58.892 154.955 57.849 154.649 56.7806C154.548 56.4499 154.446 56.1192 154.344 55.7885C154.319 55.7122 154.115 55.5596 154.064 55.4832C153.937 55.3052 153.199 56.9078 153.148 57.0096C152.589 58.4087 152.283 59.8841 151.571 61.2069C151.367 61.5631 151.138 61.9192 150.859 62.2245C150.731 62.3771 150.604 62.5297 150.452 62.6315C150.324 62.7333 150.197 62.8096 150.121 62.9368C149.561 63.9543 151.113 64.7683 151.749 65.2771C151.825 65.3789 151.927 65.4552 152.054 65.5569Z" fill="#EFB44B"/>
<path d="M158.008 60.9525C159.178 65.3788 159.331 69.1692 158.364 69.4235C157.397 69.6779 155.642 66.32 154.471 61.8937C153.301 57.4674 153.25 55.6104 154.242 55.356C155.209 55.1016 156.837 56.5262 158.008 60.9525Z" fill="#3A1714"/>
<path d="M111.578 55.3306L111.553 55.3052C111.527 55.2543 111.527 55.2289 111.527 55.178C111.527 54.3131 112.062 53.499 112.749 52.9903C112.799 52.9648 112.825 52.9394 112.85 52.8885C112.901 52.8122 112.85 52.7104 112.85 52.6341C112.774 52.2525 112.876 51.8455 113.105 51.5403C113.334 51.235 113.639 50.9806 113.97 50.8025C114.071 50.7517 114.173 50.7008 114.25 50.6245C114.326 50.5481 114.377 50.4718 114.428 50.3955C114.682 50.0394 114.936 49.6832 115.191 49.3271C115.394 49.0473 115.572 48.9201 115.827 48.7166C116.463 48.2078 117.048 47.6481 117.735 47.2411C118.346 46.8596 119.032 46.5288 119.77 46.4525C121.602 46.2236 125.723 46.6815 125.723 46.6815C125.723 46.6815 122.06 52.6341 121.831 52.8631C121.602 53.092 119.083 55.1525 119.083 55.1525C119.058 55.1525 119.007 55.1525 118.982 55.1525C118.905 55.1525 118.803 55.1525 118.727 55.1525C118.32 55.1525 117.938 55.178 117.531 55.178C116.972 55.2034 116.412 55.2034 115.852 55.2289C115.267 55.2543 114.657 55.2543 114.071 55.2797C113.563 55.3052 113.054 55.3052 112.545 55.3306C112.367 55.3306 112.163 55.3306 111.985 55.356C111.909 55.356 111.858 55.356 111.782 55.356C111.756 55.3306 111.655 55.3815 111.578 55.3306Z" fill="#61B7B0"/>
<path d="M114.58 53.9823C114.58 53.9823 111.12 54.6692 111.578 55.356C112.036 56.0428 114.326 55.8139 114.326 55.8139L114.58 53.9823Z" fill="#1A1A1A"/>
<path d="M110.917 61.8429C110.917 61.8429 110.204 60.1639 111.349 58.1034C112.494 56.0429 113.639 54.2113 113.639 54.2113C113.639 54.2113 117.989 53.0666 118.676 53.9824C119.363 54.8981 117.989 59.0192 117.989 59.0192L110.917 61.8429Z" fill="#B9522A"/>
<path d="M121.296 43.5779C121.296 43.5779 121.754 45.4095 122.441 46.0964C123.128 46.7832 125.418 46.4271 125.418 46.4271L124.502 42.9165L121.296 43.5779Z" fill="#1A1A1A"/>
<path d="M120.024 40.271C120.024 40.271 118.422 37.5236 119.566 35.0052C119.566 35.0052 116.361 34.5473 117.506 33.6315C118.651 32.7157 120.024 33.6315 120.024 33.6315C120.024 33.6315 119.058 32.1306 120.024 31.7999C120.711 31.571 120.94 32.4867 120.94 32.4867C120.94 32.4867 124.146 26.7631 129.158 26.0762C134.195 25.3894 133.508 28.5946 133.508 28.5946C133.508 28.5946 136.713 28.5946 136.713 31.571C136.713 34.5473 134.195 37.5236 134.195 37.5236L123.688 42.7894L120.024 40.271Z" fill="#1A1A1A"/>
<path d="M134.678 46.4525C134.678 46.4525 136.052 44.392 135.365 39.7876C134.678 35.2086 133.991 33.8095 133.991 33.8095C133.991 33.8095 132.846 34.0385 131.015 32.6648C129.183 31.2911 128.038 33.8095 126.206 34.4963C124.374 35.1832 124.146 35.8955 123.688 37.0402C123.23 38.1849 123.204 40.9323 122.517 41.1613C121.83 41.3902 120.686 38.8718 119.312 39.5586C117.938 40.2455 118.396 43.9086 119.999 44.5955C121.601 45.2823 122.288 44.8244 122.288 44.8244C122.288 44.8244 122.746 46.427 123.662 47.1139C124.578 47.8262 134.678 46.4525 134.678 46.4525Z" fill="#B9522A"/>
<path d="M132.592 41.5429C132.185 41.4666 128.725 40.9324 128.496 41.5429C128.445 41.6956 130.023 43.2982 130.15 43.3745C131.091 44.0614 132.745 41.5684 132.592 41.5429Z" fill="white"/>
<path d="M127.479 37.2947C127.352 37.1929 127.199 37.1421 127.046 37.1929C127.021 37.1929 127.021 37.1929 126.995 37.1929C126.995 37.1929 126.995 37.1929 126.97 37.1929C126.97 37.1929 126.97 37.1929 126.944 37.1929C126.436 37.3201 126.385 38.0579 126.69 38.414C126.741 38.5158 126.792 38.5921 126.894 38.6175C126.995 38.6684 127.097 38.6684 127.199 38.6429H127.224C127.479 38.6429 127.631 38.4903 127.682 38.2614C127.886 37.9815 127.784 37.5237 127.479 37.2947Z" fill="#1A1A1A"/>
<path d="M134.322 36.8113C134.067 36.5569 133.66 36.5569 133.406 36.8368C133.381 36.8622 133.355 36.8877 133.355 36.9131C133.304 37.0148 133.279 37.1166 133.304 37.2184C133.304 37.2438 133.304 37.2438 133.304 37.2692C133.355 37.4473 133.431 37.6508 133.559 37.8034C133.838 38.0833 134.271 37.9815 134.449 37.6508C134.602 37.371 134.525 37.0148 134.322 36.8113Z" fill="#1A1A1A"/>
<path d="M131.931 39.8385C131.88 39.6604 131.676 39.5587 131.524 39.6095C131.346 39.6604 131.193 39.7113 131.015 39.7622C130.837 39.8131 130.735 40.0166 130.786 40.1692C130.837 40.3473 131.04 40.449 131.193 40.3981C131.371 40.3473 131.524 40.2964 131.702 40.2455C131.88 40.1946 131.982 40.0166 131.931 39.8385Z" fill="#953B16"/>
<path d="M128.013 34.1657C127.606 34.3946 127.173 34.5473 126.766 34.7762C126.359 35.0306 125.977 35.3104 125.596 35.5902C125.24 35.8192 125.57 36.4043 125.927 36.1753C126.334 35.9209 126.69 35.6157 127.097 35.3613C127.504 35.1069 127.936 34.9543 128.343 34.7508C128.725 34.5218 128.394 33.9622 128.013 34.1657Z" fill="#1A1A1A"/>
<path d="M134.882 35.5394C134.551 35.2851 134.195 35.2342 133.788 35.1833C133.355 35.1324 133.228 35.7938 133.661 35.8447C133.94 35.8701 134.195 35.8701 134.424 36.0482C134.78 36.3026 135.212 35.8193 134.882 35.5394Z" fill="#1A1A1A"/>
<path d="M155.667 175.986C155.896 175.986 172.051 178.301 171.618 174.638C171.186 170.974 155.998 168.634 155.998 168.634L155.667 175.986Z" fill="#274C47"/>
<path d="M116.895 59.7315C116.819 59.9096 114.097 63.5727 114.987 66.0911C115.903 68.6096 118.193 72.7052 118.193 72.7052L122.085 70.4157L122.772 58.9938L116.895 59.7315Z" fill="#1A1A1A"/>
<path d="M135.951 81.9394L136.408 122.845C138.037 121.776 139.69 120.733 141.319 119.665C142.591 118.825 143.888 118.011 145.16 117.172C146.33 116.409 147.882 116.332 147.679 114.679C147.45 112.593 147.094 110.532 146.788 108.472C146.585 107.149 146.407 105.801 146.254 104.453C145.949 101.374 145.796 98.2455 145.313 95.1929C145.058 93.4885 144.677 90.7411 143.506 87.892C143.43 87.7394 143.379 87.5867 143.303 87.4087C143.252 87.3069 143.176 87.2306 143.125 87.1289C142.082 85.5262 140.784 84.0762 139.232 82.8043C138.393 82.1174 137.502 81.4815 136.587 80.871C136.052 81.2017 135.951 81.9394 135.951 81.9394Z" fill="#6C4E4E"/>
<path d="M171.389 256.703C171.389 255.303 169.405 255.125 137.553 255.125C131.931 255.125 126.003 255.151 120.177 255.151C97.2038 255.151 85.2212 255.024 85.5011 256.703C85.6792 257.746 97.8399 258 120.787 258C161.238 258 171.389 257.898 171.389 256.703Z" fill="#847895"/>
<path d="M138.137 238.743C139.893 238.336 140.198 238.005 141.979 237.624C144.065 237.191 146.126 236.453 148.212 236.072C148.161 237.827 147.881 239.608 148.059 241.363C148.288 243.5 149.967 245.408 151.443 246.756C153.198 248.359 155.386 249.758 157.6 250.648C161.009 252.047 163.833 252.658 164.647 254.464C165.41 256.194 164.85 256.474 164.24 256.677C163.629 256.881 141.547 257.288 139.333 256.067C137.527 255.074 137.145 253.192 137.425 248.995C137.527 247.189 138.239 246.527 138.137 238.743Z" fill="#DC815C"/>
<path d="M136.331 254.286C136.586 252.709 136.459 250.801 137.4 249.02C139.69 250.063 140.834 250.826 143.2 249.605C144.549 248.918 145.21 247.646 146.177 246.578C146.94 245.764 147.805 245.637 148.721 245.662C149.713 245.688 150.655 246.044 151.392 246.705C153.377 248.46 155.819 249.936 157.575 250.648C160.984 252.047 163.808 252.658 164.622 254.464C164.927 255.151 165.029 255.583 164.978 255.914C164.927 256.397 164.571 256.55 164.215 256.677C163.604 256.881 139.41 257.873 137.196 256.677C136.484 256.27 136.153 255.38 136.331 254.286Z" fill="#4A3333"/>
<path d="M96.3133 256.448C96.3133 256.474 96.3387 256.499 96.3387 256.524C96.3642 256.626 96.415 256.728 96.4914 256.804C96.5168 256.83 96.5423 256.881 96.5677 256.906C97.0256 257.466 112.137 257.237 112.748 256.448C112.799 256.372 111.298 251.64 111.272 251.589C109.797 249.86 109.517 246.578 109.593 244.416C109.644 242.05 109.924 240.651 110.407 238.31C107.227 238.056 104.047 237.802 100.867 237.573C101.147 237.598 100.791 242.457 100.715 242.889C100.307 244.721 99.6715 246.527 98.8574 248.231C98.4503 249.096 97.9669 249.834 97.5344 250.623C97.1783 251.284 96.8475 251.971 96.6695 252.81C96.5423 253.345 96.3387 254.108 96.237 254.871C96.1606 255.431 96.1606 255.99 96.3133 256.448Z" fill="#EA9169"/>
<path d="M96.3134 256.448C96.3134 256.474 96.3389 256.499 96.3389 256.524C96.3643 256.626 96.4152 256.728 96.4915 256.804C96.517 256.83 96.5424 256.881 96.5678 256.906C96.924 257.364 98.7303 257.237 99.2391 257.262C101.071 257.364 102.47 257.415 104.302 257.415C106.134 257.44 107.991 257.415 109.822 257.339C110.484 257.313 111.145 257.262 111.807 257.186C112.697 257.059 113.282 256.728 113.282 255.685C113.282 255.151 113.079 254.642 112.875 254.159C112.646 253.65 111.807 251.895 111.374 251.538C111.12 251.335 108.703 247.265 105.905 246.832C100.918 246.044 98.2215 249.402 97.5346 250.623C97.1784 251.284 96.8477 251.971 96.6696 252.81C96.5424 253.345 96.3389 254.108 96.2371 254.871C96.2117 255.38 96.1608 255.965 96.3134 256.448Z" fill="#6C4E4E"/>
<path d="M96.8984 242.304C96.9493 243.602 106.261 245.357 111.12 245.891C112.545 246.044 113.766 245.942 113.918 244.518C114.86 236.555 117.785 218.392 120.482 200.178C122.339 187.688 123.51 177.97 124.934 168.634C129.844 199.72 130.786 244.187 131.523 245.688C132.363 247.367 148.365 239.303 148.365 239.303C148.365 239.303 149.052 200.916 148.009 183.821C146.966 166.726 140.987 128.11 140.987 128.11L104.429 128.568C104.429 128.568 104.302 130.451 104.073 133.758C103.946 135.818 103.767 138.439 103.564 141.491C101.529 171 96.8221 241.007 96.8984 242.304Z" fill="#B0C1D3"/>
<g opacity="0.5">
<path opacity="0.5" d="M127.758 191.809C130.251 218.087 130.964 244.518 131.523 245.688C132.363 247.367 148.365 239.303 148.365 239.303C148.365 239.303 148.848 212.261 148.391 193.462C141.445 193.259 134.5 193.411 127.758 191.809Z" fill="#93AABC"/>
</g>
<path d="M125.189 169.855C125.163 169.855 125.138 169.855 125.138 169.855C124.909 169.83 124.756 169.601 124.781 169.372L128.369 144.035C128.394 143.806 128.623 143.653 128.852 143.679C129.081 143.704 129.234 143.933 129.208 144.162L125.621 169.499C125.57 169.703 125.392 169.855 125.189 169.855Z" fill="#93AABC"/>
<path d="M127.656 150.751C128.317 149.962 129.157 149.301 129.818 148.512C130.556 147.647 131.167 146.732 131.727 145.739C131.956 145.332 132.566 145.689 132.337 146.096C131.32 147.927 129.869 150.191 128.012 151.26C127.707 151.438 127.427 151.031 127.656 150.751Z" fill="#93AABC"/>
<path d="M107.685 146.452C110.076 144.722 111.705 142.356 113.333 139.939C113.587 139.532 114.249 139.914 113.994 140.321C112.366 142.839 110.662 145.46 108.092 147.139C107.66 147.418 107.278 146.757 107.685 146.452Z" fill="#93AABC"/>
<path opacity="0.5" d="M129.437 160.443C131.04 169.855 132.312 179.318 133.253 188.832C133.508 191.478 133.737 194.098 133.966 196.744C133.991 196.998 133.584 196.973 133.559 196.718C132.796 187.255 131.727 177.817 130.328 168.431C129.946 165.785 129.514 163.165 129.081 160.545C129.005 160.29 129.386 160.214 129.437 160.443Z" fill="#93AABC"/>
<path d="M104.989 250.597C106.642 250.75 108.322 250.903 109.899 251.437C110.815 251.742 112.061 252.098 112.494 253.065C112.723 253.548 111.985 253.981 111.756 253.497C111.349 252.607 109.797 252.276 108.932 252.047C107.635 251.691 106.286 251.564 104.963 251.462C104.429 251.386 104.429 250.546 104.989 250.597Z" fill="#4A3333"/>
<path d="M152.156 251.31C154.853 251.233 157.55 250.47 160.221 251.259C160.73 251.411 160.526 252.225 159.992 252.073C157.422 251.31 154.777 252.098 152.156 252.149C151.622 252.175 151.622 251.335 152.156 251.31Z" fill="#4A3333"/>
<path d="M142.692 125.16C142.412 124.32 142.005 123.557 141.776 122.667C141.344 120.86 141.878 119.156 141.751 117.35C141.675 116.205 141.344 115.111 141.242 113.967C141.089 111.906 141.268 109.82 141.039 107.734C140.708 108.192 140.403 108.675 140.123 109.184C140.148 108.37 140.199 107.531 140.301 106.615C140.682 102.748 141.242 98.8815 141.675 95.0148C141.878 93.1324 142.133 91.1482 142.183 89.164C141.395 87.1798 140.581 85.221 139.767 83.2368C139.588 83.0841 139.436 82.9569 139.258 82.8043C137.528 81.3543 131.473 77.3859 131.015 77.0552C131.015 78.6578 128.318 88.121 123.255 87.5613C121.195 87.3324 119.287 85.9078 117.76 83.6692C116.412 81.685 115.013 79.7771 113.181 75.4526L102.114 100.204C102.114 100.204 105.498 110.609 104.404 114.145C103.259 117.808 102.572 122.132 102.572 123.277C102.572 124.88 103.132 126.279 103.691 127.296C103.513 128.161 103.361 129.026 103.259 129.917C103.157 130.654 103.081 131.367 103.055 132.104C103.055 132.41 102.928 132.766 103.081 133.046C103.234 133.376 104.098 133.427 103.971 133.758C103.971 133.758 103.971 133.783 103.946 133.783C102.954 136.124 101.656 140.55 101.682 143.272C101.682 144.239 101.707 146.986 102.877 147.393C103.234 147.52 103.844 147.469 104.226 147.495C104.836 147.546 105.421 147.546 106.032 147.495C107.253 147.393 108.474 147.088 109.594 146.579C113.028 145.053 115.445 141.898 118.676 139.965C123.179 137.268 128.827 137.192 133.381 134.623C134.627 133.91 135.772 133.046 136.917 132.155C138.062 131.265 139.181 130.4 140.326 129.51C141.064 128.95 141.802 128.365 142.26 127.576C142.285 127.525 142.311 127.474 142.336 127.424C142.692 126.788 142.921 125.846 142.692 125.16Z" fill="#6C4E4E"/>
<path opacity="0.5" d="M141.573 96.9735C142.565 94.0227 143.201 90.97 143.506 87.892C143.43 87.7393 143.379 87.5867 143.303 87.4086C143.252 87.3069 143.176 87.2306 143.125 87.1288C142.845 90.4358 142.184 93.692 141.191 96.8464C141.115 97.1007 141.497 97.2279 141.573 96.9735Z" fill="#4A3333"/>
<path d="M110.815 132.893L101.682 143.297C101.656 140.575 102.979 136.174 103.946 133.809C103.997 133.783 104.022 133.758 104.073 133.732L110.815 132.893Z" fill="#3A1714"/>
<path d="M88.4014 115.289C89.4954 116.129 98.6032 125.465 99.7989 126.203C100.435 126.584 101.224 126.94 101.961 126.838C102.318 126.788 102.623 126.838 102.954 126.813C103.386 126.762 103.793 126.61 104.175 126.431C104.709 126.152 105.192 125.796 105.676 125.465C105.93 125.287 106.185 125.134 106.464 125.058C107.151 124.88 107.838 125.261 108.449 125.643C109.161 126.075 109.899 126.533 110.611 126.966C110.789 127.067 110.967 127.195 111.069 127.373C111.476 128.085 110.128 128.314 109.695 128.212C108.805 127.983 107.864 127.296 107.406 127.525C106.948 127.754 106.21 128.365 106.235 128.543C106.235 128.696 107.889 128.467 108.347 128.924C108.932 129.51 112.901 132.333 111.018 133.147C110.56 133.351 109.95 133.096 109.543 133.402C109.136 133.707 109.187 134.368 108.78 134.699C108.245 135.106 107.355 134.597 106.821 135.004C106.592 135.182 106.515 135.488 106.337 135.717C106.006 136.174 105.396 136.353 104.836 136.353C104.276 136.353 103.691 136.251 103.132 136.276C102.521 136.302 101.91 136.531 101.274 136.531C100.155 136.531 99.1629 135.895 98.2216 135.284C97.7636 134.979 91.8614 131.036 91.8105 131.01C73.0861 117.579 86.7732 117.782 88.4014 115.289Z" fill="#EA9169"/>
<path d="M100.842 133.732C101.046 133.02 101.173 132.384 101.122 131.646C101.097 131.163 101.046 130.68 101.224 130.196C101.656 129.026 103.081 128.823 102.903 127.322C102.852 126.864 103.666 126.737 103.717 127.22C103.87 128.289 103.539 129.077 102.699 129.764C101.529 130.756 102.241 132.689 101.58 134.038C101.351 134.445 100.69 134.165 100.842 133.732Z" fill="#DC815C"/>
<path d="M115.928 90.7666C115.878 91.0973 112.367 93.3868 112.138 93.5903C111.069 94.6078 110.001 95.5999 108.932 96.6175C107.762 97.7113 106.592 98.8052 105.421 99.899C105.167 100.153 104.862 100.484 104.556 100.84C104.124 101.324 103.666 101.782 103.234 101.985C103.157 102.01 103.106 102.112 103.055 102.163C103.005 102.138 102.928 102.112 102.877 102.087C102.826 102.061 102.776 102.061 102.725 102.036C102.445 101.96 102.165 101.934 101.911 101.934C101.173 101.96 100.46 102.265 99.8244 102.748C99.0867 103.308 98.4506 103.995 97.662 104.503C97.5602 104.554 97.4839 104.631 97.3821 104.681C96.8988 104.961 96.3645 105.139 95.8302 105.292C95.6522 105.343 95.4741 105.394 95.296 105.419C94.7363 105.546 94.1511 105.674 93.5914 105.826C93.2098 105.928 92.8282 106.055 92.4721 106.208C92.3957 106.233 92.3194 106.284 92.2431 106.31H92.2176C91.1491 106.844 90.0043 108.268 88.8595 108.65C88.4778 108.777 87.7401 109.032 87.2058 109.362C86.926 109.54 86.6716 109.769 86.5698 109.998C86.468 110.227 88.1471 113.051 89.7753 114.653C90.1061 114.959 90.4113 115.239 90.7166 115.442C90.8184 115.493 93.4134 116.46 94.3038 118.24C94.6854 119.003 94.8635 119.97 94.5582 121.293C94.3547 122.056 93.9985 122.946 93.4134 123.964C92.2431 125.974 90.2841 127.78 88.5033 128.492C87.7909 128.772 87.1295 128.874 86.5189 128.746C85.4758 128.517 84.3564 128.009 83.7204 127.118C83.4406 126.711 83.3134 126.228 83.059 125.796C82.7537 125.261 82.194 124.931 81.6852 124.6C80.4386 123.786 79.3446 122.717 78.5051 121.471C78.098 120.886 77.7673 120.275 77.3857 119.665C76.3171 118.011 74.9433 116.561 73.7222 115.01C72.501 113.458 71.4325 111.703 71.0763 109.769C71 109.286 70.9491 108.777 70.9746 108.268C71 107.174 71.2544 106.157 71.5343 105.089C71.7378 104.224 71.9159 103.384 72.2975 102.57C73.0353 100.993 74.1801 99.6192 75.4522 98.4745C77.7164 96.414 80.4386 95.0403 82.9063 93.2341C82.9572 93.2087 83.0081 93.1578 83.059 93.1324C83.5678 92.7508 84.0766 92.3692 84.5854 91.9622C85.0942 91.5806 85.5776 91.199 86.0864 90.8175C86.2136 90.7157 86.3408 90.6394 86.4426 90.5376C86.7479 90.3087 87.0532 90.0543 87.3585 89.8254C87.6637 89.571 87.969 89.342 88.2743 89.0876C88.9103 88.5789 89.5209 88.0701 90.1569 87.5868C93.4897 84.8903 97.1277 81.6596 101.147 80.0061C103.284 79.1157 106.388 77.971 108.78 77.1061L113.155 75.2745C113.639 75.9104 115.928 90.614 115.928 90.7666Z" fill="#6C4E4E"/>
<path d="M85.6539 106.996C85.8829 106.895 86.1373 106.996 86.2136 107.225C86.4426 107.734 86.6715 108.243 86.9005 108.726C87.5111 109.973 88.0962 111.372 89.0884 112.364C89.3174 112.695 88.9358 113.178 88.5796 112.898C87.5874 112.033 86.9768 110.812 86.3917 109.642C86.0355 108.955 85.7302 108.268 85.3995 107.581C85.2977 107.353 85.3995 107.098 85.6539 106.996Z" fill="#FBFBFB"/>
<path opacity="0.5" d="M98.9848 81.4052C102.75 85.8824 104.862 91.6061 104.938 97.457C104.938 97.7368 104.531 97.7368 104.505 97.457C104.404 91.7333 102.318 86.1368 98.6795 81.7359C98.5014 81.4815 98.8067 81.1763 98.9848 81.4052Z" fill="#4A3333"/>
<path d="M84.4327 123.659C87.0277 121.725 90.5385 118.418 89.8007 114.806C89.699 114.297 90.4113 114.094 90.5639 114.603C91.2 116.587 90.1823 118.647 89.0884 120.275C87.9944 121.903 86.5697 123.404 84.8398 124.396C84.3564 124.702 84.0002 123.989 84.4327 123.659Z" fill="#4A3333"/>
<path d="M102.14 101.4C103.437 100.891 104.811 100.739 106.185 100.891C106.643 100.942 106.592 101.731 106.134 101.705C104.862 101.603 103.641 101.807 102.445 102.239C101.86 102.468 101.605 101.629 102.14 101.4Z" fill="#4A3333"/>
<path d="M125.29 103.791L142.158 123.124L141.751 114.526L125.29 103.791Z" fill="#3A1714"/>
<path d="M97.6366 104.529C97.5348 104.58 97.4585 104.656 97.3567 104.707C96.8734 104.987 96.3391 105.165 95.8049 105.317C95.6268 105.368 95.4487 105.419 95.2706 105.445C94.7109 105.572 94.1258 105.699 93.5661 105.852C91.2255 105.19 88.6305 103.588 88.7323 100.611C88.7832 99.4665 89.7499 97.6604 90.157 96.6174C90.5132 95.7016 90.9711 94.5569 90.1061 93.7937C88.7323 92.5472 86.519 92.0893 84.6109 91.9876C85.1197 91.606 85.6031 91.2244 86.1119 90.8429C86.2391 90.7411 86.3663 90.6648 86.4681 90.563C86.7734 90.3341 87.0787 90.0797 87.3839 89.8508C90.6149 90.5122 94.7872 91.199 94.2021 94.7095C93.8459 96.8464 91.5054 99.7209 93.0572 101.781C94.2275 103.282 95.8048 103.995 97.6366 104.529Z" fill="#EFB44B"/>
<path opacity="0.5" d="M140.123 123.964C137.807 128.772 132.592 131.036 127.758 132.537C124.985 133.402 122.161 134.139 119.49 135.284C116.793 136.429 114.478 138.159 112.061 139.761C109.212 141.618 106.134 142.967 102.826 143.653C102.572 143.704 102.674 144.086 102.928 144.035C105.854 143.45 108.678 142.356 111.247 140.804C113.817 139.253 116.157 137.345 118.905 136.047C124.095 133.605 129.972 132.995 134.933 129.993C137.273 128.568 139.359 126.66 140.53 124.167C140.631 123.938 140.25 123.71 140.123 123.964Z" fill="#4A3333"/>
<path d="M136.943 105.852C136.943 105.852 132.821 102.189 133.279 97.635C133.737 93.0561 135.798 89.8762 134.653 85.2973C133.508 80.7183 125.978 73.6464 127.809 68.1517C129.641 62.6569 137.401 59.7061 143.354 61.9701C147.068 63.3946 146.788 66.778 148.391 68.1517C149.994 69.5253 155.387 70.6955 157.982 78.8868C160.959 88.2482 155.464 92.1403 155.464 92.1403L141.064 107.683L136.943 105.852Z" fill="#1A1A1A"/>
<path d="M144.142 100.688C144.193 100.51 146.992 94.3534 145.847 90.9701C145.542 90.0289 144.651 87.9429 144.346 87.2815C143.583 85.5262 142.997 84.6868 142.997 84.6868C142.997 84.6868 143.125 83.6947 143.354 82.321C144.015 78.5306 145.542 71.8403 147.551 75.5289C150.299 80.5657 155.54 85.1192 155.54 85.1192L144.142 100.688Z" fill="#B9522A"/>
<path d="M147.679 79.1156C147.755 79.1156 149.052 84.1525 144.346 87.3069C143.583 85.5516 142.997 84.7121 142.997 84.7121C142.997 84.7121 143.125 83.72 143.354 82.3463L147.679 79.1156Z" fill="#4F2A2A"/>
<path d="M144.956 70.8228C143.328 68.8386 140.759 68.5587 138.571 67.4903C138.036 67.3631 137.528 67.2105 137.019 66.9816C136.663 68.7877 136.001 70.4666 135.085 72.0947C134.271 73.5193 133.991 74.5368 133.762 76.5719C133.762 79.5482 138.342 84.3307 141.064 84.7886C144.702 85.3991 148.136 81.278 148.136 77.4877C148.136 76.8263 148.594 76.6737 148.289 75.8342C147.195 74.1807 146.254 72.4 144.956 70.8228Z" fill="#B9522A"/>
<g opacity="0.6">
<path opacity="0.6" d="M139.233 78.5051C139.156 78.3271 139.258 78.1236 139.436 78.0473C139.614 77.9709 139.792 77.8946 139.97 77.8437C140.149 77.7674 140.352 77.8692 140.428 78.0473C140.505 78.2253 140.403 78.4288 140.225 78.5051C140.047 78.5815 139.869 78.6578 139.691 78.7087C139.538 78.7595 139.309 78.6832 139.233 78.5051Z" fill="#973A0C"/>
</g>
<path d="M139.13 70.7719C138.978 70.7464 138.851 70.6701 138.8 70.5175C138.723 70.3394 138.851 70.1359 139.054 70.1104C139.105 70.1104 140.25 69.8306 141.496 70.0596C141.7 70.1104 141.853 70.2885 141.827 70.4666C141.802 70.6447 141.598 70.7719 141.369 70.721C140.326 70.5175 139.308 70.7719 139.308 70.7719C139.232 70.7719 139.181 70.7719 139.13 70.7719Z" fill="#1A1A1A"/>
<path d="M134.017 76.1902C133.94 76.2919 133.788 76.3428 133.661 76.2919C133.483 76.2411 133.381 76.063 133.432 75.8849C133.432 75.834 133.737 74.8165 134.475 73.977C134.602 73.8244 134.831 73.8244 134.958 73.9516C135.085 74.0788 135.111 74.3077 134.984 74.4349C134.348 75.1472 134.093 76.0376 134.093 76.063C134.093 76.1139 134.068 76.1647 134.017 76.1902Z" fill="#1A1A1A"/>
<path d="M135.162 77.6403C135.06 77.6148 134.958 77.5639 134.856 77.5131C134.22 77.0552 134.5 76.4192 135.111 76.1394C135.289 76.063 135.492 76.0376 135.645 76.1394C135.747 76.1902 135.823 76.292 135.874 76.3938C136.001 76.5973 136.052 76.8516 136.001 77.0806C135.95 77.3095 135.798 77.5385 135.594 77.6148C135.467 77.6657 135.289 77.6657 135.162 77.6403Z" fill="#1A1A1A"/>
<path d="M141.675 73.4429C141.573 73.4175 141.471 73.3666 141.369 73.3157C140.733 72.8578 140.988 72.1964 141.649 71.9166C141.827 71.8403 142.031 71.8149 142.184 71.9166C142.285 71.9675 142.362 72.0692 142.413 72.171C142.54 72.3745 142.591 72.6289 142.54 72.8578C142.489 73.0868 142.336 73.3157 142.107 73.4175C141.98 73.4684 141.827 73.4684 141.675 73.4429Z" fill="#1A1A1A"/>
<path d="M136.587 66.6508C136.587 66.6508 137.731 68.0245 140.708 68.9403C143.685 69.856 145.287 71.6876 145.974 72.8324C146.661 73.9771 149.282 80.2604 151.571 82.7789C153.861 85.2973 156.914 86.6201 157.753 84.8394C158.593 83.0587 159.102 81.1253 156.888 76.292C154.675 71.4587 149.638 70.3139 149.638 70.3139L140.275 63.6999L136.587 66.6508Z" fill="#1A1A1A"/>
<path d="M139.92 80.8455C140.276 80.5148 142.718 78.9885 143.151 78.8359C143.736 80.4894 142.26 83.2876 139.92 80.8455Z" fill="white"/>
<path d="M132.134 78.4543C131.855 78.0473 131.193 78.4289 131.473 78.8359C133.381 81.7868 134.628 85.5771 133.381 89.0113C132.847 90.4868 132.058 91.8605 131.6 93.3868C131.142 94.9894 130.99 96.6684 131.142 98.3473C131.193 98.9324 132.109 98.9324 132.058 98.3473C131.88 96.3377 132.134 94.3789 132.872 92.4964C133.483 90.9192 134.348 89.4438 134.653 87.7649C135.238 84.5342 133.941 81.0999 132.134 78.4543Z" fill="#1A1A1A"/>
<path d="M160.704 171.203C160.704 171.203 156.354 191.071 157.499 198.168C158.644 205.24 160.246 210.048 158.872 221.47C157.499 232.892 156.583 234.953 157.27 239.989C157.855 244.187 160.348 250.089 159.788 251.411C159.229 252.734 138.545 253.014 138.545 253.014C138.545 253.014 148.594 244.568 149.281 240.676C149.968 236.784 142.667 202.976 142.667 202.976L138.774 190.639L151.571 168.939L160.704 171.203Z" fill="#AF4423"/>
<path d="M160.501 255.889C159.789 256.804 151.902 256.804 151.597 256.397C151.292 255.99 151.419 254.184 151.088 254.286C150.783 254.388 146.28 255.202 142.896 256.321C139.513 257.44 131.957 256.016 131.55 255.889C131.295 255.812 131.219 254.922 131.397 253.981C131.55 253.294 131.855 252.582 132.389 252.175C133.382 251.437 138.851 250.139 141.217 248.995C143.583 247.875 144.728 245.611 145.237 245.611C145.746 245.611 147.476 246.222 147.578 247.061C147.679 247.875 146.331 249.936 146.687 250.292C147.043 250.648 154.701 249.631 158.899 246.095C158.899 246.095 159.407 247.952 160.018 251.157C160.425 253.37 160.832 255.456 160.501 255.889Z" fill="#333333"/>
<path d="M160.5 255.889C159.407 257.262 151.952 256.957 151.647 256.55C151.342 256.143 151.342 254.54 151.036 254.642C150.731 254.744 147.348 255.583 143.964 256.728C140.529 257.898 132.109 256.499 131.676 256.372C131.422 256.296 131.065 255.024 131.396 254.006C133.075 254.464 137.171 255.227 141.216 254.846C146.076 254.362 150.553 252.531 159.941 251.157C160.45 253.319 160.831 255.456 160.5 255.889Z" fill="#1A1A1A"/>
<path d="M134.424 159.095C134.424 159.095 126.664 188.578 127.122 192.445C127.58 196.337 144.956 223.531 146.763 233.579C148.594 243.627 145.618 250.038 145.618 250.038L160.933 239.074C160.933 239.074 157.626 235.538 155.565 230.272C153.504 225.006 152.589 212.439 149.154 205.139C145.72 197.838 142.743 193.946 142.972 192.801C143.201 191.656 155.082 173.366 157.829 163.089C160.577 152.811 145.033 149.835 145.033 149.835L134.424 159.095Z" fill="#B9522A"/>
<path d="M165.156 244.416C164.927 245.561 158.313 249.911 157.855 249.682C157.397 249.453 156.481 247.392 156.252 247.621C156.023 247.85 152.36 250.597 149.841 253.116C147.322 255.634 139.537 256.932 139.105 257.008C138.851 257.059 138.367 256.296 138.113 255.38C137.935 254.693 137.884 253.93 138.189 253.345C138.749 252.251 143.455 249.453 145.033 247.392C146.635 245.332 146.635 242.813 147.093 242.584C147.551 242.355 149.383 242.126 149.841 242.813C150.299 243.5 150.019 245.917 150.502 246.069C150.986 246.222 156.964 241.643 159.101 236.632C159.101 236.632 160.882 238.514 162.51 240.447C163.961 242.177 165.258 243.907 165.156 244.416Z" fill="#484B4C"/>
<path d="M165.157 244.416C164.826 246.12 158.415 250.012 157.957 249.783C157.499 249.554 156.583 247.723 156.354 247.952C156.125 248.181 152.691 251.386 150.172 253.904C147.653 256.423 139.868 257.262 139.436 257.339C139.181 257.389 138.291 256.423 138.113 255.38C139.843 255.049 144.244 254.693 147.653 252.531C151.775 249.936 154.726 245.917 162.511 240.473C163.961 242.177 165.258 243.907 165.157 244.416Z" fill="#1A1A1A"/>
<path d="M141.522 125.032C141.522 125.032 129.972 170.313 130.786 171.178C131.6 172.068 133.177 173.188 139.919 174.154C147.907 175.299 172.025 172.45 171.567 175.172C171.567 175.172 172.941 171.967 170.88 161.231C168.82 150.496 163.681 132.333 158.872 124.32C157.549 122.107 141.522 125.032 141.522 125.032Z" fill="#61B7B0"/>
<path d="M141.522 123.659C141.522 123.659 142.998 119.436 140.962 114.17C139.003 109.184 138.647 107.429 140.275 104.351C142.336 100.459 147.933 92.8017 150.452 88.935C152.97 85.0684 155.718 83.4403 158.669 85.2719C161.646 87.1035 163.248 89.6219 163.477 97.6096C163.706 105.597 158.898 117.248 158.669 120.224C158.44 123.201 158.898 126.177 158.898 126.177L141.573 126.991L141.522 123.659Z" fill="#61B7B0"/>
<path d="M162.078 91.6824C161.162 86.1877 157.244 83.5421 153.861 86.1877C150.782 88.5789 148.264 96.5921 150.553 97.5079C150.553 97.5079 148.849 109.744 148.264 110.075C147.068 110.787 138.723 105.775 134.348 102.774C133.355 102.01 131.905 100.84 131.091 100.077C129.794 98.8815 128.878 95.7526 127.733 94.7605C126.588 93.7684 123.917 92.064 123.23 91.657C122.568 91.2245 122.365 93.0052 123.357 93.8193C123.357 93.8193 119.821 91.8859 118.701 92.1149C118.116 92.2421 118.04 92.7508 117.506 93.0052C117.073 93.2087 116.564 93.1579 116.107 93.285C115.649 93.4122 115.191 93.8956 115.394 94.328C115.47 94.4807 115.623 94.6079 115.699 94.7605C115.852 95.0657 115.623 95.4728 115.725 95.8035C115.852 96.185 116.335 96.3377 116.564 96.6684C116.819 97.05 116.717 97.5333 116.768 97.9912C116.895 98.8815 117.658 99.5175 118.371 100.052C119.134 100.611 119.897 101.171 120.635 101.731C121.322 102.239 122.034 102.748 122.797 103.13C123.662 103.562 124.578 103.842 125.443 104.249C126.41 104.732 127.25 105.394 128.064 106.081C128.7 106.615 129.387 107.2 130.048 107.76C130.048 107.81 130.048 107.836 130.048 107.836C130.048 107.836 145.109 121.369 149.434 121.369C153.784 121.369 155.387 115.875 156.278 113.61C157.27 111.321 162.994 97.1517 162.078 91.6824Z" fill="#B9522A"/>
<path d="M125.774 94.964C124.884 94.4298 124.502 93.743 123.612 93.2088C123.154 92.929 122.645 93.6158 123.128 93.8956C124.019 94.4298 124.884 94.9895 125.774 95.5237C126.257 95.8289 126.257 95.2439 125.774 94.964Z" fill="#A03B1C"/>
<path d="M150.197 111.092C149.459 110.685 148.798 110.151 148.034 109.82C147.551 109.617 147.144 110.303 147.627 110.532C148.416 110.914 149.205 111.321 150.019 111.626C150.451 111.804 150.604 111.321 150.197 111.092Z" fill="#A03B1C"/>
<path d="M150.808 94.0991C150.503 95.0403 150.299 96.007 150.146 96.9991C150.07 97.5333 150.884 97.7623 150.96 97.2281C151.113 96.236 151.062 94.9386 151.342 93.9719C151.495 93.4377 150.986 93.5904 150.808 94.0991Z" fill="#A03B1C"/>
<path d="M159.305 125.21C159.305 125.21 158.974 123.328 158.745 123.099C158.516 122.87 147.195 120.708 141.726 121.395C141.726 121.395 140.53 125.49 141.293 125.719C141.827 125.872 150.274 124.727 153.708 124.498C157.168 124.244 159.305 125.21 159.305 125.21Z" fill="#EFB44B"/>
<path d="M134.577 46.5034C134.577 46.5034 133.686 44.8245 132.618 44.621C130.328 44.1631 127.987 45.2315 125.469 44.9262C125.443 44.9262 125.393 44.9008 125.367 44.9008C123.484 46.2236 122.416 47.3429 122.416 47.3429C122.416 47.3429 117.608 47.0376 117.251 51.7692C116.794 57.7727 118.371 62.7841 120.661 64.9973C121.831 66.1166 135.391 57.1876 135.391 57.1876C135.391 57.1876 139.283 55.2289 139.487 49.8359C139.639 44.4429 134.933 46.3254 134.577 46.5034Z" fill="#4F2A2A"/>
<path d="M130.989 77.0042C130.353 76.3937 129.615 75.4779 128.776 74.1297C128.623 73.9007 128.496 73.6463 128.369 73.3919C127.886 72.4253 127.555 71.3314 127.555 70.2121C127.555 70.1358 126.919 69.0165 126.028 67.4902C126.003 67.4393 125.977 67.3884 125.952 67.3375C123.942 63.9542 120.813 58.7647 120.813 58.7647C120.813 58.7647 120.177 63.9033 119.185 67.9226C118.523 70.6191 116.819 72.9849 114.453 74.4349C114.046 74.6893 113.639 74.9183 113.155 75.1726C113.155 75.2235 113.511 76.4446 114.529 78.4542C115.674 80.7437 116.742 82.2446 117.735 83.6946C119.261 85.9332 121.169 87.3577 123.23 87.5867C126.97 87.9937 129.463 82.9569 130.455 79.6244C130.989 77.7419 130.989 77.106 130.989 77.0042Z" fill="#E7926B"/>
<path d="M128.395 73.392C124.324 73.1122 120.737 69.2455 121.271 64.9973C121.373 64.3104 121.627 63.9288 121.933 63.8016C122.111 63.7253 122.289 63.7253 122.492 63.7762C123.408 64.056 124.68 65.6078 125.952 67.3376C125.978 67.3885 126.003 67.4394 126.029 67.4902C126.919 69.0166 127.555 70.1359 127.555 70.2122C127.58 71.3315 127.886 72.3999 128.395 73.392Z" fill="#B9522A"/>
<path d="M122.772 49.0727C122.747 49.0727 122.721 49.0727 122.696 49.0727C122.518 49.0218 122.416 48.8437 122.441 48.6911C122.441 48.6911 122.619 47.877 122.212 47.3174C121.958 46.9613 121.5 46.7577 120.838 46.7323C120.381 46.7069 119.973 46.7577 119.566 46.9104C119.388 46.9613 119.21 46.8849 119.159 46.7069C119.109 46.5288 119.185 46.3507 119.363 46.2999C119.846 46.1218 120.355 46.0455 120.889 46.0963C121.729 46.1472 122.365 46.427 122.747 46.9613C123.357 47.7753 123.103 48.8183 123.103 48.8692C123.052 48.9709 122.925 49.0727 122.772 49.0727Z" fill="#4F2A2A"/>
<path d="M135.747 58.5868C135.492 59.6297 134.627 67.9736 132.083 69.9578C130.735 71.0008 127.707 70.5938 126.308 70.1359C122.009 68.7876 120.329 65.3025 120.406 61.8683C120.406 61.8683 116.997 59.2227 119.439 56.5008C121.093 54.6438 122.924 57.8745 122.924 57.8745C122.924 57.8745 124.044 56.7552 125.29 53.8806C127.758 54.7201 133.508 54.7455 135.467 52.8885C135.467 52.9139 136.179 56.8569 135.747 58.5868Z" fill="#E7926B"/>
<path d="M128.267 58.7395C128.165 58.5868 128.038 58.5105 127.885 58.4851C127.86 58.4851 127.86 58.4851 127.834 58.4851C127.834 58.4851 127.834 58.4851 127.809 58.4851C127.809 58.4851 127.809 58.4851 127.783 58.4851C127.249 58.4342 126.944 59.1465 127.147 59.6044C127.173 59.7061 127.198 59.8079 127.275 59.8842C127.351 59.9605 127.453 60.0114 127.554 60.0114C127.554 60.0114 127.58 60.0114 127.58 60.0368C127.809 60.1386 128.012 60.0114 128.165 59.8333C128.445 59.5281 128.496 59.0702 128.267 58.7395Z" fill="#1A1A1A"/>
<path d="M135.009 59.8078C134.856 59.4771 134.424 59.3499 134.093 59.528C134.067 59.5534 134.042 59.5534 134.016 59.5789C133.94 59.6552 133.864 59.757 133.864 59.8587C133.864 59.8842 133.864 59.8842 133.864 59.9096C133.864 60.1131 133.864 60.3166 133.94 60.5201C134.118 60.8763 134.576 60.9271 134.856 60.6727C135.11 60.4692 135.161 60.0877 135.009 59.8078Z" fill="#1A1A1A"/>
<path d="M131.447 63.8525C131.447 63.6744 131.295 63.4963 131.116 63.4963C130.938 63.4963 130.735 63.4963 130.557 63.4709C130.379 63.4709 130.201 63.6235 130.201 63.8016C130.201 63.9797 130.353 64.1577 130.531 64.1577C130.709 64.1577 130.913 64.1577 131.091 64.1832C131.269 64.1832 131.422 64.0306 131.447 63.8525Z" fill="#D25C48"/>
<path d="M129.412 55.8648C128.979 56.0683 128.496 56.1955 128.063 56.4244C127.631 56.6534 127.224 56.9332 126.791 57.1876C126.41 57.4165 126.715 58.0271 127.097 57.7981C127.529 57.5437 127.936 57.2639 128.369 57.0349C128.801 56.806 129.259 56.6788 129.717 56.4753C130.149 56.2972 129.819 55.6613 129.412 55.8648Z" fill="#4A3333"/>
<path d="M136.179 56.9333C136.001 56.5263 135.721 56.2974 135.365 56.0684C135.009 55.814 134.551 56.3482 134.932 56.6026C135.161 56.7553 135.416 56.9079 135.518 57.1623C135.696 57.5947 136.357 57.3658 136.179 56.9333Z" fill="#4A3333"/>
<path d="M128.064 65.3025C128.776 65.8876 129.539 66.2437 130.455 66.32C130.989 66.3709 130.888 67.1595 130.353 67.1341C129.336 67.0832 128.547 66.549 127.784 65.8367C127.402 65.4805 127.631 64.9463 128.064 65.3025Z" fill="#D25C48"/>
<path d="M130.455 79.5991C129.437 82.9061 126.995 87.9938 123.23 87.5614C121.169 87.3324 119.261 85.9079 117.734 83.6693C116.742 82.2193 115.725 80.7947 114.529 78.4289C114.554 78.4289 123.026 85.8315 130.455 79.5991Z" fill="white"/>
<path d="M130.379 71.0516C129.539 70.5938 128.522 70.5683 127.555 70.5683C127.809 73.4938 129.819 76.6481 131.676 79.5481C132.033 77.9709 132.287 76.3938 132.16 74.7911C132.033 73.4174 131.651 71.7639 130.379 71.0516Z" fill="#1A1A1A"/>
<path d="M111.578 63.8017C111.578 63.8017 109.518 59.6807 111.807 58.307C114.097 56.9333 118.422 57.3912 120.483 55.3307C122.543 53.2701 124.604 50.2938 125.291 49.8359C125.978 49.378 126.436 50.5228 126.207 51.4386C126.944 51.0316 127.886 50.7772 128.7 50.5482C128.929 50.4973 129.209 50.421 129.438 50.4973C129.667 50.5737 129.896 50.7772 129.87 51.0316C129.845 51.2859 129.59 51.464 129.387 51.5912C128.903 51.9219 128.445 52.3798 128.115 52.8631C128.089 52.8886 128.064 52.9394 128.064 52.9903C128.089 53.0666 128.166 53.0666 128.242 53.0666C128.649 53.0666 129.031 53.0666 129.438 53.0158C129.794 52.9649 130.175 52.8377 130.532 52.9394C130.735 52.9903 130.99 53.1684 131.04 53.3973C131.091 53.6008 130.939 53.7789 130.939 53.9824C130.913 54.4149 131.142 54.8982 130.913 55.3052C130.684 55.7631 129.947 55.8903 129.845 56.3991C129.819 56.5772 129.87 56.7298 129.819 56.9079C129.768 57.1368 129.565 57.2894 129.361 57.4166C128.522 57.9254 127.581 58.1035 126.614 58.2561C125.901 58.3579 125.189 58.4851 124.502 58.7394C123.535 59.1465 122.62 59.6807 121.755 60.2912C120.025 61.5123 118.447 62.9623 116.692 64.1579C115.751 64.7938 114.606 65.3535 113.537 64.9973C112.672 64.8193 112.112 64.514 111.578 63.8017Z" fill="#B9522A"/>
<path d="M126.13 51.1078C125.571 51.3368 125.113 51.8201 124.578 52.1508C124.146 52.4052 124.426 52.8885 124.884 52.6341C125.392 52.3543 125.901 52.0999 126.436 51.8455C126.843 51.642 126.563 50.9297 126.13 51.1078Z" fill="#953B16"/>
<path d="M117.379 56.4499C115.954 56.5008 114.53 57.2385 113.156 57.6201C112.647 57.7727 112.876 58.0525 113.41 57.9253C114.733 57.5946 116.031 57.3911 117.379 57.2639C117.888 57.213 117.913 56.4499 117.379 56.4499Z" fill="#953B16"/>
<path d="M122.314 81.4053L118.142 87.2307C118.142 87.2307 117.277 86.9 116.361 84.1527C116.03 83.1606 115.649 82.3465 115.191 81.5579C114.402 80.1842 113.359 78.836 111.909 76.4956C109.619 72.8325 107.457 66.5491 109.975 63.8018C112.494 61.0544 116.386 61.7412 117.735 66.5491C119.007 70.9755 119.109 74.4351 119.465 75.122C119.49 75.1728 119.541 75.2237 119.567 75.2237C120.025 75.4527 122.467 73.9009 123.408 74.6895C124.375 75.4527 122.314 81.4053 122.314 81.4053Z" fill="#B9522A"/>
<path d="M122.314 81.4053L118.142 87.2308C118.142 87.2308 117.277 86.9001 116.361 84.1527C116.03 83.1606 115.649 82.3465 115.191 81.5579C115.369 81.4816 115.903 81.4308 116.132 80.0571C116.488 77.9711 115.979 74.7913 117.15 74.4606C118.396 74.1299 119.516 75.2492 119.541 75.2492C119.999 75.4781 122.441 73.9264 123.383 74.715C124.375 75.4527 122.314 81.4053 122.314 81.4053Z" fill="#EFB44B"/>
<path d="M117.506 86.4166C117.735 86.8745 118.421 88.0193 120.024 87.3324C121.627 86.6456 126.435 79.8026 124.604 75.9105C122.772 72.0184 118.65 77.0552 117.76 80.4894C116.819 83.8982 117.2 85.7807 117.506 86.4166Z" fill="#3A1714"/>
<path d="M116.819 63.8018C115.725 62.0211 113.664 62.0974 111.807 62.4281C111.375 62.5044 111.273 63.1149 111.706 62.9877C113.639 62.4281 115.013 62.886 116.183 64.3106C116.488 64.6667 117.048 64.2088 116.819 63.8018Z" fill="#953B16"/>
<path d="M130.073 45.0535C129.59 44.8245 129.132 44.5193 128.649 44.2903C127.86 43.9087 126.893 43.8579 126.079 44.1377C125.901 44.214 125.698 44.2903 125.494 44.3157C125.316 44.3157 125.138 44.2649 124.96 44.2649C124.629 44.2649 124.324 44.4429 124.095 44.6719C123.84 44.9263 123.688 45.2061 123.535 45.5114C123.382 45.8166 123.179 46.0965 123.281 46.4526C123.459 46.3508 123.637 46.2491 123.815 46.1728C123.993 46.071 124.197 45.9693 124.425 45.9693C124.858 45.9947 125.087 46.4526 125.367 46.7579C125.672 47.0886 126.003 47.4193 126.41 47.6228C127.173 48.0043 128.089 47.7245 128.903 47.9026C129.59 48.0552 130.073 48.5894 130.557 49.0982C132.236 50.9043 134.017 52.6087 135.925 54.1859C136.713 54.8473 137.553 55.5087 138.545 55.8394C139.461 56.1447 140.682 56.1701 141.369 55.407C142.768 53.8807 142.845 51.5912 141.7 49.9122C140.784 48.6149 139.436 47.9026 137.935 47.4956C137.451 47.3684 136.942 47.2666 136.459 47.114C134.882 46.6561 130.531 45.2824 130.073 45.0535Z" fill="#B9522A"/>
<path d="M128.674 44.2139C127.682 43.2981 126.614 43.6543 125.494 44.0104C124.909 44.1885 124.375 43.985 123.84 44.3666C123.561 44.5701 123.357 44.8499 123.204 45.1297C123.052 45.4095 122.848 45.7911 122.899 46.0964C122.925 46.1727 122.95 46.249 123.026 46.249C123.128 46.2744 123.23 46.1981 123.306 46.0964C123.459 45.8929 123.561 45.6639 123.688 45.4604C123.815 45.2569 123.968 45.0534 124.197 44.9516C124.4 44.8753 124.655 44.9008 124.884 44.8753C125.367 44.8245 125.774 44.5701 126.206 44.392C127.046 44.0867 127.911 44.2139 128.725 44.5701C129.056 44.7481 128.929 44.4683 128.674 44.2139Z" fill="#953B16"/>
<path d="M158.338 119.029C158.135 119.436 157.448 119.309 156.965 119.334C156.151 119.385 155.362 119.461 154.548 119.563C154.115 119.614 153.581 119.767 153.505 120.199C153.479 120.403 153.556 120.631 153.479 120.835C153.403 121.013 153.25 121.115 153.098 121.217C152.691 121.471 152.258 121.853 152.334 122.336C152.385 122.743 152.792 123.023 152.894 123.43C152.945 123.633 152.945 123.837 152.97 124.04C153.047 124.549 153.428 124.956 153.886 125.21C154.344 125.465 154.853 125.567 155.336 125.694C156.176 125.872 157.041 126.075 157.881 126.253C158.008 126.279 158.135 126.304 158.237 126.406C158.338 126.482 158.389 126.66 158.313 126.762C157.677 126.788 157.041 126.813 156.405 126.839C156.278 126.839 156.151 126.839 156.049 126.915C155.82 127.042 155.769 127.347 155.871 127.602C155.972 127.831 156.201 128.009 156.43 128.136C157.066 128.467 157.779 128.594 158.491 128.67C159.407 128.797 160.348 128.874 161.213 128.594C162.002 128.339 162.841 127.932 162.892 127.042C162.918 126.686 162.867 126.304 162.994 125.948C163.096 125.592 163.35 125.287 163.376 124.905C163.401 124.371 162.943 123.939 162.867 123.404C162.816 123.124 162.892 122.845 162.791 122.59C162.689 122.336 162.46 122.132 162.384 121.878C162.307 121.624 162.358 121.369 162.358 121.089C162.358 120.174 161.646 119.436 161.188 118.698C160.654 117.808 159.967 116.943 159.356 116.103C159.127 115.798 158.796 115.442 158.415 115.544C158.059 115.646 157.931 116.078 157.931 116.46C157.906 116.943 157.982 117.452 158.16 117.91C158.237 118.164 158.364 118.444 158.389 118.698C158.389 118.825 158.389 118.953 158.338 119.029Z" fill="#E28661"/>
</g>
<defs>
<clipPath id="clip0">
<rect width="101" height="232" fill="white" transform="translate(71 25.9999)"/>
</clipPath>
</defs>
</svg>
