<svg width="255" height="260" viewBox="0 0 255 260" fill="none" xmlns="http://www.w3.org/2000/svg">
<path d="M19.5221 53.3682C15.913 64.6183 19.4657 76.7731 22.3135 88.2776C27.6144 109.647 27.8118 131.385 26.7685 153.32C26.0918 168.018 26.1764 182.887 29.3908 197.246C32.0694 209.175 37.0037 220.792 44.8141 230.234C52.3989 239.392 64.777 243.915 76.5348 243.971C82.3997 243.999 98.4433 242.925 104.224 241.908C124.158 238.374 144.206 235.435 164.338 233.088C180.156 231.251 213.456 229.046 226.172 218.503C234.941 211.21 238.099 202.249 236.633 190.801C235.646 183 232.826 175.537 230.43 168.047C224.227 148.627 220.618 128.36 219.743 108.008C218.841 87.26 221.83 67.7559 224.932 47.2908C225.862 41.1004 225.665 34.4577 222.845 28.8891C218.644 20.5504 209.198 17.6389 199.921 16.7061C186.303 15.321 158.868 16.2256 145.221 17.1301C125.483 18.4304 95.5109 19.7589 75.8581 21.9072C61.1397 23.5184 47.7183 26.4864 34.9736 34.6555C28.0373 39.1217 22.1161 45.3686 19.5221 53.3682Z" fill="#F3C87C"/>
<path d="M234.378 35.9281C233.757 31.7728 232.601 27.6176 230.627 23.8864C229.838 22.4165 227.244 23.4624 227.892 25.0453C230.712 31.9142 231.755 39.0374 231.53 46.4433C231.304 54.1601 229.782 61.7639 228.484 69.3677C227.723 73.8621 227.046 78.3848 226.68 82.9357C226.511 85.1406 229.922 85.1406 230.12 82.9357C231.501 67.2194 236.69 51.814 234.378 35.9281Z" fill="#F3C87C"/>
<path d="M227.639 90.2003C226.708 90.2003 226.145 90.9353 226.06 91.7833C225.975 92.6878 225.891 93.5923 225.834 94.4686C225.778 95.2318 226.455 95.8819 227.16 95.9667C227.836 96.0515 228.739 95.6275 228.851 94.8643C228.992 93.8185 229.133 92.8009 229.218 91.755C229.302 90.9353 228.428 90.2003 227.639 90.2003Z" fill="#F3C87C"/>
<path d="M35.1711 227.096C29.3627 219.408 25.4153 210.391 24.1746 200.78C24.0618 199.875 23.4979 199.112 22.511 199.112C21.6934 199.112 20.7347 199.904 20.8475 200.78C22.0881 211.126 26.0356 220.962 32.4925 229.188C33.6767 230.714 36.3554 228.679 35.1711 227.096Z" fill="#F3C87C"/>
<mask id="mask0" mask-type="alpha" maskUnits="userSpaceOnUse" x="0" y="-1" width="255" height="261">
<rect y="-0.00012207" width="255" height="260" fill="white"/>
</mask>
<g mask="url(#mask0)">
</g>
<g clip-path="url(#clip0)">
<path d="M76.4266 76.0601C76.2109 76.0601 75.9951 75.8433 75.9951 75.6264C75.9951 73.6746 76.3187 72.265 77.1816 70.9637C77.6131 70.2047 78.2603 69.5541 78.9075 68.9035C79.4468 68.3613 80.849 66.6264 81.1726 66.0842C82.1434 64.6746 83.0063 62.5059 83.222 61.0963C83.222 60.8794 83.5456 61.53 83.7613 61.53C83.9771 61.53 84.0849 61.7469 84.0849 61.9637C83.8692 63.4818 82.0355 66.0842 80.9569 67.6023C80.5254 68.2529 79.9861 68.7951 79.4468 69.4457C78.9075 70.0963 78.2603 70.7469 77.8288 71.3975C77.0738 72.4818 76.7502 73.783 76.7502 75.6264C76.7502 75.8433 76.6423 76.0601 76.4266 76.0601Z" fill="#B9272D"/>
<path d="M84.0849 56.2168C84.0849 56.2168 77.2895 53.1806 79.9861 43.8553C81.0647 40.0601 84.9478 36.0481 91.5275 39.0842C95.1948 40.8192 95.087 42.2288 97.7836 43.8553C101.667 44.7228 104.04 49.1686 105.01 52.6384C105.226 53.1806 105.334 53.8312 105.442 54.4818C105.981 57.7348 107.599 60.6625 109.972 62.9396C111.59 64.4577 113.208 66.518 113.855 68.6866C116.768 80.0722 108.246 86.3613 108.246 86.3613L79.5546 83.5421C79.5546 83.5421 76.5344 76.9276 78.476 73.3493C80.4175 69.771 84.3006 63.0481 84.3006 63.0481L84.0849 56.2168Z" fill="#B9272D"/>
<path d="M58.0898 253.132C57.0111 254.217 79.7704 254 83.5456 254C106.521 254.108 115.797 254 115.797 252.699C115.797 251.289 98.215 251.831 74.9165 251.506C60.6785 251.181 53.4516 252.482 58.0898 253.132Z" fill="#847895"/>
<path d="M108.354 229.06C107.276 227 104.795 223.638 104.04 221.361C103.392 219.084 101.99 205.964 101.127 201.193C100.264 196.422 97.2442 188.723 95.5184 186.229C94.6555 184.928 93.3611 182 92.2825 179.397C90.0173 185.578 87.6443 191.651 85.9185 198.048C88.2915 204.771 90.7724 211.385 92.6061 214.855C97.1363 223.422 99.8329 230.036 100.264 232.096C100.696 234.157 102.098 245.434 104.363 246.843C106.52 248.145 109.541 231.229 108.354 229.06Z" fill="#DE835C"/>
<path d="M99.5093 252.807C98.7543 252.699 98.215 252.373 97.8914 251.614C97.3521 250.422 97.4599 248.036 98.8621 244.241C99.9408 241.205 99.8329 238.06 99.8329 236.976C99.9408 234.699 99.6172 233.398 100.157 232.855C100.157 232.855 102.098 231.988 103.069 232.205C103.932 232.422 104.903 234.265 106.197 233.831C106.844 233.614 107.923 230.47 108.031 228.193C108.031 228.193 108.893 229.494 109.541 230.036C110.296 230.578 111.266 231.446 111.482 232.313C112.237 235.349 106.52 253.566 99.5093 252.807Z" fill="#5B74C8"/>
<path d="M99.5093 252.807C98.7543 252.699 98.2149 252.373 97.8914 251.614C98.6464 252.048 100.696 251.506 102.314 250.205C104.902 248.253 108.57 240.771 108.786 239.144C108.893 237.518 108.138 236.867 108.138 236C108.138 235.132 109.325 231.988 109.433 230.036C110.404 230.687 111.374 231.771 111.59 232.638C112.561 235.675 106.844 253.675 99.5093 252.807Z" fill="white"/>
<path d="M104.579 240.879C103.824 240.771 103.177 240.771 102.422 240.879C102.206 240.879 101.882 240.988 101.667 240.988C101.343 241.096 101.019 241.096 100.804 241.096C100.696 241.096 100.696 241.096 100.588 241.096C100.804 240.663 102.206 239.687 102.53 239.578C103.177 239.036 103.824 238.602 104.363 238.06C104.903 237.626 105.118 236.867 104.255 236.651C103.608 236.542 102.637 236.759 101.882 236.867C101.127 236.976 100.372 237.193 99.6172 237.41C99.0779 237.518 99.2936 238.277 99.8329 238.169C100.696 237.952 101.559 237.735 102.422 237.735C102.745 237.735 103.069 237.735 103.392 237.735C103.392 237.735 103.392 237.735 103.285 237.843C102.098 238.928 100.696 239.687 99.6172 240.879C99.1858 241.422 99.0779 242.072 99.8329 242.181C101.235 242.506 102.745 241.53 104.147 241.855C105.01 241.855 105.226 240.988 104.579 240.879Z" fill="#333A74"/>
<path d="M85.3792 246.735C85.3792 246.735 84.3006 240.663 84.5163 238.819C84.732 236.976 95.3027 213.229 96.2734 204.879C96.597 202.277 96.7049 200.325 96.7049 198.807C96.8127 195.446 96.597 194.144 97.1363 192.41C97.7835 190.675 99.1857 186.337 100.48 181.675C103.177 172.458 108.354 154.241 109.649 144.373C111.482 130.819 106.52 123.554 106.52 123.554C103.608 118.349 87.105 128.325 87.105 128.325L84.0848 179.289C84.0848 179.289 83.3298 188.181 82.2512 199.024C80.7411 214.422 78.7995 233.723 77.7209 236.434C75.8872 240.988 71.5727 246.843 71.5727 246.843L85.3792 246.735Z" fill="#E9946B"/>
<path d="M86.4578 252.699C86.4578 252.699 64.7773 253.566 60.5706 252.699C60.1391 252.59 59.9234 252.048 60.247 251.289C60.5706 250.53 61.002 249.663 61.4335 249.337C62.2964 248.687 67.7974 247.277 69.5233 245.759C71.3569 244.132 72.867 241.855 74.2693 241.422C75.6715 240.988 76.7501 241.638 77.1816 241.855C77.613 242.072 79.0153 244.566 80.5253 244.783C82.1433 245 83.6534 242.94 84.6242 243.157C85.1635 243.265 86.0264 245.976 86.4578 248.578C86.7814 250.205 86.6736 251.614 86.4578 252.699Z" fill="#5B74C8"/>
<path d="M86.7814 252.916C86.7814 252.916 64.6694 253.783 60.4627 252.916C60.0313 252.807 60.0313 252.048 60.3549 251.181C62.2964 251.289 75.4558 251.94 76.6423 251.506C78.0445 251.072 78.3681 249.554 79.4467 249.12C80.3096 248.795 84.732 248.578 86.5657 248.578C86.7814 250.205 86.8893 251.831 86.7814 252.916Z" fill="white"/>
<path d="M70.9255 243.373C70.4941 243.482 70.6019 244.241 71.0334 244.132C71.357 244.132 73.73 244.024 73.6221 244.241C73.5142 244.675 71.4648 244.891 71.1412 244.891C69.739 245.108 68.5525 245.325 67.4739 246.301C67.1503 246.626 67.4739 247.06 67.7975 247.06C69.1997 247.169 70.7098 247.385 72.112 247.385C72.5435 247.385 72.6513 246.626 72.2199 246.626C71.2491 246.41 70.1705 246.301 69.1997 246.301C70.0626 245.976 71.0334 245.867 72.0041 245.651C72.6513 245.542 74.0536 245.434 74.485 244.783C75.5636 243.048 71.5727 243.265 70.9255 243.373Z" fill="#333A74"/>
<path d="M97.3521 194.253C97.3521 193.819 96.5971 193.819 96.5971 194.253C96.5971 196.747 96.8128 199.241 96.7049 201.735C96.597 204.337 95.9499 206.831 95.1948 209.217C93.6847 213.988 92.0668 218.759 90.4488 223.638C90.2331 224.181 91.096 224.397 91.3117 223.855C92.9297 218.976 94.6555 213.988 96.1656 209.108C97.6757 204.229 97.8914 199.241 97.3521 194.253Z" fill="#FFE7D7"/>
<path d="M75.3479 130.602C75.3479 130.602 71.7884 144.157 75.3479 162.048C78.9074 179.94 83.8691 191.217 83.8691 191.217L90.8803 127.783L75.3479 130.602Z" fill="#423838"/>
<path d="M96.7049 196.313C94.3319 197.831 91.096 198.482 88.3994 198.482C86.2422 198.482 84.3006 197.94 82.4669 197.072C83.4377 187.096 84.0849 179.289 84.0849 179.289L87.1051 128.325C87.1051 128.325 103.608 118.349 106.521 123.554C106.521 123.554 111.482 130.819 109.649 144.373C108.354 154.241 103.177 172.458 100.48 181.675C99.1858 186.337 97.7836 190.675 97.1364 192.41C96.7049 193.602 96.7049 194.578 96.7049 196.313Z" fill="#423838"/>
<path d="M84.9478 159.12C85.3792 152.94 85.7028 146.759 86.1343 140.578C86.0264 140.687 85.8107 140.578 85.7028 140.47C84.7321 139.06 84.0849 137.217 83.6534 135.59C83.5456 135.157 84.1927 134.94 84.4085 135.373C84.9478 136.891 85.595 138.301 86.2422 139.819C86.35 137.759 86.5657 135.59 86.7815 133.53C86.7815 133.096 87.5365 133.096 87.5365 133.53C87.1051 142.096 86.4579 150.663 85.9186 159.12C85.3792 167.687 84.8399 176.253 84.1927 184.711C84.1927 185.253 83.3298 185.253 83.3298 184.711C83.6534 176.144 84.4085 167.687 84.9478 159.12Z" fill="#1A1A1A"/>
<path d="M60.7864 77.3613C60.7864 77.3613 60.7864 77.2529 60.7864 77.3613C61.0021 76.7107 61.2178 76.1686 61.4335 75.6264C61.865 74.6505 61.9729 73.5662 62.2964 72.5903C62.62 71.7228 63.1594 70.9638 63.6987 70.2047C64.3459 69.1204 64.993 67.8192 65.8559 66.8433C66.611 65.9758 65.5324 65.5421 64.4537 65.9758C63.3751 66.4095 61.9729 68.5782 61.3257 68.2529C60.5706 67.8192 60.7864 64.2409 60.7864 62.9397C60.7864 61.6385 61.3257 59.6867 60.1392 59.9035C58.9527 60.012 58.4134 66.0842 57.9819 65.8674C57.5504 65.4336 57.6583 59.6867 56.7954 59.6867C55.9325 59.5782 55.3932 60.1204 55.3932 61.2047C55.3932 62.2891 55.7168 66.1927 55.3932 66.4095C55.0696 66.6264 53.8831 61.3132 52.8044 61.7469C51.7258 62.1806 51.9415 62.9397 52.373 64.2409C52.6966 65.3252 53.4516 67.7107 53.0202 67.8192C52.9123 67.9276 51.5101 64.3493 50.4314 64.9999C49.8921 65.3252 49.7843 65.7589 50.6472 67.4939C51.0786 68.3614 51.7258 69.1204 52.0494 69.9879C52.4809 70.9638 52.9123 72.0481 53.128 73.1324C53.5595 75.1927 53.6674 77.3614 54.0988 79.4216C54.2067 79.8553 54.2067 80.1806 54.4224 80.5059C55.0696 81.3734 56.4718 82.1324 57.3347 81.4818C57.874 81.1565 58.4134 80.7228 58.9527 80.2891C59.492 79.8553 60.0313 79.3132 60.4628 78.8794C60.7864 78.3373 60.6785 77.7951 60.7864 77.3613Z" fill="#E9946B"/>
<path d="M55.501 73.3493C56.3639 71.5059 57.5504 70.0963 59.7077 69.771C60.3549 69.6625 60.1392 68.6866 59.492 68.7951C57.2268 69.0119 54.9617 70.7469 54.6381 73.024C54.6381 73.4577 55.3932 73.6746 55.501 73.3493Z" fill="#DE835C"/>
<path d="M82.7905 73.6746C82.7905 73.6746 78.6917 75.7348 76.4266 77.2529C74.1614 78.771 71.8963 83.3252 71.0334 85.6023C70.1705 87.8794 67.366 97.9638 67.1503 98.1806C66.9346 98.3975 64.7773 91.8915 63.1594 88.0963C61.5414 84.1927 60.4628 79.9638 60.8942 74.9758C61.3257 69.9879 53.6674 75.518 53.6674 75.518C53.6674 75.518 54.8539 87.4457 55.7168 94.3854C56.5797 102.084 58.3055 111.952 62.9436 112.819C69.4154 114.12 75.6715 102.193 77.2895 97.7469C78.9074 93.4095 82.7905 73.6746 82.7905 73.6746Z" fill="#E9946B"/>
<path d="M65.3166 91.5662C67.1503 95.3614 68.7683 99.4819 69.4154 103.602C69.5233 104.036 68.7683 104.253 68.6604 103.819C67.4739 99.8072 66.3953 95.7951 64.6694 91.9999C64.3458 91.4578 65.1009 91.024 65.3166 91.5662Z" fill="white"/>
<path d="M80.0939 81.2649C80.5254 86.1445 81.7119 92.2167 84.9478 92.8673C88.1837 93.518 91.3118 91.8914 94.0084 89.3975L97.46 107.181L102.853 105.554C102.853 105.554 103.5 102.084 104.255 98.5059C105.01 94.9276 106.197 90.6987 106.736 90.5902C107.276 90.4818 110.404 92.1083 113.64 93.7348C114.179 91.783 114.61 89.8312 115.042 87.771C115.581 85.4939 116.12 83.2167 116.66 80.8312C115.257 79.7469 113.747 78.5541 113.424 78.3372C111.806 77.2529 109.972 76.4939 108.138 75.6264C106.305 74.8673 104.471 74.2167 102.637 73.4577C101.99 73.1324 101.343 72.9155 100.804 72.5902C99.1858 71.7228 97.8914 70.8553 97.3521 69.8794C97.3521 69.6625 97.2443 69.4457 97.2443 69.1204V69.0119V68.9035C97.1364 68.2529 97.1364 67.6023 97.0285 66.9517C97.0285 66.518 97.0285 66.0842 97.0285 65.6505C97.0285 65.6505 97.0285 65.6505 97.0285 65.542C97.0285 65.2167 97.0285 64.9999 97.0285 64.6746C97.0285 63.4818 97.2443 57.7348 97.2443 57.7348L91.5275 60.771L87.7523 62.8312C87.7523 62.8312 87.7523 63.8071 87.7523 65.1083C87.7523 65.4336 87.7523 65.4336 87.7523 65.8673C87.7523 66.518 87.7523 66.9517 87.7523 67.6023C87.7523 68.2529 87.5365 68.9035 87.3208 69.4457C87.2129 69.771 86.9972 69.9878 86.7815 70.3131C86.4579 70.6384 86.1343 70.9637 85.8107 71.289C85.3793 71.7228 84.7321 72.1565 84.0849 72.5902C83.8692 72.6987 83.7613 72.8071 83.5456 72.9155C83.222 73.1324 82.6827 73.4577 82.1434 73.783C81.2804 74.3252 80.4175 74.8673 79.8782 75.0842C79.8782 75.3011 79.7704 78.0119 80.0939 81.2649Z" fill="#E9946B"/>
<path d="M105.118 89.7228C106.089 89.8312 106.952 90.0481 107.707 90.4818C108.138 90.6987 107.815 91.4577 107.276 91.2409C106.628 90.9155 105.873 90.6987 105.01 90.5902C104.579 90.5902 104.579 89.7228 105.118 89.7228Z" fill="#DE835C"/>
<path d="M93.1455 65.8674C91.6354 67.3854 89.6938 67.6023 87.6444 67.4939C87.6444 66.9517 87.6444 66.518 87.6444 65.9758C87.6444 65.6505 87.6444 65.5421 87.6444 65.2168C87.6444 64.024 87.6444 62.9396 87.6444 62.9396L91.4197 60.8794L95.9499 59.3613C95.4106 61.7469 94.8713 64.1324 93.1455 65.8674Z" fill="#1A1A1A"/>
<path d="M81.6051 50.7951C81.4972 51.4457 81.3894 52.0963 81.3894 52.6384C81.1736 54.0481 81.4972 55.6746 81.4972 57.1926C81.8208 61.0963 83.6545 64.6746 86.1354 65.4336C90.3421 66.7348 95.951 62.7228 97.1375 58.6023C97.1375 58.6023 100.697 57.5179 99.834 53.6143C99.4026 51.8794 97.461 51.6625 96.5981 52.7469C96.1667 52.3131 95.951 51.771 95.8431 51.2288C95.7352 50.6866 95.7352 49.9276 95.1959 49.4939C94.7645 49.1685 94.2251 49.1685 93.6858 49.0601C92.0679 48.9517 90.7735 47.8673 89.587 46.6746C89.2634 46.3493 88.9398 46.024 88.5084 46.024C88.0769 46.024 87.6455 46.3493 87.4297 46.6746C87.214 46.9999 86.9983 47.4336 86.7825 47.7589C86.5668 48.0842 86.2432 48.4095 85.8118 48.5179C85.2725 48.7348 84.6253 48.8432 84.086 48.8432C83.4388 48.9517 82.8995 48.9517 82.3601 49.277C81.9287 49.6023 81.713 50.2529 81.6051 50.7951Z" fill="#E8926D"/>
<path d="M90.341 53.1806C90.4489 53.0721 90.6646 52.9637 90.7725 52.9637C90.7725 52.9637 90.7725 52.9637 90.8803 52.9637C91.5275 53.0721 91.6354 53.8312 91.3118 54.3734C91.3118 54.4818 91.2039 54.5902 91.0961 54.6987C90.9882 54.8071 90.8803 54.8071 90.7725 54.8071C90.4489 54.8071 90.341 54.6987 90.2332 54.4818C89.9096 54.0481 89.9096 53.5059 90.341 53.1806Z" fill="#1A1A1A"/>
<path d="M82.2513 53.5059C82.467 53.1806 83.0063 53.1806 83.3299 53.3975C83.3299 53.3975 83.3299 53.5059 83.4378 53.5059C83.5456 53.6143 83.5456 53.7228 83.5456 53.8312C83.5456 54.0481 83.4378 54.2649 83.3299 54.4818C83.0063 54.8071 82.5749 54.8071 82.2513 54.3734C82.0355 54.1565 82.0355 53.7228 82.2513 53.5059Z" fill="#1A1A1A"/>
<g opacity="0.5">
<path opacity="0.5" d="M86.0265 57.9517C86.0265 57.7348 86.2422 57.6264 86.4579 57.6264C86.6737 57.6264 86.8894 57.7348 87.1051 57.7348C87.3209 57.7348 87.4287 57.9517 87.4287 58.1685C87.4287 58.3854 87.213 58.4938 86.9973 58.4938C86.7815 58.4938 86.5658 58.3854 86.3501 58.3854C86.1344 58.3854 86.0265 58.1685 86.0265 57.9517Z" fill="#CF5D4C"/>
</g>
<path d="M89.3703 49.4938C89.9096 49.7107 90.3411 49.9276 90.8804 50.1444C91.3118 50.4697 91.8511 50.795 92.2826 51.0119C92.7141 51.2288 92.2826 51.9878 91.8511 51.6625C91.4197 51.3372 90.9882 51.0119 90.4489 50.795C90.0175 50.4697 89.4781 50.3613 88.9388 50.1444C88.6152 49.9276 88.9388 49.277 89.3703 49.4938Z" fill="#B9272D"/>
<path d="M81.3884 51.2288C81.7119 50.9035 82.1434 50.795 82.5749 50.5782C83.0063 50.4697 83.3299 51.2288 82.7906 51.3372C82.467 51.4457 82.1434 51.4457 81.9277 51.6625C81.6041 52.0963 81.0648 51.6625 81.3884 51.2288Z" fill="#B9272D"/>
<path d="M85.595 60.8794C85.595 60.8794 88.0759 60.771 89.4781 60.2288C90.7725 59.6866 89.1545 62.7228 88.3995 62.7228C86.3501 62.7228 85.595 60.8794 85.595 60.8794Z" fill="white"/>
<path d="M75.1322 132.012C75.1322 132.012 78.7996 130.494 81.9276 130.711C85.0557 130.928 89.8017 129.843 95.6263 126.157C101.451 122.47 104.363 122.47 104.363 122.47L104.255 115.964C104.255 115.964 104.579 115.638 104.687 114.988C104.795 114.554 104.795 114.012 104.687 113.253C104.471 112.385 104.148 111.843 103.932 111.301C103.608 110.759 103.392 110.108 103.177 108.916C102.745 106.422 104.579 99.265 104.255 98.6143C104.255 98.6143 101.127 100.024 100.372 95.6866C99.1858 88.0963 101.559 74.6505 102.637 73.6746C102.53 73.6746 101.235 72.8071 100.804 72.8071C100.804 72.8071 100.804 72.8071 100.696 72.8071C100.157 73.3493 98.1072 79.8553 97.46 82.6746C96.8128 85.6023 95.842 87.3372 93.7926 87.5541C91.9589 87.8794 83.0063 87.0119 82.3591 85.277C81.7119 83.6505 83.6534 74.6505 84.0849 72.6987C83.8692 72.8071 83.7613 72.9156 83.5456 73.024C83.222 73.2409 82.6827 73.5662 82.1434 73.8915C81.9276 74.8674 81.1726 77.9035 80.0939 81.265C79.5546 82.9999 79.0153 84.7348 78.3681 86.4698C76.2109 92.4336 75.2401 93.518 75.2401 97.0963C75.2401 100.675 79.1232 105.229 78.5839 110.65C78.5839 110.867 78.5839 110.976 78.476 111.193C78.3681 112.385 78.0445 113.795 77.8288 115.313C76.7502 120.301 75.0244 125.94 74.8086 127.349C74.7008 129.193 75.1322 132.012 75.1322 132.012Z" fill="#ED4450"/>
<path d="M77.8288 115.313C78.7996 114.554 79.4468 113.361 79.9861 112.277C80.4175 111.409 80.7411 110.217 81.4962 109.458C82.4669 108.482 83.6534 110 84.4085 110.759C85.8107 112.169 86.9972 113.795 88.2916 115.313C89.3702 116.506 90.7724 117.048 92.2825 116.181C93.9005 115.205 95.1948 113.361 96.2735 111.843C96.7049 111.193 97.1364 110.434 97.7836 110C98.7543 109.349 99.833 109.891 100.696 110.542C102.314 111.735 103.716 113.253 104.795 114.988C104.903 114.554 104.903 114.012 104.795 113.253C104.579 112.385 104.255 111.843 104.04 111.301C103.608 110.759 103.069 110.325 102.637 109.891C101.451 108.807 99.9408 107.614 98.215 108.048C96.7049 108.373 95.842 109.783 94.9791 110.976C94.3319 111.843 93.5769 112.711 92.8218 113.578C92.0668 114.337 91.2039 115.422 90.1253 114.554C89.4781 113.903 88.9387 113.144 88.2916 112.385C87.6444 111.518 86.8893 110.759 86.1343 110C84.9478 108.807 83.4377 107.072 81.604 107.723C80.0939 108.265 79.3389 110.108 78.7996 111.518C78.476 112.494 78.1524 113.903 77.8288 115.313Z" fill="#FC9081"/>
<path d="M96.7049 171.807C96.8128 172.783 96.7049 174.518 97.7836 175.169C100.372 176.578 101.235 169.53 101.451 168.229C102.098 164.325 102.098 160.422 101.99 156.518C101.99 152.289 101.775 147.952 101.559 143.723C101.451 139.494 101.343 135.156 101.451 130.928C101.559 127.675 101.451 123.446 104.148 121.169C104.471 121.169 104.903 121.169 105.226 121.277C105.765 121.385 105.981 120.518 105.442 120.41C101.559 119.325 99.7251 124.205 99.0779 127.132C98.1071 131.361 97.8914 135.916 97.6757 140.253C97.2442 148.711 97.0285 157.169 96.7049 165.735C96.7049 167.687 96.5971 169.747 96.7049 171.807ZM97.5678 171.373C97.5678 170.506 97.5678 169.638 97.5678 168.879C97.5678 167.036 97.6757 165.301 97.7836 163.458C97.9993 155.867 98.215 148.277 98.6465 140.687C98.8622 136.891 99.0779 133.096 99.7251 129.301C100.049 127.458 100.696 123.771 102.422 122.036C101.235 123.879 101.019 126.265 100.804 128.434C100.48 132.663 100.48 137 100.588 141.229C100.804 148.711 101.343 156.301 100.912 163.783C100.804 165.626 100.588 167.361 100.264 169.205C100.049 170.072 99.833 170.94 99.6172 171.807C99.5094 172.241 99.4015 172.566 99.1858 173C99.0779 173.325 99.0779 173.65 98.8622 173.867C98.7543 173.976 98.1072 174.193 97.8914 174.084C97.46 173.867 97.6757 171.916 97.5678 171.373Z" fill="#B0C1D3"/>
<path d="M110.188 185.144C110.619 187.747 110.835 190.349 111.051 193.06C111.267 195.663 111.698 198.373 111.482 200.976C111.374 202.928 108.354 203.578 107.923 201.518C107.383 198.916 107.383 196.205 107.168 193.602C106.952 191 106.736 188.398 106.628 185.795C106.628 183.626 109.864 183.084 110.188 185.144Z" fill="#EFB44B"/>
<path d="M102.853 122.903C102.853 122.795 109.433 132.554 109.433 132.554C109.433 132.554 108.57 126.482 107.599 124.638C106.628 122.795 102.853 122.903 102.853 122.903Z" fill="#1A1A1A"/>
<path d="M105.226 180.157C105.334 178.096 105.55 176.036 105.873 173.867C106.197 171.048 106.628 168.337 107.168 165.518C107.168 163.566 107.276 161.723 107.383 159.771C107.599 155.759 108.462 150.988 108.894 146.976C109.433 142.964 109.864 138.518 109.541 134.506C109.433 132.229 108.462 128.867 107.923 126.59C107.491 124.53 107.06 124.53 105.765 122.795C105.55 122.47 105.981 121.928 106.197 122.361C108.57 125.072 109.217 128.217 109.756 131.578C110.296 135.59 110.619 139.169 110.188 143.181C109.756 147.41 108.678 152.94 108.354 157.169C108.354 157.602 108.246 157.928 108.246 158.361C109.433 150.988 110.404 143.397 109.972 135.916C109.649 131.036 108.246 126.265 105.658 122.144C105.442 121.711 106.521 121.277 106.736 121.711C109.001 125.072 110.08 129.301 110.619 133.313C111.159 137.65 111.159 141.663 110.835 146C110.296 152.614 109.109 159.12 107.923 165.626C107.923 167.036 107.923 168.446 107.923 169.855C107.923 174.735 108.246 179.614 108.678 184.494C108.678 185.036 107.923 185.036 107.815 184.494C107.383 180.265 107.06 175.928 107.06 171.59C106.736 174.084 106.413 176.578 106.197 179.181C105.981 181.566 105.981 183.843 105.873 186.337C105.873 186.663 105.334 186.663 105.226 186.337C104.903 184.385 105.118 182.217 105.226 180.157Z" fill="#B0C1D3"/>
<path d="M100.372 117.048C101.235 116.614 102.53 115.964 103.392 115.53C104.147 115.205 104.363 115.313 104.903 115.638C105.01 115.638 105.118 115.747 105.226 115.855C105.765 116.181 106.305 116.94 106.736 117.482C106.952 117.807 107.383 118.566 107.815 118.891C108.031 119 108.246 119.108 108.462 119C108.57 118.891 108.678 118.783 108.893 118.675C109.109 118.458 109.217 118.241 109.325 118.132C110.188 117.157 122.916 100.024 121.945 98.8312C120.974 97.8553 114.502 94.4939 110.511 92.4336C111.374 87.771 112.669 83.5421 113.424 78.8794C114.502 79.53 118.062 82.2408 119.033 83.2168C124.965 88.7469 132.947 93.9517 133.486 97.0963C133.81 99.0481 132.947 101.542 131.976 102.952C124.318 113.903 113.424 123.012 110.727 124.855C110.188 125.289 109.649 125.614 109.001 125.94C108.786 126.048 108.57 126.157 108.354 126.265C108.246 126.373 108.031 126.482 107.815 126.373C107.707 126.265 107.599 126.157 107.491 126.048L107.168 125.397C106.952 124.964 106.628 124.53 106.197 124.205C105.765 123.879 105.118 124.205 104.579 123.988C104.147 123.771 104.147 123.337 103.716 123.12C103.5 123.012 103.285 123.12 103.177 123.012C102.853 122.903 102.637 122.578 102.637 122.253C102.637 121.928 102.745 121.711 102.745 121.385V121.277C102.53 121.277 102.422 121.385 102.314 121.494C102.206 121.494 102.206 121.602 102.098 121.602C101.774 121.711 101.451 121.819 101.127 121.819H101.019C100.372 121.711 100.696 120.952 100.912 120.518C101.235 120.084 101.667 119.542 102.098 119.108C102.422 118.675 102.745 118.241 103.177 118.024C103.392 117.916 103.716 117.916 103.824 117.807C104.04 117.699 104.363 117.482 104.147 117.373C104.04 117.265 103.932 117.157 103.824 117.157C103.608 117.157 103.392 117.265 103.285 117.373C102.745 117.699 102.098 117.807 101.559 117.916C101.019 118.024 100.372 117.916 100.264 117.265C100.264 117.157 100.264 117.157 100.264 117.048C100.372 117.048 100.372 117.048 100.372 117.048Z" fill="#E9946B"/>
<path d="M116.875 107.181C116.768 107.181 116.66 107.181 116.552 107.072C116.336 106.855 116.336 106.53 116.444 106.313C118.925 103.277 121.729 97.8553 122.053 97.2047C122.053 97.2047 122.053 97.0963 122.161 97.0963C122.269 96.8794 122.484 96.771 122.7 96.8794C122.916 96.8794 123.024 96.9878 123.132 97.2047C123.132 97.3131 123.239 97.3131 123.132 97.6384C122.916 98.0722 122.484 99.0481 121.406 101C120.435 102.735 118.925 105.229 117.523 106.964C117.091 107.181 116.983 107.181 116.875 107.181Z" fill="white"/>
<path d="M109.756 122.144C109.325 121.494 109.001 120.626 108.678 119.976C108.462 119.542 108.138 119.108 107.923 118.783C108.138 118.891 108.354 119 108.57 118.891C108.678 118.783 108.786 118.675 109.001 118.566C109.756 119.651 110.404 120.843 110.511 122.036C110.511 122.361 109.864 122.47 109.756 122.144Z" fill="#DE835C"/>
<path d="M107.168 186.554C107.383 189.156 107.491 191.867 107.491 194.47C107.491 197.072 107.707 199.783 107.383 202.385C107.06 204.337 104.04 204.771 103.716 202.602C103.392 200 103.608 197.289 103.608 194.687C103.608 192.084 103.608 189.482 103.716 186.771C103.716 184.819 106.952 184.494 107.168 186.554Z" fill="#EFB44B"/>
<path d="M107.06 186.012C107.168 185.904 107.168 185.904 107.276 186.012C107.923 186.446 108.678 186.337 109.217 185.687C109.433 185.47 109.649 185.795 109.541 186.012C109.001 186.554 108.354 186.771 107.707 186.663C107.923 186.988 107.923 187.313 108.031 187.747C108.138 188.94 108.138 190.024 108.138 191.217C108.138 192.301 108.138 193.385 108.031 194.578C108.031 195.663 108.031 196.855 107.923 198.048C107.923 198.265 107.491 198.265 107.491 198.048C107.383 196.096 107.599 194.144 107.599 192.193C107.599 191.217 107.599 190.241 107.599 189.265C107.599 188.506 107.707 186.988 106.952 186.554C106.736 186.229 106.844 186.012 107.06 186.012Z" fill="#D89B39"/>
<path d="M121.729 117.373C121.406 117.156 121.19 116.831 120.759 116.723C120.327 116.506 119.896 116.614 119.464 116.614C119.141 116.614 118.709 116.506 118.601 116.181C118.493 115.964 118.601 115.638 118.709 115.422C119.141 114.771 119.896 114.446 120.651 114.554C121.298 114.663 122.376 114.879 122.916 114.554C123.455 114.229 123.239 114.554 123.671 114.879C123.779 114.988 123.887 115.096 123.994 115.205C124.102 115.313 124.102 115.53 123.994 115.638C123.994 116.181 123.887 116.723 123.779 117.265C123.455 117.916 122.7 118.024 122.161 117.699C122.053 117.59 121.837 117.482 121.729 117.373Z" fill="#E9946B"/>
<path d="M155.491 90.6987L150.852 102.301L136.075 98.8312C136.075 98.8312 135.644 96.9878 136.507 95.7951C137.477 94.6023 138.556 96.0119 139.742 92.9758C140.713 90.4818 142.547 86.036 144.704 83.2168C144.812 83.1083 144.92 82.8915 145.028 82.783C145.351 82.3493 145.783 81.9155 146.106 81.5902C148.911 79.3131 152.902 76.9276 153.549 75.7348C154.304 74.6505 155.491 90.6987 155.491 90.6987Z" fill="#A9644C"/>
<path d="M147.185 88.6385C146.214 86.9035 145.244 85.1686 144.812 83.2168C144.92 83.1083 145.028 82.8915 145.136 82.783C145.567 84.8433 146.538 86.5782 147.617 88.4216C147.724 88.6384 147.293 88.8553 147.185 88.6385Z" fill="#894637"/>
<path d="M152.686 116.181C152.686 116.181 116.228 115.964 111.59 114.988C106.952 114.012 106.521 105.446 106.521 105.229C106.521 105.12 106.736 105.12 107.06 105.12C107.491 105.12 107.923 105.229 107.923 105.229C107.923 105.12 107.923 105.12 107.923 105.012C107.707 102.193 108.894 96.8794 111.159 96.3372C113.424 95.9035 146.646 98.1806 146.646 98.1806C154.736 100.675 152.686 116.181 152.686 116.181Z" fill="#EFB44B"/>
<path d="M153.225 76.1686C153.225 76.1686 149.019 81.3734 148.695 82.9999C148.587 84.6264 149.235 86.7951 147.832 91.1324C146.43 95.4698 144.812 97.6384 145.783 100.675C146.754 103.711 149.019 106.205 148.587 110C148.156 113.687 145.999 113.687 147.94 116.506C149.882 119.325 169.189 121.819 174.259 121.169C179.328 120.518 180.731 117.699 180.731 115.096C180.731 112.494 177.711 110 178.142 106.096C178.573 102.193 181.594 98.7228 182.78 95.1445C183.967 91.6746 179.113 77.2529 179.113 77.2529L153.225 76.1686Z" fill="#A9644C"/>
<path d="M148.695 83.9758C148.587 83.5421 147.832 83.6505 147.94 84.0842C148.264 87.0119 147.94 89.8312 146.861 92.542C145.891 94.9276 144.704 97.4216 145.351 100.024C145.459 100.566 146.214 100.349 146.214 99.8071C145.783 96.771 147.293 94.277 148.264 91.4577C149.019 88.9637 149.234 86.3613 148.695 83.9758Z" fill="#894637"/>
<path d="M154.951 81.3734C154.951 81.3734 151.5 73.9999 153.549 67.9276C155.598 61.8553 175.014 63.2649 176.848 66.0842C178.681 68.9035 176.416 70.7469 177.495 71.8312C178.681 73.024 180.083 73.2408 180.299 75.0842C180.515 76.9276 178.034 80.6143 178.034 80.6143C178.034 80.6143 161.207 89.1806 159.374 87.9878C157.54 87.0119 154.951 81.3734 154.951 81.3734Z" fill="#A9644C"/>
<path d="M170.268 64.8914C170.268 64.8914 173.504 64.8915 174.69 66.9517C175.877 69.0119 174.475 69.9878 173.504 70.6384C172.533 71.289 169.621 74.1083 168.218 75.1927C166.816 76.3854 155.275 76.277 155.275 76.277C155.275 76.277 154.628 70.9637 155.491 69.6625C156.353 68.4698 170.268 64.8914 170.268 64.8914Z" fill="#3A1714"/>
<path d="M151.823 56.542C151.823 56.542 149.774 59.795 150.421 60.4456C151.068 61.0962 171.131 60.2288 171.454 58.8191C171.67 57.4095 168.434 53.289 168.434 53.289L151.823 56.542Z" fill="#ED4450"/>
<path d="M152.578 58.6023C152.578 58.6023 152.47 60.3372 150.852 62.3975C149.234 64.4577 147.832 70.2047 158.511 70.0963C168.326 69.9878 172.317 66.8433 171.886 63.1565C171.454 59.4698 167.032 55.024 167.032 55.024L152.578 58.6023Z" fill="#3D57A4"/>
<path d="M170.376 73.4577C170.376 73.4577 168.542 75.0842 166.816 77.036C166.385 77.5782 165.953 78.1204 165.522 78.5541C163.688 81.1565 160.884 85.9276 160.237 86.4698C159.589 86.9035 158.403 85.8192 156.785 82.9999C155.922 81.4818 155.491 78.9878 155.275 77.036C155.059 75.518 155.059 74.3252 155.059 74.3252C155.059 74.3252 156.03 73.3493 156.677 72.0481C157.001 71.289 157.001 69.4457 157.001 67.9276C156.893 66.3011 156.785 65.1083 156.785 65.1083L159.05 64.1324L166.601 59.3613C166.601 59.3613 166.061 64.2408 166.601 67.9276C167.032 71.1806 170.376 73.4577 170.376 73.4577Z" fill="#E9946B"/>
<path d="M152.578 58.0601C152.147 60.2288 149.99 61.4215 148.911 63.2649C148.048 64.783 148.048 66.7348 149.019 68.2529C149.342 68.795 150.097 68.3613 149.774 67.8191C148.587 65.542 149.45 63.6987 151.068 62.0721C152.147 60.9878 153.118 59.9035 153.441 58.277C153.441 57.7348 152.686 57.5179 152.578 58.0601Z" fill="#3D57A4"/>
<path d="M165.414 63.8071C164.443 69.8794 158.295 68.4698 157.001 67.7107C156.893 66.3011 156.785 65.1083 156.785 65.1083L159.05 64.1324L165.414 63.8071Z" fill="#1A1A1A"/>
<path d="M152.039 50.6866C152.255 49.9276 152.578 49.277 153.118 48.6264C153.98 47.6505 155.167 46.8914 156.353 46.4577C157.432 46.024 158.619 45.8071 159.913 45.8071C161.099 45.8071 162.286 46.1324 163.472 46.5661C164.335 46.783 165.09 47.1083 165.845 47.542C166.708 48.0842 167.356 48.7348 167.895 49.6023C168.326 50.3613 168.866 51.3372 168.866 52.2047C168.758 54.0481 168.65 55.783 168.434 57.6264C168.111 59.4698 167.787 61.6384 166.816 63.2649C165.306 65.7589 162.61 67.7107 158.295 66.4095C154.088 65.1083 152.147 56.7589 152.039 54.8071C151.823 53.3975 151.715 51.9878 152.039 50.6866Z" fill="#E9946B"/>
<path d="M158.834 60.5541C160.668 60.4456 162.178 60.1203 163.365 59.9035C164.12 59.795 162.717 62.6143 161.854 62.8312C160.237 63.2649 158.079 60.6625 158.834 60.5541Z" fill="white"/>
<path d="M168.758 52.8553C168.758 52.8553 170.16 51.9878 170.915 53.6143C171.67 55.2408 169.513 59.1445 167.895 59.1445C166.385 59.2529 168.758 52.8553 168.758 52.8553Z" fill="#E9946B"/>
<g opacity="0.7">
<path opacity="0.7" d="M159.374 58.7107C159.374 58.4938 159.589 58.277 159.805 58.277C160.021 58.277 160.237 58.277 160.452 58.3854C160.668 58.3854 160.884 58.6023 160.884 58.8191C160.884 59.036 160.668 59.2529 160.452 59.2529C160.237 59.2529 160.021 59.2529 159.805 59.1444C159.482 59.1444 159.374 59.036 159.374 58.7107Z" fill="#DE835C"/>
</g>
<path d="M157.216 52.0963C157.324 51.9878 157.432 51.771 157.432 51.6625C157.432 51.4457 157.109 51.3372 156.893 51.4457C156.785 51.4457 155.491 51.8794 154.412 52.9637C154.196 53.1806 154.196 53.3975 154.304 53.6144C154.412 53.8312 154.736 53.8312 154.951 53.6144C155.922 52.7469 157.109 52.3131 157.109 52.3131C157.109 52.0963 157.109 52.0963 157.216 52.0963Z" fill="#3D57A4"/>
<path d="M163.257 51.2288C163.149 51.1203 163.041 50.9035 163.041 50.795C163.041 50.5782 163.257 50.4697 163.58 50.4697C163.688 50.4697 164.983 50.795 166.277 51.7709C166.493 51.8794 166.493 52.2047 166.385 52.4216C166.277 52.6384 165.953 52.6384 165.738 52.4216C164.659 51.6625 163.472 51.3372 163.472 51.3372C163.472 51.2288 163.365 51.2288 163.257 51.2288Z" fill="#3D57A4"/>
<path d="M169.081 54.6987C169.405 54.6987 169.621 55.4577 169.729 55.783C169.729 56.1083 168.973 56.9758 168.973 56.9758C168.973 56.9758 168.866 54.6987 169.081 54.6987Z" fill="#DE835C"/>
<path d="M152.039 53.7228C152.039 53.7228 150.637 53.0721 150.097 54.6987C149.558 56.3252 151.715 59.9035 153.118 59.795C154.736 59.795 152.039 53.7228 152.039 53.7228Z" fill="#E9946B"/>
<g opacity="0.71">
<path opacity="0.71" d="M151.931 55.6746C151.607 55.6746 151.392 56.542 151.5 56.7589C151.5 57.0842 152.362 57.8432 152.362 57.8432C152.362 57.8432 152.255 55.6746 151.931 55.6746Z" fill="#DE835C"/>
</g>
<path d="M164.12 55.2408C164.012 55.1324 164.012 54.9155 164.012 54.8071C164.012 54.3734 164.227 54.0481 164.659 53.9396C164.983 53.9396 165.198 53.9396 165.414 54.1565C165.63 54.3734 165.738 54.6987 165.63 54.9155C165.63 55.024 165.522 55.1324 165.414 55.1324C165.306 55.2408 165.09 55.3493 164.983 55.4577C164.767 55.5661 164.551 55.5661 164.443 55.4577C164.335 55.4577 164.227 55.3493 164.12 55.2408Z" fill="#1A1A1A"/>
<path d="M157.001 54.9155C157.001 55.024 157.001 55.2408 157.001 55.3493C156.893 55.783 156.569 55.9999 156.138 55.9999C155.814 55.9999 155.598 55.783 155.491 55.5661C155.383 55.3493 155.383 55.024 155.491 54.8071C155.598 54.6987 155.598 54.6987 155.706 54.5902C155.922 54.4818 156.03 54.4818 156.246 54.4818C156.461 54.4818 156.677 54.5902 156.785 54.6987C156.893 54.6987 157.001 54.8071 157.001 54.9155Z" fill="#1A1A1A"/>
<path d="M151.823 52.2047C151.823 52.2047 151.931 54.4818 152.039 54.6987C152.039 54.9156 152.578 54.6987 152.794 54.0481C153.01 53.3975 153.01 50.5782 156.03 48.518C157.324 47.5421 152.47 49.6023 151.823 52.2047Z" fill="#3D57A4"/>
<path d="M151.823 52.4215C151.823 52.4215 154.736 47.8673 160.452 47.4336C166.169 46.9999 168.542 50.9035 168.974 52.53C168.974 52.53 169.513 48.7348 168.542 44.8312C167.571 41.036 161.639 37.6746 159.266 38.1083C156.246 38.7589 150.852 42.2288 150.96 46.4577C151.068 49.8191 151.823 52.4215 151.823 52.4215Z" fill="#ED4450"/>
<path d="M155.598 46.2408C155.598 46.2408 159.589 44.5059 164.228 45.9155C164.228 45.9155 162.933 40.9276 159.05 41.5782C155.167 42.3372 155.598 46.2408 155.598 46.2408Z" fill="#333A74"/>
<path d="M168.974 48.9517C168.111 47.6505 166.708 46.783 165.306 46.1324C164.551 45.8071 163.688 45.4818 162.825 45.3734C161.962 45.2649 161.1 45.2649 160.129 45.2649C158.403 45.2649 156.569 45.4818 155.059 46.2408C153.657 46.9999 152.363 48.1926 151.608 49.4939C151.5 49.7107 151.715 49.8192 151.931 49.7107C152.902 48.518 153.873 47.4336 155.167 46.6746C156.677 45.8071 158.403 45.6987 160.129 45.6987C160.884 45.6987 161.747 45.6987 162.502 45.8071C163.365 45.9155 164.12 46.1324 164.875 46.5661C166.277 47.2167 167.571 48.0842 168.542 49.3854C168.758 49.4939 169.081 49.277 168.974 48.9517Z" fill="#C02328"/>
<path d="M157.54 47.9758C157.54 47.9758 159.589 47.5421 161.423 49.6023C163.257 51.6625 164.227 54.0481 166.708 53.7228C169.297 53.5059 169.729 53.0722 168.758 50.6866C167.895 48.518 162.933 45.9156 157.54 47.9758Z" fill="#3D57A4"/>
<path d="M159.482 38.1083C159.05 38.9758 159.158 39.8432 159.374 40.7107C159.374 40.9276 159.697 40.8192 159.697 40.7107C159.697 39.8432 159.482 39.0842 159.805 38.3252C159.913 38.1083 159.589 37.8914 159.482 38.1083Z" fill="#C02328"/>
<path d="M154.843 80.3975C154.304 78.3372 153.657 76.6023 153.549 74.542C153.549 73.9999 152.686 73.9999 152.686 74.542C152.686 76.6023 153.01 78.9878 154.088 80.7228C154.412 81.0481 154.951 80.8312 154.843 80.3975Z" fill="#894637"/>
<path d="M178.358 76.3854C177.171 75.9517 175.985 75.6264 174.906 75.0842C175.553 74.6505 176.308 74.3252 177.063 73.9999C177.495 73.783 177.171 73.024 176.74 73.2408C173.396 74.6505 170.376 76.7107 167.895 79.4215C167.571 79.8553 168.111 80.3974 168.434 79.9637C170.16 78.2288 171.994 76.8191 174.043 75.6264C175.338 76.277 176.74 76.9276 178.142 77.2529C178.681 77.3613 178.897 76.6023 178.358 76.3854Z" fill="#894637"/>
<path d="M116.875 109.783C116.336 111.193 115.473 112.494 114.287 113.361C113.424 114.012 112.129 113.687 111.266 113.253C108.678 111.843 107.599 107.94 107.168 105.229C107.599 105.229 108.031 105.337 108.031 105.337C108.031 105.229 108.031 105.229 108.031 105.12C108.462 107.181 109.217 110.434 110.943 111.843C112.022 112.819 113.424 113.144 114.502 111.952C115.15 111.193 115.905 110.325 116.228 109.349C116.552 108.373 116.768 107.397 116.983 106.422C117.199 104.361 117.091 102.301 116.444 100.349C115.257 96.8794 111.159 97.53 110.08 100.675C109.864 101.108 109.217 101 109.325 100.458C110.08 97.6384 113.639 95.7951 116.12 97.9637C117.415 99.0481 117.738 101 117.954 102.626C118.17 104.578 118.278 106.638 117.63 108.482C117.199 108.916 117.091 109.349 116.875 109.783Z" fill="#D89B39"/>
<path d="M115.257 100.675C114.718 99.8071 113.639 99.1565 112.669 99.4818C111.482 99.9155 110.943 101.434 110.727 102.518C110.404 103.928 110.296 105.554 110.835 106.855C111.266 107.723 112.345 108.699 113.316 107.831C114.395 106.747 114.287 104.47 113.963 103.06C113.855 102.518 112.992 102.735 113.1 103.277C113.208 103.711 113.424 107.831 112.022 106.964C111.051 106.313 111.374 104.036 111.482 103.169C111.698 102.193 112.129 99.9155 113.532 100.349C114.826 100.675 114.934 102.518 114.934 103.602C114.934 105.337 114.934 109.566 112.669 110.108C111.159 110.434 110.404 108.156 110.188 107.072C109.972 105.879 109.972 104.687 110.08 103.494C110.188 103.06 109.433 102.735 109.325 103.277C109.109 104.795 109.001 106.313 109.433 107.831C109.756 108.916 110.404 110.434 111.59 110.867C114.826 112.06 115.689 107.072 115.797 105.012C116.012 103.602 116.012 101.867 115.257 100.675Z" fill="#D89B39"/>
<path d="M124.426 113.687C124.426 113.687 124.426 113.578 124.426 113.687C124.749 113.361 125.073 113.144 125.397 113.253C125.504 113.361 125.612 113.47 125.72 113.47C126.152 113.687 126.583 113.361 126.907 113.036C127.23 112.711 127.77 112.277 128.093 112.602C128.309 112.928 128.525 113.361 128.633 113.687C128.633 113.795 128.74 113.903 128.848 114.012C129.28 114.337 129.711 113.687 130.25 113.578C130.682 113.47 131.006 113.903 131.113 114.229C131.221 114.663 131.221 114.988 131.113 115.422C131.113 115.53 131.113 115.638 131.113 115.747C131.221 115.855 131.329 115.855 131.437 115.855C132.192 115.855 133.055 115.53 133.81 115.964C134.349 116.181 134.241 116.94 133.81 117.265C133.594 117.373 133.271 117.482 132.947 117.59C132.516 117.807 132.192 117.916 131.653 117.916C131.329 117.916 131.006 117.807 130.682 117.807C130.143 117.916 129.819 118.349 129.28 118.349C128.417 118.458 127.77 117.482 126.907 117.59C126.475 117.59 126.044 118.024 125.612 118.024C125.181 118.024 124.857 117.699 124.426 117.59C123.994 117.482 123.563 117.699 123.131 117.807C122.808 117.916 122.269 117.916 122.053 117.59C121.298 116.614 123.779 114.337 124.426 113.687Z" fill="#E9946B"/>
<path d="M201.117 103.385C201.117 103.385 198.205 108.156 197.342 110.759C196.371 113.361 192.056 118.675 188.389 117.482C184.722 116.289 183.751 114.879 182.888 111.952C181.917 108.916 181.378 105.988 180.191 103.494C179.005 100.891 173.935 94.4938 173.935 94.4938L173.827 81.5902L179.113 77.1444C179.113 77.1444 182.133 78.7709 183.967 80.9396C184.074 81.0481 184.182 81.1565 184.29 81.2649C184.506 81.5902 184.722 81.9155 184.937 82.2408C186.34 85.0601 186.771 89.6143 188.173 91.2408C189.575 92.8673 190.438 94.9276 190.438 95.6866C190.438 96.3372 193.89 89.6143 193.89 89.6143C193.89 89.6143 194.321 90.1565 195.077 91.024C197.342 93.9517 202.196 100.566 201.117 103.385Z" fill="#A9644C"/>
<path d="M179.868 102.626C178.789 100.458 177.171 98.5059 175.661 96.6625C175.337 96.2288 174.582 96.771 175.014 97.0963C176.524 98.9396 177.818 101 179.221 102.952C179.328 103.385 180.083 103.06 179.868 102.626Z" fill="#894637"/>
<path d="M184.29 81.2649C182.349 82.2408 180.731 83.8673 179.544 85.7107C178.789 86.7951 178.25 87.9878 177.711 89.1806C177.171 90.3734 176.74 91.6746 176.632 93.0842C176.632 93.3011 176.2 93.3011 176.2 93.0842C176.2 91.6746 176.74 90.2649 177.279 88.9637C177.818 87.771 178.358 86.4698 179.113 85.3854C180.299 83.542 181.917 81.9155 183.859 80.9396C184.074 80.9396 184.182 81.1565 184.29 81.2649Z" fill="#894637"/>
<path d="M192.488 90.3734C191.086 93.0842 189.683 95.795 188.281 98.3974C187.526 99.6987 186.879 100.891 186.124 102.084C185.369 103.277 184.614 104.253 183.859 105.879C183.751 106.205 184.182 106.422 184.398 106.205C185.477 105.229 186.124 103.819 186.879 102.518C187.634 101.217 188.389 99.9155 189.144 98.6143C190.654 96.0119 192.056 93.4095 193.135 90.5902C193.243 90.2649 192.596 90.048 192.488 90.3734Z" fill="white"/>
<path d="M201.117 103.385C199.283 103.385 194.645 97.2047 194.645 97.2047L194.969 91.024C197.342 93.9517 202.196 100.566 201.117 103.385Z" fill="#3A1714"/>
<path d="M197.881 101.108C197.773 101.108 203.382 84.9517 203.382 84.0842C203.382 83.7589 203.49 83.4336 203.598 83.2167C203.814 82.783 204.029 82.5661 204.353 82.2408C205 81.3734 204.461 80.6143 204.461 79.6384C204.569 79.0963 204.784 78.6625 204.892 78.1203C205 77.795 204.892 77.3613 204.784 77.036C204.676 76.7107 204.461 76.4938 204.353 76.277C204.245 75.8432 204.245 75.4095 204.137 74.9758C204.137 74.8673 204.137 74.6505 204.029 74.542C203.814 74.2167 203.49 74.2167 203.274 73.9999C202.843 73.6746 202.735 73.1324 202.303 72.9155C201.98 72.6987 201.656 72.6987 201.225 72.6987C200.901 72.6987 200.47 72.8071 200.146 72.8071C200.038 72.8071 199.93 72.8071 199.93 72.6987C199.93 72.5902 199.93 72.5902 199.93 72.4818C200.146 71.5059 200.362 70.6384 200.362 69.6625C200.362 68.9035 199.93 67.7107 199.068 67.7107C197.126 67.277 197.557 69.4456 197.557 70.53C197.557 71.6143 197.342 72.4818 196.695 73.9999C196.047 75.5179 195.184 76.3854 195.4 78.3372C195.616 80.289 196.047 82.6746 196.047 83.3252C196.047 83.9758 192.919 91.5661 192.919 91.5661C192.919 91.5661 191.949 95.1444 197.881 101.108Z" fill="#EC9369"/>
<path d="M200.578 82.4577C200.793 82.4577 201.009 82.4577 201.117 82.4577C201.225 82.4577 201.333 82.4577 201.441 82.4577C202.196 82.4577 203.058 82.3492 203.814 82.2408C204.029 82.2408 204.137 82.0239 204.029 81.9155C204.029 81.6986 203.814 81.5902 203.706 81.6986C202.951 81.8071 202.196 81.9155 201.441 81.9155C201.333 81.9155 201.225 81.9155 201.117 81.9155C200.685 81.9155 199.823 82.0239 199.607 81.8071V81.5902C199.607 81.3733 199.715 81.1565 199.607 80.9396C199.499 80.3974 199.068 80.289 198.744 80.1806C198.528 80.1806 198.42 80.0721 198.312 79.9637C198.312 79.9637 198.312 79.7468 198.42 79.6384C198.42 79.53 198.528 79.53 198.528 79.4215C198.636 79.3131 198.744 79.0962 198.852 78.8794C198.852 78.7709 198.852 78.6625 198.852 78.6625C198.852 78.5541 198.744 78.5541 198.636 78.5541C198.312 78.4456 197.989 78.3372 197.665 78.2288C197.45 78.1203 197.234 77.9035 197.126 77.6866C197.126 77.4697 197.126 77.2529 197.342 77.036C197.557 76.8191 197.773 76.6023 197.989 76.3854C198.097 76.277 198.097 76.1685 198.097 76.0601C198.097 75.9517 197.989 75.8432 197.881 75.8432C197.665 75.7348 197.45 75.6264 197.234 75.5179C197.126 75.4095 197.018 75.3011 197.018 75.1926C197.018 75.0842 197.126 74.9758 197.234 74.8673C197.773 74.3252 198.636 73.8914 199.391 73.5661C199.607 73.4577 199.607 73.3492 199.607 73.1324C199.499 72.9155 199.391 72.9155 199.175 72.9155C198.312 73.2408 197.342 73.6745 196.802 74.3252C196.695 74.542 196.479 74.7589 196.371 75.0842C196.371 75.4095 196.479 75.7348 196.802 75.9517C196.91 76.0601 197.018 76.0601 197.126 76.1685C197.018 76.277 196.802 76.4938 196.695 76.6023C196.371 77.036 196.371 77.3613 196.371 77.795C196.479 78.2288 196.802 78.5541 197.234 78.7709C197.45 78.8794 197.665 78.9878 197.881 79.0962C197.773 79.2047 197.773 79.2047 197.773 79.3131C197.557 79.6384 197.45 80.0721 197.665 80.3974C197.881 80.7227 198.205 80.7227 198.42 80.8312C198.744 80.9396 198.852 80.9396 198.852 81.048V81.2649C198.744 81.4818 198.636 81.8071 198.96 82.1324C199.499 82.4577 199.93 82.4577 200.578 82.4577Z" fill="#D97E56"/>
<path d="M175.014 116.072C175.014 116.072 178.573 116.723 179.005 117.807C179.436 119 175.553 120.084 175.553 120.084L175.014 116.072Z" fill="#3A1714"/>
<path d="M152.578 117.916C152.47 116.723 152.255 115.638 152.147 114.446C150.421 114.554 148.587 114.879 148.372 115.53C147.832 116.723 151.715 117.807 152.578 117.916C152.578 118.024 152.578 118.024 152.578 117.916Z" fill="#3A1714"/>
<path d="M155.275 127.458C157.756 128 160.237 128.217 162.717 128.325C168.326 128.651 173.72 128 179.005 126.482C178.681 125.397 178.466 124.313 178.25 123.446C177.171 118.891 177.063 116.614 177.063 116.614C177.063 116.614 175.23 115.638 166.493 114.988C157.756 114.337 152.147 114.554 152.147 114.554C152.147 114.554 152.363 117.59 151.715 120.626C151.608 120.952 151.392 121.711 151.068 122.795C150.852 123.554 150.529 124.53 150.205 125.723C151.608 126.59 153.657 127.132 155.275 127.458Z" fill="#EC9369"/>
<path d="M159.374 118.783C159.158 118.891 159.05 119.108 159.05 119.325C159.05 119.65 159.05 120.084 159.158 120.41C159.158 120.626 159.589 120.626 159.589 120.41C159.589 120.084 159.589 119.759 159.482 119.434C159.482 119.434 159.482 119.325 159.482 119.217C159.482 119.108 159.589 119.217 159.589 119.217C159.589 119.325 159.589 119.434 159.697 119.542C159.697 119.65 159.913 119.65 159.913 119.542C160.237 119.325 159.913 118.675 159.374 118.783Z" fill="#D97E56"/>
<path d="M193.998 251.723C194.861 252.916 176.308 252.699 173.18 252.699C154.52 252.916 146.861 252.807 146.969 251.506C146.969 250.096 161.315 250.53 180.299 250.205C191.841 249.771 193.243 250.205 193.998 251.723Z" fill="#847895"/>
<path d="M163.58 243.048C163.58 243.048 167.356 235.783 168.542 230.47C168.758 229.602 168.758 227.217 168.758 223.855C171.886 223.855 162.825 204.012 165.953 203.904C165.306 206.831 170.268 221.47 174.475 231.229C176.524 236.108 178.789 240.554 178.789 240.554L163.58 243.048Z" fill="#D97E56"/>
<path d="M180.946 246.843C180.946 246.843 157.971 251.723 153.118 251.397C152.578 251.397 152.255 250.855 152.47 249.879C152.686 249.012 153.01 247.928 153.441 247.494C154.304 246.626 159.374 244.132 160.992 242.072C162.717 240.012 164.012 237.193 165.414 236.542C166.816 235.783 168.218 236.325 168.758 236.542C169.297 236.759 171.239 239.144 172.964 239.144C175.553 239.144 176.2 236 177.171 236.108C177.818 236.217 179.113 239.47 180.083 242.397C180.838 244.132 181.054 245.65 180.946 246.843Z" fill="#C02328"/>
<path d="M181.27 247.06C181.27 247.06 157.864 251.94 152.902 251.723C152.363 251.723 152.255 250.855 152.47 249.879C154.628 249.663 168.542 248.036 169.836 247.385C171.239 246.626 171.994 245 173.18 244.241C174.151 243.699 178.358 242.614 180.299 242.397C180.946 244.132 181.27 245.867 181.27 247.06Z" fill="white"/>
<path d="M172.533 248.036C172.533 248.036 173.288 253.241 173.072 253.458C172.857 253.675 155.275 254.434 154.843 253.675C154.412 253.024 154.843 251.072 154.843 251.072L165.198 246.41L172.533 248.036Z" fill="white"/>
<path d="M170.268 242.614C170.268 242.614 171.454 242.181 171.886 243.265C172.317 244.458 172.857 250.422 172.857 250.422C172.857 250.422 170.592 250.205 169.836 251.072C169.189 252.048 168.003 248.253 168.003 248.253L170.268 242.614Z" fill="#ED4450"/>
<path d="M163.796 230.578C164.012 230.904 164.12 231.12 164.12 231.12V232.205L163.904 249.012C163.904 249.012 169.944 250.422 170.592 244.349C170.807 242.072 172.102 237.084 173.504 231.337C173.612 230.904 173.72 230.361 173.827 229.928C170.484 230.361 167.14 230.578 163.796 230.578Z" fill="#EC9369"/>
<path d="M163.257 240.988C163.257 240.988 167.14 240.337 167.895 240.988C168.542 241.638 168.974 244.783 169.405 245C169.837 245.217 170.16 245 170.484 244.783C170.807 244.566 172.641 250.313 172.641 250.313C172.641 250.313 170.807 250.313 170.376 250.747C169.944 251.181 169.405 252.157 168.542 252.157C167.571 252.157 160.884 252.157 160.884 252.157C160.884 252.157 159.913 250.096 158.619 250.096C157.216 250.096 156.354 251.94 155.814 251.94C155.383 251.94 154.628 251.94 154.628 251.94C154.628 251.94 154.412 250.096 155.814 249.337C156.569 249.012 158.403 248.144 159.697 245.65C161.1 243.157 162.61 240.988 163.257 240.988Z" fill="#ED4450"/>
<path d="M165.522 244.241C164.767 243.048 162.718 243.157 161.531 243.265C160.992 243.265 160.992 244.132 161.531 244.024C162.178 244.024 163.473 243.916 164.228 244.241C163.149 244.566 162.178 244.783 161.1 245.108C160.345 245.325 158.942 245.759 158.619 246.518C158.295 247.169 158.942 247.494 159.482 247.602C161.1 247.819 162.933 247.385 164.443 248.036C164.875 248.253 165.198 247.385 164.767 247.169C163.904 246.735 163.041 246.735 162.178 246.735C161.747 246.735 161.315 246.735 160.776 246.735C160.452 246.735 160.129 246.735 159.913 246.735C159.374 246.735 159.266 246.735 159.805 246.626C160.452 246.084 161.639 245.867 162.394 245.65C163.365 245.434 164.335 245.217 165.198 244.891C165.522 244.783 165.63 244.566 165.522 244.241Z" fill="#842A2E"/>
<path d="M159.266 191.434C157.001 188.397 154.628 184.928 154.843 182.651C154.951 181.241 160.344 168.012 160.884 166.385C160.884 166.385 164.12 195.554 164.12 200C164.12 200 161.531 194.47 159.266 191.434ZM179.328 127.891C178.897 126.157 178.466 124.638 178.142 123.337C176.848 123.554 172.857 124.096 166.169 124.422C158.834 124.855 152.47 123.12 150.96 122.687C148.048 132.337 136.399 169.205 137.801 179.397C138.556 184.385 143.518 194.795 149.019 204.988C151.608 209.651 154.196 214.313 156.569 218.434C158.079 221.036 159.374 223.313 160.56 225.265C162.717 228.843 164.12 231.229 164.12 231.229V232.313C168.003 233.723 172.102 232.205 173.504 231.554C174.259 228.518 175.122 225.265 175.877 222.12C177.387 215.94 178.789 210.41 178.789 208.132C178.789 208.024 178.789 207.916 178.789 207.807C179.005 202.277 178.034 196.638 176.955 191.434C175.769 186.12 177.603 174.084 181.054 159.879C184.506 145.675 181.378 135.59 179.328 127.891Z" fill="#5F7AB3"/>
<path d="M161.531 173.759C160.884 170.397 161.1 166.928 160.776 163.458C160.452 160.313 160.021 157.06 159.482 153.916C158.403 147.193 157.216 140.47 156.893 133.747C156.893 133.205 156.03 133.205 156.138 133.747C156.354 140.47 157.54 147.084 158.619 153.807C159.158 157.277 159.697 160.747 159.913 164.217C160.129 167.47 159.913 170.94 160.776 174.084C160.884 174.518 161.639 174.301 161.531 173.759Z" fill="#FFE7D7"/>
<path d="M178.897 126.373C177.926 126.482 177.063 126.59 176.093 126.807C167.895 127.891 159.482 128.434 151.392 126.265C151.176 126.157 151.284 125.831 151.5 125.831C153.765 126.373 156.138 126.807 158.403 127.024C162.502 127.458 166.708 127.349 170.807 126.916C173.504 126.699 176.093 126.265 178.789 125.94L178.897 126.373Z" fill="#464C7B"/>
<path d="M178.897 207.59C178.897 207.699 178.897 207.807 178.897 207.916C178.789 210.193 177.495 215.723 175.985 221.904C173.827 223.313 169.836 224.94 163.473 225.048L163.688 221.795C163.688 221.795 174.259 217.241 178.897 207.59Z" fill="#FC9081"/>
<path d="M163.365 214.313C159.697 213.12 153.441 210.301 149.127 204.988C151.715 209.65 154.304 214.313 156.677 218.434C158.295 218.759 160.452 218.976 162.933 218.867C163.041 217.349 163.257 215.831 163.365 214.313Z" fill="#FC9081"/>
<path d="M164.12 200V231.12C164.12 231.12 162.717 228.843 160.56 225.157L164.12 200Z" fill="#1A1A1A"/>
<path d="M158.295 106.747C158.079 104.578 157.216 102.626 157.648 100.349C157.971 98.289 158.295 96.3372 158.295 94.1686C158.295 91.9999 158.295 89.8312 158.187 87.6625C158.187 87.1204 157.324 87.1204 157.324 87.6625C157.324 89.8312 157.324 91.9999 157.324 94.1686C157.324 96.4457 156.893 98.5059 156.677 100.783C156.354 102.843 157.216 104.687 157.432 106.747C157.648 108.807 157.648 110.976 157.864 113.036C157.864 113.578 158.727 113.578 158.727 113.036C158.511 110.976 158.511 108.807 158.295 106.747Z" fill="#842A2E"/>
<path d="M162.502 102.41C163.041 99.9155 163.472 97.6384 163.365 95.036C163.257 92.542 162.825 90.0481 161.962 87.6625C161.747 87.1204 160.992 87.3372 161.207 87.8794C161.962 90.3734 162.502 92.8673 162.502 95.4698C162.502 98.1806 161.747 100.675 161.423 103.277C161.315 104.361 161.423 105.446 161.639 106.53C161.962 107.94 162.07 109.349 162.07 110.867C162.07 113.47 161.747 116.072 161.531 118.675C161.531 119.217 162.394 119.217 162.502 118.675C162.717 116.072 162.933 113.47 163.041 110.867C163.041 108.048 161.962 105.229 162.502 102.41Z" fill="#842A2E"/>
</g>
<defs>
<clipPath id="clip0">
<rect width="155" height="216" fill="white" transform="translate(50 37.9999)"/>
</clipPath>
</defs>
</svg>
