<svg width="68" height="68" viewBox="0 0 68 68" fill="none" xmlns="http://www.w3.org/2000/svg">
<ellipse cx="33.8803" cy="33.2288" rx="29.1429" ry="29.1428" fill="#811D65"/>
<path d="M44.1339 18.0909H23.8667C20.6318 18.0909 17.9999 20.7228 17.9999 23.9577V44.2249C17.9999 47.4598 20.6318 50.0924 23.8667 50.0924H44.1339C47.3688 50.0924 50.0014 47.4605 50.0014 44.2249V23.9577C50.0014 20.7228 47.3695 18.0909 44.1339 18.0909ZM34.0003 44.6264C28.1918 44.6264 23.466 39.9005 23.466 34.0913C23.466 28.2828 28.1918 23.557 34.0003 23.557C39.8095 23.557 44.5354 28.2828 44.5354 34.0913C44.5354 39.8998 39.8088 44.6264 34.0003 44.6264ZM44.874 25.7351C43.499 25.7351 42.3808 24.6168 42.3808 23.2426C42.3808 21.8683 43.499 20.7501 44.874 20.7501C46.2483 20.7501 47.3665 21.8683 47.3665 23.2426C47.3665 24.6168 46.2483 25.7351 44.874 25.7351Z" fill="white"/>
<path d="M33.9996 28.0093C30.6465 28.0093 27.9161 30.7381 27.9161 34.0912C27.9161 37.4458 30.6465 40.1755 33.9996 40.1755C37.3542 40.1755 40.0823 37.4458 40.0823 34.0912C40.0823 30.7389 37.3535 28.0093 33.9996 28.0093Z" fill="white"/>
<path d="M34 0C15.2231 0 0 15.2231 0 34C0 52.7769 15.2231 68 34 68C52.7769 68 68 52.7769 68 34C68 15.2231 52.7769 0 34 0ZM54.452 44.2252C54.452 49.9155 49.8238 54.5436 44.1336 54.5436H23.8664C18.1769 54.5436 13.548 49.9155 13.548 44.2252V23.9581C13.548 18.2686 18.1769 13.6397 23.8664 13.6397H44.1336C49.8238 13.6397 54.452 18.2686 54.452 23.9581V44.2252Z" fill="white"/>
</svg>
