<svg viewBox="0 0 381 292" fill="none" xmlns="http://www.w3.org/2000/svg">
<g clip-path="url(#clip0)">
<path d="M26.2388 280.955C26.2388 280.955 -13.6622 160.39 5.1239 142.189C16.4576 131.143 40.3672 146.078 44.4038 129.432C46.2669 121.498 17.8549 32.2024 40.6777 9.02283C68.7792 -19.446 330.231 25.2018 363.301 63.627C396.371 102.052 351.657 283.91 351.657 283.91L26.2388 280.955Z" fill="white" fill-opacity="0.25"/>
<path d="M134.142 282.821C134.142 285.155 118.927 285.466 100.141 285.466C81.3546 285.466 66.1394 285.155 66.1394 282.821C66.1394 280.177 81.3546 280.177 100.141 280.177C118.927 280.177 134.142 281.11 134.142 282.821Z" fill="#766780"/>
<path d="M54.961 249.53C54.961 249.53 44.093 281.266 44.7141 281.577C45.3351 281.888 49.9928 281.421 49.9928 281.421L65.9842 251.708L54.961 249.53Z" fill="#6D292E"/>
<path d="M106.661 248.597C106.661 248.597 95.7934 280.332 96.4144 280.644C97.0355 280.955 101.693 280.488 101.693 280.488L117.685 250.775L106.661 248.597Z" fill="#812A2E"/>
<path d="M268.128 249.997C268.128 249.997 275.27 281.888 274.494 282.043C273.718 282.355 269.681 282.199 269.681 282.199L256.95 250.93L268.128 249.997Z" fill="#6D292E"/>
<path d="M307.719 248.752C307.719 248.752 315.171 280.177 314.395 280.488C313.619 280.799 309.271 280.954 309.271 280.954L296.54 249.685L307.719 248.752Z" fill="#4C2026"/>
<path d="M318.276 253.419C314.084 257.153 303.216 257.619 283.654 258.708C261.918 259.953 238.63 260.108 231.643 260.264C230.556 260.264 228.538 260.264 225.743 260.264C222.328 260.264 217.67 260.264 212.236 260.108C163.951 259.642 45.0244 256.686 36.33 246.418C25.7726 233.973 12.8863 183.569 31.3618 177.347C49.8374 171.279 69.2444 185.125 78.7151 176.569C88.1858 168.013 85.5464 140.633 96.7249 137.055C100.917 135.655 132.434 134.099 171.093 133.01C178.235 132.854 185.687 132.699 193.295 132.543C211.149 132.232 229.469 131.921 246.858 131.921C256.329 131.921 265.334 131.921 273.873 132.076C305.235 132.388 328.678 133.788 331.318 136.588C331.473 136.743 331.628 137.055 331.784 137.21C339.857 149.967 326.971 245.641 318.276 253.419Z" fill="#6674C6"/>
<path d="M318.276 253.419C314.084 257.152 303.216 257.619 283.654 258.708C281.946 257.93 280.394 256.375 279.462 253.574C277.288 246.885 284.43 196.637 294.988 190.57C306.787 183.725 312.998 188.858 318.276 177.658C323.555 166.457 316.879 140.01 328.213 136.432C329.455 135.965 330.697 136.277 331.784 137.21C339.857 149.967 326.971 245.641 318.276 253.419Z" fill="#485FB7"/>
<path d="M315.016 181.858C314.861 181.547 314.395 181.547 314.084 181.702C310.203 184.502 303.216 183.725 295.764 182.947C287.691 182.013 278.375 180.924 271.544 184.658C264.868 188.392 261.142 194.303 259.745 203.326C259.589 203.948 259.589 204.571 259.434 205.193C258.813 210.638 258.968 216.861 259.124 223.394C259.279 228.684 259.279 234.128 259.124 239.884C259.124 241.44 258.347 242.685 256.95 243.929C248.256 251.241 217.515 251.396 203.697 249.685C195.624 248.752 175.13 248.285 153.238 247.974C136.005 247.663 118.15 247.196 105.575 246.574C101.072 246.418 96.725 246.263 92.3778 246.107C80.5783 245.796 69.5551 245.485 60.3949 243.307C50.3032 240.973 44.093 236.618 40.6773 229.617C38.5037 224.95 38.1932 220.75 39.901 216.861C43.4719 208.771 54.9609 205.193 55.5819 205.037C56.3582 204.882 73.747 201.615 90.8252 202.237C90.9805 202.393 91.1357 202.393 91.291 202.393L254.776 204.104C255.708 204.104 255.708 202.704 254.776 202.704L92.2225 200.993H92.0673C74.2128 200.059 55.5819 203.637 55.4267 203.637C54.9609 203.793 42.8509 207.371 38.8142 216.238C36.9511 220.439 37.1064 225.106 39.5905 230.084C47.1981 246.107 69.0893 246.729 92.3778 247.352C96.725 247.507 101.227 247.663 105.575 247.818C118.15 248.441 136.005 248.752 153.238 249.219C174.974 249.685 195.624 249.996 203.542 250.93C207.268 251.396 213.633 251.708 220.775 251.708C234.593 251.708 251.361 250.308 257.726 244.707C259.434 243.307 260.366 241.596 260.366 239.729C260.676 233.973 260.521 228.528 260.366 223.083C260.21 216.549 260.055 210.327 260.676 205.037C260.676 204.415 260.831 203.793 260.831 203.326C262.073 194.614 265.489 189.014 271.855 185.591C278.375 182.013 286.914 182.947 295.298 184.036C302.906 184.969 310.203 185.747 314.55 182.636C315.171 182.48 315.171 182.169 315.016 181.858Z" fill="#374389"/>
<path d="M326.35 281.11C326.35 282.354 328.989 284.532 199.039 284.688C77.6284 284.844 16.4573 282.666 16.4573 281.421C16.4573 280.177 53.5636 278.154 180.719 278.932C320.139 279.554 326.35 279.865 326.35 281.11Z" fill="#766780"/>
<path d="M100.141 144.211C97.5013 147.478 97.5013 151.834 97.1908 155.878C96.8803 160.856 96.8803 165.99 96.725 170.968C96.2592 179.991 94.8619 189.17 89.4279 196.793C89.1174 197.259 89.8937 197.882 90.3595 197.259C95.3277 190.414 97.0355 181.858 97.6566 173.457C97.9671 168.479 97.9671 163.501 98.1223 158.523C98.2776 156.034 98.2776 153.7 98.5881 151.211C98.8986 148.878 99.3644 146.544 100.762 144.677C101.227 144.522 100.606 143.744 100.141 144.211Z" fill="#485FB7"/>
<path d="M185.377 56.4707C185.377 56.4707 196.089 79.3391 195.468 79.9614C194.847 80.5837 181.34 79.6502 181.34 79.6502V77.6279C181.34 77.6279 192.674 79.028 192.984 78.4057C193.295 77.7834 185.221 58.9598 185.221 58.9598L185.377 56.4707Z" fill="#EEC7D4"/>
<path d="M187.55 51.3366C187.55 51.3366 184.135 75.7607 183.203 76.383C182.272 77.0052 147.494 77.0052 147.184 76.0718C146.873 75.294 150.91 51.3366 152.152 51.0255C153.394 50.7144 187.55 50.4032 187.55 51.3366Z" fill="#FAE3E9"/>
<path d="M143.147 79.0279C143.457 79.8057 186.774 79.8057 186.774 79.8057C186.774 79.8057 192.984 50.2479 191.742 49.0034C190.5 47.7588 151.375 47.4477 149.823 48.3811C148.115 49.1589 142.681 78.25 143.147 79.0279ZM152.152 51.0257C153.394 50.7146 187.55 50.4035 187.55 51.3369C187.55 51.3369 184.135 75.761 183.203 76.3832C182.272 77.0055 147.494 77.0055 147.184 76.0721C146.873 75.2943 150.91 51.3369 152.152 51.0257Z" fill="#EEC7D4"/>
<path d="M130.882 56.3151C130.882 56.3151 142.992 42.6251 139.265 37.9581C135.695 33.1355 128.863 48.3811 128.863 48.3811C128.863 48.3811 140.352 14.0007 132.124 11.045C123.895 7.93361 122.964 42.4696 122.964 42.4696C122.964 42.4696 122.653 29.5575 119.548 29.4019C116.443 29.2463 119.237 39.9805 119.237 39.9805C119.237 39.9805 114.89 21.6235 107.748 24.5793C100.607 27.6907 117.374 53.0482 117.374 53.0482C117.374 53.0482 113.338 47.7589 110.854 49.7812C108.369 51.648 120.635 59.582 120.635 59.582L130.882 56.3151Z" fill="#EEC7D4"/>
<path d="M108.991 62.2265C109.146 62.3821 109.922 62.3821 111.319 62.5376C111.785 67.3602 113.338 78.4055 114.269 79.3389C115.356 80.4279 133.211 79.9612 133.987 79.4945C134.608 79.1834 136.16 68.4492 136.937 62.8488C136.937 62.5376 137.092 62.0709 137.092 61.7598V61.6042C138.024 61.6042 138.645 61.4487 138.8 61.4487C139.421 61.1375 139.731 54.7593 139.731 54.7593C139.731 54.7593 109.612 54.7593 108.525 55.0704C107.283 55.5371 108.525 61.4487 108.991 62.2265Z" fill="#EEC7D4"/>
<path d="M114.269 63.3154C118.306 63.7821 122.343 63.6266 126.379 63.471C129.95 63.3154 133.366 63.1599 136.937 62.8487C136.937 62.5376 137.092 62.0709 137.092 61.7598C133.521 62.0709 129.95 62.2265 126.379 62.382C122.343 62.5376 118.306 62.2265 114.269 62.382C113.648 62.382 113.648 63.3154 114.269 63.3154Z" fill="#EEC7D4"/>
<path d="M119.858 46.5144C120.635 46.3588 121.256 47.1367 121.566 47.6034C121.722 47.9145 122.032 48.2256 122.187 48.5368C122.964 46.2032 123.74 43.8697 124.516 41.5362C124.982 40.1361 125.448 38.736 126.069 37.4915C126.379 36.8692 127.156 35.7802 127.777 36.7136C128.087 37.1803 128.087 37.8026 128.087 38.2693C128.242 38.8916 128.242 39.6694 128.242 40.2917C128.242 41.6918 128.242 43.0919 128.087 44.492C127.932 46.8255 127.466 49.0035 126.845 51.1814C127.466 50.7147 128.242 50.4036 128.863 50.7147C129.95 51.337 129.329 53.0482 128.863 53.9816C128.708 54.4483 127.932 54.1372 128.087 53.6705C128.242 53.3593 128.863 51.6481 127.932 51.8037C127.777 51.8037 127.311 52.1148 127.156 52.2704C126.845 52.5815 126.379 52.8926 126.069 53.2038C125.758 53.5149 125.137 53.2038 125.292 52.7371C126.069 50.4036 126.534 48.0701 126.845 45.581C127.155 43.2475 127.311 40.7584 127 38.2693C127 38.1137 127 37.9582 126.845 37.8026C126.845 37.8026 126.845 37.8026 126.845 37.9582C126.534 38.5804 126.379 39.2027 126.069 39.6694C125.603 40.7584 125.292 42.0029 124.827 43.0919C124.05 45.4254 123.119 47.9145 122.343 50.4036C122.187 50.8703 121.411 50.8703 121.411 50.4036C121.256 49.9369 121.1 49.4702 120.945 49.0035C120.79 48.8479 120.169 47.7589 119.858 47.7589C119.858 47.7589 120.014 49.0035 120.014 49.159C120.014 49.7813 120.169 50.5591 120.324 51.1814C120.479 51.8037 119.548 52.1148 119.393 51.4925C119.082 50.4036 118.927 49.3146 119.082 48.2256C119.237 47.4478 119.237 46.8255 119.858 46.5144Z" fill="#EEC7D4"/>
<path d="M158.828 83.5396C158.828 83.5396 158.517 86.962 159.449 86.962C160.38 86.962 182.582 86.6509 183.203 86.962C183.824 87.2732 182.427 104.541 183.048 104.852C183.669 105.163 187.395 104.541 187.395 104.541L187.861 83.8507L158.828 83.5396Z" fill="#EEC7D4"/>
<path d="M39.4353 84.1616C39.4353 84.1616 39.1248 87.5841 40.0563 87.5841C40.9879 87.5841 63.1896 87.273 63.8106 87.5841C64.4317 87.8952 63.0343 105.163 63.6554 105.474C64.2764 105.785 68.0026 105.163 68.0026 105.163L68.4683 84.4728L39.4353 84.1616Z" fill="#EEC7D4"/>
<path d="M206.026 79.339C205.715 77.7833 29.9647 79.9613 29.9647 79.9613V84.9394L205.405 84.006C205.25 84.006 206.181 80.8947 206.026 79.339Z" fill="#EEC7D4"/>
<path d="M167.056 79.8055C167.056 79.0277 165.97 79.0277 165.97 79.8055C165.97 80.8945 165.814 81.9835 165.97 83.0725C165.97 83.8503 167.056 83.8503 167.056 83.0725C167.056 82.1391 167.056 80.8945 167.056 79.8055Z" fill="#EEC7D4"/>
<path d="M51.2349 70.1606L50.9244 79.028L79.4916 79.4947L77.9391 70.1606H51.2349Z" fill="#FAE3E9"/>
<path d="M49.9928 79.8056H104.177C104.177 79.8056 105.575 70.4716 103.246 70.0049C101.227 69.5382 50.6138 68.9159 50.3033 69.5382C49.9928 70.1605 49.9928 70.7827 49.9928 70.7827C49.9928 70.7827 74.3681 70.1605 74.6786 70.7827C74.9891 71.405 74.9891 78.25 74.3681 78.5611C73.7471 78.8722 49.9928 78.5611 49.9928 78.5611V79.8056Z" fill="#EEC7D4"/>
<path d="M99.2092 60.0486L99.3644 69.0715L70.9525 69.2271L72.3498 59.8931L99.2092 60.0486Z" fill="#FAE3E9"/>
<path d="M100.296 69.8495L56.6688 69.3828C56.5136 68.2938 55.4268 60.9822 57.4451 60.2043C59.6187 59.2709 99.8302 58.9598 100.141 59.582C100.451 60.2043 100.451 60.8266 100.451 60.8266C100.451 60.8266 76.0759 59.8932 75.7654 60.5154C75.4549 61.1377 75.4549 67.9827 76.0759 68.2938C76.697 68.605 100.296 68.4494 100.296 68.4494V69.8495Z" fill="#EEC7D4"/>
<path d="M339.857 201.459C339.857 201.459 339.857 202.393 340.012 203.637C337.062 203.637 336.907 208.149 337.062 210.482C337.373 213.594 338.77 217.638 341.565 219.35C341.875 220.75 342.186 221.839 342.652 222.305C343.273 222.928 344.204 223.394 345.136 223.706H354.141C355.072 223.394 356.004 223.083 356.625 222.305C358.798 220.128 359.419 201.459 359.419 201.459H339.857Z" fill="#F1404C"/>
<path d="M341.254 214.06C340.788 211.882 340.633 209.86 340.478 207.682C340.478 206.593 338.77 206.593 338.77 207.682C338.77 210.015 338.925 212.349 339.391 214.527C339.702 215.771 341.565 215.149 341.254 214.06Z" fill="#8B1D23"/>
<path d="M345.757 194.77C345.135 193.214 345.135 191.347 346.067 189.947C347.154 188.081 349.327 187.147 351.035 185.903C352.122 185.125 353.054 184.191 353.985 183.258C354.606 182.48 355.072 181.702 355.227 180.769C355.227 179.836 354.761 178.902 354.296 178.28C353.83 177.658 353.054 176.88 352.433 176.102C351.191 174.546 350.88 172.368 351.346 170.501C351.191 171.902 352.433 173.302 353.675 173.924C354.917 174.546 356.469 174.857 357.711 175.324C360.351 176.257 362.68 178.124 364.077 180.458C364.853 181.547 365.319 182.791 365.164 184.191C365.008 186.058 363.301 187.614 361.593 188.392C359.885 189.17 357.867 189.17 356.003 189.481C354.14 189.792 352.122 190.259 350.725 191.503C349.172 192.903 350.259 193.837 350.88 195.392C351.035 195.703 351.035 196.015 351.035 196.326C350.88 196.792 350.414 197.103 350.104 197.57C349.638 198.192 349.638 199.126 349.638 199.904C348.706 198.97 347.93 198.037 347.154 196.948C346.533 196.326 346.067 195.548 345.757 194.77Z" fill="white"/>
<path d="M308.029 220.749H330.852C333.491 217.638 335.51 212.971 333.026 209.704C331.163 207.215 328.213 206.904 325.573 207.837C324.797 207.371 324.021 206.904 322.934 206.904C319.208 206.437 315.171 208.615 312.532 210.949C310.048 213.127 307.253 216.705 308.029 220.283C308.029 220.438 308.029 220.594 308.029 220.749Z" fill="#82272C"/>
<path d="M327.126 207.993C326.35 207.371 325.263 208.46 326.039 209.082C329.3 212.504 327.437 216.86 324.952 219.972C324.331 220.905 325.418 221.994 326.194 221.216C329.61 217.949 331.318 211.571 327.126 207.993Z" fill="#641301"/>
<path d="M321.847 210.171C321.847 210.015 321.847 210.015 321.847 209.86C321.847 209.704 321.847 209.704 321.692 209.548V209.393C321.847 208.926 321.537 208.304 321.071 208.148C320.605 207.993 319.984 208.304 319.829 208.771C319.674 209.082 319.674 209.548 319.829 209.86C319.829 210.015 319.829 210.171 319.984 210.326C320.14 210.637 320.295 210.793 320.45 210.949C321.071 211.415 322.003 210.793 321.847 210.171Z" fill="#641301"/>
<path d="M315.016 216.394C314.861 215.927 314.395 215.616 313.929 215.46C313.463 215.305 312.998 215.305 312.687 215.771C312.377 216.082 312.377 216.705 312.687 217.016C312.842 217.171 313.153 217.327 313.308 217.483C313.619 217.638 313.929 217.794 314.24 217.794C314.55 217.794 314.861 217.638 315.016 217.327C315.171 217.016 315.171 216.705 315.016 216.394Z" fill="#641301"/>
<path d="M325.574 214.838C325.418 214.682 325.418 214.371 325.263 214.216C324.953 213.905 324.642 213.905 324.176 214.06C323.866 214.216 323.555 214.527 323.555 214.994C323.555 215.305 323.711 215.46 323.866 215.616C324.176 216.083 324.642 216.238 325.108 216.083C325.574 215.771 325.729 215.149 325.574 214.838Z" fill="#641301"/>
<path d="M333.181 210.482C332.87 210.326 332.405 210.482 332.094 210.637C331.939 210.793 331.784 211.104 331.784 211.26C331.628 211.415 331.784 211.882 331.939 212.038C332.094 212.193 332.094 212.349 332.405 212.349C332.87 212.66 333.491 212.349 333.802 211.882C333.957 211.726 333.957 211.415 333.957 211.26C333.802 210.949 333.647 210.637 333.181 210.482Z" fill="#641301"/>
<path d="M306.943 217.171C306.943 217.171 307.564 223.394 308.34 223.705C308.961 224.016 332.871 224.016 333.181 224.016C333.492 224.016 334.578 218.571 334.578 217.794C334.578 217.171 306.943 217.171 306.943 217.171Z" fill="#F6B542"/>
<path d="M323.71 218.416C323.71 217.949 323.089 217.949 323.089 218.416C323.089 220.127 322.779 221.838 322.313 223.55C322.158 223.861 322.779 224.172 322.934 223.861C323.555 222.15 323.71 220.127 323.71 218.416Z" fill="#D7992C"/>
<path d="M381 283.132C381.621 285.621 359.264 284.999 331.628 284.999C303.993 284.999 281.015 285.31 281.015 283.132C281.015 281.888 303.061 282.354 330.697 282.354C358.333 282.354 380.689 282.043 381 283.132Z" fill="#766780"/>
<path d="M310.669 228.528C310.669 228.528 287.691 282.977 288.933 283.599C290.175 284.221 293.28 283.599 293.28 283.599L315.948 229.462L310.669 228.528Z" fill="#A7644C"/>
<path d="M353.054 228.217C353.054 228.217 375.721 282.354 374.324 282.977C372.927 283.599 369.977 282.977 369.977 282.977L347.62 229.15L353.054 228.217Z" fill="#A7644C"/>
<path d="M327.747 228.995C327.747 228.995 331.007 282.821 332.715 283.132C334.423 283.443 335.976 283.132 335.976 283.132L333.957 228.373L327.747 228.995Z" fill="#90503D"/>
<path d="M298.093 223.861C298.093 223.861 296.696 230.55 298.403 230.861C300.111 231.173 366.095 233.351 367.803 230.239C368.735 228.217 366.872 223.55 366.872 223.55L298.093 223.861Z" fill="#812A2E"/>
<path d="M170.472 284.688C170.472 286.088 162.709 287.955 118.306 287.955C73.5918 287.955 65.2079 286.243 66.1395 284.688C66.9157 283.443 90.5148 282.977 119.237 282.977C160.38 282.977 170.472 283.288 170.472 284.688Z" fill="#766782"/>
<path d="M119.703 227.284C116.443 228.217 110.543 235.84 108.99 238.018C106.351 241.596 103.09 240.973 100.451 241.596C97.8117 242.218 97.5012 242.84 95.6381 243.929C93.6198 244.863 71.2628 242.218 69.8655 241.596C68.6235 240.973 68.313 227.284 68.313 227.284C68.313 227.284 92.6883 227.284 95.0171 226.661C97.0355 226.039 107.593 209.704 110.853 205.037C111.009 204.726 111.164 204.415 111.319 204.26C111.474 204.104 111.474 203.948 111.63 203.793C112.872 202.237 120.945 195.859 120.945 195.859C120.945 195.859 122.963 226.195 119.703 227.284Z" fill="#61B5AE"/>
<path d="M112.872 214.838C111.474 212.038 111.008 208.304 110.698 204.882C110.853 204.571 111.008 204.26 111.164 204.104C111.474 207.526 112.095 211.416 113.337 214.527C113.493 214.838 113.027 214.994 112.872 214.838Z" fill="#338A80"/>
<path d="M68.4682 227.284C68.4682 227.284 71.7286 230.395 70.797 236.773C70.797 236.773 57.6002 235.684 55.4266 234.595C53.253 233.351 51.0794 231.64 51.0794 231.64C51.0794 231.64 47.5085 229.773 46.8875 228.684C46.1112 226.973 45.1797 225.417 44.5587 223.55C44.4034 223.083 44.0929 222.461 44.5587 222.15C45.0244 221.839 45.8007 221.994 46.2665 222.306C46.7323 222.617 47.0428 222.928 47.3533 223.395C47.5085 223.55 47.6638 223.706 47.8191 223.861C47.9743 224.017 48.1296 224.328 48.2848 224.639C48.1296 224.172 47.9743 223.55 47.8191 223.083C47.8191 222.772 47.6638 222.461 47.6638 221.994C47.6638 221.528 48.2848 221.528 48.7506 221.683C49.5269 221.839 49.9926 222.461 50.4584 223.083C50.3032 222.306 50.3032 221.683 50.4584 221.061C50.7689 220.283 50.9242 219.505 51.2347 218.728C51.39 218.416 51.5452 217.95 51.8557 217.95C52.1662 217.95 52.4768 218.261 52.7873 218.572C53.253 219.039 53.253 220.128 53.0978 220.75C52.7873 221.994 52.632 224.484 52.9425 225.417C53.253 226.35 55.5819 228.995 55.5819 228.373C55.5819 227.75 55.5819 225.884 55.5819 225.884C55.5819 225.884 52.4768 223.55 52.3215 221.372C52.1662 219.505 53.4083 219.194 54.6504 220.128C55.8924 221.061 57.1345 223.395 58.3765 223.861C59.6186 224.484 61.3264 224.795 63.1895 226.039C63.9658 226.506 64.4315 227.284 65.5183 227.284C66.2946 227.128 68.4682 227.284 68.4682 227.284Z" fill="#F29E7E"/>
<path d="M62.8788 228.217C61.171 227.75 58.9974 227.906 57.2896 228.528C56.8238 228.684 56.0475 229.462 55.737 229.462C55.2712 229.617 54.9607 229.462 54.3397 229.462C53.7187 229.462 53.0976 229.617 52.6319 229.306C52.1661 228.995 51.8556 228.528 51.5451 228.217C50.9241 227.595 50.303 226.973 49.5267 226.506C49.061 226.195 48.2847 225.884 47.8189 226.195C47.1979 226.661 47.6637 227.284 47.9742 227.75C48.5952 228.684 49.3715 229.617 49.9925 230.551C50.1478 230.862 50.6135 230.551 50.4583 230.24C49.9925 229.462 49.3715 228.684 48.7505 227.75C48.5952 227.595 48.5952 227.439 48.4399 227.284C48.2847 226.973 47.9742 226.973 48.2847 226.661C48.5952 226.35 49.2162 226.817 49.5267 226.973C50.303 227.439 50.924 227.906 51.3898 228.684C51.8556 229.151 52.1661 229.773 52.9424 229.928C53.7187 230.084 54.6502 229.928 55.4265 229.928C56.0475 229.928 56.5133 229.773 57.1343 229.462C58.8421 228.684 60.7052 228.528 62.5683 228.995C63.6551 229.462 63.3446 228.373 62.8788 228.217Z" fill="#DC815C"/>
<path d="M50.4583 222.15C50.3031 221.839 49.8373 222.15 49.9926 222.461C50.9241 223.861 51.0794 226.817 51.7004 228.373C51.8556 228.684 52.3214 228.528 52.1662 228.061C51.7004 226.506 51.3899 223.55 50.4583 222.15Z" fill="#DC815C"/>
<path d="M48.5952 225.417C48.44 224.95 48.2847 224.484 47.9742 224.017C47.8189 223.706 47.3532 224.017 47.5084 224.328C47.6637 224.795 47.8189 225.262 47.9742 225.728C48.1294 225.884 48.5952 225.728 48.5952 225.417Z" fill="#DC815C"/>
<path d="M154.325 199.904C154.325 199.904 158.983 202.548 160.535 205.504C163.175 210.327 164.572 220.75 165.659 223.239C166.59 225.884 166.746 233.817 166.746 233.817L144.233 242.374C144.233 242.374 117.374 243.151 115.356 240.196C113.337 237.24 116.753 233.506 116.443 230.239C116.132 226.972 116.443 228.217 114.735 223.706C113.182 219.194 112.716 217.483 114.424 213.905C116.132 210.327 117.995 201.459 117.685 199.593C117.374 197.57 123.274 193.992 123.274 193.992C123.119 194.148 154.325 199.904 154.325 199.904Z" fill="#61B5AE"/>
<path d="M159.915 203.637C156.809 204.726 154.636 207.371 152.928 210.016C150.91 212.971 148.891 217.172 147.96 220.594C147.805 220.905 148.426 221.061 148.426 220.75C149.357 217.638 151.375 213.594 153.083 210.949C154.791 208.304 156.965 205.504 160.07 204.415C160.38 204.104 160.225 203.482 159.915 203.637Z" fill="#338A80"/>
<path d="M114.89 215.616C116.598 210.949 118.616 205.971 118.15 200.837C118.15 200.371 117.374 200.215 117.219 200.682C116.753 203.482 116.598 206.282 115.822 208.927C115.201 211.416 114.114 213.594 113.337 216.083C112.716 218.105 112.561 220.128 113.182 222.306C113.959 224.795 115.511 227.284 115.511 230.862C115.511 231.64 116.598 230.24 116.598 229.462C116.598 227.284 115.666 225.417 114.89 223.395C113.803 220.75 113.803 218.416 114.89 215.616Z" fill="white"/>
<path d="M115.822 238.951C114.58 240.507 118.15 241.285 118.15 241.285L122.653 237.707C122.653 237.707 117.064 237.395 115.822 238.951Z" fill="#103A35"/>
<path d="M114.269 248.596C114.269 248.596 117.374 240.663 117.685 238.018C117.685 238.018 121.256 237.084 129.795 238.018C138.334 238.951 143.302 241.44 144.234 242.374C145.165 243.307 141.594 252.175 141.594 252.175L114.269 248.596Z" fill="#F29E7E"/>
<path d="M150.289 235.373C149.978 234.751 149.512 234.128 149.202 233.506C148.736 232.417 148.736 231.328 148.736 230.239C148.891 226.972 148.27 224.016 146.718 221.216C146.407 220.594 145.32 221.061 145.631 221.683C147.183 224.794 147.339 227.594 147.339 231.017C147.339 232.106 147.494 233.195 148.115 234.284C148.891 235.684 149.668 236.773 149.512 238.484C149.512 239.106 150.444 239.262 150.599 238.64C151.22 237.395 150.91 236.306 150.289 235.373Z" fill="#338A80"/>
<path d="M125.603 245.329C125.603 245.64 126.224 245.64 126.224 245.329C126.224 244.863 126.224 244.551 126.224 244.085C126.224 243.929 125.913 243.774 125.758 243.929C124.982 244.396 124.826 245.485 125.292 246.263C125.447 246.574 125.913 246.263 125.758 245.952C125.603 245.64 125.603 245.174 125.758 244.863C125.603 245.018 125.603 245.174 125.603 245.329Z" fill="#DC815C"/>
<path d="M134.763 209.86C138.799 210.171 142.836 209.705 146.873 208.616C147.96 208.304 149.046 207.993 150.133 207.838C151.996 206.593 153.704 205.349 155.412 204.104C154.325 203.326 157.585 203.949 157.585 203.949C160.38 204.726 164.106 197.415 158.517 193.992C160.691 193.214 167.522 186.525 163.33 178.124C161.777 175.013 153.238 174.391 150.754 174.235C145.165 173.924 144.078 176.724 136.315 179.369C133.521 180.302 131.037 178.747 129.329 179.991C123.74 183.725 122.342 187.925 122.342 187.925C122.342 187.925 119.858 193.214 121.876 202.237C125.137 207.527 128.552 209.393 134.763 209.86Z" fill="#61B5AE"/>
<path d="M125.913 197.415C125.292 196.17 122.497 195.859 123.429 191.503C124.36 187.147 127.931 181.858 132.9 181.547C137.868 181.08 134.297 191.659 133.986 192.125C133.521 192.592 125.913 197.415 125.913 197.415Z" fill="#103A35"/>
<path d="M121.566 201.148C121.255 201.304 120.945 200.993 120.79 200.682C120.324 199.281 120.013 198.193 119.858 196.637L120.013 196.481C120.013 196.481 120.013 196.481 120.169 196.326C120.324 196.17 120.634 195.859 121.1 195.548C121.1 196.17 121.255 196.792 121.255 197.259C121.411 198.348 121.566 199.437 121.876 200.37C121.876 200.837 121.721 200.993 121.566 201.148Z" fill="#338A80"/>
<path d="M127.466 164.123H127.621C127.931 163.968 127.931 163.657 127.931 163.501C127.931 163.501 125.447 157.589 127.155 153.389C127.776 151.833 129.018 150.589 130.881 149.967C131.192 149.811 131.347 149.5 131.192 149.344C131.037 149.033 130.726 148.878 130.571 149.033C128.552 149.811 127.155 151.211 126.379 153.078C124.516 157.589 127 163.657 127.155 163.968C127.155 163.968 127.31 164.123 127.466 164.123Z" fill="#621406"/>
<path d="M149.667 190.57C149.667 190.57 161.933 185.28 162.398 180.147C162.864 175.013 149.978 175.168 149.978 175.168L146.252 182.636L149.667 190.57Z" fill="#103A35"/>
<path d="M127.155 164.59C127.155 164.59 125.447 155.878 128.863 152.3C132.434 148.722 139.576 149.033 141.283 151.989C143.146 154.945 142.681 154.322 145.165 155.256C147.494 156.189 149.978 156.656 150.443 159.767C150.909 162.723 149.667 164.59 149.667 164.59C149.667 164.59 154.325 170.501 153.859 173.146C153.238 175.946 151.065 176.724 151.375 177.658C153.549 177.502 159.448 185.436 153.704 190.414C149.667 193.837 139.42 196.17 139.42 196.17L127.155 164.59Z" fill="#621406"/>
<path d="M126.534 182.169C127.466 182.48 128.552 182.48 128.708 182.48C128.708 182.792 129.639 182.792 129.639 184.036C129.639 184.347 129.794 187.77 128.242 190.103C127.931 190.57 127.31 191.192 126.689 191.814C125.292 193.059 123.429 194.304 123.429 194.304C123.429 194.304 124.205 203.015 126.534 203.171C128.708 203.326 132.589 200.526 135.694 198.659C139.576 196.326 145.165 193.059 145.165 193.059C145.165 193.059 144.233 192.592 143.302 191.814C142.37 191.037 141.283 189.948 140.973 188.859C140.507 186.525 140.041 180.925 142.37 177.036C142.37 177.036 144.699 177.658 146.252 174.858C146.717 173.924 147.339 171.591 145.941 170.502C145.32 169.879 143.457 170.191 142.526 170.968C142.215 171.28 141.439 172.369 140.973 172.057C140.662 171.902 140.662 171.591 140.662 171.28C140.662 170.191 141.128 169.413 141.594 168.479C141.905 167.702 141.749 166.613 141.283 165.99C140.662 165.057 139.576 164.435 138.644 163.812C137.557 163.035 136.626 162.101 135.849 161.012C135.694 160.701 135.539 160.39 135.228 160.234C134.607 159.768 133.676 160.079 133.055 160.234C132.589 160.39 131.968 160.39 131.502 160.234C131.037 160.234 130.571 159.768 130.105 159.768C129.329 159.768 128.708 161.012 128.242 161.479C127.621 162.257 127 163.035 126.379 163.812C123.739 167.235 121.255 172.369 121.721 176.724C121.876 178.28 122.653 179.836 123.739 180.925C124.826 181.391 125.758 181.858 126.534 182.169Z" fill="#F29E7E"/>
<g opacity="0.6">
<g opacity="0.6">
<g opacity="0.7">
<g opacity="0.7">
<path opacity="0.7" d="M126.534 169.568C126.689 169.257 127 169.257 127.31 169.257C127.621 169.413 127.776 169.568 128.087 169.568C128.397 169.724 128.397 170.035 128.397 170.346C128.242 170.657 127.931 170.657 127.621 170.657C127.31 170.502 127.155 170.346 126.845 170.346C126.534 170.035 126.379 169.724 126.534 169.568Z" fill="#D25C48"/>
</g>
</g>
</g>
</g>
<path d="M136.005 163.968C136.471 164.435 136.471 164.279 136.936 164.901C137.402 165.524 137.868 166.146 138.334 166.768C138.799 167.235 138.023 168.013 137.557 167.39C137.092 166.768 136.626 166.146 136.16 165.524C135.694 164.901 135.85 165.057 135.229 164.59C134.763 164.123 135.539 163.346 136.005 163.968Z" fill="#621406"/>
<path d="M129.018 163.346C129.173 163.346 129.329 163.19 129.329 162.879C129.329 162.568 129.173 162.412 128.863 162.412C128.552 162.412 128.242 162.412 127.931 162.412C127.621 162.568 127.155 162.568 126.845 162.723C126.689 162.723 126.534 162.879 126.379 162.879C126.224 163.034 126.068 163.034 126.068 163.19C125.913 163.812 126.845 163.501 127.155 163.346C127.776 163.19 128.242 163.19 128.863 163.19C128.863 163.501 128.863 163.501 129.018 163.346Z" fill="#621406"/>
<path d="M133.521 180.613C132.279 181.08 131.037 181.702 129.639 181.858C128.242 182.013 126.689 181.702 125.292 181.08C124.982 180.924 124.671 181.391 124.982 181.547C127.776 183.102 130.881 182.48 133.521 180.924C134.142 180.924 133.831 180.458 133.521 180.613Z" fill="#DC815C"/>
<path d="M135.228 169.257C135.539 169.568 136.16 169.257 136.16 168.946C136.16 168.479 135.539 167.857 135.228 167.546C134.607 167.235 133.831 167.079 133.521 167.235C132.9 167.39 132.744 168.168 133.055 168.168C134.607 168.479 134.918 169.102 135.228 169.257Z" fill="#1A1A1A"/>
<path d="M124.671 166.301C124.516 165.679 125.447 165.368 125.913 165.212C126.379 165.057 126.845 165.212 127.31 165.368C127.466 165.368 127.466 165.524 127.621 165.679C127.621 165.99 127.621 166.146 127.466 166.301C127 166.613 126.689 166.301 126.224 166.146C125.292 166.146 124.826 166.613 124.671 166.301Z" fill="#1A1A1A"/>
<path d="M130.26 174.08C129.018 174.547 127.776 174.702 126.534 174.547C125.913 174.391 125.758 175.48 126.534 175.636C127.931 175.947 129.018 175.636 130.415 175.013C130.881 174.702 130.881 173.924 130.26 174.08Z" fill="#DC815C"/>
<path d="M156.654 186.836C155.412 187.458 149.823 190.57 148.425 191.347C141.905 194.77 134.142 199.592 134.142 199.592L134.297 200.37L154.48 193.214C153.704 191.97 157.275 188.236 156.654 186.836Z" fill="#61B5AE"/>
<path d="M155.412 201.304C155.567 201.304 155.722 201.148 155.878 201.148C156.033 200.992 156.033 200.526 155.722 200.37L149.357 196.014C149.202 195.859 148.736 195.859 148.581 196.17C148.425 196.481 148.425 196.792 148.736 196.948L155.101 201.304C155.101 201.304 155.257 201.304 155.412 201.304Z" fill="#338A80"/>
<path d="M137.402 202.548C137.557 202.548 137.557 202.548 137.713 202.393C137.868 202.393 146.873 197.259 153.704 194.925C154.014 194.77 154.17 194.459 154.17 193.992C154.014 193.681 153.704 193.525 153.238 193.525C146.252 195.859 137.091 200.993 136.936 201.148C136.626 201.304 136.47 201.77 136.626 202.082C136.936 202.393 137.091 202.548 137.402 202.548Z" fill="#338A80"/>
<path d="M128.087 233.195C128.087 233.039 128.087 232.884 128.087 232.728C128.087 232.262 128.087 231.795 128.087 231.484C128.242 230.084 128.397 228.839 128.708 227.439C129.173 224.95 129.484 222.461 129.484 219.972C129.484 217.483 129.173 214.994 128.708 212.505C128.242 209.86 127.466 207.215 128.087 204.415C128.242 204.104 127.621 203.948 127.466 204.259C126.844 206.749 127.31 209.238 127.776 211.727C128.397 214.371 128.708 217.172 128.708 219.972C128.708 222.772 128.397 225.417 127.776 228.217C127.466 229.461 127.31 230.706 127.31 231.95C127.31 232.728 127.155 233.195 126.844 233.973C126.689 234.284 126.534 234.906 126.534 235.217C126.689 235.684 127.31 235.528 127.621 235.528C127.931 235.528 128.087 235.373 128.397 235.217C128.397 235.217 128.397 235.217 128.552 235.217C128.708 235.062 128.552 235.062 128.552 234.906C128.397 234.595 128.397 234.44 128.242 234.128C128.242 233.662 128.087 233.351 128.087 233.195Z" fill="#338A80"/>
<path d="M124.516 202.548C123.584 204.26 123.74 206.282 123.895 208.149C124.05 210.482 124.205 212.66 123.895 214.838C123.584 217.016 122.653 219.038 122.187 221.216C121.876 222.772 121.876 224.172 122.032 225.728C121.721 226.195 121.721 226.817 121.721 227.439C121.721 227.906 121.876 228.217 122.498 228.217C122.808 228.217 123.119 228.217 123.429 228.061C123.584 228.061 123.74 227.906 123.74 227.75C123.74 227.595 123.74 227.439 123.74 227.439C123.584 226.972 123.429 226.506 123.119 226.039C122.653 225.261 122.808 224.328 122.808 223.55C122.808 222.617 122.963 221.683 123.119 220.75C123.584 218.572 124.361 216.705 124.671 214.527C124.982 212.505 124.826 210.638 124.671 208.615C124.516 206.593 124.361 204.571 125.137 202.704C125.137 202.548 124.671 202.393 124.516 202.548Z" fill="#338A80"/>
<path d="M114.424 248.752C114.424 248.752 137.868 248.441 146.407 253.73C154.946 259.019 132.744 267.731 132.744 267.731L114.424 248.752Z" fill="#353A3D"/>
<path d="M135.539 254.819L107.903 276.132L105.574 277.999L99.6747 276.754C99.6747 276.754 97.5011 275.821 94.2407 274.11C82.5964 268.042 55.8923 253.264 57.2896 243.774C58.8422 231.64 72.66 230.084 80.7334 234.284C88.8067 238.485 111.629 247.663 118.15 249.685C124.671 251.552 135.539 254.819 135.539 254.819Z" fill="#353A3D"/>
<path d="M102.625 262.597C101.693 261.197 100.451 260.108 99.3643 258.864C98.1222 257.464 97.0354 256.064 95.7934 254.663C93.9303 252.486 92.2225 250.308 90.3594 247.974C89.7384 245.641 88.1858 243.307 86.7885 241.285C85.2359 239.107 83.3729 237.24 81.1993 235.84C80.5782 235.373 79.9572 236.462 80.5782 236.773C82.7518 238.173 84.6149 240.196 86.0122 242.374C86.478 243.151 86.9438 243.774 87.2543 244.552C83.2176 240.196 78.7152 236.151 73.2812 233.351C72.6601 233.04 72.0391 233.973 72.6601 234.284C78.7152 237.551 83.5281 242.218 88.0306 247.196C90.3594 249.841 92.533 252.641 94.8619 255.286C97.0354 257.775 99.209 261.042 101.848 262.909C102.314 263.531 102.935 263.064 102.625 262.597Z" fill="#1A1A1A"/>
<path d="M120.945 250.774C118.461 249.841 115.821 248.907 113.337 247.818C112.561 247.507 112.25 248.596 112.871 248.907C115.356 249.996 117.84 251.085 120.324 252.019C121.255 252.33 121.566 251.085 120.945 250.774Z" fill="#1A1A1A"/>
<path d="M112.716 271.154L107.903 276.132L105.575 277.999L99.6748 276.754C99.6748 276.754 97.5012 275.821 94.2408 274.11C93.775 273.021 93.154 270.376 95.9486 268.042C99.5195 265.087 104.022 264.464 104.022 264.464L112.716 271.154Z" fill="#F29E7E"/>
<path d="M173.111 243.774C173.111 245.485 172.801 247.352 172.335 249.374C169.696 260.42 152.773 284.066 142.681 285.622C135.85 286.711 133.676 286.088 130.416 285.777C128.863 285.622 127 285.622 124.361 285.933L114.269 271.62L115.511 266.953C115.511 266.953 127.932 257.464 136.005 249.374C144.078 241.285 154.946 228.839 163.02 231.017C164.417 231.329 165.659 231.795 166.746 232.417C170.472 234.284 172.646 237.084 172.956 241.752C173.111 242.374 173.111 242.996 173.111 243.774Z" fill="#353A3D"/>
<path d="M173.111 243.774C173.111 245.485 172.801 247.352 172.335 249.374C169.696 260.42 152.773 284.066 142.681 285.622C135.85 286.711 133.676 286.088 130.416 285.777C126.69 284.221 121.721 282.355 124.671 277.065C124.982 276.443 125.137 276.599 125.758 276.288C135.694 270.376 141.284 267.731 149.202 263.842C152.928 261.975 158.362 259.331 161.622 256.842C164.883 254.197 172.18 249.374 173.111 243.774Z" fill="#272A2B"/>
<path d="M134.142 251.086C131.813 253.108 126.224 258.397 123.895 260.264C121.566 262.286 119.082 263.998 116.598 266.02C116.287 266.176 116.753 266.642 116.908 266.487C119.392 264.775 121.721 262.753 124.205 260.886C126.689 258.864 132.279 253.73 134.608 251.552C134.918 251.241 134.452 250.774 134.142 251.086Z" fill="#1A1A1A"/>
<path d="M115.821 286.088C115.977 286.088 116.132 286.244 116.287 286.399C116.442 286.555 116.442 286.71 116.598 286.866C116.908 287.488 117.684 287.644 118.306 287.799C118.927 287.955 119.703 287.955 120.169 288.422C120.79 288.888 120.945 289.822 121.721 290.133C122.032 290.288 122.342 290.288 122.653 290.288C123.274 290.444 123.584 291.222 124.205 291.377C124.671 291.533 125.292 291.377 125.913 291.533C126.379 291.689 126.689 291.844 127 292C127.31 292 127.621 292 127.931 292C128.397 292 128.863 291.844 129.484 291.844C129.795 291.844 130.105 291.844 130.416 291.689C131.192 291.377 131.502 290.133 131.347 289.355C131.192 288.422 130.726 287.644 130.416 286.71C129.795 284.844 129.95 282.977 129.95 280.954C129.95 280.021 129.795 279.243 129.484 278.465C129.174 277.688 128.708 276.91 127.931 276.443C127.776 276.287 127.466 276.287 127.155 276.287C126.845 276.287 126.379 276.132 126.068 276.132C122.342 277.376 118.927 278.776 115.2 280.021C114.424 280.332 113.648 280.488 112.872 280.799C111.94 281.266 111.008 281.732 110.232 282.355C109.922 282.51 109.145 282.977 109.145 283.288C109.145 283.599 109.922 283.91 110.077 284.066C112.095 284.844 113.958 285.621 115.821 286.088Z" fill="#EA9378"/>
<path d="M123.119 283.755C122.498 285.622 120.79 288.733 118.306 287.177C115.977 285.777 117.685 281.577 120.169 281.577C120.79 281.577 120.79 280.488 120.169 280.488C116.753 280.488 114.579 285.31 116.908 287.799C117.995 288.888 119.703 289.044 121.1 288.422C122.808 287.644 123.74 285.777 124.205 284.066C124.361 283.288 123.274 282.977 123.119 283.755Z" fill="#DC815C"/>
<path d="M129.484 290.288C128.863 288.888 127.621 288.11 126.068 288.422C125.913 288.422 125.758 288.577 125.603 288.577C125.292 288.422 125.447 288.422 125.292 288.266C125.137 287.955 125.137 287.799 124.982 287.488C124.516 287.021 124.05 286.866 123.429 287.177C122.808 287.488 122.963 288.422 123.739 288.266C124.361 288.11 124.361 289.199 124.516 289.511C124.671 289.822 124.982 289.977 125.292 289.977C125.758 290.133 126.224 289.822 126.689 289.666C127.776 289.51 128.242 290.288 128.708 291.066C128.863 291.533 129.795 290.911 129.484 290.288Z" fill="#DC815C"/>
<path d="M115.666 266.953C115.666 266.953 99.209 275.665 95.6381 276.598C94.396 276.909 92.9987 277.065 91.7567 277.065C88.341 277.221 84.9254 277.221 81.3545 277.376C80.1124 277.376 79.0256 277.532 77.7836 277.532C75.9205 277.687 73.9022 279.399 75.9205 280.954C76.5415 281.421 77.1625 281.732 77.4731 282.51C77.6283 282.821 77.6283 283.288 77.9388 283.599C78.2493 283.91 78.5599 284.066 78.8704 284.221C79.4914 284.843 79.3361 285.932 79.9572 286.555C80.4229 287.021 81.1992 286.866 81.665 287.332C81.9755 287.644 82.1308 288.266 82.4413 288.733C83.3728 289.977 86.0122 290.288 87.5647 290.133C89.1173 290.133 90.5146 289.822 92.0672 289.666C94.0855 289.51 102.469 287.955 103.711 287.332C105.109 286.71 106.196 285.31 107.438 284.532C108.524 283.754 109.766 283.288 110.853 282.51C111.474 282.043 121.255 277.998 124.982 276.287C124.671 276.443 114.269 273.798 115.666 266.953Z" fill="#F29E7E"/>
<path d="M108.99 269.909C105.419 271.776 102.004 273.487 98.4326 275.354C97.8116 275.665 98.2774 276.599 99.0536 276.288C102.625 274.732 106.195 272.865 109.766 270.998C110.387 270.532 109.766 269.443 108.99 269.909Z" fill="#DC815C"/>
<path d="M173.111 241.596L163.02 232.728L166.901 232.262C170.627 234.284 172.801 237.084 173.111 241.596Z" fill="#1A1A1A"/>
<path d="M165.193 223.706C164.727 225.262 164.106 226.506 162.864 227.595C162.243 228.062 161.622 228.684 161.467 229.462C161.312 230.24 161.777 230.862 162.088 231.484C162.243 231.795 162.243 231.951 162.398 232.107C163.019 232.884 164.572 232.418 165.193 233.195C165.504 233.507 165.504 234.129 165.969 234.284C166.28 234.596 166.901 234.44 167.367 234.596C167.988 234.907 168.453 235.84 169.074 235.84C169.385 235.84 169.696 235.529 170.006 235.373C170.472 235.218 170.938 235.218 171.248 235.373C172.335 235.529 173.422 235.373 174.198 234.751C175.285 234.129 175.906 233.04 176.527 231.951C177.303 230.24 177.769 228.528 178.235 226.662C178.39 225.884 179.166 224.017 178.079 223.55C177.924 223.395 176.993 223.55 177.148 223.239C177.303 222.461 177.614 221.372 176.372 221.217C175.751 221.217 174.974 221.528 174.664 221.995C174.508 222.15 174.353 222.928 174.043 222.772C173.732 222.772 173.732 222.306 173.732 222.15C173.577 221.684 173.111 221.684 172.645 221.684C171.714 221.995 171.093 222.928 170.472 223.706C169.851 224.639 169.074 225.573 168.143 226.506C167.988 226.662 167.832 226.817 167.522 226.973C166.901 227.128 166.901 226.506 166.901 226.039C167.056 225.262 167.211 224.639 167.367 224.017C167.522 223.395 167.832 222.306 166.901 221.995C165.969 221.839 165.504 222.928 165.193 223.706Z" fill="#F29E7E"/>
<path d="M282.878 132.232C282.567 133.01 282.257 133.633 282.101 133.944C281.325 135.188 280.238 136.588 278.686 137.211C277.288 137.677 276.357 137.988 275.27 138.766C273.873 139.855 272.32 140.633 270.923 141.722C268.439 143.433 265.955 145.145 263.626 147.167C259.744 150.434 255.552 155.101 256.484 160.701C257.105 164.59 261.608 170.035 265.955 167.391C268.439 165.835 269.681 162.257 270.302 159.457C271.078 155.879 271.699 152.301 273.562 149.034C275.581 145.922 278.686 143.589 281.17 140.789C283.654 137.988 285.672 134.255 284.896 130.677C284.741 130.21 284.43 129.588 283.964 129.743C283.964 129.432 283.343 130.988 282.878 132.232Z" fill="#333A74"/>
<path d="M283.188 127.099C281.791 125.076 280.238 123.676 277.91 123.054C277.444 120.72 276.357 118.076 274.649 115.587C274.028 114.809 273.407 114.031 272.786 113.253C270.923 111.386 268.749 109.519 265.799 108.275C264.092 107.341 262.073 106.719 259.744 106.097C259.123 105.941 258.658 105.786 258.037 105.786C257.881 105.786 257.881 105.786 257.726 105.786C254.31 105.164 251.05 105.319 247.79 106.097C245.306 106.719 242.977 107.497 240.493 108.43C237.077 109.831 234.127 111.697 231.177 113.72C229.004 115.275 226.52 117.453 223.725 117.765C221.551 118.076 221.086 118.076 221.086 118.076C221.086 118.076 212.391 113.564 210.839 113.875C209.752 114.186 211.304 119.787 212.081 122.587C212.391 123.521 212.546 124.143 212.546 124.143C212.546 124.143 212.391 124.298 212.391 124.454C211.615 125.387 209.597 127.876 209.286 128.499C208.976 129.277 208.82 132.232 216.117 134.877C221.707 136.899 228.538 136.588 231.332 136.277C232.109 136.277 232.575 136.121 232.575 136.121L240.958 136.433L244.374 136.588H244.529H244.685C247.169 139.233 249.653 137.833 251.361 136.433C251.982 135.966 252.447 135.344 252.603 135.032C252.758 134.877 252.758 134.721 252.758 134.721L254.155 135.032C266.576 135.966 276.202 134.566 277.754 128.654C277.909 128.188 277.91 127.721 278.065 127.099C279.773 128.343 280.704 130.365 279.617 132.388C278.531 134.41 276.202 135.499 274.183 136.277C274.028 136.277 273.873 136.433 273.718 136.433C272.476 136.899 271.233 137.366 269.991 137.677C268.439 138.144 266.886 138.611 265.489 139.233C264.402 139.7 263.315 140.166 262.229 140.788C261.608 141.255 260.831 141.722 260.21 142.189C258.658 143.433 257.416 144.833 256.174 146.389C256.018 146.544 256.018 146.7 255.863 146.856C255.087 148.1 254.31 149.5 253.845 150.9C252.913 153.545 252.913 156.345 253.845 159.145C254.776 161.79 257.105 164.124 260.21 163.19C262.229 162.568 263.315 160.857 264.092 158.99C264.402 158.056 264.713 157.123 265.023 156.345C265.178 155.723 265.334 155.101 265.644 154.634C265.955 153.701 266.265 152.923 266.576 152.145C266.731 151.834 266.731 151.678 266.886 151.367C267.197 150.745 267.507 150.123 267.818 149.656C267.973 149.5 267.973 149.345 268.128 149.034C268.749 147.945 269.681 147.011 270.612 146.078C271.389 145.3 272.32 144.678 273.097 144.055C273.252 144.055 273.252 143.9 273.407 143.9L273.562 143.744C274.649 143.122 275.736 142.344 276.667 141.722C278.686 140.477 280.704 138.922 282.101 137.055C285.207 134.566 285.517 130.521 283.188 127.099Z" fill="#FD863D"/>
<path d="M241.269 136.588L232.885 136.277C232.885 136.277 232.419 136.277 231.643 136.433C233.817 135.966 235.835 135.344 237.698 134.255C237.853 134.255 238.009 134.099 238.164 134.099C238.63 133.788 239.251 133.788 239.872 134.099C240.493 134.721 240.959 135.499 241.269 136.588C241.114 136.588 241.269 136.588 241.269 136.588Z" fill="#EEE3D8"/>
<path d="M226.054 127.566C226.209 126.477 226.675 125.543 227.451 124.765C227.762 124.454 228.227 124.143 228.693 123.987C229.159 123.832 229.625 123.987 230.09 123.832C230.712 123.832 231.488 123.521 231.954 123.054C232.419 122.587 232.885 121.965 233.506 121.654C234.282 121.343 235.059 121.498 235.835 121.81C236.456 122.276 237.077 122.899 237.388 123.521C237.853 124.299 238.164 125.076 238.319 125.854C238.319 126.632 238.164 127.254 238.009 127.877C237.853 128.499 237.543 129.277 237.077 129.743C236.456 130.521 235.369 131.144 234.438 131.455C232.264 132.233 227.141 133.166 226.364 130.055C226.209 129.432 225.899 128.499 226.054 127.566Z" fill="white"/>
<path d="M240.182 119.476C239.095 117.609 237.853 115.898 236.611 114.187C235.99 113.253 235.059 111.386 233.661 111.542C232.419 111.697 231.954 112.942 231.643 113.875C231.177 115.12 230.556 116.364 230.091 117.765C227.451 116.987 224.657 117.765 221.862 117.765C221.086 117.765 220.93 119.009 221.862 119.009C224.501 119.009 226.985 118.542 229.625 119.009C229.47 119.476 229.314 119.943 229.159 120.409C228.849 121.187 230.091 121.498 230.401 120.72C231.022 119.32 231.488 117.92 232.109 116.52C232.419 115.742 232.73 114.964 233.04 114.187C233.196 113.875 233.351 113.564 233.506 113.409C234.282 113.409 234.748 113.72 235.059 114.342C236.922 116.364 238.319 119.009 239.716 121.343C240.959 123.521 244.064 127.876 242.045 130.366C240.337 132.388 237.543 133.944 235.059 135.033C234.282 135.344 234.904 136.588 235.835 136.277C237.543 135.499 239.251 134.566 240.803 133.477C242.045 132.543 243.753 131.299 244.064 129.743C244.685 126.165 241.89 122.12 240.182 119.476Z" fill="#C05A2C"/>
<path d="M228.072 131.454C228.227 131.143 228.227 130.832 227.762 130.677C227.451 130.521 226.985 130.521 226.52 130.521C225.588 130.521 224.812 130.677 224.036 130.832C223.259 130.988 222.638 130.988 221.862 131.143C221.551 131.143 221.241 131.299 220.93 131.454C220.93 131.454 220.775 131.454 220.775 131.61V131.766C220.93 132.232 221.241 132.543 221.396 132.855C221.707 133.166 222.017 133.477 222.328 133.788C222.949 134.255 223.725 134.721 224.346 134.721C224.501 134.721 224.657 134.721 224.657 134.566C225.588 134.099 226.364 133.321 226.985 132.543C227.296 132.388 227.917 131.921 228.072 131.454Z" fill="#1A1A1A"/>
<path d="M234.282 128.188C233.972 128.032 233.661 128.032 233.196 128.032C232.109 127.721 230.712 127.876 229.625 128.499C229.625 128.499 229.47 128.499 229.47 128.654C229.159 128.81 229.004 128.965 228.848 129.277C228.538 130.054 229.625 130.366 230.091 129.743C230.091 129.743 230.712 129.588 230.867 129.588C231.333 129.432 231.798 129.432 232.109 129.432C232.73 129.432 233.506 129.432 234.127 129.277C234.904 129.277 234.903 128.499 234.282 128.188Z" fill="#C05A2C"/>
<path d="M220.62 129.121C220.154 127.41 217.825 127.254 216.583 127.254C215.651 127.254 215.651 128.499 216.583 128.654C217.204 128.654 217.825 128.654 218.446 128.966C219.067 129.121 219.378 129.588 219.688 129.899C220.154 130.21 220.62 129.588 220.62 129.121Z" fill="#C05A2C"/>
<path d="M216.273 120.876C215.031 122.12 213.789 123.209 212.547 124.61C212.702 124.454 212.702 124.298 212.702 124.298C212.702 124.298 212.547 123.676 212.236 122.743C213.168 121.809 214.099 120.876 215.186 119.943C215.962 119.32 216.894 120.254 216.273 120.876Z" fill="#C05A2C"/>
<path d="M249.032 131.299C247.479 131.61 245.927 132.232 244.84 133.321C244.219 134.566 244.529 135.81 244.995 137.055C247.479 139.544 249.963 138.144 251.516 136.899C251.671 136.744 251.671 136.744 251.826 136.588C251.361 134.41 250.74 132.699 249.032 131.299Z" fill="white"/>
<path d="M257.726 124.454C256.795 123.832 255.553 123.832 254.466 123.832C253.068 123.832 251.671 123.832 250.274 124.143C249.342 124.298 249.498 125.854 250.429 126.009C250.429 126.165 250.429 126.165 250.584 126.321C250.895 126.787 251.205 127.098 251.516 127.565C251.516 127.565 251.516 127.721 251.671 127.721C251.826 128.032 251.826 128.343 251.982 128.499C251.982 128.81 251.982 129.276 251.982 129.743C251.826 130.832 252.913 131.454 253.689 130.832C255.242 129.588 256.95 128.187 258.037 126.476C258.037 126.476 258.037 126.321 258.192 126.321C258.192 125.698 258.347 124.921 257.726 124.454Z" fill="white"/>
<path d="M265.955 120.409C263.626 121.031 261.452 122.276 259.434 123.832C257.105 125.543 255.242 127.721 252.913 129.276C252.758 129.432 252.603 129.432 252.447 129.588C252.913 126.321 247.634 122.276 246.237 119.942C245.771 119.165 244.685 119.787 245.15 120.565C246.082 122.12 247.169 123.365 248.411 124.765C249.963 126.321 252.137 128.654 250.119 130.677C249.808 130.832 249.342 130.832 249.032 130.988C247.945 131.143 246.703 131.143 245.616 131.61C243.908 132.388 243.132 134.099 243.443 135.966C243.598 136.744 244.84 136.588 244.84 135.81C244.529 132.388 248.1 132.855 250.429 132.232C250.584 132.232 250.74 132.232 250.74 132.077C252.447 131.61 253.845 130.521 255.242 129.432C257.105 127.876 258.658 126.165 260.676 124.765C262.539 123.52 264.402 122.587 266.421 121.654C267.042 121.187 266.576 120.098 265.955 120.409Z" fill="#C05A2C"/>
<path d="M300.111 67.0495C299.956 64.2493 299.024 63.0047 297.937 61.4491C297.006 60.049 296.074 58.4933 295.143 55.5375C296.695 55.382 296.695 53.204 295.143 53.204C294.832 53.204 294.677 53.204 294.367 53.204C293.125 46.359 294.211 43.0921 290.64 42.6254C290.64 30.6467 290.64 37.4917 290.64 25.513C290.64 24.5796 290.64 23.6462 290.64 22.8684C290.64 22.5572 290.485 22.2461 290.175 22.2461C289.864 22.2461 289.398 22.4017 289.398 22.8684C289.398 23.8018 289.398 24.7352 289.398 25.513C289.398 37.4917 289.398 30.6467 289.398 42.6254C284.741 42.781 285.983 45.8923 284.741 53.3596C284.585 53.3596 284.43 53.3596 284.275 53.3596C283.499 53.3596 282.878 54.1374 283.033 54.9152C283.188 55.6931 283.809 55.6931 284.43 55.6931C283.654 58.0266 282.567 59.5823 281.636 60.9824C280.238 62.8492 279.151 64.5604 279.307 67.6718C279.617 74.6723 286.138 76.5391 289.398 76.6947C289.398 76.6947 289.398 76.6947 289.554 76.6947H289.709C291.106 76.6947 295.453 76.0724 297.937 73.2722C299.801 71.4054 300.422 69.383 300.111 67.0495ZM288.467 55.8487L291.261 55.6931C290.485 58.4933 292.503 61.1379 292.193 64.0937C292.038 64.2493 291.727 63.627 291.572 63.1603C291.727 62.6936 291.727 62.2269 291.727 61.9158C291.727 61.6046 291.261 61.6046 291.261 61.9158C291.106 62.3825 291.106 62.8492 291.106 63.3159C291.106 63.4715 290.951 63.4715 290.951 63.627C290.951 63.7826 290.796 63.7826 290.485 63.627C290.33 63.627 290.33 63.627 290.33 63.627C290.485 63.0048 290.485 62.3825 290.175 62.0713C290.019 61.9158 289.864 61.9158 289.709 62.0713C289.554 62.5381 289.398 63.1603 289.554 63.7826C289.398 64.0937 289.088 64.716 288.622 64.0937V63.9382C288.933 63.3159 288.933 62.538 288.777 61.9158C288.777 61.7602 288.467 61.6046 288.312 61.9158C288.001 62.538 287.846 63.1603 288.001 63.7826C287.691 63.7826 287.535 63.7826 287.225 63.627C287.225 63.627 287.225 63.1603 287.069 63.0047C287.225 61.7602 287.535 60.6712 287.846 59.4267C288.467 58.3377 288.467 57.2488 288.467 55.8487ZM297.472 72.0277C295.298 74.5167 291.261 75.139 290.019 75.139H289.864H289.709C289.398 75.139 287.069 74.9834 284.741 73.7389C282.257 72.3388 281.014 70.1608 280.859 67.3606C280.704 64.716 281.636 63.3159 283.033 61.4491C283.964 60.049 285.206 58.4933 285.983 55.8487H288.001C288.001 56.4709 288.156 57.0932 288.001 57.7155C287.846 58.4933 287.691 59.2711 287.38 59.8934C286.914 61.2935 286.604 62.538 286.604 63.9382C286.604 64.0937 286.759 64.2493 286.914 64.2493C287.07 64.716 287.38 64.8716 288.001 64.5604C288.156 64.5604 288.156 64.4049 288.156 64.4049C288.312 64.716 288.622 65.0271 288.933 65.0271C289.243 65.0271 289.554 64.716 289.709 64.2493C289.864 64.4049 290.019 64.4049 290.175 64.4049C290.64 64.4049 290.951 64.2493 291.106 63.9382C291.106 64.0937 291.261 64.0937 291.261 64.2493C291.572 64.5604 292.038 64.716 292.348 64.5604C292.503 64.5604 292.503 64.5604 292.503 64.4049C293.125 61.4491 290.796 58.6489 291.572 55.6931H293.901C294.832 58.96 295.919 60.6712 296.851 62.0713C297.782 63.4715 298.558 64.716 298.714 67.2051C299.18 69.0719 298.559 70.7831 297.472 72.0277Z" fill="#EEC7D4"/>
<path d="M332.094 111.853C331.939 109.053 331.007 107.808 329.92 106.253C328.989 104.853 328.057 103.297 327.126 100.341C328.678 100.185 328.678 98.0075 327.126 98.0075C326.815 98.0075 326.66 98.0075 326.35 98.0075C325.108 91.1626 326.194 87.8957 322.623 87.429C322.623 75.4503 322.623 63.316 322.623 51.3373C322.623 45.2702 322.623 47.4481 322.779 34.0693C322.779 33.7582 322.468 33.4471 322.158 33.2915C321.692 33.2915 321.381 33.6026 321.381 34.0693C321.381 47.6037 321.537 45.2702 321.537 51.3373C321.537 63.316 321.537 75.2947 321.537 87.429C317.034 87.5845 318.121 90.6959 316.879 97.852C316.724 98.0075 316.724 98.0075 316.568 98.1631H316.413C315.637 98.1631 315.016 98.9409 315.171 99.7188C315.326 100.497 315.947 100.497 316.568 100.497C315.792 102.83 314.705 104.386 313.774 105.786C312.376 107.653 311.29 109.364 311.445 112.475C311.755 119.476 318.276 121.343 321.537 121.498C321.537 121.498 321.537 121.498 321.692 121.498H321.847C323.244 121.498 327.592 120.876 330.076 118.076C331.628 116.209 332.249 114.187 332.094 111.853ZM320.295 100.652L323.089 100.497C322.313 103.297 324.331 105.941 324.021 108.742C323.865 108.897 323.555 108.275 323.4 107.808C323.555 107.342 323.555 106.875 323.555 106.719C323.555 106.408 323.089 106.408 323.089 106.719C322.934 107.186 322.934 107.653 322.934 108.119C322.934 108.275 322.934 108.275 322.779 108.431C322.779 108.586 322.623 108.586 322.313 108.431C322.158 108.431 322.158 108.431 322.158 108.431C322.313 107.808 322.313 107.186 322.002 106.875C321.847 106.719 321.692 106.719 321.537 106.875C321.381 107.342 321.226 107.964 321.381 108.586C321.226 108.897 320.916 109.52 320.45 108.897V108.742C320.76 108.119 320.76 107.342 320.605 106.875C320.605 106.719 320.295 106.564 320.139 106.875C319.829 107.497 319.674 108.119 319.829 108.742C319.518 108.742 319.363 108.742 319.053 108.586C319.053 108.586 319.052 108.119 318.897 107.964C319.052 106.719 319.363 105.63 319.674 104.386C320.45 103.297 320.45 102.052 320.295 100.652ZM329.299 116.987C327.126 119.476 323.089 120.098 321.847 120.098H321.692H321.537C321.226 120.098 318.897 119.943 316.568 118.698C314.084 117.298 312.842 115.12 312.687 112.32C312.532 109.675 313.463 108.275 314.861 106.408C315.792 105.008 317.034 103.452 317.81 100.808H319.829C319.829 101.43 319.984 102.052 319.829 102.83C319.674 103.608 319.518 104.23 319.208 105.008C318.742 106.253 318.431 107.653 318.587 109.053C318.587 109.208 318.742 109.364 318.897 109.208C319.052 109.675 319.363 109.831 319.984 109.52C320.139 109.52 320.139 109.364 320.139 109.364C320.295 109.675 320.605 109.986 320.916 109.986C321.226 109.986 321.537 109.675 321.692 109.364C321.847 109.52 322.002 109.52 322.158 109.52C322.623 109.52 322.779 109.364 323.089 109.053C323.089 109.208 323.244 109.208 323.244 109.364C323.555 109.675 324.021 109.831 324.331 109.675C324.486 109.675 324.486 109.675 324.486 109.52C325.108 106.564 322.779 103.919 323.555 100.963L326.039 100.808C326.971 104.075 328.057 105.786 328.989 107.186C329.92 108.586 330.697 109.831 330.852 112.32C331.007 114.031 330.542 115.587 329.299 116.987Z" fill="#EEC7D4"/>
</g>
<defs>
<clipPath id="clip0">
<rect width="381" height="292" fill="white"/>
</clipPath>
</defs>
</svg>
