<svg width="603" height="357" viewBox="0 0 603 357" fill="none" xmlns="http://www.w3.org/2000/svg">
<g clip-path="url(#clip0)">
<path d="M561.953 162.178C560.964 155.405 559.646 148.726 557.998 142.047C555.221 130.759 551.455 119.611 545.712 109.499C536.722 93.6947 523.118 80.901 508.149 70.5532C480.846 51.6449 455.427 48.7757 423.324 48.6816C391.126 48.5875 357.705 50.516 327.249 38.0986C307.007 29.8674 289.496 15.7097 269.02 7.99584C224.018 -8.93696 168.096 11.6646 144.889 53.7615C132.462 76.2445 128.273 103.948 109.82 121.822C95.6514 135.509 75.2219 141.154 61.1001 154.888C42.7889 172.62 39.3996 199.478 40.7648 223.748C42.2711 249.853 57.2872 269.702 67.8786 292.796C79.5055 318.195 106.384 336.21 134.345 342.231C150.868 345.805 167.908 345.993 184.807 346.135C243.553 346.746 302.3 347.31 361.047 347.922C390.185 348.204 419.464 348.486 448.178 343.595C476.892 338.703 505.277 328.214 527.354 309.306C548.443 291.244 555.739 260.107 560.634 233.437C564.918 209.92 565.389 185.743 561.953 162.178Z" fill="#FFE7D7"/>
<path d="M569.955 156.769C569.202 153.571 564.306 154.935 565.012 158.133C565.765 161.567 566.283 165.048 566.566 168.575C566.848 171.68 571.508 171.774 571.461 168.575C571.461 164.577 570.896 160.673 569.955 156.769Z" fill="#FFE7D7"/>
<path d="M566.048 146.61C562.894 146.61 562.894 151.501 566.048 151.501C569.202 151.501 569.202 146.61 566.048 146.61Z" fill="#FFE7D7"/>
<path d="M131.615 49.8105C121.918 63.1686 118.105 79.49 111.138 94.2121C107.749 101.409 103.512 108.276 97.6284 113.732C91.8384 119.047 84.7776 122.763 78.0933 126.902C70.7499 131.417 63.689 136.638 59.4525 144.352C58.2286 146.563 61.6178 148.585 62.8888 146.328C70.8441 132.499 87.8844 127.843 99.5584 117.965C111.986 107.429 117.399 91.6252 123.095 76.9501C126.437 68.2955 130.061 59.688 135.428 52.0682C136.981 49.6694 133.215 47.5528 131.615 49.8105Z" fill="#FFE7D7"/>
<path opacity="0.5" d="M479.011 83.1587C473.786 83.2998 468.608 83.3939 463.383 83.535C463.43 83.3939 463.43 83.2998 463.43 83.1116C463.335 81.1832 463.241 79.2077 463.194 77.2792C463.147 75.1626 462.441 71.9642 465.312 71.635C469.267 71.1646 473.268 71.635 477.081 72.8109C478.634 73.2812 479.293 70.8824 477.74 70.365C475.104 69.5184 472.42 68.9539 469.69 68.8128C467.478 68.7188 464.606 68.5306 462.535 69.4713C460.746 70.2709 460.464 71.9172 460.417 73.6575C460.323 76.8089 460.417 79.9603 460.605 83.0646C460.605 83.2528 460.652 83.3939 460.699 83.535C455.474 83.6761 450.202 83.8172 444.977 83.9583C443.471 84.0053 443.471 86.3101 444.977 86.263C446.201 86.263 447.472 86.216 448.696 86.216C448.743 88.897 448.649 91.6251 449.119 94.212C449.355 95.529 451.191 95.0587 451.285 93.9298C451.567 91.3899 451.285 88.7559 451.144 86.169C460.417 86.0749 469.69 85.9338 478.964 85.7927C480.799 85.8867 480.799 83.1587 479.011 83.1587Z" fill="#FCD6BE"/>
<path opacity="0.5" d="M198.929 60.5346C193.233 60.3935 187.584 60.3465 181.888 60.3465C181.7 57.007 181.512 53.6674 181.418 50.2809C184.524 50.5631 187.678 50.9394 190.832 51.3627C192.244 51.5508 192.574 49.152 191.162 48.8698C181.841 47.1765 172.191 46.8003 162.777 47.0825C161.318 47.1295 161.271 49.3872 162.777 49.3872C168.237 49.2931 173.651 49.5754 179.017 50.0457C178.97 53.4793 179.017 56.9129 179.346 60.2995C170.92 60.2995 162.447 60.2995 154.021 60.2995C152.421 60.2995 152.421 62.7923 154.021 62.7923C156.987 62.8394 160 62.8394 162.965 62.8864C162.73 64.8619 162.777 66.7904 163.106 68.7659C163.389 70.318 165.648 69.6125 165.413 68.1074C165.131 66.3671 165.131 64.6267 165.319 62.8864C176.522 63.0275 187.678 63.1686 198.882 63.0746C200.576 63.1216 200.576 60.5817 198.929 60.5346Z" fill="#FCD6BE"/>
<path opacity="0.5" d="M321.506 228.734C311.903 228.969 302.347 229.063 292.744 228.828C293.215 225.3 292.886 221.584 292.509 218.104C292.321 216.505 289.779 216.458 289.967 218.104C290.344 221.678 290.25 225.206 290.438 228.781C287.284 228.687 284.13 228.546 280.976 228.405C279.423 228.31 279.423 230.709 280.976 230.85C289.92 231.415 298.864 231.744 307.808 231.697C307.808 231.744 307.808 231.791 307.808 231.838C307.808 233.484 307.808 235.178 307.808 236.824C307.808 238.47 310.35 238.47 310.35 236.824C310.35 235.178 310.35 233.484 310.35 231.838C310.35 231.791 310.35 231.744 310.35 231.697C314.115 231.65 317.834 231.556 321.6 231.321C323.153 231.227 323.153 228.687 321.506 228.734Z" fill="#FCD6BE"/>
<path d="M394.845 46.377C392.868 46.377 390.891 46.377 388.961 46.3299C389.62 93.8358 390.42 173.232 388.443 174.22C385.619 175.631 233.103 177.512 231.691 174.22C230.373 171.209 229.902 23.988 229.808 0.140991C227.737 0.235062 225.713 0.376169 223.642 0.564311C223.312 16.8386 220.205 176.289 225.572 180.287C231.22 184.52 390.797 182.639 394.562 179.347C397.198 177.089 395.833 94.7295 394.845 46.377Z" fill="#FCD6BE"/>
<path d="M384.489 46.1888C383.547 46.1417 382.606 46.0947 381.712 46.0477C382.182 91.1077 382.841 167.588 381.806 168.622C380.394 170.033 240.117 171.445 238.234 167.682C236.54 164.342 236.398 30.0556 236.351 0.046875C235.692 0.046875 235.08 0.046875 234.421 0.046875C234.186 21.6362 232.821 168.763 236.351 170.504C240.117 172.385 381.335 172.856 383.689 170.504C385.336 168.811 384.912 91.5311 384.489 46.1888Z" fill="#FCD6BE"/>
<path d="M317.457 68.4836C317.175 65.003 316.045 63.3097 314.774 61.3342C313.645 59.5939 312.374 57.6184 311.291 53.8555H311.338C313.268 53.7144 313.268 50.9393 311.338 50.8452C311.009 50.8452 310.726 50.7982 310.397 50.7982C308.89 42.0496 310.114 37.9575 305.595 37.299C305.642 33.1599 305.642 29.0207 305.642 24.8816C305.642 24.5994 305.501 24.3642 305.266 24.2231C304.748 23.8939 304.089 24.2702 304.089 24.8816C304.089 28.9737 304.089 33.1128 304.136 37.2049C304.136 37.2049 304.136 37.2049 304.089 37.2049C298.252 37.3931 299.805 41.4381 298.205 50.8452C298.017 50.8452 297.828 50.8923 297.64 50.8923C296.651 50.9864 295.898 51.833 296.039 52.7737C296.181 53.7614 297.028 53.7144 297.828 53.8085C296.746 56.8658 295.38 58.7943 294.204 60.5346C292.509 62.9334 291.05 65.05 291.238 68.9539C291.662 77.7966 299.852 80.2895 304.136 80.3365C304.136 80.3365 304.183 80.3365 304.324 80.3365H304.371C304.418 80.3365 304.465 80.3365 304.56 80.3365C306.395 80.2895 311.903 79.4429 315.151 75.9152C316.893 73.8927 317.693 71.3998 317.457 68.4836ZM302.441 54.2318L306.019 54.1377C305.124 57.7595 307.619 61.146 307.29 64.7678C307.007 65.05 306.631 64.1093 306.442 63.6389C306.537 63.0745 306.584 62.5101 306.537 62.1338C306.537 61.7105 305.972 61.6634 305.878 62.0397C305.689 62.6041 305.595 63.2156 305.736 63.8271C305.689 63.9682 305.642 64.0622 305.548 64.1563C305.501 64.4385 305.313 64.4385 304.983 64.2504C304.889 64.2974 304.795 64.2974 304.701 64.2974C304.936 63.4978 304.936 62.6512 304.56 62.2749C304.418 62.1338 304.136 62.1338 304.042 62.3219C303.806 62.8393 303.665 63.78 303.901 64.4856C303.712 64.9559 303.336 65.6614 302.771 64.8618C302.724 64.8148 302.724 64.7678 302.677 64.6737C303.053 63.8741 303.1 62.8393 302.959 62.1338C302.912 61.8516 302.488 61.8045 302.347 62.0397C301.971 62.7923 301.829 63.6389 301.971 64.4856C301.971 64.5326 301.971 64.5326 301.924 64.5796C301.594 64.5326 301.265 64.4856 300.982 64.4385C301.029 64.4856 300.888 63.8741 300.888 63.6389C301.029 62.0397 301.406 60.6286 301.971 59.0765C302.488 57.4773 302.583 55.9251 302.441 54.2318ZM313.927 74.8804C311.103 78.0318 306.019 78.7844 304.465 78.8314H304.277C304.23 78.8314 304.23 78.8314 304.183 78.8314H304.089C303.759 78.8314 300.653 78.7373 297.734 77.0911C294.58 75.3508 292.886 72.6227 292.744 68.9069C292.603 65.5203 293.78 63.8271 295.428 61.4283C296.698 59.6409 298.111 57.5713 299.24 54.3729L301.782 54.2788C301.829 55.0784 301.876 55.8781 301.782 56.6777C301.688 57.6654 301.312 58.5591 300.982 59.4998C300.37 61.1931 299.899 62.9334 300.088 64.7207C300.088 64.9559 300.323 65.097 300.511 65.003C300.747 65.5203 301.123 65.8496 301.876 65.4733C301.971 65.4263 302.065 65.3322 302.159 65.2852C302.347 65.7085 302.724 66.0848 303.242 66.0377C303.665 65.9907 304.042 65.6144 304.324 65.1441C304.465 65.2381 304.654 65.3322 304.889 65.3322C305.407 65.3792 305.783 65.097 306.066 64.6737C306.113 64.7678 306.207 64.9089 306.301 65.003C306.631 65.4263 307.337 65.6614 307.713 65.3322C307.808 65.2852 307.902 65.2381 307.949 65.097C308.702 61.3342 305.736 57.8535 306.678 54.0907L309.738 53.9966C310.867 58.1828 312.327 60.3935 313.456 62.1808C314.68 64.0622 315.622 65.5203 315.904 68.6247C316.092 71.1176 315.433 73.1871 313.927 74.8804Z" fill="#FCD6BE"/>
<path d="M362.789 140.025C362.506 136.544 361.376 134.851 360.105 132.875C358.976 131.135 357.705 129.16 356.622 125.397H356.669C358.599 125.256 358.599 122.48 356.669 122.386C356.34 122.386 356.057 122.339 355.728 122.339C354.221 113.591 355.445 109.499 350.926 108.84C351.02 93.5536 350.973 64.1564 350.973 48.8698C350.973 47.2706 350.973 45.2951 350.973 42.9903C350.973 42.6141 350.691 42.2848 350.361 42.2378C349.891 42.1437 349.42 42.52 349.467 42.9903C349.467 45.2951 349.467 47.2706 349.467 48.8698C349.467 64.1564 349.42 93.5065 349.514 108.746C349.514 108.746 349.514 108.746 349.467 108.746C343.677 108.934 345.136 112.885 343.63 122.057C343.489 122.198 343.395 122.292 343.253 122.433C343.159 122.433 343.065 122.433 342.971 122.433C341.982 122.527 341.276 123.374 341.37 124.315C341.512 125.303 342.359 125.256 343.159 125.35C342.077 128.407 340.711 130.335 339.535 132.076C337.84 134.475 336.381 136.591 336.569 140.495C336.993 149.338 345.183 151.831 349.467 151.878C349.467 151.878 349.514 151.878 349.655 151.878H349.702C349.749 151.878 349.796 151.878 349.891 151.878C351.726 151.831 357.234 150.984 360.482 147.456C362.224 145.434 363.024 142.941 362.789 140.025ZM347.819 125.773L351.35 125.679C350.361 129.254 352.856 132.593 352.527 136.215C352.244 136.497 351.868 135.556 351.679 135.086C351.774 134.522 351.821 134.004 351.774 133.628C351.774 133.252 351.256 133.205 351.115 133.534C350.926 134.098 350.879 134.71 350.973 135.274C350.926 135.415 350.879 135.509 350.785 135.603C350.738 135.839 350.55 135.886 350.267 135.697C350.173 135.744 350.079 135.744 350.032 135.744C350.267 134.945 350.267 134.145 349.891 133.769C349.749 133.628 349.467 133.628 349.373 133.816C349.137 134.333 348.996 135.227 349.232 135.933C349.043 136.403 348.714 137.061 348.149 136.309C348.102 136.262 348.102 136.215 348.055 136.121C348.431 135.368 348.478 134.333 348.337 133.675C348.29 133.393 347.867 133.346 347.725 133.581C347.349 134.333 347.207 135.133 347.349 135.98L347.302 136.074C346.972 136.027 346.69 135.98 346.36 135.933C346.407 135.98 346.313 135.368 346.266 135.133C346.407 133.581 346.784 132.217 347.302 130.665C347.866 129.018 347.961 127.466 347.819 125.773ZM359.258 146.375C356.434 149.526 351.35 150.278 349.796 150.326H349.608C349.561 150.326 349.561 150.326 349.514 150.326H349.42C349.09 150.326 345.984 150.231 343.065 148.585C339.911 146.845 338.217 144.117 338.075 140.401C337.934 137.014 339.111 135.321 340.759 132.922C342.029 131.135 343.442 129.065 344.571 125.867L347.16 125.773C347.207 126.62 347.302 127.419 347.207 128.266C347.113 129.207 346.784 130.1 346.454 130.994C345.842 132.64 345.419 134.333 345.56 136.074C345.56 136.309 345.795 136.403 345.984 136.356C346.219 136.873 346.596 137.203 347.302 136.826C347.396 136.779 347.49 136.732 347.584 136.638C347.772 137.061 348.102 137.438 348.62 137.391C349.043 137.344 349.373 137.014 349.655 136.497C349.796 136.591 349.985 136.685 350.22 136.685C350.738 136.732 351.115 136.45 351.35 136.027C351.397 136.121 351.491 136.262 351.585 136.356C351.915 136.732 352.574 136.967 352.95 136.685C353.044 136.638 353.139 136.591 353.186 136.45C353.939 132.734 350.973 129.348 351.962 125.632C351.962 125.585 351.962 125.585 351.962 125.585L355.069 125.491C356.198 129.677 357.658 131.888 358.787 133.675C360.011 135.556 360.953 137.014 361.235 140.119C361.423 142.612 360.764 144.728 359.258 146.375Z" fill="#FCD6BE"/>
<path d="M21.9357 218.151C21.9357 218.151 20.9942 179.111 24.2422 176.807C27.4902 174.502 36.3399 174.031 40.0586 174.031C43.7773 174.031 144.23 170.316 146.537 174.031C148.843 177.747 152.044 252.016 152.044 252.016L84.2127 260.906L21.9357 218.151Z" fill="#FF9797"/>
<path opacity="0.5" d="M40.953 205.075L39.023 194.915C38.411 191.576 37.752 188.283 37.1401 184.944C36.7635 182.921 35.0689 178.265 37.6108 176.948C38.0815 176.712 37.6579 176.007 37.1872 176.242C35.116 177.23 35.3043 179.864 35.6338 181.792C36.2928 185.508 37.0459 189.177 37.752 192.893C38.4581 196.608 39.1642 200.277 39.8703 203.993C40.5764 207.756 41.1413 211.566 42.0356 215.282C42.1769 215.846 42.93 215.611 42.8829 215.046C42.3651 211.707 41.5649 208.367 40.953 205.075Z" fill="#E86F64"/>
<path d="M4.70719 348.251C4.0011 354.178 49.332 352.437 121.447 352.437C193.562 352.437 252.544 353.049 252.544 344.959C252.544 336.163 202.836 339.409 130.721 339.409C58.6053 339.409 5.64864 340.349 4.70719 348.251Z" fill="#766782"/>
<path d="M235.363 310.152C235.363 310.152 234.421 342.701 232.115 343.595C229.808 344.535 225.148 343.595 224.677 343.124C224.207 342.654 220.959 311.987 220.959 311.987L235.363 310.152Z" fill="#92503D"/>
<path d="M256.64 286.07C254.804 300.557 252.733 311.705 252.074 312.034C250.191 312.975 214.416 313.445 214.416 313.445V217.68C214.416 217.68 247.319 216.458 254.851 219.092C262.712 221.773 260.029 259.542 256.64 286.07Z" fill="#FF9797"/>
<path d="M150.256 307.848C150.256 307.848 149.314 340.396 147.008 341.29C144.701 342.231 140.041 341.29 139.57 340.82C139.099 340.349 135.851 309.682 135.851 309.682L150.256 307.848Z" fill="#92503D"/>
<path d="M34.4571 311.987C34.4571 311.987 33.5156 344.535 31.2091 345.429C28.9025 346.37 24.2423 345.429 23.7716 344.959C23.3009 344.488 20.0529 313.821 20.0529 313.821L34.4571 311.987Z" fill="#A9644C"/>
<path d="M113.068 319.889C113.068 319.889 112.127 352.437 109.82 353.331C107.514 354.272 102.854 353.331 102.383 352.861C101.912 352.39 98.6641 321.723 98.6641 321.723L113.068 319.889Z" fill="#A9644C"/>
<path d="M220.959 312.457C220.959 312.457 110.762 323.605 103.324 324.545C95.8397 325.486 6.5901 313.398 2.40063 310.623C-1.78883 307.848 0.0940772 220.503 3.81281 219.092C7.53155 217.68 20.0999 215.846 22.8772 215.846C25.6545 215.846 104.266 219.092 108.926 221.867C113.586 224.642 112.645 239.975 112.645 243.221C112.645 246.466 112.645 259.965 112.645 259.965L207.496 253.945L220.959 312.457Z" fill="#FF9797"/>
<path opacity="0.5" d="M90.5205 229.581C90.191 227.041 88.6847 224.501 85.9074 224.313C85.3896 224.265 85.3896 225.065 85.9074 225.159C89.532 225.535 89.7673 229.91 89.7673 232.685C89.7673 235.789 89.7203 238.894 89.7203 241.951C89.6732 248.301 89.6261 254.65 89.579 260.953C89.4849 273.653 89.4378 286.305 89.3437 299.005C89.2966 306.013 89.2025 313.069 88.3081 320.03C88.2139 320.641 89.1554 320.594 89.2495 320.03C90.0968 313.445 90.2381 306.813 90.2851 300.134C90.3322 293.408 90.3793 286.682 90.4263 279.956C90.5205 266.645 90.6146 253.333 90.6617 240.069C90.6617 238.235 90.6617 236.354 90.7088 234.519C90.6617 232.873 90.7559 231.227 90.5205 229.581Z" fill="#E86F64"/>
<path d="M113.869 245.526C113.727 239.928 113.774 234.049 112.786 228.499C112.033 224.171 109.632 221.396 105.254 220.55C93.392 218.245 41.4238 216.74 27.4433 215.705C26.5018 215.658 26.5489 217.069 27.4433 217.163C50.9796 219.891 74.5159 217.775 97.958 221.302C100.547 221.679 103.23 221.914 105.772 222.572C108.785 223.372 110.244 225.441 110.856 228.358C112.033 233.861 111.844 239.928 111.986 245.526C112.268 257.19 111.892 268.855 110.809 280.473C109.585 293.596 107.702 306.719 108.267 319.936C108.314 321.112 110.15 321.112 110.103 319.936C109.585 307.612 111.185 295.383 112.362 283.154C113.633 270.643 114.198 258.131 113.869 245.526Z" fill="#E86F64"/>
<path opacity="0.5" d="M207.072 278.639C182.971 280.379 159.247 285.459 135.193 287.669C128.32 288.281 121.447 288.657 114.575 288.704C114.01 288.704 114.01 289.551 114.575 289.551C138.77 289.598 162.589 284.847 186.502 281.743C193.327 280.849 200.2 280.097 207.072 279.579C207.684 279.485 207.684 278.592 207.072 278.639Z" fill="#E86F64"/>
<path d="M194.457 193.175C194.457 193.175 189.891 210.202 190.361 211.566C190.832 212.93 180.853 214.999 180.853 214.999L194.457 193.175Z" fill="#953B16"/>
<path d="M181.7 156.393C181.7 156.393 191.256 160.532 194.457 161.896C197.658 163.26 200.859 166.976 200.859 172.95C200.859 178.923 196.763 187.201 194.457 193.175C192.197 199.149 184.43 197.784 184.43 197.784L181.7 156.393Z" fill="#A54B22"/>
<path d="M137.499 220.785C137.499 220.785 133.874 228.593 132.039 232.309C130.203 235.977 123.848 247.031 130.673 251.64C137.499 256.25 166.213 253.945 166.213 253.945L175.345 217.586H141.641L137.499 220.785Z" fill="#ED4450"/>
<path d="M142.536 196.891C142.536 196.891 141.641 209.308 139.805 211.613C137.97 213.918 136.181 215.752 136.181 216.693C136.181 217.633 137.546 221.302 137.546 221.302C137.546 221.302 144.842 219.468 149.408 218.997C153.974 218.527 151.244 199.666 151.244 199.666L142.536 196.891Z" fill="#1A1A1A"/>
<path d="M192.197 201.924C188.008 207.803 184.995 214.858 184.525 216.034C184.477 216.128 184.477 216.222 184.477 216.222L153.504 218.997L153.598 216.787L154.304 197.549L155.34 169.751L186.313 158.698C186.313 158.698 194.504 162.837 194.08 165.142C193.61 167.446 193.61 177.559 194.975 185.837C195.21 187.248 195.398 188.424 195.587 189.506C196.293 194.727 195.963 196.609 192.197 201.924Z" fill="#A54B22"/>
<path d="M179.676 188.895C179.488 188.283 178.452 188.565 178.593 189.177C179.017 190.917 179.158 192.611 179.111 194.351C179.111 195.103 180.194 195.292 180.288 194.539C180.429 192.658 180.194 190.729 179.676 188.895Z" fill="#953B16"/>
<path d="M192.197 201.924C188.008 207.803 184.995 214.858 184.524 216.034L153.551 216.74L147.337 216.881L154.304 197.502L156.94 190.165C156.94 190.165 168.237 193.457 180.57 193.034C189.514 192.705 193.751 190.588 195.586 189.506C196.293 194.727 195.963 196.609 192.197 201.924Z" fill="#1A1A1A"/>
<path d="M196.293 184.662C195.398 180.664 193.186 174.549 193.045 170.457C192.998 169.516 192.009 170.739 191.962 171.68C191.679 179.111 195.492 186.966 196.01 194.304C196.057 195.197 197.516 195.433 197.658 194.445C198.034 191.152 196.999 187.86 196.293 184.662Z" fill="#FFE7D7"/>
<path d="M196.528 118.529C196.716 118.247 196.999 118.012 197.14 117.73C197.517 117.118 197.752 116.131 197.658 115.425C197.375 113.544 195.492 112.603 195.869 110.486C196.01 109.734 196.246 108.84 195.775 108.229C195.351 107.711 194.598 107.664 193.939 107.382C191.868 106.488 192.903 103.525 190.973 102.49C190.456 102.208 189.844 102.302 189.279 102.208C186.502 101.832 187.396 98.9627 186.078 97.2694C185.513 96.5169 184.713 96.3287 183.818 96.3287C182.971 96.3287 181.983 96.8461 181.182 96.4698C180.617 96.2346 180.288 95.6702 179.817 95.2469C179.111 94.6825 178.028 94.6354 177.275 95.1528C176.899 95.388 176.569 95.8113 176.146 95.8113C175.581 95.8583 175.157 95.2469 174.78 94.8236C173.274 93.1303 171.391 93.1303 169.791 94.6354C169.367 95.0587 169.179 95.388 168.52 95.4821C167.955 95.5761 167.343 95.4821 166.825 95.2469C166.402 95.0587 166.072 94.8236 165.601 94.7295C164.613 94.4943 163.671 95.1999 162.965 95.9524C162.259 96.658 161.553 97.5046 160.565 97.6457C159.764 97.7868 158.917 97.4105 158.164 97.6457C157.175 97.975 156.752 99.1508 156.328 100.139C155.904 101.032 155.292 102.255 154.445 102.773C153.457 103.337 152.327 103.572 151.432 104.278C150.397 105.077 149.408 106.629 149.738 107.994C149.879 108.558 150.114 109.169 150.02 109.734C149.832 110.675 148.843 111.239 148.326 112.039C147.902 112.697 147.808 113.497 148.043 114.202C148.326 114.955 148.796 115.896 149.173 116.601C149.55 117.26 150.256 117.542 150.02 118.435C149.785 119.376 148.938 119.846 149.079 120.928C149.126 121.305 149.314 121.54 149.502 121.869C149.973 122.857 150.256 123.562 149.879 124.691C149.502 125.726 149.314 126.949 149.691 128.031C150.067 129.065 150.773 129.489 151.621 130.1C153.174 131.182 152.656 132.687 153.551 134.051C153.88 134.569 154.445 134.992 155.01 135.227C155.292 135.321 155.434 135.274 155.669 135.321C155.951 135.415 156.281 135.745 156.516 135.886C157.552 136.638 158.587 137.532 159.011 138.755C159.152 139.178 159.246 139.695 159.482 140.072C159.811 140.636 160.423 140.965 160.988 141.248C161.6 141.577 162.212 141.906 162.871 142.094C164.142 142.424 165.601 142.141 166.872 141.765C168.379 141.342 169.885 140.824 171.391 140.26C174.357 139.131 177.275 137.908 180.335 136.92C182.218 136.309 184.195 135.745 186.172 135.603C187.914 135.462 189.561 133.91 190.832 132.734C191.491 132.123 192.15 131.417 192.433 130.524C192.621 129.912 192.574 129.207 192.715 128.595C192.998 127.09 194.033 126.196 195.069 125.162C195.587 124.644 196.104 124.127 196.293 123.421C196.669 121.963 195.587 120.552 196.057 119.141C196.246 118.953 196.387 118.765 196.528 118.529Z" fill="#4E0C09"/>
<path d="M172.38 183.297C172.38 183.297 149.879 165.189 150.067 162.602C153.739 160.062 156.893 157.757 158.964 155.876C159.152 155.688 159.388 155.499 159.576 155.311C160.188 154.7 160.706 154.182 161.035 153.665C164.519 149.009 164.001 136.591 164.001 136.591L177.746 141.906C177.746 141.906 177.699 142.988 177.699 144.54C177.699 147.503 177.793 152.066 178.593 153.9C178.687 154.088 178.782 154.276 178.97 154.465C179.582 155.17 180.712 155.829 182.077 156.487C182.359 156.628 182.689 156.769 183.018 156.91C184.101 157.381 185.325 157.898 186.501 158.416C186.925 158.604 187.349 160.203 187.396 160.673C187.443 161.144 187.537 161.661 187.584 162.32C187.961 167.964 183.301 179.629 172.38 183.297Z" fill="#A54B22"/>
<path d="M181.935 168.999C182.077 169.375 182.171 169.751 182.218 170.08C182.265 170.833 181.888 171.633 181.182 171.915C180.9 172.056 180.57 172.056 180.288 171.962C179.911 171.868 179.629 171.539 179.393 171.209C179.017 170.645 178.829 169.939 178.876 169.281C178.876 169.14 178.923 169.046 178.923 168.952C178.264 169.469 177.51 169.892 176.663 170.127C176.804 170.175 176.899 170.222 177.04 170.269C178.17 170.974 178.923 172.197 179.064 173.561C179.158 174.831 178.687 176.383 177.558 177.042C176.145 177.888 174.686 176.901 173.98 175.678C173.368 174.549 173.227 173.138 173.698 171.868C173.886 171.35 174.31 170.927 174.78 170.739C174.874 170.645 174.921 170.551 175.016 170.504C174.451 170.551 173.886 170.551 173.274 170.504C172.709 170.457 172.144 170.316 171.626 170.127C171.768 170.316 171.862 170.504 171.956 170.692C172.003 170.88 172.003 171.209 171.956 171.444C172.191 171.868 172.285 172.338 172.191 172.808C172.003 173.514 171.344 173.937 170.638 173.984C170.167 173.984 169.649 173.749 169.32 173.373C168.896 172.903 168.661 172.291 168.661 171.68C168.661 171.021 168.896 170.457 169.32 169.986C169.555 169.704 169.885 169.563 170.214 169.563C168.096 168.528 166.26 166.788 164.707 164.954C162.4 162.226 160.423 159.168 158.917 155.876C159.105 155.688 159.34 155.499 159.529 155.311C160.894 158.18 162.588 160.908 164.613 163.354C166.684 165.894 169.085 168.481 172.38 169.328C175.863 170.269 179.017 168.575 180.711 165.471C182.171 162.743 182.265 159.544 182.124 156.487C182.406 156.628 182.736 156.769 183.065 156.91C183.206 160.156 182.971 163.495 181.276 166.365C180.994 166.835 180.664 167.305 180.335 167.682C180.429 167.682 180.476 167.682 180.57 167.635C181.135 167.682 181.653 168.293 181.935 168.999Z" fill="#FFB743"/>
<path d="M178.97 154.465C178.782 154.277 178.688 154.088 178.593 153.9C177.793 152.113 177.699 147.503 177.699 144.54L165.743 140.072C165.743 140.119 167.72 151.501 178.97 154.465Z" fill="#3A1714"/>
<path d="M188.808 125.538C188.855 126.479 188.808 129.912 188.855 130.571C188.996 133.016 188.996 135.462 188.62 137.861C187.867 142.988 185.325 147.739 180.052 149.197C173.698 150.937 164.142 145.904 163.907 137.908C163.907 137.908 157.081 135.415 160.235 129.677C161.223 127.843 162.965 127.701 164.66 128.642C165.225 128.971 166.166 129.489 166.496 130.1C166.684 130.429 166.543 130.9 167.06 130.994C167.767 131.135 167.814 130.241 167.814 129.771C167.814 128.36 167.343 125.914 168.943 125.162C169.461 124.926 170.026 124.926 170.591 124.738C172.144 124.221 172.945 122.339 174.498 121.822C176.287 121.258 178.311 122.716 179.958 121.869C180.523 121.587 180.947 121.069 181.465 120.787C182.312 120.364 183.583 120.646 184.289 121.211C184.713 121.54 184.995 121.916 185.372 122.292C185.748 122.622 186.172 122.904 186.69 122.998C187.113 123.045 187.537 122.951 187.914 123.186C188.667 123.703 188.761 124.785 188.808 125.538Z" fill="#A54B22"/>
<path d="M176.475 131.135C176.287 130.947 176.051 130.806 175.769 130.853C175.722 130.853 175.722 130.853 175.675 130.853C175.675 130.853 175.675 130.853 175.628 130.853C175.628 130.853 175.628 130.853 175.581 130.853C174.686 130.947 174.451 132.217 174.875 132.922C174.922 133.11 175.016 133.252 175.157 133.346C175.298 133.44 175.487 133.487 175.675 133.487H175.722C176.146 133.581 176.428 133.299 176.616 132.969C176.993 132.405 176.946 131.605 176.475 131.135Z" fill="#1A1A1A"/>
<path d="M188.384 131.464C188.008 130.947 187.302 130.9 186.831 131.323C186.784 131.37 186.737 131.417 186.737 131.464C186.643 131.605 186.549 131.794 186.549 131.982V132.029C186.596 132.358 186.643 132.734 186.878 133.016C187.255 133.581 188.055 133.487 188.431 132.969C188.761 132.499 188.714 131.888 188.384 131.464Z" fill="#1A1A1A"/>
<path d="M183.3 138.143C183.253 137.814 182.924 137.626 182.641 137.673C182.359 137.72 182.029 137.767 181.747 137.814C181.418 137.861 181.229 138.19 181.276 138.473C181.323 138.802 181.653 138.99 181.935 138.943C182.218 138.896 182.547 138.849 182.83 138.802C183.112 138.802 183.347 138.473 183.3 138.143Z" fill="#953B16"/>
<path d="M177.934 125.726C177.181 126.055 176.428 126.29 175.675 126.667C174.921 127.043 174.262 127.513 173.556 127.937C172.897 128.313 173.415 129.348 174.074 128.971C174.78 128.548 175.486 128.078 176.192 127.701C176.899 127.325 177.699 127.09 178.452 126.761C179.158 126.479 178.64 125.397 177.934 125.726Z" fill="#4E0C09"/>
<path d="M189.702 128.313C189.043 127.701 188.384 127.466 187.584 127.231C186.737 126.949 186.454 128.125 187.302 128.407C187.82 128.548 188.384 128.689 188.808 129.113C189.467 129.677 190.361 128.924 189.702 128.313Z" fill="#4E0C09"/>
<path d="M176.24 140.73L182.689 142.471C183.254 142.706 180.241 143.882 178.64 144.493C177.934 144.775 177.134 144.446 176.852 143.741C176.193 142.471 175.722 140.542 176.24 140.73Z" fill="white"/>
<path d="M157.411 157.522C157.411 157.522 148.938 163.307 146.207 165.142C143.477 166.976 139.429 172.479 139.9 178.453C140.37 184.426 141.641 193.645 142.112 198.725C142.583 203.805 142.112 221.726 144.372 225.394C146.631 229.063 149.832 230.474 151.668 230.474C153.504 230.474 215.451 215.752 216.393 214.811C217.099 214.905 217.475 214.529 217.664 213.871C217.852 213.212 217.805 212.46 217.946 211.801C218.276 210.625 219.311 209.59 219.076 208.414C218.793 207.286 217.522 206.768 216.769 205.875C216.157 205.122 215.922 204.087 215.169 203.523C214.274 202.817 213.333 203.194 212.344 203.005C211.215 202.817 210.885 200.983 210.885 200.089C210.932 198.866 211.45 197.314 209.52 197.784C209.379 197.831 207.731 199.384 207.684 199.148C207.637 198.49 207.308 196.232 206.319 196.232C206.131 196.232 205.943 196.326 205.754 196.467C204.107 197.502 202.365 198.349 200.529 198.96C200.106 199.101 199.729 199.195 199.352 199.431C198.693 199.901 198.364 200.512 198.034 201.265C194.222 210.437 192.574 211.048 192.715 210.954C192.715 210.954 161.836 215.046 159.105 212.742C156.375 210.437 158.635 178.218 158.635 178.218L157.411 157.522Z" fill="#A54B22"/>
<path d="M216.204 207.239C215.216 206.345 214.086 205.451 212.815 205.075C212.815 205.028 212.815 204.981 212.815 204.934C212.58 204.04 212.297 203.193 211.78 202.441C211.262 201.735 211.309 200.607 211.309 199.713C211.309 199.29 211.309 198.819 211.215 198.396C211.121 197.973 210.885 197.549 210.556 197.314C209.944 196.938 209.096 197.173 208.484 197.596C208.155 197.831 207.873 198.114 207.637 198.443C207.449 198.725 207.308 199.195 207.072 199.431C206.696 199.807 205.99 199.384 205.519 199.337C203.966 199.242 202.506 199.901 201.188 200.701C200.482 201.124 201.094 201.735 201.8 201.359C202.883 200.842 204.107 200.559 205.378 200.701C207.308 200.889 206.696 201.782 207.873 202.441C208.39 202.723 208.814 202.441 209.285 202.582C210.414 202.911 210.791 203.758 211.073 204.793C211.026 204.793 210.932 204.793 210.885 204.793C209.944 204.934 209.567 205.451 208.814 205.922C207.496 206.721 206.837 206.298 205.566 206.721C203.542 207.38 204.201 209.355 203.448 210.86C202.695 212.318 201.282 212.836 202.365 214.717C202.789 215.423 203.871 214.811 203.448 214.059C203.024 213.353 204.719 212.271 205.001 211.613C205.189 211.142 205.095 210.719 205.236 210.249C205.142 209.308 205.566 208.65 206.649 208.226C206.931 208.273 207.261 208.273 207.543 208.32C208.532 208.179 208.767 208.179 209.567 207.615C210.32 207.097 210.932 206.439 211.921 206.533C213.145 206.627 214.557 207.05 215.451 207.85C216.251 208.65 217.005 207.991 216.204 207.239Z" fill="#953B16"/>
<path d="M162.071 212.46C160.47 212.365 157.929 212.271 156.328 212.177C155.292 212.13 155.34 213.682 156.328 213.777C157.929 213.918 160.329 213.447 163.059 213.447C164.095 213.447 163.154 212.507 162.071 212.46Z" fill="#1A1A1A"/>
<path d="M159.011 176.571C159.011 175.537 157.411 175.537 157.411 176.571C157.364 180.805 157.364 185.038 157.364 189.271C157.364 190.4 159.105 190.4 159.105 189.271C159.058 185.038 159.011 180.805 159.011 176.571Z" fill="#953B16"/>
<path d="M295.616 329.155C295.663 330.284 294.627 331.318 294.627 331.318C294.627 331.318 274.151 336.916 269.961 334.564C265.772 332.259 259.276 323.887 255.557 322.476C251.838 321.065 249.956 318.29 249.956 318.29C249.956 318.29 249.814 318.054 249.673 317.584C249.344 316.596 248.967 314.762 249.956 313.163C250.709 311.94 251.556 310.199 251.98 308.036C252.215 306.954 252.309 305.778 252.262 304.508C252.215 303.426 252.074 302.297 251.791 301.122C250.379 295.524 265.725 295.101 265.725 295.101C265.725 295.101 268.361 300.651 271.515 306.625C272.127 307.754 272.739 308.929 273.351 310.058C275.704 314.386 278.105 318.431 279.705 320.218C280.788 321.394 281.682 322.335 282.483 323.087C284.883 325.298 286.343 325.909 288.084 326.286C288.131 326.286 288.131 326.286 288.178 326.286C290.485 326.709 293.686 326.756 295.051 328.12C295.475 328.402 295.616 328.778 295.616 329.155Z" fill="#A54B22"/>
<path d="M295.098 333.153C293.215 335.458 274.621 339.173 271.373 338.28C268.125 337.339 262.053 327.603 260.217 327.603C258.381 327.603 264.877 340.631 263.936 341.055C262.994 341.525 260.217 342.466 259.746 341.995C259.276 341.525 255.086 330.378 252.78 327.603C250.473 324.828 248.637 318.337 249.532 317.631C249.532 317.631 249.626 317.631 249.72 317.631C251.226 317.866 261.347 322.241 264.407 325.298C267.655 328.543 269.538 331.318 270.432 331.318C271.373 331.318 270.432 329.014 274.621 326.662C277.446 325.11 280.694 323.746 282.53 323.04C284.93 325.251 286.39 325.862 288.131 326.239C288.178 326.239 288.178 326.239 288.225 326.239C287.237 327.414 285.919 329.437 287.19 330.425C288.884 331.695 293.968 328.92 295.616 329.202C295.757 329.249 295.898 329.296 295.992 329.39C296.981 330.378 296.981 330.848 295.098 333.153Z" fill="#4A3333"/>
<path d="M273.445 310.011C266.148 310.623 258.852 310.905 252.074 308.036C252.309 306.954 252.403 305.778 252.356 304.508C258.381 307.33 265.113 307.142 271.609 306.625C272.221 307.707 272.833 308.882 273.445 310.011Z" fill="#4A3333"/>
<path d="M275.563 290.868C275.139 292.091 266.525 297.077 260.076 300.463C259.323 300.839 258.57 301.216 257.911 301.592C255.745 302.674 252.592 303.567 249.108 304.179C242.188 305.402 234.045 305.496 229.997 303.944C229.997 303.944 229.997 316.973 228.867 322.335C228.679 323.275 228.443 324.028 228.161 324.357C226.796 326.05 209.426 327.509 198.458 328.167C194.363 328.402 191.162 328.543 190.032 328.543C185.843 328.543 182.124 327.603 182.124 327.603C182.124 327.603 183.536 312.269 189.091 297.406C194.692 282.543 196.057 275.111 196.999 270.454C197.94 265.798 195.116 255.591 195.116 255.591C195.116 255.591 176.852 253.098 160.141 251.734C154.069 251.264 148.232 250.935 143.524 250.935C132.886 250.935 133.686 244.209 136.04 238.846C137.593 235.319 139.806 232.356 139.806 232.356C141.359 231.932 142.959 231.462 144.513 231.039C148.608 229.91 152.703 228.781 156.846 227.652C162.542 226.1 168.237 224.595 173.98 223.09C180.335 221.396 186.737 219.75 193.139 218.151C199.258 216.599 205.378 215.141 211.497 213.73C216.393 212.601 221.335 211.566 226.278 210.719C227.502 210.531 228.726 210.343 229.95 210.155C232.821 209.684 235.692 211.331 237.764 213.212C240.87 216.081 243.271 219.844 245.295 223.513C247.178 226.947 248.92 230.427 250.614 233.955C254.004 240.963 257.158 248.113 260.264 255.262C261.959 259.213 263.512 263.305 265.442 267.162C267.702 271.818 276.034 289.457 275.563 290.868Z" fill="#ED4450"/>
<path d="M232.586 268.338C231.597 257.096 226.984 245.196 226.513 233.908C226.466 232.873 224.866 232.873 224.866 233.908C224.913 236.965 225.148 239.317 225.619 242.327C220.441 241.904 215.922 243.973 211.215 246.043C205.566 248.536 199.494 251.029 193.751 253.333C192.809 253.71 193.139 255.215 194.174 254.886C199.399 253.286 204.483 251.217 209.473 248.912C214.745 246.513 220.111 244.35 225.995 244.82C227.219 252.299 229.102 259.636 229.761 267.209C230.797 278.968 229.008 290.727 229.667 302.486C229.714 303.661 231.55 303.661 231.503 302.486C231.032 290.727 233.621 280.05 232.586 268.338Z" fill="#C02328"/>
<path d="M260.076 300.416C259.323 300.792 258.57 301.169 257.911 301.545C255.745 302.627 252.592 303.52 249.108 304.132C245.813 299.475 238.517 277.98 234.421 263.681C229.761 247.407 232.539 241.386 233.009 239.505C233.48 237.624 232.068 238.564 230.703 236.73C229.291 234.849 232.115 232.544 232.115 231.603C232.115 230.662 230.703 231.133 229.338 231.133C227.925 231.133 229.338 229.251 227.031 228.358C224.725 227.417 219.594 233.484 219.594 233.484C219.594 233.484 207.025 239.082 201.471 239.505C195.869 239.975 181.465 247.407 174.027 249.241C170.638 250.088 165.507 251.029 160.188 251.687C153.88 252.44 147.384 252.816 143.336 252.016C135.899 250.605 133.121 249.241 131.709 244.585C130.297 239.928 136.84 230.192 136.84 230.192C138.535 230.38 135.192 233.767 136.087 238.8C136.275 239.975 136.746 241.198 137.546 242.515C141.736 249.477 159.388 247.172 171.956 242.045C184.525 236.918 197.046 233.202 204.53 230.898C211.968 228.593 225.666 221.349 228.961 221.82C232.209 222.29 229.903 225.065 230.844 227.417C231.785 229.722 235.033 226.006 238.281 229.298C241.529 232.544 238.752 236.26 238.281 239.505C237.811 242.75 240.588 243.691 242 245.526C243.412 247.407 242.942 250.182 243.412 256.203C243.695 261.753 257.628 294.631 260.076 300.416Z" fill="#2F3638"/>
<path d="M149.691 229.204C147.055 229.863 144.372 230.474 141.735 231.086C140.7 231.321 141.171 232.826 142.159 232.638C144.842 232.12 147.478 231.509 150.161 230.85C151.244 230.568 150.773 228.922 149.691 229.204Z" fill="#C02328"/>
<path d="M228.867 322.288C228.678 323.228 228.443 323.981 228.161 324.31C226.796 326.003 209.426 327.461 198.458 328.12L200.011 320.829C200.011 320.829 227.455 316.643 228.82 322.052C228.867 322.146 228.867 322.193 228.867 322.288Z" fill="#842A2E"/>
<path d="M200.011 337.574C200.482 343.595 203.259 348.721 203.259 351.967C203.259 355.212 194.88 357.094 188.384 356.153C181.888 355.212 185.607 345.476 185.607 341.76C185.607 338.044 185.607 333.388 184.195 332.024C182.783 330.613 182.312 328.308 182.312 327.367C182.312 326.709 182.971 324.733 189.844 322.805C190.973 322.476 192.291 322.146 193.798 321.864C196.34 321.347 199.446 320.829 203.259 320.406C203.259 320.406 202.271 323.275 201.423 326.944C201.141 328.073 200.906 329.249 200.67 330.472C200.153 332.965 199.87 335.552 200.011 337.574Z" fill="#A54B22"/>
<path d="M201.659 344.724C201.188 344.206 190.032 345.711 188.149 344.3C186.266 342.889 186.266 334.564 185.372 332.682C184.43 330.801 182.547 328.59 182.547 328.59C181.559 329.155 182.124 331.742 182.124 335.458C182.124 339.173 181.182 346.605 181.182 346.605H183.065C183.065 346.605 182.124 350.321 182.124 352.202C182.124 354.084 181.653 355.448 186.313 356.388C190.973 357.329 202.6 357.329 203.965 355.448C205.378 353.613 202.13 345.241 201.659 344.724ZM200.152 353.942C199.399 355.73 196.481 355.73 194.88 355.73C192.338 355.777 189.326 355.918 187.255 354.178C186.548 353.613 186.972 352.767 187.584 352.484C188.714 351.356 190.173 351.261 191.726 351.026C193.139 350.791 194.551 350.509 195.963 350.603C197.611 350.603 201.094 351.591 200.152 353.942Z" fill="#4A3333"/>
<path d="M201.423 326.897C201.141 328.026 200.906 329.202 200.67 330.425C196.528 328.873 193.092 326.003 189.891 322.805C191.02 322.476 192.338 322.146 193.845 321.864C196.198 323.84 198.646 325.58 201.423 326.897Z" fill="#4A3333"/>
<path d="M113.539 250.652C113.539 250.652 176.569 250.088 193.186 255.262L193.986 265.092L114.01 262.788L113.539 250.652Z" fill="#FF9797"/>
<path d="M130.768 249.853C124.931 249.712 119.047 249.618 113.21 249.9C112.174 249.947 112.127 251.546 113.21 251.546C119.047 251.593 124.931 251.546 130.768 251.687C131.944 251.687 131.944 249.853 130.768 249.853Z" fill="#E86F64"/>
<path opacity="0.5" d="M83.5538 223.513C63.6421 221.679 12.6625 220.691 7.06085 220.126C6.6372 220.079 6.54305 220.832 6.9667 220.879C16.8049 222.29 77.858 223.889 83.5538 224.407C84.1187 224.501 84.1187 223.56 83.5538 223.513Z" fill="#E86F64"/>
<path d="M599.94 348.251C600.646 354.178 555.315 352.437 483.2 352.437C411.085 352.437 352.103 353.049 352.103 344.959C352.103 336.163 401.812 339.409 473.927 339.409C546.042 339.409 598.999 340.349 599.94 348.251Z" fill="#766782"/>
<path d="M369.284 310.152C369.284 310.152 370.226 342.701 372.532 343.595C374.839 344.535 379.499 343.595 379.97 343.124C380.441 342.654 383.689 311.987 383.689 311.987L369.284 310.152Z" fill="#92503D"/>
<path d="M454.392 307.848C454.392 307.848 455.333 340.396 457.64 341.29C459.946 342.231 464.606 341.29 465.077 340.82C465.548 340.349 468.796 309.682 468.796 309.682L454.392 307.848Z" fill="#92503D"/>
<path d="M570.19 311.987C570.19 311.987 571.132 344.535 573.438 345.429C575.745 346.37 580.405 345.429 580.876 344.959C581.347 344.488 584.595 313.821 584.595 313.821L570.19 311.987Z" fill="#A9644C"/>
<path d="M491.626 319.889C491.626 319.889 492.568 352.437 494.874 353.331C497.181 354.272 501.841 353.331 502.312 352.861C502.782 352.39 506.03 321.723 506.03 321.723L491.626 319.889Z" fill="#A9644C"/>
<path d="M497.887 266.221L496.945 321.535C496.945 321.535 462.959 319.936 428.172 317.819C420.923 317.396 413.674 316.926 406.66 316.408C378.84 314.48 355.116 312.363 354.033 310.576C351.397 306.201 348.62 220.691 355.163 218.856C361.659 216.975 431.891 214.2 436.08 214.2C440.27 214.2 453.309 215.611 453.309 215.611L477.504 263.493L497.887 266.221Z" fill="#ED4450"/>
<path d="M391.597 250.229C387.454 250.982 381.288 252.628 377.946 255.262C374.792 257.755 374.274 261.612 374.415 265.375C374.462 266.55 376.251 266.55 376.251 265.375C376.204 261.282 376.816 257.802 380.629 255.638C383.83 253.851 387.407 252.863 390.844 251.687C391.785 251.405 392.538 250.041 391.597 250.229Z" fill="#C02328"/>
<path opacity="0.5" d="M375.875 222.478C370.744 223.983 371.403 230.803 371.261 234.943C371.12 241.01 371.026 247.125 370.979 253.192C370.932 265.28 371.12 277.369 371.544 289.457C371.779 296.324 372.109 303.144 372.532 310.011C372.58 310.623 373.474 310.623 373.474 310.011C372.109 286.917 371.638 263.822 372.062 240.681C372.109 237.53 372.203 234.378 372.297 231.227C372.391 228.216 372.768 224.36 376.11 223.231C376.581 223.09 376.392 222.29 375.875 222.478Z" fill="#C02328"/>
<path opacity="0.5" d="M444.554 218.057C435.798 218.715 427.042 219.186 418.287 219.468C409.72 219.75 401.105 219.609 392.538 219.985C387.831 220.173 383.077 220.597 378.416 221.584C377.899 221.679 378.134 222.478 378.652 222.384C387.031 220.832 395.504 220.738 403.977 220.691C412.591 220.597 421.206 220.362 429.773 219.891C434.668 219.656 439.611 219.327 444.506 218.95C445.165 218.95 445.165 218.01 444.554 218.057Z" fill="#C02328"/>
<path d="M490.826 279.438C490.826 279.438 460.417 283.201 449.167 287.058C443.424 289.033 434.292 291.714 426.666 293.878C421.959 294.866 417.251 295.76 412.497 296.559C411.603 296.7 411.791 298.252 412.732 298.158C420.311 297.359 427.89 295.854 435.28 293.831C446.86 291.903 459.523 289.786 465.077 288.798C475.292 286.964 492.521 289.692 492.521 289.692L490.826 279.438Z" fill="#C02328"/>
<path d="M428.125 317.819C420.876 317.396 413.627 316.925 406.613 316.408C405.013 313.68 402.988 307.518 404.871 294.584C407.649 275.064 424.877 268.103 424.877 268.103C424.877 268.103 421.158 289.927 422.571 292.279C423.983 294.584 427.231 294.866 427.702 295.43C428.078 295.948 426.054 312.081 428.125 317.819Z" fill="#842A2E"/>
<path d="M581.347 218.48C581.347 218.48 581.912 179.441 578.616 177.136C575.321 174.831 566.519 174.455 562.8 174.502C559.081 174.549 455.992 175.631 453.686 179.347C451.379 183.062 440.647 252.769 440.647 252.769L519.399 261.8L581.347 218.48Z" fill="#ED4450"/>
<path opacity="0.5" d="M562.188 205.592L564.024 195.386C564.636 192.046 565.248 188.754 565.813 185.414C566.189 183.392 567.837 178.688 565.295 177.418C564.824 177.183 565.248 176.477 565.719 176.713C567.79 177.7 567.649 180.334 567.319 182.263C566.707 185.979 566.001 189.647 565.295 193.363C564.636 197.079 563.93 200.748 563.271 204.464C562.612 208.226 561.623 213.918 560.729 217.634C560.588 218.198 559.834 217.963 559.882 217.398C560.352 214.059 561.623 208.885 562.188 205.592Z" fill="#C02328"/>
<path d="M446.154 217.116C445.307 222.572 444.271 228.028 443.094 233.437C442.859 234.566 444.601 235.037 444.836 233.908C446.013 228.499 447.001 223.043 447.802 217.539C447.943 216.505 446.342 216.034 446.154 217.116Z" fill="#C02328"/>
<path d="M451.709 168.763C451.332 168.763 451.05 168.481 451.05 168.105C451.05 164.954 451.615 162.743 452.885 160.767C453.639 159.592 454.627 158.557 455.616 157.522C456.51 156.581 458.675 153.9 459.334 152.96C460.888 150.749 462.206 147.221 462.582 145.058C462.63 144.681 463.147 145.716 463.477 145.763C463.853 145.81 464.089 146.139 463.995 146.516C463.618 148.867 460.7 153.148 459.052 155.499C458.346 156.534 457.452 157.475 456.557 158.416C455.616 159.403 454.674 160.391 453.968 161.473C452.791 163.26 452.321 165.236 452.321 168.105C452.368 168.481 452.038 168.763 451.709 168.763Z" fill="#621406"/>
<path d="M463.995 137.25C463.995 137.25 453.215 132.499 457.499 117.683C459.24 111.709 465.454 105.265 475.951 110.11C481.788 112.791 481.647 115.096 486.025 117.73C492.238 119.094 495.957 126.149 497.557 131.605C497.84 132.499 498.028 133.534 498.216 134.569C499.064 139.743 501.7 144.446 505.56 148.021C508.196 150.467 510.785 153.665 511.679 157.193C516.292 175.16 502.547 185.085 502.547 185.085L456.745 180.71C456.745 180.71 451.944 170.222 455.004 164.53C458.063 158.839 464.324 148.256 464.324 148.256L463.995 137.25Z" fill="#621406"/>
<path d="M489.696 175.631C486.401 178.923 481.929 181.087 477.222 181.087C473.315 181.087 472.562 187.248 469.69 184.709C466.866 182.216 465.124 178.218 463.383 174.972C462.488 173.326 461.688 172.056 461.923 170.175C462.206 168.058 462.535 166.129 463.759 164.342C464.654 163.072 465.783 161.99 466.96 160.956C467.76 160.203 468.561 159.639 468.984 158.604C469.361 157.663 469.643 156.581 469.69 155.594C469.737 154.653 469.643 153.853 469.69 152.865C469.69 152.301 469.643 152.254 469.643 151.737C469.69 149.761 469.69 148.209 469.69 148.209L475.81 144.916L484.848 140.072C484.754 142.518 484.659 144.916 484.565 147.362C484.424 151.031 484.047 155.123 486.024 158.416C486.119 158.557 486.213 158.745 486.354 158.886C487.107 159.968 488.096 160.814 489.131 161.661C490.073 162.461 491.061 163.213 492.003 163.919C492.897 164.577 493.886 165.33 494.262 166.365C495.486 169.516 491.767 173.608 489.696 175.631Z" fill="#EB9367"/>
<path d="M478.587 152.16C476.186 154.512 472.938 155.311 469.737 155.264C469.784 154.465 469.69 153.712 469.737 152.818C469.737 152.254 469.69 152.207 469.69 151.69C469.737 149.714 469.737 148.162 469.737 148.162L475.857 144.869L483.153 142.471C482.023 146.139 481.411 149.385 478.587 152.16Z" fill="#320124"/>
<path d="M460.04 128.736C459.852 129.771 459.758 130.853 459.617 131.699C459.24 133.957 459.711 136.591 459.852 138.896C460.276 145.011 463.336 150.702 467.337 151.925C474.068 154.041 483.106 147.645 484.848 141.06C484.848 141.06 490.544 139.319 489.225 133.158C488.614 130.335 485.507 130.053 484.095 131.794C483.483 131.088 483.012 130.241 482.824 129.301C482.588 128.36 482.588 127.278 481.882 126.62C481.223 126.055 480.282 126.102 479.434 126.008C476.845 125.726 474.68 123.939 472.891 122.057C472.421 121.54 471.856 120.975 471.197 120.928C470.491 120.881 469.879 121.399 469.502 121.963C469.126 122.528 468.89 123.186 468.466 123.75C468.09 124.268 467.572 124.691 467.007 124.973C466.16 125.397 465.171 125.491 464.23 125.538C463.289 125.632 462.3 125.726 461.453 126.196C460.652 126.808 460.276 127.701 460.04 128.736Z" fill="#EA9169"/>
<path d="M473.927 132.405C474.162 132.217 474.398 132.076 474.68 132.123C474.727 132.123 474.727 132.123 474.774 132.123C474.774 132.123 474.774 132.123 474.821 132.123C474.821 132.123 474.821 132.123 474.868 132.123C475.857 132.264 476.092 133.581 475.575 134.334C475.528 134.522 475.433 134.663 475.245 134.757C475.104 134.851 474.868 134.898 474.68 134.898H474.633C474.162 134.992 473.88 134.71 473.692 134.334C473.315 133.769 473.409 132.875 473.927 132.405Z" fill="#320124"/>
<path d="M461.17 132.922C461.594 132.405 462.347 132.311 462.865 132.781C462.912 132.828 462.959 132.875 462.959 132.922C463.1 133.064 463.147 133.252 463.147 133.487C463.147 133.534 463.147 133.534 463.147 133.581C463.1 133.957 463.006 134.286 462.771 134.616C462.347 135.18 461.5 135.086 461.076 134.522C460.747 134.051 460.794 133.346 461.17 132.922Z" fill="#320124"/>
<g opacity="0.5">
<path opacity="0.5" d="M467.148 139.978C467.243 139.648 467.572 139.46 467.902 139.507C468.231 139.601 468.561 139.695 468.843 139.743C469.173 139.837 469.361 140.166 469.314 140.495C469.22 140.824 468.89 141.012 468.561 140.965C468.231 140.871 467.902 140.777 467.619 140.73C467.29 140.636 467.054 140.307 467.148 139.978Z" fill="#D25C48"/>
</g>
<path d="M472.515 126.573C473.268 126.949 474.115 127.231 474.868 127.654C475.622 128.078 476.328 128.642 477.081 129.113C477.74 129.536 477.128 130.618 476.469 130.194C475.716 129.724 475.01 129.16 474.256 128.736C473.503 128.313 472.656 128.031 471.903 127.654C471.197 127.325 471.809 126.243 472.515 126.573Z" fill="#621406"/>
<path d="M459.664 129.395C460.182 128.83 460.841 128.642 461.547 128.454C462.3 128.266 462.724 129.442 461.97 129.63C461.5 129.771 460.982 129.818 460.605 130.194C460.04 130.806 459.099 129.959 459.664 129.395Z" fill="#621406"/>
<path d="M466.348 144.634C466.348 144.634 470.255 144.446 472.515 143.552C474.539 142.706 471.95 147.55 470.82 147.597C467.666 147.644 466.348 144.634 466.348 144.634Z" fill="white"/>
<path d="M454.863 193.034C454.863 193.034 438.575 213.494 430.196 217.21C421.818 220.926 393.904 212.083 392.068 212.083C390.561 212.083 389.149 211.942 387.643 211.942C387.266 211.942 386.843 211.895 386.466 211.754C385.807 211.425 385.43 210.578 384.724 210.39C384.301 210.249 383.83 210.39 383.406 210.343C382.041 210.108 381.9 208.226 380.959 207.192C380.017 206.11 378.181 205.875 377.758 204.51C377.616 203.993 377.663 203.335 377.24 203.052C377.004 202.864 376.722 202.864 376.44 202.817C374.651 202.629 371.073 202.065 368.955 201.218C368.343 200.983 367.684 200.56 367.684 199.948C367.637 199.054 368.814 198.678 369.755 198.631C371.403 198.584 373.945 198.725 375.592 199.054C376.816 199.29 378.087 199.337 379.264 199.619C379.405 199.666 379.499 199.666 379.64 199.666C379.829 199.619 379.97 199.525 380.111 199.384C381.335 198.302 382.747 197.408 384.254 196.797C383.595 196.232 383.03 195.621 382.512 194.962C382.088 194.398 381.665 193.786 381.618 193.128C381.57 192.422 381.947 191.67 382.653 191.529C383.359 191.388 383.971 191.905 384.489 192.375C385.713 193.457 387.078 194.398 388.49 195.197C390.091 196.091 391.832 196.844 393.056 198.161C394.186 199.337 395.033 201.547 396.634 202.065C397.057 202.206 397.622 202.206 398.093 202.3C400.07 202.629 402.094 202.911 404.071 203.193C409.249 203.899 414.427 204.652 419.652 204.793C421.017 204.84 422.665 205.028 423.983 204.51C427.702 203.099 442.577 185.461 446.766 178.5C450.955 171.539 455.616 168.763 457.922 167.352C460.229 165.941 459.334 184.567 459.334 184.567L454.863 193.034Z" fill="#E9946B"/>
<path d="M390.044 203.899C390.091 203.476 390.044 203.052 389.902 202.676C389.714 202.253 389.385 201.924 389.29 201.5C389.196 201.124 389.243 200.748 389.196 200.418C389.102 199.901 388.631 199.431 388.067 199.337C387.878 199.29 387.69 199.29 387.502 199.195C387.266 199.054 387.172 198.772 387.078 198.537C386.843 197.784 386.843 196.938 386.042 196.561C385.383 196.232 384.583 196.279 383.877 196.42C381.288 196.985 379.17 199.76 377.663 201.876C377.193 202.535 377.993 202.629 378.511 202.018C379.264 201.171 380.017 200.371 380.911 199.713C381.853 199.007 384.913 196.656 385.619 198.866C385.713 199.195 385.713 199.572 385.948 199.807C386.184 200.089 386.607 200.089 386.89 200.23C387.172 200.371 387.36 200.607 387.455 200.936C387.596 201.406 387.407 201.971 387.596 202.394C387.69 202.629 387.925 202.77 388.067 202.958C388.396 203.429 388.396 204.04 388.396 204.605C388.396 205.451 388.349 206.063 388.067 206.862C387.784 207.662 387.36 208.461 387.313 209.308C387.313 209.637 387.313 209.967 387.455 210.296C387.502 210.343 387.502 210.437 387.596 210.437C387.737 210.484 387.831 210.343 387.878 210.202C388.726 208.226 389.808 206.016 390.044 203.899Z" fill="#DE835C"/>
<path d="M428.219 203.664C426.384 203.805 424.595 204.463 422.759 204.228C421.865 204.087 421.535 205.028 422.477 205.169C424.359 205.451 426.289 205.592 428.219 205.404C429.302 205.263 429.349 203.57 428.219 203.664Z" fill="#DE835C"/>
<path d="M463.665 163.778C463.665 163.778 456.698 167.493 454.345 169.375C452.038 171.256 457.122 191.199 457.122 191.199L462.253 183.297L463.665 163.778Z" fill="#EFDAE8"/>
<path d="M503.912 224.877C503.441 229.063 496.475 235.554 496.475 235.554L459.287 230.427L461.358 225.065C461.358 225.065 461.829 218.104 458.817 210.437C456.745 205.216 453.121 199.666 454.58 194.116C456.039 188.565 459.617 183.156 459.052 174.031C458.581 166.553 459.287 166.318 459.287 166.318L462.112 164.718L463.43 163.966C463.43 163.966 463.43 163.919 463.477 163.872C463.712 163.401 465.077 161.144 467.148 160.72C467.148 160.72 465.736 170.457 471.809 180.71C471.809 180.71 476.94 173.279 481.553 169.093C486.213 164.907 487.578 160.25 487.578 160.25C487.578 160.25 490.826 160.25 491.767 163.025C491.767 163.025 495.486 166.271 500.146 169.986C504.807 173.702 507.819 178.594 507.819 188.33C507.819 196.703 503.394 205.733 501.559 212.742C499.723 219.797 504.383 220.691 503.912 224.877Z" fill="#EFDAE8"/>
<path d="M456.463 189.553C458.299 183.956 459.334 178.594 458.722 172.667C458.628 171.68 457.593 172.056 457.687 173.091C457.969 176.524 457.498 180.381 456.745 183.768C456.039 187.013 455.286 188.471 454.439 191.67C452.98 197.079 452.791 203.57 455.71 208.414C456.322 209.402 457.781 208.509 457.263 207.521C454.062 201.5 454.392 195.809 456.463 189.553Z" fill="#ED4450"/>
<path d="M471.055 181.369C470.349 184.238 468.984 186.872 468.137 189.694C467.243 192.563 467.337 195.574 467.431 198.584C467.431 199.101 468.231 199.101 468.278 198.584C468.325 195.527 468.231 192.516 469.172 189.553C470.02 186.872 471.338 184.379 471.997 181.604C472.044 181.04 471.197 180.805 471.055 181.369Z" fill="#D18EBE"/>
<path d="M491.108 163.778C491.014 164.624 490.59 166.412 490.026 167.164C489.178 168.34 488.049 168.058 486.919 168.246C486.024 168.387 485.177 168.575 484.471 169.14C482.212 170.927 484.895 173.42 483.53 175.442C482.682 176.712 481.223 177.606 480.093 178.547C478.822 179.582 477.598 180.71 476.375 181.839C474.35 183.768 472.185 185.743 471.055 188.33C470.632 189.271 471.526 190.776 471.997 189.835C473.503 186.731 476.939 183.627 479.481 181.416C481.458 179.676 484.659 177.982 485.601 175.348C486.119 173.937 485.412 173.326 485.412 171.962C485.365 169.516 487.719 170.269 489.32 169.798C491.767 169.14 492.285 166.741 492.473 164.483C492.615 163.26 491.25 162.602 491.108 163.778Z" fill="#D18EBE"/>
<path d="M466.489 186.072C466.019 184.426 465.218 182.921 464.653 181.275C464.136 179.77 464.418 178.076 464.936 176.618C465.077 176.242 465.171 175.819 465.03 175.489C464.842 175.113 464.371 174.972 463.947 174.831C463.383 174.643 463.053 174.361 462.912 173.796C462.206 170.88 462.112 167.776 462.159 164.765L463.477 164.013C463.477 164.013 463.477 163.966 463.524 163.919C463.477 165.659 463.43 167.399 463.524 169.14C463.571 170.174 463.618 171.256 463.853 172.244C464.042 172.997 464.701 173.467 465.36 173.796C465.783 173.984 466.207 174.219 466.631 174.502C466.772 174.596 466.913 174.69 466.96 174.878C466.96 174.972 466.96 175.066 466.913 175.16C466.678 175.913 466.348 176.618 466.113 177.324C465.877 178.076 465.689 178.876 465.877 179.629C465.972 180.052 466.207 180.475 466.301 180.899C466.442 181.369 466.583 181.886 466.772 182.357C467.054 183.25 467.431 184.097 467.666 184.991C467.996 186.167 466.819 187.201 466.489 186.072Z" fill="#D18EBE"/>
<path d="M446.719 230.004C446.719 230.004 468.09 221.161 469.973 219.327C471.856 217.445 484.848 184.003 489.037 177.512C493.227 171.021 495.533 171.021 498.781 171.491C502.029 171.962 506.689 177.982 506.689 187.295C506.689 196.608 500.664 199.854 497.84 199.854C497.84 199.854 488.99 218.903 482.965 225.865C476.939 232.826 462.253 237.247 462.253 237.247L446.719 230.004Z" fill="#E9946B"/>
<path d="M503.535 189.694C501.794 190.682 501.041 192.422 500.193 194.163C498.969 196.655 498.734 197.314 497.416 199.76C496.898 200.748 498.499 200.089 499.064 199.101C500.193 197.173 499.958 197.878 500.946 195.856C501.794 194.069 502.641 192.234 504.43 191.152C505.277 190.588 504.477 189.177 503.535 189.694Z" fill="#DE835C"/>
<path d="M473.974 216.599C472.138 217.398 470.443 218.433 468.655 219.28C467.666 219.75 468.513 221.161 469.502 220.738C471.291 219.891 473.174 219.044 474.727 217.869C475.48 217.257 474.868 216.222 473.974 216.599Z" fill="#DE835C"/>
<path d="M442.765 257.002L441.917 259.871C441.917 259.871 430.432 263.869 425.395 268.855C420.358 273.888 416.263 287.575 409.861 296.747C403.459 305.872 389.29 317.772 386.984 322.805C386.56 323.699 386.231 324.639 385.948 325.627C384.63 330.19 384.301 335.411 382.418 338.797C380.111 342.889 354.504 337.903 352.715 336.963C350.879 336.069 364.153 330.566 368.249 324.639C369.049 323.464 370.414 321.018 372.109 317.866C378.887 305.026 390.655 280.285 390.655 280.285L419.417 246.937L442.765 257.002Z" fill="#E9946B"/>
<path d="M383.547 340.396C383.5 340.49 383.453 340.631 383.406 340.726C380.629 348.392 374.839 356.388 374.839 356.388C374.839 356.388 373.474 356.388 372.109 355.495C370.744 354.601 375.78 344.065 375.31 343.595C374.839 343.124 375.31 342.701 373.003 342.701C370.697 342.701 360.199 349.992 358.364 350.932C356.528 351.826 354.268 349.568 351.067 346.37C347.913 343.218 343.912 335.693 344.195 333.717C344.195 333.67 344.195 333.623 344.195 333.623C344.665 331.789 348.29 329.954 351.067 329.954C353.798 329.954 359.305 332.682 363.4 333.623C367.496 334.517 374.839 331.789 378.934 329.954C383.03 328.12 385.336 329.296 385.336 329.296C385.336 329.296 386.278 332.635 383.547 340.396Z" fill="#B77E62"/>
<path d="M383.406 340.726C380.629 348.392 374.839 356.388 374.839 356.388C374.839 356.388 373.474 356.388 372.109 355.495C370.744 354.601 375.78 344.065 375.31 343.595C374.839 343.124 375.31 342.701 373.003 342.701C370.697 342.701 360.199 349.992 358.364 350.932C356.528 351.826 354.268 349.568 351.067 346.37C347.913 343.218 343.912 335.693 344.195 333.717C344.713 333.059 345.701 332.306 347.396 333.153C350.126 334.517 358.834 344.112 361.094 344.112C363.4 344.112 374.792 337.245 378.934 338.186C381.429 338.656 382.747 339.879 383.406 340.726Z" fill="#70412A"/>
<path d="M442.765 257.002L441.917 259.871C441.917 259.871 430.432 263.869 425.395 268.855C420.358 273.888 416.263 287.575 409.861 296.747C403.459 305.872 389.29 317.772 386.984 322.805C386.56 323.699 386.231 324.639 385.948 325.627C382.088 319.56 374.839 318.196 372.062 317.866C378.84 305.026 390.608 280.285 390.608 280.285L419.417 246.937L442.765 257.002Z" fill="#51003A"/>
<path d="M492.756 265.327C492.756 265.327 468.561 263.916 448.602 261.612C428.596 259.307 421.629 254.65 421.629 254.65C421.629 254.65 415.557 261.612 407.649 269.043C399.74 276.475 382.088 288.563 375.545 294.584C372.391 297.5 368.155 301.733 364.154 305.637C359.917 309.776 355.869 313.586 353.468 315.232C348.808 318.478 337.652 321.723 331.626 320.359C325.601 318.948 319.999 309.212 319.999 309.212C319.999 309.212 322.306 308.741 326.025 308.271C329.743 307.801 337.887 306.625 347.631 298.723C347.961 298.441 348.29 298.158 348.667 297.829C359.776 287.905 394.609 245.667 401.812 236.683C409.249 227.37 410.661 226.476 415.274 225.065C419.935 223.654 491.061 232.967 491.061 232.967L492.756 265.327Z" fill="#E9946B"/>
<path d="M361.188 308.506C360.764 312.222 360.199 316.408 356.01 320.124C355.021 321.018 353.703 322.052 352.197 323.134C347.396 326.709 341.135 330.801 341.135 330.801C341.135 330.801 339.252 330.331 338.829 329.39C338.358 328.449 345.795 321.488 345.325 320.547C344.854 319.607 329.037 327.979 325.789 327.038C322.541 326.098 315.104 313.116 315.575 310.764C315.716 309.964 316.234 309.212 316.846 308.6C318.07 307.377 319.764 306.578 320.659 306.578C322.071 306.578 325.319 310.294 328.567 313.069C331.815 315.844 341.135 317.255 348.102 313.539C355.069 309.823 361.188 308.506 361.188 308.506Z" fill="#B77E62"/>
<path d="M352.244 323.181C347.443 326.756 341.182 330.848 341.182 330.848C341.182 330.848 339.299 330.378 338.876 329.437C338.405 328.496 345.842 321.535 345.372 320.594C344.901 319.654 329.084 328.026 325.836 327.085C322.588 326.144 315.151 313.163 315.622 310.811C315.763 310.011 316.281 309.259 316.893 308.647C318.446 311.422 324.895 322.476 328.19 322.899C331.909 323.369 344.477 318.242 347.254 319.183C349.232 319.889 351.256 322.052 352.244 323.181Z" fill="#70412A"/>
<path d="M492.756 265.327C492.756 265.327 468.561 263.916 448.602 261.612C428.596 259.307 421.629 254.65 421.629 254.65C421.629 254.65 415.557 261.612 407.649 269.043C399.74 276.475 382.088 288.563 375.545 294.584C372.391 297.5 368.155 301.733 364.154 305.637C357.94 305.261 350.785 299.616 348.714 297.876C359.823 287.952 394.657 245.714 401.859 236.73C409.296 227.417 410.708 226.523 415.321 225.112C419.982 223.701 491.108 233.014 491.108 233.014L492.756 265.327Z" fill="#51003A"/>
<path d="M440.458 259.025C433.962 258.413 428.078 256.485 422.1 253.945C422.853 252.722 423.559 251.499 424.218 250.276C424.736 249.241 423.371 249.241 422.759 250.229C418.428 257.472 413.25 263.117 407.084 268.902C400.917 274.688 394.045 279.532 387.078 284.33C386.231 284.894 386.984 286.211 387.878 285.694C400.494 278.168 412.968 267.914 421.159 255.403C427.278 258.366 433.915 260.059 440.647 260.577C441.823 260.624 441.541 259.119 440.458 259.025Z" fill="#320124"/>
<path d="M435.327 263.211C435.327 263.211 450.673 256.25 464.371 253.239C476.94 250.464 483.012 252.816 492.285 250.464C501.558 248.112 493.65 272.289 493.65 272.289L434.151 270.407L435.327 263.211Z" fill="#ED4450"/>
<path d="M494.827 324.075C502.029 326.144 596.457 313.633 600.599 310.811C604.789 308.036 602.906 220.691 599.187 219.28C595.468 217.869 582.9 216.034 580.123 216.034C577.345 216.034 498.734 219.28 494.074 222.055C489.414 224.83 490.355 240.163 490.355 243.409C490.355 246.654 490.355 260.154 490.355 260.154C490.355 260.154 491.579 323.181 494.827 324.075Z" fill="#ED4450"/>
<path opacity="0.5" d="M512.526 229.816C512.856 227.276 514.362 224.736 517.139 224.548C517.657 224.501 517.657 225.3 517.139 225.394C513.515 225.771 513.28 230.145 513.28 232.92C513.28 236.024 513.327 239.129 513.327 242.186C513.374 248.536 513.421 254.886 513.468 261.188C513.562 273.888 513.609 286.541 513.703 299.24C513.75 306.248 513.844 313.304 514.739 320.265C514.833 320.877 513.891 320.829 513.797 320.265C512.95 313.68 512.809 307.048 512.762 300.369C512.715 293.643 512.668 286.917 512.62 280.191C512.526 266.88 512.432 253.569 512.385 240.305C512.385 238.47 512.385 236.589 512.338 234.754C512.385 233.108 512.291 231.462 512.526 229.816Z" fill="#C02328"/>
<path d="M490.026 252.393C489.508 252.393 489.084 252.816 489.084 253.333C489.084 263.399 489.649 273.418 490.638 283.436C491.861 295.665 493.415 307.895 492.897 320.218C492.85 321.394 494.686 321.394 494.733 320.218C495.298 307.001 493.415 293.878 492.191 280.755C491.344 271.63 490.92 262.505 490.92 253.333C490.92 252.769 490.543 252.393 490.026 252.393Z" fill="#C02328"/>
<path d="M575.556 215.94C563.93 216.787 525.848 217.963 506.642 219.703C506.219 219.75 505.889 220.126 505.936 220.55C505.983 221.02 506.36 221.302 506.83 221.255C518.552 220.456 552.962 219.515 575.556 217.398C576.498 217.304 576.545 215.893 575.556 215.94Z" fill="#C02328"/>
<path opacity="0.5" d="M597.54 220.126C578.569 220.032 555.786 220.926 536.157 222.337C530.649 222.76 525.095 223.231 519.587 223.748C519.069 223.795 519.069 224.595 519.587 224.548C539.217 222.713 557.622 221.82 577.628 221.349C583.182 221.208 591.985 220.879 597.54 220.973C598.104 221.02 598.104 220.126 597.54 220.126Z" fill="#C02328"/>
</g>
<defs>
<clipPath id="clip0">
<rect width="603" height="357" fill="white" transform="translate(0 -0.00012207)"/>
</clipPath>
</defs>
</svg>
