<svg width="40" height="41" viewBox="0 0 40 41" fill="none" xmlns="http://www.w3.org/2000/svg">
<path d="M38.5154 20.1351C38.5194 17.4087 37.9194 14.7152 36.7586 12.2482C35.5978 9.78117 33.9049 7.60192 31.8017 5.86699C28.4815 3.12172 24.3082 1.61981 20.0001 1.61981C15.692 1.61981 11.5187 3.12172 8.19855 5.86699C5.22654 8.32425 3.09635 11.6485 2.10558 15.3753C1.1148 19.1022 1.31293 23.0454 2.67229 26.6542C2.06753 27.3066 1.67269 28.1256 1.53896 29.0051C1.40524 29.8846 1.53878 30.784 1.92229 31.5867L4.10292 36.1326C4.35414 36.6584 4.70664 37.1294 5.14023 37.5186C5.57381 37.9079 6.07995 38.2078 6.62964 38.4011C7.17933 38.5944 7.76176 38.6774 8.34356 38.6452C8.92537 38.613 9.4951 38.4663 10.0201 38.2135L10.4814 37.9923C10.5208 37.9728 10.5578 37.9486 10.5914 37.9201C10.9947 38.0527 11.4282 38.0637 11.8378 37.9517C12.2474 37.8398 12.615 37.6098 12.8948 37.2904C13.1747 36.971 13.3543 36.5764 13.4115 36.1557C13.4687 35.7349 13.4008 35.3066 13.2164 34.9242L8.22542 24.5298C8.0836 24.2323 7.87563 23.9711 7.61741 23.7663C7.35919 23.5615 7.05756 23.4184 6.73558 23.3481C6.41359 23.2777 6.07978 23.2818 5.75965 23.3602C5.43952 23.4387 5.14156 23.5892 4.88854 23.8004C4.21408 21.0129 4.32454 18.093 5.20767 15.3643C6.0908 12.6357 7.71212 10.2048 9.89198 8.34105C10.1153 8.45853 10.3634 8.52109 10.6157 8.52355C10.9538 8.52287 11.2832 8.41656 11.5579 8.21949C14.0242 6.46718 16.9746 5.52575 20 5.52575C23.0253 5.52575 25.9757 6.46718 28.442 8.21949C28.6816 8.39215 28.9642 8.49521 29.2587 8.51727C29.5532 8.53933 29.8481 8.47953 30.1107 8.34449C32.2895 10.2084 33.9099 12.639 34.7924 15.367C35.6749 18.0951 35.7851 21.0142 35.1107 23.801C34.8577 23.5898 34.5598 23.4393 34.2396 23.3609C33.9195 23.2825 33.5857 23.2783 33.2637 23.3487C32.9417 23.4191 32.6401 23.5621 32.3819 23.7669C32.1237 23.9718 31.9157 24.2329 31.7739 24.5304L26.7842 34.9242C26.5975 35.3066 26.528 35.7356 26.5843 36.1573C26.6406 36.5791 26.8203 36.9748 27.1007 37.2949C27.3811 37.615 27.7497 37.8451 28.1604 37.9563C28.5711 38.0676 29.0056 38.0551 29.4092 37.9204C29.4428 37.9487 29.4798 37.9728 29.5192 37.9923L29.9804 38.2139C31.0411 38.7225 32.2604 38.7889 33.37 38.3986C34.4797 38.0083 35.3889 37.1932 35.8976 36.1326L38.0782 31.5867C38.4617 30.784 38.5953 29.8846 38.4616 29.0051C38.3278 28.1256 37.933 27.3066 37.3282 26.6542C38.1165 24.5713 38.5188 22.3622 38.5154 20.1351ZM6.99198 37.367C6.57751 37.2224 6.19583 36.9971 5.869 36.7041C5.54217 36.411 5.27669 36.0561 5.08792 35.6598L2.90761 31.1135C2.52769 30.32 2.47588 29.4086 2.76339 28.5771C3.05091 27.7455 3.65458 27.0608 4.44354 26.6714L9.51386 37.2426C8.72245 37.6147 7.81617 37.6594 6.99198 37.367ZM5.80448 24.4998C5.94891 24.4301 6.10722 24.3938 6.26761 24.3939C6.47031 24.3938 6.66891 24.4509 6.84057 24.5587C7.01222 24.6665 7.14996 24.8206 7.23792 25.0032L12.2295 35.3976C12.2905 35.5248 12.3259 35.6628 12.3336 35.8037C12.3413 35.9446 12.3212 36.0856 12.2744 36.2188C12.2276 36.3519 12.1551 36.4745 12.0609 36.5796C11.9667 36.6847 11.8528 36.7702 11.7256 36.8312C11.5984 36.8922 11.4604 36.9276 11.3195 36.9353C11.1786 36.9431 11.0375 36.9229 10.9044 36.8762C10.7713 36.8294 10.6487 36.7568 10.5436 36.6626C10.4385 36.5685 10.353 36.4545 10.292 36.3273L5.31229 25.9523L5.30323 25.9329C5.2421 25.8058 5.20663 25.6678 5.19885 25.527C5.19107 25.3861 5.21113 25.2451 5.25789 25.112C5.30465 24.9789 5.37718 24.8563 5.47134 24.7513C5.56551 24.6462 5.67946 24.5608 5.80667 24.4998H5.80448ZM3.35917 20.1351C3.35839 21.8331 3.61775 23.5213 4.12823 25.1407C4.1038 25.2989 4.09709 25.4592 4.10823 25.6189L4.00229 25.6695C3.85136 25.7426 3.70467 25.8242 3.56292 25.9139C2.41017 22.6336 2.26567 19.0833 3.14802 15.7202C4.03038 12.3571 5.89919 9.33509 8.51386 7.04324L9.0623 7.61324C7.27032 9.1702 5.83375 11.094 4.84981 13.2543C3.86586 15.4147 3.35751 17.7612 3.35917 20.1351ZM29.076 7.32855C26.4246 5.44434 23.2525 4.43202 19.9998 4.43202C16.7471 4.43202 13.575 5.44434 10.9235 7.32855C10.8234 7.4019 10.7001 7.43655 10.5763 7.4261C10.4526 7.41564 10.3369 7.36079 10.2504 7.27167L9.35605 6.34105C12.4057 3.98893 16.1485 2.71321 19.9998 2.71321C23.8511 2.71321 27.5939 3.98893 30.6435 6.34105L29.7498 7.27136C29.6634 7.36069 29.5475 7.4157 29.4236 7.42622C29.2998 7.43673 29.1763 7.40203 29.076 7.32855ZM30.9373 7.61324L31.4851 7.04324C34.1 9.33494 35.969 12.3569 36.8516 15.72C37.7342 19.0831 37.5899 22.6335 36.4373 25.9139C36.2956 25.8242 36.1489 25.7426 35.9979 25.6695L35.892 25.6185C35.9031 25.459 35.8964 25.2988 35.872 25.1407C36.8444 22.0559 36.8954 18.7544 36.0189 15.641C35.1423 12.5276 33.3763 9.73762 30.9373 7.61324ZM28.2729 36.832C28.0163 36.7084 27.8193 36.4882 27.7249 36.2195C27.6305 35.9508 27.6465 35.6557 27.7695 35.3989L32.7595 25.0045C32.8474 24.8219 32.9852 24.6678 33.1568 24.56C33.3285 24.4522 33.5271 24.395 33.7298 24.3951C33.9113 24.3954 34.0898 24.4416 34.2485 24.5296C34.4073 24.6175 34.5412 24.7442 34.6377 24.8979C34.7343 25.0516 34.7903 25.2273 34.8005 25.4085C34.8108 25.5897 34.7749 25.7706 34.6964 25.9342L34.6873 25.9535L29.7064 36.3285C29.6453 36.4558 29.5599 36.5697 29.4548 36.6639C29.3497 36.7581 29.2271 36.8306 29.094 36.8773C28.9609 36.9241 28.8198 36.9442 28.6789 36.9364C28.5381 36.9286 28.4001 36.8931 28.2729 36.832ZM37.0914 31.1132L34.911 35.6595C34.5305 36.4531 33.8522 37.0645 33.0235 37.3609C32.1948 37.6572 31.2826 37.6146 30.4851 37.2423L35.556 26.6714C36.3453 27.0605 36.9493 27.7451 37.2371 28.5767C37.5249 29.4083 37.4734 30.3198 37.0935 31.1135L37.0914 31.1132Z" fill="black"/>
</svg>
