<svg width="40" height="41" viewBox="0 0 40 41" fill="none" xmlns="http://www.w3.org/2000/svg">
<g clip-path="url(#clip0)">
<path d="M30.0551 0.168304C30.0496 0.168304 30.0442 0.168304 30.0387 0.168304C27.909 0.168304 25.8559 0.944998 24.256 2.3563C24.0139 2.56986 23.9907 2.93923 24.2043 3.18139C24.4177 3.42356 24.7872 3.44671 25.0293 3.23307C26.4156 2.01031 28.194 1.33744 30.0387 1.33744H30.053C34.2253 1.34531 37.6199 4.74632 37.6199 8.91887C37.6199 13.0993 34.2189 16.5003 30.0363 16.5003C30.0362 16.5003 30.0362 16.5003 30.0361 16.5003C29.6809 16.5003 29.3611 16.6991 29.2013 17.0192C28.6845 18.0544 27.371 18.6095 26.2966 18.8991C26.7686 18.0984 26.9687 17.1741 27.0514 16.6149C27.1093 16.2238 26.9126 15.8393 26.5622 15.6581C24.0301 14.3492 22.4571 11.7669 22.457 8.91895C22.457 7.59385 22.8055 6.28903 23.4648 5.14538C23.626 4.86572 23.5299 4.50828 23.2503 4.34702C22.9704 4.18583 22.6131 4.2817 22.4518 4.56151C21.6903 5.8824 21.2878 7.38918 21.2878 8.91895C21.2879 12.1461 23.038 15.0778 25.8672 16.6129C25.7779 17.1124 25.526 18.1735 24.9299 18.7857C24.6681 19.0544 24.6113 19.4578 24.7885 19.7893C24.9409 20.0743 25.233 20.2454 25.5464 20.2454C25.5987 20.2454 25.6518 20.2405 25.7048 20.2307C28.4882 19.7146 29.6754 18.5782 30.1804 17.6682C34.9403 17.5921 38.789 13.6964 38.789 8.91879C38.789 4.10282 34.871 0.177346 30.0551 0.168304Z" fill="black"/>
<path d="M26.4831 6.14523C26.1602 6.14523 25.8986 6.40696 25.8986 6.7298V11.7787C25.8986 12.1016 26.1602 12.3633 26.4831 12.3633C26.806 12.3633 27.0677 12.1016 27.0677 11.7787V9.75224H29.3925V11.7787C29.3925 12.1016 29.6541 12.3633 29.977 12.3633C30.3 12.3633 30.5616 12.1016 30.5616 11.7787V6.7298C30.5616 6.40696 30.3 6.14523 29.977 6.14523C29.6541 6.14523 29.3925 6.40696 29.3925 6.7298V8.58311H27.0677V6.7298C27.0677 6.40696 26.806 6.14523 26.4831 6.14523Z" fill="black"/>
<path d="M32.9233 7.40072C33.2938 7.40072 33.5941 7.10037 33.5941 6.72987C33.5941 6.35937 33.2938 6.05902 32.9233 6.05902C32.5528 6.05902 32.2524 6.35937 32.2524 6.72987C32.2524 7.10037 32.5528 7.40072 32.9233 7.40072Z" fill="black"/>
<path d="M32.9232 7.98483C32.6003 7.98483 32.3386 8.24656 32.3386 8.5694V11.7788C32.3386 12.1017 32.6003 12.3634 32.9232 12.3634C33.2461 12.3634 33.5077 12.1017 33.5077 11.7788V8.5694C33.5077 8.24656 33.2461 7.98483 32.9232 7.98483Z" fill="black"/>
<path d="M20.1318 15.4491H19.7725V13.8014C19.7725 12.0086 19.1197 10.2475 17.9343 8.84244C17.2641 8.04798 16.4353 7.38134 15.5071 6.87487C15.6973 6.27471 15.7014 5.62351 15.6642 5.15188C15.6642 5.15188 15.6642 5.15188 15.6642 5.1518C15.6293 4.70878 15.3524 4.33505 14.9717 4.15539C15.0712 3.5511 15.036 2.92562 14.8433 2.33739C14.4049 0.999588 13.167 0.135132 11.6898 0.135132C10.2146 0.135132 8.97818 0.999666 8.53976 2.33762C8.347 2.92593 8.31084 3.55165 8.41022 4.15601C8.03001 4.33582 7.75371 4.70932 7.71887 5.15188C7.68169 5.62327 7.68567 6.27425 7.87577 6.87432C6.94755 7.38087 6.11903 8.04806 5.44872 8.84252C4.2633 10.2477 3.61046 12.0088 3.61046 13.8014V15.4491H3.25138C2.12644 15.4491 1.21124 16.3643 1.21124 17.4893C1.21124 18.6142 2.12644 19.5294 3.25138 19.5294H3.65333C3.99503 22.8476 6.35285 25.5764 9.47756 26.4678V27.0338C7.65605 27.4201 5.98879 28.3842 4.74093 29.8106C4.52831 30.0536 4.55301 30.4229 4.79596 30.6355C5.03898 30.8482 5.40827 30.8235 5.62082 30.5804C6.64553 29.4091 7.99681 28.5974 9.4788 28.2316C9.50507 29.4298 10.4872 30.3966 11.6916 30.3966C12.8965 30.3966 13.879 29.4288 13.9044 28.2299C17.1814 29.0383 19.6188 32.0024 19.6188 35.5254V38.9659H17.016V35.438C17.016 35.1152 16.7544 34.8535 16.4315 34.8535C16.1086 34.8535 15.8469 35.1152 15.8469 35.438V38.9659H7.53609V35.438C7.53609 35.1152 7.27444 34.8535 6.95153 34.8535C6.62861 34.8535 6.36696 35.1152 6.36696 35.438V38.9659H3.76424V35.5254C3.76424 34.5236 3.958 33.551 4.34031 32.6346C4.46463 32.3366 4.32379 31.9943 4.02589 31.8701C3.72792 31.7457 3.3856 31.8865 3.26128 32.1846C2.81927 33.2443 2.59511 34.3683 2.59511 35.5254V39.5505C2.59511 39.8733 2.85676 40.1351 3.17967 40.1351H20.2033C20.5262 40.1351 20.7878 39.8733 20.7878 39.5505V35.5254C20.7878 31.3549 17.832 27.8626 13.9055 27.0313V26.4678C17.0302 25.5764 19.388 22.8475 19.7297 19.5293H20.1318C21.2567 19.5293 22.1719 18.6141 22.1719 17.4892C22.1719 16.3644 21.2567 15.4491 20.1318 15.4491ZM3.61038 18.3603H3.2513C2.77102 18.3603 2.3803 17.9696 2.3803 17.4893C2.3803 17.0091 2.77102 16.6183 3.2513 16.6183H3.61038V18.3603ZM9.65067 2.70161C9.98823 1.67137 10.9254 1.30426 11.6898 1.30426C12.4208 1.30426 13.3943 1.6702 13.7323 2.70153C13.8726 3.12959 13.8899 3.5935 13.8042 4.04058H9.57896C9.49307 3.5935 9.51045 3.12959 9.65067 2.70161ZM8.88426 5.2437C8.88582 5.22437 8.90016 5.20971 8.91778 5.20971H14.4653C14.4828 5.20971 14.4972 5.22429 14.4988 5.24362C14.5452 5.83364 14.4835 6.35164 14.3249 6.70215C14.3184 6.7168 14.3055 6.72623 14.292 6.72623H9.09104C9.07763 6.72623 9.0647 6.7168 9.05815 6.70223C8.89961 6.35149 8.83788 5.83356 8.88426 5.2437ZM12.7363 28.1827C12.7363 28.7589 12.2676 29.2275 11.6915 29.2275C11.1153 29.2275 10.6466 28.7588 10.6466 28.1827V26.7088C10.9888 26.7532 11.3375 26.7766 11.6915 26.7766C12.0455 26.7766 12.3942 26.7532 12.7363 26.7088V28.1827ZM18.6034 18.6955C18.6034 22.5067 15.5028 25.6074 11.6915 25.6074C7.88426 25.6074 4.78622 22.5133 4.77967 18.7075V16.5173C7.95745 16.0723 9.73251 14.1967 11.605 12.2159C11.6337 12.1855 11.6626 12.155 11.6914 12.1245C11.7203 12.1551 11.749 12.1855 11.7778 12.2159C13.6503 14.1968 15.4254 16.0724 18.6033 16.5174V18.6955H18.6034ZM18.6034 15.336C15.9284 14.9044 14.3895 13.2766 12.6275 11.4127C12.5099 11.2883 12.3916 11.1632 12.2719 11.0374C12.1215 10.8791 11.9099 10.7884 11.6915 10.7884C11.473 10.7884 11.2613 10.8791 11.111 11.0374C10.9914 11.1631 10.873 11.2883 10.7554 11.4127C8.99354 13.2766 7.45457 14.9043 4.77951 15.336V13.8014C4.77951 12.2843 5.33446 10.7909 6.34225 9.59638C6.9647 8.85858 7.74724 8.24821 8.62635 7.80035C8.77124 7.86146 8.92853 7.89529 9.09104 7.89529H14.292C14.4551 7.89529 14.6129 7.86123 14.7582 7.79973C15.6368 8.24766 16.4185 8.85881 17.0408 9.59638C18.0485 10.7908 18.6035 12.2841 18.6035 13.8014V15.336H18.6034ZM20.1318 18.3603H19.7725V16.6183H20.1318C20.6121 16.6183 21.0028 17.0091 21.0028 17.4893C21.0028 17.9695 20.6121 18.3603 20.1318 18.3603Z" fill="black"/>
<path d="M9.01724 16.8185C8.69433 16.8185 8.43268 17.0802 8.43268 17.403V18.5746C8.43268 18.8974 8.69433 19.1592 9.01724 19.1592C9.34016 19.1592 9.60181 18.8974 9.60181 18.5746V17.403C9.60181 17.0802 9.34008 16.8185 9.01724 16.8185Z" fill="black"/>
<path d="M14.3661 19.1592C14.689 19.1592 14.9506 18.8974 14.9506 18.5746V17.403C14.9506 17.0802 14.689 16.8185 14.3661 16.8185C14.0431 16.8185 13.7815 17.0802 13.7815 17.403V18.5746C13.7815 18.8974 14.0432 19.1592 14.3661 19.1592Z" fill="black"/>
<path d="M11.7148 21.8546C11.341 21.8546 10.9857 21.6925 10.7401 21.41C10.5282 21.1662 10.1591 21.1404 9.91539 21.3521C9.67174 21.5639 9.64587 21.9331 9.85764 22.1768C10.3254 22.7151 11.0023 23.0238 11.7148 23.0238C12.3932 23.0238 13.048 22.7394 13.5116 22.2437C13.7321 22.0079 13.7196 21.638 13.4838 21.4175C13.248 21.1969 12.878 21.2094 12.6575 21.4452C12.4108 21.7093 12.0759 21.8546 11.7148 21.8546Z" fill="black"/>
</g>
<defs>
<clipPath id="clip0">
<rect width="40" height="40" fill="white" transform="translate(0 0.135132)"/>
</clipPath>
</defs>
</svg>
