<svg width="74" height="74" viewBox="0 0 74 74" fill="none" xmlns="http://www.w3.org/2000/svg">
<ellipse cx="36.8707" cy="36.8212" rx="31.7143" ry="31.7143" fill="#B9272D"/>
<path d="M32.3914 43.9318L44.427 37L32.3914 30.0681V43.9318Z" fill="white"/>
<path d="M37 0C16.5686 0 0 16.5686 0 37C0 57.4314 16.5686 74 37 74C57.4314 74 74 57.4314 74 37C74 16.5686 57.4314 0 37 0ZM60.1194 37.0378C60.1194 37.0378 60.1194 44.5416 59.1675 48.16C58.634 50.1405 57.0723 51.7021 55.0918 52.2351C51.4734 53.1875 37 53.1875 37 53.1875C37 53.1875 22.5644 53.1875 18.9082 52.1972C16.9277 51.6643 15.366 50.1021 14.8325 48.1216C13.8801 44.5416 13.8801 37 13.8801 37C13.8801 37 13.8801 29.4968 14.8325 25.8784C15.3655 23.8979 16.9655 22.2979 18.9082 21.7649C22.5266 20.8125 37 20.8125 37 20.8125C37 20.8125 51.4734 20.8125 55.0918 21.8028C57.0723 22.3357 58.634 23.8979 59.1675 25.8784C60.1577 29.4968 60.1194 37.0378 60.1194 37.0378Z" fill="white"/>
</svg>
