<svg width="110" height="56" viewBox="0 0 110 56" fill="none" xmlns="http://www.w3.org/2000/svg">
<path d="M84.722 30.5714C84.6012 29.7492 84.4402 28.9384 84.2388 28.1277C83.8994 26.7573 83.4393 25.4041 82.7375 24.1765C81.6388 22.258 79.9764 20.705 78.1472 19.4488C74.8109 17.1535 71.7046 16.8052 67.7816 16.7938C63.847 16.7824 59.7629 17.0165 56.0412 15.5091C53.5677 14.5099 51.4279 12.7913 48.9256 11.8549C43.4265 9.79935 36.5928 12.3002 33.7569 17.4105C32.2383 20.1397 31.7264 23.5028 29.4715 25.6725C27.74 27.334 25.2436 28.0192 23.5179 29.6864C21.2802 31.839 20.8661 35.0993 21.0329 38.0455C21.217 41.2144 23.0519 43.6239 24.3462 46.4274C25.767 49.5107 29.0516 51.6975 32.4684 52.4284C34.4875 52.8623 36.5698 52.8852 38.6348 52.9023C45.8137 52.9765 52.9925 53.045 60.1713 53.1192C63.732 53.1535 67.3099 53.1878 70.8188 52.594C74.3277 52.0001 77.7963 50.7269 80.4941 48.4315C83.0711 46.239 83.9627 42.4591 84.561 39.2217C85.0844 36.3668 85.1419 33.432 84.722 30.5714Z" fill="#FFE2E3"/>
<path d="M62.5462 41.6141L58.8258 43.8772C55.2528 46.0506 50.935 46.5185 46.9796 45.1605C46.4638 44.9834 46.1099 44.5552 46.0333 44.0152C45.9566 43.4751 46.1774 42.9655 46.6237 42.6518L50.493 39.9327C51.5891 39.1624 51.8659 37.6856 51.123 36.5706C50.5591 35.7243 49.5527 35.3188 48.5599 35.5363L38.8543 37.6655C38.7923 36.7435 38.0244 36.0118 37.0869 36.0118H28.9399C28.1459 36.0118 27.5 36.6577 27.5 37.4518V44.7726C27.5 45.2176 27.8606 45.5782 28.3057 45.5782C28.7507 45.5782 29.1114 45.2176 29.1114 44.7726V37.6231H37.0868C37.1762 37.6231 37.249 37.6958 37.249 37.7852V51.5299C37.249 51.6193 37.1762 51.692 37.0868 51.692H29.1114V47.9938C29.1114 47.5487 28.7507 47.1881 28.3057 47.1881C27.8606 47.1881 27.5 47.5487 27.5 47.9938V51.8634C27.5 52.6574 28.1459 53.3033 28.9399 53.3033H37.0868C38.0648 53.3033 38.8603 52.5077 38.8603 51.5298V51.4845L38.9628 51.514C41.696 52.3026 44.4896 52.6888 47.2643 52.6888C54.1212 52.6888 60.8627 50.3309 66.2904 45.8629C66.8565 45.3968 67.1935 44.7092 67.2152 43.9762C67.2814 41.7314 64.4999 40.4249 62.5462 41.6141ZM65.2662 44.6191C52.7706 54.9048 39.0669 49.8157 38.8602 49.8076V39.314L48.9052 37.1102C49.2452 37.0357 49.5891 37.1746 49.7821 37.464C50.0361 37.8455 49.9414 38.3507 49.5664 38.6142L45.6971 41.3333C44.7594 41.9924 44.2767 43.1067 44.4378 44.2416C44.5988 45.3763 45.3722 46.3124 46.4562 46.6845C50.866 48.1983 55.6797 47.6769 59.663 45.2537L63.3835 42.9906C64.3544 42.4002 65.6298 43.0637 65.6045 43.9286C65.5966 44.2009 65.4764 44.446 65.2662 44.6191Z" fill="black"/>
<path d="M34.562 47.7008V46.3833C34.562 45.9383 34.2014 45.5776 33.7563 45.5776C33.3113 45.5776 32.9507 45.9383 32.9507 46.3833V47.7008C32.9507 48.1459 33.3113 48.5065 33.7563 48.5065C34.2014 48.5065 34.562 48.1458 34.562 47.7008Z" fill="black"/>
<path d="M81.06 2.2373H72.9132C71.9353 2.2373 71.1397 3.03288 71.1397 4.01076V4.05609L71.0371 4.02655C69.4627 3.57225 67.8368 3.2458 66.2047 3.05641C65.7629 3.00538 65.3628 3.32185 65.3114 3.76379C65.2601 4.20584 65.5769 4.60577 66.0188 4.65702C68.7555 4.97456 70.9083 5.67517 71.1398 5.73329V16.2267L61.095 18.4305C60.7548 18.5053 60.4109 18.3662 60.218 18.0768C59.9639 17.6953 60.0586 17.1901 60.4337 16.9266L64.303 14.2075C65.2407 13.5483 65.7233 12.434 65.5623 11.2993C65.4013 10.1645 64.6278 9.22842 63.5436 8.85619C59.1342 7.34249 54.3203 7.86392 50.3371 10.2871L46.6167 12.5501C45.6201 13.1567 44.3706 12.4541 44.3956 11.6119C44.4036 11.3399 44.5237 11.0948 44.7339 10.9217C49.7932 6.75714 56.1856 4.46838 62.7493 4.46838C62.7949 4.46838 62.841 4.46849 62.8866 4.4687H62.8906C63.3336 4.4687 63.694 4.11055 63.6961 3.66689C63.6984 3.22195 63.3394 2.8595 62.8943 2.85735C55.9075 2.82727 49.0941 5.24548 43.7097 9.67777C43.1436 10.1438 42.8065 10.8314 42.7849 11.5643C42.7187 13.7965 45.475 15.1305 47.4539 13.9267L51.1743 11.6636C54.7474 9.49021 59.065 9.02259 63.0204 10.3802C63.5364 10.5572 63.8902 10.9855 63.9668 11.5256C64.0435 12.0657 63.8228 12.5754 63.3764 12.889L59.5073 15.6081C58.411 16.3783 58.1342 17.8552 58.8771 18.9701C59.3398 19.6646 60.1003 20.0625 60.9072 20.0625C61.0836 20.0625 61.2621 20.0435 61.4402 20.0045L71.1458 17.8751C71.2078 18.7972 71.9757 19.529 72.9132 19.529H81.06C81.8541 19.529 82.5 18.8831 82.5 18.0891V3.67721C82.5 2.88324 81.854 2.2373 81.06 2.2373ZM80.8887 17.9176H72.9132C72.8238 17.9176 72.751 17.8448 72.751 17.7555V4.01076C72.751 3.92138 72.8238 3.84865 72.9132 3.84865H80.8887V17.9176Z" fill="black"/>
<path d="M76.2438 9.96316C76.6888 9.96316 77.0494 9.60255 77.0494 9.1575V7.83997C77.0494 7.39492 76.6888 7.0343 76.2438 7.0343C75.7987 7.0343 75.4381 7.39492 75.4381 7.83997V9.1575C75.4381 9.60255 75.7987 9.96316 76.2438 9.96316Z" fill="black"/>
<path d="M61.7884 29.4542C62.1885 29.6501 62.6706 29.4844 62.8661 29.0848C63.3102 28.1775 63.5353 27.2574 63.5353 26.3502C63.5353 23.5621 61.4838 21.3781 58.8649 21.3781C57.0023 21.3781 55.714 22.2252 55.0003 22.874C54.2866 22.2252 52.9982 21.3781 51.1356 21.3781C48.5167 21.3781 46.4653 23.5621 46.4653 26.3502C46.4653 30.8265 51.595 33.9479 54.6527 35.41C54.7624 35.4625 54.8814 35.4888 55.0002 35.4888C55.119 35.4888 55.2379 35.4624 55.3477 35.41C57.5766 34.3442 59.3891 33.1575 60.7346 31.8829C61.0577 31.5768 61.0715 31.0669 60.7655 30.7438C60.4592 30.4206 59.9493 30.407 59.6264 30.7129C58.472 31.8065 56.9169 32.8397 55.0002 33.7872C50.594 31.6062 48.0765 28.9078 48.0765 26.3502C48.0765 24.4342 49.3916 22.9894 51.1355 22.9894C53.2244 22.9894 54.2962 24.4593 54.3378 24.5175C54.4883 24.7347 54.7343 24.8666 54.9986 24.8666C55.2629 24.8666 55.5089 24.7391 55.6594 24.5218C55.704 24.4593 56.7759 22.9894 58.8647 22.9894C60.6085 22.9894 61.9237 24.4342 61.9237 26.3502C61.9237 27.0099 61.7538 27.6915 61.4186 28.3765C61.2233 28.7762 61.3887 29.2587 61.7884 29.4542Z" fill="black"/>
</svg>
