<svg width="22" height="22" viewBox="0 0 22 22" fill="none" xmlns="http://www.w3.org/2000/svg">
<path d="M0 0.733112C0 0.538614 0.0772641 0.352082 0.214795 0.214551C0.352326 0.0770199 0.538858 -0.000244141 0.733356 -0.000244141H2.93342C3.09701 -0.000198949 3.25588 0.0545385 3.38478 0.155264C3.51367 0.255989 3.60519 0.396918 3.64478 0.55564L4.2388 2.93318H21.2673C21.375 2.93328 21.4813 2.95709 21.5788 3.00292C21.6762 3.04875 21.7624 3.11548 21.8311 3.19837C21.8999 3.28125 21.9495 3.37825 21.9765 3.48249C22.0036 3.58672 22.0073 3.69563 21.9875 3.80147L19.7874 15.5352C19.756 15.7032 19.6668 15.855 19.5353 15.9643C19.4038 16.0735 19.2382 16.1334 19.0673 16.1336H5.86685C5.69588 16.1334 5.53033 16.0735 5.39884 15.9643C5.26734 15.855 5.17815 15.7032 5.14669 15.5352L2.94809 3.82347L2.36141 1.46647H0.733356C0.538858 1.46647 0.352326 1.3892 0.214795 1.25167C0.0772641 1.11414 0 0.92761 0 0.733112ZM7.33356 16.1336C6.55557 16.1336 5.80944 16.4426 5.25932 16.9928C4.70919 17.5429 4.40014 18.289 4.40014 19.067C4.40014 19.845 4.70919 20.5911 5.25932 21.1413C5.80944 21.6914 6.55557 22.0004 7.33356 22.0004C8.11155 22.0004 8.85768 21.6914 9.4078 21.1413C9.95793 20.5911 10.267 19.845 10.267 19.067C10.267 18.289 9.95793 17.5429 9.4078 16.9928C8.85768 16.4426 8.11155 16.1336 7.33356 16.1336ZM17.6005 16.1336C16.8226 16.1336 16.0764 16.4426 15.5263 16.9928C14.9762 17.5429 14.6671 18.289 14.6671 19.067C14.6671 19.845 14.9762 20.5911 15.5263 21.1413C16.0764 21.6914 16.8226 22.0004 17.6005 22.0004C18.3785 22.0004 19.1247 21.6914 19.6748 21.1413C20.2249 20.5911 20.534 19.845 20.534 19.067C20.534 18.289 20.2249 17.5429 19.6748 16.9928C19.1247 16.4426 18.3785 16.1336 17.6005 16.1336ZM7.33356 17.6003C7.72256 17.6003 8.09562 17.7548 8.37068 18.0299C8.64574 18.3049 8.80027 18.678 8.80027 19.067C8.80027 19.456 8.64574 19.8291 8.37068 20.1041C8.09562 20.3792 7.72256 20.5337 7.33356 20.5337C6.94456 20.5337 6.5715 20.3792 6.29644 20.1041C6.02138 19.8291 5.86685 19.456 5.86685 19.067C5.86685 18.678 6.02138 18.3049 6.29644 18.0299C6.5715 17.7548 6.94456 17.6003 7.33356 17.6003ZM17.6005 17.6003C17.9895 17.6003 18.3626 17.7548 18.6377 18.0299C18.9127 18.3049 19.0673 18.678 19.0673 19.067C19.0673 19.456 18.9127 19.8291 18.6377 20.1041C18.3626 20.3792 17.9895 20.5337 17.6005 20.5337C17.2115 20.5337 16.8385 20.3792 16.5634 20.1041C16.2884 19.8291 16.1338 19.456 16.1338 19.067C16.1338 18.678 16.2884 18.3049 16.5634 18.0299C16.8385 17.7548 17.2115 17.6003 17.6005 17.6003Z" fill="#51003A"/>
</svg>
