<svg width="35" height="34" viewBox="0 0 35 34" fill="none" xmlns="http://www.w3.org/2000/svg">
<g clip-path="url(#clip0)">
<path d="M17.5 34C26.8888 34 34.5 26.3888 34.5 17C34.5 7.61116 26.8888 0 17.5 0C8.11116 0 0.5 7.61116 0.5 17C0.5 26.3888 8.11116 34 17.5 34Z" fill="#F0F0F0"/>
<path d="M4.01422 6.65015C2.67885 8.38753 1.67193 10.39 1.08563 12.5654H9.92949L4.01422 6.65015Z" fill="#0052B4"/>
<path d="M33.9143 12.5654C33.328 10.39 32.321 8.38754 30.9857 6.65015L25.0706 12.5654H33.9143Z" fill="#0052B4"/>
<path d="M1.08563 21.4351C1.672 23.6104 2.67892 25.6129 4.01421 27.3502L9.92928 21.4351H1.08563Z" fill="#0052B4"/>
<path d="M27.8498 3.51434C26.1124 2.17898 24.11 1.17206 21.9346 0.585693V9.42948L27.8498 3.51434Z" fill="#0052B4"/>
<path d="M7.15033 30.4859C8.88771 31.8212 10.8902 32.8282 13.0655 33.4145V24.5708L7.15033 30.4859Z" fill="#0052B4"/>
<path d="M13.0655 0.585693C10.8901 1.17206 8.88765 2.17898 7.15033 3.51427L13.0655 9.42941V0.585693Z" fill="#0052B4"/>
<path d="M21.9346 33.4145C24.11 32.8282 26.1125 31.8212 27.8498 30.4859L21.9346 24.5708V33.4145Z" fill="#0052B4"/>
<path d="M25.0706 21.4351L30.9857 27.3503C32.321 25.6129 33.328 23.6104 33.9143 21.4351H25.0706Z" fill="#0052B4"/>
<path d="M34.3561 14.7826H19.7175H19.7174V0.143902C18.9916 0.0494063 18.2515 0 17.5 0C16.7483 0 16.0084 0.0494063 15.2826 0.143902V14.7825V14.7826H0.643902C0.549406 15.5084 0.5 16.2485 0.5 17C0.5 17.7517 0.549406 18.4916 0.643902 19.2174H15.2825H15.2826V33.8561C16.0084 33.9506 16.7483 34 17.5 34C18.2515 34 18.9916 33.9507 19.7174 33.8561V19.2175V19.2174H34.3561C34.4506 18.4916 34.5 17.7517 34.5 17C34.5 16.2485 34.4506 15.5084 34.3561 14.7826Z" fill="#D80027"/>
<path d="M21.9346 21.4349L29.5206 29.0209C29.8695 28.6721 30.2023 28.3075 30.5199 27.9295L24.0252 21.4348H21.9346V21.4349Z" fill="#D80027"/>
<path d="M13.0652 21.4348H13.0651L5.47913 29.0207C5.82789 29.3696 6.19253 29.7024 6.57051 30.02L13.0652 23.5252V21.4348Z" fill="#D80027"/>
<path d="M13.0652 12.5654V12.5653L5.4792 4.97925C5.1303 5.32801 4.79747 5.69265 4.47992 6.07064L10.9746 12.5654H13.0652V12.5654Z" fill="#D80027"/>
<path d="M21.9346 12.5653L29.5207 4.9792C29.1719 4.6303 28.8073 4.29747 28.4293 3.97998L21.9346 10.4747V12.5653Z" fill="#D80027"/>
</g>
<defs>
<clipPath id="clip0">
<rect width="34" height="34" fill="white" transform="translate(0.5)"/>
</clipPath>
</defs>
</svg>
