<svg width="27" height="26" viewBox="0 0 27 26" fill="none" xmlns="http://www.w3.org/2000/svg">
<path fill-rule="evenodd" clip-rule="evenodd" d="M2.66669 6.5C2.66669 5.63805 3.0091 4.8114 3.61859 4.2019C4.22808 3.59241 5.05473 3.25 5.91669 3.25H10.1742C10.7092 3.25004 11.2359 3.38216 11.7077 3.63464C12.1794 3.88713 12.5814 4.25216 12.8782 4.69733L13.7579 6.01792C13.8568 6.16624 13.9909 6.28785 14.1481 6.37194C14.3053 6.45604 14.4809 6.50003 14.6592 6.5H21.0834C21.9453 6.5 22.772 6.84241 23.3815 7.4519C23.9909 8.0614 24.3334 8.88805 24.3334 9.75V19.5C24.3334 20.362 23.9909 21.1886 23.3815 21.7981C22.772 22.4076 21.9453 22.75 21.0834 22.75H5.91669C5.05473 22.75 4.22808 22.4076 3.61859 21.7981C3.0091 21.1886 2.66669 20.362 2.66669 19.5V6.5ZM14.5834 11.9167C14.5834 11.6293 14.4692 11.3538 14.2661 11.1506C14.0629 10.9475 13.7873 10.8333 13.5 10.8333C13.2127 10.8333 12.9372 10.9475 12.734 11.1506C12.5308 11.3538 12.4167 11.6293 12.4167 11.9167V15.8015L11.0159 14.4008C10.8116 14.2034 10.538 14.0942 10.2539 14.0967C9.96987 14.0992 9.69816 14.2131 9.4973 14.4139C9.29644 14.6148 9.18251 14.8865 9.18004 15.1706C9.17757 15.4546 9.28677 15.7283 9.4841 15.9326L12.7341 19.1826C12.9373 19.3857 13.2128 19.4998 13.5 19.4998C13.7873 19.4998 14.0628 19.3857 14.2659 19.1826L17.5159 15.9326C17.7133 15.7283 17.8225 15.4546 17.82 15.1706C17.8175 14.8865 17.7036 14.6148 17.5027 14.4139C17.3019 14.2131 17.0302 14.0992 16.7461 14.0967C16.4621 14.0942 16.1884 14.2034 15.9841 14.4008L14.5834 15.8015V11.9167Z" fill="currentcolor"/>
</svg>
