<svg width="163" height="162" viewBox="0 0 163 162" fill="none" xmlns="http://www.w3.org/2000/svg">
<rect x="6.66064" y="0.732422" width="156.119" height="156.119" rx="78.0596" fill="url(#paint0_linear)"/>
<g clip-path="url(#clip0)">
<path d="M55.8099 47.7626C55.6972 47.7626 55.5845 47.6491 55.5845 47.5357C55.5845 46.5146 55.7536 45.7772 56.2045 45.0964C56.43 44.6993 56.7682 44.359 57.1064 44.0186C57.3882 43.735 58.121 42.8274 58.2901 42.5437C58.7974 41.8063 59.2484 40.6717 59.3611 39.9343C59.3611 39.8208 59.5302 40.1612 59.6429 40.1612C59.7557 40.1612 59.812 40.2746 59.812 40.3881C59.6993 41.1823 58.741 42.5437 58.1774 43.3379C57.9519 43.6783 57.6701 43.9619 57.3882 44.3023C57.1064 44.6426 56.7682 44.983 56.5427 45.3233C56.1481 45.8906 55.979 46.5713 55.979 47.5357C55.979 47.6491 55.9227 47.7626 55.8099 47.7626Z" fill="#621406"/>
<path d="M59.8121 37.3816C59.8121 37.3816 56.2609 35.7933 57.6701 30.9147C58.2338 28.9293 60.263 26.8304 63.7014 28.4188C65.6179 29.3264 65.5615 30.0638 66.9707 30.9147C68.9999 31.3686 70.24 33.6944 70.7473 35.5096C70.8601 35.7933 70.9164 36.1336 70.9728 36.474C71.2546 38.1758 72.1002 39.7074 73.3402 40.8987C74.1857 41.6929 75.0313 42.7707 75.3695 43.9052C76.8914 49.8615 72.4384 53.1517 72.4384 53.1517L57.4446 51.6768C57.4446 51.6768 55.8663 48.2164 56.881 46.3445C57.8956 44.4725 59.9248 40.9554 59.9248 40.9554L59.8121 37.3816Z" fill="#621406"/>
<path d="M46.2275 140.398C45.6638 140.965 57.5573 140.852 59.5302 140.852C71.5365 140.908 76.3841 140.852 76.3841 140.171C76.3841 139.433 67.1962 139.717 55.0208 139.547C47.5803 139.377 43.8037 140.057 46.2275 140.398Z" fill="#847895"/>
<path d="M72.4946 127.805C71.9309 126.727 70.6344 124.968 70.2399 123.777C69.9017 122.586 69.1689 115.722 68.718 113.226C68.267 110.73 66.6887 106.702 65.7868 105.398C65.3359 104.717 64.6595 103.185 64.0958 101.824C62.9121 105.057 61.672 108.234 60.7701 111.581C62.0102 115.098 63.3067 118.558 64.2649 120.373C66.6324 124.855 68.0415 128.315 68.267 129.393C68.4925 130.471 69.2253 136.37 70.409 137.108C71.5363 137.789 73.1146 128.939 72.4946 127.805Z" fill="#DE835C"/>
<path d="M67.8725 140.228C67.478 140.171 67.1961 140.001 67.027 139.604C66.7452 138.98 66.8016 137.732 67.5343 135.746C68.098 134.158 68.0416 132.513 68.0416 131.945C68.098 130.754 67.9289 130.073 68.2107 129.79C68.2107 129.79 69.2254 129.336 69.7327 129.449C70.1836 129.563 70.6909 130.527 71.3673 130.3C71.7055 130.187 72.2692 128.542 72.3256 127.351C72.3256 127.351 72.7765 128.031 73.1147 128.315C73.5093 128.599 74.0166 129.052 74.1293 129.506C74.5239 131.095 71.5364 140.625 67.8725 140.228Z" fill="#5B74C8"/>
<path d="M67.8725 140.228C67.4779 140.171 67.1961 140.001 67.027 139.604C67.4215 139.83 68.4925 139.547 69.338 138.866C70.6909 137.845 72.6074 133.931 72.7201 133.08C72.7765 132.229 72.3819 131.889 72.3819 131.435C72.3819 130.981 73.0019 129.336 73.0583 128.315C73.5656 128.655 74.0729 129.223 74.1856 129.676C74.6929 131.265 71.7055 140.681 67.8725 140.228Z" fill="white"/>
<path d="M70.5217 133.988C70.1272 133.931 69.789 133.931 69.3944 133.988C69.2816 133.988 69.1125 134.045 68.9998 134.045C68.8307 134.102 68.6616 134.102 68.5489 134.102C68.4925 134.102 68.4925 134.102 68.4361 134.102C68.5489 133.875 69.2816 133.364 69.4508 133.307C69.789 133.024 70.1272 132.797 70.409 132.513C70.6908 132.286 70.8036 131.889 70.3526 131.776C70.0144 131.719 69.5071 131.832 69.1125 131.889C68.718 131.946 68.3234 132.059 67.9288 132.173C67.647 132.23 67.7597 132.627 68.0416 132.57C68.4925 132.456 68.9434 132.343 69.3944 132.343C69.5635 132.343 69.7326 132.343 69.9017 132.343C69.9017 132.343 69.9017 132.343 69.8453 132.4C69.2253 132.967 68.4925 133.364 67.9288 133.988C67.7034 134.272 67.647 134.612 68.0416 134.669C68.7743 134.839 69.5635 134.328 70.2963 134.499C70.7472 134.499 70.8599 134.045 70.5217 133.988Z" fill="#333A74"/>
<path d="M60.4883 137.051C60.4883 137.051 59.9247 133.874 60.0374 132.91C60.1501 131.945 65.6742 119.522 66.1815 115.154C66.3506 113.793 66.4069 112.772 66.4069 111.977C66.4633 110.219 66.3506 109.538 66.6324 108.631C66.9706 107.723 67.7034 105.454 68.3798 103.015C69.789 98.1929 72.4946 88.6627 73.171 83.5006C74.1293 76.4097 71.5364 72.609 71.5364 72.609C70.0144 69.8861 61.3902 75.105 61.3902 75.105L59.8119 101.767C59.8119 101.767 59.4174 106.418 58.8537 112.091C58.0645 120.146 57.0499 130.244 56.4863 131.662C55.528 134.044 53.2733 137.108 53.2733 137.108L60.4883 137.051Z" fill="#E9946B"/>
<path d="M61.052 140.171C61.052 140.171 49.7222 140.625 47.5238 140.171C47.2984 140.114 47.1856 139.83 47.3547 139.433C47.5238 139.036 47.7493 138.582 47.9748 138.412C48.4257 138.072 51.3005 137.334 52.2023 136.54C53.1606 135.689 53.9497 134.498 54.6825 134.271C55.4153 134.044 55.979 134.385 56.2044 134.498C56.4299 134.612 57.1627 135.916 57.9518 136.03C58.7973 136.143 59.5865 135.065 60.0938 135.179C60.3756 135.236 60.8266 136.654 61.052 138.015C61.2211 138.866 61.1648 139.603 61.052 140.171Z" fill="#5B74C8"/>
<path d="M61.2211 140.284C61.2211 140.284 49.6658 140.738 47.4674 140.284C47.242 140.227 47.242 139.83 47.4111 139.377C48.4257 139.433 55.3025 139.774 55.9225 139.547C56.6553 139.32 56.8244 138.526 57.3881 138.299C57.839 138.129 60.1501 138.015 61.1084 138.015C61.2211 138.866 61.2775 139.717 61.2211 140.284Z" fill="white"/>
<path d="M52.9351 135.292C52.7096 135.349 52.766 135.746 52.9914 135.689C53.1606 135.689 54.4006 135.633 54.3443 135.746C54.2879 135.973 53.2169 136.086 53.0478 136.086C52.315 136.2 51.695 136.313 51.1313 136.824C50.9622 136.994 51.1313 137.221 51.3004 137.221C52.0332 137.278 52.8223 137.391 53.5551 137.391C53.7806 137.391 53.837 136.994 53.6115 136.994C53.1042 136.881 52.5405 136.824 52.0332 136.824C52.4841 136.654 52.9914 136.597 53.4988 136.484C53.837 136.427 54.5697 136.37 54.7952 136.03C55.3589 135.122 53.2733 135.236 52.9351 135.292Z" fill="#333A74"/>
<path d="M66.7451 109.595C66.7451 109.368 66.3505 109.368 66.3505 109.595C66.3505 110.9 66.4632 112.204 66.4069 113.509C66.3505 114.871 66.0123 116.175 65.6177 117.423C64.8286 119.919 63.9831 122.415 63.1376 124.968C63.0248 125.252 63.4758 125.365 63.5885 125.081C64.434 122.529 65.3359 119.919 66.125 117.367C66.9142 114.814 67.0269 112.204 66.7451 109.595Z" fill="#FFE7D7"/>
<path d="M55.246 76.2962C55.246 76.2962 53.3859 83.3871 55.246 92.747C57.1062 102.107 59.6991 108.007 59.6991 108.007L63.3629 74.8213L55.246 76.2962Z" fill="#423838"/>
<path d="M66.4071 110.673C65.167 111.467 63.4759 111.807 62.0668 111.807C60.9394 111.807 59.9248 111.524 58.9666 111.07C59.4739 105.851 59.8121 101.767 59.8121 101.767L61.3904 75.105C61.3904 75.105 70.0146 69.8861 71.5365 72.609C71.5365 72.609 74.1294 76.4097 73.1711 83.5006C72.4947 88.6627 69.7891 98.1929 68.3799 103.015C67.7035 105.454 66.9707 107.723 66.6325 108.631C66.4071 109.255 66.4071 109.765 66.4071 110.673Z" fill="#423838"/>
<path d="M60.263 91.2154C60.4885 87.982 60.6576 84.7486 60.883 81.5151C60.8267 81.5719 60.7139 81.5151 60.6576 81.4584C60.1503 80.721 59.8121 79.7566 59.5866 78.9057C59.5302 78.6788 59.8684 78.5653 59.9812 78.7923C60.263 79.5864 60.6012 80.3239 60.9394 81.1181C60.9958 80.0402 61.1085 78.9057 61.2212 77.8279C61.2212 77.601 61.6158 77.601 61.6158 77.8279C61.3903 82.3093 61.0521 86.7907 60.7703 91.2154C60.4885 95.6969 60.2066 100.178 59.8684 104.603C59.8684 104.887 59.4175 104.887 59.4175 104.603C59.5866 100.122 59.9812 95.6969 60.263 91.2154Z" fill="#1A1A1A"/>
<path d="M47.6367 48.4436C47.6367 48.4436 47.6367 48.3868 47.6367 48.4436C47.7494 48.1032 47.8622 47.8196 47.9749 47.5359C48.2004 47.0254 48.2567 46.4581 48.4258 45.9476C48.5949 45.4938 48.8768 45.0967 49.1586 44.6996C49.4968 44.1323 49.835 43.4516 50.286 42.941C50.6805 42.4872 50.1169 42.2603 49.5532 42.4872C48.9895 42.7141 48.2567 43.8487 47.9185 43.6785C47.524 43.4516 47.6367 41.5796 47.6367 40.8989C47.6367 40.2181 47.9185 39.1971 47.2985 39.3105C46.6785 39.3672 46.3966 42.544 46.1711 42.4305C45.9457 42.2036 46.002 39.1971 45.5511 39.1971C45.1002 39.1403 44.8183 39.424 44.8183 39.9912C44.8183 40.5585 44.9874 42.6007 44.8183 42.7141C44.6492 42.8276 44.0292 40.048 43.4655 40.2749C42.9018 40.5018 43.0146 40.8989 43.24 41.5796C43.4091 42.1469 43.8037 43.3949 43.5782 43.4516C43.5219 43.5083 42.7891 41.6363 42.2254 41.9767C41.9436 42.1469 41.8872 42.3738 42.3382 43.2814C42.5636 43.7352 42.9018 44.1323 43.0709 44.5861C43.2964 45.0967 43.5219 45.6639 43.6346 46.2312C43.8601 47.309 43.9164 48.4436 44.1419 49.5214C44.1983 49.7483 44.1983 49.9185 44.311 50.0886C44.6492 50.5424 45.382 50.9395 45.8329 50.5992C46.1148 50.429 46.3966 50.2021 46.6785 49.9752C46.9603 49.7483 47.2421 49.4646 47.4676 49.2377C47.6367 48.9541 47.5803 48.6705 47.6367 48.4436Z" fill="#E9946B"/>
<path d="M44.8746 46.3444C45.3256 45.3801 45.9456 44.6426 47.073 44.4725C47.4112 44.4157 47.2984 43.9052 46.9602 43.9619C45.7765 44.0754 44.5928 44.983 44.4237 46.1743C44.4237 46.4012 44.8183 46.5146 44.8746 46.3444Z" fill="#DE835C"/>
<path d="M59.1357 46.5148C59.1357 46.5148 56.9937 47.5926 55.81 48.3868C54.6263 49.1809 53.4426 51.5635 52.9917 52.7547C52.5407 53.946 51.0752 59.2216 50.9624 59.3351C50.8497 59.4485 49.7223 56.0449 48.8768 54.0595C48.0313 52.0173 47.4677 49.8049 47.6931 47.1955C47.9186 44.5861 43.9165 47.4791 43.9165 47.4791C43.9165 47.4791 44.5365 53.7191 44.9875 57.3496C45.4384 61.3772 46.3403 66.5394 48.7641 66.9932C52.1462 67.6739 55.4155 61.434 56.261 59.1082C57.1065 56.8391 59.1357 46.5148 59.1357 46.5148Z" fill="#E9946B"/>
<path d="M50.0041 55.8745C50.9624 57.8599 51.8079 60.0156 52.1461 62.1712C52.2025 62.3981 51.8079 62.5115 51.7515 62.2846C51.1315 60.1857 50.5678 58.0868 49.6659 56.1014C49.4968 55.8178 49.8914 55.5909 50.0041 55.8745Z" fill="white"/>
<path d="M57.7265 50.4855C57.952 53.0382 58.572 56.2149 60.263 56.5553C61.954 56.8957 63.5887 56.0448 64.9979 54.74L66.8016 64.0433L69.62 63.1923C69.62 63.1923 69.9582 61.3771 70.3528 59.5051C70.7474 57.6331 71.3674 55.4208 71.6492 55.364C71.9311 55.3073 73.5657 56.1582 75.2568 57.0091C75.5386 55.988 75.7641 54.9669 75.9895 53.8891C76.2714 52.6979 76.5532 51.5066 76.835 50.2586C76.1023 49.6913 75.3131 49.0673 75.144 48.9539C74.2985 48.3866 73.3403 47.9895 72.382 47.5357C71.4238 47.1386 70.4655 46.7983 69.5073 46.4012C69.1691 46.231 68.8309 46.1175 68.549 45.9474C67.7035 45.4936 67.0271 45.0397 66.7453 44.5292C66.7453 44.4157 66.6889 44.3023 66.6889 44.1321V44.0754V44.0187C66.6325 43.6783 66.6325 43.3379 66.5762 42.9976C66.5762 42.7707 66.5762 42.5438 66.5762 42.3168C66.5762 42.3168 66.5762 42.3168 66.5762 42.2601C66.5762 42.0899 66.5762 41.9765 66.5762 41.8063C66.5762 41.1823 66.6889 38.1758 66.6889 38.1758L63.7014 39.7641L61.7286 40.8419C61.7286 40.8419 61.7286 41.3525 61.7286 42.0332C61.7286 42.2034 61.7286 42.2034 61.7286 42.4303C61.7286 42.7707 61.7286 42.9976 61.7286 43.3379C61.7286 43.6783 61.6158 44.0187 61.5031 44.3023C61.4467 44.4725 61.334 44.5859 61.2213 44.7561C61.0522 44.9263 60.8831 45.0965 60.714 45.2666C60.4885 45.4936 60.1503 45.7205 59.8121 45.9474C59.6993 46.0041 59.643 46.0608 59.5302 46.1175C59.3611 46.231 59.0793 46.4012 58.7975 46.5714C58.3465 46.855 57.8956 47.1386 57.6138 47.2521C57.6138 47.3655 57.5574 48.7837 57.7265 50.4855Z" fill="#E9946B"/>
<path d="M70.8037 54.9102C71.311 54.9669 71.762 55.0803 72.1565 55.3072C72.382 55.4207 72.2129 55.8178 71.9311 55.7043C71.5929 55.5342 71.1983 55.4207 70.7474 55.364C70.5219 55.364 70.5219 54.9102 70.8037 54.9102Z" fill="#DE835C"/>
<path d="M64.547 42.4305C63.7578 43.2246 62.7432 43.3381 61.6722 43.2814C61.6722 42.9977 61.6722 42.7708 61.6722 42.4872C61.6722 42.317 61.6722 42.2603 61.6722 42.0901C61.6722 41.4661 61.6722 40.8988 61.6722 40.8988L63.6451 39.821L66.0125 39.0269C65.7307 40.2748 65.4489 41.5228 64.547 42.4305Z" fill="#1A1A1A"/>
<path d="M58.5168 34.5453C58.4605 34.8857 58.4041 35.226 58.4041 35.5097C58.2914 36.2471 58.4605 37.098 58.4605 37.8922C58.6296 39.9344 59.5878 41.8063 60.8843 42.2034C63.0826 42.8842 66.0137 40.7853 66.6338 38.6296C66.6338 38.6296 68.4939 38.0624 68.0429 36.0202C67.8175 35.1126 66.8029 34.9991 66.3519 35.5664C66.1264 35.3395 66.0137 35.0558 65.9573 34.7722C65.901 34.4886 65.901 34.0915 65.6191 33.8646C65.3937 33.6944 65.1118 33.6944 64.83 33.6377C63.9845 33.5809 63.3081 33.0137 62.688 32.3897C62.5189 32.2195 62.3498 32.0493 62.1244 32.0493C61.8989 32.0493 61.6734 32.2195 61.5607 32.3897C61.4479 32.5599 61.3352 32.7868 61.2225 32.9569C61.1097 33.1271 60.9406 33.2973 60.7152 33.354C60.4333 33.4675 60.0951 33.5242 59.8133 33.5242C59.4751 33.5809 59.1933 33.5809 58.9114 33.7511C58.6859 33.9213 58.5732 34.2617 58.5168 34.5453Z" fill="#E8926D"/>
<path d="M63.0814 35.7931C63.1378 35.7364 63.2505 35.6797 63.3069 35.6797C63.3069 35.6797 63.3069 35.6797 63.3633 35.6797C63.7015 35.7364 63.7579 36.1335 63.5888 36.4171C63.5888 36.4739 63.5324 36.5306 63.476 36.5873C63.4197 36.644 63.3633 36.644 63.3069 36.644C63.1378 36.644 63.0814 36.5873 63.0251 36.4739C62.856 36.247 62.856 35.9633 63.0814 35.7931Z" fill="#1A1A1A"/>
<path d="M58.8538 35.9634C58.9666 35.7933 59.2484 35.7933 59.4175 35.9067C59.4175 35.9067 59.4175 35.9634 59.4739 35.9634C59.5302 36.0202 59.5302 36.0769 59.5302 36.1336C59.5302 36.2471 59.4739 36.3605 59.4175 36.474C59.2484 36.6442 59.0229 36.6442 58.8538 36.4173C58.7411 36.3038 58.7411 36.0769 58.8538 35.9634Z" fill="#1A1A1A"/>
<g opacity="0.5">
<path opacity="0.5" d="M60.8268 38.2893C60.8268 38.1759 60.9395 38.1191 61.0523 38.1191C61.165 38.1191 61.2777 38.1759 61.3905 38.1759C61.5032 38.1759 61.5596 38.2893 61.5596 38.4028C61.5596 38.5162 61.4468 38.573 61.3341 38.573C61.2214 38.573 61.1086 38.5162 60.9959 38.5162C60.8831 38.5162 60.8268 38.4028 60.8268 38.2893Z" fill="#CF5D4C"/>
</g>
<path d="M62.5741 33.8646C62.8559 33.9781 63.0814 34.0915 63.3632 34.205C63.5887 34.3752 63.8705 34.5454 64.096 34.6588C64.3215 34.7723 64.096 35.1694 63.8705 34.9992C63.6451 34.829 63.4196 34.6588 63.1377 34.5454C62.9123 34.3752 62.6304 34.3184 62.3486 34.205C62.1795 34.0915 62.3486 33.7512 62.5741 33.8646Z" fill="#621406"/>
<path d="M58.403 34.7722C58.5721 34.602 58.7975 34.5453 59.023 34.4318C59.2485 34.3751 59.4176 34.7722 59.1358 34.8289C58.9666 34.8856 58.7975 34.8856 58.6848 34.9991C58.5157 35.226 58.2339 34.9991 58.403 34.7722Z" fill="#621406"/>
<path d="M60.6013 39.8206C60.6013 39.8206 61.8978 39.7638 62.6305 39.4802C63.307 39.1966 62.4614 40.7849 62.0669 40.7849C60.9959 40.7849 60.6013 39.8206 60.6013 39.8206Z" fill="white"/>
<path d="M55.1336 77.0335C55.1336 77.0335 57.0501 76.2393 58.6847 76.3528C60.3194 76.4663 62.7996 75.899 65.8434 73.9703C68.8872 72.0416 70.4092 72.0416 70.4092 72.0416L70.3528 68.6379C70.3528 68.6379 70.5219 68.4678 70.5783 68.1274C70.6346 67.9005 70.6346 67.6169 70.5783 67.2198C70.4655 66.766 70.2964 66.4823 70.1837 66.1987C70.0146 65.9151 69.9019 65.5747 69.7891 64.9507C69.5637 63.646 70.5219 59.902 70.3528 59.5616C70.3528 59.5616 68.7181 60.2991 68.3236 58.03C67.7035 54.0591 68.9436 47.025 69.5073 46.5144C69.4509 46.5144 68.7745 46.0606 68.549 46.0606C68.549 46.0606 68.549 46.0606 68.4927 46.0606C68.2108 46.3443 67.1399 49.7479 66.8017 51.2228C66.4634 52.7544 65.9561 53.662 64.8852 53.7755C63.9269 53.9457 59.2484 53.4919 58.9102 52.5842C58.572 51.7333 59.5866 47.025 59.8121 46.0039C59.6994 46.0606 59.643 46.1174 59.5303 46.1741C59.3612 46.2875 59.0793 46.4577 58.7975 46.6279C58.6847 47.1384 58.2902 48.7268 57.7265 50.4853C57.4447 51.393 57.1628 52.3006 56.8246 53.2082C55.6973 56.3282 55.19 56.8955 55.19 58.7675C55.19 60.6394 57.2192 63.022 56.9374 65.8583C56.9374 65.9718 56.9374 66.0285 56.881 66.142C56.8246 66.766 56.6555 67.5034 56.5428 68.2976C55.9791 70.907 55.0772 73.8568 54.9645 74.5943C54.9081 75.5586 55.1336 77.0335 55.1336 77.0335Z" fill="#811D65"/>
<path d="M56.5427 68.2979C57.05 67.9008 57.3882 67.2768 57.6701 66.7095C57.8955 66.2557 58.0646 65.6317 58.4592 65.2347C58.9665 64.7241 59.5866 65.5183 59.9811 65.9154C60.7139 66.6528 61.334 67.5037 62.0104 68.2979C62.574 68.9219 63.3068 69.2055 64.096 68.7517C64.9415 68.2412 65.6179 67.2768 66.1816 66.4826C66.407 66.1423 66.6325 65.7452 66.9707 65.5183C67.478 65.1779 68.0417 65.4616 68.4926 65.8019C69.3381 66.4259 70.0709 67.2201 70.6346 68.1277C70.691 67.9008 70.691 67.6172 70.6346 67.2201C70.5218 66.7663 70.3527 66.4826 70.24 66.199C70.0145 65.9154 69.7327 65.6885 69.5072 65.4616C68.8872 64.8943 68.0981 64.2703 67.1962 64.4972C66.407 64.6674 65.9561 65.4048 65.5051 66.0288C65.1669 66.4826 64.7724 66.9365 64.3778 67.3903C63.9832 67.7874 63.5323 68.3546 62.9686 67.9008C62.6304 67.5604 62.3486 67.1634 62.0104 66.7663C61.6722 66.3125 61.2776 65.9154 60.883 65.5183C60.263 64.8943 59.4738 63.9867 58.5156 64.327C57.7264 64.6107 57.3319 65.575 57.05 66.3125C56.8809 66.823 56.7118 67.5605 56.5427 68.2979Z" fill="#A95290"/>
<path d="M66.407 97.8526C66.4634 98.3632 66.407 99.2708 66.9707 99.6112C68.3235 100.349 68.7744 96.6614 68.8872 95.9806C69.2254 93.9385 69.2254 91.8963 69.169 89.8541C69.169 87.6418 69.0563 85.3727 68.9435 83.1604C68.8872 80.948 68.8308 78.6789 68.8872 76.4666C68.9435 74.7648 68.8872 72.5524 70.2964 71.3612C70.4655 71.3612 70.6909 71.3612 70.86 71.4179C71.1419 71.4746 71.2546 71.0208 70.9728 70.9641C68.9435 70.3968 67.9853 72.9495 67.6471 74.4812C67.1398 76.6935 67.0271 79.076 66.9143 81.3451C66.6888 85.7698 66.5761 90.1945 66.407 94.6759C66.407 95.697 66.3506 96.7748 66.407 97.8526ZM66.8579 97.6257C66.8579 97.1719 66.8579 96.7181 66.8579 96.321C66.8579 95.3566 66.9143 94.449 66.9707 93.4847C67.0834 89.5138 67.1962 85.5429 67.4216 81.572C67.5344 79.5866 67.6471 77.6011 67.9853 75.6157C68.1544 74.6513 68.4926 72.7226 69.3945 71.815C68.7744 72.7793 68.6617 74.0273 68.549 75.1619C68.3799 77.3742 68.3799 79.6433 68.4362 81.8556C68.549 85.7698 68.8308 89.7407 68.6053 93.6548C68.549 94.6192 68.4362 95.5268 68.2671 96.4912C68.1544 96.945 68.0417 97.3988 67.9289 97.8526C67.8726 98.0795 67.8162 98.2497 67.7035 98.4766C67.6471 98.6468 67.6471 98.817 67.5344 98.9304C67.478 98.9872 67.1398 99.1006 67.0271 99.0439C66.8016 98.9304 66.9143 97.9094 66.8579 97.6257Z" fill="#B0C1D3"/>
<path d="M73.4529 104.83C73.6784 106.192 73.7911 107.553 73.9038 108.971C74.0166 110.333 74.242 111.751 74.1293 113.112C74.0729 114.133 72.4947 114.474 72.2692 113.396C71.9873 112.034 71.9873 110.616 71.8746 109.255C71.7619 107.893 71.6491 106.532 71.5928 105.17C71.5928 104.036 73.2838 103.752 73.4529 104.83Z" fill="#EFB44B"/>
<path d="M69.6199 72.2687C69.6199 72.212 73.0583 77.3174 73.0583 77.3174C73.0583 77.3174 72.6073 74.1407 72.1 73.1763C71.5927 72.212 69.6199 72.2687 69.6199 72.2687Z" fill="#1A1A1A"/>
<path d="M70.8601 102.221C70.9164 101.143 71.0292 100.065 71.1983 98.9304C71.3674 97.4555 71.5928 96.0373 71.8747 94.5624C71.8747 93.5414 71.931 92.577 71.9874 91.5559C72.1001 89.457 72.5511 86.961 72.7766 84.8621C73.0584 82.7632 73.2839 80.4374 73.1148 78.3385C73.0584 77.1473 72.5511 75.3887 72.2692 74.1975C72.0438 73.1197 71.8183 73.1197 71.1419 72.212C71.0292 72.0419 71.2546 71.7582 71.3674 71.9851C72.6075 73.4033 72.9457 75.0484 73.2275 76.8069C73.5093 78.9058 73.6784 80.7778 73.453 82.8767C73.2275 85.0891 72.6638 87.9821 72.4947 90.1945C72.4947 90.4214 72.4383 90.5916 72.4383 90.8185C73.0584 86.961 73.5657 82.9902 73.3402 79.076C73.1711 76.5233 72.4383 74.0273 71.0855 71.8717C70.9728 71.6448 71.5365 71.4179 71.6492 71.6448C72.8329 73.4033 73.3966 75.6157 73.6784 77.7146C73.9603 79.9836 73.9603 82.0825 73.7912 84.3516C73.5093 87.8119 72.8893 91.2156 72.2692 94.6192C72.2692 95.3566 72.2692 96.0941 72.2692 96.8315C72.2692 99.3842 72.4384 101.937 72.6638 104.49C72.6638 104.773 72.2692 104.773 72.2129 104.49C71.9874 102.277 71.8183 100.008 71.8183 97.7392C71.6492 99.0439 71.4801 100.349 71.3674 101.71C71.2546 102.958 71.2546 104.149 71.1983 105.454C71.1983 105.624 70.9164 105.624 70.8601 105.454C70.691 104.433 70.8037 103.298 70.8601 102.221Z" fill="#B0C1D3"/>
<path d="M68.3236 69.2057C68.7745 68.9788 69.4509 68.6384 69.9019 68.4115C70.2964 68.2413 70.4092 68.298 70.691 68.4682C70.7474 68.4682 70.8037 68.5249 70.8601 68.5817C71.142 68.7519 71.4238 69.1489 71.6493 69.4326C71.762 69.6028 71.9875 69.9998 72.2129 70.17C72.3257 70.2267 72.4384 70.2835 72.5511 70.2267C72.6075 70.17 72.6639 70.1133 72.7766 70.0566C72.8893 69.9431 72.9457 69.8297 73.0021 69.7729C73.453 69.2624 80.1044 60.2995 79.5971 59.6755C79.0898 59.165 75.7077 57.4065 73.6221 56.3287C74.0731 53.8894 74.7495 51.6771 75.144 49.2378C75.7077 49.5782 77.5678 50.9963 78.0752 51.5069C81.1754 54.3999 85.3466 57.1228 85.6284 58.7679C85.7975 59.789 85.3466 61.0937 84.8392 61.8312C80.8372 67.5606 75.144 72.3256 73.7349 73.29C73.453 73.5169 73.1712 73.6871 72.833 73.8573C72.7202 73.914 72.6075 73.9707 72.4948 74.0275C72.4384 74.0842 72.3257 74.1409 72.2129 74.0842C72.1566 74.0275 72.1002 73.9707 72.0438 73.914L71.8747 73.5736C71.762 73.3467 71.5929 73.1198 71.3674 72.9496C71.142 72.7795 70.8037 72.9496 70.5219 72.8362C70.2964 72.7227 70.2964 72.4958 70.071 72.3824C69.9582 72.3256 69.8455 72.3824 69.7891 72.3256C69.62 72.2689 69.5073 72.0987 69.5073 71.9286C69.5073 71.7584 69.5637 71.6449 69.5637 71.4747V71.418C69.4509 71.418 69.3946 71.4747 69.3382 71.5315C69.2818 71.5315 69.2818 71.5882 69.2255 71.5882C69.0564 71.6449 68.8873 71.7017 68.7182 71.7017H68.6618C68.3236 71.6449 68.4927 71.2478 68.6054 71.0209C68.7745 70.794 69 70.5104 69.2255 70.2835C69.3946 70.0566 69.5637 69.8297 69.7891 69.7162C69.9019 69.6595 70.071 69.6595 70.1273 69.6028C70.2401 69.546 70.4092 69.4326 70.2964 69.3758C70.2401 69.3191 70.1837 69.2624 70.1273 69.2624C70.0146 69.2624 69.9019 69.3191 69.8455 69.3758C69.5637 69.546 69.2255 69.6028 68.9436 69.6595C68.6618 69.7162 68.3236 69.6595 68.2672 69.3191C68.2672 69.2624 68.2672 69.2624 68.2672 69.2057C68.3236 69.2057 68.3236 69.2057 68.3236 69.2057Z" fill="#E9946B"/>
<path d="M76.9477 64.0436C76.8913 64.0436 76.8349 64.0436 76.7786 63.9869C76.6658 63.8734 76.6658 63.7033 76.7222 63.5898C78.0187 62.0015 79.4842 59.1651 79.6533 58.8248C79.6533 58.8248 79.6533 58.768 79.7097 58.768C79.766 58.6546 79.8788 58.5979 79.9915 58.6546C80.1043 58.6546 80.1606 58.7113 80.217 58.8248C80.217 58.8815 80.2734 58.8815 80.217 59.0517C80.1043 59.2786 79.8788 59.7891 79.3151 60.8102C78.8078 61.7178 78.0187 63.0225 77.2859 63.9302C77.0604 64.0436 77.004 64.0436 76.9477 64.0436Z" fill="white"/>
<path d="M73.2274 71.872C73.0019 71.5316 72.8328 71.0778 72.6637 70.7374C72.551 70.5105 72.3819 70.2836 72.2692 70.1135C72.3819 70.1702 72.4946 70.2269 72.6074 70.1702C72.6637 70.1135 72.7201 70.0567 72.8328 70C73.2274 70.5673 73.5656 71.1913 73.622 71.8153C73.622 71.9854 73.2838 72.0422 73.2274 71.872Z" fill="#DE835C"/>
<path d="M71.8746 105.567C71.9873 106.929 72.0437 108.347 72.0437 109.709C72.0437 111.07 72.1564 112.488 71.9873 113.85C71.8182 114.871 70.2399 115.098 70.0708 113.963C69.9017 112.602 70.0145 111.183 70.0145 109.822C70.0145 108.461 70.0145 107.099 70.0708 105.681C70.0708 104.66 71.7619 104.49 71.8746 105.567Z" fill="#EFB44B"/>
<path d="M71.8183 105.284C71.8746 105.227 71.8746 105.227 71.931 105.284C72.2692 105.511 72.6638 105.454 72.9456 105.114C73.0583 105 73.1711 105.17 73.1147 105.284C72.8329 105.567 72.4947 105.681 72.1565 105.624C72.2692 105.794 72.2692 105.964 72.3256 106.191C72.3819 106.815 72.3819 107.383 72.3819 108.007C72.3819 108.574 72.3819 109.141 72.3256 109.765C72.3256 110.332 72.3256 110.956 72.2692 111.58C72.2692 111.694 72.0437 111.694 72.0437 111.58C71.9874 110.559 72.1001 109.538 72.1001 108.517C72.1001 108.007 72.1001 107.496 72.1001 106.986C72.1001 106.588 72.1565 105.794 71.7619 105.567C71.6492 105.397 71.7055 105.284 71.8183 105.284Z" fill="#D89B39"/>
<path d="M79.4842 69.376C79.3151 69.2625 79.2023 69.0923 78.9769 69.0356C78.7514 68.9221 78.5259 68.9789 78.3005 68.9789C78.1314 68.9789 77.9059 68.9221 77.8495 68.752C77.7932 68.6385 77.8495 68.4683 77.9059 68.3549C78.1314 68.0145 78.5259 67.8443 78.9205 67.9011C79.2587 67.9578 79.8224 68.0712 80.1042 67.9011C80.3861 67.7309 80.2733 67.9011 80.4988 68.0712C80.5552 68.128 80.6115 68.1847 80.6679 68.2414C80.7243 68.2981 80.7243 68.4116 80.6679 68.4683C80.6679 68.752 80.6115 69.0356 80.5552 69.3192C80.3861 69.6596 79.9915 69.7163 79.7096 69.5461C79.6533 69.4894 79.5405 69.4327 79.4842 69.376Z" fill="#E9946B"/>
<path d="M97.1272 55.4212L94.7034 61.491L86.9811 59.6758C86.9811 59.6758 86.7556 58.7114 87.2065 58.0874C87.7138 57.4634 88.2775 58.2009 88.8975 56.6125C89.4048 55.3078 90.3631 52.982 91.4904 51.5071C91.5468 51.4504 91.6032 51.3369 91.6595 51.2802C91.8286 51.0533 92.0541 50.8264 92.2232 50.6562C93.6888 49.4649 95.7744 48.2169 96.1126 47.5929C96.5071 47.0257 97.1272 55.4212 97.1272 55.4212Z" fill="#61B5AE"/>
<path d="M92.787 54.3435C92.2797 53.4359 91.7723 52.5283 91.5469 51.5072C91.6032 51.4505 91.6596 51.337 91.716 51.2803C91.9414 52.3581 92.4488 53.2657 93.0124 54.2301C93.0688 54.3435 92.8433 54.457 92.787 54.3435Z" fill="#894637"/>
<path d="M95.6616 68.7521C95.6616 68.7521 76.6094 68.6386 74.1856 68.1281C71.7618 67.6175 71.5364 63.1361 71.5364 63.0226C71.5364 62.9659 71.6491 62.9659 71.8182 62.9659C72.0437 62.9659 72.2692 63.0226 72.2692 63.0226C72.2692 62.9659 72.2692 62.9659 72.2692 62.9092C72.1564 61.4343 72.7765 58.6547 73.9602 58.371C75.1439 58.1441 92.5051 59.3354 92.5051 59.3354C96.7326 60.6401 95.6616 68.7521 95.6616 68.7521Z" fill="#EFB44B"/>
<path d="M95.9435 47.8193C95.9435 47.8193 93.7451 50.5422 93.576 51.3931C93.5197 52.244 93.8579 53.3786 93.1251 55.6476C92.3923 57.9167 91.5468 59.0513 92.0541 60.6396C92.5614 62.228 93.7451 63.5327 93.5197 65.5181C93.2942 67.4468 92.1668 67.4468 93.1815 68.9217C94.1961 70.3966 104.286 71.7014 106.935 71.361C109.584 71.0206 110.317 69.5457 110.317 68.1843C110.317 66.8228 108.739 65.5181 108.964 63.476C109.19 61.4338 110.768 59.6185 111.388 57.7465C112.008 55.9313 109.472 48.3866 109.472 48.3866L95.9435 47.8193Z" fill="#61B5AE"/>
<path d="M93.5761 51.9037C93.5197 51.6768 93.1251 51.7335 93.1815 51.9605C93.3506 53.4921 93.1815 54.967 92.6178 56.3851C92.1105 57.6331 91.4905 58.9379 91.8287 60.2993C91.8851 60.5829 92.2796 60.4695 92.2796 60.1859C92.0541 58.5975 92.8433 57.2928 93.3506 55.8179C93.7452 54.5132 93.8579 53.1517 93.5761 51.9037Z" fill="#894637"/>
<path d="M96.8454 50.5425C96.8454 50.5425 95.0417 46.685 96.1126 43.5083C97.1836 40.3316 107.33 41.0691 108.288 42.544C109.246 44.0189 108.063 44.9832 108.626 45.5505C109.246 46.1745 109.979 46.288 110.092 47.2523C110.204 48.2167 108.908 50.1454 108.908 50.1454C108.908 50.1454 100.115 54.6268 99.1565 54.0028C98.1982 53.4923 96.8454 50.5425 96.8454 50.5425Z" fill="#61B5AE"/>
<path d="M104.85 41.9199C104.85 41.9199 106.541 41.9199 107.161 42.9977C107.781 44.0755 107.048 44.5861 106.541 44.9264C106.033 45.2668 104.511 46.7417 103.779 47.309C103.046 47.933 97.0145 47.8762 97.0145 47.8762C97.0145 47.8762 96.6763 45.0966 97.1272 44.4159C97.5781 43.7919 104.85 41.9199 104.85 41.9199Z" fill="#3A1714"/>
<path d="M95.2108 37.5519C95.2108 37.5519 94.1398 39.2537 94.478 39.5941C94.8162 39.9344 105.301 39.4806 105.47 38.7432C105.582 38.0057 103.891 35.8501 103.891 35.8501L95.2108 37.5519Z" fill="#F9F9F9"/>
<path d="M95.6052 38.6298C95.6052 38.6298 95.5488 39.5374 94.7033 40.6152C93.8578 41.6931 93.125 44.6996 98.7054 44.6429C103.835 44.5861 105.92 42.941 105.695 41.0123C105.47 39.0836 103.158 36.7578 103.158 36.7578L95.6052 38.6298Z" fill="#BC322C"/>
<path d="M104.906 46.4014C104.906 46.4014 103.948 47.2523 103.046 48.2733C102.82 48.557 102.595 48.8406 102.369 49.0675C101.411 50.429 99.9456 52.9249 99.6074 53.2086C99.2692 53.4355 98.6491 52.8682 97.8036 51.3933C97.3527 50.5991 97.1272 49.2944 97.0145 48.2733C96.9017 47.4792 96.9017 46.8552 96.9017 46.8552C96.9017 46.8552 97.409 46.3446 97.7472 45.6639C97.9163 45.2668 97.9163 44.3025 97.9163 43.5083C97.86 42.6574 97.8036 42.0334 97.8036 42.0334L98.9873 41.5228L102.933 39.0269C102.933 39.0269 102.651 41.5796 102.933 43.5083C103.159 45.2101 104.906 46.4014 104.906 46.4014Z" fill="#E9946B"/>
<path d="M95.6053 38.3459C95.3798 39.4805 94.2524 40.1045 93.6888 41.0688C93.2378 41.863 93.2378 42.8841 93.7451 43.6783C93.9142 43.9619 94.3088 43.735 94.1397 43.4514C93.5197 42.2601 93.9706 41.2957 94.8161 40.4448C95.3798 39.8776 95.8871 39.3103 96.0562 38.4594C96.0562 38.1758 95.6616 38.0623 95.6053 38.3459Z" fill="#BC322C"/>
<path d="M102.313 41.3525C101.806 44.5292 98.5927 43.7918 97.9163 43.3947C97.86 42.6573 97.8036 42.0333 97.8036 42.0333L98.9873 41.5227L102.313 41.3525Z" fill="#1A1A1A"/>
<path d="M95.3234 34.4887C95.4361 34.0917 95.6052 33.7513 95.8871 33.4109C96.338 32.9004 96.9581 32.5033 97.5781 32.2764C98.1418 32.0495 98.7618 31.936 99.4382 31.936C100.058 31.936 100.678 32.1062 101.298 32.3331C101.749 32.4466 102.144 32.6168 102.538 32.8437C102.989 33.1273 103.328 33.4677 103.609 33.9215C103.835 34.3186 104.117 34.8291 104.117 35.2829C104.06 36.2473 104.004 37.1549 103.891 38.1193C103.722 39.0836 103.553 40.2182 103.046 41.0691C102.257 42.3738 100.847 43.3949 98.5927 42.7141C96.3944 42.0334 95.3798 37.6655 95.3234 36.6444C95.2107 35.9069 95.1543 35.1695 95.3234 34.4887Z" fill="#E9946B"/>
<path d="M98.8745 39.651C99.8328 39.5943 100.622 39.4241 101.242 39.3107C101.637 39.2539 100.904 40.7288 100.453 40.8423C99.6073 41.0692 98.48 39.7078 98.8745 39.651Z" fill="white"/>
<path d="M104.06 35.6233C104.06 35.6233 104.793 35.1695 105.188 36.0204C105.582 36.8713 104.455 38.9135 103.609 38.9135C102.82 38.9702 104.06 35.6233 104.06 35.6233Z" fill="#E9946B"/>
<g opacity="0.7">
<path opacity="0.7" d="M99.1564 38.6869C99.1564 38.5734 99.2691 38.46 99.3818 38.46C99.4946 38.46 99.6073 38.46 99.72 38.5167C99.8328 38.5167 99.9455 38.6301 99.9455 38.7436C99.9455 38.8571 99.8328 38.9705 99.72 38.9705C99.6073 38.9705 99.4946 38.9705 99.3818 38.9138C99.2127 38.9138 99.1564 38.8571 99.1564 38.6869Z" fill="#DE835C"/>
</g>
<path d="M98.0292 35.2264C98.0855 35.1697 98.1419 35.0562 98.1419 34.9995C98.1419 34.886 97.9728 34.8293 97.8601 34.886C97.8037 34.886 97.1273 35.1129 96.5636 35.6802C96.4509 35.7937 96.4509 35.9071 96.5072 36.0206C96.5636 36.134 96.7327 36.134 96.8454 36.0206C97.3528 35.5667 97.9728 35.3398 97.9728 35.3398C97.9728 35.2264 97.9728 35.2264 98.0292 35.2264Z" fill="#BC322C"/>
<path d="M101.186 34.7726C101.129 34.7158 101.073 34.6024 101.073 34.5457C101.073 34.4322 101.186 34.3755 101.355 34.3755C101.411 34.3755 102.087 34.5457 102.764 35.0562C102.877 35.1129 102.877 35.2831 102.82 35.3966C102.764 35.51 102.595 35.51 102.482 35.3966C101.918 34.9995 101.298 34.8293 101.298 34.8293C101.298 34.7726 101.242 34.7726 101.186 34.7726Z" fill="#BC322C"/>
<path d="M104.23 36.5879C104.399 36.5879 104.511 36.985 104.568 37.1552C104.568 37.3253 104.173 37.7792 104.173 37.7792C104.173 37.7792 104.117 36.5879 104.23 36.5879Z" fill="#DE835C"/>
<path d="M95.3234 36.077C95.3234 36.077 94.5906 35.7366 94.3088 36.5875C94.027 37.4384 95.1543 39.3104 95.8871 39.2537C96.7326 39.2537 95.3234 36.077 95.3234 36.077Z" fill="#E9946B"/>
<g opacity="0.71">
<path opacity="0.71" d="M95.267 37.0981C95.0979 37.0981 94.9852 37.552 95.0415 37.6654C95.0415 37.8356 95.4925 38.2327 95.4925 38.2327C95.4925 38.2327 95.4361 37.0981 95.267 37.0981Z" fill="#DE835C"/>
</g>
<path d="M101.637 36.8716C101.58 36.8149 101.58 36.7015 101.58 36.6447C101.58 36.4178 101.693 36.2476 101.919 36.1909C102.088 36.1909 102.2 36.1909 102.313 36.3044C102.426 36.4178 102.482 36.588 102.426 36.7015C102.426 36.7582 102.369 36.8149 102.313 36.8149C102.257 36.8716 102.144 36.9284 102.088 36.9851C101.975 37.0418 101.862 37.0418 101.806 36.9851C101.749 36.9851 101.693 36.9284 101.637 36.8716Z" fill="#1A1A1A"/>
<path d="M97.9163 36.701C97.9163 36.7578 97.9163 36.8712 97.9163 36.9279C97.8599 37.1548 97.6908 37.2683 97.4653 37.2683C97.2962 37.2683 97.1835 37.1548 97.1271 37.0414C97.0707 36.9279 97.0707 36.7578 97.1271 36.6443C97.1835 36.5876 97.1835 36.5876 97.2398 36.5308C97.3526 36.4741 97.4089 36.4741 97.5217 36.4741C97.6344 36.4741 97.7472 36.5308 97.8035 36.5876C97.8599 36.5876 97.9163 36.6443 97.9163 36.701Z" fill="#1A1A1A"/>
<path d="M95.2106 35.2829C95.2106 35.2829 95.2669 36.4742 95.3233 36.5876C95.3233 36.7011 95.6051 36.5876 95.7179 36.2473C95.8306 35.9069 95.8306 34.432 97.4089 33.3542C98.0853 32.8437 95.5488 33.9215 95.2106 35.2829Z" fill="#BC322C"/>
<path d="M95.2107 35.3964C95.2107 35.3964 96.7326 33.0139 99.7201 32.787C102.708 32.5601 103.948 34.6022 104.173 35.4531C104.173 35.4531 104.455 33.4677 103.948 31.4255C103.44 29.4401 100.34 27.6816 99.1 27.9085C97.5218 28.2488 94.7034 30.0641 94.7597 32.2764C94.8161 34.035 95.2107 35.3964 95.2107 35.3964Z" fill="#F9F9F9"/>
<path d="M97.1836 32.1627C97.1836 32.1627 99.2692 31.2551 101.693 31.9926C101.693 31.9926 101.017 29.3831 98.9874 29.7235C96.9581 30.1206 97.1836 32.1627 97.1836 32.1627Z" fill="#A62F2A"/>
<path d="M104.173 33.5811C103.722 32.9003 102.989 32.4465 102.257 32.1062C101.862 31.936 101.411 31.7658 100.96 31.7091C100.509 31.6523 100.058 31.6523 99.5509 31.6523C98.649 31.6523 97.6908 31.7658 96.9016 32.1629C96.1689 32.56 95.4925 33.184 95.0979 33.8647C95.0415 33.9781 95.1542 34.0349 95.267 33.9781C95.7743 33.3542 96.2816 32.7869 96.958 32.3898C97.7471 31.936 98.649 31.8793 99.5509 31.8793C99.9455 31.8793 100.396 31.8793 100.791 31.936C101.242 31.9927 101.637 32.1062 102.031 32.3331C102.764 32.6734 103.44 33.1272 103.948 33.808C104.06 33.8647 104.229 33.7512 104.173 33.5811Z" fill="#C02328"/>
<path d="M98.1981 33.0707C98.1981 33.0707 99.2691 32.8437 100.227 33.9216C101.186 34.9994 101.693 36.2474 102.989 36.0772C104.342 35.9637 104.568 35.7368 104.06 34.4888C103.609 33.3543 101.016 31.9928 98.1981 33.0707Z" fill="#BC322C"/>
<path d="M99.2129 27.9083C98.9874 28.3621 99.0438 28.816 99.1565 29.2698C99.1565 29.3832 99.3256 29.3265 99.3256 29.2698C99.3256 28.816 99.2129 28.4189 99.382 28.0218C99.4383 27.9083 99.2692 27.7949 99.2129 27.9083Z" fill="#C02328"/>
<path d="M96.789 50.0318C96.5071 48.954 96.1689 48.0464 96.1126 46.9686C96.1126 46.685 95.6616 46.685 95.6616 46.9686C95.6616 48.0464 95.8307 49.2944 96.3944 50.202C96.5635 50.3722 96.8453 50.2587 96.789 50.0318Z" fill="#894637"/>
<path d="M109.077 47.9328C108.457 47.7059 107.837 47.5357 107.273 47.2521C107.611 47.0252 108.006 46.855 108.401 46.6848C108.626 46.5714 108.457 46.1743 108.232 46.2877C106.484 47.0252 104.906 48.103 103.609 49.5212C103.44 49.7481 103.722 50.0317 103.891 49.8048C104.793 48.8972 105.751 48.1597 106.822 47.5357C107.499 47.8761 108.232 48.2165 108.964 48.3866C109.246 48.4434 109.359 48.0463 109.077 47.9328Z" fill="#894637"/>
<path d="M76.9476 65.4048C76.6657 66.1422 76.2148 66.8229 75.5948 67.2768C75.1438 67.6171 74.4674 67.4469 74.0165 67.22C72.6637 66.4826 72.1 64.4404 71.8745 63.0222C72.1 63.0222 72.3255 63.079 72.3255 63.079C72.3255 63.0222 72.3255 63.0222 72.3255 62.9655C72.5509 64.0433 72.9455 65.7451 73.8474 66.4826C74.411 66.9931 75.1438 67.1633 75.7075 66.5393C76.0457 66.1422 76.4403 65.6884 76.6094 65.1779C76.7785 64.6673 76.8912 64.1568 77.004 63.6462C77.1167 62.5684 77.0603 61.4906 76.7221 60.4695C76.1021 58.6543 73.9601 58.9946 73.3964 60.6397C73.2837 60.8666 72.9455 60.8099 73.0019 60.5263C73.3964 59.0514 75.2566 58.087 76.553 59.2215C77.2294 59.7888 77.3985 60.8099 77.5113 61.6608C77.624 62.6819 77.6804 63.7597 77.3422 64.7241C77.1167 64.951 77.0603 65.1779 76.9476 65.4048Z" fill="#D89B39"/>
<path d="M76.1022 60.6398C75.8203 60.186 75.2567 59.8456 74.7494 60.0158C74.1293 60.2427 73.8475 61.0369 73.7347 61.6041C73.5656 62.3416 73.5093 63.1925 73.7911 63.8732C74.0166 64.327 74.5803 64.8376 75.0876 64.3837C75.6512 63.8165 75.5949 62.6252 75.4258 61.8878C75.3694 61.6041 74.9185 61.7176 74.9748 62.0012C75.0312 62.2281 75.1439 64.3837 74.4112 63.9299C73.9038 63.5896 74.0729 62.3983 74.1293 61.9445C74.242 61.434 74.4675 60.2427 75.2003 60.4696C75.8767 60.6398 75.9331 61.6041 75.9331 62.1714C75.9331 63.079 75.9331 65.2914 74.7494 65.575C73.9602 65.7452 73.5656 64.5539 73.4529 63.9867C73.3402 63.3627 73.3402 62.7387 73.3965 62.1147C73.4529 61.8878 73.0583 61.7176 73.002 62.0012C72.8892 62.7954 72.8329 63.5896 73.0583 64.3837C73.2274 64.951 73.5656 65.7452 74.1857 65.9721C75.8767 66.5961 76.3276 63.9867 76.384 62.9089C76.4967 62.1714 76.4967 61.2638 76.1022 60.6398Z" fill="#D89B39"/>
<path d="M80.8934 67.4469C80.8934 67.4469 80.8934 67.3902 80.8934 67.4469C81.0625 67.2767 81.2316 67.1632 81.4007 67.22C81.4571 67.2767 81.5134 67.3334 81.5698 67.3334C81.7953 67.4469 82.0207 67.2767 82.1898 67.1065C82.359 66.9363 82.6408 66.7094 82.8099 66.8796C82.9226 67.0498 83.0354 67.2767 83.0917 67.4469C83.0917 67.5036 83.1481 67.5603 83.2045 67.6171C83.4299 67.7872 83.6554 67.4469 83.9372 67.3901C84.1627 67.3334 84.3318 67.5603 84.3882 67.7305C84.4445 67.9574 84.4445 68.1276 84.3882 68.3545C84.3882 68.4112 84.3882 68.468 84.3882 68.5247C84.4445 68.5814 84.5009 68.5814 84.5573 68.5814C84.9519 68.5814 85.4028 68.4112 85.7974 68.6381C86.0792 68.7516 86.0228 69.1487 85.7974 69.3189C85.6846 69.3756 85.5155 69.4323 85.3464 69.489C85.121 69.6025 84.9519 69.6592 84.67 69.6592C84.5009 69.6592 84.3318 69.6025 84.1627 69.6025C83.8809 69.6592 83.7118 69.8861 83.4299 69.8861C82.979 69.9429 82.6408 69.4323 82.1898 69.489C81.9644 69.489 81.7389 69.716 81.5134 69.716C81.288 69.716 81.1189 69.5458 80.8934 69.489C80.6679 69.4323 80.4425 69.5458 80.217 69.6025C80.0479 69.6592 79.766 69.6592 79.6533 69.489C79.2587 68.9785 80.5552 67.7872 80.8934 67.4469Z" fill="#E9946B"/>
<path d="M120.971 62.058C120.971 62.058 119.449 64.554 118.998 65.9154C118.49 67.2769 116.236 70.0565 114.319 69.4325C112.403 68.8085 111.895 68.071 111.444 66.5394C110.937 64.9511 110.655 63.4194 110.035 62.1147C109.415 60.7533 106.766 57.4064 106.766 57.4064L106.71 50.6559L109.472 48.3301C109.472 48.3301 111.05 49.181 112.008 50.3155C112.064 50.3722 112.121 50.429 112.177 50.4857C112.29 50.6559 112.403 50.8261 112.515 50.9962C113.248 52.4711 113.474 54.8537 114.206 55.7046C114.939 56.5555 115.39 57.6333 115.39 58.0304C115.39 58.3707 117.194 54.8537 117.194 54.8537C117.194 54.8537 117.419 55.1373 117.814 55.5911C118.998 57.1228 121.534 60.5831 120.971 62.058Z" fill="#61B5AE"/>
<path d="M109.866 61.661C109.303 60.5264 108.457 59.5053 107.668 58.541C107.499 58.3141 107.104 58.5977 107.33 58.7679C108.119 59.7323 108.795 60.8101 109.528 61.8312C109.584 62.0581 109.979 61.8879 109.866 61.661Z" fill="#894637"/>
<path d="M112.177 50.4856C111.163 50.9962 110.317 51.8471 109.697 52.8114C109.303 53.3787 109.021 54.0027 108.739 54.6267C108.457 55.2507 108.232 55.9314 108.175 56.6688C108.175 56.7823 107.95 56.7823 107.95 56.6688C107.95 55.9314 108.232 55.1939 108.513 54.5132C108.795 53.8892 109.077 53.2085 109.472 52.6412C110.092 51.6769 110.937 50.826 111.952 50.3154C112.065 50.3154 112.121 50.4289 112.177 50.4856Z" fill="#894637"/>
<path d="M116.461 55.2507C115.728 56.6689 114.996 58.087 114.263 59.4485C113.868 60.1292 113.53 60.7532 113.135 61.3772C112.741 62.0012 112.346 62.5117 111.952 63.3626C111.895 63.5328 112.121 63.6463 112.234 63.5328C112.797 63.0223 113.135 62.2848 113.53 61.6041C113.925 60.9234 114.319 60.2427 114.714 59.5619C115.503 58.2005 116.236 56.839 116.799 55.3641C116.856 55.194 116.518 55.0805 116.461 55.2507Z" fill="white"/>
<path d="M120.971 62.0582C120.012 62.0582 117.589 58.8247 117.589 58.8247L117.758 55.5913C118.998 57.1229 121.534 60.5833 120.971 62.0582Z" fill="#3A1714"/>
<path d="M119.28 60.8667C119.223 60.8667 122.154 52.4144 122.154 51.9606C122.154 51.7904 122.211 51.6202 122.267 51.5068C122.38 51.2799 122.492 51.1664 122.662 50.9962C123 50.5424 122.718 50.1453 122.718 49.6348C122.774 49.3512 122.887 49.1242 122.943 48.8406C123 48.6704 122.943 48.4435 122.887 48.2733C122.831 48.1032 122.718 47.9897 122.662 47.8763C122.605 47.6493 122.605 47.4224 122.549 47.1955C122.549 47.1388 122.549 47.0253 122.492 46.9686C122.38 46.7984 122.211 46.7984 122.098 46.685C121.872 46.5148 121.816 46.2312 121.591 46.1177C121.421 46.0043 121.252 46.0043 121.027 46.0043C120.858 46.0043 120.632 46.061 120.463 46.061C120.407 46.061 120.35 46.061 120.35 46.0043C120.35 45.9475 120.35 45.9475 120.35 45.8908C120.463 45.3803 120.576 44.9265 120.576 44.4159C120.576 44.0188 120.35 43.3948 119.9 43.3948C118.885 43.1679 119.11 44.3025 119.11 44.8697C119.11 45.437 118.998 45.8908 118.659 46.685C118.321 47.4792 117.87 47.933 117.983 48.9541C118.096 49.9751 118.321 51.2231 118.321 51.5635C118.321 51.9039 116.687 55.8747 116.687 55.8747C116.687 55.8747 116.179 57.7467 119.28 60.8667Z" fill="#EC9369"/>
<path d="M120.689 51.1096C120.801 51.1096 120.914 51.1096 120.97 51.1096C121.027 51.1096 121.083 51.1096 121.14 51.1096C121.534 51.1096 121.985 51.0529 122.38 50.9962C122.492 50.9962 122.549 50.8827 122.492 50.826C122.492 50.7126 122.38 50.6558 122.323 50.7126C121.929 50.7693 121.534 50.826 121.14 50.826C121.083 50.826 121.027 50.826 120.97 50.826C120.745 50.826 120.294 50.8827 120.181 50.7693V50.6558C120.181 50.5424 120.238 50.4289 120.181 50.3155C120.125 50.0318 119.899 49.9751 119.73 49.9184C119.618 49.9184 119.561 49.8617 119.505 49.8049C119.505 49.8049 119.505 49.6915 119.561 49.6347C119.561 49.578 119.618 49.578 119.618 49.5213C119.674 49.4646 119.73 49.3511 119.787 49.2377C119.787 49.1809 119.787 49.1242 119.787 49.1242C119.787 49.0675 119.73 49.0675 119.674 49.0675C119.505 49.0108 119.336 48.954 119.167 48.8973C119.054 48.8406 118.941 48.7271 118.885 48.6137C118.885 48.5002 118.885 48.3868 118.998 48.2733C119.11 48.1598 119.223 48.0464 119.336 47.9329C119.392 47.8762 119.392 47.8195 119.392 47.7628C119.392 47.706 119.336 47.6493 119.279 47.6493C119.167 47.5926 119.054 47.5358 118.941 47.4791C118.885 47.4224 118.828 47.3657 118.828 47.3089C118.828 47.2522 118.885 47.1955 118.941 47.1388C119.223 46.8551 119.674 46.6282 120.069 46.458C120.181 46.4013 120.181 46.3446 120.181 46.2311C120.125 46.1177 120.069 46.1177 119.956 46.1177C119.505 46.2879 118.998 46.5148 118.716 46.8551C118.659 46.9686 118.547 47.082 118.49 47.2522C118.49 47.4224 118.547 47.5926 118.716 47.706C118.772 47.7628 118.828 47.7628 118.885 47.8195C118.828 47.8762 118.716 47.9897 118.659 48.0464C118.49 48.2733 118.49 48.4435 118.49 48.6704C118.547 48.8973 118.716 49.0675 118.941 49.1809C119.054 49.2377 119.167 49.2944 119.279 49.3511C119.223 49.4078 119.223 49.4078 119.223 49.4646C119.11 49.6347 119.054 49.8617 119.167 50.0318C119.279 50.202 119.448 50.202 119.561 50.2587C119.73 50.3155 119.787 50.3155 119.787 50.3722V50.4857C119.73 50.5991 119.674 50.7693 119.843 50.9395C120.125 51.1096 120.35 51.1096 120.689 51.1096Z" fill="#D97E56"/>
<path d="M107.33 68.6953C107.33 68.6953 109.19 69.0357 109.415 69.6029C109.641 70.2269 107.612 70.7942 107.612 70.7942L107.33 68.6953Z" fill="#3A1714"/>
<path d="M95.6053 69.6595C95.549 69.0355 95.4362 68.4682 95.3799 67.8442C94.478 67.901 93.5197 68.0711 93.407 68.4115C93.1251 69.0355 95.1544 69.6028 95.6053 69.6595C95.6053 69.7162 95.6053 69.7162 95.6053 69.6595Z" fill="#3A1714"/>
<path d="M97.0145 74.6515C98.311 74.9351 99.6074 75.0486 100.904 75.1053C103.835 75.2755 106.653 74.9351 109.415 74.1409C109.246 73.5737 109.133 73.0064 109.021 72.5526C108.457 70.17 108.401 68.9788 108.401 68.9788C108.401 68.9788 107.442 68.4682 102.877 68.1279C98.311 67.7875 95.3798 67.901 95.3798 67.901C95.3798 67.901 95.4926 69.4893 95.1544 71.0777C95.098 71.2478 94.9853 71.6449 94.8162 72.2122C94.7034 72.6093 94.5343 73.1198 94.3652 73.7438C95.098 74.1976 96.169 74.4813 97.0145 74.6515Z" fill="#EC9369"/>
<path d="M99.1564 70.1133C99.0437 70.17 98.9873 70.2834 98.9873 70.3969C98.9873 70.5671 98.9873 70.794 99.0437 70.9642C99.0437 71.0776 99.2691 71.0776 99.2691 70.9642C99.2691 70.794 99.2691 70.6238 99.2128 70.4536C99.2128 70.4536 99.2128 70.3969 99.2128 70.3402C99.2128 70.2834 99.2691 70.3402 99.2691 70.3402C99.2691 70.3969 99.2691 70.4536 99.3255 70.5103C99.3255 70.5671 99.4382 70.5671 99.4382 70.5103C99.6073 70.3969 99.4382 70.0565 99.1564 70.1133Z" fill="#D97E56"/>
<path d="M117.25 139.66C117.701 140.284 108.006 140.171 106.371 140.171C96.6199 140.284 92.6178 140.228 92.6742 139.547C92.6742 138.809 100.171 139.036 110.092 138.866C116.123 138.639 116.856 138.866 117.25 139.66Z" fill="#847895"/>
<path d="M101.355 135.122C101.355 135.122 103.328 131.322 103.948 128.542C104.06 128.088 104.06 126.84 104.06 125.082C105.695 125.082 100.96 114.701 102.595 114.644C102.257 116.176 104.85 123.834 107.048 128.939C108.119 131.492 109.303 133.818 109.303 133.818L101.355 135.122Z" fill="#D97E56"/>
<path d="M110.43 137.108C110.43 137.108 98.4236 139.661 95.8871 139.491C95.6052 139.491 95.4361 139.207 95.5489 138.696C95.6616 138.243 95.8307 137.675 96.0562 137.448C96.5071 136.995 99.1564 135.69 100.002 134.612C100.904 133.534 101.58 132.059 102.313 131.719C103.046 131.322 103.779 131.606 104.06 131.719C104.342 131.833 105.357 133.081 106.259 133.081C107.611 133.081 107.95 131.435 108.457 131.492C108.795 131.549 109.472 133.251 109.979 134.782C110.373 135.69 110.486 136.484 110.43 137.108Z" fill="#C02328"/>
<path d="M110.599 137.221C110.599 137.221 98.3673 139.774 95.7744 139.661C95.4926 139.661 95.4362 139.207 95.5489 138.696C96.6763 138.583 103.948 137.732 104.624 137.392C105.357 136.995 105.751 136.144 106.372 135.747C106.879 135.463 109.077 134.896 110.092 134.782C110.43 135.69 110.599 136.597 110.599 137.221Z" fill="white"/>
<path d="M106.033 137.732C106.033 137.732 106.428 140.455 106.315 140.568C106.202 140.682 97.0145 141.079 96.7891 140.682C96.5636 140.341 96.7891 139.32 96.7891 139.32L102.2 136.881L106.033 137.732Z" fill="white"/>
<path d="M104.85 134.895C104.85 134.895 105.47 134.669 105.695 135.236C105.921 135.86 106.202 138.98 106.202 138.98C106.202 138.98 105.019 138.866 104.624 139.32C104.286 139.831 103.666 137.845 103.666 137.845L104.85 134.895Z" fill="#ED4450"/>
<path d="M101.468 128.599C101.58 128.769 101.637 128.882 101.637 128.882V129.45L101.524 138.242C101.524 138.242 104.681 138.98 105.019 135.803C105.132 134.612 105.808 132.002 106.541 128.996C106.597 128.769 106.653 128.485 106.71 128.258C104.962 128.485 103.215 128.599 101.468 128.599Z" fill="#EC9369"/>
<path d="M101.186 134.045C101.186 134.045 103.215 133.704 103.61 134.045C103.948 134.385 104.173 136.03 104.399 136.144C104.624 136.257 104.793 136.144 104.962 136.03C105.132 135.917 106.09 138.923 106.09 138.923C106.09 138.923 105.132 138.923 104.906 139.15C104.681 139.377 104.399 139.888 103.948 139.888C103.441 139.888 99.9457 139.888 99.9457 139.888C99.9457 139.888 99.4384 138.81 98.762 138.81C98.0292 138.81 97.5783 139.774 97.2964 139.774C97.071 139.774 96.6764 139.774 96.6764 139.774C96.6764 139.774 96.5637 138.81 97.2964 138.413C97.691 138.243 98.6493 137.789 99.3257 136.484C100.058 135.179 100.848 134.045 101.186 134.045Z" fill="#ED4450"/>
<path d="M102.37 135.747C101.975 135.123 100.904 135.18 100.284 135.236C100.002 135.236 100.002 135.69 100.284 135.633C100.622 135.633 101.299 135.577 101.693 135.747C101.129 135.917 100.622 136.031 100.058 136.201C99.6639 136.314 98.9311 136.541 98.762 136.938C98.5929 137.279 98.9311 137.449 99.2129 137.505C100.058 137.619 101.017 137.392 101.806 137.732C102.031 137.846 102.2 137.392 101.975 137.279C101.524 137.052 101.073 137.052 100.622 137.052C100.397 137.052 100.171 137.052 99.8894 137.052C99.7203 137.052 99.5512 137.052 99.4384 137.052C99.1566 137.052 99.1002 137.052 99.3821 136.995C99.7203 136.711 100.34 136.598 100.735 136.484C101.242 136.371 101.749 136.257 102.2 136.087C102.37 136.031 102.426 135.917 102.37 135.747Z" fill="#842A2E"/>
<path d="M99.1001 108.121C97.9164 106.532 96.6763 104.717 96.789 103.526C96.8454 102.788 99.6638 95.8676 99.9456 95.0167C99.9456 95.0167 101.637 110.276 101.637 112.602C101.637 112.602 100.284 109.709 99.1001 108.121ZM109.584 74.8787C109.359 73.971 109.133 73.1768 108.964 72.4961C108.288 72.6096 106.202 72.8932 102.708 73.0634C98.8746 73.2903 95.5489 72.3827 94.7598 72.1558C93.2379 77.2045 87.1502 96.4916 87.883 101.824C88.2775 104.433 90.8704 109.879 93.7452 115.211C95.098 117.651 96.4508 120.09 97.6909 122.246C98.48 123.607 99.1564 124.798 99.7765 125.819C100.904 127.691 101.637 128.939 101.637 128.939V129.507C103.666 130.244 105.808 129.45 106.541 129.11C106.935 127.521 107.386 125.819 107.781 124.174C108.57 120.941 109.303 118.048 109.303 116.857C109.303 116.8 109.303 116.743 109.303 116.686C109.415 113.793 108.908 110.844 108.344 108.121C107.724 105.341 108.683 99.0443 110.486 91.6131C112.29 84.1819 110.655 78.9063 109.584 74.8787Z" fill="#353A3D"/>
<path d="M100.284 98.8745C99.9456 97.1159 100.058 95.3007 99.8892 93.4854C99.7201 91.8403 99.4947 90.1385 99.2128 88.4934C98.6492 84.9764 98.0291 81.4593 97.86 77.9422C97.86 77.6586 97.4091 77.6586 97.4654 77.9422C97.5782 81.4593 98.1982 84.9196 98.7619 88.4367C99.0437 90.252 99.3256 92.0672 99.4383 93.8825C99.551 95.5843 99.4383 97.3996 99.8892 99.0446C99.9456 99.2715 100.34 99.1581 100.284 98.8745Z" fill="#FFE7D7"/>
<path d="M109.359 74.0844C108.852 74.1411 108.401 74.1979 107.893 74.3113C103.609 74.8786 99.2128 75.1622 94.9853 74.0277C94.8725 73.971 94.9289 73.8008 95.0416 73.8008C96.2254 74.0844 97.4654 74.3113 98.6492 74.4248C100.791 74.6517 102.989 74.595 105.131 74.368C106.541 74.2546 107.893 74.0277 109.303 73.8575L109.359 74.0844Z" fill="#621406"/>
<path d="M109.359 116.573C109.359 116.63 109.359 116.687 109.359 116.743C109.303 117.935 108.626 120.828 107.837 124.061C106.71 124.799 104.624 125.65 101.298 125.706L101.411 124.004C101.411 124.004 106.935 121.622 109.359 116.573Z" fill="#FC9081"/>
<path d="M101.242 120.09C99.3255 119.466 96.0562 117.991 93.8015 115.211C95.1543 117.651 96.5072 120.09 97.7472 122.246C98.5927 122.416 99.7201 122.529 101.017 122.472C101.073 121.678 101.186 120.884 101.242 120.09Z" fill="#FC9081"/>
<path d="M101.637 112.602V128.883C101.637 128.883 100.904 127.691 99.7765 125.763L101.637 112.602Z" fill="#1A1A1A"/>
<path d="M98.5929 63.8163C98.4801 62.6818 98.0292 61.6607 98.2547 60.4694C98.4238 59.3916 98.5929 58.3705 98.5929 57.236C98.5929 56.1014 98.5929 54.9669 98.5365 53.8324C98.5365 53.5487 98.0856 53.5487 98.0856 53.8324C98.0856 54.9669 98.0856 56.1014 98.0856 57.236C98.0856 58.4272 97.8601 59.505 97.7474 60.6963C97.5782 61.7741 98.0292 62.7385 98.1419 63.8163C98.2547 64.8941 98.2547 66.0286 98.3674 67.1065C98.3674 67.3901 98.8183 67.3901 98.8183 67.1065C98.7056 66.0286 98.7056 64.8941 98.5929 63.8163Z" fill="#842A2E"/>
<path d="M100.791 61.5471C101.073 60.2424 101.298 59.0511 101.242 57.6897C101.186 56.385 100.96 55.0803 100.509 53.8323C100.396 53.5486 100.002 53.6621 100.115 53.9457C100.509 55.2504 100.791 56.5552 100.791 57.9166C100.791 59.3348 100.396 60.6395 100.227 62.0009C100.171 62.5682 100.227 63.1355 100.34 63.7027C100.509 64.4402 100.566 65.1776 100.566 65.9718C100.566 67.3333 100.396 68.6947 100.284 70.0562C100.284 70.3398 100.735 70.3398 100.791 70.0562C100.904 68.6947 101.017 67.3333 101.073 65.9718C101.073 64.4969 100.509 63.022 100.791 61.5471Z" fill="#842A2E"/>
</g>
<defs>
<linearGradient id="paint0_linear" x1="84.7202" y1="0.732422" x2="84.7202" y2="156.852" gradientUnits="userSpaceOnUse">
<stop stop-color="#F8D9C6"/>
<stop offset="1" stop-color="#F8D9C6" stop-opacity="0.54"/>
</linearGradient>
<clipPath id="clip0">
<rect width="81" height="113" fill="white" transform="translate(42 27.8516)"/>
</clipPath>
</defs>
</svg>
