<svg width="163" height="162" viewBox="0 0 163 162" fill="none" xmlns="http://www.w3.org/2000/svg">
<rect x="6.66064" y="0.732422" width="156.119" height="156.119" rx="78.0596" fill="url(#paint0_linear)"/>
<g clip-path="url(#clip0)">
<path d="M76.6235 140.119C76.6154 140.799 67.1875 140.712 55.8316 140.645C44.4757 140.58 35.4919 140.56 35.5 139.878C35.5081 139.198 44.72 138.699 56.0759 138.766C67.4318 138.833 76.6316 139.438 76.6235 140.119Z" fill="#7DA1B7"/>
<path d="M84.919 47.1819L79.6943 46.779C79.6075 46.7729 79.5288 46.9086 79.5166 47.0787C79.5045 47.2488 79.5611 47.3966 79.6479 47.4026L84.8726 47.8056C84.9574 47.8116 85.0381 47.676 85.0503 47.5059C85.0624 47.3338 85.0038 47.188 84.919 47.1819Z" fill="#FEDADC"/>
<path d="M81.3677 46.9086L79.6941 46.779C79.6073 46.7729 79.5306 46.9086 79.5164 47.0787C79.5043 47.2488 79.5588 47.3966 79.6457 47.4026L81.3193 47.5322C81.2325 47.5261 81.1759 47.3783 81.1901 47.2083C81.2022 47.0382 81.2809 46.9005 81.3677 46.9086Z" fill="#FFB544"/>
<path d="M38.0618 133.229C39.1419 131.352 39.4306 130.094 40.6702 128.462C41.1264 128.9 41.7502 129.187 42.3902 129.252C41.9663 130.281 42.4689 131.123 42.2348 132.216C41.9986 133.31 42.0914 134.525 42.7132 135.529C43.0928 136.14 43.3794 136.604 44.0053 136.999C44.0234 137.009 44.0416 137.023 44.0598 137.041C44.9743 137.76 46.3047 138.283 47.1728 139.562C47.4009 139.898 47.0194 140.338 46.6197 140.275C46.0604 140.188 45.4891 140.074 44.9138 139.945C42.0147 139.362 39.1258 137.604 36.8667 135.63C37.1937 134.836 37.5995 134.026 38.0618 133.229Z" fill="#343256"/>
<path d="M62.6471 136.632C62.8248 134.472 63.3113 132.239 64.0502 130.323C64.6094 130.617 65.2898 130.718 65.9217 130.603C65.8006 131.71 65.736 132.84 65.9903 133.931C66.2427 135.023 66.8443 136.08 67.8335 136.722C68.4371 137.112 68.9116 137.39 69.6222 137.594C69.6424 137.6 69.6626 137.608 69.6848 137.619C70.7628 138.054 72.1861 138.183 73.3732 139.172C73.6861 139.431 73.4418 139.959 73.0381 140.012C72.4768 140.083 71.8974 140.135 71.3079 140.172C68.3624 140.421 65.4695 140.137 62.5866 139.319C62.5462 138.457 62.5684 137.552 62.6471 136.632Z" fill="#343256"/>
<path d="M55.977 34.0554C54.8384 31.7897 53.2132 31.4252 50.7967 32.7575C49.1109 33.6869 47.6029 36.3535 46.9548 39.9718C46.5228 42.3833 45.3357 44.0193 43.6379 45.5865C43.5046 45.71 43.3734 45.8376 43.2462 45.9712C42.0208 47.261 41.2314 49.0347 41.0437 50.9096C40.8034 53.3211 41.5827 55.8703 43.1029 57.7149C45.3034 60.3815 48.691 61.3717 51.8888 61.9244C54.1217 62.3112 54.9292 61.0052 57.0126 60.1669C59.0961 59.3287 60.8383 57.1399 60.6263 54.6798C60.4891 53.1045 59.6008 51.6608 59.4877 50.0855C59.3444 48.0749 60.4689 46.2992 60.9069 44.3635C61.3309 42.4805 61.0765 40.399 60.2064 38.6516C59.3363 36.9083 57.6324 36.4001 55.977 34.0554Z" fill="#4D69A0"/>
<path d="M58.2199 49.5955C58.2018 50.0572 58.2502 50.5654 58.3572 51.1101C58.4077 51.3611 58.4763 51.6365 58.5793 51.9909C58.662 52.2743 58.767 52.572 58.9104 52.9445C59.1526 53.5783 59.4837 54.2748 59.8976 55.0179C60.3659 55.8379 60.8343 56.5588 61.3229 57.2209C61.9184 58.0247 62.5402 58.7799 63.1761 59.4684C63.8666 60.2135 64.6176 60.9545 65.409 61.6571L65.4917 61.7402C65.73 61.9831 66.0328 62.1674 66.3578 62.2686C66.6162 62.3476 66.8908 62.3759 67.1553 62.3516C67.345 62.3314 67.5348 62.2889 67.7205 62.216L68.6512 61.8475C68.7522 61.8049 68.8551 61.7624 68.9561 61.7179L69.3598 61.5357C69.8262 61.3332 70.2703 61.1084 70.7003 60.8857L70.9628 60.7521L71.7057 60.3329C71.9661 60.1912 72.2145 60.0353 72.4426 59.8915C73.2844 59.3772 74.1243 58.7799 75.0893 58.0004L75.3234 57.806C75.6404 57.5367 75.9412 57.2796 76.2259 57.0083L76.7568 56.5122L77.2393 56.0141C77.8187 55.4188 78.3577 54.781 78.8907 54.0743L79.0724 53.8374L79.2299 53.6066L79.5287 53.1693C79.7205 52.8959 79.8799 52.6226 80.0213 52.3816L78.4688 50.5634C78.384 50.6423 78.2891 50.7254 78.1922 50.8104C78.1215 50.8711 78.0489 50.9359 77.9762 51.0068C77.8308 51.1364 77.6855 51.2721 77.5179 51.4077L76.9648 51.8937L76.7609 52.0617C76.2642 52.4768 75.6646 52.9688 74.9883 53.473L74.4937 53.8374L73.9628 54.208C73.7366 54.3781 73.4984 54.5319 73.2441 54.6939C73.1189 54.7769 72.9937 54.8579 72.8726 54.9389C72.1196 55.4107 71.2999 55.9068 70.4217 56.3563C70.234 56.4555 69.9998 56.5851 69.7656 56.6924L69.0954 57.0184C68.95 57.0832 68.8026 57.152 68.6593 57.2168C68.3706 57.3464 68.0718 57.4861 67.769 57.6076C67.5247 57.2391 67.2784 56.8625 67.018 56.4595C66.6869 55.9473 66.372 55.4532 66.0671 54.9653C65.9379 54.7628 65.8107 54.5623 65.6876 54.3679C65.6633 54.3295 65.6432 54.2971 65.625 54.2606C65.4736 54.0298 65.3302 53.803 65.1889 53.5803C64.9043 53.1267 64.6358 52.6975 64.3652 52.2966C64.0019 51.7357 63.6263 51.183 63.2085 50.6079C63.0308 50.3609 62.8511 50.1362 62.6573 49.8871C62.4837 49.6684 62.3141 49.472 62.1243 49.2513C61.7488 48.8383 61.4157 48.5224 61.0947 48.2754C60.7435 48.0101 60.4305 47.8401 60.1358 47.7489L60.1075 47.7408C59.7603 47.6376 59.4353 47.6477 59.1546 47.7672C58.8639 47.8927 58.6338 48.1175 58.4763 48.4495C58.3249 48.7674 58.2341 49.1622 58.2199 49.5955Z" fill="#FFA59D"/>
<path d="M57.7475 46.311C57.7475 46.311 61.1028 46.7281 65.411 51.0875C65.411 51.0875 65.7057 53.7825 62.7219 56.3134L57.7475 46.311Z" fill="#A0D1CD"/>
<path d="M37.6198 132.196C38.7402 133.336 40.7974 134.28 42.6628 134.28C51.8364 113.805 57.4205 98.6658 59.3262 85.936C62.5342 98.1049 62.8955 110.547 62.3969 125.221C62.2798 128.537 62.1142 131.7 61.9184 134.608C62.8269 135.071 63.8848 135.339 65.0173 135.339C65.5462 135.339 66.059 135.28 66.5496 135.17C66.8989 135.096 67.232 134.99 67.553 134.861C68.199 132.036 68.847 129.122 69.16 126.118C71.3201 105.467 69.4628 89.5786 69.1034 85.4845C68.0476 73.4431 63.4931 66.6844 63.3094 66.3928C63.3094 66.3928 63.3094 66.3928 63.3094 66.3888L63.3053 66.3726L58.553 66.2633L56.3121 66.2126L54.8929 66.1782C54.8929 66.1782 52.6156 68.6444 51.4649 71.8942C50.6796 74.1093 49.8216 76.9338 49.6782 79.2887C48.6668 95.9404 39.0733 129.523 37.6198 132.196Z" fill="#364F8A"/>
<path d="M57.9049 48.2631C57.0489 48.8847 55.985 49.2026 54.9352 49.156C53.8813 49.1135 52.9769 48.6599 52.1795 47.9755C52.2845 47.2304 52.3571 46.4813 52.3814 45.7321C52.3894 45.558 52.3935 45.3859 52.3975 45.2117V45.1955C52.4015 44.9971 52.4015 44.7987 52.3975 44.5982C52.3975 44.4848 52.3935 44.3694 52.3894 44.256C52.3733 43.4765 52.3087 42.6949 52.2077 41.9235C52.2037 41.8688 52.1956 41.8182 52.1876 41.7676C52.1532 41.5145 52.1149 41.2594 52.0705 41.0063C51.9231 40.1599 51.7252 39.3176 51.4789 38.4976C51.9271 38.6575 52.3733 38.8235 52.8114 39.0098C52.8194 39.0139 52.8316 39.0179 52.8457 39.026C53.8127 39.433 54.7272 39.9271 55.5085 40.6256C55.5711 41.146 55.6478 41.6582 55.7447 42.1705C55.7609 42.2555 55.779 42.3406 55.7952 42.4196C55.8537 42.7192 55.9224 43.0169 55.993 43.3125C55.9971 43.3327 56.0052 43.3591 56.0092 43.3793C56.0637 43.604 56.1222 43.8288 56.1869 44.0475C56.2333 44.2176 56.2797 44.3775 56.3342 44.5435C56.3383 44.5516 56.3383 44.5557 56.3423 44.5638C56.742 45.8435 57.2609 47.0786 57.9049 48.2631Z" fill="#FFA59D"/>
<path d="M58.1068 46.453C57.9958 46.4064 57.8807 46.3598 57.7656 46.3153C57.7555 46.3133 57.7495 46.3113 57.7495 46.3113L57.7475 46.3092C57.7374 46.3072 57.7253 46.3052 57.7152 46.3032C57.3599 46.2343 56.9985 46.1958 56.6331 46.1837C55.2805 46.1432 54.1156 45.797 52.765 45.8759C52.7408 45.878 52.7125 45.878 52.6863 45.882C52.4279 45.9063 52.1715 45.9529 51.9252 46.0278C51.5032 46.1513 51.0995 46.3477 50.7361 46.6048C50.1425 47.0219 49.2866 47.6537 48.3397 48.4514L50.4898 55.0502C50.4898 55.0502 51.1923 57.1499 51.8565 58.0793C53.5645 60.6325 54.4002 63.2465 54.8949 66.1844C56.3525 66.5691 57.9675 66.7777 59.6674 66.7655C60.9392 66.7574 62.1606 66.6279 63.3053 66.393C63.3073 66.391 63.3073 66.391 63.3073 66.3889C64.7669 50.7151 59.5442 47.1353 58.1068 46.453Z" fill="#A0D1CD"/>
<path d="M55.775 42.5127C55.8376 42.7921 53.6573 43.6304 52.3914 44.256C52.3753 43.4765 52.3107 42.6949 52.2098 41.9235C52.2057 41.8688 52.1976 41.8182 52.1896 41.7676C52.1552 41.5145 52.1169 41.2594 52.0725 41.0063C51.9251 40.1599 51.7273 39.3176 51.481 38.4976C51.9291 38.6575 52.3753 38.8235 52.8134 39.0098C52.8215 39.0139 52.8336 39.0179 52.8477 39.026C53.7925 39.4796 54.6869 40.008 55.4641 40.6924C55.5307 41.2168 55.6155 41.7372 55.7205 42.2576C55.7366 42.3426 55.7548 42.4277 55.775 42.5127Z" fill="#DD6478"/>
<path d="M51.689 39.6905C51.802 40.0165 51.9171 40.3465 51.9979 40.6846C52.0322 40.8102 52.0564 40.9357 52.0726 41.0653C54.3902 44.311 59.5483 43.0293 57.8949 39.4677C57.3659 38.3298 56.3303 36.3719 55.7125 34.2944C55.0342 35.6166 54.1479 34.2944 52.1856 36.3071C52.1856 36.3071 51.481 37.4855 51.4144 37.9998C51.3417 38.5708 51.5053 39.1418 51.689 39.6905Z" fill="#FFA59D"/>
<path d="M51.6062 39.1393C51.5032 38.9206 51.3417 38.6797 51.1116 38.6371C50.8834 38.5967 50.7038 38.7748 50.6149 38.9672C50.3848 39.4653 50.5281 40.1497 50.9581 40.6073C51.3882 41.0628 52.0725 41.2572 52.5954 41.0709C52.3027 40.4331 51.905 39.7771 51.6062 39.1393Z" fill="#FFA59D"/>
<path d="M57.2145 61.9996C55.7953 62.1008 54.4407 63.8583 54.4407 63.8583C54.4285 64.2774 53.5261 64.6156 53.0275 64.7492C51.3559 65.1967 45.3155 66.3569 43.117 66.4581H43.109C42.1197 66.5027 41.3223 65.6583 41.4172 64.6723C41.7786 60.969 43.3411 56.1662 45.4629 53.1533C45.6123 53.6312 44.9098 55.9475 47.8956 56.6035C47.8956 56.6035 49.0463 56.6056 49.0443 56.6056C48.9817 56.7109 47.1547 60.8556 46.4582 62.6434C47.4192 62.6293 51.5416 62.2122 53.0295 61.9145C53.294 61.8619 53.6049 61.7748 53.6553 61.623C54.0046 60.566 54.5214 60.07 55.6116 59.829C55.8498 59.7764 56.1022 59.75 56.3363 59.8209C56.7421 59.9383 57.0268 60.3251 57.1459 60.7341C57.2589 61.1431 57.2367 61.5764 57.2145 61.9996Z" fill="#FFA59D"/>
<path d="M57.386 48.5648C56.9419 48.9941 56.2716 49.1014 55.6559 49.0508C54.6687 48.9698 53.7138 48.5304 53.0112 47.8359C52.5065 47.3358 52.131 46.7081 51.9251 46.0278C52.1734 45.9549 52.4278 45.9063 52.6862 45.882C52.7145 45.88 52.7407 45.878 52.7649 45.8759C54.1155 45.797 55.2784 46.1432 56.633 46.1837C56.9984 46.1958 57.3598 46.2363 57.7151 46.3032C57.7615 46.4348 57.8019 46.5684 57.8322 46.7041C57.9735 47.356 57.8625 48.1032 57.386 48.5648Z" fill="#FFA59D"/>
<path d="M47.4615 62.8943C46.5773 62.8639 45.691 62.868 44.8068 62.9024C44.5383 62.9125 44.5383 62.4954 44.8068 62.4853C45.691 62.4489 46.5752 62.4468 47.4615 62.4772C47.73 62.4853 47.73 62.9044 47.4615 62.8943Z" fill="#DD6478"/>
<path d="M55.8397 39.1438C55.8377 39.1761 55.9285 39.1883 56.0416 39.1478C56.1607 39.1093 56.3101 39.0142 56.4211 38.834C56.4211 38.8319 56.4252 38.8259 56.4272 38.8218C56.4918 38.7064 56.518 38.5971 56.5221 38.4958C56.5322 38.3521 56.4938 38.2346 56.4555 38.184C56.4332 38.1536 56.4171 38.1435 56.3989 38.1516C56.3908 38.1536 56.3848 38.1597 56.3767 38.1678C56.3565 38.2042 56.3464 38.2954 56.3222 38.4047C56.3 38.4857 56.2738 38.5768 56.2253 38.6659C56.2213 38.6781 56.2152 38.6861 56.2092 38.6983C56.1345 38.836 56.0315 38.9352 55.9507 39.0081C55.8781 39.0688 55.8296 39.1114 55.8397 39.1438Z" fill="#DD6478"/>
<path d="M78.0912 51.1423C78.0427 50.0449 77.9801 48.4473 77.9236 47.119C77.9135 46.9004 78.2244 46.8457 78.291 47.0543C78.497 47.7022 78.6827 48.4352 78.8301 48.8604C79.9061 47.929 80.7762 46.7627 81.3798 45.4729C81.4848 45.2482 81.6605 44.9789 81.9007 45.0335C82.1006 45.0801 82.1753 45.3231 82.1813 45.5276C82.1975 46.0925 81.9633 46.627 81.7776 47.1595C81.5918 47.6921 81.4545 48.2873 81.6645 48.8118C81.8381 49.2491 82.2419 49.6095 82.2479 50.0793C82.252 50.3891 82.0784 50.6705 81.8967 50.9196C81.1921 51.8874 80.2634 52.6892 79.2035 53.244C78.8987 52.5556 78.5252 51.7619 78.0912 51.1423Z" fill="#FFA59D"/>
<path d="M56.6976 40.1257C56.7946 40.3383 56.9783 40.4638 57.1075 40.4051C57.2367 40.3464 57.2649 40.1257 57.168 39.9111C57.0711 39.6985 56.8874 39.5729 56.7582 39.6316C56.629 39.6924 56.6007 39.9131 56.6976 40.1257Z" fill="#DD6478"/>
<path d="M48.3377 48.4497C46.121 50.3834 44.9319 53.2079 44.2758 54.7488C44.2758 54.7488 45.0955 58.2132 48.5053 58.9401L51.1398 54.5564L50.9036 50.7357L48.3377 48.4497Z" fill="#A0D1CD"/>
<path d="M56.3101 26.4118C56.2959 24.2048 57.7858 22.7753 59.3201 21.4268C60.7757 20.1472 64.1815 17.6061 63.1519 15.229C62.5422 13.8238 60.6162 13.6152 59.7602 12.3437C58.6216 10.653 58.6378 8.31235 59.9076 6.70468C60.3639 6.12964 59.5543 5.30758 59.094 5.88869C57.59 7.78793 57.3457 10.3898 58.5348 12.5381C58.8457 13.1009 59.2576 13.6294 59.7441 14.0465C60.1499 14.3948 61.1391 14.6863 61.4379 15.0792C61.8376 15.6015 61.8538 16.9055 61.5853 17.4745C61.3834 17.9057 60.9756 18.3067 60.6546 18.6509C60.1034 19.2421 59.4837 19.7604 58.876 20.2909C56.6735 22.2064 54.7394 24.2595 55.2502 27.4161C55.5066 28.9995 56.3141 30.4209 57.2932 31.6661C57.9413 32.4922 58.6842 33.2212 59.3888 33.9966C60.9392 35.7035 59.9339 37.8842 58.4097 38.9715C57.8121 39.3988 58.0099 39.9049 58.6136 39.4716C59.7623 38.6516 61.1149 37.6129 61.3975 36.1287C61.6741 34.6749 60.6788 33.695 59.7663 32.7271C58.127 30.9939 56.3262 28.957 56.3101 26.4118Z" fill="#D4E3E8"/>
<path d="M60.2105 78.4751C59.728 82.5429 59.0315 86.5763 58.129 90.5712C58.0685 90.8364 58.4763 90.9498 58.5368 90.6845C59.4473 86.6532 60.1459 82.5814 60.6324 78.4751C60.6627 78.2058 60.2407 78.2079 60.2105 78.4751Z" fill="#223759"/>
<path d="M62.4857 77.0312C62.086 78.2198 61.3168 79.2018 60.261 79.874C60.0328 80.0198 60.2448 80.3863 60.4729 80.2385C61.6237 79.5055 62.4575 78.4364 62.8915 77.1426C62.9803 76.8854 62.5725 76.7741 62.4857 77.0312Z" fill="#223759"/>
<path d="M63.4607 53.6534C63.2003 53.0581 62.7622 52.5742 62.3948 52.0478C61.777 51.1609 61.4056 50.2032 61.2703 49.126C61.236 48.8587 60.8141 48.8567 60.8484 49.126C61.0079 50.4077 61.4621 51.4808 62.2232 52.5216C62.742 53.2302 63.2488 53.8741 63.3053 54.7994C63.3578 55.6701 63.0166 56.5468 62.7239 57.3486C62.631 57.6038 63.0368 57.7151 63.1317 57.462C63.5778 56.2411 64.0119 54.9149 63.4607 53.6534Z" fill="#619E97"/>
<path d="M51.3175 53.3373C51.0025 54.3699 50.5503 55.3276 49.9588 56.2286C49.8094 56.4574 50.1748 56.668 50.3222 56.4412C50.9319 55.5119 51.3982 54.5116 51.7232 53.4486C51.804 53.1894 51.3962 53.0761 51.3175 53.3373Z" fill="#619E97"/>
<path d="M56.1385 65.0973C51.8142 72.348 50.7603 80.842 49.4844 89.0362C48.0309 98.3745 46.1312 107.642 43.7873 116.798C42.471 121.939 41.0134 127.043 39.4246 132.105C39.3438 132.366 39.7496 132.478 39.8324 132.219C42.6446 123.261 45.0369 114.172 46.9851 104.985C47.9441 100.46 48.798 95.9104 49.543 91.3445C50.2233 87.1755 50.7664 82.9781 51.6203 78.8395C52.5975 74.1136 54.0207 69.4729 56.5039 65.3099C56.6432 65.0771 56.2778 64.8624 56.1385 65.0973Z" fill="#223759"/>
<path d="M95.3764 140.119C95.3845 140.8 104.812 140.713 116.168 140.646C127.524 140.579 136.508 140.559 136.5 139.876C136.492 139.196 127.28 138.698 115.924 138.765C104.566 138.834 95.3683 139.439 95.3764 140.119Z" fill="#7DA1B7"/>
<path d="M133.938 133.229C132.858 131.352 132.569 130.094 131.33 128.462C130.874 128.9 130.25 129.187 129.61 129.252C130.034 130.281 129.531 131.123 129.765 132.216C130.001 133.31 129.909 134.525 129.287 135.529C128.907 136.14 128.62 136.604 127.995 136.999C127.976 137.009 127.958 137.023 127.94 137.041C127.026 137.76 125.695 138.283 124.827 139.562C124.599 139.898 124.981 140.338 125.38 140.275C125.939 140.188 126.511 140.074 127.086 139.945C129.985 139.362 132.874 137.604 135.133 135.63C134.806 134.836 134.4 134.026 133.938 133.229Z" fill="#212425"/>
<path d="M109.353 136.632C109.175 134.472 108.689 132.239 107.95 130.323C107.39 130.617 106.71 130.718 106.078 130.603C106.199 131.71 106.264 132.84 106.01 133.931C105.757 135.023 105.156 136.08 104.166 136.722C103.563 137.112 103.088 137.39 102.378 137.594C102.358 137.6 102.337 137.608 102.315 137.619C101.237 138.054 99.8138 138.183 98.6268 139.172C98.3139 139.431 98.5581 139.959 98.9619 140.012C99.5231 140.083 100.103 140.135 100.692 140.172C103.638 140.421 106.53 140.137 109.413 139.319C109.454 138.457 109.432 137.552 109.353 136.632Z" fill="#212425"/>
<path d="M116.023 34.0554C117.162 31.7897 118.787 31.4252 121.203 32.7575C122.889 33.6869 124.397 36.3535 125.045 39.9718C125.477 42.3833 126.664 44.0193 128.362 45.5865C128.495 45.71 128.626 45.8376 128.754 45.9712C129.979 47.261 130.768 49.0347 130.956 50.9096C131.196 53.3211 130.417 55.8703 128.897 57.7149C126.696 60.3815 123.309 61.3717 120.111 61.9244C117.878 62.3111 117.071 61.0052 114.987 60.1669C112.904 59.3287 111.162 57.1399 111.374 54.6798C111.511 53.1045 112.399 51.6608 112.512 50.0855C112.656 48.0749 111.531 46.2992 111.093 44.3635C110.669 42.4805 110.923 40.399 111.793 38.6516C112.662 36.9083 114.367 36.4001 116.023 34.0554Z" fill="#621406"/>
<path d="M114.743 49.1176C114.626 49.5651 114.43 50.0369 114.168 50.5249C114.047 50.7496 113.901 50.9926 113.697 51.3024C113.536 51.5494 113.348 51.8045 113.102 52.1163C112.686 52.6509 112.165 53.2198 111.553 53.8091C110.867 54.457 110.209 55.0077 109.547 55.4957C108.743 56.089 107.926 56.6275 107.118 57.0993C106.24 57.6096 105.307 58.0975 104.344 58.5369L104.239 58.5916C103.938 58.7536 103.597 58.8426 103.256 58.8426C102.985 58.8426 102.715 58.788 102.469 58.6888C102.293 58.6138 102.123 58.5167 101.968 58.3931L101.185 57.7675C101.102 57.6966 101.013 57.6258 100.93 57.5549L100.597 57.2633C100.21 56.9333 99.8522 56.587 99.507 56.2489L99.295 56.0444L98.7075 55.4268C98.4996 55.2142 98.3078 54.9915 98.1322 54.787C97.4781 54.048 96.8502 53.2279 96.1537 52.2014L95.9862 51.9463C95.7621 51.596 95.5481 51.2619 95.3563 50.9177L94.9949 50.2859L94.678 49.6684C94.2984 48.9293 93.9693 48.1599 93.6665 47.3298L93.5615 47.0503L93.4788 46.7831L93.3213 46.2769C93.2163 45.959 93.1457 45.6512 93.079 45.3779L95.0959 44.0962C95.1544 44.1974 95.221 44.3047 95.2876 44.4141C95.3381 44.493 95.3886 44.5761 95.437 44.6652C95.538 44.8332 95.6369 45.0033 95.758 45.1835L96.1456 45.8092L96.291 46.0299C96.6443 46.5725 97.0743 47.2204 97.573 47.9008L97.9404 48.3928L98.3401 48.903C98.5077 49.1318 98.6894 49.3505 98.8852 49.5793C98.9801 49.6967 99.077 49.8081 99.1678 49.9215C99.7513 50.5937 100.387 51.3085 101.096 51.9969C101.245 52.1467 101.433 52.3391 101.625 52.5112L102.17 53.0214C102.291 53.1267 102.412 53.234 102.527 53.3393C102.765 53.5479 103.01 53.7686 103.264 53.9751C103.605 53.6957 103.95 53.4061 104.318 53.0984C104.784 52.7055 105.23 52.3249 105.662 51.9503C105.846 51.7964 106.024 51.6405 106.199 51.4907C106.234 51.4623 106.262 51.436 106.29 51.4077C106.502 51.2315 106.706 51.0574 106.906 50.8853C107.31 50.535 107.693 50.2049 108.069 49.8992C108.582 49.47 109.102 49.0508 109.668 48.6256C109.91 48.4414 110.146 48.2794 110.405 48.0992C110.633 47.9412 110.855 47.8036 111.101 47.6477C111.58 47.3642 111.991 47.1597 112.371 47.0159C112.783 46.8661 113.134 46.7952 113.441 46.7952H113.469C113.831 46.7993 114.139 46.9046 114.374 47.101C114.616 47.3055 114.769 47.5889 114.824 47.9534C114.884 48.2936 114.856 48.7005 114.743 49.1176Z" fill="#F4A07F"/>
<path d="M114.25 46.3115C114.25 46.3115 110.895 46.7286 106.587 51.088C106.587 51.088 106.292 53.783 109.276 56.3139L114.25 46.3115Z" fill="#811D65"/>
<path d="M134.378 132.196C133.258 133.336 131.201 134.28 129.335 134.28C120.162 113.805 114.578 98.6658 112.672 85.936C109.464 98.1049 109.102 110.547 109.601 125.221C109.718 128.537 109.884 131.7 110.08 134.608C109.171 135.071 108.113 135.339 106.981 135.339C106.452 135.339 105.939 135.28 105.448 135.171C105.099 135.096 104.766 134.99 104.445 134.861C103.799 132.036 103.151 129.123 102.838 126.118C100.678 105.467 102.535 89.5786 102.895 85.4845C103.95 73.4431 108.505 66.6844 108.689 66.3928C108.689 66.3928 108.689 66.3928 108.689 66.3888L108.693 66.3726L113.445 66.2633L115.686 66.2126L117.105 66.1782C117.105 66.1782 119.382 68.6444 120.533 71.8942C121.318 74.1093 122.176 76.9338 122.32 79.2887C123.333 95.9404 132.925 129.523 134.378 132.196Z" fill="#353A3D"/>
<path d="M114.093 48.2631C114.949 48.8847 116.013 49.2026 117.063 49.156C118.117 49.1135 119.021 48.6599 119.818 47.9755C119.713 47.2304 119.641 46.4813 119.617 45.7321C119.608 45.558 119.604 45.3859 119.6 45.2117V45.1955C119.596 44.9971 119.596 44.7987 119.6 44.5982C119.6 44.4848 119.604 44.3694 119.608 44.256C119.625 43.4765 119.689 42.6949 119.79 41.9235C119.794 41.8688 119.802 41.8182 119.81 41.7676C119.845 41.5145 119.883 41.2594 119.927 41.0063C120.075 40.1599 120.273 39.3176 120.519 38.4976C120.071 38.6575 119.625 38.8235 119.187 39.0098C119.178 39.0139 119.166 39.0179 119.152 39.026C118.185 39.433 117.271 39.9271 116.489 40.6256C116.427 41.146 116.35 41.6582 116.253 42.1705C116.237 42.2555 116.219 42.3406 116.203 42.4196C116.144 42.7192 116.076 43.0169 116.005 43.3125C116.001 43.3327 115.993 43.3591 115.989 43.3793C115.934 43.6041 115.876 43.8288 115.811 44.0475C115.765 44.2176 115.718 44.3775 115.664 44.5435C115.66 44.5516 115.66 44.5557 115.656 44.5638C115.258 45.8435 114.739 47.0786 114.093 48.2631Z" fill="#F4A07F"/>
<path d="M113.893 46.453C114.004 46.4064 114.119 46.3598 114.234 46.3153C114.244 46.3133 114.25 46.3113 114.25 46.3113L114.252 46.3092C114.263 46.3072 114.275 46.3052 114.285 46.3032C114.64 46.2343 115.001 46.1958 115.367 46.1837C116.719 46.1432 117.884 45.797 119.235 45.8759C119.259 45.878 119.287 45.878 119.314 45.882C119.572 45.9063 119.828 45.9529 120.075 46.0278C120.497 46.1513 120.9 46.3477 121.264 46.6048C121.857 47.0219 122.713 47.6537 123.66 48.4514L121.51 55.0502C121.51 55.0502 120.808 57.1499 120.143 58.0793C118.435 60.6325 117.6 63.2465 117.105 66.1844C115.647 66.5691 114.032 66.7777 112.333 66.7656C111.061 66.7575 109.839 66.6279 108.695 66.393C108.693 66.391 108.693 66.391 108.693 66.3889C107.231 50.7151 112.456 47.1353 113.893 46.453Z" fill="#811D65"/>
<path d="M116.225 42.5127C116.162 42.7921 118.343 43.6304 119.608 44.256C119.625 43.4765 119.689 42.6949 119.79 41.9235C119.794 41.8688 119.802 41.8182 119.81 41.7676C119.845 41.5145 119.883 41.2594 119.927 41.0063C120.075 40.1599 120.273 39.3176 120.519 38.4976C120.071 38.6575 119.625 38.8235 119.187 39.0098C119.178 39.0139 119.166 39.0179 119.152 39.026C118.207 39.4796 117.313 40.008 116.536 40.6924C116.469 41.2168 116.384 41.7372 116.279 42.2576C116.263 42.3426 116.245 42.4277 116.225 42.5127Z" fill="#DD6478"/>
<path d="M120.311 39.69C120.198 40.016 120.083 40.346 120.002 40.6841C119.968 40.8097 119.944 40.9352 119.927 41.0648C117.61 44.3105 112.447 43.5244 114 38.5244C114.474 36.9993 115.213 36.537 116.5 34.5244C117.178 35.8466 117.852 34.2939 119.814 36.3066C119.814 36.3066 120.519 37.485 120.586 37.9993C120.656 38.5703 120.495 39.1413 120.311 39.69Z" fill="#F4A07F"/>
<path d="M120.392 39.1398C120.495 38.9211 120.656 38.6802 120.886 38.6376C121.114 38.5971 121.294 38.7753 121.383 38.9677C121.613 39.4658 121.47 40.1502 121.04 40.6078C120.61 41.0633 119.925 41.2577 119.402 41.0714C119.695 40.4336 120.093 39.7776 120.392 39.1398Z" fill="#F4A07F"/>
<path d="M114.785 61.9996C116.205 62.1008 117.559 63.8583 117.559 63.8583C117.571 64.2774 118.474 64.6156 118.972 64.7492C120.644 65.1967 126.684 66.3569 128.883 66.4581H128.891C129.88 66.5027 130.678 65.6583 130.583 64.6723C130.221 60.969 128.659 56.1662 126.537 53.1533C126.388 53.6312 127.09 55.9475 124.104 56.6035C124.104 56.6035 122.954 56.6056 122.956 56.6056C123.018 56.7109 124.845 60.8556 125.542 62.6434C124.581 62.6293 120.458 62.2122 118.97 61.9145C118.706 61.8619 118.395 61.7748 118.345 61.623C117.995 60.566 117.479 60.07 116.388 59.829C116.15 59.7764 115.898 59.75 115.664 59.8209C115.258 59.9383 114.973 60.3251 114.854 60.7341C114.739 61.1431 114.761 61.5764 114.785 61.9996Z" fill="#F4A07F"/>
<path d="M114.614 48.5648C115.058 48.9941 115.728 49.1014 116.344 49.0508C117.331 48.9698 118.286 48.5304 118.989 47.8359C119.493 47.3358 119.869 46.7081 120.075 46.0278C119.826 45.9549 119.572 45.9063 119.314 45.882C119.285 45.88 119.259 45.878 119.235 45.8759C117.884 45.797 116.722 46.1432 115.367 46.1837C115.002 46.1958 114.64 46.2363 114.285 46.3032C114.238 46.4348 114.198 46.5684 114.168 46.7041C114.026 47.356 114.137 48.1032 114.614 48.5648Z" fill="#F4A07F"/>
<path d="M124.538 62.8943C125.423 62.8639 126.309 62.868 127.193 62.9024C127.462 62.9125 127.46 62.4954 127.193 62.4853C126.309 62.4489 125.425 62.4468 124.538 62.4772C124.27 62.4853 124.27 62.9044 124.538 62.8943Z" fill="#DD6478"/>
<path d="M95.2916 44.7561C95.659 43.7214 95.3926 42.2474 95.8327 40.994C95.9053 40.7875 95.6247 40.6437 95.4996 40.824C95.1119 41.3828 95.2169 41.806 95.2512 42.3567C94.9585 40.8503 94.6456 40.0647 94.0036 38.7729C93.8946 38.5522 93.7936 38.3881 93.6342 38.1998C93.4323 37.9629 92.978 38.0034 92.4027 38.5522C91.9949 38.9409 92.1907 39.8946 92.3562 40.4352C92.5622 41.1074 92.2937 41.3301 92.1503 41.7796C92.0554 42.0732 92.2816 42.9358 92.3825 43.2274C92.7741 44.3592 92.9235 44.2357 93.083 45.3736C93.7472 45.2704 94.6961 45.2197 95.2916 44.7561Z" fill="#F4A07F"/>
<path d="M123.66 48.4492C125.877 50.3829 127.066 53.2074 127.722 54.7483C127.722 54.7483 126.902 58.2127 123.493 58.9396L120.858 54.556L121.094 50.7352L123.66 48.4492Z" fill="#811D65"/>
<path d="M111.789 78.4747C112.272 82.5424 112.968 86.5758 113.871 90.5707C113.931 90.8359 113.524 90.9493 113.463 90.6841C112.553 86.6527 111.854 82.5809 111.368 78.4747C111.335 78.2054 111.757 78.2074 111.789 78.4747Z" fill="#272A2B"/>
<path d="M109.514 77.0317C109.914 78.2203 110.683 79.2023 111.739 79.8745C111.967 80.0203 111.755 80.3868 111.527 80.239C110.376 79.506 109.543 78.4369 109.108 77.1431C109.02 76.8859 109.427 76.7746 109.514 77.0317Z" fill="#272A2B"/>
<path d="M108.539 53.6534C108.8 53.0581 109.238 52.5742 109.605 52.0478C110.223 51.1609 110.594 50.2032 110.73 49.126C110.764 48.8587 111.186 48.8567 111.152 49.126C110.992 50.4077 110.538 51.4808 109.777 52.5216C109.258 53.2302 108.751 53.8741 108.695 54.7995C108.642 55.6701 108.983 56.5468 109.276 57.3487C109.369 57.6038 108.963 57.7151 108.868 57.462C108.422 56.2411 107.988 54.9149 108.539 53.6534Z" fill="#5B1246"/>
<path d="M120.682 53.3373C120.997 54.3699 121.45 55.3276 122.041 56.2286C122.191 56.4574 121.825 56.668 121.678 56.4412C121.068 55.5119 120.602 54.5116 120.277 53.4486C120.196 53.1894 120.604 53.0761 120.682 53.3373Z" fill="#5B1246"/>
<path d="M115.861 65.0973C120.186 72.348 121.24 80.842 122.516 89.0362C123.969 98.3745 125.869 107.642 128.213 116.798C129.529 121.939 130.987 127.043 132.575 132.105C132.656 132.366 132.25 132.478 132.168 132.219C129.355 123.261 126.963 114.172 125.015 104.985C124.056 100.46 123.202 95.9104 122.457 91.3445C121.777 87.1755 121.234 82.9781 120.38 78.8395C119.403 74.1136 117.979 69.4729 115.496 65.3099C115.357 65.0771 115.722 64.8624 115.861 65.0973Z" fill="#272A2B"/>
<circle cx="53.8" cy="37.8244" r="0.3" fill="#1A1A1A"/>
<circle cx="55.8" cy="36.8244" r="0.3" fill="#1A1A1A"/>
<path d="M115.235 39.4562C115.268 39.3678 115.379 39.3125 115.478 39.3457C115.567 39.3788 115.666 39.423 115.755 39.4562C115.843 39.4893 115.899 39.5998 115.865 39.6993C115.832 39.7877 115.722 39.843 115.622 39.8098C115.534 39.7767 115.434 39.7325 115.346 39.6993C115.257 39.6661 115.202 39.5556 115.235 39.4562Z" fill="#D25C48"/>
<path d="M118.807 37.7431C118.608 37.5663 118.652 37.6215 118.475 37.4337C118.287 37.2458 118.121 37.0358 117.944 36.848C117.778 36.6711 118.044 36.4059 118.199 36.5827C118.376 36.7706 118.542 36.9916 118.73 37.1684C118.918 37.3563 118.873 37.301 119.062 37.4779C119.238 37.6326 118.984 37.9088 118.807 37.7431Z" fill="#621406"/>
<path d="M115.035 37.0911C114.991 37.1243 114.958 37.1795 114.969 37.2458C114.98 37.3342 115.058 37.4005 115.146 37.3895C115.257 37.3784 115.367 37.3563 115.467 37.3232C115.588 37.2679 115.721 37.2016 115.843 37.1353C115.898 37.1132 115.942 37.0801 115.987 37.0469C116.031 37.0138 116.064 36.9585 116.075 36.9032C116.097 36.6601 115.788 36.848 115.688 36.8922C115.511 36.9695 115.323 37.0359 115.124 37.058C115.08 37.058 115.058 37.069 115.035 37.0911Z" fill="#621406"/>
<path d="M118.343 38.9365C118.475 39.0139 118.675 38.9255 118.663 38.7708C118.652 38.594 118.42 38.4061 118.265 38.3398C118.044 38.2403 117.779 38.2293 117.657 38.2845C117.447 38.384 117.414 38.6271 117.546 38.6271C118.099 38.6603 118.243 38.8813 118.343 38.9365Z" fill="#1A1A1A"/>
<path d="M114.516 38.3396C114.427 38.1297 114.737 37.9639 114.881 37.9197C115.047 37.8644 115.212 37.8534 115.367 37.9197C115.412 37.9308 115.445 37.9639 115.467 37.9971C115.5 38.0855 115.489 38.1739 115.423 38.2512C115.301 38.4059 115.157 38.2733 115.002 38.2733C114.726 38.2733 114.56 38.4501 114.516 38.3396Z" fill="#1A1A1A"/>
<path d="M115.28 40.5435C115.809 40.8041 116.327 40.8041 116.868 40.7824C117.115 40.7824 116.845 41.195 116.631 41.2819C116.046 41.5207 115.674 41.6511 115.111 41.347C114.83 41.195 114.999 40.3914 115.28 40.5435Z" fill="#D25C48"/>
</g>
<defs>
<linearGradient id="paint0_linear" x1="84.7202" y1="0.732422" x2="84.7202" y2="156.852" gradientUnits="userSpaceOnUse">
<stop stop-color="#F8D9C6"/>
<stop offset="1" stop-color="#F8D9C6" stop-opacity="0.54"/>
</linearGradient>
<clipPath id="clip0">
<rect width="101" height="135" fill="white" transform="translate(35.5 5.69238)"/>
</clipPath>
</defs>
</svg>
