<svg width="163" height="162" viewBox="0 0 163 162" fill="none" xmlns="http://www.w3.org/2000/svg">
<rect x="6.66064" y="0.732422" width="156.119" height="156.119" rx="78.0596" fill="url(#paint0_linear)"/>
<g clip-path="url(#clip0)">
<path d="M131.5 140.759C105.863 146.084 78.6457 145.757 53.0835 139.822C59.141 136.001 66.4559 133.858 73.8818 132.903C81.3078 131.948 88.8809 132.133 96.3792 132.64C108.559 133.459 121.038 135.231 131.5 140.759Z" fill="#F9DBA5"/>
<path d="M100.89 78.0629C100.89 78.0629 93.5286 77.2363 89.9034 74.481C89.8776 74.463 89.8491 74.4475 89.8259 74.4244C89.5935 74.1797 88.3722 71.0639 87.4633 68.2984C86.6862 65.9293 86.0303 63.7792 86.0303 63.7792L85.1757 56.4043C85.1782 56.4043 85.1808 56.4043 85.1834 56.4017C85.186 56.4017 85.1886 56.3991 85.1937 56.3991C85.4184 56.3554 87.5047 55.9897 88.3309 56.5768C88.9041 56.9811 89.6787 60.0531 89.8233 60.8308C89.9653 61.6084 92.6171 71.3652 92.7694 71.5892C92.8107 71.6485 93.3685 71.9807 94.1715 72.4339C96.3507 73.6621 100.345 75.7891 100.807 75.8767C101.443 75.9951 100.89 78.0629 100.89 78.0629Z" fill="#E8926D"/>
<path d="M85.6946 44.6518C85.2738 46.2818 85.4907 48.6637 86.2162 50.3246C86.5648 51.1254 86.9289 51.7924 87.1845 52.6293C87.4401 53.4661 87.4143 54.4627 86.823 55.1064C87.515 54.5631 87.7241 53.5872 87.6157 52.7142C87.5072 51.8413 87.138 51.0276 86.8746 50.1907C86.2369 48.1719 86.2033 45.9651 86.7791 43.9282L85.6946 44.6518Z" fill="#621406"/>
<path d="M86.1982 75.5211C86.1982 77.2953 87.6777 81.1578 89.1339 85.4401C89.1339 85.4401 86.3169 87.5104 85.328 88.0666C84.7755 88.3782 84.179 88.6331 83.5671 88.7953C82.8002 88.9988 81.9998 89.0606 81.2226 88.9138C80.3008 88.7387 79.4616 88.2906 78.6354 87.8452C77.5871 87.2812 76.5388 86.7199 75.4904 86.1534C74.801 85.7851 71.7465 83.4264 71.7465 83.4264C72.8051 80.5604 77.1584 75.9356 77.1662 75.4721C77.1662 75.449 77.0758 75.1399 76.9261 74.6404C76.3399 72.6808 74.832 67.7934 74.202 65.7488C74.202 65.7462 74.202 65.7462 74.202 65.7462C74.0239 65.1746 73.918 64.8244 73.918 64.8244C73.918 64.8244 73.6624 56.8238 74.0858 56.7233C74.0884 56.7208 74.091 56.7208 74.091 56.7208C74.5196 56.6796 77.6594 56.762 77.9563 56.7027C78.0183 56.6924 78.0751 56.5251 78.1267 56.2727C78.1938 55.9405 78.2532 55.3946 78.2971 54.8307C78.3823 53.7749 78.4288 52.6445 78.4288 52.6445L82.6763 52.1938C82.6763 52.1938 82.7202 52.6393 82.7821 53.2264C82.8286 53.6796 82.8828 54.2899 82.9345 54.859C83.0068 55.6701 83.0687 56.3911 83.0791 56.4401C83.0997 56.5251 84.3907 56.4581 85.1808 56.4066C85.1834 56.4066 85.186 56.4066 85.1886 56.404C85.1912 56.404 85.1938 56.4014 85.1989 56.4014C85.5397 56.3808 85.7825 56.3628 85.7825 56.3628C85.7825 56.3628 86.9315 59.0512 87.8533 61.6236C88.4807 63.3721 89.4283 64.1858 89.4283 65.687C89.4283 66.5522 87.892 67.899 87.4685 68.2981C87.4195 68.3444 87.3859 68.3779 87.3704 68.3959C87.3394 68.4346 86.65 72.5881 86.3428 74.5348C86.2524 75.0962 86.1982 75.4721 86.1982 75.5211Z" fill="#E8926D"/>
<path d="M74.5506 64.4097C74.5506 64.4097 74.4164 64.9273 74.1995 65.7462C74.1995 65.7462 74.1995 65.7462 74.1995 65.7488C73.554 68.1976 72.1984 73.3271 71.6484 75.23C71.5271 75.6472 71.4444 75.9098 71.4186 75.9536C70.5717 77.321 63.6518 81.1577 63.6518 81.1577C62.5441 80.7689 62.1723 78.7707 62.1723 78.7707C62.1723 78.7707 67.4991 73.5279 67.6979 73.085C67.7082 73.0618 67.7186 73.0335 67.7315 73.0078C69.0509 69.9435 70.9384 59.1953 71.7156 58.0649C72.4773 56.9602 73.9852 56.7362 74.0807 56.7233C74.0833 56.7207 74.0859 56.7207 74.0859 56.7207L74.5506 64.4097Z" fill="#E8926D"/>
<path d="M82.7796 53.2264C81.5841 54.1071 79.4384 55.5826 78.1216 56.2753C78.3152 55.3174 78.4263 52.6445 78.4263 52.6445L82.6737 52.1939C82.6711 52.1913 82.7176 52.6368 82.7796 53.2264Z" fill="#C97A45"/>
<path d="M75.3019 50.7851C75.8132 51.3156 77.6387 53.0769 80.8068 52.9739C83.9724 52.8709 85.896 52.07 86.7765 50.0229C87.8016 47.6384 89.4747 37.0834 81.3517 35.8396C73.2286 34.5985 72.2551 40.7734 72.2603 42.7768C72.2655 44.5922 72.7819 48.1663 75.3019 50.7851Z" fill="#E8926D"/>
<path d="M83.4911 47.7106C83.4397 47.5737 83.2685 47.4881 83.1144 47.5395C82.9774 47.5908 82.8233 47.6592 82.6863 47.7106C82.5493 47.7619 82.4637 47.933 82.515 48.087C82.5664 48.2238 82.7376 48.3094 82.8918 48.2581C83.0288 48.2067 83.1829 48.1383 83.3199 48.087C83.4568 48.0356 83.5425 47.8645 83.4911 47.7106Z" fill="#D25C48"/>
<path d="M70.2102 41.4329C70.3238 39.9008 70.8221 38.3944 71.6949 37.1249C74.4938 33.0563 80.3473 32.2606 84.3649 33.9988C85.9477 34.6837 87.2181 35.8039 87.7861 37.8588C88.0159 38.6956 88.0392 40.1171 87.138 40.9102L86.4435 39.2493C86.0768 38.9222 85.0517 38.6596 84.587 38.5334C82.4542 37.9463 80.1046 38.0004 78.0751 38.93C76.3038 39.7411 74.6823 41.8295 74.5506 43.0732C74.3311 45.1538 73.8664 47.0362 74.4318 49.0807C74.3053 48.6559 72.991 48.0456 72.6115 47.8087C71.9298 47.3786 71.4676 46.7478 71.1036 46.0319C70.3883 44.6208 70.094 43.0114 70.2102 41.4329Z" fill="#621406"/>
<path d="M73.355 46.9513C73.1433 46.5522 72.5727 46.4312 72.1725 46.6398C71.7697 46.8483 71.545 47.3093 71.527 47.7599C71.5115 48.2105 71.6793 48.6508 71.9014 49.0423C72.0976 49.3873 72.348 49.7118 72.6785 49.9358C73.009 50.1572 73.4299 50.2654 73.8172 50.1624C74.2019 50.0594 74.5273 49.7143 74.5505 49.3178L73.355 46.9513Z" fill="#E8926D"/>
<path d="M83.0648 49.5394C82.26 49.7447 81.4723 49.7447 80.6503 49.7276C80.2736 49.7276 80.6846 50.0527 81.0099 50.1211C81.9004 50.3093 82.4655 50.412 83.3216 50.1725C83.7497 50.0527 83.4929 49.4197 83.0648 49.5394Z" fill="#D25C48"/>
<path d="M85.2782 43.5826C85.3998 43.7754 85.4864 44.0046 85.4448 44.2273C85.4031 44.4516 85.1949 44.6526 84.9683 44.6227C84.8267 44.6044 84.7067 44.5014 84.6384 44.3768C84.5701 44.2522 84.5484 44.1077 84.5435 43.9648C84.5385 43.8136 84.5534 43.6541 84.6334 43.5245C84.7134 43.3949 84.8733 43.3051 85.0199 43.3467C85.1332 43.3816 85.2149 43.4813 85.2782 43.5826Z" fill="#471D1D"/>
<path d="M84.9834 43.4588C85.1462 43.4293 85.2967 43.3456 85.4102 43.2251C85.5015 43.4514 85.3781 43.7393 85.1536 43.8328L84.9834 43.4588Z" fill="#471D1D"/>
<path d="M83.4405 41.9994C83.4922 42.0484 83.5696 42.0432 83.6393 42.0381C84.3003 41.9814 84.9639 41.9273 85.6249 41.8707C85.6533 41.7033 85.5681 41.5308 85.439 41.4226C85.3099 41.3145 85.1421 41.2604 84.9743 41.2321C84.4553 41.1497 83.9053 41.3171 83.5232 41.6776C83.4328 41.7625 83.3502 41.9119 83.4405 41.9994Z" fill="#633024"/>
<path d="M78.6407 44.9871C78.6143 45.1888 78.6282 45.4056 78.7459 45.5714C78.8636 45.7371 79.1074 45.8227 79.2791 45.7164C79.3871 45.6487 79.4467 45.5216 79.455 45.396C79.4633 45.2689 79.4273 45.1446 79.3788 45.0272C79.3262 44.9029 79.2556 44.7786 79.1434 44.704C79.0312 44.6294 78.8678 44.6156 78.7639 44.7026C78.6836 44.7717 78.6559 44.8822 78.6407 44.9871Z" fill="#471D1D"/>
<path d="M78.696 44.8033C78.5991 44.8268 78.4952 44.8199 78.4038 44.7812C78.4107 44.9277 78.5506 45.0547 78.6974 45.0506L78.696 44.8033Z" fill="#471D1D"/>
<path d="M78.7722 42.8335C78.7438 42.9031 78.6663 42.934 78.5966 42.9597C77.9253 43.1992 77.2566 43.4412 76.5852 43.6807C76.4819 43.5314 76.4871 43.3254 76.5646 43.1606C76.642 42.9958 76.7815 42.8696 76.9338 42.7692C77.4011 42.4576 78.0157 42.3778 78.5476 42.5554C78.6767 42.5992 78.8213 42.7099 78.7722 42.8335Z" fill="#633024"/>
<path d="M81.628 89.7662C81.628 89.7662 82.2296 93.312 83.4302 96.8579C84.6309 100.404 87.8868 107.565 87.8868 107.864C87.8868 108.162 87.2361 110.361 87.5357 111.76C87.8352 113.158 92.1575 128.247 92.1859 129.053C92.2014 129.46 90.8019 131.956 91.1531 132.556C91.5043 133.155 94.3083 134.286 94.5588 134.793C94.8093 135.3 95.1269 137.909 95.478 138.19C95.8292 138.47 100.459 138.777 100.841 138.434C101.223 138.089 101.192 137.229 100.841 137.167C100.49 137.103 99.6609 137.263 99.5964 137.136C99.5318 137.01 95.6846 129.442 95.6407 128.742C95.3205 123.52 94.1431 111.309 93.903 108.832C92.9037 98.5059 90.1409 88.3911 89.1314 85.4453C86.3453 85.95 83.4664 87.392 81.628 89.7662Z" fill="#E8926D"/>
<path d="M80.0606 89.5366C79.9883 89.6808 78.1086 107.101 78.0312 107.564C77.9537 108.028 79.0201 110.974 79.0459 111.888C79.095 113.636 76.8047 131.548 76.8899 132.272C76.9751 132.995 77.8246 136.464 77.9046 136.562C77.9847 136.66 78.891 137.466 78.6973 138.048C78.5037 138.63 78.2119 138.668 77.5948 138.668C76.9803 138.668 72.3791 138.694 72.3145 138.372C72.25 138.05 73.967 132.298 73.967 131.718C73.967 131.136 72.0615 114.156 72.2242 111.7C72.3197 110.26 73.3473 108.272 73.2931 107.691C73.2389 107.109 70.7085 88.934 71.0028 86.3667C71.2972 83.7994 71.7439 83.4312 71.7439 83.4312C75.3717 85.1693 79.2344 86.8328 80.0606 89.5366Z" fill="#E8926D"/>
<path d="M72.472 81.9458C72.472 81.9458 78.3901 85.2032 82.3845 85.2032C85.4364 85.2032 88.5271 83.6736 88.5271 83.6736L88.8576 84.6367C87.169 86.2101 83.0145 88.8263 81.6305 89.7688C81.6305 89.7688 80.8507 89.8821 80.0632 89.537C80.0632 89.537 77.365 86.6324 71.7439 83.3312C71.7439 83.3286 72.0615 82.6539 72.472 81.9458Z" fill="#FFCA4A"/>
<path d="M77.8788 33.8933C78.7257 32.6186 78.4107 30.7646 77.3056 29.7037C76.203 28.6402 74.4731 28.3595 73.0116 28.8282C71.5528 29.2969 70.3676 30.4402 69.6498 31.7921C69.2264 32.5903 68.9449 33.489 69.0172 34.3877C69.0921 35.2864 69.562 36.1825 70.3521 36.6202C71.1422 37.058 72.2499 36.937 72.8231 36.2366L77.8788 33.8933Z" fill="#621406"/>
<path d="M74.8733 28.8873C75.7099 28.4109 76.7969 28.4031 77.6413 28.8667C78.4856 29.3302 79.0614 30.2469 79.1104 31.2074C79.1595 32.1678 78.6767 33.1361 77.8814 33.682C78.8368 32.7987 79.0046 31.2099 78.2997 30.1181C77.5948 29.0237 76.1204 28.5139 74.8733 28.8873Z" fill="#621406"/>
<path d="M88.7699 46.3819C89.2914 45.2772 89.3818 43.9845 89.0694 42.8026C88.757 41.6206 88.0495 40.5546 87.1148 39.7666C88.2844 40.3305 89.183 41.4301 89.498 42.6867C89.813 43.9459 89.5393 45.3364 88.7699 46.3819Z" fill="#621406"/>
<path d="M73.3344 46.1397C73.1563 47.8134 73.7217 50.1387 74.6822 51.676C75.147 52.4176 75.604 53.0253 75.9784 53.8133C76.3528 54.6038 76.4767 55.5926 75.9862 56.3162C76.5929 55.6776 76.6549 54.681 76.4199 53.8339C76.185 52.9867 75.6996 52.2348 75.3148 51.4442C74.3853 49.5413 74.029 47.3628 74.3001 45.2642L73.3344 46.1397Z" fill="#621406"/>
<path d="M88.5375 39.3729C88.1037 39.2673 87.5769 39.342 87.3291 39.7128C87.8222 39.4321 88.4652 39.5068 88.9532 39.7952C89.4412 40.0836 89.7975 40.5523 90.0764 41.0467C89.955 40.2536 89.3198 39.5635 88.5375 39.3729Z" fill="#621406"/>
<path d="M92.772 71.5889C92.8133 71.6507 91.4448 73.582 89.4283 73.6129C89.4283 73.6129 88.3748 71.0636 87.4659 68.3006C87.4168 68.347 87.3833 68.3779 87.3704 68.3959L87.3678 68.4011C87.3368 68.5633 87.2723 72.673 86.9702 74.594C86.8746 74.6249 86.7739 74.6584 86.6732 74.6841C84.5714 75.3176 82.0075 75.436 79.5958 75.1811C78.5424 75.0652 77.5199 74.8824 76.5749 74.6404C76.154 73.2421 75.4439 70.3452 74.8449 68.0611C74.6048 67.1496 74.3801 66.3333 74.202 65.7513C73.5565 68.2002 72.4307 72.5134 71.8833 74.4138C71.8833 74.4138 70.0423 74.3674 69.5259 74.1846C68.5447 73.8369 67.956 72.4413 67.956 72.4413C69.0818 69.3255 70.9408 59.2005 71.718 58.07C72.4797 56.9653 73.9877 56.7387 74.0806 56.7259C74.0832 56.7259 74.0858 56.7259 74.0858 56.7259C74.517 56.6821 77.3314 56.7851 77.6309 56.7259C77.6929 56.713 77.2668 55.2426 77.3133 54.6787C77.4915 54.7328 79.3815 54.8306 79.4358 55.0109C80.4505 58.4537 82.1985 62.2261 83.4302 64.6467C83.4405 61.3249 83.1797 58.1988 82.7769 54.8924C82.9293 54.8873 83.74 54.774 83.8924 54.7663C83.9647 55.5774 83.882 56.4323 83.8924 56.4812C83.913 56.5662 84.3907 56.4581 85.1782 56.4066C85.1808 56.4066 85.1834 56.4066 85.186 56.404H85.1963C85.2092 56.4014 85.2299 56.3988 85.2557 56.3937C85.2608 56.3937 85.2686 56.3911 85.2738 56.3885H85.2867C85.2918 56.386 85.297 56.386 85.3022 56.386C85.3512 56.3782 85.4106 56.3679 85.4803 56.3576C85.4881 56.3576 85.4932 56.3576 85.4984 56.3551C85.5087 56.3525 85.519 56.3525 85.5294 56.3499C85.5371 56.3499 85.5449 56.3499 85.5526 56.3473C85.5629 56.3473 85.5707 56.3448 85.581 56.3448C85.5965 56.3422 85.6146 56.3396 85.6327 56.337C85.674 56.3319 85.7153 56.3267 85.7618 56.3216H85.7643C85.7798 56.319 85.7927 56.3164 85.8108 56.3164C85.8237 56.3139 85.8366 56.3139 85.847 56.3113C85.8676 56.3087 85.8909 56.3061 85.9115 56.3061C85.9193 56.3036 85.927 56.3036 85.9322 56.3036C85.9554 56.2984 85.9838 56.2984 86.0096 56.2958C86.0251 56.2933 86.038 56.2933 86.0561 56.2907C86.0897 56.2881 86.1258 56.2855 86.162 56.283C86.1697 56.2804 86.1749 56.2804 86.18 56.2804C86.193 56.2804 86.2059 56.2778 86.2239 56.2778C86.2446 56.2752 86.2704 56.2752 86.2937 56.2727H86.3143C86.3195 56.2727 86.3272 56.2727 86.335 56.2701C86.4098 56.2649 86.4873 56.2624 86.5622 56.2598C86.5932 56.2598 86.6216 56.2598 86.6526 56.2572C87.2723 56.2443 87.941 56.3113 88.3283 56.5842C88.8989 56.9885 89.6761 60.0605 89.8207 60.8382C89.9705 61.6081 92.6222 71.3649 92.772 71.5889Z" fill="#811D65"/>
<path d="M56.2671 130.938C57.0547 133.109 58.072 135.28 59.8045 136.902C61.5371 138.527 64.2611 139.454 66.5669 138.563C69.7118 137.35 70.5768 133.66 70.9254 130.534C74.202 101.289 71.0183 71.5272 61.63 43.619C60.9819 41.6903 60.2796 39.7307 58.9447 38.1419C57.6098 36.5532 55.5028 35.3841 53.3262 35.6081C51.2218 35.8244 49.4402 37.2999 48.4306 39.0355C47.4211 40.7711 47.0028 42.7487 46.7446 44.6954C43.0213 72.6165 48.0872 108.43 56.2671 130.938Z" fill="#8ACEE2"/>
<path d="M65.3482 138.867C63.3548 139.117 61.2402 138.249 59.802 136.905C58.0694 135.28 57.0547 133.109 56.2646 130.938C48.0872 108.43 43.0187 72.6166 46.7446 44.6981C47.0028 42.7488 47.4237 40.7763 48.4307 39.0382C49.4402 37.3026 51.2218 35.8271 53.3262 35.6108C53.7471 35.567 54.1628 35.5773 54.5682 35.6314C52.5335 35.9044 50.819 37.3489 49.8379 39.0382C48.8283 40.7763 48.4074 42.7488 48.1492 44.6981C44.4259 72.6191 49.4945 108.43 57.6718 130.941C58.4593 133.112 59.4792 135.28 61.2092 136.907C62.3091 137.935 63.8119 138.687 65.3482 138.867Z" fill="#6ABACC"/>
<path d="M46.1585 81.5771C45.6034 81.196 45.5517 80.4132 45.5543 79.7411C45.5569 79.0279 45.5621 78.312 45.5647 77.5987C45.5672 77.1713 45.5776 76.7206 45.8099 76.3627C46.0449 76.0048 46.5897 75.8194 46.9099 76.1052C47.0597 76.2391 47.1268 76.4425 47.1345 76.6434C47.1655 77.3386 46.5871 77.8897 46.0578 78.3429C46.5252 78.0056 47.2223 78.1008 47.6561 78.4819C48.0899 78.8631 48.2784 79.4682 48.2577 80.0424C48.2371 80.5703 48.0382 81.1111 47.6329 81.451C47.2275 81.7883 46.5949 81.8784 46.1585 81.5771Z" fill="#E8926D"/>
<path d="M87.6054 68.2592C87.5615 68.2592 87.5176 68.2438 87.4789 68.2155C87.3937 68.1459 87.3782 68.0198 87.4479 67.9348C87.4634 67.9168 88.868 66.1606 88.868 64.8911C88.868 64.0207 87.9075 62.8285 87.3317 62.1126C86.9418 61.6285 86.8411 61.4946 86.8592 61.3504C86.8902 61.1264 87.0348 60.4646 87.0399 60.4363C87.0632 60.3281 87.169 60.2612 87.2775 60.2844C87.3859 60.3075 87.453 60.4157 87.4298 60.5213C87.4272 60.5264 87.2981 61.1212 87.2594 61.3633C87.3084 61.4509 87.484 61.6697 87.6415 61.8629C88.2483 62.6173 89.2656 63.8791 89.2656 64.8911C89.2656 66.3022 87.8197 68.1099 87.7577 68.1846C87.7216 68.2335 87.6648 68.2592 87.6054 68.2592Z" fill="#282227"/>
<path d="M74.5377 65.4395C74.5119 65.4395 74.4861 65.4343 74.4603 65.424C74.357 65.3828 74.3079 65.2644 74.3518 65.1639L75.7409 61.801C75.7823 61.698 75.8984 61.649 76.0017 61.6928C76.105 61.734 76.1541 61.8525 76.1102 61.9529L74.721 65.3159C74.6901 65.3931 74.6152 65.4395 74.5377 65.4395Z" fill="#282227"/>
<path d="M74.6849 65.9548C74.6074 65.9548 74.5351 65.911 74.5016 65.8389C74.4551 65.7385 74.499 65.62 74.5997 65.5737L75.8261 65.0175C75.9268 64.9711 76.0456 65.0149 76.0921 65.1179C76.1386 65.2209 76.0921 65.3368 75.9914 65.3831L74.7675 65.9393C74.7417 65.9496 74.7133 65.9548 74.6849 65.9548Z" fill="#282227"/>
<path d="M84.4011 74.9444C84.2901 74.9444 84.1997 74.8543 84.1997 74.7435L84.2023 73.4663C84.21 69.4338 84.2126 67.9249 83.3476 65.1078C83.314 65.0022 83.376 64.8915 83.4793 64.858C83.5852 64.8245 83.6962 64.8837 83.7297 64.9893C84.6128 67.8631 84.6102 69.3875 84.6025 73.4637L84.5999 74.741C84.6025 74.8568 84.5121 74.9444 84.4011 74.9444Z" fill="#282227"/>
<path d="M79.5959 75.1786C78.5424 75.0627 77.5199 74.8798 76.5749 74.6378C76.154 73.2396 75.444 70.3426 74.8449 68.0586L78.7257 69.7349L79.5959 75.1786Z" fill="#FFCA4A"/>
<path d="M87.3678 68.4009C87.3368 68.5631 87.2723 72.6729 86.9702 74.5938C86.8746 74.6247 86.7739 74.6582 86.6732 74.684L86.4744 69.3691L87.3678 68.4009Z" fill="#FFCA4A"/>
<path d="M65.8775 137.804C65.8775 137.804 66.7089 138.046 67.5584 136.719C62.983 104.259 59.3088 69.5806 55.5287 37.1353C54.9968 37.2048 54.9968 37.2048 54.4674 37.2769C55.2782 65.1336 61.1859 110.333 65.8775 137.804Z" fill="#F4EDE4"/>
<path d="M65.2655 121.977C66.5411 121.516 67.7804 120.777 68.4828 119.621C69.1851 118.465 69.2083 116.827 68.2633 115.854C67.703 115.277 66.8922 115.006 66.0944 114.893C63.6827 114.551 61.1214 115.583 59.6238 117.499C59.0945 118.179 58.6839 118.98 58.6168 119.837C58.5497 120.695 58.8672 121.611 59.5592 122.126C60.2177 122.616 61.093 122.685 61.9141 122.646C63.0579 122.595 64.1914 122.368 65.2655 121.977Z" fill="#F4EDE4"/>
<path d="M83.5463 78.0625C83.3759 78.3612 83.1978 78.6754 83.1797 79.0178C83.1616 79.3629 83.3553 79.744 83.6909 79.8187C83.8484 79.6693 83.9078 79.4376 83.8949 79.2187C83.882 78.9998 83.8071 78.7912 83.7348 78.5878C83.6729 78.4127 83.6109 78.2376 83.5463 78.0625Z" fill="#C97A45"/>
<path d="M96.343 77.0918C96.3456 77.1587 101.288 78.1398 101.479 78.2557C101.693 78.3844 103.617 79.8599 103.924 79.8213C104.231 79.7827 106.01 79.5252 106.395 79.3269C106.78 79.126 108.52 77.4471 108.502 77.1484C108.484 76.8497 108.042 76.7493 107.926 76.8162C107.81 76.8832 105.321 78.0162 105.019 78.0445C104.719 78.0729 103.774 77.0763 103.774 77.0763C103.774 77.0763 105.563 75.2635 105.458 75.1064C105.114 74.594 102.961 76.2575 102.369 76.4068C102.22 76.4454 97.5979 74.6841 97.4275 74.7691C97.2571 74.8541 96.3301 77.2926 96.3301 77.2926L96.343 77.0918Z" fill="#E8926D"/>
</g>
<defs>
<linearGradient id="paint0_linear" x1="84.7202" y1="0.732422" x2="84.7202" y2="156.852" gradientUnits="userSpaceOnUse">
<stop stop-color="#F8D9C6"/>
<stop offset="1" stop-color="#F8D9C6" stop-opacity="0.54"/>
</linearGradient>
<clipPath id="clip0">
<rect width="86" height="116" fill="white" transform="translate(45.5 28.5244)"/>
</clipPath>
</defs>
</svg>
