<svg width="163" height="162" viewBox="0 0 163 162" fill="none" xmlns="http://www.w3.org/2000/svg">
<rect x="6.66064" y="0.732422" width="156.119" height="156.119" rx="78.0596" fill="url(#paint0_linear)"/>
<mask id="mask0" mask-type="alpha" maskUnits="userSpaceOnUse" x="0" y="0" width="158" height="162">
<rect x="0.220215" y="0.851562" width="157" height="161" fill="white"/>
</mask>
<g mask="url(#mask0)">
</g>
<path d="M126.812 133.814L41.8954 136.072L42.0495 30.2026L126.11 30.3395L126.812 133.814Z" fill="#EFD8BC"/>
<path d="M117.343 35.1299H50.7998V134.361H117.343V35.1299Z" fill="#CEE7EF"/>
<path d="M117.103 99.5621C116.795 99.5621 116.487 99.5792 116.196 99.5792C115.356 99.5792 114.5 99.5792 113.661 99.5621C112.017 99.5621 110.373 99.545 108.73 99.545C105.442 99.5278 102.154 99.5279 98.8834 99.5107C98.3012 99.5107 97.856 99.9898 97.8389 100.554C97.6505 106.166 97.7362 111.778 98.0444 117.389C98.0101 120.845 97.9416 124.301 98.1129 127.74C98.1129 127.911 98.1642 128.065 98.2327 128.202C98.1642 128.698 98.4553 129.229 99.1232 129.28C102.702 129.537 106.332 129.383 109.928 129.4C112.326 129.4 114.723 129.434 117.103 129.417V99.5621Z" fill="#B4DBE5"/>
<path d="M108.284 98.655C108.199 96.3453 108.096 89.3649 108.01 87.0552C108.01 84.3349 108.01 81.5975 107.925 78.8771C107.907 78.6205 107.822 78.4323 107.685 78.2954C107.565 78.0046 107.291 77.7822 106.88 77.748C105.15 77.6111 103.387 77.7308 101.657 77.7308H98.712C97.2907 77.6624 95.8865 77.6111 94.4653 77.5769C92.496 77.5255 90.5268 77.5255 88.5576 77.5427C87.8041 77.5427 86.9137 77.44 86.2287 77.8506C86.1603 77.8677 86.1089 77.8677 86.0404 77.8848C85.578 77.9875 85.3897 78.4665 85.4753 78.8771C85.3726 79.3049 85.3897 79.7839 85.4068 80.2287C85.4411 80.7762 85.4753 81.3066 85.5095 81.8541C85.3726 91.6746 85.4239 101.478 85.4239 111.298C85.4239 114.31 85.3897 117.338 85.4582 120.349C85.4924 121.512 87.2219 121.512 87.2562 120.349C87.3589 116.465 87.3247 112.582 87.3075 108.698C87.3932 111.76 87.4788 114.823 87.5473 117.868C87.5644 118.416 87.9754 118.758 88.4891 118.809C90.5611 119.015 92.633 119.237 94.705 119.442C95.5441 119.528 96.6914 119.853 97.5133 119.579C97.8044 119.476 98.0441 119.288 98.1982 119.066C98.5921 119.049 98.9517 118.775 98.9003 118.262C98.3181 111.47 98.0613 109.314 98.1811 102.504C99.4825 102.453 100.801 102.419 102.102 102.368C103.832 102.368 105.579 102.385 107.308 102.248C107.685 102.214 107.925 102.008 108.027 101.752C108.678 101.016 108.335 99.5275 108.284 98.655Z" fill="#B4DBE5"/>
<path d="M80.013 100.931C80.013 97.1324 80.0472 93.3172 79.9102 89.519C79.8931 89.04 79.5677 88.7833 79.2081 88.7149C79.1396 88.6636 79.054 88.6293 78.9684 88.5951C77.9752 88.3043 76.8108 88.4583 75.8005 88.4583C74.6875 88.4583 73.5573 88.4583 72.4443 88.4583C71.3655 88.4583 70.2867 88.4754 69.225 88.4754C68.3517 88.4754 67.4441 88.4583 66.5708 88.5438C66.5537 87.6199 66.5366 86.696 66.5366 85.7722C66.5366 83.3598 66.5366 80.9475 66.5366 78.5351C66.5366 76.1228 66.5366 73.7104 66.5195 71.2981C66.5023 68.8857 66.5708 66.4563 66.4167 64.061C66.3825 63.5478 66.0057 63.274 65.6119 63.274C65.492 63.2056 65.3379 63.1543 65.1496 63.1372C62.4954 63.0174 59.807 63.12 57.1357 63.12C54.8753 63.12 52.5636 63.0174 50.2862 63.1714V102.522C53.0088 102.453 55.7144 102.385 58.4371 102.299C58.3001 103.651 58.1802 105.02 58.0603 106.371C58.009 106.867 58.5227 107.346 59.0021 107.312L78.1465 106.269C78.1465 108.287 78.1465 110.289 78.1636 112.308C78.1807 113.506 80.013 113.506 80.0301 112.308C80.0643 108.527 80.0301 104.729 80.013 100.931Z" fill="#B4DBE5"/>
<path d="M104.962 80.3999H101.435V82.8294H104.962V80.3999Z" fill="#CEE7EF"/>
<path d="M97.3937 85.5498H93.8662V87.9793H97.3937V85.5498Z" fill="#CEE7EF"/>
<path d="M102.805 88.2529H99.2771V90.6824H102.805V88.2529Z" fill="#CEE7EF"/>
<path d="M95.6298 98.6553H92.1023V101.085H95.6298V98.6553Z" fill="#CEE7EF"/>
<path d="M104.962 104.113H101.041V106.816H104.962V104.113Z" fill="#CEE7EF"/>
<path d="M63.6769 66.2339H60.1494V68.6633H63.6769V66.2339Z" fill="#CEE7EF"/>
<path d="M75.732 91.7944H72.2045V94.2239H75.732V91.7944Z" fill="#CEE7EF"/>
<path d="M59.0878 72.1875H55.5603V74.617H59.0878V72.1875Z" fill="#CEE7EF"/>
<path d="M115.339 101.718H111.418V104.421H115.339V101.718Z" fill="#CEE7EF"/>
<path d="M112.942 114.053H109.021V116.756H112.942V114.053Z" fill="#CEE7EF"/>
<path d="M119.603 33.7271C119.175 33.0257 49.1046 33.1625 48.5396 33.7271C47.9745 34.2917 48.8307 134.789 48.8307 134.789L119.826 133.557C119.809 133.557 120.031 34.4286 119.603 33.7271ZM82.1021 127.672C81.7425 128.031 52.9917 127.809 52.9917 127.809L52.7177 98.8776C52.7177 98.8776 51.5705 37.5937 52.2896 37.0462C52.8547 36.6185 82.1021 36.7554 82.376 36.9094C82.9411 37.1831 82.6671 127.09 82.1021 127.672ZM115.288 127.672C114.86 128.236 89.294 127.809 89.294 127.809L89.02 98.8776C89.02 98.8776 88.883 91.4524 88.7289 81.7517C90.1673 80.4685 91.5544 79.0998 92.89 77.714C93.7462 76.8414 92.4619 75.5754 91.5543 76.3795C90.5954 77.252 89.6194 78.1417 88.6947 79.0485C88.4207 61.0842 88.1467 37.3884 88.6091 37.0462C89.1742 36.6185 115.305 36.7554 115.596 36.9094C116.144 37.1831 115.887 126.868 115.288 127.672Z" fill="white"/>
<path d="M85.0815 91.3155C85.0815 79.134 85.0815 66.9696 85.0815 54.7881V34.189C85.0815 34.0008 84.8076 34.0008 84.8076 34.189C84.8076 46.3705 84.8076 58.5349 84.8076 70.7164C84.8076 82.8979 84.8076 95.0623 84.8076 107.244C84.8076 114.104 84.7733 120.982 84.8247 127.843C84.8247 127.997 85.0644 127.997 85.0644 127.843C85.15 115.661 85.0815 103.48 85.0815 91.3155Z" fill="#E5E5E5"/>
<path d="M88.472 81.8544C88.1638 82.0768 87.8727 82.3163 87.5816 82.5387C87.3932 82.6756 87.1877 82.8809 86.9309 82.8809C86.7083 82.8809 86.4686 82.7611 86.2973 82.6072C85.6637 82.0255 85.9206 81.0503 86.674 80.7252C86.7939 80.6739 86.7083 80.4686 86.5884 80.5199C85.7151 80.845 85.3726 81.9228 85.972 82.6585C86.2459 83.0007 86.7425 83.2744 87.1706 83.1204C87.4446 83.0349 87.6672 82.8125 87.8898 82.6414C88.1295 82.4532 88.3864 82.265 88.6261 82.0597C88.746 81.9741 88.5919 81.7688 88.472 81.8544Z" fill="#E5E5E5"/>
<path d="M108.25 127.158C108.062 127.039 103.233 127.141 98.9175 127.158C98.9689 128.099 98.9689 128.767 99.0545 129.708C102.873 129.708 106.572 129.708 106.829 129.708C107.394 129.708 108.524 133.386 108.661 133.797C108.798 134.224 109.791 133.933 110.219 133.933C110.664 133.933 108.678 127.432 108.25 127.158Z" fill="#464C7B"/>
<path d="M92.1537 127.86C92.1537 127.86 92.7188 124.9 93.4208 124.9C94.1229 124.9 100.493 124.763 100.767 125.037C101.041 125.328 101.623 127.997 101.469 127.997C101.332 127.997 100.767 127.997 100.767 127.997C100.767 127.997 100.339 126.012 100.065 125.875C99.7909 125.738 93.8489 125.447 93.7119 125.738C93.575 126.029 93.1469 127.997 93.1469 127.997L92.1537 127.86Z" fill="#464C7B"/>
<path d="M102.599 122.915C102.599 122.915 106.281 119.665 105.853 119.391C105.425 119.1 104.585 119.1 104.294 119.391C104.003 119.665 101.897 122.915 101.897 122.915H102.599Z" fill="#6C4E4E"/>
<path d="M103.301 127.86C106.109 126.166 106.52 121.239 106.366 121.102C106.212 120.948 93.3522 121.256 93.3522 121.256C93.6605 125.567 95.5612 127.227 96.8455 127.86H103.301Z" fill="#EFB44B"/>
<path d="M97.6675 125.773C96.9483 124.712 96.4517 123.634 96.2462 122.351C96.1606 121.821 95.3387 122.043 95.4243 122.573C95.6469 123.925 96.1606 125.191 96.9997 126.286C97.3079 126.662 97.9415 126.166 97.6675 125.773Z" fill="white"/>
<path d="M108.438 126.936C109.895 126.936 111.075 125.848 111.075 124.507C111.075 123.165 109.895 122.077 108.438 122.077C106.982 122.077 105.801 123.165 105.801 124.507C105.801 125.848 106.982 126.936 108.438 126.936Z" fill="#FF8E55"/>
<path d="M107.617 122.83C107.565 122.727 107.411 122.693 107.308 122.744C107.24 122.779 107.188 122.83 107.12 122.864C107.017 122.932 106.983 123.052 107.034 123.172C107.086 123.275 107.24 123.309 107.343 123.258C107.411 123.223 107.462 123.172 107.531 123.138C107.634 123.069 107.668 122.932 107.617 122.83Z" fill="#BE5A33"/>
<path d="M115.643 125.188C116.18 123.907 115.427 122.372 113.961 121.759C112.496 121.146 110.872 121.688 110.336 122.969C109.799 124.25 110.552 125.786 112.018 126.399C113.483 127.012 115.107 126.47 115.643 125.188Z" fill="#FF8E55"/>
<path d="M114.26 122.539C114.175 122.624 114.158 122.778 114.243 122.881C114.295 122.932 114.346 123.001 114.397 123.052C114.483 123.155 114.62 123.172 114.723 123.086C114.808 123.001 114.825 122.847 114.74 122.744C114.688 122.693 114.637 122.624 114.586 122.573C114.5 122.47 114.346 122.453 114.26 122.539Z" fill="#D65945"/>
<path d="M105.39 126.234H116.623C116.623 126.234 116.076 127.124 115.956 127.124C115.836 127.124 106.383 127.312 106.109 127.158C105.836 127.021 105.39 126.234 105.39 126.234Z" fill="white"/>
<path d="M103.164 134.207C103.164 134.207 104.157 127.569 104.431 127.295C104.722 127.004 123.781 126.868 124.209 127.158C124.637 127.449 126.607 133.934 126.196 133.934C125.768 133.934 124.774 134.224 124.637 133.797C124.5 133.369 123.507 129.981 122.942 129.981C122.377 129.981 106.829 129.417 106.264 129.981C105.699 130.546 105.048 134.088 104.74 134.156C104.448 134.207 103.164 134.207 103.164 134.207Z" fill="#5F7AB3"/>
<path d="M110.51 127.86C110.51 127.86 111.075 124.9 111.777 124.9C112.48 124.9 118.85 124.763 119.124 125.037C119.415 125.328 119.98 127.997 119.826 127.997C119.689 127.997 119.124 127.997 119.124 127.997C119.124 127.997 118.695 126.012 118.421 125.875C118.13 125.738 112.206 125.447 112.069 125.738C111.932 126.029 111.503 127.997 111.503 127.997L110.51 127.86Z" fill="#5F7AB3"/>
<path d="M111.486 127.004C106.349 127.039 88.6261 127.141 88.472 127.295C88.1809 127.586 87.2049 134.207 87.2049 134.207C87.2049 134.207 88.472 134.207 88.7803 134.139C89.0885 134.07 89.7392 130.529 90.3043 129.964C90.6125 129.656 108.764 129.605 113.045 129.673C112.976 128.767 111.555 127.928 111.486 127.004Z" fill="#5F7AB3"/>
<path d="M130.853 133.523V140.024H38.5049V133.814L54.156 133.762H55.3375L114.671 133.574L119.808 133.557L130.853 133.523Z" fill="#6C4E4E"/>
<path d="M73.5743 91.0929C73.5743 91.0929 74.3106 89.3136 73.1291 87.9791C71.9476 86.6446 68.8139 85.601 68.8139 85.601C68.8139 85.601 69.9954 82.778 68.0776 80.109C66.1426 77.4401 62.7179 79.6642 62.7179 79.6642L64.0535 87.6883L69.8585 91.9997L73.5743 91.0929Z" fill="#621406"/>
<path d="M53.9506 77.3033C53.9677 77.2691 54.0019 77.252 54.0191 77.2349C54.7211 75.8833 55.3718 74.9936 55.5945 74.6856C56.0739 74.0355 56.5705 67.8763 58.6767 67.0722C60.7829 66.2681 61.1083 68.2014 61.6049 68.6975C62.0843 69.1766 64.2077 66.9182 67.29 69.6727C70.3722 72.4273 67.5639 75.216 67.5639 75.216L62.9063 80.3829L63.7111 87.3633L52.6663 91.4181C52.6663 91.4181 51.0395 88.1674 51.8615 83.4796C52.0156 82.607 52.2211 81.7858 52.4608 81.0159C51.2108 83.5994 50.4916 86.3881 50.7827 89.365C50.8169 89.7585 50.2347 89.7414 50.1834 89.365C49.6011 84.9852 51.519 80.7935 53.9506 77.3033Z" fill="#621406"/>
<path d="M56.0911 71.2809L55.4403 74.2066C55.4403 74.2066 54.1389 75.8319 53.6595 77.1322C53.6595 77.1322 50.2519 77.9363 51.7074 73.4024C52.9917 69.3819 55.115 69.6727 56.0911 71.2809Z" fill="#621406"/>
<path d="M55.9027 99.3911C56.1253 99.4937 56.365 99.5964 56.5876 99.6819C59.3788 100.862 62.0501 101.701 62.5638 101.495C63.7453 101.051 66.7248 89.16 66.4337 87.9795C66.1426 86.799 65.8344 85.4474 65.8344 85.4474L58.8479 80.5371C58.8822 80.6398 60.1836 84.7117 59.5843 86.0291C58.9849 87.3635 57.8034 87.9624 56.7588 87.9624C55.7143 87.9624 52.4437 88.2532 51.2621 90.6313C50.0806 93.0095 49.9265 93.8991 49.4813 95.0967C49.0874 96.1746 52.495 97.8855 55.9027 99.3911Z" fill="#F4A07F"/>
<path d="M56.4164 77.6113C56.8274 77.3033 57.3754 77.4744 57.7863 77.6797C58.0089 77.7824 58.2144 77.9193 58.4028 78.0732C58.5398 78.1759 58.6939 78.5865 58.9165 78.4154C59.0192 78.3299 59.0535 78.1759 59.0535 78.039C59.0877 77.7139 59.1049 77.406 59.0706 77.0809C59.0535 76.8585 59.0192 76.6361 59.0364 76.4137C59.0706 76.0715 59.2761 75.7635 59.3275 75.4385C59.3617 75.1989 59.3446 74.9423 59.4131 74.7028C59.5329 74.2751 59.961 74.0184 60.3549 73.8473C60.7659 73.6763 61.2111 73.5907 61.5707 73.3341C62.2727 72.8379 62.4953 71.9996 63.42 71.7601C64.4132 71.5034 65.5776 72.1536 66.1769 72.9235C68.3345 75.7464 70.8175 79.8183 69.2421 83.0006C67.9578 84.9339 65.492 84.5575 65.5262 84.5575L65.8002 85.4643C65.8002 85.4643 64.9954 86.2342 62.8892 85.9091C60.1323 85.259 59.6528 83.1546 59.6528 83.1546C59.4473 82.436 59.1733 81.6832 58.8822 80.8791C58.8822 80.8791 56.9644 81.8543 56.1424 79.8868C55.9541 79.3393 55.6459 78.193 56.4164 77.6113Z" fill="#F4A07F"/>
<path d="M67.17 78.0734C67.1186 77.9365 66.9474 77.8509 66.7933 77.9023C66.6563 77.9536 66.5021 78.022 66.3652 78.0734C66.2282 78.1247 66.1425 78.2958 66.1939 78.4498C66.2453 78.5866 66.4165 78.6722 66.5706 78.6209C66.7076 78.5695 66.8617 78.5011 66.9987 78.4498C67.1357 78.3984 67.2213 78.2273 67.17 78.0734Z" fill="#D25C48"/>
<path d="M61.6391 75.4214C61.9474 75.1476 61.8789 75.2332 62.1528 74.9423C62.4439 74.6515 62.7008 74.3264 62.9748 74.0356C63.2316 73.7618 62.8207 73.3512 62.5809 73.6249C62.307 73.9158 62.0501 74.258 61.759 74.5317C61.4679 74.8226 61.5364 74.737 61.2453 75.0108C60.9713 75.2503 61.3651 75.678 61.6391 75.4214Z" fill="#621406"/>
<path d="M67.4783 74.4118C67.5468 74.4632 67.5982 74.5487 67.5811 74.6514C67.564 74.7882 67.4441 74.8909 67.3071 74.8738C67.1359 74.8567 66.9646 74.8225 66.8105 74.7711C66.6222 74.6856 66.4167 74.5829 66.2283 74.4803C66.1427 74.4461 66.0742 74.3947 66.0057 74.3434C65.9372 74.2921 65.8858 74.2065 65.8687 74.121C65.8345 73.7446 66.3139 74.0355 66.468 74.1039C66.742 74.2236 67.0331 74.3263 67.3414 74.3605C67.4098 74.3605 67.4441 74.3776 67.4783 74.4118Z" fill="#621406"/>
<path d="M62.3584 77.2691C62.1529 77.3889 61.8447 77.252 61.8618 77.0125C61.8789 76.7388 62.2385 76.4479 62.4783 76.3453C62.8207 76.1913 63.2317 76.1742 63.4201 76.2597C63.7454 76.4137 63.7968 76.7901 63.5913 76.7901C62.7351 76.8414 62.5125 77.1836 62.3584 77.2691Z" fill="#1A1A1A"/>
<path d="M68.2831 76.3454C68.4201 76.0203 67.9406 75.7637 67.718 75.6952C67.4612 75.6097 67.2043 75.5926 66.9646 75.6952C66.8961 75.7123 66.8447 75.7637 66.8105 75.815C66.7591 75.9519 66.7762 76.0887 66.879 76.2085C67.0673 76.448 67.2899 76.2427 67.5297 76.2427C67.9578 76.2427 68.2146 76.5165 68.2831 76.3454Z" fill="#1A1A1A"/>
<path d="M61.7247 83.377C62.6836 84.6943 63.9166 85.3445 65.8173 85.43L65.5433 84.5233H65.5262C64.122 84.4206 62.6665 83.8218 61.7247 83.377Z" fill="#1A1A1A"/>
<path d="M55.7484 98.9289C55.9711 99.0315 56.2108 99.1342 56.4334 99.2197C56.8444 98.2274 57.2553 97.1838 57.8033 96.2941C58.0601 95.8664 57.4608 95.644 57.204 96.0717C56.6731 96.9614 56.1252 97.9537 55.7484 98.9289Z" fill="#F4A07F"/>
<path d="M67.2043 80.5028C66.3995 80.7081 65.6118 80.7081 64.7899 80.691C64.4132 80.691 64.8241 81.0161 65.1495 81.0845C66.0399 81.2727 66.605 81.3754 67.4612 81.1358C67.8893 81.0161 67.6324 80.383 67.2043 80.5028Z" fill="#D25C48"/>
<path d="M65.9886 86.0454C65.9886 86.0454 66.4338 88.7144 65.8344 90.5108C65.2351 92.2901 61.6734 99.1337 60.4747 99.2705C59.2932 99.4245 53.7793 96.8924 51.9985 95.8488C50.2176 94.8051 49.9094 94.2063 49.4642 94.3603C49.0189 94.5143 48.8648 96.7384 48.2826 97.4741C47.6833 98.2098 44.4127 101.341 44.2585 102.384C44.1044 103.428 44.8579 105.943 43.8133 106.987C42.7688 108.03 41.142 109.074 41.4331 109.964C41.7242 110.853 42.2893 111.572 42.0838 112.701C41.8783 113.83 43.0941 113.471 44.2585 114.121C44.9264 114.497 45.6627 114.754 46.3648 115.028C49.5155 116.26 51.6217 120.126 54.9437 120.845C56.8445 121.255 59.9096 118.758 61.8446 118.86C62.7008 118.911 63.5741 119.014 64.3447 118.586C64.807 118.347 65.2865 118.193 65.7317 117.902C66.2112 117.594 66.6393 117.218 67.0502 116.824C67.6153 116.277 68.1975 115.575 68.0605 114.805C67.992 114.378 67.7009 114.018 67.5639 113.608C67.2557 112.735 67.6153 111.469 68.3003 110.87C68.6085 110.597 68.7797 110.289 68.951 109.929C69.3962 109.074 69.7558 108.184 70.1325 107.295C71.1942 104.694 72.1702 102.076 73.1292 99.4416C73.66 97.9874 74.1737 96.5331 74.6874 95.0789L65.9886 86.0454Z" fill="#811D65"/>
<path d="M65.9201 85.3784C65.9201 85.3784 66.1256 86.7471 66.1427 88.2698C66.1598 89.1766 65.8516 90.0149 66.0742 91.0243C66.6735 93.6933 69.499 94.737 69.9442 94.737C70.3894 94.737 71.4339 88.8002 71.4339 88.8002L65.9201 85.3784Z" fill="#621406"/>
<path d="M49.4126 99.0827C50.2859 99.596 51.125 100.195 51.9298 100.828C52.3408 101.153 52.7175 101.512 53.1627 101.786C53.6251 102.077 54.1388 102.162 54.6525 102.35C55.2004 102.539 55.6628 102.83 56.0395 103.223C55.7655 102.214 55.2347 101.273 54.3614 100.64C53.6422 100.109 52.7518 99.8013 52.1182 99.1682C51.536 98.655 51.0736 98.0219 50.7996 97.2692C50.7483 97.1152 50.988 97.0125 51.0565 97.1665C51.3476 97.8509 51.7415 98.4668 52.3065 98.9629C52.9401 99.5275 53.6936 99.8013 54.447 100.178C55.7998 100.862 56.2621 102.658 56.656 103.993C56.656 104.01 56.656 104.027 56.656 104.044C56.9128 104.506 57.0669 105.019 57.1183 105.567C57.1526 105.909 56.6217 105.892 56.5875 105.567C56.4847 104.677 56.0053 103.856 55.2689 103.326C54.6525 102.898 53.9333 102.83 53.2483 102.539C52.5291 102.214 51.9469 101.598 51.3305 101.136C50.6113 100.588 49.7722 99.6302 49.0188 99.134C48.7277 98.9287 49.0873 98.8945 49.4126 99.0827Z" fill="#51003A"/>
<path d="M45.0975 102.333C45.6968 102.692 46.2619 103.103 46.9469 103.257C47.6147 103.411 48.5051 103.377 49.173 103.582C49.3271 103.633 49.0702 103.736 48.9161 103.702C48.1969 103.531 47.4606 103.702 46.7585 103.514C46.1078 103.343 45.5085 102.966 44.9605 102.573C44.8235 102.47 44.9434 102.23 45.0975 102.333Z" fill="#51003A"/>
<path d="M75.6634 105.67C75.6634 105.67 76.5538 107.312 75.8175 110.871C75.0812 114.429 71.6565 114.583 69.7215 114.429C67.7865 114.275 64.9611 112.65 65.1152 110.871C65.2693 109.091 66.7591 105.824 66.8961 104.181C67.0502 102.539 72.838 100.622 74.1908 101.803C75.5093 102.984 75.6634 105.67 75.6634 105.67Z" fill="#811D65"/>
<path d="M66.0571 108.595C66.3482 107.62 66.2112 106.577 66.6393 105.636C66.7763 105.328 67.2044 105.601 67.0846 105.892C66.7592 106.645 66.8962 107.483 66.7421 108.253C66.5708 109.057 66.177 109.793 66.0743 110.614C65.8345 112.616 67.8551 113.488 69.3963 113.985C69.7387 114.087 69.5846 114.447 69.2421 114.378C67.6325 114.053 65.7489 113.146 65.4749 111.35C65.3551 110.375 65.7831 109.485 66.0571 108.595Z" fill="#51003A"/>
<path d="M78.4889 89.0225L77.4443 89.1764L76.708 89.6213L74.773 90.8018C74.773 90.8018 70.749 101.94 70.3037 103.137C69.8585 104.318 69.1222 105.96 69.1222 106.251C69.1222 106.542 69.4133 107.894 69.4133 109.365C69.4133 110.836 68.9681 113.676 70.4578 113.967C71.9476 114.258 74.0196 112.924 75.2182 109.81C76.3998 106.696 77.0847 96.807 77.3758 94.8737C77.6669 92.9404 79.1567 89.3817 79.1567 89.3817L78.4889 89.0225Z" fill="#F4A07F"/>
<path d="M78.3005 89.8778C78.3005 89.8778 77.8724 89.3304 77.2902 89.3304C76.6909 89.3304 75.2011 90.066 75.2011 89.7752C75.2011 89.4843 75.3552 88.1327 75.2011 88.1327C75.047 88.1327 67.7694 87.9788 67.7694 88.2867C67.7009 89.9976 68.8825 98.9113 69.1907 99.3561C69.4818 99.801 73.5059 99.647 73.66 99.2021C73.8141 98.7573 74.3963 95.7804 74.5504 95.4895C74.7045 95.1987 76.6395 93.7102 76.6395 93.5562C76.6395 93.4023 76.3484 93.1114 76.3484 93.1114C76.3484 93.1114 74.636 94.4288 74.636 94.2235C74.636 94.0695 75.0813 91.6914 75.0813 91.4005C75.0813 91.1097 76.9477 89.5357 77.9752 90.1345C79.0026 90.7333 78.3005 89.8778 78.3005 89.8778Z" fill="#BFD7FF"/>
<path d="M73.3519 89.2788C73.3519 88.7656 74.1567 88.7827 74.1567 89.296C74.1567 90.3567 74.1224 91.4175 73.9854 92.4782C73.917 92.9744 73.1293 92.9915 73.1806 92.4611C73.2491 91.4004 73.3347 90.3567 73.3519 89.2788Z" fill="#BFD7FF"/>
<path d="M73.4032 93.4361C73.5915 93.4533 73.797 93.6072 73.7799 93.8296C73.7799 93.8981 73.7628 93.9494 73.7628 94.0178C73.7457 94.206 73.5915 94.3942 73.3861 94.3771C73.1634 94.36 73.0265 94.206 73.0265 94.0007C73.0265 93.9323 73.0265 93.881 73.0093 93.8125C72.9922 93.6072 73.1977 93.419 73.4032 93.4361Z" fill="#BFD7FF"/>
<path d="M75.3552 92.7183C75.4408 92.5986 75.5778 92.513 75.6977 92.4446C75.7319 92.4275 75.7833 92.4104 75.8004 92.359C75.8175 92.3248 75.8175 92.2564 75.8175 92.2222C75.7833 91.9313 75.9203 91.6405 76.16 91.4865C75.9545 91.2298 75.6977 90.8706 75.8004 90.5455C75.8689 90.306 76.1429 90.1349 76.3655 90.0664C76.9477 89.8782 77.3758 89.998 77.8552 89.9809C77.7868 89.844 77.6326 89.3821 77.6326 89.211C77.6326 89.0399 77.7183 88.8859 77.8724 88.8346C77.9409 88.8175 78.0265 88.8175 78.1121 88.8346C78.8484 88.9544 79.6019 89.057 80.3382 89.1768C80.4238 89.1939 80.5266 89.211 80.6122 89.2623C80.732 89.3479 80.7663 89.519 80.7834 89.6729C80.8861 90.2718 80.9718 90.8706 81.0745 91.4694C81.1088 91.6405 81.1601 91.8115 81.1601 91.9826C81.1601 92.1195 81.143 92.2564 81.0574 92.359C80.9718 92.4617 80.8177 92.513 80.7149 92.6157C80.595 92.7183 80.5437 92.8552 80.5094 93.0092C80.4581 93.3171 80.5608 93.6764 80.2355 93.8646C80.0985 93.933 79.9272 93.933 79.7902 94.0015C79.4991 94.1555 79.5334 94.6174 79.2594 94.8227C79.0197 95.0109 78.6258 94.8911 78.369 95.0793C78.2833 95.1478 78.232 95.2333 78.1635 95.3189C77.9237 95.6268 77.4785 95.7979 77.1189 95.6439C76.9648 95.5755 76.845 95.4728 76.7251 95.3531C76.297 94.9425 75.9031 94.4805 75.5778 93.9844C75.4408 93.7962 75.3209 93.5909 75.2696 93.3513C75.2011 93.1631 75.2182 92.9065 75.3552 92.7183Z" fill="#F4A07F"/>
<path d="M77.9067 89.9121C78.0094 90.3056 78.3005 90.528 78.5745 90.8018C78.917 91.1268 79.2252 91.469 79.5163 91.8454C79.6019 91.948 79.8074 91.9138 79.7903 91.7598C79.7389 91.3492 79.6019 90.9728 79.4821 90.5793C79.4821 90.5451 79.4649 90.528 79.4478 90.5109C79.4307 90.4938 79.4136 90.4938 79.3793 90.4767C78.9341 90.374 78.5403 90.2372 78.1464 90.049C78.0608 89.9977 77.9752 89.9463 77.9067 89.9121Z" fill="#F4A07F"/>
<path d="M77.0161 90.0835C76.7079 90.1006 76.3826 89.9466 76.2113 89.69C76.0915 89.5018 76.0401 89.2793 76.0401 89.0569C76.0401 88.9372 76.0572 88.8174 76.1257 88.7147C76.2113 88.595 76.3654 88.5266 76.5024 88.4752C76.725 88.4068 76.9648 88.3897 77.1874 88.4581C78.0778 88.6976 77.9066 90.015 77.0161 90.0835Z" fill="#F4A07F"/>
<path d="M55.526 105.516C55.526 105.516 55.0465 103.805 52.8204 103.411C50.5944 103.018 49.5841 103.531 48.4539 103.463C47.3237 103.394 45.4401 104.575 44.9778 105.533C44.4983 106.491 42.0325 110.717 42.5462 111.863C43.0428 113.009 46.947 113.779 51.4677 113.454C55.9883 113.112 55.526 105.516 55.526 105.516Z" fill="#811D65"/>
<path d="M65.4407 101.529C65.4407 101.529 67.29 98.2611 67.3243 97.8334C67.3414 97.4057 69.4647 94.4288 69.8928 94.4459C70.3209 94.463 70.4237 95.1816 69.9613 95.8488C69.499 96.5332 69.3106 97.5084 69.3106 97.5084C69.3106 97.5084 72.6155 95.9857 73.0265 96.2936C73.4374 96.6016 73.0436 97.0977 72.41 97.3886C71.8278 97.6452 71.1086 98.0216 70.6634 98.4151C70.4579 98.6033 70.2182 98.7915 70.0127 98.9968C69.9271 99.0824 69.4305 99.5785 69.8072 99.5785C69.9613 99.5785 70.1326 99.493 70.2867 99.4417C70.4579 99.3903 70.6463 99.339 70.8175 99.2877C71.1257 99.2021 71.434 99.0995 71.7593 99.0482C72.3073 98.9626 74.1566 98.7573 74.0025 99.3048C73.8655 99.7325 73.4203 99.8352 72.5641 100.075C71.7079 100.314 70.9887 100.554 71.1257 100.708C71.2627 100.862 73.66 100.554 73.6429 101.118C73.6258 101.392 73.3347 101.666 72.0162 101.922C71.1771 102.094 70.4922 102.145 70.338 102.35C70.0298 102.761 68.5401 104.643 67.8037 105.036C67.0845 105.413 66.8106 105.259 66.5195 105.532C66.2283 105.806 54.7897 112.239 51.2451 112.889C50.4916 113.026 49.7553 113.18 48.9847 113.112C48.7621 113.095 48.5224 113.06 48.3169 112.941C47.4094 112.393 48.2313 111.298 48.6252 110.733C49.1217 110.015 49.7211 109.365 50.3204 108.749C50.6629 108.39 51.0225 108.047 51.3821 107.705C54.3445 104.916 55.4575 104.968 55.7486 104.848C55.9884 104.694 62.5639 102.641 65.4407 101.529Z" fill="#F4A07F"/>
<path d="M68.3003 97.9874C68.5401 97.6966 68.8483 97.457 69.1736 97.286C69.4476 97.132 69.7216 97.3715 69.4476 97.5255C69.1736 97.6795 68.9168 98.0901 68.6942 98.3125C68.4887 98.5178 68.1291 98.2098 68.3003 97.9874Z" fill="#F4A07F"/>
<path d="M43.7278 107.312C43.9504 106.217 44.8922 105.395 45.6799 104.626C46.3991 103.924 47.2382 103.359 48.2827 103.394C48.6937 103.411 49.0704 103.496 49.4814 103.445C49.8068 103.411 50.1321 103.274 50.4575 103.206C50.9198 103.103 51.3821 103.052 51.8445 103.086C52.9233 103.137 53.9849 103.496 54.8411 104.181C55.0637 104.352 54.8411 104.711 54.6014 104.557C53.7452 104.027 52.8377 103.685 51.8274 103.65C50.8684 103.616 49.978 104.061 49.0362 104.027C48.4197 104.01 47.8889 103.89 47.2896 104.147C46.8272 104.352 46.4334 104.694 46.0738 105.053C45.3546 105.755 44.2415 106.901 43.9162 107.859C43.7621 108.184 43.5908 107.979 43.7278 107.312Z" fill="#51003A"/>
<path d="M51.2964 113.967C52.4608 113.933 53.4026 113.317 54.0362 112.342C54.1218 112.205 54.3615 112.342 54.293 112.479C53.728 113.557 52.5807 114.652 51.382 114.703C51.1594 114.72 51.0909 113.984 51.2964 113.967Z" fill="#51003A"/>
<path d="M65.3378 117.287C65.3378 117.287 58.1116 117.766 54.1389 120.212C50.1662 122.659 56.7931 126.132 56.7931 126.132L65.3378 117.287Z" fill="#353A3D"/>
<path d="M55.4916 120.109L68.42 130.084L69.5331 130.939L72.2729 130.323C72.2729 130.323 73.2489 129.861 74.79 129.074C80.2525 126.269 92.7186 119.339 92.1193 114.925C91.3487 109.279 84.9444 108.527 81.1258 110.511C77.3072 112.496 66.622 116.756 63.574 117.68C60.526 118.57 55.4916 120.109 55.4916 120.109Z" fill="#353A3D"/>
<path d="M70.8688 123.685C71.314 123.052 71.9133 122.522 72.427 121.957C72.9921 121.324 73.5401 120.674 74.088 120.024C74.9442 118.997 75.7833 117.954 76.6566 116.944C76.9648 115.832 77.6669 114.737 78.3176 113.813C79.0368 112.804 79.893 111.931 80.9204 111.264C81.2115 111.076 81.5026 111.521 81.2115 111.726C80.1841 112.41 79.345 113.3 78.6601 114.309C78.4375 114.635 78.2491 114.977 78.0607 115.336C79.9615 113.283 82.0506 111.384 84.5849 110.135C84.8931 109.981 85.1842 110.426 84.876 110.597C82.0848 112.085 79.7902 114.275 77.7183 116.653C76.6395 117.902 75.5949 119.185 74.5504 120.452C73.5572 121.649 72.5126 123.121 71.2455 124.044C71.0229 124.164 70.7146 123.908 70.8688 123.685Z" fill="#1A1A1A"/>
<path d="M62.324 118.228C63.5056 117.783 64.6871 117.321 65.8515 116.825C66.1769 116.688 66.3652 117.201 66.0399 117.355C64.8926 117.885 63.7111 118.382 62.5295 118.792C62.1699 118.895 61.9816 118.347 62.324 118.228Z" fill="#1A1A1A"/>
<path d="M66.1769 127.723L68.4201 130.067L69.5331 130.922L72.2729 130.306C72.2729 130.306 73.249 129.844 74.7901 129.057C74.9785 128.578 75.2867 127.278 73.9682 126.183C72.29 124.814 70.1496 124.506 70.1496 124.506L66.1769 127.723Z" fill="#F4A07F"/>
<path d="M37.8543 114.908C37.8886 115.678 38.0084 116.551 38.231 117.509C39.4468 122.693 47.3922 133.677 52.1184 134.43C55.2863 134.943 56.3308 134.635 57.8377 134.498C58.574 134.43 59.4131 134.43 60.6631 134.566L65.3722 127.894L64.79 125.721C64.79 125.721 58.985 121.307 55.1664 117.492C51.3478 113.677 46.3134 107.877 42.4949 108.955C41.8442 109.143 41.2619 109.348 40.7482 109.605C39.0187 110.46 38.0084 111.812 37.8543 113.933C37.8543 114.258 37.8543 114.566 37.8543 114.908Z" fill="#353A3D"/>
<path d="M37.8543 114.909C37.8886 115.679 38.0084 116.551 38.231 117.509C39.4468 122.693 47.3922 133.677 52.1184 134.43C55.2863 134.943 56.3308 134.635 57.8377 134.498C59.6015 133.797 61.8789 132.907 60.5604 130.392C60.4063 130.084 60.3207 130.17 60.0296 129.999C55.4061 127.227 52.752 126.047 49.0704 124.199C47.358 123.343 44.7894 122.06 43.2654 120.897C41.7757 119.768 38.2995 117.526 37.8543 114.909Z" fill="#272A2B"/>
<path d="M67.6324 140.024H38.1796V133.523L44.0873 133.557L49.2244 133.574L58.5568 133.608L67.6667 133.643H69.9612C70.0297 135.781 67.4441 137.886 67.6324 140.024Z" fill="#6C4E4E"/>
<path d="M67.6838 133.643C67.4098 134.122 65.2694 137.954 63.694 140.024H58.8308C58.711 138.45 58.6082 135.011 58.574 133.608L67.6838 133.643Z" fill="#332323"/>
<path d="M56.1597 118.33C57.2213 119.305 59.8755 121.718 60.9885 122.642C62.1016 123.566 63.266 124.404 64.379 125.311C64.4989 125.413 64.3448 125.601 64.2078 125.516C63.0263 124.729 61.9132 123.788 60.8344 122.881C59.7043 121.94 57.033 119.528 55.9542 118.536C55.8 118.416 56.0055 118.193 56.1597 118.33Z" fill="#1A1A1A"/>
<path d="M64.6701 134.686C64.5845 134.703 64.4989 134.738 64.4304 134.789C64.3619 134.857 64.3277 134.96 64.2763 135.028C64.1222 135.302 63.7797 135.388 63.4715 135.439C63.1633 135.473 62.8208 135.507 62.5811 135.713C62.3071 135.952 62.2215 136.397 61.8961 136.517C61.7591 136.568 61.5879 136.551 61.4509 136.602C61.1769 136.705 61.0057 137.013 60.7317 137.133C60.492 137.235 60.218 137.15 59.9611 137.201C59.7728 137.235 59.6015 137.355 59.4132 137.389C59.2762 137.424 59.1221 137.407 58.9851 137.389C58.7453 137.355 58.5056 137.338 58.283 137.304C58.146 137.287 57.9919 137.27 57.872 137.201C57.4782 137.013 57.3412 136.517 57.4097 136.089C57.4782 135.661 57.7008 135.268 57.8378 134.857C58.1289 134.002 58.0261 133.078 58.0433 132.188C58.0604 131.778 58.0946 131.384 58.2316 131.008C58.3686 130.631 58.6255 130.272 58.9679 130.084C59.0707 130.033 59.1906 129.981 59.3104 129.981C59.4303 129.981 59.7043 129.896 59.807 129.947C61.5536 130.529 63.129 131.213 64.8756 131.778C65.2352 131.897 65.5948 132.017 65.9544 132.171C66.3825 132.359 66.7935 132.616 67.2045 132.873C67.3243 132.941 67.7353 133.146 67.7353 133.283C67.7524 133.454 67.3928 133.591 67.273 133.643C66.4681 134.087 65.5777 134.43 64.6701 134.686Z" fill="#F4A07F"/>
<path d="M61.2968 133.574C61.5708 134.464 62.3927 135.901 63.5229 135.199C64.6359 134.515 63.7969 132.616 62.6325 132.547C62.3071 132.53 62.3071 132.051 62.6325 132.051C64.2079 132.051 65.2353 134.275 64.1565 135.439C63.6599 135.986 62.8722 136.055 62.2215 135.764C61.3996 135.405 60.9544 134.566 60.7489 133.728C60.6632 133.369 61.1941 133.232 61.2968 133.574Z" fill="#DC815C"/>
<path d="M58.283 136.636C58.6084 135.952 59.1392 135.593 59.8927 135.747C59.9783 135.764 60.0297 135.815 60.1324 135.798C60.2865 135.747 60.2009 135.764 60.2694 135.627C60.3379 135.507 60.355 135.37 60.4406 135.268C60.629 135.045 60.903 134.994 61.1598 135.097C61.4509 135.216 61.3482 135.695 61.0228 135.593C60.766 135.507 60.7317 136.038 60.6461 136.157C60.5605 136.294 60.4578 136.363 60.3036 136.397C60.0639 136.448 59.8927 136.294 59.6701 136.26C59.1735 136.174 58.9509 136.551 58.7454 136.91C58.557 137.218 58.1461 136.944 58.283 136.636Z" fill="#DC815C"/>
<path d="M64.8071 125.738C66.0914 126.577 67.3928 127.364 68.7456 128.099C69.6189 128.578 70.5949 129.194 71.5538 129.468C72.9751 129.896 74.893 129.485 76.3142 129.177C76.4341 129.143 76.5711 129.126 76.691 129.092C77.6156 128.886 78.5403 128.63 79.4479 128.39C80.287 128.168 81.537 127.672 82.3418 128.305C82.5815 128.493 82.7014 128.767 82.7528 129.057C82.8213 129.417 82.7014 129.605 82.6329 129.947C82.5987 130.101 82.6671 130.255 82.7356 130.409C82.8555 130.717 82.8898 131.093 82.7014 131.384C82.4617 131.726 81.9651 131.846 81.948 132.308C81.9308 132.462 81.9993 132.599 81.9308 132.753C81.8452 132.958 81.6055 133.129 81.4171 133.249C81.1089 133.437 80.7835 133.54 80.4753 133.745C80.0472 134.019 79.7219 134.447 79.2767 134.635C78.9342 134.789 78.5575 134.789 78.1807 134.806C76.6054 134.84 75.03 134.892 73.4546 134.926C72.6669 134.943 71.8621 134.96 71.0744 134.874C70.0127 134.755 68.9682 134.412 68.0264 133.899C67.1702 133.437 66.5195 132.719 65.629 132.359C63.9167 131.658 62.2214 130.922 60.5433 130.169C60.5262 130.169 65.4064 128.955 64.8071 125.738Z" fill="#F4A07F"/>
<path d="M67.8723 127.107C69.5162 127.963 71.1772 128.801 72.8382 129.622C73.1464 129.776 72.8724 130.221 72.5642 130.084C70.8689 129.348 69.2079 128.493 67.5812 127.603C67.2558 127.432 67.5469 126.936 67.8723 127.107Z" fill="#DC815C"/>
<path d="M67.427 133.643L108.575 133.762H109.757L125.408 133.814V140.024H68.266C68.0777 137.886 67.4955 135.781 67.427 133.643Z" fill="#6C4E4E"/>
<defs>
<linearGradient id="paint0_linear" x1="84.7202" y1="0.732422" x2="84.7202" y2="156.852" gradientUnits="userSpaceOnUse">
<stop stop-color="#F8D9C6"/>
<stop offset="1" stop-color="#F8D9C6" stop-opacity="0.54"/>
</linearGradient>
</defs>
</svg>
