<svg viewBox="0 0 203 206" fill="none" xmlns="http://www.w3.org/2000/svg">
<path d="M15.541 42.284C12.6679 51.1976 15.4961 60.8279 17.7632 69.943C21.9831 86.8744 22.1403 104.097 21.3098 121.476C20.771 133.122 20.8384 144.902 23.3973 156.28C25.5297 165.731 29.4578 174.935 35.6755 182.416C41.7135 189.672 51.5675 193.255 60.9277 193.3C65.5965 193.323 78.3685 192.472 82.97 191.665C98.8396 188.866 114.799 186.537 130.826 184.678C143.418 183.222 169.927 181.475 180.051 173.121C187.032 167.343 189.546 160.244 188.378 151.173C187.593 144.992 185.348 139.079 183.44 133.145C178.502 117.758 175.629 101.701 174.933 85.5754C174.215 69.1368 176.594 53.6835 179.063 37.4688C179.804 32.5641 179.647 27.301 177.402 22.889C174.058 16.2822 166.538 13.9754 159.153 13.2364C148.311 12.139 126.471 12.8556 115.607 13.5723C99.8946 14.6025 76.0341 15.6551 60.3889 17.3572C48.6719 18.6338 37.9874 20.9854 27.8417 27.4578C22.3198 30.9964 17.6061 35.9459 15.541 42.284Z" fill="white"/>
<path d="M186.583 28.4662C186.089 25.174 185.169 21.8818 183.598 18.9255C182.969 17.7609 180.904 18.5895 181.42 19.8437C183.665 25.2859 184.495 30.9297 184.316 36.7975C184.136 42.9116 182.924 48.9361 181.892 54.9606C181.286 58.5216 180.747 62.105 180.455 65.7107C180.32 67.4576 183.036 67.4576 183.194 65.7107C184.293 53.2585 188.424 41.0527 186.583 28.4662Z" fill="white"/>
<path d="M181.218 71.4668C180.478 71.4668 180.029 72.0491 179.962 72.721C179.894 73.4376 179.827 74.1543 179.782 74.8486C179.737 75.4533 180.276 75.9684 180.837 76.0356C181.376 76.1028 182.094 75.7668 182.184 75.1621C182.296 74.3335 182.408 73.5272 182.475 72.6986C182.543 72.0491 181.847 71.4668 181.218 71.4668Z" fill="white"/>
<path d="M27.9991 179.93C23.3752 173.839 20.2327 166.694 19.245 159.08C19.1552 158.363 18.7063 157.758 17.9207 157.758C17.2697 157.758 16.5066 158.385 16.5963 159.08C17.584 167.277 20.7265 175.07 25.8667 181.588C26.8095 182.797 28.9419 181.185 27.9991 179.93Z" fill="white"/>
<mask id="mask0" mask-type="alpha" maskUnits="userSpaceOnUse" x="0" y="0" width="203" height="206">
<rect width="203" height="206" fill="white"/>
</mask>
<g mask="url(#mask0)">
</g>
<g clip-path="url(#clip0)">
<path d="M69.266 65.664C69.1087 65.664 68.9514 65.5064 68.9514 65.3488C68.9514 63.9301 69.1873 62.9055 69.8164 61.9597C70.131 61.408 70.6028 60.9351 71.0746 60.4622C71.4678 60.0682 72.49 58.8071 72.7259 58.413C73.4337 57.3884 74.0628 55.8121 74.22 54.7875C74.22 54.6299 74.4559 55.1028 74.6132 55.1028C74.7705 55.1028 74.8491 55.2604 74.8491 55.4181C74.6918 56.5215 73.355 58.413 72.5687 59.5165C72.2541 59.9893 71.8609 60.3834 71.4678 60.8563C71.0746 61.3292 70.6028 61.8021 70.2882 62.275C69.7378 63.0631 69.5019 64.0089 69.5019 65.3488C69.5019 65.5064 69.4232 65.664 69.266 65.664Z" fill="#B9272D"/>
<path d="M74.849 51.2407C74.849 51.2407 69.895 49.0339 71.8609 42.2558C72.6472 39.4973 75.4781 36.5811 80.2749 38.7879C82.9486 40.049 82.8699 41.0736 84.8358 42.2558C87.6667 42.8863 89.3967 46.1178 90.1044 48.6398C90.2617 49.0339 90.3404 49.5068 90.419 49.9797C90.8122 52.3442 91.9917 54.4722 93.7217 56.1273C94.9012 57.2307 96.0808 58.7282 96.5526 60.3045C98.6758 68.5801 92.4635 73.1514 92.4635 73.1514L71.5463 71.1022C71.5463 71.1022 69.3445 66.2945 70.76 63.6936C72.1754 61.0926 75.0063 56.2061 75.0063 56.2061L74.849 51.2407Z" fill="#B9272D"/>
<path d="M55.8977 194.369C55.1113 195.157 71.7035 195 74.4558 195C91.2053 195.078 97.968 195 97.968 194.054C97.968 193.029 85.1503 193.423 68.1649 193.187C57.7849 192.95 52.5163 193.896 55.8977 194.369Z" fill="#847895"/>
<path d="M92.5423 176.872C91.756 175.375 89.9473 172.932 89.3969 171.276C88.9251 169.621 87.9028 160.085 87.2737 156.617C86.6446 153.149 84.4428 147.553 83.1846 145.74C82.5556 144.794 81.6119 142.666 80.8256 140.775C79.1742 145.267 77.4442 149.681 76.186 154.331C77.916 159.218 79.7247 164.025 81.0615 166.548C84.3642 172.774 86.3301 177.582 86.6446 179.079C86.9592 180.577 87.9814 188.773 89.6328 189.798C91.2055 190.744 93.4073 178.449 92.5423 176.872Z" fill="#DE835C"/>
<path d="M86.0943 194.133C85.5439 194.054 85.1507 193.817 84.9148 193.266C84.5216 192.399 84.6003 190.665 85.6225 187.906C86.4089 185.7 86.3303 183.414 86.3303 182.626C86.4089 180.971 86.173 180.025 86.5662 179.631C86.5662 179.631 87.9816 179 88.6893 179.158C89.3184 179.316 90.0261 180.655 90.9698 180.34C91.4416 180.182 92.228 177.897 92.3066 176.242C92.3066 176.242 92.9357 177.187 93.4075 177.582C93.9579 177.976 94.6657 178.606 94.8229 179.237C95.3734 181.444 91.2057 194.684 86.0943 194.133Z" fill="#5B74C8"/>
<path d="M86.0943 194.133C85.5439 194.054 85.1507 193.817 84.9148 193.266C85.4652 193.581 86.9593 193.187 88.1389 192.241C90.0261 190.823 92.6998 185.384 92.857 184.202C92.9357 183.02 92.3852 182.547 92.3852 181.916C92.3852 181.286 93.2502 179 93.3289 177.582C94.0366 178.054 94.7443 178.843 94.9016 179.473C95.6093 181.68 91.4416 194.763 86.0943 194.133Z" fill="white"/>
<path d="M89.7902 185.463C89.2397 185.384 88.7679 185.384 88.2175 185.463C88.0602 185.463 87.8243 185.542 87.667 185.542C87.4311 185.621 87.1952 185.621 87.0379 185.621C86.9593 185.621 86.9593 185.621 86.8807 185.621C87.0379 185.305 88.0602 184.596 88.2961 184.517C88.7679 184.123 89.2397 183.808 89.6329 183.414C90.0261 183.098 90.1834 182.547 89.5543 182.389C89.0825 182.31 88.3747 182.468 87.8243 182.547C87.2738 182.626 86.7234 182.783 86.1729 182.941C85.7797 183.02 85.937 183.571 86.3302 183.493C86.9593 183.335 87.5884 183.177 88.2175 183.177C88.4534 183.177 88.6893 183.177 88.9252 183.177C88.9252 183.177 88.9252 183.177 88.8466 183.256C87.9816 184.044 86.9593 184.596 86.1729 185.463C85.8584 185.857 85.7797 186.33 86.3302 186.409C87.3525 186.645 88.4534 185.936 89.4756 186.172C90.1047 186.172 90.262 185.542 89.7902 185.463Z" fill="#333A74"/>
<path d="M75.7927 189.719C75.7927 189.719 75.0063 185.305 75.1636 183.965C75.3209 182.626 83.0272 165.365 83.735 159.296C83.9709 157.405 84.0495 155.986 84.0495 154.883C84.1281 152.439 83.9709 151.494 84.364 150.233C84.8359 148.972 85.8581 145.819 86.8018 142.43C88.7677 135.731 92.5422 122.49 93.4858 115.317C94.8226 105.466 91.2054 100.185 91.2054 100.185C89.0822 96.4018 77.0509 103.653 77.0509 103.653L74.8491 140.696C74.8491 140.696 74.2986 147.159 73.5123 155.04C72.4114 166.232 70.9959 180.261 70.2096 182.232C68.8727 185.542 65.7273 189.798 65.7273 189.798L75.7927 189.719Z" fill="#E9946B"/>
<path d="M76.5791 194.054C76.5791 194.054 60.7732 194.684 57.7064 194.054C57.3919 193.975 57.2346 193.581 57.4705 193.029C57.7064 192.478 58.021 191.847 58.3355 191.611C58.9646 191.138 62.975 190.113 64.2332 189.01C65.57 187.827 66.6709 186.172 67.6932 185.857C68.7155 185.542 69.5018 186.015 69.8164 186.172C70.1309 186.33 71.1532 188.143 72.2541 188.3C73.4336 188.458 74.5345 186.96 75.2423 187.118C75.6354 187.197 76.2645 189.167 76.5791 191.059C76.815 192.241 76.7363 193.266 76.5791 194.054Z" fill="#5B74C8"/>
<path d="M76.8148 194.212C76.8148 194.212 60.6945 194.842 57.6277 194.212C57.3131 194.133 57.3131 193.581 57.549 192.951C58.9645 193.029 68.5581 193.502 69.4231 193.187C70.4453 192.872 70.6812 191.768 71.4676 191.453C72.0967 191.217 75.3208 191.059 76.6576 191.059C76.8148 192.241 76.8935 193.424 76.8148 194.212Z" fill="white"/>
<path d="M65.2554 187.276C64.9409 187.355 65.0195 187.907 65.3341 187.828C65.57 187.828 67.3 187.749 67.2213 187.907C67.1427 188.222 65.6486 188.379 65.4127 188.379C64.3904 188.537 63.5254 188.695 62.7391 189.404C62.5032 189.641 62.7391 189.956 62.975 189.956C63.9972 190.035 65.0982 190.192 66.1204 190.192C66.435 190.192 66.5136 189.641 66.1991 189.641C65.4913 189.483 64.705 189.404 63.9972 189.404C64.6263 189.168 65.3341 189.089 66.0418 188.931C66.5136 188.852 67.5359 188.774 67.8504 188.301C68.6368 187.04 65.7272 187.197 65.2554 187.276Z" fill="#333A74"/>
<path d="M84.5214 151.572C84.5214 151.257 83.9709 151.257 83.9709 151.572C83.9709 153.385 84.1282 155.198 84.0495 157.011C83.9709 158.902 83.4991 160.715 82.9486 162.449C81.8477 165.917 80.6682 169.385 79.4887 172.931C79.3314 173.325 79.9605 173.483 80.1177 173.089C81.2973 169.542 82.5555 165.917 83.6564 162.37C84.7573 158.823 84.9145 155.198 84.5214 151.572Z" fill="#FFE7D7"/>
<path d="M68.4795 105.308C68.4795 105.308 65.8845 115.16 68.4795 128.164C71.0745 141.169 74.6917 149.366 74.6917 149.366L79.8031 103.259L68.4795 105.308Z" fill="#423838"/>
<path d="M84.0494 153.07C82.3194 154.173 79.9603 154.646 77.9944 154.646C76.4217 154.646 75.0062 154.252 73.6694 153.622C74.3772 146.371 74.849 140.696 74.849 140.696L77.0508 103.653C77.0508 103.653 89.0821 96.4018 91.2053 100.185C91.2053 100.185 94.8225 105.466 93.4857 115.317C92.5421 122.49 88.7676 135.731 86.8017 142.43C85.858 145.819 84.8358 148.972 84.3639 150.233C84.0494 151.1 84.0494 151.809 84.0494 153.07Z" fill="#423838"/>
<path d="M75.4779 126.037C75.7924 121.544 76.0283 117.052 76.3429 112.559C76.2642 112.638 76.107 112.559 76.0283 112.48C75.3206 111.456 74.8488 110.116 74.5342 108.934C74.4556 108.618 74.9274 108.461 75.0847 108.776C75.4779 109.879 75.9497 110.904 76.4215 112.007C76.5001 110.51 76.6574 108.934 76.8147 107.436C76.8147 107.121 77.3651 107.121 77.3651 107.436C77.0506 113.663 76.5788 119.889 76.1856 126.037C75.7924 132.263 75.3992 138.489 74.9274 144.637C74.9274 145.031 74.2983 145.031 74.2983 144.637C74.5342 138.411 75.0847 132.263 75.4779 126.037Z" fill="#1A1A1A"/>
<path d="M57.8636 66.6097C57.8636 66.6097 57.8636 66.5309 57.8636 66.6097C58.0209 66.1368 58.1782 65.7428 58.3354 65.3487C58.65 64.6393 58.7286 63.8512 58.9645 63.1418C59.2004 62.5113 59.5936 61.9596 59.9868 61.4079C60.4586 60.6198 60.9304 59.674 61.5595 58.9646C62.11 58.3341 61.3236 58.0189 60.5372 58.3341C59.7509 58.6494 58.7286 60.2257 58.2568 59.9892C57.7064 59.674 57.8636 57.0731 57.8636 56.1273C57.8636 55.1815 58.2568 53.7628 57.3918 53.9205C56.5268 53.9993 56.1336 58.4129 55.8191 58.2553C55.5045 57.94 55.5832 53.7628 54.9541 53.7628C54.325 53.684 53.9318 54.0781 53.9318 54.8662C53.9318 55.6544 54.1677 58.4917 53.9318 58.6494C53.6959 58.807 52.8309 54.9451 52.0446 55.2603C51.2582 55.5756 51.4155 56.1273 51.73 57.0731C51.9659 57.8612 52.5164 59.5952 52.2018 59.674C52.1232 59.7528 51.1009 57.1519 50.3146 57.6248C49.9214 57.8612 49.8427 58.1765 50.4718 59.4375C50.7864 60.0681 51.2582 60.6198 51.4941 61.2503C51.8086 61.9596 52.1232 62.7478 52.2805 63.5359C52.595 65.0334 52.6736 66.6097 52.9882 68.1072C53.0668 68.4225 53.0668 68.6589 53.2241 68.8954C53.6959 69.5259 54.7182 70.0776 55.3473 69.6047C55.7404 69.3683 56.1336 69.053 56.5268 68.7377C56.92 68.4225 57.3132 68.0284 57.6277 67.7131C57.8636 67.3191 57.785 66.925 57.8636 66.6097Z" fill="#E9946B"/>
<path d="M54.0104 63.6933C54.6395 62.3534 55.5045 61.3288 57.0772 61.0924C57.5491 61.0136 57.3918 60.3042 56.92 60.3831C55.2686 60.5407 53.6173 61.8017 53.3813 63.4568C53.3813 63.7721 53.9318 63.9297 54.0104 63.6933Z" fill="#DE835C"/>
<path d="M73.9056 63.9302C73.9056 63.9302 70.9174 65.4277 69.266 66.5311C67.6147 67.6345 65.9633 70.9448 65.3342 72.5999C64.7051 74.255 62.6606 81.5848 62.5033 81.7425C62.3461 81.9001 60.7733 77.1712 59.5938 74.4126C58.4143 71.5753 57.6279 68.5015 57.9424 64.876C58.257 61.2505 52.6738 65.2701 52.6738 65.2701C52.6738 65.2701 53.5388 73.9397 54.1679 78.9839C54.797 84.5798 56.0552 91.752 59.4365 92.3825C64.1547 93.3283 68.7156 84.6586 69.8951 81.4272C71.0747 78.2746 73.9056 63.9302 73.9056 63.9302Z" fill="#E9946B"/>
<path d="M61.1665 76.9345C62.5033 79.6931 63.6828 82.688 64.1546 85.683C64.2333 85.9983 63.6828 86.1559 63.6042 85.8406C62.7392 82.9245 61.9528 80.0083 60.6947 77.2498C60.4588 76.8557 61.0092 76.5404 61.1665 76.9345Z" fill="white"/>
<path d="M71.9396 69.4472C72.2542 72.9938 73.1192 77.4075 75.4783 77.8804C77.8373 78.3533 80.1178 77.1711 82.0837 75.3583L84.6 88.284L88.5318 87.1018C88.5318 87.1018 89.0036 84.5797 89.5541 81.9788C90.1046 79.3779 90.9695 76.3041 91.3627 76.2253C91.7559 76.1465 94.0364 77.3287 96.3954 78.5109C96.7886 77.0922 97.1032 75.6736 97.4177 74.1761C97.8109 72.521 98.2041 70.8658 98.5972 69.1319C97.575 68.3437 96.4741 67.4768 96.2382 67.3191C95.0586 66.531 93.7218 65.9793 92.385 65.3488C91.0482 64.7971 89.7114 64.3242 88.3746 63.7725C87.9027 63.536 87.4309 63.3784 87.0377 63.1419C85.8582 62.5114 84.9146 61.8809 84.5214 61.1715C84.5214 61.0139 84.4428 60.8563 84.4428 60.6198V60.541V60.4622C84.3641 59.9893 84.3641 59.5164 84.2855 59.0435C84.2855 58.7283 84.2855 58.413 84.2855 58.0978C84.2855 58.0978 84.2855 58.0978 84.2855 58.0189C84.2855 57.7825 84.2855 57.6249 84.2855 57.3884C84.2855 56.5214 84.4428 52.3442 84.4428 52.3442L80.275 54.5511L77.5228 56.0486C77.5228 56.0486 77.5228 56.7579 77.5228 57.7037C77.5228 57.9401 77.5228 57.9401 77.5228 58.2554C77.5228 58.7283 77.5228 59.0435 77.5228 59.5164C77.5228 59.9893 77.3655 60.4622 77.2082 60.8563C77.1296 61.0927 76.9723 61.2504 76.8151 61.4868C76.5792 61.7233 76.3432 61.9597 76.1073 62.1961C75.7928 62.5114 75.321 62.8267 74.8492 63.1419C74.6919 63.2207 74.6133 63.2996 74.456 63.3784C74.2201 63.536 73.8269 63.7725 73.4337 64.0089C72.8046 64.403 72.1755 64.7971 71.7824 64.9547C71.7824 65.1123 71.7037 67.0827 71.9396 69.4472Z" fill="#E9946B"/>
<path d="M90.1832 75.5947C90.8909 75.6735 91.52 75.8312 92.0705 76.1464C92.385 76.3041 92.1491 76.8558 91.7559 76.6981C91.2841 76.4617 90.7337 76.3041 90.1046 76.2252C89.79 76.2252 89.79 75.5947 90.1832 75.5947Z" fill="#DE835C"/>
<path d="M81.4548 58.2553C80.3539 59.3587 78.9384 59.5163 77.4443 59.4375C77.4443 59.0434 77.4443 58.7282 77.4443 58.3341C77.4443 58.0977 77.4443 58.0188 77.4443 57.7824C77.4443 56.9154 77.4443 56.1273 77.4443 56.1273L80.1966 54.6298L83.4993 53.5264C83.1061 55.2603 82.713 56.9942 81.4548 58.2553Z" fill="#1A1A1A"/>
<path d="M73.0409 47.2999C72.9623 47.7728 72.8837 48.2457 72.8837 48.6398C72.7264 49.6644 72.9623 50.8466 72.9623 51.95C73.1982 54.7874 74.535 57.3883 76.3436 57.94C79.4104 58.8857 83.4995 55.9696 84.3645 52.9746C84.3645 52.9746 86.9595 52.1864 86.3304 49.3491C86.0159 48.0881 84.6004 47.9304 83.9713 48.7186C83.6568 48.4033 83.4995 48.0092 83.4209 47.6152C83.3422 47.2211 83.3423 46.6694 82.9491 46.3541C82.6345 46.1177 82.2413 46.1177 81.8482 46.0389C80.6686 45.96 79.725 45.1719 78.86 44.3049C78.6241 44.0685 78.3882 43.832 78.0736 43.832C77.7591 43.832 77.4445 44.0685 77.2873 44.3049C77.13 44.5414 76.9727 44.8566 76.8155 45.0931C76.6582 45.3295 76.4223 45.566 76.1077 45.6448C75.7146 45.8024 75.2427 45.8812 74.8496 45.8812C74.3777 45.96 73.9846 45.96 73.5914 46.1965C73.2768 46.4329 73.1196 46.9058 73.0409 47.2999Z" fill="#E8926D"/>
<path d="M79.4101 49.0336C79.4888 48.9548 79.646 48.876 79.7247 48.876C79.7247 48.876 79.7247 48.876 79.8033 48.876C80.2751 48.9548 80.3538 49.5065 80.1178 49.9006C80.1178 49.9794 80.0392 50.0582 79.9606 50.137C79.8819 50.2158 79.8033 50.2158 79.7247 50.2158C79.4888 50.2158 79.4101 50.137 79.3315 49.9794C79.0956 49.6641 79.0956 49.2701 79.4101 49.0336Z" fill="#1A1A1A"/>
<path d="M73.5125 49.2702C73.6698 49.0338 74.0629 49.0338 74.2988 49.1914C74.2988 49.1914 74.2988 49.2702 74.3775 49.2702C74.4561 49.349 74.4561 49.4278 74.4561 49.5067C74.4561 49.6643 74.3775 49.8219 74.2988 49.9796C74.0629 50.216 73.7484 50.216 73.5125 49.9007C73.3552 49.7431 73.3552 49.4278 73.5125 49.2702Z" fill="#1A1A1A"/>
<g opacity="0.5">
<path opacity="0.5" d="M76.2646 52.5016C76.2646 52.344 76.4219 52.2651 76.5792 52.2651C76.7365 52.2651 76.8937 52.344 77.051 52.344C77.2083 52.344 77.2869 52.5016 77.2869 52.6592C77.2869 52.8168 77.1296 52.8957 76.9724 52.8957C76.8151 52.8957 76.6578 52.8168 76.5006 52.8168C76.3433 52.8168 76.2646 52.6592 76.2646 52.5016Z" fill="#CF5D4C"/>
</g>
<path d="M78.7024 46.354C79.0956 46.5116 79.4101 46.6693 79.8033 46.8269C80.1178 47.0633 80.511 47.2998 80.8255 47.4574C81.1401 47.615 80.8255 48.1667 80.511 47.9303C80.1965 47.6939 79.8819 47.4574 79.4887 47.2998C79.1742 47.0633 78.781 46.9845 78.3878 46.8269C78.1519 46.6693 78.3878 46.1964 78.7024 46.354Z" fill="#B9272D"/>
<path d="M72.8833 47.6153C73.1192 47.3789 73.4337 47.3001 73.7483 47.1424C74.0628 47.0636 74.2987 47.6153 73.9056 47.6942C73.6696 47.773 73.4337 47.773 73.2765 47.9306C73.0406 48.2459 72.6474 47.9306 72.8833 47.6153Z" fill="#B9272D"/>
<path d="M75.95 54.6299C75.95 54.6299 77.7586 54.5511 78.7809 54.157C79.7245 53.7629 78.5449 55.9697 77.9945 55.9697C76.5004 55.9697 75.95 54.6299 75.95 54.6299Z" fill="white"/>
<path d="M68.3223 106.333C68.3223 106.333 70.9959 105.229 73.2763 105.387C75.5568 105.544 79.0168 104.756 83.2631 102.077C87.5095 99.3969 89.6326 99.3969 89.6326 99.3969L89.554 94.668C89.554 94.668 89.7899 94.4315 89.8685 93.9586C89.9472 93.6434 89.9472 93.2493 89.8685 92.6976C89.7113 92.0671 89.4754 91.673 89.3181 91.2789C89.0822 90.8849 88.9249 90.412 88.7676 89.545C88.4531 87.7322 89.7899 82.5304 89.554 82.0575C89.554 82.0575 87.2735 83.0821 86.7231 79.9295C85.8581 74.4125 87.5881 64.6394 88.3745 63.93C88.2958 63.93 87.3522 63.2995 87.0376 63.2995C87.0376 63.2995 87.0376 63.2995 86.959 63.2995C86.5658 63.6936 85.0717 68.4225 84.5999 70.4717C84.1281 72.5997 83.4204 73.8608 81.9263 74.0184C80.5895 74.2548 74.0627 73.6243 73.5909 72.3633C73.1191 71.181 74.5345 64.6394 74.8491 63.2207C74.6918 63.2995 74.6131 63.3783 74.4559 63.4571C74.22 63.6148 73.8268 63.8512 73.4336 64.0877C73.2763 64.797 72.7259 67.0038 71.9395 69.4471C71.5463 70.7082 71.1532 71.9692 70.6813 73.2302C69.1086 77.5651 68.4009 78.3532 68.4009 80.9541C68.4009 83.555 71.2318 86.8653 70.8386 90.806C70.8386 90.9637 70.8386 91.0425 70.76 91.2001C70.6813 92.0671 70.4454 93.0917 70.2882 94.1951C69.5018 97.8206 68.2436 101.919 68.0864 102.944C68.0077 104.283 68.3223 106.333 68.3223 106.333Z" fill="#ED4450"/>
<path d="M70.2883 94.1952C70.9961 93.6435 71.4679 92.7765 71.8611 91.9884C72.1756 91.3579 72.4115 90.4909 72.962 89.9392C73.6697 89.2298 74.5347 90.3333 75.0851 90.885C76.1074 91.9096 76.9724 93.0918 77.916 94.1952C78.7024 95.0622 79.7247 95.4562 80.8256 94.8257C82.0051 94.1164 82.9487 92.7765 83.7351 91.6731C84.0496 91.2002 84.3642 90.6485 84.836 90.3333C85.5437 89.8604 86.3301 90.2544 86.9592 90.7273C88.1387 91.5943 89.161 92.6977 89.9473 93.9588C90.026 93.6435 90.026 93.2494 89.9473 92.6977C89.7901 92.0672 89.5542 91.6731 89.3969 91.279C89.0823 90.885 88.6892 90.5697 88.3746 90.2544C87.5096 89.4663 86.4087 88.5993 85.1505 88.9146C84.0496 89.151 83.4206 90.1756 82.7915 91.0426C82.3196 91.6731 81.7692 92.3036 81.2187 92.9342C80.6683 93.4859 80.0392 94.274 79.2528 93.6435C78.781 93.1706 78.3878 92.6189 77.916 92.0672C77.4442 91.4367 76.8938 90.885 76.3433 90.3333C75.4783 89.4663 74.3774 88.2052 73.0406 88.6781C71.9397 89.0722 71.3892 90.4121 70.9961 91.4367C70.7601 92.146 70.5242 93.1706 70.2883 94.1952Z" fill="#FC9081"/>
<path d="M84.0494 135.258C84.128 135.968 84.0494 137.229 84.8357 137.702C86.723 138.726 87.3521 133.603 87.5093 132.657C87.9812 129.82 87.9812 126.983 87.9025 124.145C87.9025 121.072 87.7452 117.919 87.588 114.845C87.5093 111.771 87.4307 108.619 87.5093 105.545C87.588 103.18 87.5093 100.107 89.4752 98.4515C89.7111 98.4515 90.0257 98.4516 90.2616 98.5304C90.6548 98.6092 90.8121 97.9787 90.4189 97.8998C87.588 97.1117 86.2512 100.658 85.7793 102.786C85.0716 105.86 84.9144 109.17 84.7571 112.323C84.4425 118.471 84.2853 124.618 84.0494 130.845C84.0494 132.263 83.9707 133.761 84.0494 135.258ZM84.6784 134.943C84.6784 134.312 84.6784 133.682 84.6784 133.13C84.6784 131.79 84.7571 130.529 84.8357 129.189C84.993 123.672 85.1503 118.155 85.4648 112.638C85.6221 109.88 85.7793 107.121 86.2512 104.363C86.4871 103.023 86.9589 100.343 88.2171 99.0821C87.3521 100.422 87.1948 102.156 87.0375 103.732C86.8016 106.806 86.8016 109.959 86.8803 113.032C87.0375 118.471 87.4307 123.988 87.1162 129.426C87.0375 130.766 86.8803 132.027 86.6443 133.367C86.4871 133.997 86.3298 134.628 86.1725 135.258C86.0939 135.574 86.0153 135.81 85.858 136.125C85.7793 136.362 85.7793 136.598 85.6221 136.756C85.5434 136.835 85.0716 136.992 84.9144 136.913C84.5998 136.756 84.7571 135.337 84.6784 134.943Z" fill="#B0C1D3"/>
<path d="M93.8787 144.953C94.1932 146.844 94.3505 148.736 94.5078 150.706C94.665 152.598 94.9796 154.568 94.8223 156.46C94.7437 157.878 92.5419 158.351 92.2273 156.854C91.8341 154.962 91.8341 152.992 91.6769 151.1C91.5196 149.209 91.3623 147.317 91.2837 145.425C91.2837 143.849 93.6428 143.455 93.8787 144.953Z" fill="#EFB44B"/>
<path d="M88.5315 99.7123C88.5315 99.6335 93.3283 106.727 93.3283 106.727C93.3283 106.727 92.6992 102.313 91.9915 100.973C91.2838 99.6335 88.5315 99.7123 88.5315 99.7123Z" fill="#1A1A1A"/>
<path d="M90.2616 141.327C90.3402 139.829 90.4975 138.332 90.7334 136.756C90.9693 134.706 91.2838 132.736 91.677 130.687C91.677 129.268 91.7556 127.928 91.8343 126.51C91.9915 123.593 92.6206 120.126 92.9352 117.209C93.3284 114.293 93.6429 111.062 93.407 108.146C93.3284 106.491 92.6206 104.047 92.2275 102.392C91.9129 100.895 91.5984 100.895 90.6547 99.6336C90.4975 99.3971 90.812 99.0031 90.9693 99.3183C92.6993 101.289 93.1711 103.574 93.5643 106.018C93.9575 108.934 94.1934 111.535 93.8788 114.451C93.5643 117.525 92.7779 121.544 92.542 124.618C92.542 124.933 92.4634 125.17 92.4634 125.485C93.3284 120.126 94.0361 114.608 93.7215 109.17C93.4856 105.624 92.4634 102.156 90.5761 99.1607C90.4188 98.8454 91.2052 98.5302 91.3625 98.8454C93.0138 101.289 93.8002 104.363 94.1934 107.279C94.5865 110.431 94.5865 113.347 94.3506 116.5C93.9575 121.308 93.0925 126.037 92.2275 130.766C92.2275 131.79 92.2275 132.815 92.2275 133.839C92.2275 137.386 92.4634 140.933 92.7779 144.479C92.7779 144.874 92.2275 144.874 92.1488 144.479C91.8343 141.406 91.5984 138.253 91.5984 135.1C91.3625 136.913 91.1266 138.726 90.9693 140.618C90.812 142.351 90.812 144.007 90.7334 145.819C90.7334 146.056 90.3402 146.056 90.2616 145.819C90.0257 144.401 90.1829 142.824 90.2616 141.327Z" fill="#B0C1D3"/>
<path d="M86.7229 95.4564C87.352 95.1411 88.2956 94.6682 88.9247 94.3529C89.4752 94.1165 89.6325 94.1953 90.0256 94.4318C90.1043 94.4318 90.1829 94.5106 90.2615 94.5894C90.6547 94.8258 91.0479 95.3775 91.3624 95.7716C91.5197 96.0081 91.8343 96.5598 92.1488 96.7962C92.3061 96.875 92.4634 96.9538 92.6206 96.875C92.6993 96.7962 92.7779 96.7174 92.9352 96.6386C93.0924 96.481 93.1711 96.3233 93.2497 96.2445C93.8788 95.5352 103.158 83.0824 102.45 82.2154C101.742 81.506 97.0242 79.0628 94.1147 77.5653C94.7438 74.1762 95.6874 71.1024 96.2379 67.7134C97.0242 68.1863 99.6192 70.1567 100.327 70.866C104.652 74.8856 110.471 78.6687 110.864 80.9543C111.1 82.373 110.471 84.1858 109.763 85.2104C104.18 93.1707 96.2379 99.7912 94.272 101.131C93.8788 101.446 93.4856 101.683 93.0138 101.919C92.8565 101.998 92.6993 102.077 92.542 102.156C92.4634 102.234 92.3061 102.313 92.1488 102.234C92.0702 102.156 91.9915 102.077 91.9129 101.998L91.677 101.525C91.5197 101.21 91.2838 100.895 90.9693 100.658C90.6547 100.422 90.1829 100.658 89.7897 100.501C89.4752 100.343 89.4752 100.028 89.1606 99.87C89.0034 99.7912 88.8461 99.87 88.7675 99.7912C88.5316 99.7124 88.3743 99.4759 88.3743 99.2395C88.3743 99.003 88.4529 98.8454 88.4529 98.609V98.5302C88.2956 98.5302 88.217 98.609 88.1384 98.6878C88.0597 98.6878 88.0597 98.7666 87.9811 98.7666C87.7452 98.8454 87.5093 98.9242 87.2734 98.9242H87.1947C86.7229 98.8454 86.9588 98.2937 87.1161 97.9784C87.352 97.6632 87.6666 97.2691 87.9811 96.9538C88.217 96.6386 88.4529 96.3233 88.7675 96.1657C88.9247 96.0869 89.1606 96.0869 89.2393 96.0081C89.3966 95.9292 89.6325 95.7716 89.4752 95.6928C89.3966 95.614 89.3179 95.5352 89.2393 95.5352C89.082 95.5352 88.9247 95.614 88.8461 95.6928C88.4529 95.9292 87.9811 96.0081 87.5879 96.0869C87.1947 96.1657 86.7229 96.0869 86.6443 95.614C86.6443 95.5352 86.6443 95.5352 86.6443 95.4564C86.7229 95.4564 86.7229 95.4564 86.7229 95.4564Z" fill="#E9946B"/>
<path d="M98.7544 88.284C98.6757 88.284 98.5971 88.284 98.5185 88.2052C98.3612 88.0475 98.3612 87.8111 98.4398 87.6535C100.248 85.4466 102.293 81.5059 102.529 81.033C102.529 81.033 102.529 80.9542 102.608 80.9542C102.686 80.7965 102.843 80.7177 103.001 80.7965C103.158 80.7965 103.237 80.8754 103.315 81.033C103.315 81.1118 103.394 81.1118 103.315 81.3483C103.158 81.6635 102.843 82.3728 102.057 83.7915C101.349 85.0526 100.248 86.8653 99.2262 88.1264C98.9117 88.284 98.833 88.284 98.7544 88.284Z" fill="white"/>
<path d="M93.5644 99.161C93.2498 98.6881 93.0139 98.0575 92.778 97.5847C92.6207 97.2694 92.3848 96.9541 92.2275 96.7177C92.3848 96.7965 92.5421 96.8753 92.6994 96.7965C92.778 96.7177 92.8566 96.6389 93.0139 96.5601C93.5644 97.3482 94.0362 98.2152 94.1148 99.0821C94.1148 99.3186 93.643 99.3974 93.5644 99.161Z" fill="#DE835C"/>
<path d="M91.6769 145.977C91.8341 147.868 91.9128 149.839 91.9128 151.73C91.9128 153.622 92.07 155.592 91.8341 157.484C91.5982 158.902 89.3964 159.218 89.1605 157.641C88.9246 155.75 89.0819 153.779 89.0819 151.888C89.0819 149.996 89.0819 148.105 89.1605 146.134C89.1605 144.716 91.5196 144.479 91.6769 145.977Z" fill="#EFB44B"/>
<path d="M91.5982 145.583C91.6768 145.504 91.6768 145.504 91.7555 145.583C92.2273 145.898 92.7777 145.819 93.1709 145.346C93.3282 145.189 93.4855 145.425 93.4068 145.583C93.0136 145.977 92.5418 146.135 92.07 146.056C92.2273 146.292 92.2273 146.529 92.3059 146.844C92.3846 147.711 92.3846 148.499 92.3846 149.366C92.3846 150.154 92.3846 150.942 92.3059 151.809C92.3059 152.597 92.3059 153.464 92.2273 154.331C92.2273 154.489 91.9127 154.489 91.9127 154.331C91.8341 152.913 91.9914 151.494 91.9914 150.075C91.9914 149.366 91.9914 148.657 91.9914 147.947C91.9914 147.396 92.07 146.292 91.5196 145.977C91.3623 145.74 91.4409 145.583 91.5982 145.583Z" fill="#D89B39"/>
<path d="M102.293 95.6925C102.057 95.5349 101.9 95.2985 101.585 95.2196C101.271 95.062 100.956 95.1408 100.642 95.1408C100.406 95.1408 100.091 95.062 100.013 94.8256C99.9339 94.6679 100.013 94.4315 100.091 94.2739C100.406 93.801 100.956 93.5645 101.507 93.6433C101.978 93.7222 102.765 93.8798 103.158 93.6433C103.551 93.4069 103.394 93.6434 103.708 93.8798C103.787 93.9586 103.866 94.0374 103.944 94.1162C104.023 94.1951 104.023 94.3527 103.944 94.4315C103.944 94.8256 103.866 95.2196 103.787 95.6137C103.551 96.0866 103.001 96.1654 102.608 95.929C102.529 95.8502 102.372 95.7714 102.293 95.6925Z" fill="#E9946B"/>
<path d="M126.906 76.3039L123.525 84.7371L112.752 82.215C112.752 82.215 112.437 80.8752 113.066 80.0082C113.774 79.1412 114.56 80.1658 115.425 77.959C116.133 76.1462 117.47 72.9148 119.043 70.8656C119.121 70.7868 119.2 70.6292 119.279 70.5504C119.514 70.2351 119.829 69.9198 120.065 69.6834C122.109 68.0283 125.019 66.2943 125.491 65.4274C126.041 64.6392 126.906 76.3039 126.906 76.3039Z" fill="#A9644C"/>
<path d="M120.851 74.8063C120.144 73.5453 119.436 72.2842 119.121 70.8656C119.2 70.7867 119.279 70.6291 119.357 70.5503C119.672 72.0478 120.38 73.3088 121.166 74.6487C121.245 74.8063 120.93 74.9639 120.851 74.8063Z" fill="#894637"/>
<path d="M124.862 94.8254C124.862 94.8254 98.2826 94.6678 94.9012 93.9585C91.5199 93.2491 91.2053 87.0227 91.2053 86.8651C91.2053 86.7863 91.3626 86.7863 91.5985 86.7863C91.913 86.7863 92.2276 86.8651 92.2276 86.8651C92.2276 86.7863 92.2276 86.7863 92.2276 86.7075C92.0703 84.6583 92.9353 80.7963 94.5867 80.4022C96.238 80.087 120.458 81.7421 120.458 81.7421C126.356 83.5548 124.862 94.8254 124.862 94.8254Z" fill="#EFB44B"/>
<path d="M125.255 65.7427C125.255 65.7427 122.188 69.5258 121.952 70.708C121.873 71.8903 122.345 73.4666 121.323 76.6192C120.301 79.7718 119.121 81.3481 119.829 83.5549C120.537 85.7617 122.188 87.5745 121.873 90.333C121.559 93.0128 119.986 93.0128 121.402 95.062C122.817 97.1111 136.893 98.9239 140.589 98.451C144.285 97.9781 145.307 95.9289 145.307 94.0373C145.307 92.1458 143.105 90.333 143.42 87.4957C143.734 84.6583 145.936 82.1362 146.801 79.5353C147.666 77.0133 144.127 66.5308 144.127 66.5308L125.255 65.7427Z" fill="#A9644C"/>
<path d="M121.952 71.4175C121.873 71.1022 121.323 71.181 121.402 71.4963C121.637 73.6243 121.402 75.6735 120.615 77.6439C119.907 79.3778 119.042 81.1906 119.514 83.0821C119.593 83.4762 120.143 83.3186 120.143 82.9245C119.829 80.7177 120.93 78.9049 121.637 76.8557C122.188 75.043 122.345 73.1514 121.952 71.4175Z" fill="#894637"/>
<path d="M126.513 69.5258C126.513 69.5258 123.997 64.1663 125.491 59.7527C126.985 55.339 141.14 56.3636 142.476 58.4128C143.813 60.462 142.162 61.8019 142.948 62.59C143.813 63.457 144.835 63.6146 144.993 64.9545C145.15 66.2943 143.341 68.974 143.341 68.974C143.341 68.974 131.074 75.2005 129.737 74.3335C128.401 73.6241 126.513 69.5258 126.513 69.5258Z" fill="#A9644C"/>
<path d="M137.679 57.5459C137.679 57.5459 140.038 57.5459 140.903 59.0434C141.768 60.5409 140.746 61.2502 140.038 61.7231C139.33 62.196 137.207 64.2452 136.185 65.0333C135.163 65.9003 126.749 65.8215 126.749 65.8215C126.749 65.8215 126.277 61.9596 126.906 61.0138C127.535 60.1468 137.679 57.5459 137.679 57.5459Z" fill="#3A1714"/>
<path d="M124.233 51.4773C124.233 51.4773 122.739 53.8417 123.211 54.3146C123.682 54.7875 138.309 54.157 138.545 53.1324C138.702 52.1078 136.343 49.1128 136.343 49.1128L124.233 51.4773Z" fill="#ED4450"/>
<path d="M124.783 52.9744C124.783 52.9744 124.704 54.2355 123.525 55.733C122.345 57.2305 121.323 61.4077 129.108 61.3289C136.264 61.25 139.173 58.9644 138.859 56.2847C138.544 53.605 135.32 50.3735 135.32 50.3735L124.783 52.9744Z" fill="#3D57A4"/>
<path d="M137.758 63.7724C137.758 63.7724 136.421 64.9546 135.163 66.3733C134.849 66.7673 134.534 67.1614 134.219 67.4767C132.883 69.3682 130.838 72.8361 130.366 73.2302C129.895 73.5454 129.03 72.7573 127.85 70.7081C127.221 69.6047 126.906 67.7919 126.749 66.3733C126.592 65.2698 126.592 64.4029 126.592 64.4029C126.592 64.4029 127.3 63.6935 127.771 62.7478C128.007 62.196 128.007 60.8562 128.007 59.7528C127.929 58.5705 127.85 57.7036 127.85 57.7036L129.501 56.9942L135.006 53.5264C135.006 53.5264 134.613 57.0731 135.006 59.7528C135.32 62.1172 137.758 63.7724 137.758 63.7724Z" fill="#E9946B"/>
<path d="M124.783 52.5803C124.468 54.1566 122.896 55.0236 122.109 56.3634C121.48 57.4669 121.48 58.8855 122.188 59.989C122.424 60.383 122.974 60.0678 122.738 59.6737C121.873 58.0186 122.503 56.6787 123.682 55.4965C124.468 54.7083 125.176 53.9202 125.412 52.7379C125.412 52.3439 124.862 52.1862 124.783 52.5803Z" fill="#3D57A4"/>
<path d="M134.14 56.7578C133.433 61.1715 128.951 60.1469 128.007 59.5952C127.928 58.5706 127.85 57.7036 127.85 57.7036L129.501 56.9943L134.14 56.7578Z" fill="#1A1A1A"/>
<path d="M124.39 47.221C124.547 46.6693 124.783 46.1964 125.176 45.7235C125.805 45.0142 126.67 44.4625 127.535 44.1472C128.321 43.8319 129.186 43.6743 130.13 43.6743C130.995 43.6743 131.86 43.9108 132.725 44.226C133.354 44.3837 133.905 44.6201 134.455 44.9354C135.084 45.3294 135.556 45.8023 135.949 46.4329C136.264 46.9846 136.657 47.6939 136.657 48.3244C136.578 49.6643 136.5 50.9253 136.342 52.2652C136.106 53.605 135.87 55.1813 135.163 56.3636C134.062 58.1763 132.096 59.595 128.951 58.6492C125.884 57.7034 124.468 51.6347 124.39 50.216C124.232 49.1914 124.154 48.1668 124.39 47.221Z" fill="#E9946B"/>
<path d="M129.343 54.3931C130.68 54.3143 131.781 54.0778 132.646 53.9202C133.197 53.8414 132.174 55.8906 131.545 56.0482C130.366 56.3635 128.793 54.4719 129.343 54.3931Z" fill="white"/>
<path d="M136.578 48.7974C136.578 48.7974 137.601 48.1668 138.151 49.3491C138.702 50.5313 137.129 53.3686 135.949 53.3686C134.848 53.4475 136.578 48.7974 136.578 48.7974Z" fill="#E9946B"/>
<g opacity="0.7">
<path opacity="0.7" d="M129.737 53.0535C129.737 52.8959 129.894 52.7383 130.052 52.7383C130.209 52.7383 130.366 52.7383 130.523 52.8171C130.681 52.8171 130.838 52.9747 130.838 53.1324C130.838 53.29 130.681 53.4476 130.523 53.4476C130.366 53.4476 130.209 53.4476 130.052 53.3688C129.816 53.3688 129.737 53.29 129.737 53.0535Z" fill="#DE835C"/>
</g>
<path d="M128.164 48.2455C128.243 48.1667 128.322 48.0091 128.322 47.9302C128.322 47.7726 128.086 47.6938 127.928 47.7726C127.85 47.7726 126.906 48.0879 126.12 48.876C125.963 49.0337 125.963 49.1913 126.041 49.3489C126.12 49.5066 126.356 49.5066 126.513 49.3489C127.221 48.7184 128.086 48.4031 128.086 48.4031C128.086 48.2455 128.086 48.2455 128.164 48.2455Z" fill="#3D57A4"/>
<path d="M132.568 47.6152C132.489 47.5364 132.411 47.3787 132.411 47.2999C132.411 47.1423 132.568 47.0635 132.804 47.0635C132.882 47.0635 133.826 47.2999 134.77 48.0093C134.927 48.0881 134.927 48.3245 134.848 48.4822C134.77 48.6398 134.534 48.6398 134.377 48.4822C133.59 47.9304 132.725 47.694 132.725 47.694C132.725 47.6152 132.647 47.6152 132.568 47.6152Z" fill="#3D57A4"/>
<path d="M136.814 50.1372C137.05 50.1372 137.208 50.6889 137.286 50.9254C137.286 51.1618 136.736 51.7923 136.736 51.7923C136.736 51.7923 136.657 50.1372 136.814 50.1372Z" fill="#DE835C"/>
<path d="M124.39 49.4279C124.39 49.4279 123.368 48.955 122.974 50.1372C122.581 51.3194 124.154 53.9204 125.176 53.8415C126.356 53.8415 124.39 49.4279 124.39 49.4279Z" fill="#E9946B"/>
<g opacity="0.71">
<path opacity="0.71" d="M124.311 50.8467C124.075 50.8467 123.918 51.4772 123.997 51.6348C123.997 51.8713 124.626 52.423 124.626 52.423C124.626 52.423 124.547 50.8467 124.311 50.8467Z" fill="#DE835C"/>
</g>
<path d="M133.197 50.5312C133.118 50.4524 133.118 50.2948 133.118 50.216C133.118 49.9007 133.276 49.6643 133.59 49.5854C133.826 49.5854 133.983 49.5854 134.141 49.7431C134.298 49.9007 134.377 50.1372 134.298 50.2948C134.298 50.3736 134.219 50.4524 134.141 50.4524C134.062 50.5312 133.905 50.61 133.826 50.6889C133.669 50.7677 133.512 50.7677 133.433 50.6889C133.354 50.6889 133.276 50.61 133.197 50.5312Z" fill="#1A1A1A"/>
<path d="M128.007 50.2948C128.007 50.3736 128.007 50.5312 128.007 50.61C127.928 50.9253 127.693 51.0829 127.378 51.0829C127.142 51.0829 126.985 50.9253 126.906 50.7676C126.828 50.61 126.828 50.3736 126.906 50.2159C126.985 50.1371 126.985 50.1371 127.063 50.0583C127.221 49.9795 127.299 49.9795 127.457 49.9795C127.614 49.9795 127.771 50.0583 127.85 50.1371C127.928 50.1371 128.007 50.2159 128.007 50.2948Z" fill="#1A1A1A"/>
<path d="M124.232 48.3244C124.232 48.3244 124.311 49.9796 124.39 50.1372C124.39 50.2948 124.783 50.1372 124.94 49.6643C125.097 49.1914 125.097 47.1422 127.299 45.6447C128.243 44.9354 124.704 46.4329 124.232 48.3244Z" fill="#3D57A4"/>
<path d="M124.233 48.4824C124.233 48.4824 126.356 45.1721 130.523 44.8569C134.691 44.5416 136.421 47.379 136.736 48.5612C136.736 48.5612 137.129 45.8027 136.421 42.9653C135.713 40.2068 131.388 37.7635 129.658 38.0788C127.457 38.5517 123.525 41.0737 123.603 44.1475C123.682 46.5908 124.233 48.4824 124.233 48.4824Z" fill="#ED4450"/>
<path d="M126.985 43.9897C126.985 43.9897 129.894 42.7287 133.276 43.7533C133.276 43.7533 132.332 40.1278 129.501 40.6006C126.67 41.1524 126.985 43.9897 126.985 43.9897Z" fill="#333A74"/>
<path d="M136.736 45.96C136.107 45.0142 135.084 44.3837 134.062 43.9108C133.512 43.6743 132.883 43.4379 132.254 43.3591C131.624 43.2803 130.995 43.2803 130.288 43.2803C129.029 43.2803 127.693 43.4379 126.592 43.9896C125.569 44.5413 124.626 45.4083 124.075 46.3541C123.997 46.5117 124.154 46.5905 124.311 46.5117C125.019 45.6447 125.727 44.8566 126.67 44.3049C127.771 43.6743 129.029 43.5955 130.288 43.5955C130.838 43.5955 131.467 43.5955 132.018 43.6743C132.647 43.7532 133.197 43.9108 133.748 44.2261C134.77 44.6989 135.713 45.3295 136.421 46.2753C136.578 46.3541 136.814 46.1964 136.736 45.96Z" fill="#C02328"/>
<path d="M128.4 45.2505C128.4 45.2505 129.894 44.9352 131.231 46.4327C132.568 47.9302 133.276 49.6642 135.084 49.4277C136.971 49.2701 137.286 48.9548 136.578 47.2209C135.949 45.6446 132.332 43.753 128.4 45.2505Z" fill="#3D57A4"/>
<path d="M129.816 38.0785C129.501 38.709 129.58 39.3395 129.737 39.97C129.737 40.1277 129.973 40.0489 129.973 39.97C129.973 39.3395 129.816 38.7878 130.052 38.2361C130.13 38.0785 129.894 37.9208 129.816 38.0785Z" fill="#C02328"/>
<path d="M126.435 68.8162C126.041 67.3187 125.57 66.0577 125.491 64.5602C125.491 64.1661 124.862 64.1661 124.862 64.5602C124.862 66.0577 125.098 67.7916 125.884 69.0527C126.12 69.2891 126.513 69.1315 126.435 68.8162Z" fill="#894637"/>
<path d="M143.577 65.9001C142.712 65.5848 141.847 65.3484 141.061 64.9543C141.533 64.639 142.083 64.4026 142.634 64.1662C142.948 64.0085 142.712 63.4568 142.398 63.6145C139.96 64.639 137.758 66.1365 135.949 68.1069C135.714 68.4222 136.107 68.8163 136.343 68.501C137.601 67.2399 138.938 66.2154 140.432 65.3484C141.375 65.8213 142.398 66.2942 143.42 66.5306C143.813 66.6094 143.97 66.0577 143.577 65.9001Z" fill="#894637"/>
<path d="M98.7542 90.1755C98.3611 91.2001 97.732 92.1459 96.867 92.7764C96.2379 93.2493 95.2943 93.0129 94.6652 92.6976C92.7779 91.673 91.9915 88.8357 91.677 86.8653C91.9915 86.8653 92.3061 86.9441 92.3061 86.9441C92.3061 86.8653 92.3061 86.8653 92.3061 86.7865C92.6206 88.284 93.1711 90.6484 94.4293 91.673C95.2156 92.3823 96.2379 92.6188 97.0243 91.7518C97.4961 91.2001 98.0465 90.5696 98.2824 89.8603C98.5183 89.1509 98.6756 88.4416 98.8329 87.7322C98.9902 86.2348 98.9115 84.7373 98.4397 83.3186C97.5747 80.7965 94.5865 81.2694 93.8002 83.555C93.6429 83.8703 93.1711 83.7915 93.2497 83.3974C93.8002 81.3482 96.3952 80.0084 98.2038 81.5847C99.1474 82.3728 99.3833 83.7915 99.5406 84.9737C99.6979 86.3924 99.7765 87.8899 99.3047 89.2297C98.9902 89.545 98.9115 89.8603 98.7542 90.1755Z" fill="#D89B39"/>
<path d="M97.5749 83.5549C97.1817 82.9244 96.3954 82.4515 95.6876 82.6879C94.8226 83.0032 94.4295 84.1066 94.2722 84.8948C94.0363 85.9194 93.9576 87.1016 94.3508 88.0474C94.6654 88.6779 95.4517 89.3872 96.1594 88.7567C96.9458 87.9685 96.8672 86.3134 96.6313 85.2888C96.5526 84.8948 95.9235 85.0524 96.0022 85.4465C96.0808 85.7617 96.2381 88.7567 95.2158 88.1262C94.5081 87.6533 94.744 85.9982 94.8226 85.3676C94.9799 84.6583 95.2945 83.0032 96.3167 83.3184C97.2604 83.5549 97.339 84.8948 97.339 85.6829C97.339 86.9439 97.339 90.0177 95.6876 90.4118C94.5867 90.6483 94.0363 88.9931 93.879 88.205C93.7217 87.338 93.7217 86.4711 93.8004 85.6041C93.879 85.2888 93.3286 85.0524 93.2499 85.4465C93.0926 86.5499 93.014 87.6533 93.3286 88.7567C93.5645 89.5449 94.0363 90.6483 94.9013 90.9635C97.2604 91.8305 97.8894 88.205 97.9681 86.7075C98.1253 85.6829 98.1253 84.4219 97.5749 83.5549Z" fill="#D89B39"/>
<path d="M104.259 93.0125C104.259 93.0125 104.259 92.9337 104.259 93.0125C104.495 92.7761 104.731 92.6184 104.967 92.6973C105.045 92.7761 105.124 92.8549 105.203 92.8549C105.517 93.0125 105.832 92.7761 106.068 92.5396C106.304 92.3032 106.697 91.9879 106.933 92.2244C107.09 92.4608 107.247 92.7761 107.326 93.0125C107.326 93.0913 107.404 93.1701 107.483 93.249C107.798 93.4854 108.112 93.0125 108.505 92.9337C108.82 92.8549 109.056 93.1701 109.134 93.4066C109.213 93.7219 109.213 93.9583 109.134 94.2736C109.134 94.3524 109.134 94.4312 109.134 94.51C109.213 94.5888 109.292 94.5888 109.37 94.5888C109.921 94.5888 110.55 94.3524 111.1 94.6676C111.493 94.8253 111.415 95.377 111.1 95.6134C110.943 95.6922 110.707 95.7711 110.471 95.8499C110.157 96.0075 109.921 96.0863 109.528 96.0863C109.292 96.0863 109.056 96.0075 108.82 96.0075C108.427 96.0863 108.191 96.4016 107.798 96.4016C107.168 96.4804 106.697 95.7711 106.068 95.8499C105.753 95.8499 105.439 96.1651 105.124 96.1651C104.809 96.1651 104.574 95.9287 104.259 95.8499C103.944 95.7711 103.63 95.9287 103.315 96.0075C103.079 96.0863 102.686 96.0863 102.529 95.8499C101.979 95.1405 103.787 93.4854 104.259 93.0125Z" fill="#E9946B"/>
<path d="M160.169 85.525C160.169 85.525 158.046 88.9928 157.417 90.8844C156.709 92.776 153.564 96.6379 150.89 95.7709C148.216 94.904 147.509 93.8794 146.88 91.7514C146.172 89.5445 145.779 87.4165 144.914 85.6038C144.049 83.7122 140.353 79.0621 140.353 79.0621L140.274 69.6831L144.127 66.4517C144.127 66.4517 146.329 67.6339 147.666 69.2102C147.745 69.289 147.823 69.3678 147.902 69.4466C148.059 69.6831 148.216 69.9195 148.374 70.156C149.396 72.2052 149.711 75.5154 150.733 76.6976C151.755 77.8799 152.384 79.3774 152.384 79.9291C152.384 80.402 154.9 75.5154 154.9 75.5154C154.9 75.5154 155.215 75.9095 155.765 76.54C157.417 78.668 160.955 83.4758 160.169 85.525Z" fill="#A9644C"/>
<path d="M144.678 84.9732C143.891 83.3969 142.712 81.9782 141.611 80.6383C141.375 80.3231 140.825 80.7171 141.139 80.9536C142.24 82.2934 143.184 83.7909 144.206 85.2096C144.285 85.5249 144.835 85.2884 144.678 84.9732Z" fill="#894637"/>
<path d="M147.902 69.4469C146.486 70.1562 145.307 71.3385 144.442 72.6783C143.891 73.4665 143.498 74.3334 143.105 75.2004C142.712 76.0674 142.397 77.0132 142.319 78.0378C142.319 78.1954 142.004 78.1954 142.004 78.0378C142.004 77.0132 142.397 75.9886 142.791 75.0428C143.184 74.1758 143.577 73.23 144.127 72.4419C144.992 71.102 146.172 69.9198 147.587 69.2104C147.745 69.2104 147.823 69.3681 147.902 69.4469Z" fill="#894637"/>
<path d="M153.878 76.0672C152.856 78.0375 151.833 80.0079 150.811 81.8995C150.261 82.8453 149.789 83.7122 149.238 84.5792C148.688 85.4462 148.138 86.1555 147.587 87.3377C147.508 87.5742 147.823 87.7318 147.98 87.5742C148.767 86.8648 149.238 85.8402 149.789 84.8945C150.339 83.9487 150.89 83.0029 151.44 82.0571C152.541 80.1656 153.563 78.274 154.35 76.2248C154.428 75.9883 153.957 75.8307 153.878 76.0672Z" fill="white"/>
<path d="M160.169 85.525C158.832 85.525 155.451 81.0325 155.451 81.0325L155.687 76.54C157.417 78.6681 160.955 83.4758 160.169 85.525Z" fill="#3A1714"/>
<path d="M157.81 83.8699C157.731 83.8699 161.82 72.1265 161.82 71.4959C161.82 71.2595 161.899 71.023 161.978 70.8654C162.135 70.5501 162.292 70.3925 162.528 70.1561C163 69.5255 162.607 68.9738 162.607 68.2645C162.685 67.8704 162.843 67.5552 162.921 67.1611C163 66.9246 162.921 66.6094 162.843 66.3729C162.764 66.1365 162.607 65.9789 162.528 65.8212C162.449 65.506 162.449 65.1907 162.371 64.8754C162.371 64.7966 162.371 64.639 162.292 64.5602C162.135 64.3237 161.899 64.3237 161.742 64.1661C161.427 63.9297 161.349 63.5356 161.034 63.378C160.798 63.2203 160.562 63.2203 160.248 63.2203C160.012 63.2203 159.697 63.2991 159.461 63.2991C159.383 63.2991 159.304 63.2991 159.304 63.2203C159.304 63.1415 159.304 63.1415 159.304 63.0627C159.461 62.3534 159.619 61.7228 159.619 61.0135C159.619 60.4618 159.304 59.5948 158.675 59.5948C157.259 59.2796 157.574 60.8559 157.574 61.644C157.574 62.4322 157.417 63.0627 156.945 64.1661C156.473 65.2695 155.844 65.9 156.001 67.3187C156.159 68.7374 156.473 70.4713 156.473 70.9442C156.473 71.4171 154.193 76.9342 154.193 76.9342C154.193 76.9342 153.485 79.5351 157.81 83.8699Z" fill="#EC9369"/>
<path d="M159.776 70.3137C159.933 70.3137 160.09 70.3137 160.169 70.3137C160.248 70.3137 160.326 70.3137 160.405 70.3137C160.955 70.3137 161.584 70.2349 162.135 70.156C162.292 70.156 162.371 69.9984 162.292 69.9196C162.292 69.762 162.135 69.6831 162.056 69.762C161.506 69.8408 160.955 69.9196 160.405 69.9196C160.326 69.9196 160.248 69.9196 160.169 69.9196C159.854 69.9196 159.225 69.9984 159.068 69.8408V69.6832C159.068 69.5255 159.147 69.3679 159.068 69.2103C158.989 68.8162 158.675 68.7374 158.439 68.6586C158.282 68.6586 158.203 68.5797 158.124 68.5009C158.124 68.5009 158.124 68.3433 158.203 68.2645C158.203 68.1857 158.282 68.1857 158.282 68.1068C158.36 68.028 158.439 67.8704 158.518 67.7128C158.518 67.634 158.518 67.5551 158.518 67.5551C158.518 67.4763 158.439 67.4763 158.36 67.4763C158.124 67.3975 157.889 67.3187 157.653 67.2399C157.495 67.1611 157.338 67.0034 157.259 66.8458C157.259 66.6882 157.259 66.5305 157.417 66.3729C157.574 66.2153 157.731 66.0576 157.889 65.9C157.967 65.8212 157.967 65.7424 157.967 65.6636C157.967 65.5848 157.889 65.5059 157.81 65.5059C157.653 65.4271 157.495 65.3483 157.338 65.2695C157.259 65.1907 157.181 65.1119 157.181 65.033C157.181 64.9542 157.259 64.8754 157.338 64.7966C157.731 64.4025 158.36 64.0873 158.911 63.8508C159.068 63.772 159.068 63.6932 159.068 63.5356C158.989 63.3779 158.911 63.3779 158.754 63.3779C158.124 63.6144 157.417 63.9296 157.024 64.4025C156.945 64.5602 156.788 64.7178 156.709 64.9542C156.709 65.1907 156.788 65.4271 157.024 65.5848C157.102 65.6636 157.181 65.6636 157.259 65.7424C157.181 65.8212 157.024 65.9788 156.945 66.0576C156.709 66.3729 156.709 66.6094 156.709 66.9246C156.788 67.2399 157.024 67.4763 157.338 67.634C157.495 67.7128 157.653 67.7916 157.81 67.8704C157.731 67.9492 157.731 67.9492 157.731 68.028C157.574 68.2645 157.495 68.5797 157.653 68.8162C157.81 69.0526 158.046 69.0526 158.203 69.1314C158.439 69.2103 158.518 69.2103 158.518 69.2891V69.4467C158.439 69.6043 158.36 69.8408 158.596 70.0772C158.989 70.3137 159.304 70.3137 159.776 70.3137Z" fill="#D97E56"/>
<path d="M141.139 94.7466C141.139 94.7466 143.734 95.2195 144.049 96.0076C144.363 96.8746 141.533 97.6628 141.533 97.6628L141.139 94.7466Z" fill="#3A1714"/>
<path d="M124.783 96.0865C124.704 95.2196 124.547 94.4314 124.469 93.5645C123.21 93.6433 121.874 93.8797 121.716 94.3526C121.323 95.2196 124.154 96.0077 124.783 96.0865C124.783 96.1654 124.783 96.1654 124.783 96.0865Z" fill="#3A1714"/>
<path d="M126.749 103.022C128.558 103.416 130.366 103.574 132.175 103.653C136.264 103.889 140.196 103.416 144.049 102.313C143.813 101.525 143.656 100.737 143.499 100.106C142.712 96.796 142.634 95.1409 142.634 95.1409C142.634 95.1409 141.297 94.4315 134.927 93.9586C128.558 93.4858 124.469 93.6434 124.469 93.6434C124.469 93.6434 124.626 95.8502 124.154 98.057C124.075 98.2935 123.918 98.8452 123.682 99.6333C123.525 100.185 123.289 100.894 123.053 101.761C124.075 102.392 125.57 102.786 126.749 103.022Z" fill="#EC9369"/>
<path d="M129.737 96.7173C129.58 96.7961 129.501 96.9537 129.501 97.1114C129.501 97.3478 129.501 97.6631 129.58 97.8995C129.58 98.0572 129.894 98.0572 129.894 97.8995C129.894 97.6631 129.894 97.4266 129.816 97.1902C129.816 97.1902 129.816 97.1114 129.816 97.0326C129.816 96.9537 129.894 97.0326 129.894 97.0326C129.894 97.1114 129.894 97.1902 129.973 97.269C129.973 97.3478 130.13 97.3478 130.13 97.269C130.366 97.1114 130.13 96.6385 129.737 96.7173Z" fill="#D97E56"/>
<path d="M154.979 193.345C155.608 194.212 142.083 194.054 139.802 194.054C126.198 194.212 120.615 194.133 120.694 193.187C120.694 192.163 131.152 192.478 144.992 192.241C153.406 191.926 154.429 192.241 154.979 193.345Z" fill="#847895"/>
<path d="M132.804 187.039C132.804 187.039 135.556 181.759 136.421 177.897C136.578 177.266 136.578 175.532 136.578 173.089C138.859 173.089 132.253 158.666 134.534 158.587C134.062 160.715 137.679 171.355 140.746 178.448C142.24 181.995 143.892 185.226 143.892 185.226L132.804 187.039Z" fill="#D97E56"/>
<path d="M145.464 189.798C145.464 189.798 128.715 193.345 125.176 193.108C124.783 193.108 124.547 192.714 124.705 192.005C124.862 191.374 125.098 190.586 125.412 190.271C126.041 189.64 129.737 187.827 130.917 186.33C132.175 184.833 133.119 182.783 134.141 182.31C135.163 181.759 136.185 182.153 136.579 182.31C136.972 182.468 138.387 184.202 139.645 184.202C141.533 184.202 142.004 181.916 142.712 181.995C143.184 182.074 144.128 184.438 144.835 186.566C145.386 187.827 145.543 188.931 145.464 189.798Z" fill="#C02328"/>
<path d="M145.7 189.955C145.7 189.955 128.636 193.502 125.019 193.345C124.626 193.345 124.547 192.714 124.704 192.005C126.277 191.847 136.421 190.665 137.365 190.192C138.387 189.64 138.938 188.458 139.802 187.906C140.51 187.512 143.577 186.724 144.992 186.566C145.464 187.827 145.7 189.089 145.7 189.955Z" fill="white"/>
<path d="M139.331 190.665C139.331 190.665 139.881 194.448 139.724 194.606C139.566 194.764 126.749 195.315 126.434 194.764C126.12 194.291 126.434 192.872 126.434 192.872L133.983 189.483L139.331 190.665Z" fill="white"/>
<path d="M137.679 186.724C137.679 186.724 138.544 186.409 138.859 187.197C139.173 188.064 139.566 192.399 139.566 192.399C139.566 192.399 137.915 192.241 137.365 192.872C136.893 193.581 136.028 190.823 136.028 190.823L137.679 186.724Z" fill="#ED4450"/>
<path d="M132.961 177.976C133.118 178.212 133.197 178.37 133.197 178.37V179.158L133.04 191.374C133.04 191.374 137.443 192.399 137.915 187.985C138.072 186.33 139.016 182.705 140.038 178.528C140.117 178.212 140.195 177.818 140.274 177.503C137.836 177.818 135.399 177.976 132.961 177.976Z" fill="#EC9369"/>
<path d="M132.568 185.542C132.568 185.542 135.399 185.069 135.949 185.542C136.421 186.015 136.736 188.301 137.05 188.458C137.365 188.616 137.601 188.458 137.837 188.301C138.072 188.143 139.409 192.32 139.409 192.32C139.409 192.32 138.072 192.32 137.758 192.636C137.443 192.951 137.05 193.66 136.421 193.66C135.713 193.66 130.838 193.66 130.838 193.66C130.838 193.66 130.13 192.163 129.187 192.163C128.164 192.163 127.535 193.503 127.142 193.503C126.827 193.503 126.277 193.503 126.277 193.503C126.277 193.503 126.12 192.163 127.142 191.611C127.692 191.375 129.029 190.744 129.973 188.931C130.995 187.119 132.096 185.542 132.568 185.542Z" fill="#ED4450"/>
<path d="M134.219 187.907C133.669 187.04 132.175 187.119 131.31 187.197C130.917 187.197 130.917 187.828 131.31 187.749C131.782 187.749 132.725 187.67 133.276 187.907C132.489 188.143 131.782 188.301 130.995 188.537C130.445 188.695 129.422 189.01 129.187 189.562C128.951 190.035 129.422 190.271 129.816 190.35C130.995 190.508 132.332 190.192 133.433 190.665C133.747 190.823 133.983 190.192 133.669 190.035C133.04 189.719 132.411 189.719 131.782 189.719C131.467 189.719 131.152 189.719 130.759 189.719C130.523 189.719 130.287 189.719 130.13 189.719C129.737 189.719 129.658 189.719 130.052 189.641C130.523 189.247 131.388 189.089 131.939 188.931C132.647 188.774 133.354 188.616 133.983 188.38C134.219 188.301 134.298 188.143 134.219 187.907Z" fill="#842A2E"/>
<path d="M129.658 149.523C128.007 147.316 126.277 144.794 126.434 143.139C126.513 142.114 130.445 132.499 130.838 131.317C130.838 131.317 133.197 152.518 133.197 155.749C133.197 155.749 131.31 151.73 129.658 149.523ZM144.285 103.337C143.97 102.076 143.656 100.973 143.42 100.027C142.476 100.185 139.567 100.579 134.691 100.815C129.344 101.131 124.704 99.8695 123.603 99.5542C121.48 106.569 112.988 133.366 114.01 140.775C114.56 144.4 118.178 151.966 122.188 159.375C124.075 162.764 125.962 166.153 127.692 169.148C128.793 171.04 129.737 172.695 130.602 174.113C132.175 176.714 133.197 178.448 133.197 178.448V179.236C136.028 180.261 139.016 179.158 140.038 178.685C140.589 176.478 141.218 174.113 141.768 171.828C142.869 167.335 143.892 163.316 143.892 161.661C143.892 161.582 143.892 161.503 143.892 161.424C144.049 157.405 143.341 153.306 142.555 149.523C141.69 145.661 143.027 136.913 145.543 126.588C148.059 116.263 145.779 108.933 144.285 103.337Z" fill="#5F7AB3"/>
<path d="M131.31 136.676C130.838 134.233 130.995 131.711 130.759 129.189C130.523 126.903 130.209 124.539 129.816 122.253C129.029 117.367 128.164 112.48 127.928 107.593C127.928 107.199 127.299 107.199 127.378 107.593C127.535 112.48 128.4 117.288 129.187 122.174C129.58 124.696 129.973 127.218 130.13 129.74C130.287 132.105 130.13 134.627 130.759 136.913C130.838 137.228 131.388 137.07 131.31 136.676Z" fill="#FFE7D7"/>
<path d="M143.97 102.234C143.262 102.313 142.633 102.392 141.926 102.549C135.949 103.337 129.816 103.731 123.918 102.155C123.761 102.076 123.839 101.84 123.997 101.84C125.648 102.234 127.378 102.549 129.029 102.707C132.018 103.022 135.084 102.943 138.072 102.628C140.038 102.47 141.926 102.155 143.892 101.919L143.97 102.234Z" fill="#464C7B"/>
<path d="M143.97 161.267C143.97 161.345 143.97 161.424 143.97 161.503C143.892 163.158 142.948 167.178 141.847 171.67C140.274 172.695 137.365 173.877 132.725 173.956L132.883 171.591C132.883 171.591 140.589 168.281 143.97 161.267Z" fill="#FC9081"/>
<path d="M132.647 166.153C129.973 165.286 125.412 163.237 122.267 159.375C124.154 162.764 126.041 166.153 127.771 169.148C128.951 169.385 130.523 169.542 132.332 169.463C132.411 168.36 132.568 167.257 132.647 166.153Z" fill="#FC9081"/>
<path d="M133.197 155.75V178.369C133.197 178.369 132.175 176.714 130.602 174.035L133.197 155.75Z" fill="#1A1A1A"/>
<path d="M128.951 87.9688C128.793 86.3925 128.164 84.9738 128.479 83.3187C128.715 81.8212 128.951 80.4025 128.951 78.8262C128.951 77.2499 128.951 75.6736 128.872 74.0973C128.872 73.7032 128.243 73.7032 128.243 74.0973C128.243 75.6736 128.243 77.2499 128.243 78.8262C128.243 80.4814 127.928 81.9788 127.771 83.634C127.535 85.1315 128.164 86.4713 128.322 87.9688C128.479 89.4663 128.479 91.0426 128.636 92.5401C128.636 92.9342 129.265 92.9342 129.265 92.5401C129.108 91.0426 129.108 89.4663 128.951 87.9688Z" fill="#842A2E"/>
<path d="M132.017 84.8158C132.411 83.003 132.725 81.3479 132.647 79.4564C132.568 77.6436 132.253 75.8309 131.624 74.0969C131.467 73.7028 130.917 73.8605 131.074 74.2545C131.624 76.0673 132.017 77.8801 132.017 79.7716C132.017 81.742 131.467 83.5548 131.231 85.4463C131.152 86.2345 131.231 87.0226 131.388 87.8108C131.624 88.8354 131.703 89.86 131.703 90.9634C131.703 92.8549 131.467 94.7465 131.31 96.6381C131.31 97.0322 131.939 97.0322 132.017 96.6381C132.175 94.7465 132.332 92.8549 132.411 90.9634C132.411 88.9142 131.624 86.865 132.017 84.8158Z" fill="#842A2E"/>
</g>
<defs>
<clipPath id="clip0">
<rect width="113" height="157" fill="white" transform="translate(50 38)"/>
</clipPath>
</defs>
</svg>
