<svg width="76" height="56" viewBox="0 0 76 56" fill="none" xmlns="http://www.w3.org/2000/svg">
<path d="M68.722 30.4362C68.6012 29.614 68.4402 28.8032 68.2388 27.9924C67.8994 26.6221 67.4393 25.2689 66.7375 24.0413C65.6388 22.1228 63.9764 20.5697 62.1472 19.3136C58.8109 17.0183 55.7046 16.67 51.7816 16.6585C47.847 16.6471 43.7629 16.8812 40.0412 15.3739C37.5677 14.3746 35.4279 12.656 32.9256 11.7196C27.4265 9.6641 20.5928 12.165 17.7569 17.2752C16.2383 20.0045 15.7264 23.3675 13.4715 25.5372C11.74 27.1987 9.24356 27.8839 7.51788 29.5512C5.28025 31.7037 4.86608 34.964 5.0329 37.9102C5.21697 41.0792 7.05195 43.4887 8.34621 46.2922C9.76702 49.3754 13.0516 51.5623 16.4684 52.2931C18.4875 52.7271 20.5698 52.7499 22.6348 52.767C29.8137 52.8413 36.9925 52.9098 44.1713 52.984C47.732 53.0183 51.3099 53.0525 54.8188 52.4587C58.3277 51.8649 61.7963 50.5916 64.4941 48.2963C67.0711 46.1037 67.9627 42.3239 68.561 39.0865C69.0844 36.2316 69.1419 33.2968 68.722 30.4362Z" fill="#96BAFF" fill-opacity="0.33"/>
<path d="M59.7055 37.6524L54.771 40.654C49.965 43.5773 44.1575 44.2063 38.8374 42.3801C38.0576 42.1125 37.5231 41.4654 37.4073 40.6493C37.2916 39.8331 37.625 39.0629 38.2997 38.589L43.4314 34.9826C44.7676 34.0436 45.105 32.2433 44.1992 30.8845C43.5121 29.8529 42.2857 29.3584 41.075 29.6237L27.891 32.5161V32.3496C27.891 31.1975 26.9538 30.2603 25.8018 30.2603H19.1955C18.7504 30.2603 18.3898 30.621 18.3898 31.066C18.3898 31.5111 18.7504 31.8717 19.1955 31.8717H25.8017C26.0652 31.8717 26.2796 32.0861 26.2796 32.3496V50.5793C26.2796 50.8428 26.0652 51.0572 25.8017 51.0572H12.147C12.1273 51.0572 12.1113 51.0413 12.1113 51.0216V31.9073C12.1113 31.8877 12.1273 31.8717 12.147 31.8717H15.9743C16.4194 31.8717 16.78 31.5111 16.78 31.066C16.78 30.621 16.4194 30.2603 15.9743 30.2603H12.147C11.2388 30.2603 10.5 30.9992 10.5 31.9073V51.0217C10.5 51.9298 11.2388 52.6686 12.147 52.6686H25.8017C26.9538 52.6686 27.8909 51.7314 27.8909 50.5794V50.1698L28.3628 50.3059C33.1123 51.6762 38.1702 52.1802 43.4098 51.6315C48.5416 51.094 53.4409 49.5868 57.9719 47.1518C58.3638 46.9411 58.5108 46.4525 58.3002 46.0607C58.0895 45.6689 57.6011 45.5215 57.2091 45.7324C52.8637 48.0678 48.1645 49.5133 43.242 50.0289C34.6341 50.9302 28.555 48.6226 27.891 48.4927V34.1659L41.4202 31.1977C41.9772 31.0754 42.5419 31.3031 42.8584 31.778C43.2753 32.4035 43.1201 33.2321 42.5049 33.6643L37.3731 37.2707C36.2107 38.0876 35.6124 39.469 35.8121 40.8758C36.0116 42.2825 36.9705 43.4429 38.3144 43.9043C44.0891 45.8864 50.3924 45.2037 55.6085 42.0308L60.543 39.0291C61.9786 38.1556 63.9292 39.1218 63.8881 40.5058C63.8754 40.9373 63.6769 41.342 63.3437 41.6164C62.2762 42.4952 61.1493 43.3237 59.9944 44.0787C59.622 44.3223 59.5176 44.8216 59.761 45.194C60.0046 45.5665 60.5039 45.6708 60.8762 45.4274C62.0802 44.6402 63.255 43.7766 64.3678 42.8605C65.06 42.2906 65.4723 41.4497 65.4987 40.5535C65.5799 37.8037 62.1546 36.1622 59.7055 37.6524Z" fill="black"/>
<path d="M22.19 45.5006V43.7532C22.19 43.3081 21.8294 42.9475 21.3844 42.9475C20.9393 42.9475 20.5787 43.3081 20.5787 43.7532V45.5006C20.5787 45.9457 20.9393 46.3063 21.3844 46.3063C21.8294 46.3063 22.19 45.9457 22.19 45.5006Z" fill="black"/>
<path d="M36.9576 11.7318V12.9213C36.9576 13.3664 37.3182 13.727 37.7632 13.727C38.2083 13.727 38.5689 13.3664 38.5689 12.9213V11.7318C38.5689 11.2867 38.2083 10.9261 37.7632 10.9261C37.3182 10.9261 36.9576 11.2867 36.9576 11.7318Z" fill="black"/>
<path d="M43.7698 11.7318V12.9213C43.7698 13.3664 44.1305 13.727 44.5755 13.727C45.0205 13.727 45.3812 13.3664 45.3812 12.9213V11.7318C45.3812 11.2867 45.0205 10.9261 44.5755 10.9261C44.1305 10.9261 43.7698 11.2867 43.7698 11.7318Z" fill="black"/>
<path d="M51.3877 13.727C51.8328 13.727 52.1934 13.3664 52.1934 12.9213V11.7318C52.1934 11.2867 51.8328 10.9261 51.3877 10.9261C50.9427 10.9261 50.5821 11.2867 50.5821 11.7318V12.9213C50.5821 13.3663 50.9427 13.727 51.3877 13.727Z" fill="black"/>
<path d="M32.5988 21.7807H41.1265C41.1888 21.7807 41.2449 21.8154 41.2726 21.8712L42.9874 25.3106C43.2894 25.917 43.8981 26.2935 44.5755 26.2935C45.2529 26.2935 45.8615 25.9169 46.1636 25.3107L47.8784 21.8713C47.9062 21.8154 47.9622 21.7807 48.0245 21.7807H56.5522C57.5307 21.7807 58.3269 20.9846 58.3269 20.006V4.64692C58.3269 3.66842 57.5308 2.87231 56.5522 2.87231H52.3483C51.9033 2.87231 51.5427 3.23293 51.5427 3.67798C51.5427 4.12303 51.9033 4.48364 52.3483 4.48364H56.5522C56.6423 4.48364 56.7156 4.5569 56.7156 4.64692V20.006C56.7156 20.0961 56.6423 20.1694 56.5522 20.1694H48.0245C47.3472 20.1694 46.7386 20.5459 46.4364 21.1521L44.7216 24.5917C44.6917 24.6518 44.6425 24.6822 44.5755 24.6822C44.5085 24.6822 44.4593 24.6518 44.4294 24.5916L42.7146 21.152C42.4123 20.5458 41.8038 20.1694 41.1265 20.1694H32.5988C32.5087 20.1694 32.4354 20.0961 32.4354 20.006V4.64692C32.4354 4.5569 32.5087 4.48364 32.5988 4.48364H49.1271C49.5721 4.48364 49.9327 4.12303 49.9327 3.67798C49.9327 3.23293 49.5721 2.87231 49.1271 2.87231H32.5988C31.6203 2.87231 30.8241 3.66831 30.8241 4.64692V20.006C30.8241 20.9845 31.6202 21.7807 32.5988 21.7807Z" fill="black"/>
</svg>
