<svg width="96" height="56" viewBox="0 0 96 56" fill="none" xmlns="http://www.w3.org/2000/svg">
<g clip-path="url(#clip0)">
<path d="M79.722 30.5714C79.6012 29.7492 79.4402 28.9384 79.2388 28.1277C78.8994 26.7573 78.4393 25.4041 77.7375 24.1765C76.6388 22.258 74.9764 20.705 73.1472 19.4488C69.8109 17.1535 66.7046 16.8052 62.7816 16.7938C58.847 16.7824 54.7629 17.0165 51.0412 15.5091C48.5677 14.5099 46.4279 12.7913 43.9256 11.8549C38.4265 9.79935 31.5928 12.3002 28.7569 17.4105C27.2383 20.1397 26.7264 23.5028 24.4715 25.6725C22.74 27.334 20.2436 28.0192 18.5179 29.6864C16.2802 31.839 15.8661 35.0993 16.0329 38.0455C16.217 41.2144 18.0519 43.6239 19.3462 46.4274C20.767 49.5107 24.0516 51.6975 27.4684 52.4284C29.4875 52.8623 31.5698 52.8852 33.6348 52.9023C40.8137 52.9765 47.9925 53.045 55.1713 53.1192C58.732 53.1535 62.3099 53.1878 65.8188 52.594C69.3277 52.0001 72.7963 50.7269 75.4941 48.4315C78.0711 46.239 78.9627 42.4591 79.561 39.2217C80.0844 36.3668 80.1419 33.432 79.722 30.5714Z" fill="#FFEED0"/>
<path d="M39.4658 5.04391C39.0207 5.04391 38.6601 4.68329 38.6601 4.23824V1.07617C38.6601 0.631123 39.0207 0.270508 39.4658 0.270508C39.9108 0.270508 40.2714 0.631123 40.2714 1.07617V4.23824C40.2714 4.68318 39.9107 5.04391 39.4658 5.04391Z" fill="black"/>
<path d="M47.0274 6.03095C46.8682 6.21496 46.6437 6.30928 46.418 6.30928C46.2311 6.30928 46.0434 6.24461 45.891 6.1127C45.5545 5.82148 45.5179 5.31273 45.8092 4.97628L47.8612 2.60623C48.1524 2.26968 48.6613 2.23316 48.9976 2.52449C49.3341 2.81571 49.3707 3.32446 49.0794 3.6609L47.0274 6.03095Z" fill="black"/>
<path d="M33.0405 6.11266C32.8881 6.24469 32.7004 6.30925 32.5135 6.30925C32.2878 6.30925 32.0634 6.21493 31.9041 6.03092L29.8521 3.66087C29.5608 3.32442 29.5974 2.81567 29.9339 2.52445C30.2703 2.23312 30.7792 2.26975 31.0703 2.6062L33.1223 4.97625C33.4136 5.31269 33.377 5.82144 33.0405 6.11266Z" fill="black"/>
<path d="M41.1349 30.2708C40.667 30.7208 40.0663 30.9457 39.4657 30.9457C38.8651 30.9457 38.2644 30.7208 37.7965 30.2708L25.4032 18.3554C24.5263 17.5123 24.4164 16.1434 25.1478 15.1713L26.8112 12.9601C27.0786 12.6045 27.5838 12.5331 27.9393 12.8007C28.295 13.0682 28.3663 13.5733 28.0988 13.9288L26.6704 15.8277H33.0654L34.7643 10.2197H31.2869C31.0378 10.2197 30.7998 10.3385 30.6499 10.5375L30.0351 11.3546C29.7677 11.7101 29.2626 11.7816 28.907 11.514C28.5513 11.2465 28.48 10.7414 28.7476 10.3858L29.3624 9.5688C29.8148 8.96734 30.5343 8.60834 31.2869 8.60834H47.6443C48.397 8.60834 49.1165 8.96745 49.569 9.5688L53.7834 15.1713C54.5148 16.1433 54.405 17.5121 53.5281 18.3554L41.1349 30.2708ZM45.9098 17.4391L41.2962 27.8806L52.1564 17.4391H45.9098ZM26.775 17.4391L37.6348 27.8801L33.0213 17.439H26.775V17.4391ZM39.4656 28.0365L44.1482 17.4391H34.783L39.4656 28.0365ZM36.4479 10.2197L34.7491 15.8277H44.1821L42.4834 10.2197H36.4479ZM48.2814 10.5375C48.1315 10.3385 47.8935 10.2197 47.6443 10.2197H44.1669L45.8657 15.8277H52.2611L48.2814 10.5375Z" fill="black"/>
<path d="M26.2945 40.2544L31.229 43.256C36.0347 46.1792 41.8424 46.8084 47.1626 44.9821C47.9424 44.7145 48.4769 44.0674 48.5927 43.2513C48.7084 42.4351 48.375 41.6648 47.7003 41.1909L42.5686 37.5846C41.2324 36.6457 40.895 34.8454 41.8008 33.4865C42.4879 32.4549 43.7138 31.96 44.925 32.2257L58.109 35.1181V34.9516C58.109 33.7995 59.0462 32.8624 60.1982 32.8624H66.8045C67.2496 32.8624 67.6102 33.223 67.6102 33.668C67.6102 34.1131 67.2496 34.4737 66.8045 34.4737H60.1983C59.9348 34.4737 59.7204 34.6881 59.7204 34.9516V53.1813C59.7204 53.4448 59.9348 53.6591 60.1983 53.6591H73.853C73.8727 53.6591 73.8887 53.6432 73.8887 53.6235V34.5093C73.8887 34.4896 73.8727 34.4737 73.853 34.4737H70.0257C69.5806 34.4737 69.22 34.1131 69.22 33.668C69.22 33.223 69.5806 32.8624 70.0257 32.8624H73.853C74.7612 32.8624 75.5 33.6012 75.5 34.5093V53.6237C75.5 54.5316 74.7612 55.2704 73.853 55.2704H60.1983C59.0462 55.2704 58.1091 54.3332 58.1091 53.1813V52.7717L57.6372 52.9078C54.0764 53.9352 50.4279 54.4512 46.7445 54.4511C45.3638 54.4511 43.9775 54.3786 42.5902 54.2333C37.4585 53.6958 32.5591 52.1886 28.0281 49.7536C27.6362 49.5429 27.4892 49.0544 27.6998 48.6625C27.9104 48.2706 28.3989 48.1232 28.7909 48.3342C33.1363 50.6697 37.8355 52.1151 42.758 52.6308C47.6393 53.1418 52.4953 52.7142 57.1905 51.3596L58.1091 51.0946V36.7678L44.5798 33.7996C44.022 33.6771 43.4582 33.905 43.1417 34.3799C42.7248 35.0054 42.88 35.834 43.4952 36.2662L48.627 39.8725C49.7895 40.6894 50.3877 42.071 50.188 43.4778C49.9883 44.8846 49.0296 46.0449 47.6857 46.5062C41.9113 48.4884 35.6078 47.8057 30.3916 44.6326L25.4571 41.631C24.0424 40.7702 22.0705 41.7079 22.112 43.1076C22.1247 43.5391 22.3232 43.9439 22.6564 44.2183C23.7239 45.0972 24.8508 45.9256 26.0057 46.6807C26.3781 46.9242 26.4825 47.4235 26.2391 47.7959C25.9954 48.1685 25.4961 48.2728 25.1239 48.0293C23.9199 47.2422 22.7451 46.3785 21.6323 45.4624C20.9401 44.8925 20.5278 44.0516 20.5014 43.1553C20.4192 40.3792 23.8773 38.7837 26.2945 40.2544Z" fill="black"/>
<path d="M63.8099 48.1026V46.3552C63.8099 45.9101 64.1705 45.5495 64.6156 45.5495C65.0606 45.5495 65.4212 45.9101 65.4212 46.3552V48.1026C65.4212 48.5476 65.0606 48.9083 64.6156 48.9083C64.1705 48.9083 63.8099 48.5475 63.8099 48.1026Z" fill="black"/>
</g>
<defs>
<clipPath id="clip0">
<rect width="96" height="55" fill="white" transform="matrix(-1 0 0 1 96 0.135254)"/>
</clipPath>
</defs>
</svg>
