<svg width="40" height="41" viewBox="0 0 40 41" fill="none" xmlns="http://www.w3.org/2000/svg">
<path d="M16.25 32.6351C15.8792 32.6351 15.5166 32.7451 15.2083 32.9511C14.9 33.1572 14.6596 33.45 14.5177 33.7926C14.3758 34.1352 14.3387 34.5122 14.411 34.8759C14.4834 35.2396 14.662 35.5737 14.9242 35.836C15.1864 36.0982 15.5205 36.2768 15.8842 36.3491C16.2479 36.4215 16.6249 36.3843 16.9675 36.2424C17.3101 36.1005 17.603 35.8602 17.809 35.5518C18.015 35.2435 18.125 34.881 18.125 34.5101C18.125 34.0129 17.9275 33.5359 17.5758 33.1843C17.2242 32.8327 16.7473 32.6351 16.25 32.6351ZM16.25 35.1351C16.1264 35.1351 16.0055 35.0985 15.9028 35.0298C15.8 34.9611 15.7199 34.8635 15.6726 34.7493C15.6253 34.6351 15.6129 34.5094 15.637 34.3882C15.6611 34.267 15.7206 34.1556 15.8081 34.0682C15.8955 33.9808 16.0068 33.9213 16.1281 33.8971C16.2493 33.873 16.375 33.8854 16.4892 33.9327C16.6034 33.98 16.701 34.0601 16.7697 34.1629C16.8383 34.2657 16.875 34.3865 16.875 34.5101C16.875 34.6759 16.8092 34.8349 16.6919 34.9521C16.5747 35.0693 16.4158 35.1351 16.25 35.1351Z" fill="black"/>
<path d="M37.4998 13.2601H36.2498V12.6351C36.2498 12.4694 36.184 12.3104 36.0668 12.1932C35.9496 12.076 35.7906 12.0101 35.6248 12.0101H28.4748C28.3836 12.0099 28.2934 12.0293 28.2104 12.067C28.1273 12.1048 28.0534 12.16 27.9936 12.2289L27.4998 12.8101V5.13513C27.4998 4.14057 27.1048 3.18674 26.4015 2.48348C25.6982 1.78022 24.7444 1.38513 23.7498 1.38513H8.74985C7.75529 1.38513 6.80146 1.78022 6.0982 2.48348C5.39494 3.18674 4.99985 4.14057 4.99985 5.13513V12.0101H3.74985C3.58409 12.0101 3.42512 12.076 3.30791 12.1932C3.1907 12.3104 3.12485 12.4694 3.12485 12.6351V22.0101H1.87485C1.75908 22.0088 1.64532 22.0404 1.54683 22.1013C1.44835 22.1621 1.36919 22.2497 1.3186 22.3539C1.26595 22.4577 1.24332 22.5741 1.25326 22.69C1.2632 22.806 1.30531 22.9168 1.37485 23.0101L4.99985 27.8414V35.1351C4.99985 36.1297 5.39494 37.0835 6.0982 37.7868C6.80146 38.49 7.75529 38.8851 8.74985 38.8851H23.7498C24.7444 38.8851 25.6982 38.49 26.4015 37.7868C27.1048 37.0835 27.4998 36.1297 27.4998 35.1351V28.2601H37.4998C37.8311 28.2591 38.1484 28.1271 38.3826 27.8929C38.6168 27.6587 38.7489 27.3413 38.7498 27.0101V14.5101C38.7489 14.1789 38.6168 13.8615 38.3826 13.6273C38.1484 13.3931 37.8311 13.2611 37.4998 13.2601ZM5.62485 26.5914L3.12485 23.2601H3.74985C3.91561 23.2601 4.07458 23.1943 4.19179 23.0771C4.309 22.9599 4.37485 22.8009 4.37485 22.6351V13.2601H6.87485V22.6351C6.87485 22.8009 6.9407 22.9599 7.05791 23.0771C7.17512 23.1943 7.33409 23.2601 7.49985 23.2601H8.12485L5.62485 26.5914ZM26.2498 25.4976L25.8061 24.7976C25.7491 24.7087 25.6704 24.6357 25.5775 24.5854C25.4846 24.5352 25.3805 24.5093 25.2748 24.5101H18.7498V13.2601H24.9873L26.2498 14.7414V25.4976ZM18.7498 25.7601H24.9373L25.7311 27.0101H16.2498V14.5101H17.4998V24.5101C17.5008 24.8413 17.6329 25.1587 17.8671 25.3929C18.1013 25.6271 18.4186 25.7591 18.7498 25.7601ZM26.2498 12.8101L25.7561 12.2289C25.6963 12.16 25.6224 12.1048 25.5393 12.067C25.4563 12.0293 25.3661 12.0099 25.2748 12.0101H18.1248C17.9591 12.0101 17.8001 12.076 17.6829 12.1932C17.5657 12.3104 17.4998 12.4694 17.4998 12.6351V13.2601H16.2498C15.9186 13.2611 15.6013 13.3931 15.3671 13.6273C15.1328 13.8615 15.0008 14.1789 14.9998 14.5101V27.0101C15.0008 27.3413 15.1328 27.6587 15.3671 27.8929C15.6013 28.1271 15.9186 28.2591 16.2498 28.2601H26.2498V35.1351C26.2498 35.7982 25.9865 36.4341 25.5176 36.9029C25.0488 37.3717 24.4129 37.6351 23.7498 37.6351H8.74985C8.08681 37.6351 7.45092 37.3717 6.98208 36.9029C6.51324 36.4341 6.24985 35.7982 6.24985 35.1351V27.8414L9.87485 23.0101C9.94439 22.9168 9.9865 22.806 9.99644 22.69C10.0064 22.5741 9.98374 22.4577 9.9311 22.3539C9.88051 22.2497 9.80135 22.1621 9.70286 22.1013C9.60438 22.0404 9.49062 22.0088 9.37485 22.0101H8.12485V12.6351C8.12485 12.4694 8.059 12.3104 7.94179 12.1932C7.82458 12.076 7.66561 12.0101 7.49985 12.0101H6.24985V5.13513C6.24985 4.47209 6.51324 3.83621 6.98208 3.36736C7.45092 2.89852 8.08681 2.63513 8.74985 2.63513H23.7498C24.4129 2.63513 25.0488 2.89852 25.5176 3.36736C25.9865 3.83621 26.2498 4.47209 26.2498 5.13513V12.8101ZM27.4998 25.4976V14.7414L28.7623 13.2601H34.9998V24.5101H28.4748C28.3692 24.5093 28.2651 24.5352 28.1722 24.5854C28.0793 24.6357 28.0006 24.7087 27.9436 24.7976L27.4998 25.4976ZM37.4998 27.0101H28.0186L28.8123 25.7601H35.6248C35.7906 25.7601 35.9496 25.6943 36.0668 25.5771C36.184 25.4599 36.2498 25.3009 36.2498 25.1351V14.5101H37.4998V27.0101Z" fill="black"/>
<path d="M21.25 15.7601H23.75C23.9158 15.7601 24.0747 15.6943 24.1919 15.5771C24.3092 15.4599 24.375 15.3009 24.375 15.1351C24.375 14.9694 24.3092 14.8104 24.1919 14.6932C24.0747 14.576 23.9158 14.5101 23.75 14.5101H21.25C21.0842 14.5101 20.9253 14.576 20.8081 14.6932C20.6908 14.8104 20.625 14.9694 20.625 15.1351C20.625 15.3009 20.6908 15.4599 20.8081 15.5771C20.9253 15.6943 21.0842 15.7601 21.25 15.7601Z" fill="black"/>
<path d="M24.375 17.0101H21.25C21.0842 17.0101 20.9253 17.076 20.8081 17.1932C20.6908 17.3104 20.625 17.4694 20.625 17.6351C20.625 17.8009 20.6908 17.9599 20.8081 18.0771C20.9253 18.1943 21.0842 18.2601 21.25 18.2601H24.375C24.5408 18.2601 24.6997 18.1943 24.8169 18.0771C24.9342 17.9599 25 17.8009 25 17.6351C25 17.4694 24.9342 17.3104 24.8169 17.1932C24.6997 17.076 24.5408 17.0101 24.375 17.0101Z" fill="black"/>
<path d="M24.375 19.5101H21.25C21.0842 19.5101 20.9253 19.576 20.8081 19.6932C20.6908 19.8104 20.625 19.9694 20.625 20.1351C20.625 20.3009 20.6908 20.4599 20.8081 20.5771C20.9253 20.6943 21.0842 20.7601 21.25 20.7601H24.375C24.5408 20.7601 24.6997 20.6943 24.8169 20.5771C24.9342 20.4599 25 20.3009 25 20.1351C25 19.9694 24.9342 19.8104 24.8169 19.6932C24.6997 19.576 24.5408 19.5101 24.375 19.5101Z" fill="black"/>
<path d="M24.375 22.0101H21.25C21.0842 22.0101 20.9253 22.076 20.8081 22.1932C20.6908 22.3104 20.625 22.4694 20.625 22.6351C20.625 22.8009 20.6908 22.9599 20.8081 23.0771C20.9253 23.1943 21.0842 23.2601 21.25 23.2601H24.375C24.5408 23.2601 24.6997 23.1943 24.8169 23.0771C24.9342 22.9599 25 22.8009 25 22.6351C25 22.4694 24.9342 22.3104 24.8169 22.1932C24.6997 22.076 24.5408 22.0101 24.375 22.0101Z" fill="black"/>
<path d="M31.25 18.2601C31.0842 18.2601 30.9253 18.326 30.8081 18.4432C30.6908 18.5604 30.625 18.7194 30.625 18.8851V22.6351C30.625 22.8009 30.6908 22.9599 30.8081 23.0771C30.9253 23.1943 31.0842 23.2601 31.25 23.2601C31.4158 23.2601 31.5747 23.1943 31.6919 23.0771C31.8092 22.9599 31.875 22.8009 31.875 22.6351V18.8851C31.875 18.7194 31.8092 18.5604 31.6919 18.4432C31.5747 18.326 31.4158 18.2601 31.25 18.2601Z" fill="black"/>
<path d="M31.25 17.0101C31.9404 17.0101 32.5 16.4505 32.5 15.7601C32.5 15.0698 31.9404 14.5101 31.25 14.5101C30.5596 14.5101 30 15.0698 30 15.7601C30 16.4505 30.5596 17.0101 31.25 17.0101Z" fill="black"/>
</svg>
